<svg width="91" height="108" viewBox="0 0 91 108" fill="none" xmlns="http://www.w3.org/2000/svg">
<path fill-rule="evenodd" clip-rule="evenodd" d="M50.3204 69.2367C48.5492 69.1281 46.8558 69.9449 45.8728 71.4104L33.6295 89.3629L28.0671 60.414C33.0908 60.805 38.2807 59.9561 43.1539 57.6531C48.0271 55.3501 51.9779 51.8792 54.8698 47.7475L73.9749 70.7498L50.3204 69.2367ZM21.7925 12.4461C31.765 7.73326 43.7076 12.0106 48.4204 21.983C53.1333 31.9555 48.8559 43.8981 38.8835 48.611C28.911 53.3238 16.9684 49.0465 12.2555 39.074C7.5427 29.1016 11.82 17.1589 21.7925 12.4461ZM89.082 73.2829L59.4614 37.6253C61.0359 31.174 60.5135 24.1707 57.4606 17.7108C50.3913 2.75209 32.4774 -3.66389 17.5187 3.40537C2.56453 10.4725 -3.85596 28.3886 3.2133 43.3473C6.26617 49.8072 11.3453 54.657 17.3293 57.5363L26.0782 103.058C26.4591 105.045 27.9969 106.603 29.9762 107.011C31.951 107.422 33.978 106.585 35.1151 104.931L52.5253 79.3991L84.9148 81.4682C85.7769 81.5254 86.6194 81.354 87.3698 80.9993C88.3508 80.5357 89.1777 79.7578 89.6945 78.7449C90.5972 76.9689 90.3608 74.8188 89.082 73.2829Z" fill="#FFF1D1"/>
</svg>
