<svg width="1027" height="632" viewBox="0 0 1027 632" fill="none" xmlns="http://www.w3.org/2000/svg">
<path d="M147.339 537.203C172.173 542.595 198.306 533.73 217.877 518.132C247.926 493.945 256.426 446.25 290.761 428.198C311.546 417.444 336.638 422.222 360.128 423.077C389.305 424.158 419.528 418.458 444.478 402.957C464.422 390.766 481.469 370.858 488.79 348.302C493.498 333.673 494.264 318.109 489.085 302.932C478.144 270.527 445.483 252.816 431.231 222.269C418.047 194.337 431.357 165.274 428.399 136.228C425.797 108.053 405.15 82.3984 378.15 73.5675C319.107 54.146 264.173 122.025 233.099 162.39C206.578 197.089 181.997 234.047 148.298 261.755C129.035 277.481 106.861 289.818 86.8061 304.85C61.0505 323.984 44.8391 363.38 74.5315 388.147C74.5315 388.147 74.5315 388.147 74.8386 388.276C85.8781 397.253 92.7037 410.234 92.8902 424.394C93.2192 433.92 93.2413 443.317 93.6994 452.536C94.2731 465.775 96.64 479.047 101.187 491.431C105.499 513.825 124.912 532.101 147.339 537.203Z" fill="#F39681"/>
<path d="M336.016 330.921C336.8 331.704 337.975 331.704 338.759 331.312C339.543 330.529 339.543 329.353 339.151 328.569C338.367 327.786 337.192 327.786 336.408 328.178C335.232 328.569 335.232 330.137 336.016 330.921Z" fill="#FFE9B9"/>
<path d="M350.908 340.325C351.692 341.109 352.867 341.109 353.651 340.717C354.435 339.934 354.435 338.758 354.043 337.974C353.259 337.19 352.084 337.19 351.3 337.582C350.516 338.366 350.516 339.542 350.908 340.325Z" fill="#FFE9B9"/>
<path d="M366.182 349.729C366.966 350.513 368.142 350.513 368.925 350.121C369.709 349.337 369.709 348.162 369.317 347.378C368.534 346.594 367.358 346.594 366.574 346.986C365.399 347.77 365.399 348.945 366.182 349.729Z" fill="#FFE9B9"/>
<path d="M487.262 425.358C488.046 426.142 489.221 426.142 490.005 425.75C490.789 424.966 490.789 423.791 490.397 423.007C489.613 422.223 488.438 422.223 487.654 422.615C486.478 423.399 486.478 424.574 487.262 425.358Z" fill="#FFE9B9"/>
<path d="M502.155 434.763C502.938 435.547 504.114 435.547 504.898 435.155C505.681 434.371 505.681 433.195 505.289 432.412C504.506 431.628 503.33 431.628 502.547 432.02C501.763 432.412 501.371 433.979 502.155 434.763Z" fill="#FFE9B9"/>
<path d="M517.449 444.168C518.233 444.952 519.409 444.952 520.193 444.56C520.976 443.776 520.976 442.601 520.584 441.817C519.801 441.033 518.625 441.033 517.841 441.425C517.058 441.817 516.666 443.384 517.449 444.168Z" fill="#FFE9B9"/>
<path d="M296.429 327.001C297.212 327.785 298.388 327.785 299.172 327.393C299.955 326.609 299.955 325.434 299.563 324.65C298.78 323.866 297.604 323.866 296.82 324.258C295.645 325.042 295.645 326.217 296.429 327.001Z" fill="#FFE9B9"/>
<path d="M311.324 336.407C312.108 337.191 313.284 337.191 314.068 336.799C314.851 336.015 314.851 334.839 314.459 334.056C313.676 333.272 312.5 333.272 311.716 333.664C310.933 334.448 310.541 335.623 311.324 336.407Z" fill="#FFE9B9"/>
<path d="M326.6 345.811C327.384 346.595 328.559 346.595 329.343 346.203C330.127 345.419 330.127 344.244 329.735 343.46C328.951 342.676 327.775 342.676 326.992 343.068C325.816 343.852 325.816 345.027 326.6 345.811Z" fill="#FFE9B9"/>
<path d="M341.493 355.215C342.277 355.999 343.453 355.999 344.237 355.607C345.02 354.823 345.02 353.648 344.628 352.864C343.845 352.08 342.669 352.08 341.885 352.472C341.102 353.256 341.102 354.431 341.493 355.215Z" fill="#FFE9B9"/>
<path d="M356.787 364.62C357.571 365.404 358.747 365.404 359.53 365.012C360.314 364.228 360.314 363.053 359.922 362.269C359.139 361.485 357.963 361.485 357.179 361.877C356.004 362.661 356.004 363.837 356.787 364.62Z" fill="#FFE9B9"/>
<path d="M371.664 374.417C372.448 375.2 373.623 375.2 374.407 374.809C375.191 374.025 375.191 372.849 374.799 372.066C374.015 371.282 372.839 371.282 372.056 371.674C371.272 372.066 371.272 373.633 371.664 374.417Z" fill="#FFE9B9"/>
<path d="M386.956 383.821C387.74 384.605 388.916 384.605 389.699 384.213C390.483 383.429 390.483 382.254 390.091 381.47C389.308 380.686 388.132 380.686 387.348 381.078C386.565 381.862 386.173 383.037 386.956 383.821Z" fill="#FFE9B9"/>
<path d="M402.236 393.226C403.019 394.01 404.195 394.01 404.979 393.618C405.762 392.834 405.762 391.659 405.37 390.875C404.587 390.091 403.411 390.091 402.628 390.483C401.452 391.267 401.452 392.443 402.236 393.226Z" fill="#FFE9B9"/>
<path d="M417.125 402.631C417.909 403.415 419.085 403.415 419.868 403.023C420.652 402.239 420.652 401.064 420.26 400.28C419.476 399.496 418.301 399.496 417.517 399.888C416.733 400.672 416.342 401.847 417.125 402.631Z" fill="#FFE9B9"/>
<path d="M432.402 412.034C433.186 412.818 434.361 412.818 435.145 412.426C435.929 411.642 435.929 410.467 435.537 409.683C434.753 408.899 433.578 408.9 432.794 409.291C432.01 409.683 431.619 411.251 432.402 412.034Z" fill="#FFE9B9"/>
<path d="M447.297 421.441C448.08 422.224 449.256 422.224 450.04 421.832C450.823 421.049 450.823 419.873 450.432 419.09C449.648 418.306 448.472 418.306 447.689 418.698C446.905 419.089 446.905 420.657 447.297 421.441Z" fill="#FFE9B9"/>
<path d="M462.588 430.844C463.372 431.628 464.547 431.628 465.331 431.236C466.115 430.844 466.115 429.277 465.723 428.493C464.939 427.71 463.764 427.71 462.98 428.101C461.804 428.885 461.804 430.061 462.588 430.844Z" fill="#FFE9B9"/>
<path d="M477.466 440.249C478.249 441.033 479.425 441.033 480.209 440.641C480.992 439.857 480.992 438.682 480.601 437.898C479.817 437.114 478.641 437.114 477.857 437.506C477.074 438.29 477.074 439.465 477.466 440.249Z" fill="#FFE9B9"/>
<path d="M492.76 449.654C493.543 450.438 494.719 450.438 495.503 450.046C496.286 449.262 496.286 448.086 495.894 447.303C495.111 446.519 493.935 446.519 493.152 446.911C492.368 447.695 491.976 448.87 492.76 449.654Z" fill="#FFE9B9"/>
<path d="M508.034 459.45C508.818 460.234 509.993 460.234 510.777 459.842C511.561 459.058 511.561 457.882 511.169 457.099C510.385 456.315 509.21 456.315 508.426 456.707C507.642 457.099 507.25 458.666 508.034 459.45Z" fill="#FFE9B9"/>
<path d="M522.928 468.854C523.712 469.638 524.888 469.638 525.672 469.246C526.455 468.462 526.455 467.287 526.063 466.503C525.28 465.719 524.104 465.719 523.32 466.111C522.537 466.503 522.145 468.07 522.928 468.854Z" fill="#FFE9B9"/>
<path d="M271.741 332.88C272.525 333.663 273.7 333.663 274.484 333.271C275.268 332.488 275.268 331.312 274.876 330.528C274.092 329.745 272.917 329.745 272.133 330.137C270.957 330.528 270.957 332.096 271.741 332.88Z" fill="#FFE9B9"/>
<path d="M287.033 342.284C287.816 343.068 288.992 343.068 289.776 342.676C290.559 341.892 290.559 340.717 290.167 339.933C289.384 339.149 288.208 339.149 287.424 339.541C286.249 340.325 286.249 341.501 287.033 342.284Z" fill="#FFE9B9"/>
<path d="M301.926 351.689C302.71 352.473 303.885 352.473 304.669 352.081C305.453 351.297 305.453 350.122 305.061 349.338C304.277 348.554 303.102 348.554 302.318 348.946C301.534 349.73 301.142 350.905 301.926 351.689Z" fill="#FFE9B9"/>
<path d="M317.201 361.092C317.985 361.876 319.161 361.876 319.944 361.484C320.728 360.701 320.728 359.525 320.336 358.741C319.553 357.958 318.377 357.958 317.593 358.349C316.418 359.133 316.418 360.309 317.201 361.092Z" fill="#FFE9B9"/>
<path d="M332.096 370.499C332.88 371.282 334.055 371.282 334.839 370.891C335.623 370.107 335.623 368.931 335.231 368.148C334.447 367.364 333.272 367.364 332.488 367.756C331.704 368.539 331.312 369.715 332.096 370.499Z" fill="#FFE9B9"/>
<path d="M347.37 379.902C348.154 380.686 349.33 380.686 350.114 380.294C350.897 379.51 350.897 378.335 350.505 377.551C349.722 376.767 348.546 376.767 347.762 377.159C346.587 377.943 346.587 379.118 347.37 379.902Z" fill="#FFE9B9"/>
<path d="M362.266 389.308C363.05 390.091 364.226 390.092 365.009 389.7C365.793 388.916 365.793 387.74 365.401 386.957C364.618 386.173 363.442 386.173 362.658 386.565C361.875 386.957 361.875 388.524 362.266 389.308Z" fill="#FFE9B9"/>
<path d="M377.543 398.712C378.327 399.496 379.503 399.496 380.286 399.104C381.07 398.32 381.07 397.145 380.678 396.361C379.894 395.577 378.719 395.577 377.935 395.969C376.76 396.753 376.76 397.928 377.543 398.712Z" fill="#FFE9B9"/>
<path d="M392.834 408.117C393.618 408.901 394.794 408.901 395.577 408.509C396.361 408.117 396.361 406.549 395.969 405.766C395.185 404.982 394.01 404.982 393.226 405.374C392.051 406.158 392.051 407.333 392.834 408.117Z" fill="#FFE9B9"/>
<path d="M407.728 417.913C408.512 418.697 409.687 418.697 410.471 418.305C411.255 417.521 411.255 416.346 410.863 415.562C410.079 414.778 408.903 414.778 408.12 415.17C407.336 415.562 406.944 417.13 407.728 417.913Z" fill="#FFE9B9"/>
<path d="M423.005 427.318C423.788 428.102 424.964 428.102 425.748 427.71C426.531 426.926 426.531 425.751 426.14 424.967C425.356 424.183 424.18 424.183 423.397 424.575C422.221 425.359 422.221 426.534 423.005 427.318Z" fill="#FFE9B9"/>
<path d="M437.899 436.722C438.683 437.506 439.859 437.506 440.642 437.114C441.426 436.33 441.426 435.154 441.034 434.371C440.25 433.587 439.075 433.587 438.291 433.979C437.507 434.371 437.507 435.938 437.899 436.722Z" fill="#FFE9B9"/>
<path d="M453.175 446.127C453.958 446.911 455.134 446.911 455.918 446.519C456.701 445.735 456.701 444.56 456.309 443.776C455.526 442.992 454.35 442.992 453.567 443.384C452.783 443.776 452.391 445.343 453.175 446.127Z" fill="#FFE9B9"/>
<path d="M468.07 455.531C468.853 456.315 470.029 456.315 470.813 455.923C471.596 455.14 471.596 453.964 471.205 453.18C470.421 452.396 469.245 452.396 468.461 452.788C467.678 453.572 467.678 454.748 468.07 455.531Z" fill="#FFE9B9"/>
<path d="M483.344 464.935C484.128 465.719 485.303 465.719 486.087 465.327C486.871 464.543 486.871 463.368 486.479 462.584C485.695 461.8 484.52 461.8 483.736 462.192C482.56 462.976 482.56 464.151 483.344 464.935Z" fill="#FFE9B9"/>
<path d="M498.638 474.34C499.421 475.124 500.597 475.124 501.381 474.732C502.164 473.949 502.164 472.773 501.772 471.989C500.989 471.206 499.813 471.206 499.029 471.598C497.854 472.381 497.854 473.557 498.638 474.34Z" fill="#FFE9B9"/>
<path d="M513.531 483.745C514.315 484.529 515.49 484.529 516.274 484.137C517.058 483.353 517.058 482.178 516.666 481.394C515.882 480.61 514.707 480.61 513.923 481.002C513.139 481.786 512.747 482.962 513.531 483.745Z" fill="#FFE9B9"/>
<path d="M262.341 347.77C263.125 348.554 264.3 348.554 265.084 348.162C265.868 347.378 265.868 346.203 265.476 345.419C264.692 344.635 263.517 344.635 262.733 345.027C261.557 345.811 261.557 346.986 262.341 347.77Z" fill="#FFE9B9"/>
<path d="M277.236 357.174C278.02 357.958 279.195 357.958 279.979 357.566C280.763 356.783 280.763 355.607 280.371 354.823C279.587 354.04 278.412 354.04 277.628 354.432C276.844 355.215 276.844 356.391 277.236 357.174Z" fill="#FFE9B9"/>
<path d="M292.513 366.971C293.297 367.755 294.472 367.755 295.256 367.363C296.04 366.579 296.04 365.403 295.648 364.62C294.864 363.836 293.689 363.836 292.905 364.228C292.121 364.62 291.729 365.795 292.513 366.971Z" fill="#FFE9B9"/>
<path d="M307.804 376.376C308.588 377.16 309.763 377.16 310.547 376.768C311.331 375.984 311.331 374.809 310.939 374.025C310.155 373.241 308.98 373.241 308.196 373.633C307.02 374.025 307.02 375.592 307.804 376.376Z" fill="#FFE9B9"/>
<path d="M322.682 385.781C323.466 386.565 324.641 386.565 325.425 386.173C326.209 385.389 326.209 384.214 325.817 383.43C325.033 382.646 323.857 382.646 323.074 383.038C322.29 383.822 321.898 384.997 322.682 385.781Z" fill="#FFE9B9"/>
<path d="M337.975 395.185C338.759 395.969 339.935 395.969 340.718 395.577C341.502 394.793 341.502 393.618 341.11 392.834C340.327 392.05 339.151 392.05 338.367 392.442C337.192 393.226 337.192 394.401 337.975 395.185Z" fill="#FFE9B9"/>
<path d="M352.868 404.59C353.652 405.373 354.827 405.373 355.611 404.981C356.395 404.198 356.395 403.022 356.003 402.238C355.219 401.455 354.044 401.455 353.26 401.846C352.476 402.63 352.476 403.806 352.868 404.59Z" fill="#FFE9B9"/>
<path d="M368.144 413.994C368.928 414.778 370.104 414.778 370.887 414.386C371.671 413.602 371.671 412.427 371.279 411.643C370.496 410.859 369.32 410.859 368.536 411.251C367.752 411.643 367.361 413.211 368.144 413.994Z" fill="#FFE9B9"/>
<path d="M383.037 423.4C383.821 424.183 384.996 424.183 385.78 423.791C386.564 423.008 386.564 421.832 386.172 421.049C385.388 420.265 384.213 420.265 383.429 420.657C382.645 421.048 382.645 422.616 383.037 423.4Z" fill="#FFE9B9"/>
<path d="M398.313 432.803C399.097 433.587 400.273 433.587 401.056 433.195C401.84 432.803 401.84 431.236 401.448 430.452C400.664 429.669 399.489 429.669 398.705 430.06C397.921 430.844 397.53 432.02 398.313 432.803Z" fill="#FFE9B9"/>
<path d="M413.605 442.209C414.388 442.993 415.564 442.993 416.348 442.601C417.132 441.817 417.132 440.642 416.74 439.858C415.956 439.074 414.78 439.074 413.997 439.466C412.821 440.25 412.821 441.425 413.605 442.209Z" fill="#FFE9B9"/>
<path d="M428.485 452.005C429.268 452.788 430.444 452.788 431.228 452.396C432.011 451.613 432.011 450.437 431.62 449.653C430.836 448.87 429.66 448.87 428.877 449.261C428.093 449.653 427.701 450.829 428.485 452.005Z" fill="#FFE9B9"/>
<path d="M443.778 461.409C444.561 462.193 445.737 462.193 446.521 461.801C447.304 461.017 447.304 459.842 446.913 459.058C446.129 458.274 444.953 458.274 444.17 458.666C442.994 459.058 442.994 460.626 443.778 461.409Z" fill="#FFE9B9"/>
<path d="M458.669 470.814C459.452 471.597 460.628 471.597 461.412 471.206C462.195 470.422 462.196 469.246 461.804 468.462C461.02 467.679 459.844 467.679 459.061 468.071C458.277 468.463 458.277 470.03 458.669 470.814Z" fill="#FFE9B9"/>
<path d="M473.948 480.219C474.731 481.003 475.907 481.003 476.691 480.611C477.474 480.219 477.474 478.652 477.082 477.868C476.299 477.084 475.123 477.084 474.339 477.476C473.164 478.26 473.164 479.435 473.948 480.219Z" fill="#FFE9B9"/>
<path d="M488.843 489.623C489.626 490.406 490.802 490.406 491.586 490.015C492.369 489.623 492.369 488.055 491.977 487.272C491.586 486.488 490.018 486.488 489.235 486.88C488.451 487.663 488.451 488.839 488.843 489.623Z" fill="#FFE9B9"/>
<path d="M237.651 353.648C238.435 354.432 239.611 354.432 240.394 354.04C241.178 353.256 241.178 352.081 240.786 351.297C240.002 350.513 238.827 350.513 238.043 350.905C237.259 351.689 237.259 352.864 237.651 353.648Z" fill="#FFE9B9"/>
<path d="M252.943 363.052C253.726 363.836 254.902 363.836 255.686 363.444C256.469 363.052 256.469 361.485 256.078 360.701C255.294 359.917 254.118 359.918 253.335 360.309C252.159 361.093 252.159 362.269 252.943 363.052Z" fill="#FFE9B9"/>
<path d="M267.823 372.458C268.607 373.241 269.782 373.241 270.566 372.85C271.35 372.066 271.35 370.89 270.958 370.107C270.174 369.323 268.999 369.323 268.215 369.715C267.431 370.498 267.431 371.674 267.823 372.458Z" fill="#FFE9B9"/>
<path d="M283.116 381.862C283.899 382.646 285.075 382.646 285.859 382.254C286.642 381.47 286.642 380.295 286.25 379.511C285.467 378.727 284.291 378.727 283.507 379.119C282.724 379.903 282.332 381.078 283.116 381.862Z" fill="#FFE9B9"/>
<path d="M298.389 391.267C299.173 392.051 300.349 392.051 301.133 391.659C301.916 390.875 301.916 389.7 301.524 388.916C300.741 388.132 299.565 388.132 298.781 388.524C297.998 388.916 297.606 390.484 298.389 391.267Z" fill="#FFE9B9"/>
<path d="M313.283 400.671C314.067 401.455 315.242 401.455 316.026 401.063C316.81 400.279 316.81 399.104 316.418 398.32C315.634 397.536 314.459 397.536 313.675 397.928C312.891 398.32 312.499 399.887 313.283 400.671Z" fill="#FFE9B9"/>
<path d="M328.56 410.467C329.344 411.251 330.519 411.251 331.303 410.859C332.087 410.467 332.087 408.9 331.695 408.116C330.911 407.333 329.735 407.333 328.952 407.724C327.776 408.116 327.776 409.292 328.56 410.467Z" fill="#FFE9B9"/>
<path d="M343.454 419.872C344.238 420.655 345.414 420.655 346.197 420.264C346.981 419.48 346.981 418.304 346.589 417.521C345.806 416.737 344.63 416.737 343.846 417.129C343.063 417.521 343.063 419.088 343.454 419.872Z" fill="#FFE9B9"/>
<path d="M358.747 429.277C359.531 430.061 360.707 430.061 361.49 429.669C362.274 428.886 362.274 427.71 361.882 426.926C361.49 426.143 359.923 426.143 359.139 426.535C357.964 427.318 357.964 428.494 358.747 429.277Z" fill="#FFE9B9"/>
<path d="M373.625 438.681C374.409 439.465 375.584 439.465 376.368 439.073C377.152 438.289 377.152 437.114 376.76 436.33C375.976 435.546 374.8 435.546 374.017 435.938C373.233 436.722 373.233 437.898 373.625 438.681Z" fill="#FFE9B9"/>
<path d="M388.915 448.087C389.699 448.87 390.874 448.87 391.658 448.478C392.442 447.695 392.442 446.519 392.05 445.735C391.266 444.952 390.091 444.952 389.307 445.344C388.523 445.735 388.131 447.303 388.915 448.087Z" fill="#FFE9B9"/>
<path d="M404.192 457.49C404.975 458.274 406.151 458.274 406.935 457.882C407.719 457.49 407.718 455.923 407.327 455.139C406.543 454.355 405.367 454.355 404.584 454.747C403.408 455.531 403.408 456.707 404.192 457.49Z" fill="#FFE9B9"/>
<path d="M419.088 466.895C419.871 467.679 421.047 467.679 421.831 467.287C422.614 466.895 422.614 465.328 422.223 464.544C421.439 463.76 420.263 463.76 419.48 464.152C418.696 464.936 418.304 466.111 419.088 466.895Z" fill="#FFE9B9"/>
<path d="M434.364 476.3C435.148 477.084 436.323 477.084 437.107 476.692C437.891 475.909 437.891 474.733 437.499 473.949C436.715 473.166 435.54 473.166 434.756 473.557C433.58 474.341 433.58 475.517 434.364 476.3Z" fill="#FFE9B9"/>
<path d="M449.257 485.705C450.04 486.489 451.216 486.488 452 486.097C452.783 485.313 452.783 484.137 452.391 483.354C451.608 482.57 450.432 482.57 449.649 482.962C448.865 483.745 448.865 484.921 449.257 485.705Z" fill="#FFE9B9"/>
<path d="M464.548 495.502C465.331 496.285 466.507 496.285 467.291 495.893C468.074 495.11 468.074 493.934 467.683 493.151C466.899 492.367 465.723 492.367 464.939 492.759C463.764 493.15 463.764 494.326 464.548 495.502Z" fill="#FFE9B9"/>
<path d="M228.255 368.93C229.039 369.714 230.214 369.714 230.998 369.322C231.782 368.538 231.782 367.363 231.39 366.579C230.606 365.795 229.431 365.796 228.647 366.187C227.863 366.579 227.472 367.755 228.255 368.93Z" fill="#FFE9B9"/>
<path d="M243.53 378.336C244.313 379.119 245.489 379.119 246.273 378.727C247.056 377.944 247.056 376.768 246.664 375.985C245.881 375.201 244.705 375.201 243.922 375.593C243.138 375.985 242.746 377.552 243.53 378.336Z" fill="#FFE9B9"/>
<path d="M258.423 387.74C259.207 388.524 260.382 388.524 261.166 388.132C261.95 387.74 261.95 386.173 261.558 385.389C260.774 384.605 259.599 384.605 258.815 384.997C258.031 385.781 258.031 386.956 258.423 387.74Z" fill="#FFE9B9"/>
<path d="M273.701 397.145C274.485 397.928 275.66 397.928 276.444 397.537C277.228 396.753 277.228 395.577 276.836 394.793C276.052 394.01 274.877 394.01 274.093 394.402C272.917 395.185 272.917 396.361 273.701 397.145Z" fill="#FFE9B9"/>
<path d="M288.991 406.549C289.775 407.333 290.95 407.333 291.734 406.941C292.518 406.158 292.518 404.982 292.126 404.198C291.342 403.415 290.167 403.415 289.383 403.806C288.207 404.59 288.207 405.766 288.991 406.549Z" fill="#FFE9B9"/>
<path d="M303.886 415.953C304.67 416.737 305.845 416.737 306.629 416.345C307.413 415.561 307.413 414.385 307.021 413.602C306.237 412.818 305.062 412.818 304.278 413.21C303.494 413.994 303.102 415.169 303.886 415.953Z" fill="#FFE9B9"/>
<path d="M319.161 425.358C319.945 426.142 321.121 426.142 321.904 425.75C322.688 424.966 322.688 423.791 322.296 423.007C321.513 422.223 320.337 422.223 319.553 422.615C318.77 423.007 318.378 424.574 319.161 425.358Z" fill="#FFE9B9"/>
<path d="M334.055 434.763C334.839 435.547 336.014 435.547 336.798 435.155C337.582 434.763 337.582 433.195 337.19 432.412C336.406 431.628 335.231 431.628 334.447 432.02C333.663 432.804 333.271 433.979 334.055 434.763Z" fill="#FFE9B9"/>
<path d="M349.333 444.168C350.117 444.952 351.292 444.952 352.076 444.56C352.86 444.168 352.86 442.601 352.468 441.817C351.684 441.033 350.508 441.033 349.725 441.425C348.549 442.209 348.549 443.384 349.333 444.168Z" fill="#FFE9B9"/>
<path d="M364.227 453.965C365.011 454.748 366.187 454.748 366.97 454.356C367.754 453.573 367.754 452.397 367.362 451.613C366.579 450.83 365.403 450.83 364.619 451.221C363.835 451.613 363.835 452.789 364.227 453.965Z" fill="#FFE9B9"/>
<path d="M379.503 463.369C380.287 464.153 381.462 464.153 382.246 463.761C383.029 462.977 383.029 461.802 382.638 461.018C381.854 460.234 380.678 460.234 379.895 460.626C378.719 461.018 378.719 462.586 379.503 463.369Z" fill="#FFE9B9"/>
<path d="M394.794 472.773C395.578 473.557 396.754 473.557 397.537 473.165C398.321 472.381 398.321 471.206 397.929 470.422C397.145 469.638 395.97 469.638 395.186 470.03C394.011 470.814 394.011 471.989 394.794 472.773Z" fill="#FFE9B9"/>
<path d="M409.689 482.178C410.472 482.962 411.648 482.962 412.432 482.57C413.216 481.786 413.216 480.611 412.824 479.827C412.04 479.043 410.864 479.043 410.081 479.435C409.297 480.219 408.905 481.394 409.689 482.178Z" fill="#FFE9B9"/>
<path d="M424.963 491.583C425.747 492.366 426.922 492.366 427.706 491.975C428.49 491.583 428.49 490.015 428.098 489.232C427.314 488.448 426.139 488.448 425.355 488.84C424.179 489.623 424.179 490.799 424.963 491.583Z" fill="#FFE9B9"/>
<path d="M439.857 500.988C440.641 501.772 441.816 501.772 442.6 501.38C443.383 500.596 443.383 499.42 442.992 498.637C442.208 497.853 441.032 497.853 440.249 498.245C439.465 499.029 439.465 500.204 439.857 500.988Z" fill="#FFE9B9"/>
<path d="M455.134 510.392C455.917 511.176 457.093 511.176 457.877 510.784C458.66 510 458.66 508.825 458.268 508.041C457.485 507.257 456.309 507.257 455.526 507.649C454.35 508.433 454.35 509.609 455.134 510.392Z" fill="#FFE9B9"/>
<path d="M218.841 383.821C219.624 384.605 220.8 384.605 221.584 384.213C222.367 383.429 222.367 382.254 221.976 381.47C221.192 380.686 220.016 380.686 219.232 381.078C218.449 381.862 218.057 383.037 218.841 383.821Z" fill="#FFE9B9"/>
<path d="M234.131 393.227C234.915 394.01 236.09 394.01 236.874 393.619C237.658 392.835 237.658 391.659 237.266 390.876C236.482 390.092 235.307 390.092 234.523 390.484C233.348 391.267 233.348 392.443 234.131 393.227Z" fill="#FFE9B9"/>
<path d="M249.027 402.631C249.81 403.415 250.986 403.415 251.77 403.023C252.553 402.239 252.553 401.064 252.162 400.28C251.378 399.496 250.202 399.496 249.418 399.888C248.635 400.28 248.635 401.847 249.027 402.631Z" fill="#FFE9B9"/>
<path d="M264.301 412.427C265.085 413.211 266.26 413.211 267.044 412.819C267.828 412.036 267.828 410.86 267.436 410.076C266.652 409.292 265.477 409.292 264.693 409.684C263.517 410.076 263.517 411.252 264.301 412.427Z" fill="#FFE9B9"/>
<path d="M279.195 421.831C279.978 422.615 281.154 422.615 281.938 422.223C282.721 421.439 282.721 420.264 282.33 419.48C281.546 418.696 280.37 418.696 279.587 419.088C278.803 419.48 278.803 421.047 279.195 421.831Z" fill="#FFE9B9"/>
<path d="M294.472 431.236C295.255 432.02 296.431 432.02 297.215 431.628C297.998 430.844 297.998 429.669 297.606 428.885C296.823 428.101 295.647 428.101 294.863 428.493C294.08 429.277 293.688 430.452 294.472 431.236Z" fill="#FFE9B9"/>
<path d="M309.764 440.641C310.548 441.425 311.723 441.424 312.507 441.033C313.291 440.249 313.291 439.073 312.899 438.29C312.115 437.506 310.94 437.506 310.156 437.898C308.98 438.682 308.98 439.857 309.764 440.641Z" fill="#FFE9B9"/>
<path d="M324.641 450.046C325.424 450.829 326.6 450.829 327.383 450.437C328.167 449.654 328.167 448.478 327.775 447.694C326.992 446.911 325.816 446.911 325.032 447.302C324.249 447.694 323.857 449.262 324.641 450.046Z" fill="#FFE9B9"/>
<path d="M339.933 459.45C340.717 460.234 341.892 460.234 342.676 459.842C343.46 459.45 343.46 457.882 343.068 457.099C342.284 456.315 341.109 456.315 340.325 456.707C339.149 457.491 339.149 458.666 339.933 459.45Z" fill="#FFE9B9"/>
<path d="M354.825 468.854C355.609 469.638 356.784 469.638 357.568 469.246C358.352 468.854 358.352 467.287 357.96 466.503C357.176 465.719 356.001 465.719 355.217 466.111C354.433 466.895 354.433 468.07 354.825 468.854Z" fill="#FFE9B9"/>
<path d="M370.103 478.259C370.887 479.043 372.062 479.043 372.846 478.651C373.63 477.868 373.63 476.692 373.238 475.908C372.454 475.125 371.278 475.125 370.495 475.516C369.319 476.3 369.319 477.476 370.103 478.259Z" fill="#FFE9B9"/>
<path d="M384.996 487.664C385.78 488.448 386.956 488.447 387.739 488.056C388.523 487.272 388.523 486.096 388.131 485.313C387.348 484.529 386.172 484.529 385.388 484.921C384.605 485.704 384.605 486.88 384.996 487.664Z" fill="#FFE9B9"/>
<path d="M400.273 497.46C401.057 498.244 402.233 498.244 403.016 497.852C403.8 497.068 403.8 495.893 403.408 495.109C402.624 494.325 401.449 494.325 400.665 494.717C399.881 495.109 399.49 496.285 400.273 497.46Z" fill="#FFE9B9"/>
<path d="M415.567 506.865C416.351 507.649 417.526 507.649 418.31 507.257C419.094 506.474 419.094 505.298 418.702 504.514C417.918 503.73 416.743 503.73 415.959 504.122C414.783 504.514 414.783 506.082 415.567 506.865Z" fill="#FFE9B9"/>
<path d="M194.546 389.699C195.33 390.483 196.506 390.483 197.289 390.091C198.073 389.699 198.073 388.131 197.681 387.348C196.897 386.564 195.722 386.564 194.938 386.956C193.763 387.74 193.763 388.915 194.546 389.699Z" fill="#FFE9B9"/>
<path d="M209.441 399.104C210.225 399.888 211.401 399.888 212.184 399.496C212.968 398.712 212.968 397.537 212.576 396.753C211.792 395.969 210.617 395.969 209.833 396.361C209.049 397.145 208.657 398.32 209.441 399.104Z" fill="#FFE9B9"/>
<path d="M224.718 408.509C225.501 409.293 226.677 409.293 227.461 408.901C228.244 408.117 228.244 406.941 227.852 406.158C227.069 405.374 225.893 405.374 225.109 405.766C223.934 406.55 223.934 407.725 224.718 408.509Z" fill="#FFE9B9"/>
<path d="M239.611 417.912C240.395 418.696 241.571 418.696 242.354 418.304C243.138 417.52 243.138 416.345 242.746 415.561C241.962 414.777 240.787 414.777 240.003 415.169C239.219 415.953 239.219 417.129 239.611 417.912Z" fill="#FFE9B9"/>
<path d="M254.904 427.318C255.687 428.102 256.863 428.102 257.647 427.71C258.43 426.926 258.43 425.751 258.039 424.967C257.255 424.183 256.079 424.183 255.295 424.575C254.12 425.359 254.12 426.534 254.904 427.318Z" fill="#FFE9B9"/>
<path d="M269.78 436.722C270.564 437.506 271.739 437.506 272.523 437.114C273.307 436.722 273.307 435.154 272.915 434.371C272.131 433.587 270.956 433.587 270.172 433.979C269.388 434.763 269.388 435.938 269.78 436.722Z" fill="#FFE9B9"/>
<path d="M254.763 425.892C255.547 426.676 256.722 426.676 257.506 426.284C258.29 425.892 258.29 424.325 257.898 423.541C257.114 422.757 255.939 422.757 255.155 423.149C254.371 423.933 254.371 425.109 254.763 425.892Z" fill="#FFE9B9"/>
<path d="M285.072 446.127C285.855 446.911 287.031 446.911 287.815 446.519C288.598 446.127 288.598 444.56 288.206 443.776C287.423 442.992 286.247 442.992 285.464 443.384C284.68 444.168 284.288 445.343 285.072 446.127Z" fill="#FFE9B9"/>
<path d="M300.349 455.924C301.133 456.708 302.309 456.708 303.093 456.316C303.876 455.533 303.876 454.357 303.484 453.573C302.701 452.79 301.525 452.79 300.741 453.181C299.566 453.573 299.566 454.749 300.349 455.924Z" fill="#FFE9B9"/>
<path d="M315.243 465.328C316.027 466.112 317.202 466.112 317.986 465.72C318.77 464.936 318.77 463.761 318.378 462.977C317.594 462.193 316.419 462.193 315.635 462.585C314.851 462.977 314.459 464.545 315.243 465.328Z" fill="#FFE9B9"/>
<path d="M330.52 474.733C331.304 475.516 332.479 475.516 333.263 475.124C334.047 474.341 334.047 473.165 333.655 472.381C332.871 471.598 331.695 471.598 330.912 471.99C329.736 472.773 329.736 473.949 330.52 474.733Z" fill="#FFE9B9"/>
<path d="M345.414 484.138C346.198 484.922 347.374 484.922 348.157 484.53C348.941 483.746 348.941 482.57 348.549 481.787C347.765 481.003 346.59 481.003 345.806 481.395C345.023 482.179 345.023 483.354 345.414 484.138Z" fill="#FFE9B9"/>
<path d="M360.703 493.542C361.487 494.325 362.663 494.325 363.446 493.933C364.23 493.15 364.23 491.974 363.838 491.191C363.055 490.407 361.879 490.407 361.095 490.799C359.92 491.582 359.92 492.758 360.703 493.542Z" fill="#FFE9B9"/>
<path d="M375.582 502.947C376.366 503.731 377.542 503.731 378.325 503.339C379.109 502.555 379.109 501.379 378.717 500.596C377.934 499.812 376.758 499.812 375.974 500.204C375.19 500.988 375.191 502.163 375.582 502.947Z" fill="#FFE9B9"/>
<path d="M390.875 512.351C391.659 513.135 392.834 513.135 393.618 512.743C394.402 511.959 394.402 510.784 394.01 510C393.226 509.216 392.05 509.216 391.267 509.608C390.483 510.392 390.091 511.568 390.875 512.351Z" fill="#FFE9B9"/>
<path d="M215.319 423.791C216.103 424.574 217.278 424.574 218.062 424.183C218.846 423.791 218.846 422.223 218.454 421.439C217.67 420.656 216.495 420.656 215.711 421.048C214.535 421.44 214.535 423.007 215.319 423.791Z" fill="#FFE9B9"/>
<path d="M230.213 433.196C230.996 433.98 232.172 433.98 232.956 433.588C233.739 432.804 233.739 431.629 233.348 430.845C232.564 430.061 231.388 430.061 230.605 430.453C229.821 431.237 229.429 432.412 230.213 433.196Z" fill="#FFE9B9"/>
<path d="M245.489 442.601C246.273 443.385 247.448 443.384 248.232 442.993C249.016 442.209 249.016 441.033 248.624 440.25C247.84 439.466 246.665 439.466 245.881 439.858C244.705 440.641 244.705 441.817 245.489 442.601Z" fill="#FFE9B9"/>
<path d="M260.384 452.006C261.168 452.789 262.343 452.789 263.127 452.397C263.911 451.614 263.911 450.438 263.519 449.654C262.735 448.871 261.56 448.871 260.776 449.262C259.992 450.046 259.992 451.222 260.384 452.006Z" fill="#FFE9B9"/>
<path d="M275.658 461.409C276.442 462.193 277.617 462.193 278.401 461.801C279.185 461.017 279.185 459.842 278.793 459.058C278.009 458.274 276.834 458.274 276.05 458.666C274.874 459.45 274.874 460.626 275.658 461.409Z" fill="#FFE9B9"/>
<path d="M290.95 470.814C291.733 471.597 292.909 471.597 293.693 471.206C294.476 470.422 294.476 469.246 294.084 468.462C293.301 467.679 292.125 467.679 291.341 468.071C290.166 468.854 290.166 470.03 290.95 470.814Z" fill="#FFE9B9"/>
<path d="M305.844 480.219C306.628 481.003 307.804 481.003 308.588 480.611C309.371 479.827 309.371 478.652 308.979 477.868C308.196 477.084 307.02 477.084 306.236 477.476C305.453 478.26 305.061 479.435 305.844 480.219Z" fill="#FFE9B9"/>
<path d="M321.121 489.623C321.905 490.406 323.08 490.406 323.864 490.015C324.648 489.231 324.648 488.055 324.256 487.272C323.472 486.488 322.296 486.488 321.513 486.88C320.337 487.663 320.337 488.839 321.121 489.623Z" fill="#FFE9B9"/>
<path d="M336.016 499.42C336.8 500.204 337.975 500.204 338.759 499.812C339.543 499.028 339.543 497.853 339.151 497.069C338.367 496.285 337.192 496.285 336.408 496.677C335.624 497.069 335.232 498.245 336.016 499.42Z" fill="#FFE9B9"/>
<path d="M250.983 467.287C251.767 468.071 252.943 468.071 253.726 467.679C254.51 466.895 254.51 465.72 254.118 464.936C253.334 464.152 252.159 464.152 251.375 464.544C250.591 464.936 250.591 466.504 250.983 467.287Z" fill="#FFE9B9"/>
<path d="M266.261 476.692C267.045 477.475 268.22 477.475 269.004 477.083C269.788 476.3 269.788 475.124 269.396 474.34C268.612 473.557 267.437 473.557 266.653 473.949C265.477 474.732 265.477 475.908 266.261 476.692Z" fill="#FFE9B9"/>
<path d="M242.551 279.127C248.935 310.201 272.252 335.56 299.941 350.027C342.728 372.119 401.471 357.74 439.417 387.822C462.19 406.121 469.405 437.18 480.29 464.429C493.789 498.285 515.558 529.91 545.853 550.567C569.841 567.18 601.178 576.589 630.625 573.557C649.703 571.546 667.859 564.561 682.57 550.984C714.04 522.131 717.767 475.901 745.445 444.206C770.676 415.05 810.577 415.57 842.243 397.526C873.094 380.328 891.958 343.803 888.406 308.518C880.764 231.305 775.532 202.866 713.758 187.774C660.753 175.017 606.147 165.616 557.499 141.135C529.818 127.084 504.538 107.999 477.249 92.6938C442.4 72.9517 389.238 74.3372 375.956 120.741C375.956 120.741 375.956 120.741 375.964 121.157C371.29 138.293 359.917 152.64 343.845 160.003C333.136 165.189 322.419 169.959 312.126 175.138C297.3 182.478 283.344 191.882 271.502 203.326C248.113 219.556 237.051 250.948 242.551 279.127Z" fill="#3DCD90"/>
<path d="M851.347 208.345C863.723 224.383 880.971 236.035 899.003 245.057C915.951 253.536 933.725 259.752 948.959 265.08C949.931 265.42 950.892 265.756 951.843 266.089C959.791 268.874 966.928 271.422 972.831 273.957C978.771 276.508 983.259 278.965 986.036 281.499C988.745 283.97 989.563 286.237 988.937 288.671C988.238 291.389 985.632 294.856 979.949 299.241C974.5 303.446 965.955 310.716 955.024 320.015C919.26 350.441 857.955 402.596 795.981 440.237C755.515 464.814 715.12 482.966 681.665 484.924C664.99 485.9 650.162 482.846 637.895 474.677C625.634 466.512 615.716 453.093 609.121 432.938C582.516 351.628 599.256 298.747 628.096 261.754C642.571 243.189 660.155 228.548 677.056 216.304C685.002 210.547 692.778 205.334 700.009 200.485C700.47 200.176 700.928 199.869 701.383 199.563C708.982 194.467 715.965 189.752 721.785 185.261C744.702 167.576 765.137 158.138 785.613 160.499C806.084 162.859 827.226 177.089 851.347 208.345Z" stroke="#F39681" stroke-width="4"/>
<path d="M836.044 171.334C852.031 192.05 874.362 207.164 897.845 218.912C919.926 229.959 943.091 238.061 963.04 245.038C964.306 245.48 965.559 245.919 966.798 246.353C977.191 249.995 986.582 253.346 994.364 256.689C1002.17 260.039 1008.25 263.341 1012.09 266.848C1015.9 270.324 1017.39 273.866 1016.37 277.83C1015.31 281.936 1011.52 286.754 1004.03 292.539C996.963 297.99 985.844 307.45 971.601 319.568C924.836 359.354 844.387 427.797 763.156 477.134C710.167 509.318 657.023 533.252 612.83 535.839C590.759 537.131 570.982 533.095 554.565 522.163C538.151 511.232 524.988 493.335 516.274 466.703C481.306 359.833 503.275 290.07 541.365 241.213C560.438 216.75 583.583 197.489 605.756 181.425C616.177 173.876 626.374 167.038 635.833 160.696C636.437 160.291 637.038 159.888 637.636 159.487C647.587 152.812 656.679 146.673 664.245 140.835C694.325 117.622 721.498 104.945 748.936 108.108C776.372 111.271 804.387 130.31 836.044 171.334Z" stroke="#F39681" stroke-width="2"/>
<circle cx="304" cy="485" r="21" fill="#F39681"/>
<circle cx="21" cy="339" r="21" fill="#F39681"/>
</svg>
