<svg width="65" height="20" viewBox="0 0 65 20" fill="none" xmlns="http://www.w3.org/2000/svg">
<path d="M23.3142 14.6301C21.8653 15.032 20.4164 15.4259 18.9675 15.8278C18.3763 15.5384 17.427 14.9757 16.586 13.9789C16.2113 13.5368 14.9623 12.0256 14.9456 9.91945C14.9206 7.56414 16.4195 4.96768 19.0508 4.00305C21.1658 3.23134 23.8138 3.59308 25.3709 5.10434C25.8123 5.53038 26.0787 5.9725 26.2453 6.29405C23.6223 6.26189 21.4656 8.03038 21.1409 10.2008C20.891 11.8728 21.7487 13.5931 23.3142 14.6301Z" fill="#FFDC64"/>
<path d="M30.6004 12.0015C29.3098 11.6719 28.0274 11.3423 26.7367 11.0047C26.8367 10.659 27.4529 8.27157 25.9041 6.16546C24.4968 4.26032 21.8988 3.41627 19.534 4.05935C17.0109 4.75067 15.537 6.91305 15.2706 8.85839C15.0707 10.3375 15.5953 11.5674 15.7452 11.905C15.8868 12.2266 16.3614 13.2153 17.4189 14.1237C18.4265 14.9838 19.459 15.3455 20.0252 15.4983C18.4181 16.077 16.8194 16.6558 15.2123 17.2266C14.4878 16.704 12.7642 15.2973 11.8315 12.8214C11.5484 12.0658 10.7241 9.5899 11.7066 6.6317C11.9398 5.93234 12.8058 3.58508 15.2955 1.82463C17.0942 0.578647 18.8761 0.216911 19.7338 0.0963319C20.7164 -0.0403241 22.465 -0.136787 24.4468 0.546493C25.0963 0.771573 26.7534 1.41466 28.2939 2.97414C30.1758 4.87929 30.6837 6.96932 30.792 7.4034C31.2583 9.46932 30.8586 11.1735 30.6004 12.0015Z" fill="#E29BC6"/>
<path d="M1.96516 15.7404V1.99441H4.07187C5.21266 2.05068 6.12029 2.96708 6.16193 4.05229C6.20356 5.2018 5.27927 6.20663 4.07187 6.27094C4.07187 6.86579 4.07187 7.46065 4.07187 8.06354C4.52152 8.24039 6.78645 9.17286 7.4526 11.3272C8.26031 13.9558 6.11197 16.488 4.6381 17.4767C3.04766 18.5459 0.383039 19.0442 0.333077 19.0523C0.32475 19.0523 0.208173 19.0764 0.0582885 19.0925C0.0249808 19.1005 0 19.1005 0 19.1005C0 19.1086 2.41481 18.9156 4.35498 18.2163C5.31258 17.8706 7.96054 16.906 9.09301 14.3819C9.30118 13.9237 10.0673 12.2034 9.31783 10.2259C8.47681 8.01531 6.43672 7.25164 6.13695 7.1391C7.60249 6.29505 8.35191 4.61499 7.99385 3.02335C7.60249 1.30309 6.01204 0.0490723 4.17179 0.0490723H0.0333077V15.7404H1.96516V15.7404Z" fill="#41C5E6"/>
<path d="M18.8938 15.2893C19.5766 15.6671 21.5584 16.672 24.2314 16.4147C27.2707 16.1253 29.1692 14.389 29.6772 13.8826C29.3524 14.2041 28.3782 15.0964 26.821 15.3376C24.7726 15.6511 23.2571 14.6141 22.9657 14.4051C21.6084 14.6945 20.2511 14.9919 18.8938 15.2893Z" fill="#FFDC64"/>
<path d="M0.0499878 19.0995C0.0499878 19.0995 0.141584 19.0753 0.399719 19.0753C0.399719 19.0753 0.499642 19.0673 0.591238 19.0593C1.15747 19.011 3.18091 18.5689 3.18091 18.5689C3.44737 18.5126 3.97197 18.4403 5.01284 18.3117C6.60328 18.1027 7.05293 18.1027 8.13544 17.8937C8.55178 17.8133 8.8349 17.749 9.30953 17.6364C10.3504 17.3872 11.2164 17.138 12.0907 16.8888C13.8394 16.3824 14.4223 16.1332 17.5116 15.1686C19.1436 14.6541 19.9597 14.3969 20.2428 14.3245C25.1057 13.0384 29.6855 13.8181 29.6855 13.9065C29.6855 13.9226 29.2775 13.9306 28.3782 14.0191C28.2283 14.0351 27.7454 14.0914 27.0376 14.1879C26.1466 14.3165 25.2556 14.4692 24.3813 14.6461C22.6659 14.9917 21.0089 15.466 19.3601 16.0207C17.0036 16.8165 14.6721 17.6927 12.224 18.2072C12.0907 18.2313 11.8826 18.2795 11.5911 18.3278C9.46774 18.7216 8.08547 18.7377 5.50413 18.8503C2.63134 18.9628 0.0499878 19.1075 0.0499878 19.0995Z" fill="#41C5E6"/>
<path d="M41.2516 13.8262C41.2516 9.2362 41.2599 4.64617 41.2599 0.0561343C38.8035 0.0561343 36.3387 0.0480957 33.8823 0.0480957C33.7657 1.74424 33.6908 3.12687 33.6491 4.09954C33.5908 5.51433 33.5659 6.47896 33.441 8.07864C33.4243 8.25549 33.3494 9.2362 33.1912 10.5224C33.0746 11.4629 32.8914 12.4034 32.6083 13.3118C32.5083 13.6413 32.3918 13.9629 32.2252 14.2684C31.8006 15.0883 31.1011 15.7555 30.2767 16.2137C31.4925 15.9966 32.7249 15.651 33.7824 14.9999C33.8407 14.9597 33.8989 14.9275 33.9572 14.8873C34.6817 14.3809 34.8982 13.4806 35.1813 10.5867C35.3811 8.48057 35.4811 6.78443 35.581 5.26514C35.6476 4.22012 35.7309 3.18314 35.8308 2.14617C36.9966 2.14617 38.1623 2.13813 39.3281 2.13813V14.1638L41.2516 13.8262Z" fill="#41C5E6"/>
<path d="M58.9898 0.0480957H56.9331C55.6674 4.42912 54.4017 8.81819 53.136 13.1992C53.7272 13.2555 54.3101 13.3037 54.9013 13.36C55.226 12.1381 55.5591 10.9082 55.8839 9.68636H59.8725C60.5553 12.1542 61.2464 14.622 61.9292 17.0899C60.4554 16.479 58.6817 15.8761 56.6499 15.4339C54.7597 15.0159 53.0361 14.8311 51.5455 14.7587C48.8726 14.6944 45.725 14.8311 42.2277 15.3938C39.1301 15.8921 36.3822 16.6156 34.0423 17.3954C32.5768 17.8857 32.3187 17.9822 30.8698 18.3921C26.9978 19.4854 24.6079 19.7185 23.9334 19.7748C22.2014 19.9275 21.0273 19.8712 21.0273 19.8793C21.0273 19.8873 24.7245 20.0159 29.3626 19.5095C33.0015 19.1076 35.5162 18.5047 36.1907 18.3359C36.9068 18.159 38.2391 17.7491 40.912 16.9372C45.0339 15.6831 46.1497 15.2812 48.2064 15.0481C49.6303 14.8873 50.8044 14.8954 51.5622 14.9275C53.3691 14.9918 55.9588 15.3134 58.8816 16.4548C61.5545 17.4999 63.6029 18.8825 65.0019 19.9999L58.9898 0.0480957ZM56.4668 7.62848L57.9573 2.17028L59.3729 7.62848H56.4668Z" fill="#41C5E6"/>
<path d="M43.6831 13.4565V0.0480957H45.6316V7.62848H49.2621V0.0480957H51.194C51.194 4.41305 51.194 8.76996 51.194 13.1349C50.5528 13.1269 49.9116 13.1188 49.2705 13.1108C49.2705 11.9613 49.2621 10.8198 49.2621 9.67028H45.6316C45.6316 10.8921 45.6233 12.114 45.6233 13.3278C44.9738 13.3761 44.3326 13.4163 43.6831 13.4565Z" fill="#41C5E6"/>
</svg>
