<svg width="73" height="22" viewBox="0 0 73 22" fill="none" xmlns="http://www.w3.org/2000/svg">
<path d="M26.6279 15.7256C24.9611 16.1533 23.2942 16.5724 21.6273 17C20.9472 16.6921 19.8551 16.0934 18.8876 15.0328C18.4565 14.5624 17.0195 12.9545 17.0004 10.7136C16.9716 8.20756 18.696 5.44496 21.7231 4.4186C24.1564 3.59752 27.2027 3.9824 28.9941 5.59036C29.5019 6.04367 29.8084 6.51408 30 6.8562C26.9824 6.82198 24.5013 8.70363 24.1276 11.0129C23.8403 12.7919 24.827 14.6223 26.6279 15.7256Z" fill="#FFDC64"/>
<path d="M34.5476 13.2375C33.1113 12.874 31.6842 12.5105 30.2478 12.1382C30.359 11.757 31.0448 9.12396 29.3212 6.80122C27.7551 4.70013 24.8638 3.76926 22.232 4.47849C19.4242 5.24092 17.784 7.62571 17.4874 9.77113C17.265 11.4024 17.8488 12.7588 18.0156 13.1311C18.1732 13.4857 18.7014 14.5762 19.8783 15.578C20.9995 16.5266 22.1486 16.9255 22.7788 17.0939C20.9903 17.7322 19.211 18.3706 17.4226 19C16.6163 18.4237 14.6981 16.8723 13.6602 14.1418C13.3452 13.3084 12.4277 10.5779 13.5212 7.31542C13.7807 6.54413 14.7444 3.95543 17.5152 2.01391C19.5169 0.639779 21.5 0.240836 22.4544 0.107856C23.5479 -0.0428561 25.494 -0.149241 27.6995 0.604317C28.4223 0.852548 30.2664 1.56178 31.9807 3.28166C34.075 5.38276 34.6403 7.68776 34.7608 8.16649C35.2797 10.4449 34.8349 12.3244 34.5476 13.2375Z" fill="#E29BC6"/>
<path d="M2.24246 17.296V2.14428H4.64646C5.94823 2.2063 6.98394 3.21642 7.03145 4.4126C7.07896 5.67968 6.02424 6.78726 4.64646 6.85814C4.64646 7.51383 4.64646 8.16952 4.64646 8.83407C5.15956 9.029 7.7441 10.0568 8.50425 12.4315C9.42594 15.3289 6.97444 18.12 5.29259 19.2099C3.47772 20.3884 0.43709 20.9377 0.380078 20.9466C0.370576 20.9466 0.237549 20.9732 0.0665137 20.9909C0.0285059 20.9997 0 20.9997 0 20.9997C0 21.0086 2.75557 20.7959 4.96953 20.0251C6.06225 19.6441 9.08387 18.5808 10.3761 15.7985C10.6137 15.2935 11.4879 13.3973 10.6327 11.2176C9.673 8.7809 7.34501 7.93914 7.00294 7.81509C8.67529 6.88472 9.53047 5.03285 9.12188 3.27844C8.67529 1.38226 6.86042 0 4.76048 0H0.0380078V17.296H2.24246V17.296Z" fill="white"/>
<path d="M21 16.6397C21.7598 17.0801 23.9653 18.2514 26.9398 17.9515C30.322 17.6142 32.4347 15.5903 33 15C32.6386 15.3748 31.5544 16.4149 29.8216 16.696C27.5421 17.0614 25.8556 15.8527 25.5313 15.609C24.0208 15.9464 22.5104 16.293 21 16.6397Z" fill="#FFDC64"/>
<path d="M0 20.9997C0 20.9997 0.101995 20.9734 0.389435 20.9734C0.389435 20.9734 0.500702 20.9646 0.602697 20.9559C1.23321 20.9033 3.48637 20.4217 3.48637 20.4217C3.78309 20.3604 4.36724 20.2816 5.52627 20.1415C7.29727 19.9138 7.79798 19.9138 9.00337 19.6862C9.46699 19.5986 9.78224 19.5285 10.3108 19.4059C11.4698 19.1345 12.4341 18.863 13.4077 18.5916C15.3549 18.0399 16.0039 17.7684 19.4439 16.7176C21.2613 16.1572 22.17 15.877 22.4852 15.7982C27.9003 14.3971 33 15.2465 33 15.3428C33 15.3604 32.5457 15.3691 31.5443 15.4654C31.3774 15.483 30.8396 15.5443 30.0514 15.6493C29.0593 15.7894 28.0672 15.9558 27.0936 16.1485C25.1835 16.525 23.3383 17.0416 21.5024 17.6459C18.8783 18.5128 16.2821 19.4672 13.5561 20.0277C13.4077 20.0539 13.1759 20.1065 12.8514 20.159C10.4869 20.5881 8.94774 20.6056 6.07334 20.7282C2.8744 20.8508 0 21.0084 0 20.9997Z" fill="white"/>
<path d="M45.9909 15.3416C45.9909 10.2307 46 5.11984 46 0.00895077C43.3161 0.00895077 40.6232 0 37.9393 0C37.812 1.88861 37.7301 3.42815 37.6846 4.51119C37.6209 6.08652 37.5936 7.16062 37.4572 8.94182C37.439 9.13874 37.3571 10.2307 37.1842 11.6629C37.0569 12.7101 36.8567 13.7573 36.5474 14.7688C36.4382 15.1358 36.3108 15.4938 36.1289 15.8339C35.6649 16.7469 34.9007 17.4898 34 18C35.3283 17.7583 36.6748 17.3734 37.8302 16.6484C37.8939 16.6037 37.9575 16.5679 38.0212 16.5231C38.8127 15.9592 39.0493 14.9567 39.3586 11.7345C39.577 9.38936 39.6861 7.50075 39.7953 5.80905C39.8681 4.64545 39.9591 3.4908 40.0682 2.33615C41.3419 2.33615 42.6156 2.3272 43.8893 2.3272V15.7176L45.9909 15.3416Z" fill="white"/>
<path d="M66.3009 0H64.0091C62.5988 4.83078 61.1884 9.67043 59.7781 14.5012C60.4368 14.5633 61.0863 14.6164 61.7451 14.6785C62.107 13.3312 62.4781 11.975 62.84 10.6277H67.2844C68.0453 13.3489 68.8154 16.0701 69.5762 18.7913C67.9339 18.1176 65.9576 17.4529 63.6936 16.9653C61.5874 16.5044 59.6667 16.3006 58.0059 16.2208C55.0275 16.1499 51.5202 16.3006 47.6232 16.921C44.1716 17.4706 41.1096 18.2683 38.5024 19.1281C36.8693 19.6688 36.5817 19.7752 34.9672 20.2272C30.6527 21.4327 27.9898 21.6898 27.2382 21.7518C25.3083 21.9202 24 21.8582 24 21.867C24 21.8759 28.1197 22.0177 33.2878 21.4593C37.3426 21.0161 40.1447 20.3513 40.8962 20.1652C41.6942 19.9702 43.1788 19.5181 46.1572 18.6229C50.75 17.2401 51.9934 16.7969 54.2852 16.5399C55.8718 16.3626 57.1801 16.3715 58.0244 16.4069C60.0379 16.4778 62.9235 16.8324 66.1803 18.0911C69.1587 19.2434 71.4412 20.7679 73 22L66.3009 0ZM63.4895 8.35858L65.1504 2.34005L66.7277 8.35858H63.4895Z" fill="white"/>
<path d="M49 15V0H51.0754V8.48022H54.9423V0H57C57 4.88309 57 9.75719 57 14.6403C56.3171 14.6313 55.6341 14.6223 54.9512 14.6133C54.9512 13.3273 54.9423 12.0504 54.9423 10.7644H51.0754C51.0754 12.1313 51.0665 13.4982 51.0665 14.8561C50.3747 14.9101 49.6918 14.955 49 15Z" fill="white"/>
</svg>
