<svg width="1200" height="128" viewBox="0 0 1200 128" fill="none" xmlns="http://www.w3.org/2000/svg">
<mask id="mask0" mask-type="alpha" maskUnits="userSpaceOnUse" x="0" y="0" width="1200" height="128">
<path d="M0 0H1200V86.5C1200 86.5 679.5 139 438.5 86.5C197.5 34 0 128 0 128V0Z" fill="#6332CD"/>
</mask>
<g mask="url(#mask0)">
<path d="M0 0H1200V86.5C1200 86.5 679.5 139 438.5 86.5C197.5 34 0 128 0 128V0Z" fill="#6332CD"/>
<path d="M991.588 189.914C929.849 311.772 698.831 206.596 811.357 53.0629C923.882 -100.471 897.348 165.931 983.984 69.2646C1070.62 -27.4016 1168.22 56.5639 1145.04 127.112C1121.85 197.66 1053.33 68.0567 991.588 189.914Z" fill="#3DCD90"/>
<circle cx="407" cy="185" r="136" stroke="#F39681" stroke-width="4"/>
<path d="M579 174C579 254.515 504.582 320 412.5 320C320.418 320 246 254.515 246 174C246 93.4851 320.418 28 412.5 28C504.582 28 579 93.4851 579 174Z" stroke="#F39681" stroke-width="2"/>
<circle r="20" transform="matrix(1 0 0 -1 653 37)" stroke="#F39681" stroke-width="4"/>
<path d="M814.284 21.6355C815.489 22.8401 817.295 22.8399 818.5 22.2376C819.705 21.033 819.705 19.2262 819.102 18.0216C817.898 16.817 816.091 16.8169 814.886 17.4192C813.079 18.0216 813.079 20.4308 814.284 21.6355Z" fill="white"/>
<path d="M837.174 36.0914C838.378 37.296 840.185 37.296 841.39 36.6937C842.594 35.4891 842.594 33.6821 841.992 32.4775C840.787 31.2729 838.98 31.2729 837.776 31.8752C836.571 33.0798 836.571 34.8868 837.174 36.0914Z" fill="white"/>
<path d="M860.651 50.546C861.856 51.7506 863.663 51.7506 864.867 51.1483C866.072 49.9437 866.072 48.1367 865.47 46.9321C864.265 45.7275 862.458 45.7275 861.253 46.3298C859.446 47.5344 859.446 49.3414 860.651 50.546Z" fill="white"/>
<path d="M753.436 15.612C754.641 16.8166 756.448 16.8165 757.653 16.2142C758.857 15.0096 758.857 13.2028 758.255 11.9982C757.05 10.7935 755.243 10.7935 754.039 11.3958C752.232 12.6004 752.232 14.4074 753.436 15.612Z" fill="white"/>
<path d="M776.331 30.0684C777.535 31.2731 779.342 31.2731 780.547 30.6708C781.752 29.4662 781.752 27.6592 781.149 26.4546C779.945 25.25 778.138 25.2499 776.933 25.8522C775.728 27.0568 775.126 28.8638 776.331 30.0684Z" fill="white"/>
<path d="M799.811 44.523C801.016 45.7277 802.823 45.7277 804.027 45.1254C805.232 43.9208 805.232 42.1138 804.63 40.9092C803.425 39.7046 801.618 39.7045 800.414 40.3068C798.607 41.5114 798.607 43.3184 799.811 44.523Z" fill="white"/>
<path d="M822.703 58.9776C823.908 60.1822 825.715 60.1823 826.919 59.58C828.124 58.3754 828.124 56.5684 827.521 55.3638C826.317 54.1591 824.51 54.1593 823.305 54.7616C822.101 55.9662 822.101 57.773 822.703 58.9776Z" fill="white"/>
<path d="M846.209 73.4342C847.413 74.6388 849.22 74.6388 850.425 74.0365C851.63 72.8319 851.63 71.0251 851.027 69.8205C849.823 68.6159 848.016 68.6158 846.811 69.2181C845.004 70.4228 845.004 72.2296 846.209 73.4342Z" fill="white"/>
<path d="M869.077 88.4918C870.282 89.6964 872.088 89.6964 873.293 89.0941C874.498 87.8895 874.498 86.0827 873.895 84.8781C872.691 83.6735 870.884 83.6735 869.679 84.2758C868.475 84.8781 868.475 87.2872 869.077 88.4918Z" fill="white"/>
<path d="M892.582 102.946C893.787 104.151 895.593 104.151 896.798 103.549C898.003 102.344 898.003 100.537 897.4 99.3326C896.196 98.128 894.389 98.128 893.184 98.7303C891.98 99.9349 891.377 101.742 892.582 102.946Z" fill="white"/>
<path d="M916.065 117.402C917.27 118.607 919.077 118.607 920.281 118.005C921.486 116.8 921.486 114.993 920.884 113.789C919.679 112.584 917.872 112.584 916.668 113.186C914.861 114.391 914.861 116.198 916.065 117.402Z" fill="white"/>
<path d="M938.952 131.858C940.156 133.062 941.963 133.062 943.168 132.46C944.373 131.255 944.373 129.448 943.77 128.244C942.566 127.039 940.759 127.039 939.554 127.641C938.35 128.846 937.747 130.653 938.952 131.858Z" fill="white"/>
<path d="M715.491 24.6467C716.696 25.8513 718.503 25.8512 719.707 25.2488C720.912 24.0442 720.912 22.2374 720.309 21.0328C719.105 19.8282 717.298 19.8282 716.093 20.4305C714.286 21.0328 714.286 23.4421 715.491 24.6467Z" fill="white"/>
<path d="M738.995 39.1031C740.2 40.3077 742.006 40.3078 743.211 39.7055C744.416 38.5008 744.416 36.6939 743.813 35.4892C742.609 34.2846 740.802 34.2846 739.597 34.8869C737.79 36.0915 737.79 37.8985 738.995 39.1031Z" fill="white"/>
<path d="M761.885 53.5577C763.09 54.7623 764.897 54.7624 766.102 54.1601C767.306 52.9554 767.306 51.1484 766.704 49.9438C765.499 48.7392 763.692 48.7392 762.488 49.3415C761.283 50.5461 760.681 52.3531 761.885 53.5577Z" fill="white"/>
<path d="M785.366 68.0123C786.571 69.2169 788.378 69.2169 789.582 68.6146C790.787 67.41 790.787 65.603 790.184 64.3984C788.98 63.1938 787.173 63.194 785.968 63.7963C784.161 65.0009 784.161 66.8077 785.366 68.0123Z" fill="white"/>
<path d="M808.261 82.4688C809.465 83.6735 811.272 83.6735 812.477 83.0712C813.681 81.8666 813.681 80.0598 813.079 78.8552C811.874 77.6505 810.068 77.6505 808.863 78.2528C807.658 79.4574 807.056 81.2642 808.261 82.4688Z" fill="white"/>
<path d="M831.737 96.9231C832.942 98.1277 834.749 98.1275 835.953 97.5252C837.158 96.3206 837.158 94.5138 836.555 93.3092C835.351 92.1046 833.544 92.1045 832.339 92.7068C830.533 93.9115 830.533 95.7184 831.737 96.9231Z" fill="white"/>
<path d="M854.632 111.379C855.836 112.584 857.643 112.584 858.848 111.982C860.052 110.777 860.052 108.97 859.45 107.766C858.245 106.561 856.438 106.561 855.234 107.163C854.029 107.766 854.029 110.175 854.632 111.379Z" fill="white"/>
<path d="M878.112 125.835C879.317 127.039 881.124 127.039 882.328 126.437C883.533 125.232 883.533 123.425 882.931 122.221C881.726 121.016 879.919 121.016 878.714 121.618C876.907 122.823 876.908 124.63 878.112 125.835Z" fill="white"/>
<path d="M701.042 47.5343C702.246 48.7389 704.053 48.7389 705.258 48.1366C706.463 46.932 706.463 45.125 705.86 43.9204C704.656 42.7158 702.849 42.7158 701.644 43.3181C699.837 44.5227 699.837 46.3297 701.042 47.5343Z" fill="white"/>
<path d="M723.937 61.9893C725.142 63.194 726.949 63.194 728.153 62.5917C729.358 61.3871 729.358 59.5801 728.756 58.3755C727.551 57.1709 725.744 57.171 724.54 57.7733C723.335 58.9779 723.335 60.7847 723.937 61.9893Z" fill="white"/>
<path d="M747.416 77.047C748.62 78.2516 750.427 78.2516 751.632 77.6493C752.837 76.4447 752.837 74.6377 752.234 73.4331C751.03 72.2285 749.223 72.2286 748.018 72.8309C746.814 73.4332 746.211 75.24 747.416 77.047Z" fill="white"/>
<path d="M770.921 91.503C772.125 92.7076 773.932 92.7077 775.137 92.1054C776.341 90.9008 776.341 89.0939 775.739 87.8893C774.535 86.6847 772.728 86.6847 771.523 87.287C769.716 87.8893 769.716 90.2984 770.921 91.503Z" fill="white"/>
<path d="M793.788 105.958C794.993 107.163 796.799 107.163 798.004 106.56C799.209 105.356 799.209 103.549 798.606 102.344C797.402 101.14 795.595 101.14 794.39 101.742C793.186 102.947 792.583 104.754 793.788 105.958Z" fill="white"/>
<path d="M817.296 120.414C818.5 121.619 820.307 121.619 821.512 121.016C822.716 119.812 822.716 118.005 822.114 116.8C820.91 115.596 819.103 115.596 817.898 116.198C816.091 117.403 816.091 119.21 817.296 120.414Z" fill="white"/>
<path d="M663.093 56.5689C664.297 57.7735 666.104 57.7736 667.309 57.1713C668.513 55.9667 668.513 54.1597 667.911 52.9551C666.706 51.7505 664.9 51.7504 663.695 52.3527C662.49 53.5573 662.49 55.3643 663.093 56.5689Z" fill="white"/>
<path d="M686.596 71.024C687.801 72.2286 689.608 72.2287 690.813 71.6264C692.017 71.0241 692.017 68.6148 691.415 67.4101C690.21 66.2055 688.403 66.2057 687.199 66.808C685.392 68.0126 685.392 69.8194 686.596 71.024Z" fill="white"/>
<path d="M709.468 85.4801C710.672 86.6847 712.479 86.6847 713.684 86.0824C714.888 84.8778 714.888 83.071 714.286 81.8664C713.081 80.6618 711.274 80.6617 710.07 81.264C708.865 82.4687 708.865 84.2755 709.468 85.4801Z" fill="white"/>
<path d="M732.973 99.9348C734.177 101.139 735.984 101.139 737.189 100.537C738.393 99.3323 738.393 97.5255 737.791 96.3209C736.586 95.1163 734.779 95.1163 733.575 95.7186C732.37 96.9232 731.768 98.7302 732.973 99.9348Z" fill="white"/>
<path d="M756.451 114.391C757.656 115.596 759.463 115.596 760.667 114.994C761.872 113.789 761.872 111.982 761.269 110.777C760.065 109.573 758.258 109.573 757.053 110.175C755.849 110.777 755.246 113.187 756.451 114.391Z" fill="white"/>
<path d="M779.342 128.846C780.547 130.05 782.354 130.05 783.559 129.448C784.763 128.244 784.763 126.437 784.161 125.232C782.956 124.027 781.149 124.027 779.945 124.63C778.74 125.232 778.138 127.641 779.342 128.846Z" fill="white"/>
<path d="M648.651 80.0587C649.856 81.2633 651.663 81.2633 652.867 80.661C654.072 79.4564 654.072 77.6494 653.47 76.4448C652.265 75.2402 650.458 75.2403 649.254 75.8427C648.049 76.445 647.447 78.2518 648.651 80.0587Z" fill="white"/>
<path d="M672.128 94.5147C673.332 95.7194 675.139 95.7194 676.344 95.1171C677.549 93.9125 677.548 92.1057 676.946 90.9011C675.742 89.6964 673.935 89.6964 672.73 90.2987C671.525 90.901 670.923 93.3101 672.128 94.5147Z" fill="white"/>
<path d="M695.019 108.969C696.224 110.174 698.031 110.174 699.235 109.572C700.44 108.969 700.44 106.56 699.838 105.356C698.633 104.151 696.826 104.151 695.622 104.753C694.417 105.958 694.417 107.765 695.019 108.969Z" fill="white"/>
<path d="M718.503 123.425C719.707 124.63 721.514 124.63 722.719 124.028C723.923 122.823 723.923 121.016 723.321 119.812C722.117 118.607 720.31 118.607 719.105 119.209C717.298 120.414 717.298 122.221 718.503 123.425Z" fill="white"/>
<path d="M634.18 102.946C635.384 104.151 637.191 104.151 638.396 103.549C639.6 102.344 639.6 100.537 638.998 99.3326C637.793 98.128 635.986 98.128 634.782 98.7303C633.577 99.9349 632.975 101.742 634.18 102.946Z" fill="white"/>
<path d="M657.682 117.403C658.887 118.608 660.694 118.608 661.899 118.005C663.103 116.801 663.103 114.994 662.501 113.789C661.296 112.584 659.489 112.584 658.285 113.187C656.478 114.391 656.478 116.198 657.682 117.403Z" fill="white"/>
<path d="M680.577 131.858C681.781 133.062 683.588 133.062 684.793 132.46C685.998 131.255 685.998 129.448 685.395 128.244C684.191 127.039 682.384 127.039 681.179 127.641C679.975 128.244 679.975 130.653 680.577 131.858Z" fill="white"/>
<path d="M596.839 111.981C598.043 113.186 599.85 113.186 601.055 112.583C602.26 111.981 602.259 109.572 601.657 108.367C600.452 107.163 598.646 107.163 597.441 107.765C595.634 108.97 595.634 110.777 596.839 111.981Z" fill="white"/>
<path d="M619.733 126.437C620.938 127.642 622.745 127.642 623.949 127.039C625.154 125.835 625.154 124.028 624.552 122.823C623.347 121.619 621.54 121.619 620.335 122.221C619.131 123.425 618.528 125.232 619.733 126.437Z" fill="white"/>
</g>
</svg>
