<svg width="320" height="72" viewBox="0 0 320 72" fill="none" xmlns="http://www.w3.org/2000/svg">
<mask id="mask0" mask-type="alpha" maskUnits="userSpaceOnUse" x="0" y="0" width="320" height="72">
<rect width="320" height="72" fill="#C4C4C4"/>
</mask>
<g mask="url(#mask0)">
<mask id="mask1" mask-type="alpha" maskUnits="userSpaceOnUse" x="-121" y="0" width="480" height="72">
<rect x="-121" width="480" height="72" fill="white"/>
</mask>
<g mask="url(#mask1)">
<mask id="mask2" mask-type="alpha" maskUnits="userSpaceOnUse" x="-143" y="0" width="675" height="72">
<path d="M-143 0H532V48.6562C532 48.6562 239.219 78.1875 103.656 48.6562C-31.9062 19.125 -143 72 -143 72V0Z" fill="#6332CD"/>
</mask>
<g mask="url(#mask2)">
<path d="M-143 0H532V48.6562C532 48.6562 239.219 78.1875 103.656 48.6562C-31.9062 19.125 -143 72 -143 72V0Z" fill="#6332CD"/>
<path d="M415.103 106.548C380.275 174.921 250.509 116.188 313.918 30.0076C377.327 -56.1729 362.148 93.1956 410.947 38.92C459.746 -15.3557 514.531 31.6184 501.427 71.1901C488.324 110.762 449.931 38.1744 415.103 106.548Z" fill="#3DCD90"/>
<circle cx="86.5" cy="103.5" r="75.5" stroke="#F39681" stroke-width="4"/>
<path d="M182 98C182 143.174 140.483 180 89 180C37.5169 180 -4 143.174 -4 98C-4 52.826 37.5169 16 89 16C140.483 16 182 52.826 182 98Z" stroke="#F39681" stroke-width="2"/>
<circle r="10.5" transform="matrix(1 0 0 -1 224.5 20.5)" stroke="#F39681" stroke-width="4"/>
<path d="M315.555 12.4664C316.351 13.1106 317.545 13.1105 318.341 12.7884C319.137 12.1442 319.137 11.1779 318.739 10.5337C317.943 9.88948 316.749 9.88946 315.953 10.2116C314.759 10.5337 314.759 11.8221 315.555 12.4664Z" fill="white"/>
<path d="M280.555 8.46636C281.351 9.11058 282.545 9.1105 283.341 8.78839C284.137 8.14418 284.137 7.17791 283.739 6.5337C282.943 5.88948 281.749 5.88946 280.953 6.21157C279.759 6.85579 279.759 7.82215 280.555 8.46636Z" fill="white"/>
<path d="M294.336 16.4663C294.951 17.1105 295.874 17.1105 296.49 16.7884C297.106 16.1442 297.106 15.1779 296.798 14.5337C296.182 13.8895 295.259 13.8895 294.643 14.2116C294.028 14.8558 293.72 15.8221 294.336 16.4663Z" fill="white"/>
<path d="M307.555 25.4663C308.351 26.1105 309.545 26.1105 310.341 25.7884C311.137 25.1442 311.137 24.1779 310.739 23.5337C309.943 22.8895 308.749 22.8895 307.953 23.2116C306.759 23.8558 306.759 24.8221 307.555 25.4663Z" fill="white"/>
<path d="M320.212 33.4663C320.856 34.1105 321.822 34.1105 322.466 33.7884C323.111 33.1442 323.111 32.1779 322.788 31.5336C322.144 30.8894 321.178 30.8895 320.534 31.2116C319.889 31.8558 319.889 32.8221 320.212 33.4663Z" fill="white"/>
<path d="M259.555 13.4664C260.351 14.1106 261.545 14.1105 262.341 13.7884C263.137 13.1442 263.137 12.1779 262.739 11.5337C261.943 10.8895 260.749 10.8895 259.953 11.2116C258.759 11.5337 258.759 12.8221 259.555 13.4664Z" fill="white"/>
<path d="M272.555 22.4663C273.351 23.1105 274.545 23.1105 275.341 22.7884C276.137 22.1442 276.137 21.1779 275.739 20.5337C274.943 19.8895 273.749 19.8895 272.953 20.2116C271.759 20.8558 271.759 21.8221 272.555 22.4663Z" fill="white"/>
<path d="M286.336 30.4663C286.951 31.1105 287.874 31.1105 288.49 30.7884C289.106 30.1442 289.106 29.1779 288.798 28.5337C288.182 27.8895 287.259 27.8895 286.643 28.2116C286.028 28.8558 285.72 29.8221 286.336 30.4663Z" fill="white"/>
<path d="M298.555 38.4663C299.351 39.1105 300.545 39.1105 301.341 38.7884C302.137 38.1442 302.137 37.1779 301.739 36.5336C300.943 35.8894 299.749 35.8895 298.953 36.2116C297.759 36.8558 297.759 37.8221 298.555 38.4663Z" fill="white"/>
<path d="M312.336 46.4663C312.951 47.1105 313.874 47.1105 314.49 46.7884C315.106 46.1442 315.106 45.1779 314.798 44.5337C314.182 43.8895 313.259 43.8895 312.643 44.2116C312.028 44.8558 311.72 45.8221 312.336 46.4663Z" fill="white"/>
<path d="M251.555 26.4663C252.351 27.1105 253.545 27.1105 254.341 26.7884C255.137 26.1442 255.137 25.1779 254.739 24.5337C253.943 23.8895 252.749 23.8895 251.953 24.2116C250.759 24.8558 250.759 25.8221 251.555 26.4663Z" fill="white"/>
<path d="M265.212 34.4663C265.856 35.1105 266.822 35.1105 267.466 34.7884C268.111 34.1442 268.111 33.1779 267.788 32.5336C267.144 31.8894 266.178 31.8895 265.534 32.2116C264.889 32.8558 264.889 33.8221 265.212 34.4663Z" fill="white"/>
<path d="M278.336 43.4663C278.951 44.1105 279.875 44.1105 280.49 43.7884C281.106 43.1442 281.106 42.1779 280.798 41.5336C280.182 40.8894 279.259 40.8895 278.643 41.2116C278.028 41.5337 277.72 42.5 278.336 43.4663Z" fill="white"/>
<path d="M290.555 51.4663C291.351 52.1105 292.545 52.1105 293.341 51.7884C294.137 51.1442 294.137 50.1779 293.739 49.5337C292.943 48.8895 291.749 48.8895 290.953 49.2116C289.759 49.5337 289.759 50.8221 290.555 51.4663Z" fill="white"/>
<path d="M304.336 59.4664C304.951 60.1106 305.874 60.1105 306.49 59.7884C307.106 59.1442 307.106 58.1779 306.798 57.5337C306.182 56.8895 305.259 56.8895 304.643 57.2116C304.028 57.8558 303.72 58.8221 304.336 59.4664Z" fill="white"/>
<path d="M316.555 67.4663C317.351 68.1105 318.545 68.1105 319.341 67.7884C320.137 67.1442 320.137 66.1779 319.739 65.5337C318.943 64.8895 317.749 64.8895 316.953 65.2116C315.759 65.8558 315.759 66.8221 316.555 67.4663Z" fill="white"/>
<path d="M230.212 31.4663C230.856 32.1105 231.822 32.1105 232.466 31.7884C233.111 31.1442 233.111 30.1779 232.788 29.5337C232.144 28.8895 231.178 28.8895 230.534 29.2116C229.889 29.8558 229.889 30.8221 230.212 31.4663Z" fill="white"/>
<path d="M243.555 40.4663C244.351 41.1105 245.545 41.1105 246.341 40.7884C247.137 40.4663 247.137 39.1779 246.739 38.5336C245.943 37.8894 244.749 37.8895 243.953 38.2116C242.759 38.8558 242.759 39.8221 243.555 40.4663Z" fill="white"/>
<path d="M257.212 48.4663C257.856 49.1105 258.822 49.1105 259.466 48.7884C260.111 48.1442 260.111 47.1779 259.788 46.5337C259.144 45.8895 258.178 45.8895 257.534 46.2116C256.889 46.8558 256.889 47.8221 257.212 48.4663Z" fill="white"/>
<path d="M270.336 55.4664C270.951 56.1106 271.874 56.1105 272.49 55.7884C273.106 55.1442 273.106 54.1779 272.798 53.5337C272.182 52.8895 271.259 52.8895 270.643 53.2116C270.028 53.8558 269.72 54.8221 270.336 55.4664Z" fill="white"/>
<path d="M283.336 64.4663C283.951 65.1105 284.875 65.1105 285.49 64.7884C286.106 64.1442 286.106 63.1779 285.798 62.5337C285.182 61.8895 284.259 61.8895 283.643 62.2116C283.028 62.5337 282.72 63.8221 283.336 64.4663Z" fill="white"/>
<path d="M296.336 72.4663C296.951 73.1105 297.874 73.1105 298.49 72.7884C299.106 72.1442 299.106 71.1779 298.798 70.5337C298.182 69.8895 297.259 69.8895 296.643 70.2116C296.028 70.5337 295.72 71.8221 296.336 72.4663Z" fill="white"/>
<path d="M222.336 45.4663C222.951 46.1105 223.874 46.1105 224.49 45.7884C225.106 45.1442 225.106 44.1779 224.798 43.5336C224.182 42.8894 223.259 42.8895 222.643 43.2116C222.028 43.5337 221.72 44.5 222.336 45.4663Z" fill="white"/>
<path d="M236.336 52.4663C236.951 53.1105 237.875 53.1105 238.49 52.7884C239.106 52.1442 239.106 51.1779 238.798 50.5337C238.182 49.8895 237.259 49.8895 236.643 50.2116C236.028 50.5337 235.72 51.8221 236.336 52.4663Z" fill="white"/>
<path d="M248.212 61.4664C248.856 62.1106 249.822 62.1105 250.466 61.7884C251.111 61.4663 251.111 60.1779 250.788 59.5337C250.144 58.8895 249.178 58.8895 248.534 59.2116C247.889 59.8558 247.889 60.8221 248.212 61.4664Z" fill="white"/>
<path d="M261.555 69.4663C262.351 70.1105 263.545 70.1105 264.341 69.7884C265.137 69.1442 265.137 68.1779 264.739 67.5337C263.943 66.8895 262.749 66.8895 261.953 67.2116C260.759 67.8558 260.759 68.8221 261.555 69.4663Z" fill="white"/>
<path d="M215.336 58.4664C215.951 59.1106 216.874 59.1105 217.49 58.7884C218.106 58.1442 218.106 57.1779 217.798 56.5337C217.182 55.8895 216.259 55.8895 215.643 56.2116C215.028 56.8558 214.72 57.8221 215.336 58.4664Z" fill="white"/>
<path d="M226.555 66.4663C227.351 67.1105 228.545 67.1105 229.341 66.7884C230.137 66.1442 230.137 65.1779 229.739 64.5337C228.943 63.8895 227.749 63.8895 226.953 64.2116C225.759 64.8558 225.759 65.8221 226.555 66.4663Z" fill="white"/>
<path d="M240.212 73.4663C240.856 74.1105 241.822 74.1105 242.466 73.7884C243.111 73.1442 243.111 72.1779 242.788 71.5337C242.144 70.8895 241.178 70.8895 240.534 71.2116C239.889 71.5337 239.889 72.8221 240.212 73.4663Z" fill="white"/>
<path d="M193.555 63.4664C194.351 64.1106 195.545 64.1105 196.341 63.7884C197.137 63.4663 197.137 62.1779 196.739 61.5337C195.943 60.8895 194.749 60.8895 193.953 61.2116C192.759 61.8558 192.759 62.8221 193.555 63.4664Z" fill="white"/>
<path d="M206.336 70.4663C206.951 71.1105 207.874 71.1105 208.49 70.7884C209.106 70.1442 209.106 69.1779 208.798 68.5337C208.182 67.8895 207.259 67.8895 206.643 68.2116C206.028 68.8558 205.72 69.8221 206.336 70.4663Z" fill="white"/>
</g>
</g>
</g>
</svg>
