<svg width="640" height="96" viewBox="0 0 640 96" fill="none" xmlns="http://www.w3.org/2000/svg">
<mask id="mask0" mask-type="alpha" maskUnits="userSpaceOnUse" x="0" y="0" width="640" height="96">
<rect width="640" height="96" fill="white"/>
</mask>
<g mask="url(#mask0)">
<mask id="mask1" mask-type="alpha" maskUnits="userSpaceOnUse" x="-30" y="0" width="900" height="96">
<path d="M-30 0H870V64.875C870 64.875 479.625 104.25 298.875 64.875C118.125 25.5 -30 96 -30 96V0Z" fill="#6332CD"/>
</mask>
<g mask="url(#mask1)">
<path d="M-30 0H870V64.875C870 64.875 479.625 104.25 298.875 64.875C118.125 25.5 -30 96 -30 96V0Z" fill="#6332CD"/>
<path d="M713.781 142.411C667.303 233.721 494.031 155.236 578.663 40.1515C663.296 -74.9331 643.076 124.561 708.212 52.085C773.348 -20.3914 846.506 42.365 829.024 95.2135C811.542 148.062 760.26 51.1014 713.781 142.411Z" fill="#3DCD90"/>
<circle cx="275.5" cy="138.5" r="101.5" stroke="#F39681" stroke-width="4"/>
<path d="M404 130.5C404 190.859 348.383 240 279.5 240C210.617 240 155 190.859 155 130.5C155 70.1406 210.617 21 279.5 21C348.383 21 404 70.1406 404 130.5Z" stroke="#F39681" stroke-width="2"/>
<circle r="14.5" transform="matrix(1 0 0 -1 459.5 27.5)" stroke="#F39681" stroke-width="4"/>
<path d="M580.693 16.2885C581.688 17.1474 583.181 17.1473 584.176 16.7179C585.171 15.8589 585.171 14.5706 584.673 13.7116C583.678 12.8526 582.186 12.8526 581.191 13.2821C579.698 13.7116 579.698 15.4295 580.693 16.2885Z" fill="white"/>
<path d="M598.282 27.2884C599.141 28.1474 600.429 28.1474 601.288 27.7179C602.147 26.859 602.147 25.5705 601.718 24.7116C600.859 23.8526 599.571 23.8526 598.712 24.2821C597.853 25.141 597.853 26.4295 598.282 27.2884Z" fill="white"/>
<path d="M614.693 37.2884C615.688 38.1474 617.181 38.1474 618.176 37.7179C619.171 36.859 619.171 35.5705 618.673 34.7116C617.678 33.8526 616.186 33.8526 615.191 34.2821C613.698 35.141 613.698 36.4295 614.693 37.2884Z" fill="white"/>
<path d="M534.693 11.2885C535.688 12.1474 537.181 12.1473 538.176 11.7179C539.171 10.8589 539.171 9.57055 538.673 8.7116C537.678 7.85264 536.186 7.85262 535.191 8.28209C533.698 9.14105 533.698 10.4295 534.693 11.2885Z" fill="white"/>
<path d="M552.447 22.2884C553.268 23.1474 554.499 23.1474 555.32 22.7179C556.141 21.859 556.141 20.5705 555.73 19.7116C554.91 18.8526 553.679 18.8526 552.858 19.2821C552.037 20.141 551.627 21.4295 552.447 22.2884Z" fill="white"/>
<path d="M569.693 33.2884C570.688 34.1474 572.181 34.1474 573.176 33.7179C574.171 32.859 574.171 31.5705 573.673 30.7116C572.678 29.8526 571.186 29.8526 570.191 30.2821C568.698 31.141 568.699 32.4295 569.693 33.2884Z" fill="white"/>
<path d="M587.282 44.2884C588.141 45.1474 589.43 45.1474 590.288 44.7179C591.147 43.859 591.147 42.5705 590.718 41.7115C589.859 40.8526 588.571 40.8527 587.712 41.2821C586.853 42.1411 586.853 43.4294 587.282 44.2884Z" fill="white"/>
<path d="M604.693 55.2884C605.688 56.1474 607.181 56.1474 608.176 55.7179C609.171 54.8589 609.171 53.5706 608.673 52.7116C607.678 51.8526 606.186 51.8526 605.191 52.2821C603.698 53.1411 603.698 54.4294 604.693 55.2884Z" fill="white"/>
<path d="M622.282 66.2884C623.141 67.1474 624.429 67.1474 625.288 66.7179C626.147 65.8589 626.147 64.5706 625.718 63.7116C624.859 62.8526 623.57 62.8526 622.712 63.2821C621.853 63.7116 621.853 65.4294 622.282 66.2884Z" fill="white"/>
<path d="M639.447 77.2885C640.268 78.1474 641.499 78.1473 642.32 77.7179C643.141 76.8589 643.141 75.5706 642.73 74.7116C641.91 73.8526 640.679 73.8526 639.858 74.2821C639.037 75.141 638.627 76.4295 639.447 77.2885Z" fill="white"/>
<path d="M506.693 18.2885C507.688 19.1474 509.181 19.1473 510.176 18.7179C511.171 17.8589 511.171 16.5706 510.673 15.7116C509.678 14.8526 508.186 14.8526 507.191 15.2821C505.698 15.7116 505.699 17.4295 506.693 18.2885Z" fill="white"/>
<path d="M523.693 29.2884C524.688 30.1474 526.181 30.1474 527.176 29.7179C528.171 28.859 528.171 27.5705 527.673 26.7116C526.678 25.8526 525.186 25.8526 524.191 26.2821C522.698 27.141 522.698 28.4295 523.693 29.2884Z" fill="white"/>
<path d="M541.447 40.2884C542.268 41.1474 543.499 41.1474 544.32 40.7179C545.141 39.859 545.141 38.5705 544.73 37.7116C543.91 36.8526 542.679 36.8526 541.858 37.2821C541.037 38.141 540.627 39.4295 541.447 40.2884Z" fill="white"/>
<path d="M558.693 51.2884C559.688 52.1474 561.181 52.1474 562.176 51.7179C563.171 50.859 563.171 49.5705 562.673 48.7115C561.678 47.8526 560.186 47.8527 559.191 48.2821C557.698 49.1411 557.698 50.4294 558.693 51.2884Z" fill="white"/>
<path d="M576.447 61.2884C577.268 62.1474 578.499 62.1474 579.32 61.7179C580.141 60.8589 580.141 59.5706 579.73 58.7116C578.91 57.8526 577.679 57.8526 576.858 58.2821C576.037 59.1411 575.627 60.4294 576.447 61.2884Z" fill="white"/>
<path d="M593.693 72.2885C594.688 73.1474 596.181 73.1473 597.176 72.7179C598.171 71.8589 598.171 70.5706 597.673 69.7116C596.678 68.8526 595.186 68.8526 594.191 69.2821C592.698 70.141 592.698 71.4295 593.693 72.2885Z" fill="white"/>
<path d="M611.282 83.2884C612.141 84.1474 613.429 84.1474 614.288 83.7179C615.147 82.859 615.147 81.5705 614.718 80.7116C613.859 79.8526 612.571 79.8526 611.712 80.2821C610.853 80.7116 610.853 82.4295 611.282 83.2884Z" fill="white"/>
<path d="M627.693 94.2884C628.688 95.1474 630.181 95.1474 631.176 94.7179C632.171 93.859 632.171 92.5705 631.673 91.7116C630.678 90.8526 629.186 90.8526 628.191 91.2821C626.698 92.141 626.699 93.4295 627.693 94.2884Z" fill="white"/>
<path d="M495.693 35.2884C496.688 36.1474 498.181 36.1474 499.176 35.7179C500.171 34.859 500.171 33.5705 499.673 32.7116C498.678 31.8526 497.186 31.8526 496.191 32.2821C494.698 33.141 494.698 34.4295 495.693 35.2884Z" fill="white"/>
<path d="M513.282 46.2884C514.141 47.1474 515.429 47.1474 516.288 46.7179C517.147 45.859 517.147 44.5705 516.718 43.7115C515.859 42.8526 514.571 42.8527 513.712 43.2821C512.853 44.1411 512.853 45.4294 513.282 46.2884Z" fill="white"/>
<path d="M530.447 57.2884C531.268 58.1474 532.499 58.1474 533.32 57.7179C534.141 56.859 534.141 55.5705 533.73 54.7115C532.91 53.8526 531.679 53.8527 530.858 54.2821C530.037 54.7116 529.627 56 530.447 57.2884Z" fill="white"/>
<path d="M547.693 68.2884C548.688 69.1474 550.181 69.1474 551.176 68.7179C552.171 67.8589 552.171 66.5706 551.673 65.7116C550.678 64.8526 549.186 64.8526 548.191 65.2821C546.698 65.7116 546.698 67.4294 547.693 68.2884Z" fill="white"/>
<path d="M565.447 79.2885C566.268 80.1474 567.499 80.1473 568.32 79.7179C569.141 78.8589 569.141 77.5706 568.73 76.7116C567.91 75.8526 566.678 75.8526 565.858 76.2821C565.037 77.141 564.627 78.4295 565.447 79.2885Z" fill="white"/>
<path d="M582.693 90.2884C583.688 91.1474 585.181 91.1474 586.176 90.7179C587.171 89.859 587.171 88.5705 586.673 87.7116C585.678 86.8526 584.186 86.8526 583.191 87.2821C581.698 88.141 581.698 89.4295 582.693 90.2884Z" fill="white"/>
<path d="M467.282 42.2884C468.141 43.1474 469.43 43.1474 470.288 42.7179C471.147 41.859 471.147 40.5705 470.718 39.7116C469.859 38.8526 468.571 38.8526 467.712 39.2821C466.853 40.141 466.853 41.4295 467.282 42.2884Z" fill="white"/>
<path d="M484.693 53.2884C485.688 54.1474 487.181 54.1474 488.176 53.7179C489.171 53.2884 489.171 51.5705 488.673 50.7115C487.678 49.8526 486.186 49.8527 485.191 50.2821C483.698 51.1411 483.698 52.4294 484.693 53.2884Z" fill="white"/>
<path d="M502.282 64.2884C503.141 65.1474 504.429 65.1474 505.288 64.7179C506.147 63.8589 506.147 62.5706 505.718 61.7116C504.859 60.8526 503.57 60.8526 502.712 61.2821C501.853 62.1411 501.853 63.4294 502.282 64.2884Z" fill="white"/>
<path d="M520.447 74.2885C521.268 75.1474 522.499 75.1473 523.32 74.7179C524.141 73.8589 524.141 72.5706 523.73 71.7116C522.91 70.8526 521.679 70.8526 520.858 71.2821C520.037 72.141 519.627 73.4295 520.447 74.2885Z" fill="white"/>
<path d="M537.447 85.2884C538.268 86.1474 539.499 86.1474 540.32 85.7179C541.141 84.859 541.141 83.5705 540.73 82.7116C539.91 81.8526 538.679 81.8526 537.858 82.2821C537.037 82.7116 536.627 84.4295 537.447 85.2884Z" fill="white"/>
<path d="M554.447 96.2884C555.268 97.1474 556.499 97.1474 557.32 96.7179C558.141 95.859 558.141 94.5705 557.73 93.7116C556.91 92.8526 555.679 92.8526 554.858 93.2821C554.037 93.7116 553.627 95.4295 554.447 96.2884Z" fill="white"/>
<path d="M456.447 60.2884C457.268 61.1474 458.499 61.1474 459.32 60.7179C460.141 59.859 460.141 58.5705 459.73 57.7115C458.91 56.8526 457.679 56.8527 456.858 57.2821C456.037 57.7116 455.627 59 456.447 60.2884Z" fill="white"/>
<path d="M474.447 70.2884C475.268 71.1474 476.499 71.1474 477.32 70.7179C478.141 69.8589 478.141 68.5706 477.73 67.7116C476.91 66.8526 475.679 66.8526 474.858 67.2821C474.037 67.7116 473.627 69.4294 474.447 70.2884Z" fill="white"/>
<path d="M491.282 81.2885C492.141 82.1474 493.429 82.1473 494.288 81.7179C495.147 81.2884 495.147 79.5706 494.718 78.7116C493.859 77.8526 492.571 77.8526 491.712 78.2821C490.853 79.141 490.853 80.4295 491.282 81.2885Z" fill="white"/>
<path d="M508.693 92.2884C509.688 93.1474 511.181 93.1474 512.176 92.7179C513.171 91.859 513.171 90.5705 512.673 89.7116C511.678 88.8526 510.186 88.8526 509.191 89.2821C507.698 90.141 507.699 91.4295 508.693 92.2884Z" fill="white"/>
<path d="M446.447 77.2885C447.268 78.1474 448.499 78.1473 449.32 77.7179C450.141 76.8589 450.141 75.5706 449.73 74.7116C448.91 73.8526 447.678 73.8526 446.858 74.2821C446.037 75.141 445.627 76.4295 446.447 77.2885Z" fill="white"/>
<path d="M462.693 88.2884C463.688 89.1474 465.181 89.1474 466.176 88.7179C467.171 87.859 467.171 86.5705 466.673 85.7116C465.678 84.8526 464.186 84.8526 463.191 85.2821C461.698 86.141 461.698 87.4295 462.693 88.2884Z" fill="white"/>
<path d="M480.282 98.2884C481.141 99.1474 482.429 99.1474 483.288 98.7179C484.147 97.859 484.147 96.5705 483.718 95.7116C482.859 94.8526 481.571 94.8526 480.712 95.2821C479.853 95.7116 479.853 97.4295 480.282 98.2884Z" fill="white"/>
<path d="M417.693 84.2885C418.688 85.1474 420.181 85.1473 421.176 84.7179C422.171 84.2884 422.171 82.5706 421.673 81.7116C420.678 80.8526 419.186 80.8526 418.191 81.2821C416.698 82.141 416.698 83.4295 417.693 84.2885Z" fill="white"/>
<path d="M435.447 94.2884C436.268 95.1474 437.499 95.1474 438.32 94.7179C439.141 93.859 439.141 92.5705 438.73 91.7116C437.91 90.8526 436.679 90.8526 435.858 91.2821C435.037 92.141 434.627 93.4295 435.447 94.2884Z" fill="white"/>
</g>
</g>
</svg>
