<svg width="710" height="398" viewBox="0 0 710 398" fill="none" xmlns="http://www.w3.org/2000/svg">
<path d="M336.842 243.627C336.842 256.63 343.577 269.162 352.363 280.478C360.638 291.135 370.948 300.978 379.743 309.376C380.308 309.916 380.868 310.45 381.42 310.977C386.015 315.371 390.089 319.317 393.191 322.782C396.355 326.315 398.252 329.079 398.826 331.108C399.094 332.056 399.019 332.662 398.826 333.081C398.629 333.509 398.165 334.052 397.053 334.591C394.729 335.717 390.37 336.442 383.122 336.442C376.278 336.442 365.11 336.773 350.811 337.197C303.928 338.588 223.389 340.978 151.255 335.961C104.162 332.686 60.9666 326.266 33.19 314.484C19.2818 308.585 9.57811 301.48 5.00653 293.076C0.529328 284.845 0.754646 274.935 7.71663 262.74C36.1342 212.963 81.5277 193.202 127.287 185.898C160.967 180.522 194.561 181.914 221.681 183.038C231.536 183.447 240.535 183.82 248.374 183.82C277.43 183.82 299.556 186.958 314.392 195.937C328.985 204.769 336.842 219.466 336.842 243.627Z" stroke="#F39681" stroke-width="4"/>
<path d="M366.842 224.627C366.842 237.294 373.411 249.606 382.153 260.865C390.38 271.461 400.639 281.256 409.445 289.663C410.006 290.199 410.562 290.73 411.111 291.255C415.701 295.644 419.804 299.616 422.936 303.115C426.1 306.648 428.145 309.562 428.788 311.836C429.1 312.939 429.056 313.803 428.734 314.5C428.411 315.201 427.737 315.886 426.489 316.491C423.943 317.724 419.382 318.442 412.122 318.442C405.309 318.442 394.173 318.772 379.904 319.196C333.038 320.586 252.381 322.98 180.185 317.959C133.085 314.683 89.7425 308.257 61.7995 296.405C47.818 290.475 37.8613 283.255 33.1281 274.553C28.442 265.938 28.7647 255.652 35.8482 243.244C64.4669 193.115 110.19 173.244 156.129 165.91C189.918 160.517 223.682 161.916 250.82 163.041C260.644 163.448 269.599 163.82 277.374 163.82C306.448 163.82 328.82 166.949 343.91 176.082C358.878 185.141 366.842 200.215 366.842 224.627Z" stroke="#F39681" stroke-width="2"/>
<path d="M525.089 241.794C520.429 216.812 502.125 196.16 480.159 184.169C446.212 165.849 398.952 176.508 368.999 151.86C351.027 136.871 345.702 111.889 337.382 89.9051C327.065 62.5918 310.091 36.944 286.128 19.9565C267.158 6.29983 242.197 -1.69427 218.567 0.304258C203.258 1.63661 188.614 6.96597 176.633 17.6248C151.006 40.2748 147.345 77.2477 124.714 102.229C104.079 125.212 72.1291 124.213 46.5025 138.203C21.5415 151.526 5.89922 180.505 8.22891 208.818C13.2211 270.772 97.0902 295.088 146.347 308.078C188.614 319.07 232.213 327.397 270.819 347.716C292.785 359.374 312.753 375.029 334.386 387.686C362.01 404.008 404.61 403.675 415.926 366.702C415.926 366.702 415.926 366.702 415.926 366.369C419.919 352.712 429.238 341.387 442.218 335.725C450.871 331.727 459.524 328.063 467.845 324.066C479.826 318.404 491.142 311.076 500.793 302.083C519.764 289.425 529.082 264.444 525.089 241.794Z" fill="#3DCD90"/>
<path d="M405.596 54.0408C406.847 55.2913 408.722 55.2912 409.973 54.6659C411.223 53.4154 411.223 51.5398 410.598 50.2894C409.348 49.0389 407.472 49.0388 406.222 49.6641C404.346 50.2893 404.346 52.7903 405.596 54.0408Z" fill="#FFE9B9"/>
<path d="M429.357 69.0471C430.607 70.2975 432.483 70.2976 433.734 69.6723C434.984 68.4219 434.984 66.5461 434.359 65.2956C433.108 64.0451 431.233 64.0451 429.982 64.6703C428.732 65.9208 428.732 67.7966 429.357 69.0471Z" fill="#FFE9B9"/>
<path d="M453.729 84.0524C454.979 85.3029 456.855 85.3029 458.106 84.6777C459.356 83.4272 459.356 81.5514 458.731 80.301C457.48 79.0505 455.605 79.0504 454.354 79.6757C452.478 80.9262 452.478 82.8019 453.729 84.0524Z" fill="#FFE9B9"/>
<path d="M646.92 204.723C648.17 205.974 650.046 205.974 651.296 205.349C652.547 204.098 652.547 202.223 651.921 200.972C650.671 199.722 648.795 199.722 647.545 200.347C645.669 201.597 645.669 203.473 646.92 204.723Z" fill="#FFE9B9"/>
<path d="M670.681 219.729C671.932 220.979 673.807 220.979 675.058 220.354C676.308 219.103 676.308 217.228 675.683 215.977C674.433 214.727 672.557 214.727 671.306 215.352C670.056 215.977 669.431 218.478 670.681 219.729Z" fill="#FFE9B9"/>
<path d="M695.085 234.735C696.336 235.986 698.212 235.986 699.462 235.36C700.713 234.11 700.713 232.234 700.087 230.984C698.837 229.733 696.961 229.733 695.711 230.358C694.46 230.984 693.835 233.485 695.085 234.735Z" fill="#FFE9B9"/>
<path d="M342.432 47.7879C343.683 49.0384 345.558 49.0382 346.809 48.413C348.059 47.1625 348.059 45.2869 347.434 44.0364C346.184 42.7859 344.308 42.7859 343.057 43.4111C341.182 44.6616 341.182 46.5374 342.432 47.7879Z" fill="#FFE9B9"/>
<path d="M366.198 62.7951C367.448 64.0456 369.324 64.0456 370.574 63.4204C371.825 62.1699 371.825 60.2941 371.2 59.0436C369.949 57.7932 368.073 57.7931 366.823 58.4184C365.572 59.6688 364.947 61.5446 366.198 62.7951Z" fill="#FFE9B9"/>
<path d="M390.571 77.7995C391.821 79.05 393.697 79.05 394.947 78.4248C396.198 77.1743 396.198 75.2985 395.573 74.048C394.322 72.7975 392.446 72.7975 391.196 73.4227C389.32 74.6732 389.32 76.549 390.571 77.7995Z" fill="#FFE9B9"/>
<path d="M414.335 92.8049C415.586 94.0553 417.462 94.0554 418.712 93.4301C419.963 92.1797 419.963 90.3039 419.337 89.0534C418.087 87.8029 416.211 87.8031 414.961 88.4283C413.71 89.6788 413.71 91.5544 414.335 92.8049Z" fill="#FFE9B9"/>
<path d="M438.737 107.812C439.987 109.063 441.863 109.063 443.113 108.437C444.364 107.187 444.364 105.311 443.739 104.061C442.488 102.81 440.612 102.81 439.362 103.436C437.486 104.686 437.486 106.562 438.737 107.812Z" fill="#FFE9B9"/>
<path d="M462.474 123.443C463.725 124.693 465.6 124.693 466.851 124.068C468.101 122.817 468.101 120.942 467.476 119.691C466.226 118.441 464.35 118.441 463.099 119.066C461.849 119.691 461.849 122.192 462.474 123.443Z" fill="#FFE9B9"/>
<path d="M486.875 138.448C488.125 139.699 490.001 139.698 491.251 139.073C492.502 137.823 492.502 135.947 491.876 134.697C490.626 133.446 488.75 133.446 487.5 134.071C486.249 135.322 485.624 137.198 486.875 138.448Z" fill="#FFE9B9"/>
<path d="M511.253 153.454C512.504 154.705 514.38 154.705 515.63 154.08C516.881 152.829 516.881 150.953 516.255 149.703C515.005 148.452 513.129 148.452 511.879 149.078C510.003 150.328 510.003 152.204 511.253 153.454Z" fill="#FFE9B9"/>
<path d="M535.011 168.46C536.262 169.711 538.137 169.711 539.388 169.085C540.638 167.835 540.638 165.959 540.013 164.709C538.763 163.458 536.887 163.458 535.636 164.083C534.386 165.334 533.761 167.21 535.011 168.46Z" fill="#FFE9B9"/>
<path d="M559.386 183.465C560.637 184.715 562.512 184.715 563.763 184.09C565.013 182.839 565.013 180.964 564.388 179.713C563.138 178.463 561.262 178.463 560.011 179.088C558.761 179.713 558.136 182.214 559.386 183.465Z" fill="#FFE9B9"/>
<path d="M583.151 198.471C584.401 199.722 586.277 199.722 587.528 199.097C588.778 197.846 588.778 195.971 588.153 194.72C586.902 193.47 585.027 193.47 583.776 194.095C582.526 194.72 582.526 197.221 583.151 198.471Z" fill="#FFE9B9"/>
<path d="M607.549 213.477C608.8 214.727 610.675 214.727 611.926 214.102C613.176 213.477 613.176 210.976 612.551 209.725C611.301 208.475 609.425 208.475 608.174 209.1C606.299 210.351 606.299 212.226 607.549 213.477Z" fill="#FFE9B9"/>
<path d="M631.289 228.483C632.539 229.734 634.415 229.734 635.665 229.108C636.916 227.858 636.916 225.982 636.29 224.732C635.04 223.481 633.164 223.481 631.914 224.106C630.663 225.357 630.663 227.233 631.289 228.483Z" fill="#FFE9B9"/>
<path d="M655.691 243.488C656.941 244.738 658.817 244.738 660.068 244.113C661.318 242.863 661.318 240.987 660.693 239.737C659.442 238.486 657.567 238.486 656.316 239.111C655.066 240.362 654.441 242.237 655.691 243.488Z" fill="#FFE9B9"/>
<path d="M680.061 259.119C681.312 260.369 683.187 260.369 684.438 259.744C685.688 258.494 685.688 256.618 685.063 255.367C683.812 254.117 681.937 254.117 680.686 254.742C679.436 255.367 678.811 257.868 680.061 259.119Z" fill="#FFE9B9"/>
<path d="M703.828 274.124C705.078 275.375 706.954 275.375 708.204 274.749C709.455 273.499 709.455 271.623 708.83 270.373C707.579 269.122 705.703 269.122 704.453 269.748C703.202 270.373 702.577 272.874 703.828 274.124Z" fill="#FFE9B9"/>
<path d="M303.041 57.1668C304.291 58.4173 306.167 58.4171 307.417 57.7919C308.668 56.5414 308.668 54.6658 308.042 53.4153C306.792 52.1649 304.916 52.1648 303.666 52.7901C301.79 53.4153 301.79 55.9163 303.041 57.1668Z" fill="#FFE9B9"/>
<path d="M327.439 72.1735C328.69 73.424 330.565 73.424 331.816 72.7988C333.066 71.5483 333.066 69.6725 332.441 68.422C331.19 67.1716 329.315 67.1715 328.064 67.7968C326.189 69.0472 326.189 70.923 327.439 72.1735Z" fill="#FFE9B9"/>
<path d="M351.204 87.1784C352.454 88.4289 354.33 88.4289 355.58 87.8037C356.831 86.5532 356.831 84.6774 356.206 83.4269C354.955 82.1765 353.079 82.1764 351.829 82.8017C350.578 84.0521 349.953 85.9279 351.204 87.1784Z" fill="#FFE9B9"/>
<path d="M375.576 102.183C376.826 103.434 378.702 103.434 379.952 102.809C381.203 101.558 381.203 99.6823 380.578 98.4318C379.327 97.1813 377.451 97.1815 376.201 97.8067C374.325 99.0572 374.325 100.933 375.576 102.183Z" fill="#FFE9B9"/>
<path d="M399.342 117.191C400.593 118.441 402.468 118.441 403.719 117.816C404.969 116.565 404.969 114.69 404.344 113.439C403.094 112.189 401.218 112.189 399.968 112.814C398.717 114.065 398.092 115.94 399.342 117.191Z" fill="#FFE9B9"/>
<path d="M423.713 132.195C424.964 133.445 426.84 133.445 428.09 132.82C429.341 131.569 429.34 129.694 428.715 128.443C427.465 127.193 425.589 127.193 424.339 127.818C422.463 129.068 422.463 130.944 423.713 132.195Z" fill="#FFE9B9"/>
<path d="M447.479 147.202C448.729 148.452 450.605 148.452 451.856 147.827C453.106 146.577 453.106 144.701 452.481 143.45C451.23 142.2 449.355 142.2 448.104 142.825C446.854 143.45 446.854 145.951 447.479 147.202Z" fill="#FFE9B9"/>
<path d="M471.854 162.208C473.105 163.458 474.98 163.458 476.231 162.833C477.481 161.582 477.481 159.707 476.856 158.456C475.605 157.206 473.73 157.206 472.479 157.831C470.603 159.081 470.604 160.957 471.854 162.208Z" fill="#FFE9B9"/>
<path d="M496.254 177.213C497.504 178.463 499.38 178.463 500.63 177.838C501.881 177.213 501.881 174.712 501.255 173.461C500.005 172.211 498.129 172.211 496.879 172.836C495.003 174.087 495.003 175.962 496.254 177.213Z" fill="#FFE9B9"/>
<path d="M520.018 192.844C521.268 194.094 523.144 194.094 524.395 193.469C525.645 192.219 525.645 190.343 525.02 189.092C523.77 187.842 521.894 187.842 520.643 188.467C519.393 189.093 518.767 191.593 520.018 192.844Z" fill="#FFE9B9"/>
<path d="M544.393 207.85C545.643 209.1 547.519 209.1 548.77 208.475C550.02 207.225 550.02 205.349 549.395 204.099C548.145 202.848 546.269 202.848 545.018 203.473C543.143 204.724 543.142 206.599 544.393 207.85Z" fill="#FFE9B9"/>
<path d="M568.157 222.855C569.407 224.106 571.283 224.106 572.533 223.48C573.784 222.23 573.784 220.354 573.159 219.104C571.908 217.853 570.033 217.853 568.782 218.479C567.532 219.104 567.532 221.605 568.157 222.855Z" fill="#FFE9B9"/>
<path d="M592.53 237.862C593.78 239.112 595.656 239.113 596.907 238.487C598.157 237.237 598.157 235.361 597.532 234.111C596.281 232.86 594.406 232.86 593.155 233.485C591.905 234.11 591.279 236.612 592.53 237.862Z" fill="#FFE9B9"/>
<path d="M616.296 252.866C617.547 254.117 619.423 254.117 620.673 253.492C621.924 252.241 621.924 250.365 621.298 249.115C620.048 247.864 618.172 247.864 616.922 248.49C615.671 249.74 615.671 251.616 616.296 252.866Z" fill="#FFE9B9"/>
<path d="M640.667 267.872C641.917 269.122 643.793 269.122 645.043 268.497C646.294 267.247 646.294 265.371 645.668 264.12C644.418 262.87 642.542 262.87 641.292 263.495C639.416 264.746 639.416 266.621 640.667 267.872Z" fill="#FFE9B9"/>
<path d="M665.07 282.879C666.32 284.129 668.196 284.129 669.446 283.504C670.697 282.253 670.697 280.378 670.072 279.127C668.821 277.877 666.946 277.877 665.695 278.502C663.819 279.753 663.819 281.628 665.07 282.879Z" fill="#FFE9B9"/>
<path d="M688.832 297.884C690.083 299.134 691.959 299.134 693.209 298.509C694.46 297.258 694.46 295.383 693.834 294.132C692.584 292.882 690.708 292.882 689.458 293.507C688.207 294.757 687.582 296.633 688.832 297.884Z" fill="#FFE9B9"/>
<path d="M288.042 80.926C289.293 82.1764 291.169 82.1765 292.419 81.5512C293.67 80.3008 293.67 78.425 293.044 77.1745C291.794 75.924 289.918 75.924 288.668 76.5492C286.792 77.7997 286.792 79.6755 288.042 80.926Z" fill="#FFE9B9"/>
<path d="M311.808 95.9313C313.059 97.1818 314.934 97.1818 316.185 96.5566C317.435 95.3061 317.435 93.4303 316.81 92.1799C315.56 90.9294 313.684 90.9295 312.433 91.5548C311.183 92.8053 311.183 94.6809 311.808 95.9313Z" fill="#FFE9B9"/>
<path d="M336.182 111.562C337.433 112.812 339.308 112.812 340.559 112.187C341.809 110.937 341.809 109.061 341.184 107.81C339.934 106.56 338.058 106.56 336.807 107.185C335.557 107.81 334.932 109.686 336.182 111.562Z" fill="#FFE9B9"/>
<path d="M360.58 126.569C361.831 127.82 363.707 127.82 364.957 127.194C366.208 125.944 366.208 124.068 365.582 122.818C364.332 121.567 362.456 121.567 361.206 122.192C359.33 122.818 359.33 125.319 360.58 126.569Z" fill="#FFE9B9"/>
<path d="M384.32 141.574C385.57 142.825 387.446 142.824 388.696 142.199C389.947 140.949 389.947 139.073 389.322 137.823C388.071 136.572 386.195 136.572 384.945 137.197C383.695 138.448 383.069 140.324 384.32 141.574Z" fill="#FFE9B9"/>
<path d="M408.722 156.58C409.973 157.831 411.848 157.831 413.099 157.206C414.349 155.955 414.349 154.079 413.724 152.829C412.474 151.578 410.598 151.578 409.348 152.204C407.472 153.454 407.472 155.33 408.722 156.58Z" fill="#FFE9B9"/>
<path d="M432.484 171.586C433.734 172.836 435.61 172.836 436.861 172.211C438.111 170.96 438.111 169.085 437.486 167.834C436.235 166.584 434.36 166.584 433.109 167.209C431.859 168.459 431.859 170.335 432.484 171.586Z" fill="#FFE9B9"/>
<path d="M456.859 186.591C458.109 187.841 459.985 187.842 461.236 187.216C462.486 185.966 462.486 184.09 461.861 182.84C460.61 181.589 458.735 181.589 457.484 182.214C456.234 182.84 455.608 185.341 456.859 186.591Z" fill="#FFE9B9"/>
<path d="M480.62 201.597C481.87 202.848 483.746 202.848 484.996 202.223C486.247 200.972 486.247 199.097 485.622 197.846C484.371 196.596 482.495 196.596 481.245 197.221C479.995 197.846 479.994 200.347 480.62 201.597Z" fill="#FFE9B9"/>
<path d="M504.995 216.603C506.245 217.853 508.121 217.853 509.371 217.228C510.622 216.603 510.622 214.102 509.996 212.851C508.746 211.601 506.87 211.601 505.62 212.226C504.369 213.477 503.744 215.352 504.995 216.603Z" fill="#FFE9B9"/>
<path d="M529.394 231.61C530.644 232.861 532.52 232.861 533.771 232.235C535.021 230.985 535.021 229.109 534.396 227.859C533.145 226.608 531.27 226.608 530.019 227.233C528.143 228.484 528.143 230.36 529.394 231.61Z" fill="#FFE9B9"/>
<path d="M553.136 247.24C554.387 248.49 556.262 248.49 557.513 247.865C558.763 246.615 558.763 244.739 558.138 243.488C556.888 242.238 555.012 242.238 553.761 242.863C552.511 243.488 551.886 245.364 553.136 247.24Z" fill="#FFE9B9"/>
<path d="M577.537 262.245C578.787 263.496 580.663 263.496 581.913 262.871C583.164 261.62 583.164 259.744 582.539 258.494C581.288 257.243 579.412 257.243 578.162 257.869C576.286 258.494 576.286 260.995 577.537 262.245Z" fill="#FFE9B9"/>
<path d="M601.296 277.251C602.547 278.501 604.423 278.501 605.673 277.876C606.924 276.625 606.924 274.75 606.298 273.499C605.048 272.249 603.172 272.249 601.922 272.874C600.671 273.499 600.671 276 601.296 277.251Z" fill="#FFE9B9"/>
<path d="M625.676 292.257C626.927 293.507 628.802 293.508 630.053 292.882C631.303 292.257 631.303 289.756 630.678 288.506C629.428 287.255 627.552 287.255 626.301 287.88C624.426 289.131 624.426 291.007 625.676 292.257Z" fill="#FFE9B9"/>
<path d="M649.44 307.262C650.691 308.512 652.566 308.512 653.817 307.887C655.067 307.262 655.067 304.761 654.442 303.511C653.817 302.26 651.316 302.26 650.065 302.885C648.815 304.136 648.815 306.012 649.44 307.262Z" fill="#FFE9B9"/>
<path d="M248.648 90.3044C249.898 91.5549 251.774 91.5549 253.025 90.9297C254.275 89.6792 254.275 87.8034 253.65 86.5529C252.399 85.3024 250.524 85.3024 249.273 85.9276C248.023 87.1781 248.023 89.0539 248.648 90.3044Z" fill="#FFE9B9"/>
<path d="M273.047 105.31C274.298 106.561 276.174 106.561 277.424 105.936C278.674 105.31 278.675 102.809 278.049 101.559C276.799 100.308 274.923 100.308 273.673 100.934C271.797 102.184 271.797 104.06 273.047 105.31Z" fill="#FFE9B9"/>
<path d="M296.788 120.317C298.038 121.568 299.914 121.568 301.164 120.942C302.415 119.692 302.415 117.816 301.79 116.566C300.539 115.315 298.663 115.315 297.413 115.941C296.162 117.191 296.162 119.067 296.788 120.317Z" fill="#FFE9B9"/>
<path d="M321.189 135.322C322.44 136.572 324.315 136.572 325.566 135.947C326.816 134.696 326.816 132.821 326.191 131.57C324.94 130.32 323.065 130.32 321.814 130.945C320.564 132.195 319.939 134.071 321.189 135.322Z" fill="#FFE9B9"/>
<path d="M345.56 150.328C346.811 151.579 348.686 151.579 349.937 150.954C351.187 149.703 351.187 147.827 350.562 146.577C349.311 145.326 347.436 145.326 346.185 145.952C344.935 146.577 344.31 149.078 345.56 150.328Z" fill="#FFE9B9"/>
<path d="M369.325 165.333C370.575 166.584 372.451 166.584 373.701 165.958C374.952 164.708 374.952 162.832 374.327 161.582C373.076 160.331 371.2 160.331 369.95 160.956C368.699 161.582 368.074 164.083 369.325 165.333Z" fill="#FFE9B9"/>
<path d="M393.7 180.964C394.95 182.215 396.826 182.215 398.076 181.589C399.327 180.964 399.327 178.463 398.702 177.213C397.451 175.962 395.575 175.962 394.325 176.587C392.449 177.213 392.449 179.088 393.7 180.964Z" fill="#FFE9B9"/>
<path d="M417.463 195.969C418.714 197.219 420.59 197.219 421.84 196.594C423.091 195.344 423.09 193.468 422.465 192.217C421.215 190.967 419.339 190.967 418.089 191.592C416.838 192.218 416.838 194.718 417.463 195.969Z" fill="#FFE9B9"/>
<path d="M441.864 210.976C443.114 212.227 444.99 212.227 446.24 211.602C447.491 210.351 447.491 208.475 446.866 207.225C446.24 205.974 443.739 205.974 442.489 206.6C440.613 207.85 440.613 209.726 441.864 210.976Z" fill="#FFE9B9"/>
<path d="M465.603 225.981C466.854 227.232 468.729 227.232 469.98 226.606C471.23 225.356 471.23 223.48 470.605 222.23C469.354 220.979 467.479 220.979 466.228 221.605C464.978 222.855 464.978 224.731 465.603 225.981Z" fill="#FFE9B9"/>
<path d="M490.001 240.987C491.251 242.238 493.127 242.238 494.377 241.613C495.628 240.362 495.628 238.486 495.002 237.236C493.752 235.986 491.876 235.985 490.626 236.611C489.375 237.236 488.75 239.737 490.001 240.987Z" fill="#FFE9B9"/>
<path d="M514.376 255.992C515.626 257.243 517.502 257.243 518.752 256.618C520.003 255.992 520.003 253.491 519.377 252.241C518.127 250.99 516.251 250.99 515.001 251.616C513.125 252.866 513.125 254.742 514.376 255.992Z" fill="#FFE9B9"/>
<path d="M538.141 270.999C539.391 272.249 541.267 272.249 542.518 271.624C543.768 270.999 543.768 268.498 543.143 267.247C541.893 265.997 540.017 265.997 538.766 266.622C537.516 267.873 536.891 269.748 538.141 270.999Z" fill="#FFE9B9"/>
<path d="M562.516 286.005C563.767 287.255 565.642 287.255 566.893 286.63C568.143 285.379 568.143 283.504 567.518 282.253C566.268 281.003 564.392 281.003 563.141 281.628C561.266 282.878 561.266 284.754 562.516 286.005Z" fill="#FFE9B9"/>
<path d="M586.278 301.01C587.528 302.261 589.404 302.26 590.655 301.635C591.905 300.385 591.905 298.509 591.28 297.259C590.029 296.008 588.154 296.008 586.903 296.633C585.653 297.884 585.653 299.76 586.278 301.01Z" fill="#FFE9B9"/>
<path d="M610.677 316.641C611.928 317.892 613.803 317.892 615.054 317.266C616.304 316.016 616.304 314.14 615.679 312.89C614.429 311.639 612.553 311.639 611.302 312.265C609.427 312.89 609.427 314.766 610.677 316.641Z" fill="#FFE9B9"/>
<path d="M233.656 114.689C234.906 115.939 236.782 115.939 238.032 115.314C239.283 114.063 239.283 112.188 238.658 110.937C237.407 109.687 235.532 109.687 234.281 110.312C233.031 110.937 232.405 112.813 233.656 114.689Z" fill="#FFE9B9"/>
<path d="M258.027 129.695C259.277 130.946 261.153 130.946 262.404 130.321C263.654 129.07 263.654 127.195 263.029 125.944C261.778 124.694 259.903 124.694 258.652 125.319C257.402 125.944 256.776 128.445 258.027 129.695Z" fill="#FFE9B9"/>
<path d="M281.789 144.7C283.04 145.951 284.916 145.951 286.166 145.326C287.417 144.7 287.417 142.2 286.791 140.949C285.541 139.699 283.665 139.699 282.415 140.324C281.164 141.574 281.164 143.45 281.789 144.7Z" fill="#FFE9B9"/>
<path d="M306.168 159.707C307.418 160.957 309.294 160.957 310.544 160.332C311.795 159.082 311.795 157.206 311.169 155.955C309.919 154.705 308.043 154.705 306.793 155.33C304.917 156.58 304.917 158.456 306.168 159.707Z" fill="#FFE9B9"/>
<path d="M330.563 174.712C331.814 175.963 333.689 175.963 334.94 175.337C336.19 174.087 336.19 172.211 335.565 170.961C334.314 169.71 332.439 169.71 331.188 170.335C329.313 171.586 329.313 173.462 330.563 174.712Z" fill="#FFE9B9"/>
<path d="M354.329 189.716C355.58 190.967 357.456 190.967 358.706 190.342C359.957 189.091 359.957 187.215 359.332 185.965C358.081 184.715 356.205 184.715 354.955 185.34C353.704 186.59 353.079 188.466 354.329 189.716Z" fill="#FFE9B9"/>
<path d="M378.703 204.723C379.953 205.974 381.829 205.974 383.079 205.349C384.33 204.098 384.33 202.223 383.705 200.972C382.454 199.722 380.578 199.722 379.328 200.347C378.077 200.972 377.452 203.473 378.703 204.723Z" fill="#FFE9B9"/>
<path d="M402.466 219.729C403.717 220.979 405.592 220.979 406.843 220.354C408.093 219.729 408.093 217.228 407.468 215.977C406.218 214.727 404.342 214.727 403.092 215.352C401.841 216.603 401.216 218.478 402.466 219.729Z" fill="#FFE9B9"/>
<path d="M426.843 234.735C428.094 235.986 429.97 235.986 431.22 235.36C432.471 234.735 432.47 232.234 431.845 230.984C430.595 229.733 428.719 229.733 427.469 230.358C425.593 231.609 425.593 233.485 426.843 234.735Z" fill="#FFE9B9"/>
<path d="M450.61 250.366C451.86 251.616 453.736 251.616 454.987 250.991C456.237 249.741 456.237 247.865 455.612 246.614C454.361 245.364 452.486 245.364 451.235 245.989C449.985 246.614 449.985 248.49 450.61 250.366Z" fill="#FFE9B9"/>
<path d="M474.982 265.372C476.232 266.622 478.108 266.622 479.359 265.997C480.609 264.747 480.609 262.871 479.984 261.62C478.733 260.37 476.858 260.37 475.607 260.995C473.731 261.62 473.732 264.121 474.982 265.372Z" fill="#FFE9B9"/>
<path d="M499.38 280.377C500.631 281.628 502.507 281.628 503.757 281.002C505.007 279.752 505.008 277.876 504.382 276.626C503.132 275.375 501.256 275.375 500.006 276.001C498.13 277.251 498.13 279.127 499.38 280.377Z" fill="#FFE9B9"/>
<path d="M523.146 295.383C524.396 296.633 526.272 296.634 527.523 296.008C528.773 294.758 528.773 292.882 528.148 291.632C526.897 290.381 525.022 290.381 523.771 291.006C522.521 292.257 521.895 294.133 523.146 295.383Z" fill="#FFE9B9"/>
<path d="M547.517 310.389C548.767 311.639 550.643 311.639 551.894 311.014C553.144 310.389 553.144 307.888 552.519 306.637C551.269 305.387 549.393 305.387 548.142 306.012C546.267 307.263 546.267 309.138 547.517 310.389Z" fill="#FFE9B9"/>
<path d="M571.281 325.396C572.531 326.646 574.407 326.646 575.657 326.021C576.908 324.77 576.908 322.895 576.283 321.644C575.032 320.394 573.157 320.394 571.906 321.019C570.656 322.269 570.656 324.145 571.281 325.396Z" fill="#FFE9B9"/>
<path d="M595.656 340.4C596.906 341.651 598.782 341.651 600.033 341.025C601.283 339.775 601.283 337.899 600.658 336.649C599.407 335.398 597.532 335.398 596.281 336.023C594.405 337.274 594.405 339.15 595.656 340.4Z" fill="#FFE9B9"/>
<path d="M218.634 138.448C219.885 139.699 221.76 139.698 223.011 139.073C224.261 137.823 224.261 135.947 223.636 134.697C222.386 133.446 220.51 133.446 219.259 134.071C218.009 135.322 217.384 137.198 218.634 138.448Z" fill="#FFE9B9"/>
<path d="M243.032 153.455C244.282 154.706 246.158 154.706 247.408 154.081C248.659 152.83 248.659 150.954 248.034 149.704C246.783 148.453 244.908 148.453 243.657 149.079C241.781 150.329 241.781 152.205 243.032 153.455Z" fill="#FFE9B9"/>
<path d="M266.798 168.46C268.049 169.711 269.925 169.711 271.175 169.085C272.425 167.835 272.426 165.959 271.8 164.709C270.55 163.458 268.674 163.458 267.424 164.083C266.173 164.709 266.173 167.21 266.798 168.46Z" fill="#FFE9B9"/>
<path d="M291.169 184.091C292.42 185.341 294.296 185.341 295.546 184.716C296.797 183.465 296.797 181.59 296.171 180.339C294.921 179.089 293.045 179.089 291.795 179.714C289.919 180.339 289.919 182.215 291.169 184.091Z" fill="#FFE9B9"/>
<path d="M314.934 199.096C316.185 200.346 318.06 200.346 319.311 199.721C320.561 198.471 320.561 196.595 319.936 195.344C318.686 194.094 316.81 194.094 315.559 194.719C314.309 195.345 314.309 197.845 314.934 199.096Z" fill="#FFE9B9"/>
<path d="M339.309 214.102C340.56 215.353 342.435 215.353 343.686 214.728C344.936 213.477 344.936 211.601 344.311 210.351C343.06 209.1 341.185 209.1 339.934 209.726C338.684 210.976 338.059 212.852 339.309 214.102Z" fill="#FFE9B9"/>
<path d="M363.708 229.107C364.959 230.358 366.835 230.358 368.085 229.732C369.336 228.482 369.336 226.606 368.71 225.356C367.46 224.105 365.584 224.105 364.334 224.73C362.458 225.981 362.458 227.857 363.708 229.107Z" fill="#FFE9B9"/>
<path d="M387.446 244.113C388.696 245.364 390.572 245.364 391.822 244.739C393.073 243.488 393.073 241.612 392.448 240.362C391.197 239.112 389.321 239.111 388.071 239.737C386.82 240.362 386.195 242.863 387.446 244.113Z" fill="#FFE9B9"/>
<path d="M411.844 259.119C413.095 260.369 414.97 260.369 416.221 259.744C417.471 259.119 417.471 256.618 416.846 255.367C415.596 254.117 413.72 254.117 412.47 254.742C410.594 255.993 410.594 257.868 411.844 259.119Z" fill="#FFE9B9"/>
<path d="M435.607 274.124C436.857 275.375 438.733 275.375 439.984 274.749C441.234 274.124 441.234 271.623 440.609 270.373C439.358 269.122 437.483 269.122 436.232 269.748C434.982 270.998 434.982 272.874 435.607 274.124Z" fill="#FFE9B9"/>
<path d="M459.985 289.131C461.235 290.382 463.111 290.382 464.362 289.756C465.612 288.506 465.612 286.63 464.987 285.38C463.736 284.129 461.861 284.129 460.61 284.754C458.734 286.005 458.734 287.881 459.985 289.131Z" fill="#FFE9B9"/>
<path d="M483.748 304.136C484.998 305.386 486.874 305.386 488.124 304.761C489.375 303.51 489.375 301.635 488.749 300.384C487.499 299.134 485.623 299.134 484.373 299.759C483.122 301.009 483.122 302.885 483.748 304.136Z" fill="#FFE9B9"/>
<path d="M508.123 319.767C509.373 321.017 511.249 321.017 512.499 320.392C513.75 319.142 513.75 317.266 513.124 316.015C511.874 314.765 509.998 314.765 508.748 315.39C507.497 316.015 506.872 317.891 508.123 319.767Z" fill="#FFE9B9"/>
<path d="M532.524 334.774C533.774 336.025 535.65 336.025 536.901 335.399C538.151 334.149 538.151 332.273 537.526 331.023C536.275 329.772 534.4 329.772 533.149 330.397C531.273 331.023 531.273 333.524 532.524 334.774Z" fill="#FFE9B9"/>
<path d="M179.871 147.826C181.121 149.077 182.997 149.077 184.247 148.452C185.498 147.826 185.498 145.325 184.872 144.075C183.622 142.825 181.746 142.824 180.496 143.45C178.62 144.7 178.62 146.576 179.871 147.826Z" fill="#FFE9B9"/>
<path d="M203.637 162.833C204.888 164.084 206.763 164.084 208.014 163.458C209.264 162.208 209.264 160.332 208.639 159.082C207.389 157.831 205.513 157.831 204.262 158.456C203.012 159.707 202.387 161.583 203.637 162.833Z" fill="#FFE9B9"/>
<path d="M228.012 177.839C229.263 179.089 231.138 179.089 232.389 178.464C233.639 177.213 233.639 175.338 233.014 174.087C231.764 172.837 229.888 172.837 228.637 173.462C226.762 174.712 226.762 176.588 228.012 177.839Z" fill="#FFE9B9"/>
<path d="M251.774 192.843C253.024 194.094 254.9 194.094 256.151 193.469C257.401 192.218 257.401 190.342 256.776 189.092C255.525 187.841 253.65 187.842 252.399 188.467C251.149 189.717 251.149 191.593 251.774 192.843Z" fill="#FFE9B9"/>
<path d="M276.176 207.85C277.427 209.1 279.302 209.1 280.553 208.475C281.803 207.225 281.803 205.349 281.178 204.099C279.928 202.848 278.052 202.848 276.801 203.473C274.926 204.724 274.926 206.599 276.176 207.85Z" fill="#FFE9B9"/>
<path d="M299.911 222.855C301.161 224.106 303.037 224.106 304.287 223.48C305.538 222.855 305.538 220.354 304.913 219.104C303.662 217.853 301.786 217.853 300.536 218.479C299.285 219.729 299.285 221.605 299.911 222.855Z" fill="#FFE9B9"/>
<path d="M275.95 205.575C277.2 206.826 279.076 206.826 280.326 206.201C281.577 205.575 281.577 203.075 280.952 201.824C279.701 200.574 277.825 200.574 276.575 201.199C275.324 202.449 275.325 204.325 275.95 205.575Z" fill="#FFE9B9"/>
<path d="M324.311 237.862C325.562 239.112 327.437 239.113 328.688 238.487C329.938 237.862 329.938 235.361 329.313 234.111C328.062 232.86 326.187 232.86 324.936 233.485C323.686 234.736 323.061 236.612 324.311 237.862Z" fill="#FFE9B9"/>
<path d="M348.688 253.493C349.938 254.743 351.814 254.743 353.065 254.118C354.315 252.868 354.315 250.992 353.69 249.741C352.439 248.491 350.564 248.491 349.313 249.116C347.438 249.741 347.438 251.617 348.688 253.493Z" fill="#FFE9B9"/>
<path d="M372.45 268.498C373.7 269.749 375.576 269.749 376.826 269.124C378.077 267.873 378.077 265.997 377.452 264.747C376.201 263.496 374.325 263.496 373.075 264.121C371.824 264.747 371.199 267.248 372.45 268.498Z" fill="#FFE9B9"/>
<path d="M396.825 283.503C398.075 284.753 399.951 284.753 401.201 284.128C402.452 282.877 402.452 281.002 401.827 279.751C400.576 278.501 398.7 278.501 397.45 279.126C395.574 280.377 395.574 282.252 396.825 283.503Z" fill="#FFE9B9"/>
<path d="M420.591 298.509C421.842 299.76 423.718 299.76 424.968 299.135C426.219 297.884 426.218 296.009 425.593 294.758C424.343 293.508 422.467 293.508 421.217 294.133C419.966 295.383 419.966 297.259 420.591 298.509Z" fill="#FFE9B9"/>
<path d="M444.986 313.515C446.236 314.765 448.112 314.765 449.362 314.14C450.613 312.89 450.613 311.014 449.988 309.763C448.737 308.513 446.861 308.513 445.611 309.138C443.735 310.389 443.735 312.264 444.986 313.515Z" fill="#FFE9B9"/>
<path d="M468.727 328.521C469.978 329.772 471.853 329.772 473.104 329.146C474.354 327.896 474.354 326.02 473.729 324.77C472.478 323.519 470.603 323.519 469.352 324.144C468.102 325.395 468.102 327.271 468.727 328.521Z" fill="#FFE9B9"/>
<path d="M493.127 343.527C494.377 344.777 496.253 344.777 497.503 344.152C498.754 342.901 498.754 341.026 498.128 339.775C496.878 338.525 495.002 338.525 493.752 339.15C492.501 340.4 491.876 342.276 493.127 343.527Z" fill="#FFE9B9"/>
<path d="M213.016 202.222C214.266 203.473 216.142 203.473 217.393 202.848C218.643 202.222 218.643 199.721 218.018 198.471C216.768 197.22 214.892 197.221 213.641 197.846C211.766 198.471 211.766 200.972 213.016 202.222Z" fill="#FFE9B9"/>
<path d="M236.779 217.228C238.029 218.479 239.905 218.479 241.155 217.853C242.406 216.603 242.406 214.727 241.781 213.477C240.53 212.226 238.655 212.226 237.404 212.852C236.154 214.102 235.528 215.978 236.779 217.228Z" fill="#FFE9B9"/>
<path d="M261.153 232.234C262.403 233.485 264.279 233.485 265.53 232.859C266.78 231.609 266.78 229.733 266.155 228.483C264.904 227.232 263.029 227.232 261.778 227.857C259.902 229.108 259.902 230.984 261.153 232.234Z" fill="#FFE9B9"/>
<path d="M284.919 247.24C286.17 248.491 288.046 248.491 289.296 247.866C290.547 246.615 290.547 244.739 289.921 243.489C288.671 242.238 286.795 242.238 285.545 242.864C284.294 244.114 284.294 245.99 284.919 247.24Z" fill="#FFE9B9"/>
<path d="M309.29 262.245C310.54 263.496 312.416 263.496 313.666 262.871C314.917 261.62 314.917 259.744 314.291 258.494C313.041 257.243 311.165 257.243 309.915 257.869C308.039 259.119 308.039 260.995 309.29 262.245Z" fill="#FFE9B9"/>
<path d="M333.689 277.251C334.94 278.501 336.815 278.501 338.066 277.876C339.316 276.625 339.316 274.75 338.691 273.499C337.44 272.249 335.565 272.249 334.314 272.874C332.439 274.125 332.439 276 333.689 277.251Z" fill="#FFE9B9"/>
<path d="M357.454 292.257C358.704 293.507 360.58 293.508 361.83 292.882C363.081 291.632 363.081 289.756 362.456 288.506C361.205 287.255 359.329 287.255 358.079 287.88C356.828 289.131 356.203 291.007 357.454 292.257Z" fill="#FFE9B9"/>
<path d="M381.829 307.262C383.08 308.512 384.956 308.512 386.206 307.887C387.457 306.637 387.457 304.761 386.832 303.511C385.581 302.26 383.705 302.26 382.455 302.885C380.579 304.136 380.579 306.012 381.829 307.262Z" fill="#FFE9B9"/>
<path d="M405.596 322.894C406.847 324.144 408.722 324.144 409.973 323.519C411.223 322.268 411.223 320.393 410.598 319.142C409.348 317.892 407.472 317.892 406.222 318.517C404.971 319.142 404.346 321.018 405.596 322.894Z" fill="#FFE9B9"/>
<path d="M269.92 271.624C271.171 272.874 273.047 272.874 274.297 272.249C275.548 270.999 275.548 269.123 274.922 267.872C273.672 266.622 271.796 266.622 270.546 267.247C269.295 267.872 269.295 270.373 269.92 271.624Z" fill="#FFE9B9"/>
<path d="M294.297 286.629C295.548 287.88 297.424 287.88 298.674 287.254C299.924 286.004 299.925 284.128 299.299 282.878C298.049 281.627 296.173 281.627 294.923 282.253C293.047 283.503 293.047 285.379 294.297 286.629Z" fill="#FFE9B9"/>
<circle cx="63" cy="349" r="31" fill="#3DCD90"/>
</svg>
