<svg width="1200" height="72" viewBox="0 0 1200 72" fill="none" xmlns="http://www.w3.org/2000/svg">
<path d="M0 0H1200V70.5C1106 21 1033 35 930 58.5C827 82 660 46.5 489.5 58.5C319 70.5 310.5 58.5 258 45.5C205.5 32.5 0 72 0 72V0Z" fill="#6332CD"/>
<mask id="mask0" mask-type="alpha" maskUnits="userSpaceOnUse" x="0" y="0" width="1200" height="72">
<path d="M0 0H1200V70.5C1106 21 1033 35 930 58.5C827 82 660 46.5 489.5 58.5C319 70.5 310.5 58.5 258 45.5C205.5 32.5 0 72 0 72V0Z" fill="#6332CD"/>
</mask>
<g mask="url(#mask0)">
<path d="M142 38.5696C142 54.4136 138.272 71.0944 131.856 83.7813C125.409 96.5278 116.432 104.923 106.062 104.923C104.7 104.923 102.871 104.935 100.638 104.949C84.8709 105.049 48.966 105.278 15.1614 102.444C-4.14298 100.826 -22.695 98.2148 -36.3978 94.0355C-43.2548 91.9442 -48.8238 89.4816 -52.6592 86.6063C-56.4856 83.7377 -58.4732 80.5523 -58.4732 76.9862C-58.4732 69.5603 -59.9292 61.2242 -61.336 53.1696C-61.4633 52.4407 -61.5902 51.714 -61.7156 50.9905C-63.2391 42.2011 -64.531 33.916 -63.7809 27.3835C-63.408 24.1353 -62.5369 21.4009 -61.0009 19.2771C-59.4787 17.1725 -57.2518 15.5949 -54.0212 14.7336C-47.4729 12.9877 -36.8656 14.2015 -20.1296 20.0558C12.4056 31.4367 51.611 28.9117 83.2902 26.8714C84.4715 26.7953 85.6424 26.7199 86.8021 26.6459C102.998 25.6126 116.945 24.8601 126.842 26.3315C131.79 27.0671 135.593 28.3423 138.143 30.3101C140.636 32.2334 142 34.8691 142 38.5696Z" stroke="#FFE9B9" stroke-width="2"/>
<circle cx="442" cy="82" r="46" fill="#3DCD90"/>
<path d="M993.812 55.5924C994.682 60.6662 992.886 66.0614 988.662 71.5261C984.436 76.9917 977.844 82.4388 969.333 87.5446C952.317 97.7528 927.819 106.486 899.877 111.281C871.934 116.075 845.926 116.008 826.481 112.057C816.755 110.08 808.723 107.142 802.918 103.398C797.113 99.6542 793.621 95.1664 792.75 90.0926C791.88 85.0188 793.676 79.6237 797.9 74.1589C802.126 68.6933 808.718 63.2463 817.229 58.1404C834.245 47.9323 858.743 39.199 886.685 34.4043C914.628 29.6096 940.636 29.6767 960.081 33.6284C969.808 35.6049 977.839 38.5426 983.645 42.287C989.449 46.0309 992.941 50.5187 993.812 55.5924Z" stroke="#3DCD90" stroke-width="2"/>
<path d="M989.498 60.5886C990.274 65.1107 988.676 69.9308 984.89 74.8281C981.103 79.7263 975.19 84.6135 967.548 89.1981C952.27 98.3636 930.268 106.208 905.167 110.515C880.066 114.822 856.707 114.761 839.248 111.213C830.514 109.438 823.31 106.802 818.108 103.446C812.906 100.091 809.792 96.0796 809.016 91.5576C808.24 87.0355 809.838 82.2154 813.624 77.318C817.411 72.4198 823.324 67.5326 830.966 62.9481C846.244 53.7826 868.246 45.938 893.347 41.6308C918.448 37.3237 941.807 37.3849 959.266 40.933C967.999 42.7077 975.203 45.3442 980.406 48.6999C985.608 52.055 988.722 56.0665 989.498 60.5886Z" stroke="#3DCD90" stroke-width="2"/>
</g>
</svg>
