<svg width="320" height="48" viewBox="0 0 320 48" fill="none" xmlns="http://www.w3.org/2000/svg">
<mask id="mask0" mask-type="alpha" maskUnits="userSpaceOnUse" x="0" y="0" width="320" height="48">
<rect width="320" height="48" fill="#C4C4C4"/>
</mask>
<g mask="url(#mask0)">
<path d="M-233 0H563.408V47C501.023 14 452.575 23.3333 384.216 39C315.858 54.6667 205.024 31 91.8682 39C-21.2882 47 -26.9294 39 -61.7722 30.3333C-96.6151 21.6667 -233 48 -233 48V0Z" fill="#6332CD"/>
<mask id="mask1" mask-type="alpha" maskUnits="userSpaceOnUse" x="-233" y="0" width="800" height="49">
<path d="M-233 0.00195312H567V47.002C504.333 14.002 455.667 23.3353 387 39.002C318.333 54.6686 207 31.002 93.3333 39.002C-20.3333 47.002 -26 39.002 -61 30.3353C-96 21.6686 -233 48.002 -233 48.002V0.00195312Z" fill="#6332CD"/>
</mask>
<g mask="url(#mask1)">
<circle cx="61.6667" cy="54.6681" r="30.6667" fill="#3DCD90"/>
<path d="M369.212 37.1206C369.772 40.38 368.626 43.8841 365.844 47.4828C363.061 51.0824 358.703 54.6884 353.05 58.0798C341.75 64.8591 325.459 70.6699 306.861 73.8612C288.263 77.0525 270.967 77.0047 258.053 74.3804C251.593 73.0675 246.282 71.1205 242.459 68.6545C238.636 66.189 236.388 63.2673 235.828 60.008C235.269 56.7486 236.415 53.2445 239.197 49.6458C241.98 46.0462 246.337 42.4401 251.991 39.0487C263.291 32.2694 279.581 26.4586 298.18 23.2673C316.778 20.076 334.074 20.1238 346.988 22.7482C353.448 24.0611 358.759 26.0081 362.582 28.4741C366.405 30.9395 368.653 33.8612 369.212 37.1206Z" stroke="#3DCD90" stroke-width="2"/>
<path d="M366.337 40.4514C366.833 43.3429 365.819 46.4637 363.329 49.6841C360.839 52.9055 356.934 56.1383 351.86 59.1821C341.718 65.2663 327.092 70.4847 310.388 73.351C293.684 76.2172 278.154 76.1733 266.564 73.818C260.766 72.6397 256.007 70.8935 252.585 68.6867C249.165 66.4804 247.168 63.8761 246.672 60.9846C246.176 58.0931 247.19 54.9723 249.68 51.7518C252.17 48.5305 256.075 45.2977 261.148 42.2538C271.29 36.1696 285.917 30.9513 302.621 28.085C319.325 25.2188 334.854 25.2627 346.444 27.6179C352.242 28.7963 357.002 30.5424 360.423 32.7493C363.844 34.9556 365.84 37.5598 366.337 40.4514Z" stroke="#3DCD90" stroke-width="2"/>
</g>
</g>
</svg>
