<svg width="640" height="64" viewBox="0 0 640 64" fill="none" xmlns="http://www.w3.org/2000/svg">
<mask id="mask0" mask-type="alpha" maskUnits="userSpaceOnUse" x="0" y="0" width="640" height="64">
<rect width="640" height="64" fill="white"/>
</mask>
<g mask="url(#mask0)">
<path d="M-101 0H965.667V62.6667C882.111 18.6667 817.222 31.1111 725.667 52C634.111 72.8889 485.667 41.3333 334.111 52C182.556 62.6667 175 52 128.333 40.4444C81.6667 28.8889 -101 64 -101 64V0Z" fill="#6332CD"/>
<mask id="mask1" mask-type="alpha" maskUnits="userSpaceOnUse" x="-83" y="0" width="1067" height="64">
<path d="M-83 0H983.667V62.6667C900.111 18.6667 835.222 31.1111 743.667 52C652.111 72.8889 503.667 41.3333 352.111 52C200.556 62.6667 193 52 146.333 40.4444C99.6667 28.8889 -83 64 -83 64V0Z" fill="#6332CD"/>
</mask>
<g mask="url(#mask1)">
<path d="M73.1115 34.2832C73.1115 48.3515 69.801 63.1613 64.1062 74.4212C58.3812 85.7407 50.4301 93.1532 41.278 93.1532C40.0669 93.1532 38.4406 93.1635 36.4553 93.1761C22.4391 93.2652 -9.47063 93.468 -39.5135 90.9501C-56.6709 89.5121 -73.1521 87.1914 -85.3207 83.48C-91.4107 81.6226 -96.3469 79.4382 -99.7411 76.8936C-103.126 74.3557 -104.865 71.5535 -104.865 68.4313C-104.865 61.8203 -106.161 54.4008 -107.411 47.2436C-107.524 46.595 -107.637 45.9486 -107.748 45.3051C-109.103 37.4885 -110.248 30.1405 -109.583 24.3527C-109.253 21.4769 -108.483 19.0667 -107.133 17.1995C-105.796 15.3514 -103.839 13.9627 -100.99 13.203C-95.2039 11.6604 -85.8031 12.7284 -70.9292 17.9314C-41.9872 28.0554 -7.11765 25.8095 21.0356 23.9962C22.0883 23.9284 23.1317 23.8612 24.1649 23.7953C38.5656 22.8765 50.9491 22.209 59.7328 23.5149C64.1236 24.1676 67.4819 25.2973 69.7266 27.0294C71.9135 28.717 73.1115 31.0267 73.1115 34.2832Z" stroke="#FFE9B9" stroke-width="2"/>
<circle cx="309.889" cy="72.8889" r="40.8889" fill="#3DCD90"/>
<path d="M680.278 49.4345C681.045 53.9035 679.466 58.6683 675.722 63.511C671.978 68.3547 666.13 73.188 658.572 77.7224C643.461 86.7876 621.699 94.5467 596.871 98.8069C572.043 103.067 548.94 103.006 531.671 99.4972C523.034 97.7419 515.909 95.1345 510.764 91.8162C505.62 88.4985 502.543 84.5327 501.776 80.0637C501.009 75.5948 502.588 70.83 506.332 65.9872C510.077 61.1436 515.924 56.3102 523.483 51.7759C538.594 42.7107 560.355 34.9515 585.183 30.6913C610.011 26.4311 633.115 26.4918 650.383 30.001C659.021 31.7563 666.145 34.3638 671.29 37.6821C676.434 40.9998 679.512 44.9655 680.278 49.4345Z" stroke="#3DCD90" stroke-width="2"/>
<path d="M676.444 53.8749C677.126 57.8534 675.723 62.1071 672.369 66.4455C669.014 70.7847 663.771 75.1205 656.985 79.1914C643.419 87.3299 623.875 94.2991 601.573 98.1259C579.271 101.953 558.522 101.897 543.019 98.7468C535.264 97.1709 528.875 94.8312 524.266 91.8584C519.658 88.8863 516.917 85.3438 516.234 81.3653C515.551 77.3867 516.955 73.1331 520.309 68.7947C523.663 64.4554 528.907 60.1197 535.693 56.0487C549.259 47.9103 568.802 40.9411 591.104 37.1143C613.406 33.2874 634.155 33.3429 649.658 36.4934C657.413 38.0693 663.802 40.409 668.411 43.3817C673.02 46.3539 675.761 49.8963 676.444 53.8749Z" stroke="#3DCD90" stroke-width="2"/>
</g>
</g>
</svg>
