<svg width="1200" height="274" viewBox="0 0 1200 274" fill="none" xmlns="http://www.w3.org/2000/svg">
<g clip-path="url(#clip0)">
<path d="M0 84C0 84 272 103.499 468 103.5C664 103.501 767.5 84 965 103.5C1162.5 123 1200 84 1200 84V156H0V84Z" fill="#6332CD"/>
<path d="M68.0022 97.2033C69.2402 97.4159 70.2569 96.6374 70.6548 95.7526C70.7727 94.5021 69.9327 93.4048 69.0337 92.9328C67.7958 92.7202 66.7789 93.4986 66.381 94.3833C65.6442 95.5276 66.7643 96.9907 68.0022 97.2033Z" fill="white"/>
<path d="M86.3462 95.7668C87.6377 95.9383 88.7351 95.0982 89.1866 94.1724C89.3581 92.8809 88.5181 91.7835 87.5923 91.332C86.3007 91.1605 85.2033 92.0005 84.7518 92.9263C84.5803 94.2179 85.4204 95.3152 86.3462 95.7668Z" fill="white"/>
<path d="M106.725 93.6745C107.963 93.887 108.98 93.1086 109.378 92.2239C109.495 90.9734 108.655 89.876 107.756 89.404C106.518 89.1914 105.502 89.9698 105.104 90.8546C104.647 92.3645 105.487 93.4619 106.725 93.6745Z" fill="white"/>
<path d="M263.19 79.2569C264.428 79.4695 265.444 78.6911 265.842 77.8064C265.96 76.5559 265.12 75.4586 264.221 74.9865C262.983 74.7739 261.966 75.5524 261.568 76.4371C261.112 77.9471 261.952 79.0443 263.19 79.2569Z" fill="white"/>
<path d="M282.243 77.2787C283.502 77.4751 284.55 76.6723 284.969 75.7713C285.108 74.5047 284.268 73.4075 283.359 72.9435C282.1 72.7471 281.051 73.5497 280.632 74.4506C280.213 75.3515 280.984 77.0823 282.243 77.2787Z" fill="white"/>
<path d="M302.389 75.3631C303.648 75.5595 304.697 74.7568 305.116 73.8559C305.255 72.5892 304.415 71.4919 303.505 71.0279C302.246 70.8315 301.198 71.6342 300.779 72.5351C300.36 73.436 301.13 75.1667 302.389 75.3631Z" fill="white"/>
<path d="M30.76 120.311C31.998 120.524 33.0148 119.745 33.4127 118.86C33.5306 117.61 32.6905 116.513 31.7915 116.041C30.5535 115.828 29.5367 116.607 29.1389 117.491C28.682 119.001 29.5221 120.099 30.76 120.311Z" fill="white"/>
<path d="M49.8111 118.333C51.0702 118.529 52.1188 117.727 52.5378 116.826C52.6768 115.559 51.8367 114.462 50.9272 113.998C49.6681 113.801 48.6195 114.604 48.2005 115.505C48.0616 116.772 48.5521 118.136 49.8111 118.333Z" fill="white"/>
<path d="M69.4827 116.782C70.7206 116.994 71.7374 116.216 72.1353 115.331C72.2532 114.081 71.4132 112.983 70.5142 112.511C69.2762 112.299 68.2593 113.077 67.8614 113.962C67.4046 115.472 68.2448 116.569 69.4827 116.782Z" fill="white"/>
<path d="M88.395 114.912C89.6866 115.083 90.784 114.243 91.2355 113.317C91.407 112.026 90.5668 110.929 89.641 110.477C88.3494 110.305 87.2522 111.146 86.8007 112.071C86.6292 113.363 87.4692 114.46 88.395 114.912Z" fill="white"/>
<path d="M108.774 112.818C110.012 113.031 111.028 112.253 111.426 111.368C111.544 110.117 110.704 109.02 109.805 108.548C108.567 108.335 107.55 109.114 107.153 109.999C106.696 111.509 107.536 112.606 108.774 112.818Z" fill="white"/>
<path d="M127.553 111.95C128.845 112.121 129.942 111.281 130.394 110.356C130.565 109.064 129.725 107.967 128.799 107.515C127.508 107.344 126.41 108.184 125.959 109.109C125.507 110.035 126.627 111.498 127.553 111.95Z" fill="white"/>
<path d="M147.405 109.359C148.664 109.556 149.712 108.753 150.131 107.852C150.27 106.585 149.43 105.488 148.521 105.024C147.262 104.828 146.213 105.63 145.794 106.531C145.655 107.798 146.146 109.163 147.405 109.359Z" fill="white"/>
<path d="M167.076 107.809C168.314 108.022 169.331 107.243 169.729 106.359C169.847 105.108 169.007 104.011 168.108 103.539C166.87 103.326 165.853 104.105 165.455 104.989C164.998 106.499 165.838 107.597 167.076 107.809Z" fill="white"/>
<path d="M186.13 105.83C187.389 106.027 188.437 105.224 188.856 104.323C188.995 103.057 188.155 101.959 187.246 101.495C185.986 101.299 184.938 102.101 184.519 103.002C184.38 104.269 184.87 105.634 186.13 105.83Z" fill="white"/>
<path d="M206.276 103.916C207.535 104.112 208.584 103.31 209.003 102.409C209.142 101.142 208.302 100.045 207.392 99.5806C206.133 99.3842 205.084 100.187 204.665 101.088C204.246 101.989 205.017 103.719 206.276 103.916Z" fill="white"/>
<path d="M225.713 102.543C227.005 102.714 228.102 101.874 228.554 100.948C228.725 99.6567 227.885 98.5595 226.959 98.1079C225.668 97.9364 224.571 98.7764 224.119 99.7022C223.668 100.628 224.788 102.091 225.713 102.543Z" fill="white"/>
<path d="M245.09 100.317C246.328 100.529 247.345 99.7506 247.743 98.8659C248.141 97.9812 247.021 96.5181 246.122 96.0461C244.884 95.8335 243.867 96.6119 243.469 97.4966C243.012 99.0066 243.852 100.104 245.09 100.317Z" fill="white"/>
<path d="M264.438 99.0133C265.73 99.1848 266.827 98.3448 267.278 97.419C267.45 96.1275 266.61 95.0301 265.684 94.5786C264.392 94.4071 263.295 95.2471 262.844 96.173C262.672 97.4645 263.512 98.5618 264.438 99.0133Z" fill="white"/>
<path d="M284.29 96.4232C285.549 96.6195 286.597 95.8169 287.016 94.916C287.155 93.6493 286.315 92.5519 285.406 92.088C284.147 91.8916 283.098 92.6942 282.679 93.5952C282.54 94.8618 283.031 96.2268 284.29 96.4232Z" fill="white"/>
<path d="M303.87 94.9422C305.129 95.1386 306.177 94.3359 306.596 93.435C306.735 92.1683 305.895 91.071 304.986 90.607C303.727 90.4107 302.678 91.2133 302.259 92.1142C301.84 93.0151 302.611 94.7458 303.87 94.9422Z" fill="white"/>
<path d="M323.448 93.4617C324.707 93.6581 325.755 92.8554 326.174 91.9545C326.313 90.6879 325.473 89.5905 324.564 89.1265C323.305 88.9301 322.256 89.7329 321.837 90.6338C321.418 91.5347 322.189 93.2653 323.448 93.4617Z" fill="white"/>
<path d="M13.096 141.939C14.334 142.151 15.3507 141.373 15.7486 140.488C15.8664 139.237 15.0265 138.14 14.1275 137.668C12.8895 137.456 11.8726 138.234 11.4747 139.119C10.7379 140.263 11.8581 141.726 13.096 141.939Z" fill="white"/>
<path d="M32.2405 139.89C33.4784 140.102 34.4952 139.324 34.8931 138.439C35.011 137.189 34.171 136.091 33.272 135.619C32.034 135.407 31.0172 136.185 30.6193 137.07C30.1625 138.58 31.0025 139.677 32.2405 139.89Z" fill="white"/>
<path d="M51.7272 138.48C52.9862 138.676 54.0348 137.874 54.4538 136.973C54.5928 135.706 53.7527 134.609 52.8432 134.145C51.5841 133.948 50.5356 134.751 50.1166 135.652C49.9776 136.918 50.4681 138.283 51.7272 138.48Z" fill="white"/>
<path d="M71.5315 135.926C72.7694 136.139 73.7863 135.361 74.1842 134.476C74.302 133.225 73.4619 132.128 72.563 131.656C71.325 131.443 70.3082 132.222 69.9104 133.107C69.4536 134.617 70.2935 135.714 71.5315 135.926Z" fill="white"/>
<path d="M91.0182 134.516C92.2773 134.712 93.3258 133.91 93.7448 133.009C93.8838 131.742 93.0438 130.645 92.1342 130.181C90.8751 129.984 89.8266 130.787 89.4076 131.688C89.2686 132.955 89.7591 134.319 91.0182 134.516Z" fill="white"/>
<path d="M110.254 132.397C111.492 132.61 112.509 131.831 112.907 130.946C113.025 129.696 112.185 128.599 111.286 128.127C110.048 127.914 109.031 128.692 108.633 129.577C108.176 131.087 109.016 132.185 110.254 132.397Z" fill="white"/>
<path d="M129.602 131.095C130.894 131.266 131.991 130.426 132.442 129.501C132.614 128.209 131.774 127.112 130.848 126.66C129.557 126.489 128.459 127.329 128.008 128.254C127.556 129.18 128.676 130.643 129.602 131.095Z" fill="white"/>
<path d="M148.977 128.868C150.215 129.081 151.232 128.302 151.629 127.418C151.747 126.167 150.907 125.07 150.008 124.598C148.77 124.385 147.753 125.164 147.356 126.048C146.899 127.558 147.739 128.656 148.977 128.868Z" fill="white"/>
<path d="M169.125 126.953C170.363 127.166 171.38 126.387 171.778 125.503C172.176 124.618 171.056 123.155 170.157 122.683C168.919 122.47 167.902 123.249 167.504 124.133C167.047 125.643 167.887 126.741 169.125 126.953Z" fill="white"/>
<path d="M188.612 125.542C189.871 125.739 190.92 124.936 191.339 124.035C191.478 122.768 190.637 121.671 189.728 121.207C188.469 121.011 187.42 121.813 187.001 122.714C186.582 123.615 187.353 125.346 188.612 125.542Z" fill="white"/>
<path d="M208.283 123.992C209.521 124.205 210.538 123.426 210.936 122.542C211.054 121.291 210.214 120.194 209.315 119.722C208.077 119.509 207.06 120.288 206.662 121.172C206.205 122.682 207.045 123.78 208.283 123.992Z" fill="white"/>
<path d="M227.194 122.121C228.485 122.293 229.583 121.453 230.034 120.527C230.206 119.235 229.366 118.138 228.44 117.686C227.148 117.515 226.051 118.355 225.6 119.281C225.148 120.207 226.268 121.67 227.194 122.121Z" fill="white"/>
<path d="M247.483 120.099C248.742 120.295 249.791 119.493 250.21 118.592C250.349 117.325 249.509 116.228 248.599 115.764C247.34 115.567 246.291 116.37 245.872 117.271C245.453 118.172 246.224 119.903 247.483 120.099Z" fill="white"/>
<path d="M266.487 118.157C267.778 118.329 268.876 117.489 269.327 116.563C269.499 115.271 268.659 114.174 267.733 113.723C266.441 113.551 265.344 114.391 264.892 115.317C264.721 116.609 265.561 117.706 266.487 118.157Z" fill="white"/>
<path d="M286.297 116.5C287.535 116.712 288.552 115.934 288.95 115.049C289.068 113.799 288.228 112.701 287.329 112.229C286.091 112.017 285.074 112.795 284.676 113.68C284.219 115.19 285.059 116.287 286.297 116.5Z" fill="white"/>
<path d="M306.01 114.016C307.248 114.229 308.265 113.45 308.663 112.566C308.781 111.315 307.941 110.218 307.042 109.746C305.804 109.533 304.787 110.312 304.389 111.196C303.932 112.706 304.772 113.804 306.01 114.016Z" fill="white"/>
<path d="M325.497 112.606C326.756 112.803 327.804 112 328.223 111.099C328.362 109.832 327.522 108.735 326.613 108.271C325.354 108.075 324.305 108.877 323.886 109.778C323.747 111.045 324.238 112.41 325.497 112.606Z" fill="white"/>
<path d="M14.5764 161.518C15.8143 161.73 16.8312 160.952 17.2291 160.067C17.347 158.817 16.5069 157.719 15.6079 157.247C14.37 157.035 13.3531 157.813 12.9552 158.698C12.4984 160.208 13.3385 161.305 14.5764 161.518Z" fill="white"/>
<path d="M33.4887 159.647C34.7803 159.818 35.8776 158.978 36.3292 158.052C36.5007 156.761 35.6606 155.663 34.7348 155.212C33.4432 155.04 32.346 155.88 31.8945 156.806C31.7229 158.098 32.5629 159.195 33.4887 159.647Z" fill="white"/>
<path d="M53.776 157.624C55.0351 157.82 56.0837 157.018 56.5027 156.117C56.6416 154.85 55.8015 153.753 54.8919 153.289C53.6329 153.092 52.5844 153.895 52.1654 154.796C51.7464 155.697 52.2369 157.062 53.776 157.624Z" fill="white"/>
<path d="M73.4455 156.073C74.6835 156.285 75.7004 155.507 76.0982 154.622C76.2161 153.372 75.3761 152.274 74.4771 151.802C73.2392 151.59 72.2223 152.368 71.8244 153.253C71.0876 154.397 72.2076 155.86 73.4455 156.073Z" fill="white"/>
<path d="M92.4987 154.095C93.7578 154.291 94.8062 153.489 95.2252 152.588C95.3642 151.321 94.5242 150.224 93.6147 149.76C92.3556 149.563 91.307 150.366 90.888 151.267C90.749 152.534 91.2397 153.899 92.4987 154.095Z" fill="white"/>
<path d="M112.737 152.11C113.975 152.322 114.991 151.544 115.389 150.659C115.507 149.408 114.667 148.311 113.768 147.839C112.53 147.626 111.513 148.405 111.115 149.29C110.659 150.8 111.499 151.897 112.737 152.11Z" fill="white"/>
<path d="M132.084 150.807C133.376 150.978 134.473 150.138 134.925 149.212C135.096 147.921 134.256 146.824 133.331 146.372C132.039 146.201 130.942 147.041 130.49 147.966C130.319 149.258 131.159 150.355 132.084 150.807Z" fill="white"/>
<path d="M151.37 148.65C152.629 148.847 153.677 148.044 154.096 147.143C154.235 145.876 153.395 144.779 152.486 144.315C151.227 144.119 150.178 144.921 149.759 145.822C149.34 146.723 150.111 148.454 151.37 148.65Z" fill="white"/>
<path d="M170.807 147.278C172.099 147.449 173.196 146.609 173.648 145.684C173.819 144.392 172.979 143.295 172.053 142.843C170.762 142.672 169.664 143.512 169.213 144.438C168.761 145.363 169.881 146.826 170.807 147.278Z" fill="white"/>
<path d="M190.092 145.121C191.352 145.318 192.4 144.515 192.819 143.614C193.238 142.713 192.118 141.25 191.208 140.786C189.949 140.59 188.901 141.392 188.482 142.293C188.343 143.56 188.833 144.925 190.092 145.121Z" fill="white"/>
<path d="M210.33 143.136C211.568 143.349 212.585 142.571 212.983 141.686C213.101 140.435 212.261 139.338 211.362 138.866C210.124 138.653 209.107 139.432 208.709 140.316C208.252 141.826 209.092 142.924 210.33 143.136Z" fill="white"/>
<path d="M229.819 141.725C231.078 141.922 232.127 141.119 232.546 140.218C232.685 138.952 231.845 137.854 230.935 137.39C229.676 137.194 228.627 137.997 228.208 138.897C227.789 139.798 228.28 141.163 229.819 141.725Z" fill="white"/>
<path d="M249.055 139.608C250.293 139.82 251.31 139.042 251.708 138.157C251.825 136.906 250.985 135.809 250.086 135.337C248.849 135.125 247.832 135.903 247.434 136.788C246.697 137.932 247.817 139.395 249.055 139.608Z" fill="white"/>
<path d="M268.401 138.304C269.692 138.476 270.79 137.636 271.241 136.71C271.413 135.418 270.573 134.321 269.647 133.87C268.355 133.698 267.258 134.538 266.807 135.464C266.355 136.39 267.475 137.853 268.401 138.304Z" fill="white"/>
<path d="M288.346 135.644C289.584 135.856 290.601 135.078 290.999 134.193C291.396 133.308 290.276 131.845 289.377 131.373C288.14 131.161 287.123 131.939 286.725 132.824C286.268 134.334 287.108 135.431 288.346 135.644Z" fill="white"/>
<path d="M307.692 134.341C308.984 134.512 310.081 133.672 310.532 132.746C310.984 131.82 309.864 130.357 308.938 129.906C308.012 129.454 306.549 130.574 306.098 131.5C305.926 132.792 306.766 133.889 307.692 134.341Z" fill="white"/>
<path d="M-3.31985 183.322C-2.02828 183.494 -0.930891 182.654 -0.479354 181.728C-0.307831 180.436 -1.14799 179.339 -2.07379 178.888C-3.36537 178.716 -4.46265 179.556 -4.91418 180.482C-5.08571 181.774 -4.24565 182.871 -3.31985 183.322Z" fill="white"/>
<path d="M16.6252 180.662C17.8631 180.874 18.88 180.096 19.2779 179.211C19.6758 178.326 18.5557 176.863 17.6567 176.391C16.4188 176.179 15.402 176.957 15.0041 177.842C14.5473 179.352 15.3873 180.449 16.6252 180.662Z" fill="white"/>
<path d="M35.9712 179.359C37.2628 179.53 38.3601 178.69 38.8116 177.764C38.9831 176.473 38.1431 175.375 37.2173 174.924C35.9257 174.752 34.8283 175.592 34.3768 176.518C34.2053 177.81 35.0454 178.907 35.9712 179.359Z" fill="white"/>
<path d="M55.2565 177.203C56.5156 177.399 57.564 176.597 57.983 175.696C58.122 174.429 57.282 173.332 56.3725 172.868C55.1134 172.671 54.0649 173.474 53.6459 174.375C53.5069 175.642 53.9974 177.007 55.2565 177.203Z" fill="white"/>
<path d="M75.4029 175.288C76.662 175.484 77.7106 174.682 78.1296 173.781C78.2686 172.514 77.4285 171.417 76.5189 170.953C75.2599 170.756 74.2114 171.559 73.7924 172.46C73.3733 173.361 74.1439 175.092 75.4029 175.288Z" fill="white"/>
<path d="M94.5475 173.239C95.8065 173.435 96.8551 172.633 97.2741 171.732C97.4131 170.465 96.573 169.368 95.6635 168.904C94.4045 168.707 93.3559 169.51 92.9369 170.411C92.5179 171.312 93.2884 173.043 94.5475 173.239Z" fill="white"/>
<path d="M114.653 172.256C115.891 172.469 116.907 171.69 117.305 170.805C117.703 169.921 116.583 168.458 115.684 167.985C114.446 167.773 113.429 168.551 113.031 169.436C112.295 170.58 113.135 171.678 114.653 172.256Z" fill="white"/>
<path d="M133.565 170.386C134.856 170.557 135.954 169.717 136.405 168.792C136.577 167.5 135.737 166.403 134.811 165.951C133.519 165.78 132.422 166.62 131.971 167.546C131.519 168.471 132.639 169.934 133.565 170.386Z" fill="white"/>
<path d="M153.944 168.293C155.182 168.505 156.198 167.727 156.596 166.842C156.714 165.592 155.874 164.494 154.975 164.022C154.076 163.55 152.72 164.588 152.322 165.473C151.866 166.983 152.706 168.08 153.944 168.293Z" fill="white"/>
<path d="M172.288 166.857C173.579 167.029 174.676 166.189 175.128 165.263C175.299 163.971 174.459 162.874 173.534 162.422C172.242 162.251 171.145 163.091 170.693 164.017C170.522 165.308 171.362 166.406 172.288 166.857Z" fill="white"/>
<path d="M192.575 164.833C193.834 165.03 194.882 164.227 195.301 163.326C195.44 162.059 194.6 160.962 193.691 160.498C192.432 160.302 191.383 161.104 190.964 162.005C190.545 162.906 191.316 164.637 192.575 164.833Z" fill="white"/>
<path d="M211.811 162.715C213.049 162.928 214.066 162.15 214.464 161.265C214.861 160.38 213.741 158.917 212.842 158.445C211.604 158.232 210.588 159.011 210.19 159.896C209.733 161.406 210.573 162.503 211.811 162.715Z" fill="white"/>
<path d="M231.299 161.305C232.558 161.502 233.607 160.699 234.026 159.798C234.445 158.897 233.325 157.434 232.415 156.97C231.156 156.774 230.108 157.577 229.689 158.478C229.55 159.744 230.04 161.109 231.299 161.305Z" fill="white"/>
<path d="M251.102 158.752C252.34 158.964 253.357 158.186 253.754 157.301C253.872 156.05 253.032 154.953 252.133 154.481C250.895 154.269 249.878 155.047 249.481 155.932C249.024 157.442 249.864 158.539 251.102 158.752Z" fill="white"/>
<path d="M270.45 157.449C271.741 157.621 272.839 156.781 273.29 155.855C273.462 154.563 272.622 153.466 271.696 153.015C270.404 152.843 269.307 153.683 268.855 154.609C268.684 155.901 269.524 156.998 270.45 157.449Z" fill="white"/>
<path d="M290.26 155.791C291.498 156.003 292.515 155.225 292.913 154.34C293.031 153.09 292.191 151.992 291.292 151.52C290.054 151.308 289.037 152.086 288.639 152.971C287.902 154.115 288.742 155.212 290.26 155.791Z" fill="white"/>
<path d="M-1.13026 202.36C0.128813 202.556 1.17732 201.753 1.59634 200.853C1.73533 199.586 0.895265 198.488 -0.0142907 198.024C-1.27336 197.828 -2.32178 198.631 -2.7408 199.532C-3.15982 200.433 -2.66935 201.797 -1.13026 202.36Z" fill="white"/>
<path d="M18.4479 200.879C19.7069 201.075 20.7555 200.272 21.1745 199.371C21.3135 198.105 20.4734 197.008 19.5639 196.544C18.3048 196.347 17.2563 197.15 16.8373 198.051C16.4183 198.952 17.1888 200.682 18.4479 200.879Z" fill="white"/>
<path d="M37.4517 198.938C38.7432 199.11 39.8405 198.27 40.292 197.344C40.7436 196.418 39.6236 194.955 38.6977 194.503C37.4062 194.332 36.3088 195.172 35.8573 196.098C35.6858 197.389 36.5259 198.487 37.4517 198.938Z" fill="white"/>
<path d="M57.8304 196.845C59.0683 197.057 60.0851 196.279 60.483 195.394C60.6009 194.144 59.7608 193.046 58.8618 192.574C57.6239 192.362 56.607 193.14 56.2091 194.025C55.7523 195.535 56.5924 196.632 57.8304 196.845Z" fill="white"/>
<path d="M77.4104 195.365C78.6483 195.577 79.6652 194.799 80.0631 193.914C80.1809 192.664 79.3409 191.566 78.4419 191.094C77.204 190.882 76.1871 191.66 75.7892 192.545C75.3324 194.055 76.1725 195.152 77.4104 195.365Z" fill="white"/>
<path d="M96.4635 193.386C97.7225 193.582 98.7711 192.78 99.1901 191.879C99.3291 190.612 98.489 189.515 97.5795 189.051C96.3204 188.854 95.2719 189.657 94.8529 190.558C94.7139 191.825 95.2044 193.19 96.4635 193.386Z" fill="white"/>
<path d="M116.61 191.471C117.869 191.667 118.918 190.865 119.337 189.964C119.476 188.697 118.636 187.6 117.726 187.136C116.467 186.939 115.418 187.742 114.999 188.643C114.58 189.544 115.351 191.275 116.61 191.471Z" fill="white"/>
<path d="M135.755 189.422C137.014 189.619 138.062 188.816 138.481 187.915C138.9 187.014 137.78 185.551 136.871 185.087C135.611 184.891 134.563 185.693 134.144 186.594C134.005 187.861 134.495 189.226 135.755 189.422Z" fill="white"/>
<path d="M155.424 187.872C156.662 188.085 157.679 187.306 158.077 186.422C158.475 185.537 157.355 184.074 156.456 183.602C155.218 183.389 154.201 184.168 153.803 185.052C153.346 186.562 154.186 187.66 155.424 187.872Z" fill="white"/>
<path d="M174.772 186.569C176.063 186.741 177.161 185.9 177.612 184.975C177.784 183.683 176.944 182.586 176.018 182.134C174.726 181.963 173.629 182.803 173.178 183.729C172.726 184.654 173.566 185.752 174.772 186.569Z" fill="white"/>
<path d="M194.149 184.343C195.387 184.556 196.403 183.778 196.801 182.893C196.919 181.642 196.079 180.545 195.18 180.073C193.942 179.86 192.925 180.639 192.527 181.524C191.791 182.668 192.911 184.131 194.149 184.343Z" fill="white"/>
<path d="M214.295 182.427C215.533 182.64 216.55 181.862 216.948 180.977C217.066 179.726 216.226 178.629 215.327 178.157C214.089 177.944 213.072 178.723 212.674 179.608C212.217 181.118 213.057 182.215 214.295 182.427Z" fill="white"/>
<path d="M233.348 180.45C234.607 180.646 235.656 179.843 236.075 178.942C236.214 177.676 235.374 176.578 234.464 176.114C233.205 175.918 232.157 176.721 231.738 177.622C231.599 178.888 232.089 180.253 233.348 180.45Z" fill="white"/>
<path d="M253.018 178.899C254.256 179.111 255.273 178.333 255.67 177.448C256.068 176.563 254.948 175.1 254.049 174.628C252.811 174.415 251.795 175.194 251.397 176.079C250.94 177.589 251.78 178.686 253.018 178.899Z" fill="white"/>
<path d="M271.93 177.028C273.222 177.2 274.319 176.36 274.771 175.434C274.942 174.143 274.102 173.045 273.176 172.594C271.885 172.422 270.787 173.262 270.336 174.188C270.164 175.48 271.004 176.577 271.93 177.028Z" fill="white"/>
<path d="M292.309 174.935C293.547 175.147 294.564 174.369 294.962 173.484C295.079 172.234 294.239 171.136 293.34 170.664C292.102 170.452 291.086 171.23 290.688 172.115C290.231 173.625 291.071 174.722 292.309 174.935Z" fill="white"/>
<path d="M0.350293 221.938C1.60936 222.135 2.65777 221.332 3.07678 220.431C3.21577 219.164 2.37579 218.067 1.46623 217.603C0.207168 217.407 -0.841435 218.209 -1.26044 219.11C-1.39944 220.377 -0.908773 221.742 0.350293 221.938Z" fill="white"/>
<path d="M20.5881 219.953C21.8261 220.165 22.8429 219.387 23.2408 218.502C23.3587 217.252 22.5186 216.154 21.6196 215.682C20.3817 215.47 19.3649 216.248 18.967 217.133C18.5101 218.643 19.3502 219.74 20.5881 219.953Z" fill="white"/>
<path d="M39.5005 218.083C40.792 218.254 41.8894 217.414 42.3409 216.488C42.5124 215.197 41.6724 214.099 40.7466 213.648C39.455 213.476 38.3576 214.316 37.9061 215.242C37.4546 216.168 38.5747 217.631 39.5005 218.083Z" fill="white"/>
<path d="M59.7463 216.992C60.9842 217.204 62.0011 216.426 62.399 215.541C62.5169 214.291 61.6768 213.193 60.7779 212.721C59.5399 212.509 58.523 213.287 58.1252 214.172C57.3883 215.316 58.2284 216.414 59.7463 216.992Z" fill="white"/>
<path d="M78.6587 215.121C79.9503 215.293 81.0475 214.453 81.4991 213.527C81.6706 212.235 80.8305 211.138 79.9047 210.686C78.6131 210.515 77.5159 211.355 77.0644 212.281C76.6128 213.207 77.7328 214.67 78.6587 215.121Z" fill="white"/>
<path d="M98.9459 213.098C100.205 213.294 101.254 212.492 101.673 211.591C101.812 210.324 100.971 209.227 100.062 208.763C98.8028 208.566 97.7543 209.369 97.3353 210.27C97.1963 211.537 97.6868 212.902 98.9459 213.098Z" fill="white"/>
<path d="M118.182 210.98C119.42 211.193 120.437 210.414 120.835 209.529C120.952 208.279 120.112 207.182 119.213 206.71C117.975 206.497 116.959 207.275 116.561 208.16C116.104 209.67 116.944 210.768 118.182 210.98Z" fill="white"/>
<path d="M137.669 209.569C138.928 209.766 139.976 208.963 140.395 208.062C140.534 206.795 139.694 205.698 138.785 205.234C137.526 205.038 136.477 205.84 136.058 206.741C135.639 207.642 136.41 209.373 137.669 209.569Z" fill="white"/>
<path d="M157.473 207.016C158.711 207.229 159.728 206.45 160.126 205.566C160.523 204.681 159.403 203.218 158.504 202.746C157.266 202.533 156.25 203.312 155.852 204.196C155.395 205.706 156.235 206.804 157.473 207.016Z" fill="white"/>
<path d="M176.819 205.713C178.11 205.885 179.208 205.045 179.659 204.119C180.111 203.193 178.991 201.73 178.065 201.278C176.773 201.107 175.676 201.947 175.225 202.873C175.053 204.164 175.893 205.262 176.819 205.713Z" fill="white"/>
<path d="M196.196 203.487C197.433 203.7 198.45 202.922 198.848 202.037C198.966 200.786 198.126 199.689 197.227 199.217C195.989 199.004 194.972 199.783 194.574 200.668C194.118 202.178 194.958 203.275 196.196 203.487Z" fill="white"/>
<path d="M215.543 202.184C216.835 202.356 217.932 201.516 218.384 200.59C218.555 199.298 217.715 198.201 216.79 197.749C215.498 197.578 214.401 198.418 213.949 199.344C213.778 200.635 214.618 201.733 215.543 202.184Z" fill="white"/>
<path d="M235.262 200.597C236.521 200.793 237.57 199.99 237.989 199.089C238.128 197.823 237.288 196.725 236.378 196.261C235.119 196.065 234.071 196.868 233.652 197.769C233.233 198.669 233.723 200.034 235.262 200.597Z" fill="white"/>
<path d="M255.5 198.611C256.738 198.823 257.755 198.045 258.153 197.16C258.271 195.909 257.431 194.812 256.532 194.34C255.294 194.127 254.277 194.906 253.879 195.791C253.142 196.935 254.262 198.398 255.5 198.611Z" fill="white"/>
<path d="M2.83263 241.65C4.09167 241.847 5.14025 241.044 5.55925 240.143C5.69824 238.876 4.85818 237.779 3.94865 237.315C2.68961 237.119 1.64103 237.921 1.22203 238.822C1.08304 240.089 1.57359 241.454 2.83263 241.65Z" fill="white"/>
<path d="M22.5042 240.099C23.7421 240.312 24.7589 239.533 25.1568 238.649C25.2747 237.398 24.4346 236.301 23.5357 235.829C22.2977 235.616 21.2808 236.395 20.8829 237.279C20.4261 238.789 21.2663 239.887 22.5042 240.099Z" fill="white"/>
<path d="M41.4145 238.229C42.7061 238.401 43.8035 237.561 44.255 236.635C44.4265 235.343 43.5863 234.246 42.6605 233.794C41.3689 233.623 40.2718 234.463 39.8202 235.389C39.6487 236.68 40.4887 237.778 41.4145 238.229Z" fill="white"/>
<path d="M61.7951 236.136C63.0331 236.348 64.05 235.57 64.4478 234.685C64.5657 233.435 63.7257 232.337 62.8267 231.865C61.5888 231.653 60.5719 232.431 60.174 233.316C59.7172 234.826 60.5572 235.923 61.7951 236.136Z" fill="white"/>
<path d="M80.7076 234.266C81.9992 234.437 83.0964 233.597 83.5479 232.671C83.9994 231.746 82.8794 230.283 81.9536 229.831C80.662 229.66 79.5646 230.5 79.1131 231.425C78.9416 232.717 79.7818 233.814 80.7076 234.266Z" fill="white"/>
<path d="M60.2584 234.611C61.5499 234.782 62.6471 233.942 63.0987 233.016C63.5502 232.09 62.4302 230.627 61.5044 230.176C60.2128 230.004 59.1154 230.844 58.6639 231.77C58.4924 233.062 59.3325 234.159 60.2584 234.611Z" fill="white"/>
<path d="M100.426 232.677C101.685 232.873 102.734 232.071 103.153 231.17C103.572 230.269 102.452 228.806 101.542 228.342C100.283 228.145 99.2348 228.948 98.8158 229.849C98.6768 231.116 99.1673 232.481 100.426 232.677Z" fill="white"/>
<path d="M120.664 230.692C121.902 230.905 122.919 230.126 123.317 229.241C123.435 227.991 122.595 226.894 121.696 226.422C120.458 226.209 119.441 226.987 119.043 227.872C118.306 229.016 119.146 230.114 120.664 230.692Z" fill="white"/>
<path d="M139.717 228.713C140.976 228.91 142.025 228.107 142.444 227.206C142.583 225.939 141.743 224.842 140.833 224.378C139.574 224.182 138.526 224.984 138.107 225.885C137.688 226.786 138.458 228.517 139.717 228.713Z" fill="white"/>
<path d="M159.389 227.163C160.627 227.376 161.644 226.597 162.042 225.713C162.159 224.462 161.319 223.365 160.42 222.893C159.182 222.68 158.166 223.459 157.768 224.343C157.311 225.853 158.151 226.951 159.389 227.163Z" fill="white"/>
<path d="M178.299 225.292C179.591 225.464 180.688 224.624 181.14 223.698C181.311 222.406 180.471 221.309 179.545 220.857C178.254 220.686 177.156 221.526 176.705 222.452C176.533 223.743 177.373 224.841 178.299 225.292Z" fill="white"/>
<path d="M198.68 223.199C199.918 223.412 200.935 222.633 201.333 221.749C201.45 220.498 200.61 219.401 199.711 218.929C198.474 218.716 197.457 219.495 197.059 220.379C196.602 221.889 197.442 222.987 198.68 223.199Z" fill="white"/>
<path d="M217.024 221.763C218.316 221.934 219.413 221.094 219.864 220.169C220.036 218.877 219.196 217.78 218.27 217.328C216.978 217.157 215.881 217.997 215.429 218.922C215.258 220.214 216.098 221.311 217.024 221.763Z" fill="white"/>
<path d="M237.311 219.741C238.57 219.937 239.619 219.134 240.038 218.233C240.177 216.967 239.337 215.869 238.427 215.405C237.168 215.209 236.12 216.012 235.701 216.913C235.562 218.179 236.052 219.544 237.311 219.741Z" fill="white"/>
<path d="M24.551 259.244C25.7889 259.457 26.8058 258.678 27.2037 257.794C27.6016 256.909 26.4815 255.446 25.5825 254.974C24.3446 254.761 23.3278 255.54 22.9299 256.424C22.1931 257.569 23.3131 259.032 24.551 259.244Z" fill="white"/>
<path d="M44.0397 257.833C45.2987 258.03 46.3472 257.227 46.7663 256.326C46.9052 255.059 46.0653 253.962 45.1557 253.498C43.8966 253.302 42.8481 254.104 42.4291 255.005C42.2901 256.272 42.7806 257.637 44.0397 257.833Z" fill="white"/>
<path d="M63.2757 255.716C64.5136 255.928 65.5304 255.15 65.9283 254.265C66.0462 253.014 65.2061 251.917 64.3071 251.445C63.0692 251.232 62.0524 252.011 61.6545 252.896C61.1977 254.406 62.0377 255.503 63.2757 255.716Z" fill="white"/>
<path d="M82.6215 254.412C83.9131 254.584 85.0105 253.744 85.462 252.818C85.6335 251.526 84.7935 250.429 83.8677 249.977C82.5761 249.806 81.4787 250.646 81.0272 251.572C80.8557 252.863 81.6958 253.961 82.6215 254.412Z" fill="white"/>
<path d="M102.567 251.752C103.805 251.964 104.821 251.186 105.219 250.301C105.337 249.051 104.497 247.953 103.598 247.481C102.36 247.269 101.343 248.047 100.945 248.932C100.489 250.442 101.329 251.539 102.567 251.752Z" fill="white"/>
<path d="M122.145 250.271C123.383 250.484 124.4 249.705 124.797 248.821C124.915 247.57 124.075 246.473 123.176 246.001C121.938 245.788 120.922 246.567 120.524 247.451C120.067 248.961 120.907 250.059 122.145 250.271Z" fill="white"/>
<path d="M141.198 248.293C142.457 248.489 143.505 247.686 143.924 246.786C144.063 245.519 143.223 244.422 142.314 243.958C141.055 243.761 140.006 244.564 139.587 245.465C139.448 246.731 139.939 248.096 141.198 248.293Z" fill="white"/>
<path d="M161.436 246.307C162.674 246.52 163.691 245.741 164.088 244.857C164.206 243.606 163.366 242.509 162.467 242.037C161.229 241.824 160.212 242.603 159.815 243.487C159.358 244.997 160.198 246.095 161.436 246.307Z" fill="white"/>
<path d="M180.924 244.897C182.184 245.094 183.232 244.291 183.651 243.39C183.79 242.123 182.95 241.026 182.04 240.562C180.781 240.366 179.733 241.168 179.314 242.069C178.895 242.97 179.385 244.335 180.924 244.897Z" fill="white"/>
<path d="M84.6704 273.556C85.9619 273.728 87.0593 272.888 87.5108 271.962C87.6823 270.67 86.8423 269.573 85.9165 269.122C84.6249 268.95 83.5276 269.79 83.076 270.716C82.6245 271.642 83.7446 273.105 84.6704 273.556Z" fill="white"/>
<path d="M104.481 271.899C105.719 272.111 106.736 271.333 107.133 270.448C107.251 269.197 106.411 268.1 105.512 267.628C104.274 267.415 103.257 268.194 102.86 269.079C102.403 270.589 103.243 271.686 104.481 271.899Z" fill="white"/>
<circle cx="1137.5" cy="178.5" r="80.5" stroke="#3DCD90" stroke-width="4"/>
<path d="M934.17 68.883C964.286 24.7286 1010.19 28.4735 1056.64 35.0364C1074.37 37.6469 1093.52 38.0941 1109.5 30.4749C1125.47 22.8557 1137.47 7.86564 1154.53 2.6006C1174.95 -3.67108 1195.26 7.97156 1206.32 25.2201C1215.13 38.7641 1220.44 55.3225 1225.08 70.5688C1230.5 88.9031 1240.67 104.569 1252.65 119.617C1266.95 137.364 1282.6 153.953 1292.66 174.406C1306.19 202.193 1301.2 237.91 1271.73 260.404C1252.44 275.092 1220.22 253.962 1201.98 238.186C1178.07 217.435 1161.56 188.918 1135.71 170.292C1106.31 148.618 1065.85 143.016 1031.57 155.554C1001.7 166.659 957.443 197.621 928.576 165.64C907.669 141.836 918.283 91.9067 934.17 68.883Z" fill="#FFE9B9"/>
</g>
<defs>
<clipPath id="clip0">
<rect width="1200" height="274" fill="white"/>
</clipPath>
</defs>
</svg>
