<svg width="640" height="274" viewBox="0 0 640 274" fill="none" xmlns="http://www.w3.org/2000/svg">
<g clip-path="url(#clip0)">
<mask id="mask0" mask-type="alpha" maskUnits="userSpaceOnUse" x="0" y="147" width="640" height="72">
<rect y="147" width="640" height="72" fill="#C4C4C4"/>
</mask>
<g mask="url(#mask0)">
<path d="M-312 147C-312 147 -40 166.499 156 166.5C352 166.501 455.5 147 653 166.5C850.5 186 888 147 888 147V219H-312V147Z" fill="#6332CD"/>
</g>
<mask id="mask1" mask-type="alpha" maskUnits="userSpaceOnUse" x="0" y="147" width="640" height="72">
<rect y="147" width="640" height="72" fill="#C4C4C4"/>
</mask>
<g mask="url(#mask1)">
<path d="M-312 147C-312 147 -40 166.499 156 166.5C352 166.501 455.5 147 653 166.5C850.5 186 888 147 888 147V219H-312V147Z" fill="#6332CD"/>
</g>
<path d="M-1.6773 176.507C-0.422756 176.446 0.400599 175.465 0.596714 174.515C0.440021 173.269 -0.618429 172.38 -1.59851 172.115C-2.85305 172.176 -3.67649 173.157 -3.8726 174.107C-3.99037 175.681 -2.93183 176.569 -1.6773 176.507Z" fill="white"/>
<path d="M17.1117 170.808C18.3663 170.746 19.1896 169.766 19.3858 168.815C19.2291 167.569 18.1706 166.681 17.1906 166.415C15.936 166.477 15.1126 167.458 14.9165 168.408C14.7987 169.981 15.8572 170.869 17.1117 170.808Z" fill="white"/>
<path d="M4.57071 195.757C5.82524 195.695 6.64866 194.714 6.84477 193.764C6.68807 192.518 5.62962 191.629 4.64954 191.364C3.39501 191.425 2.57159 192.406 2.37548 193.356C1.90492 194.633 2.96337 195.522 4.57071 195.757Z" fill="white"/>
<path d="M22.6249 189.821C23.9229 189.708 24.8114 188.649 25.051 187.647C24.9377 186.349 23.8792 185.461 22.8774 185.221C21.5794 185.335 20.691 186.393 20.4514 187.395C20.2119 188.397 21.6231 189.581 22.6249 189.821Z" fill="white"/>
<path d="M41.9869 183.437C43.2586 183.355 44.1077 182.344 44.3209 181.373C44.1813 180.107 43.1228 179.218 42.1341 178.963C40.8625 179.045 40.0135 180.056 39.8003 181.027C39.9399 182.293 40.7152 183.519 41.9869 183.437Z" fill="white"/>
<path d="M60.3032 177.19C61.5577 177.128 62.381 176.147 62.5771 175.197C62.4204 173.951 61.3621 173.062 60.382 172.797C59.1274 172.859 58.304 173.839 58.1079 174.789C57.9902 176.363 59.0486 177.251 60.3032 177.19Z" fill="white"/>
<path d="M79.0182 171.577C80.2898 171.495 81.1389 170.484 81.3521 169.513C81.2125 168.247 80.154 167.358 79.1654 167.103C77.8938 167.185 77.0447 168.196 76.8314 169.167C76.6182 170.137 77.7466 171.659 79.0182 171.577Z" fill="white"/>
<path d="M10.7308 213.998C11.9854 213.936 12.8088 212.955 13.0049 212.005C12.8482 210.759 11.7898 209.871 10.8097 209.605C9.55517 209.667 8.73174 210.648 8.53565 211.598C8.41792 213.171 9.47629 214.059 10.7308 213.998Z" fill="white"/>
<path d="M28.7832 208.063C30.0812 207.949 30.9696 206.891 31.2091 205.889C31.4487 204.887 30.0375 203.703 29.0357 203.463C27.7377 203.576 26.8491 204.635 26.6095 205.637C26.7228 206.935 27.7814 207.823 28.7832 208.063Z" fill="white"/>
<path d="M47.6861 202.226C48.9578 202.144 49.8068 201.133 50.02 200.162C50.2333 199.192 48.822 198.007 47.8334 197.752C46.5617 197.834 45.7127 198.845 45.4995 199.816C45.6391 201.082 46.4145 202.308 47.6861 202.226Z" fill="white"/>
<path d="M67.0102 195.891C68.2647 195.829 69.0882 194.848 69.2843 193.898C69.1276 192.652 68.069 191.764 67.089 191.498C65.8344 191.56 65.0111 192.541 64.8149 193.491C64.3444 194.768 65.4028 195.656 67.0102 195.891Z" fill="white"/>
<path d="M85.1783 189.819C86.45 189.737 87.299 188.726 87.5122 187.755C87.3726 186.489 86.3142 185.6 85.3256 185.345C84.0539 185.427 83.2049 186.438 82.9916 187.408C82.7784 188.379 83.9067 189.901 85.1783 189.819Z" fill="white"/>
<path d="M104.041 184.031C105.296 183.969 106.119 182.989 106.315 182.039C106.159 180.792 105.1 179.904 104.12 179.638C102.866 179.7 102.042 180.681 101.846 181.631C101.728 183.204 102.787 184.092 104.041 184.031Z" fill="white"/>
<path d="M122.096 178.095C123.394 177.982 124.282 176.923 124.522 175.921C124.408 174.623 123.35 173.735 122.348 173.495C121.05 173.609 120.162 174.667 119.922 175.669C120.035 176.967 121.094 177.855 122.096 178.095Z" fill="white"/>
<path d="M141.532 171.623C142.786 171.562 143.61 170.581 143.806 169.631C143.649 168.385 142.591 167.496 141.61 167.231C140.356 167.292 139.533 168.273 139.336 169.223C139.219 170.796 140.277 171.685 141.532 171.623Z" fill="white"/>
<path d="M-1.88614 239.036C-0.61447 238.954 0.234551 237.942 0.447766 236.972C0.308161 235.705 -0.750216 234.817 -1.73887 234.562C-3.01055 234.643 -3.85957 235.655 -4.07278 236.625C-3.93318 237.892 -3.15782 239.118 -1.88614 239.036Z" fill="white"/>
<path d="M16.4301 232.788C17.6847 232.726 18.508 231.745 18.7041 230.795C18.5474 229.549 17.489 228.661 16.5089 228.395C15.2543 228.457 14.431 229.438 14.2349 230.388C14.1171 231.961 15.1756 232.849 16.4301 232.788Z" fill="white"/>
<path d="M35.0311 227.312C36.3291 227.198 37.2177 226.14 37.4572 225.138C37.344 223.84 36.2855 222.952 35.2837 222.712C33.9857 222.825 33.0972 223.884 32.8576 224.885C32.9709 226.183 34.0293 227.072 35.0311 227.312Z" fill="white"/>
<path d="M53.9204 220.381C55.1749 220.319 55.9983 219.338 56.1944 218.388C56.0377 217.142 54.9792 216.253 53.9991 215.988C52.7446 216.049 51.9212 217.03 51.7251 217.98C51.6073 219.554 52.6658 220.442 53.9204 220.381Z" fill="white"/>
<path d="M72.7094 214.68C73.9639 214.618 74.7873 213.638 74.9834 212.688C74.8267 211.441 73.7683 210.553 72.7882 210.287C71.5336 210.349 70.7103 211.33 70.5142 212.28C70.3965 213.853 71.4548 214.741 72.7094 214.68Z" fill="white"/>
<path d="M90.8775 208.609C92.1492 208.527 92.9983 207.516 93.2115 206.545C93.0718 205.279 92.0135 204.39 91.0248 204.135C89.7531 204.217 88.9041 205.228 88.6909 206.199C88.8305 207.465 89.6059 208.691 90.8775 208.609Z" fill="white"/>
<path d="M110.202 202.273C111.456 202.211 112.279 201.23 112.476 200.28C112.319 199.034 111.261 198.145 110.28 197.88C109.026 197.942 108.202 198.922 108.006 199.872C107.889 201.446 108.947 202.334 110.202 202.273Z" fill="white"/>
<path d="M128.917 196.661C130.188 196.579 131.037 195.568 131.25 194.597C131.111 193.331 130.053 192.442 129.064 192.187C127.792 192.269 126.943 193.28 126.73 194.251C126.517 195.221 127.292 196.447 128.917 196.661Z" fill="white"/>
<path d="M41.1913 245.553C42.4893 245.44 43.3778 244.381 43.6174 243.379C43.5041 242.081 42.4457 241.193 41.4439 240.953C40.1459 241.066 39.2573 242.125 39.0178 243.127C38.7782 244.128 40.1895 245.313 41.1913 245.553Z" fill="white"/>
<path d="M60.1684 239.63C61.4229 239.568 62.2463 238.587 62.4424 237.637C62.2857 236.391 61.2272 235.502 60.2471 235.237C58.9926 235.298 58.1693 236.279 57.9732 237.229C57.8554 238.803 58.9138 239.691 60.1684 239.63Z" fill="white"/>
<circle cx="581.5" cy="209.5" r="62.5" stroke="#3DCD90" stroke-width="4"/>
<path d="M488.67 132.912C516.199 105.331 548.59 114.2 580.991 125.161C593.339 129.42 607.001 132.321 619.476 129.014C631.951 125.707 642.565 116.582 655.5 115.108C670.976 113.365 683.966 124.445 689.564 138.295C694.055 149.187 695.624 161.767 696.898 173.318C698.312 187.186 703.487 199.781 710.044 212.178C717.9 226.822 726.879 240.817 731.328 256.828C737.284 278.562 728.896 303.483 704.743 315.63C688.94 323.555 668.702 304.073 657.76 290.312C643.419 272.22 635.432 249.561 619.423 232.733C601.277 213.241 573.036 203.774 546.787 208.14C523.885 212.073 488 228.296 471.625 201.49C459.851 181.616 474.184 147.269 488.67 132.912Z" fill="#FFE9B9"/>
</g>
<defs>
<clipPath id="clip0">
<rect width="640" height="274" fill="white"/>
</clipPath>
</defs>
</svg>
