<svg width="320" height="94" viewBox="0 0 320 94" fill="none" xmlns="http://www.w3.org/2000/svg">
<g clip-path="url(#clip0)">
<mask id="mask0" mask-type="alpha" maskUnits="userSpaceOnUse" x="0" y="35" width="320" height="49">
<rect y="35.999" width="320" height="48" fill="#C4C4C4"/>
</mask>
<g mask="url(#mask0)">
<path d="M-474 35.999C-474 35.999 -290.4 48.9983 -158.1 48.999C-25.8 48.9997 44.0625 35.999 177.375 48.999C310.688 61.999 336 35.999 336 35.999V83.999H-474V35.999Z" fill="#6332CD"/>
</g>
<path d="M44.4902 45.6959C45.1247 45.8888 45.7452 45.5577 46.0486 45.13C46.2416 44.4955 45.9104 43.8749 45.4828 43.5716C44.8483 43.3786 44.2276 43.7098 43.9243 44.1374C43.7313 44.7719 44.0626 45.3925 44.4902 45.6959Z" fill="white"/>
<path d="M54.8627 45.8726C55.4789 46.0754 56.0718 45.759 56.3568 45.3411C56.5314 44.7165 56.2002 44.0958 55.7818 43.7876C55.1657 43.5848 54.5727 43.9012 54.2877 44.3191C54.0028 44.7369 54.2466 45.6699 54.8627 45.8726Z" fill="white"/>
<path d="M65.0883 46.7825C65.6924 46.9917 66.2676 46.6848 66.5406 46.2733C66.8136 45.8619 66.372 45.0344 65.9595 44.723C65.3553 44.5139 64.7803 44.8207 64.5073 45.2322C64.1529 45.9528 64.4841 46.5734 65.0883 46.7825Z" fill="white"/>
<path d="M75.2104 47.7476C75.8265 47.9504 76.4195 47.634 76.7045 47.2161C76.9894 46.7983 76.5479 45.9708 76.1294 45.6626C75.5133 45.4598 74.9203 45.7763 74.6354 46.1941C74.4608 46.8188 74.5943 47.5448 75.2104 47.7476Z" fill="white"/>
<path d="M85.5551 47.9392C86.1593 48.1484 86.7343 47.8415 87.0073 47.4301C87.1699 46.8118 86.8388 46.1912 86.4263 45.8797C85.8222 45.6706 85.247 45.9775 84.974 46.3889C84.6197 47.1095 84.9509 47.7301 85.5551 47.9392Z" fill="white"/>
<path d="M94.8788 48.8287C95.5134 49.0217 96.134 48.6904 96.4373 48.2628C96.6303 47.6283 96.2991 47.0078 95.8714 46.7044C95.2369 46.5114 94.6163 46.8426 94.313 47.2702C94.12 47.9047 94.4512 48.5254 94.8788 48.8287Z" fill="white"/>
<path d="M105.185 49.6961C105.789 49.9053 106.364 49.5984 106.637 49.1869C106.8 48.5686 106.469 47.948 106.056 47.6366C105.452 47.4274 104.877 47.7343 104.604 48.1457C104.139 48.6595 104.47 49.2801 105.185 49.6961Z" fill="white"/>
<path d="M4.3725 52.3135C4.98861 52.5163 5.58164 52.1999 5.86658 51.7821C6.04114 51.1574 5.70998 50.5367 5.29153 50.2285C4.67542 50.0257 4.08243 50.3422 3.79748 50.76C3.62292 51.3847 3.75639 52.1108 4.3725 52.3135Z" fill="white"/>
<path d="M14.5463 53.251C15.1624 53.4538 15.7555 53.1374 16.0404 52.7196C16.215 52.0949 15.8838 51.4743 15.4654 51.166C14.8493 50.9632 14.2562 51.2797 13.9713 51.6975C13.6864 52.1153 13.9302 53.0482 14.5463 53.251Z" fill="white"/>
<path d="M24.0024 54.0704C24.6185 54.2732 25.2115 53.9567 25.4964 53.5389C25.7814 53.121 25.3399 52.2936 24.9214 51.9853C24.3053 51.7826 23.7123 52.099 23.4274 52.5168C23.2528 53.1415 23.3863 53.8676 24.0024 54.0704Z" fill="white"/>
<path d="M34.2279 54.9803C34.8321 55.1894 35.4072 54.8825 35.6802 54.4711C35.9532 54.0596 35.5116 53.2322 35.0992 52.9208C34.495 52.7116 33.9199 53.0185 33.6469 53.4299C33.2926 54.1505 33.6238 54.7711 34.2279 54.9803Z" fill="white"/>
<path d="M44.2714 55.9879C44.9059 56.1808 45.5265 55.8497 45.8299 55.422C46.0228 54.7875 45.6917 54.1669 45.264 53.8636C44.6295 53.6706 44.0089 54.0018 43.7056 54.4294C43.4022 54.857 43.7334 55.4777 44.2714 55.9879Z" fill="white"/>
<path d="M53.976 56.0188C54.5802 56.228 55.1552 55.9211 55.4282 55.5097C55.5909 54.8914 55.2597 54.2708 54.8472 53.9593C54.2431 53.7502 53.6679 54.0571 53.3949 54.4685C52.9302 54.9823 53.3718 55.8097 53.976 56.0188Z" fill="white"/>
<path d="M64.8685 57.075C65.4727 57.2841 66.0478 56.9773 66.3208 56.5658C66.4834 55.9475 66.1523 55.3269 65.7398 55.0154C65.1356 54.8063 64.5606 55.1132 64.2876 55.5247C63.9332 56.2453 64.2644 56.8659 64.8685 57.075Z" fill="white"/>
<path d="M74.391 57.2037C75.0072 57.4065 75.6002 57.09 75.8851 56.6722C76.0597 56.0475 75.7286 55.4269 75.3101 55.1187C74.694 54.9159 74.101 55.2323 73.816 55.6501C73.6415 56.2748 73.7749 57.0009 74.391 57.2037Z" fill="white"/>
<path d="M84.6166 58.1136C85.2208 58.3228 85.7958 58.0158 86.0688 57.6044C86.3418 57.1929 85.9003 56.3655 85.4879 56.0541C84.8837 55.8449 84.3086 56.1518 84.0356 56.5632C83.6813 57.2838 84.0124 57.9045 84.6166 58.1136Z" fill="white"/>
<path d="M93.9413 59.003C94.5758 59.1959 95.1964 58.8648 95.4998 58.4372C95.6927 57.8027 95.3616 57.182 94.9339 56.8787C94.2994 56.6858 93.6789 57.0169 93.3755 57.4445C93.1825 58.079 93.5137 58.6997 93.9413 59.003Z" fill="white"/>
<path d="M104.965 59.9886C105.569 60.1977 106.145 59.8908 106.418 59.4794C106.58 58.8611 106.249 58.2405 105.836 57.9291C105.232 57.7199 104.657 58.0268 104.384 58.4382C104.03 59.1588 104.361 59.7794 104.965 59.9886Z" fill="white"/>
<path d="M4.15277 62.606C4.76889 62.8088 5.36193 62.4923 5.64689 62.0745C5.82145 61.4498 5.49025 60.8293 5.0718 60.521C4.45568 60.3182 3.8627 60.6346 3.57775 61.0525C3.40319 61.6772 3.53665 62.4032 4.15277 62.606Z" fill="white"/>
<path d="M13.6606 63.3978C14.2647 63.607 14.8398 63.3 15.1128 62.8886C15.2754 62.2702 14.9443 61.6497 14.5318 61.3382C13.9276 61.1291 13.3525 61.436 13.0795 61.8474C12.7252 62.568 13.0564 63.1886 13.6606 63.3978Z" fill="white"/>
<path d="M23.7827 64.3628C24.3988 64.5656 24.9918 64.2492 25.2767 63.8314C25.4513 63.2067 25.1201 62.5861 24.7017 62.2778C24.0856 62.0751 23.4925 62.3915 23.2076 62.8093C22.9226 63.2271 23.1666 64.1601 23.7827 64.3628Z" fill="white"/>
<path d="M34.1273 64.5545C34.7315 64.7636 35.3066 64.4568 35.5796 64.0453C35.8526 63.6339 35.4111 62.8064 34.9986 62.495C34.3944 62.2858 33.8194 62.5927 33.5463 63.0041C33.192 63.7247 33.5232 64.3454 34.1273 64.5545Z" fill="white"/>
<path d="M43.4521 65.4439C44.0866 65.6369 44.7072 65.3057 45.0105 64.8781C45.3139 64.4504 44.8723 63.6229 44.4447 63.3196C43.8102 63.1266 43.1896 63.4578 42.8862 63.8855C42.6933 64.52 43.0244 65.1406 43.4521 65.4439Z" fill="white"/>
<path d="M53.7572 66.3113C54.3614 66.5205 54.9365 66.2136 55.2095 65.8022C55.3721 65.1838 55.041 64.5633 54.6285 64.2518C54.0243 64.0427 53.4492 64.3495 53.1762 64.761C52.8219 65.4816 53.153 66.1022 53.7572 66.3113Z" fill="white"/>
<path d="M63.7997 67.3189C64.4343 67.5119 65.0548 67.1807 65.3582 66.7531C65.5511 66.1185 65.22 65.498 64.7923 65.1946C64.1578 65.0017 63.5373 65.3328 63.2339 65.7605C63.0409 66.395 63.3721 67.0156 63.7997 67.3189Z" fill="white"/>
<path d="M73.3354 68.0958C73.9515 68.2986 74.5445 67.9821 74.8295 67.5642C75.0041 66.9395 74.6729 66.319 74.2544 66.0108C73.6383 65.808 73.0453 66.1244 72.7604 66.5422C72.4754 66.96 72.6089 67.6862 73.3354 68.0958Z" fill="white"/>
<path d="M84.3978 68.4061C85.002 68.6152 85.5771 68.3083 85.8501 67.8969C86.0127 67.2786 85.6816 66.658 85.2691 66.3465C84.6649 66.1374 84.0898 66.4443 83.8168 66.8557C83.3521 67.3694 83.7937 68.1969 84.3978 68.4061Z" fill="white"/>
<path d="M3.21528 72.7798C3.8314 72.9826 4.42439 72.6662 4.70935 72.2484C4.99431 71.8305 4.55276 71.0031 4.13432 70.6948C3.5182 70.4921 2.92521 70.8085 2.64025 71.2263C2.46568 71.851 2.59916 72.5771 3.21528 72.7798Z" fill="white"/>
<path d="M13.4418 73.6902C14.046 73.8994 14.6211 73.5925 14.8941 73.1811C15.0567 72.5627 14.7255 71.9422 14.313 71.6307C13.7089 71.4216 13.1338 71.7284 12.8608 72.1399C12.3961 72.6536 12.7272 73.2742 13.4418 73.6902Z" fill="white"/>
<path d="M22.9633 73.8184C23.5794 74.0212 24.1725 73.7048 24.4574 73.2869C24.632 72.6623 24.3008 72.0416 23.8824 71.7334C23.2663 71.5306 22.6732 71.8471 22.3883 72.2649C22.1033 72.6827 22.3472 73.6157 22.9633 73.8184Z" fill="white"/>
<path d="M33.1899 74.7288C33.794 74.9379 34.3691 74.6311 34.6421 74.2196C34.8047 73.6013 34.4736 72.9807 34.0611 72.6693C33.4569 72.4601 32.8818 72.767 32.6088 73.1785C32.2545 73.8991 32.5857 74.5196 33.1899 74.7288Z" fill="white"/>
<path d="M43.2323 75.7364C43.8669 75.9293 44.4875 75.5982 44.7908 75.1705C44.9838 74.536 44.6526 73.9155 44.2249 73.6121C43.5904 73.4192 42.9699 73.7503 42.6665 74.1779C42.4736 74.8125 42.8047 75.433 43.2323 75.7364Z" fill="white"/>
<path d="M53.5375 76.6039C54.1417 76.813 54.7167 76.5061 54.9897 76.0946C55.1524 75.4763 54.8212 74.8557 54.4088 74.5443C53.8046 74.3351 53.2295 74.642 52.9565 75.0535C52.6022 75.7741 52.9333 76.3947 53.5375 76.6039Z" fill="white"/>
<path d="M62.9804 76.775C63.6149 76.9679 64.2355 76.6368 64.5388 76.2091C64.7318 75.5746 64.4006 74.954 63.973 74.6507C63.3385 74.4577 62.7179 74.7889 62.4145 75.2165C62.2216 75.851 62.5528 76.4716 62.9804 76.775Z" fill="white"/>
<path d="M73.2348 77.67C73.8509 77.8727 74.4439 77.5563 74.7289 77.1385C74.9035 76.5138 74.5723 75.8932 74.1539 75.585C73.5377 75.3822 72.9447 75.6986 72.6598 76.1164C72.4852 76.7411 72.6187 77.4672 73.2348 77.67Z" fill="white"/>
<path d="M2.32951 82.9251C2.93368 83.1342 3.50874 82.8274 3.78175 82.4159C3.94437 81.7976 3.61321 81.177 3.20074 80.8656C2.59658 80.6564 2.02146 80.9633 1.74845 81.3748C1.39413 82.0954 1.72534 82.716 2.32951 82.9251Z" fill="white"/>
<path d="M12.5043 83.8626C13.1085 84.0717 13.6835 83.7649 13.9565 83.3534C14.1192 82.7351 13.788 82.1145 13.3755 81.803C12.7714 81.5939 12.1963 81.9008 11.9233 82.3123C11.569 83.0329 11.9001 83.6535 12.5043 83.8626Z" fill="white"/>
<path d="M22.0258 83.9927C22.6419 84.1955 23.235 83.8791 23.5199 83.4613C23.6945 82.8366 23.3633 82.216 22.9449 81.9077C22.3288 81.7049 21.7357 82.0214 21.4508 82.4392C21.2762 83.0639 21.4097 83.7899 22.0258 83.9927Z" fill="white"/>
<path d="M32.2523 84.9012C32.8565 85.1104 33.4316 84.8034 33.7046 84.392C33.8672 83.7737 33.5361 83.1531 33.1236 82.8417C32.5194 82.6325 31.9443 82.9394 31.6713 83.3508C31.317 84.0714 31.6482 84.6921 32.2523 84.9012Z" fill="white"/>
<path d="M42.3745 85.8678C42.9906 86.0705 43.5836 85.7541 43.8685 85.3362C44.0431 84.7115 43.712 84.091 43.2935 83.7827C42.6774 83.5799 42.0844 83.8964 41.7994 84.3142C41.5145 84.732 41.648 85.4581 42.3745 85.8678Z" fill="white"/>
<path d="M1.39198 93.0994C1.99614 93.3086 2.57125 93.0017 2.84425 92.5902C3.00686 91.9719 2.6757 91.3513 2.26323 91.0399C1.65907 90.8307 1.08399 91.1376 0.810987 91.5491C0.45668 92.2697 0.787812 92.8903 1.39198 93.0994Z" fill="white"/>
<path d="M226.326 36.6523C237.666 20.0488 254.919 21.4338 272.374 23.8772C279.034 24.8495 286.232 25.0083 292.24 22.1381C298.249 19.2678 302.764 13.6303 309.179 11.644C316.856 9.27791 324.487 13.6424 328.635 20.1174C331.941 25.2017 333.926 31.4202 335.665 37.1461C337.693 44.0318 341.507 49.9128 346.003 55.5604C351.369 62.2214 357.244 68.4462 361.013 76.126C366.087 86.559 364.195 99.9803 353.105 108.446C345.847 113.973 333.748 106.05 326.902 100.132C317.923 92.3469 311.732 81.6407 302.027 74.6552C290.988 66.5267 275.781 64.4411 262.893 69.168C251.66 73.3548 235.011 85.0087 224.177 73.0068C216.33 64.0737 220.343 45.31 226.326 36.6523Z" fill="#FFE9B9"/>
</g>
<defs>
<clipPath id="clip0">
<rect width="320" height="94" fill="white"/>
</clipPath>
</defs>
</svg>
