<svg width="82" height="80" viewBox="0 0 82 80" fill="none" xmlns="http://www.w3.org/2000/svg">
<path d="M34.462 44.509C34.182 44.7237 33.8273 44.873 33.398 44.957C32.9687 45.041 32.5113 45.083 32.026 45.083C31.438 45.083 30.8873 44.985 30.374 44.789C29.8607 44.5837 29.4127 44.2757 29.03 43.865C28.6473 43.4544 28.344 42.9317 28.12 42.297C27.896 41.653 27.784 40.8924 27.784 40.015C27.784 39.1004 27.9053 38.3257 28.148 37.691C28.4 37.047 28.7267 36.5244 29.128 36.123C29.5387 35.7124 29.996 35.4137 30.5 35.227C31.004 35.0404 31.5173 34.947 32.04 34.947C32.6 34.947 33.0573 34.9797 33.412 35.045C33.7667 35.101 34.07 35.1804 34.322 35.283L34.042 36.305C33.594 36.0904 32.9547 35.983 32.124 35.983C31.7413 35.983 31.3633 36.053 30.99 36.193C30.6167 36.333 30.2807 36.5617 29.982 36.879C29.6927 37.1964 29.4593 37.6117 29.282 38.125C29.1047 38.6384 29.016 39.2684 29.016 40.015C29.016 40.687 29.1 41.275 29.268 41.779C29.436 42.283 29.6647 42.703 29.954 43.039C30.2527 43.375 30.598 43.627 30.99 43.795C31.3913 43.963 31.8253 44.047 32.292 44.047C32.712 44.047 33.076 44.005 33.384 43.921C33.7013 43.837 33.9673 43.7297 34.182 43.599L34.462 44.509ZM35.1919 41.415C35.1919 40.2297 35.4532 39.3244 35.9759 38.699C36.5079 38.0644 37.2685 37.747 38.2579 37.747C38.7805 37.747 39.2332 37.8357 39.6159 38.013C40.0079 38.181 40.3299 38.4284 40.5819 38.755C40.8339 39.0724 41.0205 39.4597 41.1419 39.917C41.2632 40.365 41.3239 40.8644 41.3239 41.415C41.3239 42.6004 41.0579 43.5104 40.5259 44.145C40.0032 44.7704 39.2472 45.083 38.2579 45.083C37.7352 45.083 37.2779 44.999 36.8859 44.831C36.5032 44.6537 36.1859 44.4064 35.9339 44.089C35.6819 43.7624 35.4952 43.375 35.3739 42.927C35.2525 42.4697 35.1919 41.9657 35.1919 41.415ZM36.3539 41.415C36.3539 41.7697 36.3865 42.1104 36.4519 42.437C36.5265 42.7637 36.6385 43.0484 36.7879 43.291C36.9372 43.5337 37.1332 43.7297 37.3759 43.879C37.6185 44.0284 37.9125 44.103 38.2579 44.103C39.5272 44.1124 40.1619 43.2164 40.1619 41.415C40.1619 41.051 40.1245 40.7057 40.0499 40.379C39.9845 40.0524 39.8772 39.7677 39.7279 39.525C39.5785 39.2824 39.3825 39.091 39.1399 38.951C38.8972 38.8017 38.6032 38.727 38.2579 38.727C36.9885 38.7177 36.3539 39.6137 36.3539 41.415ZM44.3357 43.193C44.3357 43.5197 44.3917 43.753 44.5037 43.893C44.6157 44.033 44.7744 44.103 44.9797 44.103C45.1011 44.103 45.2317 44.0937 45.3717 44.075C45.5117 44.0564 45.6704 44.0144 45.8477 43.949L45.9737 44.831C45.8244 44.9057 45.6144 44.9664 45.3437 45.013C45.0824 45.0597 44.8537 45.083 44.6577 45.083C44.2377 45.083 43.8924 44.9664 43.6217 44.733C43.3511 44.4904 43.2157 44.0844 43.2157 43.515V35.115H44.3357V43.193ZM47.1776 35.115H48.2976V38.601H48.3536C48.5683 38.3304 48.8389 38.1204 49.1656 37.971C49.5016 37.8217 49.8656 37.747 50.2576 37.747C51.1629 37.747 51.8396 38.0364 52.2876 38.615C52.7449 39.1937 52.9736 40.0897 52.9736 41.303C52.9736 42.5257 52.6749 43.4544 52.0776 44.089C51.4803 44.7237 50.6403 45.041 49.5576 45.041C49.0349 45.041 48.5589 44.985 48.1296 44.873C47.7096 44.761 47.3923 44.6397 47.1776 44.509V35.115ZM50.0616 38.727C49.5949 38.727 49.2169 38.8577 48.9276 39.119C48.6383 39.3804 48.4283 39.749 48.2976 40.225V43.753C48.4749 43.8557 48.6896 43.935 48.9416 43.991C49.1936 44.0377 49.4549 44.061 49.7256 44.061C50.3603 44.061 50.8643 43.837 51.2376 43.389C51.6203 42.941 51.8116 42.241 51.8116 41.289C51.8116 40.925 51.7789 40.5844 51.7136 40.267C51.6483 39.9497 51.5456 39.679 51.4056 39.455C51.2656 39.231 51.0836 39.0537 50.8596 38.923C50.6449 38.7924 50.3789 38.727 50.0616 38.727ZM54.6262 38.433C54.9808 38.2184 55.3915 38.0597 55.8582 37.957C56.3342 37.8544 56.8288 37.803 57.3422 37.803C57.8275 37.803 58.2148 37.8684 58.5042 37.999C58.8028 38.1297 59.0268 38.3024 59.1762 38.517C59.3348 38.7224 59.4375 38.951 59.4842 39.203C59.5402 39.455 59.5682 39.707 59.5682 39.959C59.5682 40.519 59.5542 41.065 59.5262 41.597C59.4982 42.129 59.4842 42.633 59.4842 43.109C59.4842 43.4544 59.4982 43.781 59.5262 44.089C59.5542 44.397 59.6055 44.6817 59.6802 44.943H58.8542L58.5602 43.963H58.4902C58.4062 44.0937 58.2988 44.2244 58.1682 44.355C58.0468 44.4764 57.8975 44.5884 57.7202 44.691C57.5428 44.7844 57.3375 44.8637 57.1042 44.929C56.8708 44.9944 56.6048 45.027 56.3062 45.027C56.0075 45.027 55.7275 44.9804 55.4662 44.887C55.2142 44.7937 54.9948 44.663 54.8082 44.495C54.6215 44.3177 54.4722 44.1077 54.3602 43.865C54.2575 43.6224 54.2062 43.347 54.2062 43.039C54.2062 42.6284 54.2902 42.2877 54.4582 42.017C54.6262 41.737 54.8595 41.5177 55.1582 41.359C55.4662 41.191 55.8302 41.0744 56.2502 41.009C56.6795 40.9344 57.1508 40.897 57.6642 40.897C57.7948 40.897 57.9208 40.897 58.0422 40.897C58.1728 40.897 58.3035 40.9064 58.4342 40.925C58.4622 40.645 58.4762 40.393 58.4762 40.169C58.4762 39.6557 58.3735 39.2964 58.1682 39.091C57.9628 38.8857 57.5895 38.783 57.0482 38.783C56.8895 38.783 56.7168 38.797 56.5302 38.825C56.3528 38.8437 56.1662 38.8764 55.9702 38.923C55.7835 38.9604 55.6015 39.0117 55.4242 39.077C55.2562 39.133 55.1068 39.1984 54.9762 39.273L54.6262 38.433ZM56.6142 44.047C56.8755 44.047 57.1088 44.0144 57.3142 43.949C57.5195 43.8744 57.6968 43.7857 57.8462 43.683C57.9955 43.571 58.1168 43.4497 58.2102 43.319C58.3128 43.1884 58.3875 43.0624 58.4342 42.941V41.779C58.3035 41.7697 58.1682 41.765 58.0282 41.765C57.8975 41.7557 57.7668 41.751 57.6362 41.751C57.3468 41.751 57.0622 41.7697 56.7822 41.807C56.5115 41.835 56.2688 41.8957 56.0542 41.989C55.8488 42.073 55.6808 42.1944 55.5502 42.353C55.4288 42.5024 55.3682 42.6937 55.3682 42.927C55.3682 43.2537 55.4848 43.5244 55.7182 43.739C55.9515 43.9444 56.2502 44.047 56.6142 44.047Z" fill="black"/>
<path d="M17.9996 51.9149C11.5996 68.7149 37.6662 75.2483 51.4996 76.4149C58.9991 77.4259 51.4996 67.415 60 68.915C68.5004 70.415 92.5 47.9149 74.5 22.4149C56.5 -3.08507 17.9996 5.91493 5.4977 17.4149C-7.00418 28.9149 25.9996 30.9149 17.9996 51.9149Z" fill="#DCCBFF"/>
<g filter="url(#filter0_d)">
<path fill-rule="evenodd" clip-rule="evenodd" d="M35.1114 38.8983L45.0028 42.6234C45.5505 42.8297 45.9864 43.2628 46.1995 43.8121C46.4126 44.3613 46.3859 44.9781 46.1257 45.5069L42.2829 53.2843L56.042 43.2243L46.1505 39.4992C45.6028 39.2929 45.167 38.8599 44.9539 38.3106C44.7388 37.7606 44.7656 37.1438 45.0277 36.6157L48.8697 28.8403L35.1114 38.8983ZM35.9714 61.8949C35.7515 61.8121 35.5434 61.6915 35.3548 61.5294C34.6351 60.9071 34.4242 59.8675 34.8485 59.0115L41.4195 45.7199L30.0681 41.445C29.3565 41.177 28.8483 40.5344 28.7459 39.7734C28.6442 39.0105 28.9661 38.2537 29.5817 37.8032L53.2595 20.4937C54.0267 19.9291 55.0734 19.9721 55.7952 20.5951C56.5176 21.2161 56.7277 22.2577 56.3035 23.1137L49.7332 36.4033L61.0845 40.6782C61.7962 40.9462 62.3036 41.5908 62.406 42.3518C62.5077 43.1147 62.1865 43.8695 61.571 44.3201L37.8925 61.6315C37.3242 62.0488 36.6001 62.1317 35.9714 61.8949Z" fill="#231F20"/>
<mask id="mask0" mask-type="alpha" maskUnits="userSpaceOnUse" x="28" y="20" width="35" height="43">
<path fill-rule="evenodd" clip-rule="evenodd" d="M35.1114 38.8983L45.0028 42.6234C45.5505 42.8297 45.9864 43.2628 46.1995 43.8121C46.4126 44.3613 46.3859 44.9781 46.1257 45.5069L42.2829 53.2843L56.042 43.2243L46.1505 39.4992C45.6028 39.2929 45.167 38.8599 44.9539 38.3106C44.7388 37.7606 44.7656 37.1438 45.0277 36.6157L48.8697 28.8403L35.1114 38.8983ZM35.9714 61.8949C35.7515 61.8121 35.5434 61.6915 35.3548 61.5294C34.6351 60.9071 34.4242 59.8675 34.8485 59.0115L41.4195 45.7199L30.0681 41.445C29.3565 41.177 28.8483 40.5344 28.7459 39.7734C28.6442 39.0105 28.9661 38.2537 29.5817 37.8032L53.2595 20.4937C54.0267 19.9291 55.0734 19.9721 55.7952 20.5951C56.5176 21.2161 56.7277 22.2577 56.3035 23.1137L49.7332 36.4033L61.0845 40.6782C61.7962 40.9462 62.3036 41.5908 62.406 42.3518C62.5077 43.1147 62.1865 43.8695 61.571 44.3201L37.8925 61.6315C37.3242 62.0488 36.6001 62.1317 35.9714 61.8949Z" fill="white"/>
</mask>
<g mask="url(#mask0)">
<rect width="49.4581" height="49.9254" transform="matrix(0.935836 0.352436 -0.344827 0.938666 31.0417 8.91504)" fill="#6332CD"/>
</g>
</g>
<line x1="35.4672" y1="22.8458" x2="51.9308" y2="12.4478" stroke="white" stroke-width="3" stroke-linecap="round" stroke-linejoin="round"/>
<line x1="23.3487" y1="22.8226" x2="27.9075" y2="19.5663" stroke="white" stroke-width="3" stroke-linecap="round" stroke-linejoin="round"/>
<line x1="61.3487" y1="55.8226" x2="65.9075" y2="52.5663" stroke="white" stroke-width="3" stroke-linecap="round" stroke-linejoin="round"/>
<defs>
<filter id="filter0_d" x="9.82602" y="8.91504" width="71.5003" height="72.2941" filterUnits="userSpaceOnUse" color-interpolation-filters="sRGB">
<feFlood flood-opacity="0" result="BackgroundImageFix"/>
<feColorMatrix in="SourceAlpha" type="matrix" values="0 0 0 0 0 0 0 0 0 0 0 0 0 0 0 0 0 0 127 0"/>
<feOffset dy="4"/>
<feGaussianBlur stdDeviation="2"/>
<feColorMatrix type="matrix" values="0 0 0 0 0.388235 0 0 0 0 0.196078 0 0 0 0 0.803922 0 0 0 0.4 0"/>
<feBlend mode="normal" in2="BackgroundImageFix" result="effect1_dropShadow"/>
<feBlend mode="normal" in="SourceGraphic" in2="effect1_dropShadow" result="shape"/>
</filter>
</defs>
</svg>
