<?xml version="1.0" standalone="no"?>
<!DOCTYPE svg PUBLIC "-//W3C//DTD SVG 1.1//EN" "http://www.w3.org/Graphics/SVG/1.1/DTD/svg11.dtd" >
<svg xmlns="http://www.w3.org/2000/svg">
<metadata>Generated by IcoMoon</metadata>
<defs>
<font id="icomoon" horiz-adv-x="1024">
<font-face units-per-em="1024" ascent="960" descent="-64" />
<missing-glyph horiz-adv-x="1024" />
<glyph unicode="&#x20;" horiz-adv-x="512" d="" />
<glyph unicode="&#x94;" glyph-name="link" d="M910.222 106.667v341.333c0 31.403 25.429 56.889 56.889 56.889s56.889-25.486 56.889-56.889v-341.333c0-94.094-76.572-170.667-170.667-170.667h-682.667c-94.094 0-170.667 76.572-170.667 170.667v682.667c0 94.094 76.572 170.667 170.667 170.667h341.333c31.46 0 56.889-25.486 56.889-56.889s-25.429-56.889-56.889-56.889h-341.333c-31.403 0-56.889-25.543-56.889-56.889v-682.667c0-31.346 25.486-56.889 56.889-56.889h682.667c31.403 0 56.889 25.543 56.889 56.889zM829.332 845.767l-90.055 0.455c-31.46 0.171-56.775 25.771-56.604 57.173 0.171 31.346 25.6 56.604 56.889 56.604h0.284l227.385-1.138c31.289-0.171 56.604-25.543 56.604-56.832l0.171-226.418c0-31.46-25.429-56.946-56.832-56.946h-0.057c-31.403 0-56.889 25.429-56.889 56.832l-0.057 90.226-357.945-357.945c-11.093-11.093-25.657-16.668-40.22-16.668s-29.127 5.575-40.22 16.668c-22.244 22.244-22.244 58.197 0 80.441l357.547 357.547z" />
<glyph unicode="&#xe900;" glyph-name="Group-4539-2" d="M788.48 38.4c-378.317 0-686.080 307.814-686.080 686.080 0 73.421 59.699 133.12 133.12 133.12 5.581 0 11.11-0.358 16.742-1.075l54.323-236.595c-6.723-3.497-13.917-7.26-20.934-10.93l-6.611-3.458c-44.134-23.040-78.95-41.267-60.672-81.459 60.211-171.315 198.4-309.555 367.667-368.947 43.126-17.28 59.858 14.72 82.995 58.962l0.307 0.584c2.657 5.038 5.396 10.291 8.11 15.498 2.196 4.214 4.372 8.397 6.482 12.406l236.544-54.272c0.768-5.53 1.126-11.11 1.126-16.794 0-73.421-59.699-133.12-133.12-133.12zM1011.251 247.91c-5.786 16.64-19.712 29.133-36.915 33.075l-305.357 70.093c-16.845 3.789-34.458-0.973-46.899-12.954-7.322-6.963-7.475-7.168-40.755-70.707-109.056 49.664-198.4 138.701-249.805 250.010 63.437 33.229 63.59 33.382 70.605 40.653 11.981 12.493 16.794 30.106 12.954 46.899l-70.093 305.357c-3.942 17.203-16.486 31.181-33.126 36.966-12.186 4.198-24.73 7.373-37.12 9.37-12.749 2.202-25.907 3.328-39.219 3.328-129.894 0-235.52-105.626-235.52-235.52 0-434.79 353.69-788.48 788.48-788.48 129.843 0 235.52 105.626 235.52 235.52 0 13.21-1.178 26.266-3.328 38.963-2.048 12.8-5.222 25.344-9.421 37.427zM563.18 652.8c84.685 0 153.6-68.915 153.6-153.6 0-28.314 22.886-51.2 51.2-51.2s51.2 22.886 51.2 51.2c0 141.158-114.842 256-256 256-28.262 0-51.2-22.886-51.2-51.2s22.938-51.2 51.2-51.2zM921.58 499.2c0 197.581-160.819 358.4-358.4 358.4-28.262 0-51.2 22.886-51.2 51.2s22.938 51.2 51.2 51.2c254.106 0 460.8-206.694 460.8-460.8 0-28.314-22.886-51.2-51.2-51.2s-51.2 22.886-51.2 51.2z" />
<glyph unicode="&#xe901;" glyph-name="123222" horiz-adv-x="576" d="M532.773 959.787l-132.788 0.213c-149.183 0-245.592-98.912-245.592-252.005v-116.191h-133.513c-11.537 0-20.88-9.353-20.88-20.89v-168.348c0-11.537 9.353-20.879 20.88-20.879h133.513v-424.796c0-11.539 9.343-20.877 20.88-20.877h174.196c11.537 0 20.879 9.35 20.879 20.877v424.796h156.108c11.537 0 20.879 9.343 20.879 20.879l0.064 168.348c0 5.539-2.205 10.845-6.115 14.765s-9.236 6.125-14.776 6.125h-156.161v98.497c0 47.341 11.282 71.375 72.952 71.375l89.452 0.032c11.526 0 20.869 9.353 20.869 20.879v156.321c0 11.516-9.332 20.858-20.848 20.88z" />
<glyph unicode="&#xe902;" glyph-name="1222" horiz-adv-x="1638" d="M1629.716 71.191c-1.987 4.275-3.84 7.822-5.55 10.664-28.426 51.196-82.749 114.036-162.939 188.538l-1.69 1.706-0.85 0.837-0.86 0.857h-0.86c-36.393 34.692-59.433 58.018-69.089 69.96-17.654 22.75-21.606 45.777-11.96 69.109 6.82 17.628 32.43 54.857 76.78 111.736 23.327 30.145 41.8 54.304 55.439 72.505 98.396 130.808 141.046 214.395 127.959 250.796l-5.079 8.506c-3.41 5.121-12.227 9.806-26.429 14.078-14.234 4.264-32.43 4.969-54.61 2.127l-245.678-1.697c-3.973 1.41-9.656 1.279-17.060-0.43-7.393-1.709-11.1-2.567-11.1-2.567l-4.27-2.136-3.4-2.567c-2.836-1.697-5.97-4.682-9.38-8.949-3.4-4.252-6.246-9.241-8.509-14.927-26.747-68.813-57.16-132.791-91.29-191.932-21.043-35.265-40.366-65.828-58.020-91.705-17.623-25.868-32.41-44.928-44.349-57.144-11.95-12.23-22.733-22.026-32.42-29.428-9.671-7.404-17.054-10.532-22.166-9.388-5.124 1.145-9.949 2.28-14.518 3.416-7.956 5.121-14.356 12.085-19.182 20.899-4.847 8.815-8.109 19.909-9.815 33.273-1.697 13.373-2.701 24.877-2.988 34.549-0.266 9.659-0.143 23.323 0.433 40.951 0.592 17.637 0.858 29.57 0.858 35.827 0 21.615 0.421 45.071 1.267 70.378 0.86 25.307 1.556 45.358 2.139 60.13 0.58 14.787 0.849 30.431 0.849 46.924s-1.005 29.427-2.988 38.815c-1.96 9.376-4.969 18.477-8.933 27.3-3.99 8.814-9.827 15.632-17.488 20.473-7.676 4.834-17.22 8.671-28.576 11.521-30.145 6.821-68.529 10.511-115.172 11.085-105.772 1.135-173.736-5.695-203.877-20.482-11.942-6.248-22.749-14.784-32.412-25.582-10.239-12.516-11.667-19.347-4.276-20.47 34.128-5.112 58.287-17.341 72.506-36.676l5.124-10.245c3.985-7.392 7.966-20.479 11.948-39.242 3.977-18.764 6.543-39.52 7.673-62.257 2.839-41.522 2.839-77.065 0-106.633-2.848-29.579-5.537-52.607-8.103-69.1s-6.403-29.857-11.518-40.091c-5.124-10.236-8.533-16.493-10.242-18.764-1.706-2.27-3.128-3.702-4.258-4.263-7.392-2.832-15.079-4.276-23.037-4.276-7.968 0-17.631 3.986-29.003 11.951-11.368 7.966-23.167 18.907-35.397 32.843-12.229 13.938-26.021 33.416-41.381 58.436-15.349 25.020-31.274 54.59-47.767 88.712l-13.646 24.745c-8.53 15.919-20.183 39.098-34.97 69.517-14.796 30.431-27.873 59.867-39.242 88.303-4.545 11.942-11.372 21.034-20.47 27.291l-4.27 2.567c-2.839 2.271-7.394 4.682-13.645 7.251-6.26 2.567-12.791 4.407-19.622 5.539l-233.734-1.697c-23.885 0-40.091-5.411-48.624-16.217l-3.415-5.113c-1.706-2.847-2.567-7.394-2.567-13.654 0-6.257 1.706-13.936 5.121-23.028 34.121-80.193 71.227-157.533 111.318-232.031s74.928-134.509 104.493-179.978c29.57-45.501 59.711-88.445 90.423-128.811 30.712-40.38 51.041-66.258 60.988-77.626 9.958-11.39 17.78-19.905 23.466-25.591l21.33-20.47c13.649-13.651 33.691-30 60.136-49.048 26.451-19.060 55.734-37.823 87.865-56.321 32.137-18.468 69.524-33.538 112.181-45.194 42.652-11.667 84.165-16.349 124.545-14.090h98.102c19.896 1.718 34.97 7.975 45.215 18.772l3.395 4.276c2.282 3.394 4.419 8.667 6.391 15.763 1.996 7.109 2.988 14.939 2.988 23.458-0.583 24.449 1.278 46.484 5.533 66.102 4.252 19.613 9.098 34.399 14.518 44.358 5.417 9.949 11.53 18.345 18.334 25.151 6.818 6.821 11.677 10.954 14.526 12.375 2.832 1.432 5.094 2.402 6.8 2.985 13.652 4.548 29.708 0.143 48.212-13.233 18.483-13.364 35.82-29.866 52.040-49.478 16.21-19.63 35.686-41.653 58.429-66.103 22.753-24.458 42.66-42.639 59.709-54.6l17.060-10.236c11.387-6.83 26.173-13.087 44.37-18.773 18.176-5.682 34.089-7.105 47.759-4.263l218.378 3.406c21.596 0 38.4 3.577 50.319 10.672 11.95 7.109 19.046 14.939 21.33 23.458 2.284 8.527 2.406 18.202 0.44 29.018-2.028 10.789-4.014 18.333-6.001 22.597z" />
<glyph unicode="&#xe903;" glyph-name="Group-4550" d="M704 960h-384c-176.704 0-320-143.296-320-320v-384c0-176.704 143.296-320 320-320h384c176.704 0 320 143.296 320 320v384c0 176.704-143.296 320-320 320zM928 256c0-123.52-100.48-224-224-224h-384c-123.52 0-224 100.48-224 224v384c0 123.52 100.48 224 224 224h384c123.52 0 224-100.48 224-224v-384zM512 704c-141.376 0-256-114.624-256-256s114.624-256 256-256c141.376 0 256 114.624 256 256s-114.624 256-256 256zM512 288c-88.192 0-160 71.808-160 160 0 88.256 71.808 160 160 160s160-71.744 160-160c0-88.192-71.808-160-160-160z" />
<glyph unicode="&#xe904;" glyph-name="arrow1" horiz-adv-x="1463" d="M731.43 9.141c-37.449 0-74.898 14.336-103.424 42.862l-585.143 585.143c-57.198 57.198-57.198 149.65 0 206.849s149.651 57.198 206.849 0l483.474-483.475 481.719 465.189c58.368 56.027 150.674 54.418 206.848-3.657 56.172-58.076 54.563-150.821-3.511-206.849l-585.143-564.955c-28.526-27.502-65.097-41.106-101.669-41.106z" />
<glyph unicode="&#xe905;" glyph-name="arrow2" d="M654.726 932.717l353.132-438.857c21.87-27.136 21.504-65.902-0.805-92.672l-365.711-438.857c-14.482-17.335-35.256-26.331-56.247-26.331-16.458 0-33.061 5.559-46.739 16.969-31.085 25.819-35.255 71.973-9.362 102.985l327.385 392.85-315.682 392.192c-25.307 31.451-20.333 77.531 11.191 102.839 31.452 25.381 77.458 20.334 102.839-11.118zM39.88 943.835c31.451 25.307 77.458 20.334 102.838-11.118l353.134-438.857c21.797-27.136 21.504-65.902-0.805-92.672l-365.714-438.857c-14.482-17.335-35.255-26.331-56.246-26.331-16.457 0-33.061 5.559-46.738 16.969-31.086 25.819-35.255 71.973-9.362 102.985l327.314 392.85-315.611 392.192c-25.307 31.451-20.261 77.531 11.191 102.839z" />
<glyph unicode="&#xe906;" glyph-name="calendar" horiz-adv-x="922" d="M204.8 243.2c0 28.16 23.040 51.2 51.2 51.2s51.2-23.040 51.2-51.2c0-28.16-23.040-51.2-51.2-51.2s-51.2 23.040-51.2 51.2zM460.8 294.4h204.8c28.16 0 51.2-23.040 51.2-51.2s-23.040-51.2-51.2-51.2h-204.8c-28.16 0-51.2 23.040-51.2 51.2s23.040 51.2 51.2 51.2zM768 38.4h-614.4c-28.211 0-51.2 22.989-51.2 51.2v307.2h716.8v-307.2c0-28.211-22.989-51.2-51.2-51.2zM153.6 755.2h51.2v-51.2c0-28.16 23.040-51.2 51.2-51.2s51.2 23.040 51.2 51.2v51.2h307.2v-51.2c0-28.16 23.040-51.2 51.2-51.2s51.2 23.040 51.2 51.2v51.2h51.2c28.211 0 51.2-22.989 51.2-51.2v-204.8h-716.8v204.8c0 28.211 22.989 51.2 51.2 51.2zM768 857.6h-51.2v51.2c0 28.16-23.040 51.2-51.2 51.2s-51.2-23.040-51.2-51.2v-51.2h-307.2v51.2c0 28.16-23.040 51.2-51.2 51.2s-51.2-23.040-51.2-51.2v-51.2h-51.2c-84.685 0-153.6-68.915-153.6-153.6v-614.4c0-84.685 68.915-153.6 153.6-153.6h614.4c84.685 0 153.6 68.915 153.6 153.6v614.4c0 84.685-68.915 153.6-153.6 153.6z" />
<glyph unicode="&#xe907;" glyph-name="edit-2" horiz-adv-x="1138" d="M568.875 960.007c146.832 0 276.198-94.493 322.847-230.116 138.752-18.83 246.044-138.069 246.044-281.884 0-69.462-25.259-136.307-71.111-188.246-11.264-12.686-26.908-19.228-42.667-19.228-13.369 0-26.795 4.665-37.66 14.222-23.495 20.878-25.771 56.775-4.949 80.384 27.477 31.061 42.61 71.226 42.61 112.869 0 94.094-76.572 170.667-170.667 170.667h-5.689c-27.079 0-50.404 19.115-55.751 45.682-21.276 105.358-115.029 181.874-223.007 181.874-107.918 0-201.728-76.516-222.948-181.874-5.348-26.567-28.729-45.682-55.808-45.682h-5.689c-94.094 0-170.667-76.572-170.667-170.667 0-41.643 15.132-81.807 42.667-112.869 20.764-23.609 18.546-59.506-5.006-80.384-23.609-20.821-59.506-18.489-80.27 5.006-45.91 51.94-71.168 118.784-71.168 188.246 0 143.815 107.293 263.054 246.045 281.884 46.706 135.623 176.071 230.116 322.844 230.116zM625.789 126.93l74.24 71.68c22.642 21.788 58.652 21.163 80.441-1.422 21.845-22.642 21.22-58.652-1.365-80.441l-170.667-164.807c-11.093-10.581-25.316-15.929-39.538-15.929-14.566 0-29.129 5.518-40.223 16.668l-170.667 170.667c-22.244 22.187-22.244 58.197 0 80.441 22.187 22.187 58.197 22.187 80.441 0l73.557-73.557v317.782c0 31.46 25.486 56.889 56.891 56.889 31.403 0 56.889-25.429 56.889-56.889v-321.082z" />
<glyph unicode="&#xe908;" glyph-name="email" horiz-adv-x="1280" d="M1088 64h-896c-35.264 0-64 28.672-64 64v624l473.6-355.2c11.392-8.576 24.896-12.8 38.4-12.8s27.008 4.224 38.4 12.8l473.6 355.2v-624c0-35.328-28.736-64-64-64zM1045.312 832l-405.312-304-405.312 304h810.624zM1088 960h-896c-105.856 0-192-86.144-192-192v-640c0-105.856 86.144-192 192-192h896c105.856 0 192 86.144 192 192v640c0 105.856-86.144 192-192 192z" />
<glyph unicode="&#xe909;" glyph-name="edit-21" horiz-adv-x="819" d="M408.737 687.469l-287.59-287.592-13.517-151.347 152.422 13.875 286.718 287.029-138.033 138.035zM715.064 717.882l-137.984 137.933-99.736-99.738 137.982-138.035 99.738 99.84zM55.866 141.010c-1.587-0.154-3.123-0.205-4.659-0.205-13.517 0-26.573 5.325-36.198 15.002-10.752 10.752-16.179 25.702-14.797 40.806l19.405 213.555c2.15 23.398 12.493 45.467 29.133 62.107l460.595 460.647c35.94 36.045 101.169 34.253 139.057-3.584l140.237-140.185c39.219-39.27 40.755-101.581 3.482-138.957l-460.644-460.648c-16.64-16.691-38.656-26.982-62.106-29.133l-213.504-19.405zM51.2 38.4h716.8c28.16 0 51.2-23.040 51.2-51.2s-23.040-51.2-51.2-51.2h-716.8c-28.16 0-51.2 23.040-51.2 51.2s23.040 51.2 51.2 51.2z" />
<glyph unicode="&#xe90a;" glyph-name="paper-plane" d="M665.6 149.1l-95.027 285.030 285.082 285.133-190.054-570.163zM783.258 791.66l-285.082-285.082-285.082 95.027 570.163 190.054zM1023.488 911.468c-0.256 4.762-1.126 9.37-2.714 13.824-0.512 1.587-1.075 3.123-1.792 4.659-2.458 5.478-5.581 10.65-9.984 15.053s-9.574 7.526-15.104 9.984c-1.485 0.717-2.97 1.28-4.557 1.792-4.557 1.587-9.216 2.509-14.080 2.765-1.126 0.051-2.15 0.307-3.328 0.307-5.12-0.102-10.291-0.819-15.309-2.458l-921.6-307.2c-20.941-7.014-35.021-26.522-35.021-48.589s14.080-41.626 35.021-48.589l436.48-145.51 145.562-436.531c6.963-20.89 26.47-34.97 48.538-34.97s41.574 14.080 48.538 34.97l307.2 921.6c1.638 5.069 2.406 10.189 2.458 15.309 0.051 1.229-0.256 2.355-0.307 3.584z" />
<glyph unicode="&#xe90b;" glyph-name="slash" d="M102.4 448c0 94.515 32.512 181.35 86.426 250.726l573.901-573.901c-69.376-53.965-156.211-86.426-250.726-86.426-225.843 0-409.6 183.757-409.6 409.6zM921.6 448c0-94.515-32.512-181.35-86.426-250.726l-573.901 573.901c69.376 53.965 156.211 86.426 250.726 86.426 225.843 0 409.6-183.757 409.6-409.6zM512 960c-282.317 0-512-229.683-512-512s229.683-512 512-512c282.317 0 512 229.683 512 512s-229.683 512-512 512z" />
<glyph unicode="&#xe90c;" glyph-name="youtube" horiz-adv-x="1390" d="M1092.070 929.415h-794.529c-155.885 0-282.255-126.37-282.255-282.256v-397.179c0-155.886 126.37-282.258 282.255-282.258h794.529c155.886 0 282.258 126.373 282.258 282.258v397.179c0 155.886-126.373 282.256-282.258 282.256zM901.186 429.246l-371.628-177.243c-9.904-4.725-21.343 2.494-21.343 13.466v365.566c0 11.126 11.739 18.337 21.661 13.307l371.628-188.321c11.052-5.599 10.858-21.445-0.318-26.774z" />
<glyph unicode="&#xe90d;" glyph-name="telega" horiz-adv-x="1144" d="M32.357 470.501l257.888-96.253 99.817-321.015c6.388-20.561 31.53-28.16 48.218-14.517l143.749 117.188c15.071 12.279 36.533 12.89 52.278 1.461l259.277-188.241c17.854-12.975 43.144-3.192 47.619 18.378l189.934 913.615c4.888 23.563-18.266 43.22-40.701 34.543l-1058.382-408.293c-26.119-10.071-25.891-47.050 0.302-56.865zM373.977 425.487l504.010 310.419c9.059 5.562 18.378-6.686 10.598-13.9l-415.952-386.649c-14.622-13.61-24.052-31.825-26.723-51.595l-14.17-105.002c-1.876-14.020-21.57-15.411-25.44-1.843l-54.495 191.479c-6.24 21.838 2.855 45.167 22.173 57.091z" />
<glyph unicode="&#xe90e;" glyph-name="block" horiz-adv-x="819" d="M409.6 243.2c-28.262 0-51.2 22.938-51.2 51.2s22.938 51.2 51.2 51.2c28.262 0 51.2-22.938 51.2-51.2s-22.938-51.2-51.2-51.2zM409.6 448c-84.685 0-153.6-68.915-153.6-153.6s68.915-153.6 153.6-153.6c84.685 0 153.6 68.915 153.6 153.6s-68.915 153.6-153.6 153.6zM716.8 89.6c0-28.262-22.938-51.2-51.2-51.2h-512c-28.262 0-51.2 22.938-51.2 51.2v409.6c0 28.262 22.938 51.2 51.2 51.2h512c28.262 0 51.2-22.938 51.2-51.2v-409.6zM307.2 749.517c0 59.597 45.926 108.083 102.4 108.083s102.4-48.486 102.4-108.083v-96.717h-204.8v96.717zM665.6 652.8h-51.2v96.717c0 116.019-91.853 210.483-204.8 210.483s-204.8-94.464-204.8-210.483v-96.717h-51.2c-84.685 0-153.6-68.915-153.6-153.6v-409.6c0-84.685 68.915-153.6 153.6-153.6h512c84.685 0 153.6 68.915 153.6 153.6v409.6c0 84.685-68.915 153.6-153.6 153.6z" />
<glyph unicode="&#xe90f;" glyph-name="load" d="M984.348 366.888c-29.924 9.5-61.895-7.054-71.452-36.978-53.305-167.595-210.204-280.121-390.428-280.121-225.394 0-408.69 178.631-408.69 398.224 0 219.534 183.296 398.222 408.69 398.222 98.304 0 191.033-34.247 264.249-95.004l-123.221 20.309c-31.289 5.689-60.302-15.872-65.422-46.82-5.12-31.004 15.872-60.302 46.876-65.365l241.55-39.936c3.129-0.512 6.315-0.74 9.33-0.74 6.77 0 13.369 1.195 19.513 3.47 2.105 0.796 3.812 2.276 5.86 3.356 3.755 1.934 7.68 3.641 10.923 6.372 2.048 1.65 3.356 4.039 5.12 5.973 2.674 2.788 5.518 5.461 7.509 8.875 1.422 2.446 1.991 5.348 3.072 8.078 1.365 3.356 3.186 6.485 3.868 10.183l42.894 227.556c5.803 30.891-14.507 60.701-45.397 66.446-30.777 5.575-60.644-14.507-66.446-45.34l-15.474-81.977c-94.663 81.977-216.007 128.342-344.804 128.342-288.085 0-522.468-229.661-522.468-512 0-282.342 234.382-512.002 522.468-512.002 229.945 0 430.421 144.441 498.859 359.424 9.5 29.924-7.054 61.895-36.978 71.452z" />
<glyph unicode="&#xe910;" glyph-name="corner-up-right" horiz-adv-x="1097" d="M1081.125 566.815l-292.571 365.714c-25.381 31.525-71.314 36.718-102.839 11.41-31.525-25.161-36.645-71.241-11.41-102.766l197.559-246.93h-652.434c-121.051 0-219.429-98.377-219.429-219.429v-365.716c0-40.375 32.768-73.143 73.143-73.143s73.143 32.768 73.143 73.143v365.716c0 40.375 32.768 73.143 73.143 73.143h652.434l-197.559-246.859c-25.234-31.525-20.114-77.605 11.41-102.766 13.458-10.825 29.623-16.091 45.641-16.091 21.504 0 42.715 9.435 57.198 27.502l292.571 365.716c21.358 26.697 21.358 64.658 0 91.355z" />
<glyph unicode="&#xe911;" glyph-name="picture" d="M1006.345 854.069h-988.69c-9.746 0-17.655-7.892-17.655-17.655v-776.828c0-9.763 7.91-17.655 17.655-17.655h988.69c9.746 0 17.655 7.892 17.655 17.655v776.828c0 9.763-7.91 17.655-17.655 17.655zM988.69 77.241h-953.379v741.517h953.379v-741.517zM282.483 463.219c54.219 0 98.322 44.103 98.322 98.304 0 54.237-44.103 98.339-98.322 98.339s-98.322-44.103-98.322-98.322c0-54.219 44.103-98.322 98.322-98.322zM282.483 624.552c34.745 0 63.011-28.284 63.011-63.011s-28.266-63.011-63.011-63.011-63.011 28.266-63.011 62.994 28.266 63.029 63.011 63.029zM123.586 147.862c4.131 0 8.298 1.448 11.652 4.396l288.009 253.564 181.884-181.866c6.903-6.903 18.061-6.903 24.964 0s6.903 18.061 0 24.964l-84.868 84.868 162.092 177.505 198.815-182.254c7.186-6.585 18.361-6.091 24.947 1.095s6.109 18.361-1.095 24.947l-211.862 194.207c-3.46 3.16-8.068 4.732-12.712 4.626-4.679-0.212-9.092-2.278-12.253-5.738l-172.915-189.387-83.738 83.738c-6.603 6.585-17.161 6.921-24.152 0.777l-300.438-264.527c-7.327-6.444-8.033-17.602-1.589-24.929 3.496-3.972 8.369-5.985 13.259-5.985z" />
<glyph unicode="&#xe912;" glyph-name="Mask" horiz-adv-x="1138" d="M910.222 561.778c0 31.346-25.486 56.889-56.889 56.889s-56.889-25.543-56.889-56.889c0-31.346 25.486-56.889 56.889-56.889s56.889 25.543 56.889 56.889zM1024 561.778c0-94.094-76.572-170.667-170.667-170.667s-170.667 76.572-170.667 170.667c0 94.094 76.572 170.667 170.667 170.667s170.667-76.572 170.667-170.667zM512 732.444c0 62.748-51.029 113.778-113.778 113.778s-113.778-51.029-113.778-113.778c0-62.748 51.029-113.778 113.778-113.778s113.778 51.029 113.778 113.778zM625.778 732.444c0-125.497-102.059-227.556-227.556-227.556s-227.556 102.059-227.556 227.556c0 125.497 102.059 227.556 227.556 227.556s227.556-102.059 227.556-227.556zM679.253 274.716c49.436 38.229 110.308 59.506 174.080 59.506 156.843 0 284.444-127.602 284.444-284.444 0-31.403-25.429-56.889-56.889-56.889s-56.889 25.486-56.889 56.889c0 94.094-76.572 170.667-170.667 170.667-38.855 0-75.776-13.312-105.586-36.921 30.948-56.661 48.697-121.628 48.697-190.635 0-31.403-25.429-56.889-56.889-56.889s-56.889 25.486-56.889 56.889c0 156.843-127.602 284.444-284.444 284.444s-284.444-127.602-284.444-284.444c0-31.403-25.429-56.889-56.889-56.889s-56.889 25.486-56.889 56.889c0 219.591 178.688 398.222 398.222 398.222 109.625 0 208.953-44.544 281.031-116.395z" />
<glyph unicode="&#xe913;" glyph-name="Mask1" horiz-adv-x="1081" d="M398.222 846.222c62.748 0 113.778-51.029 113.778-113.778s-51.029-113.778-113.778-113.778c-62.748 0-113.778 51.029-113.778 113.778s51.029 113.778 113.778 113.778zM398.222 504.889c125.497 0 227.556 102.059 227.556 227.556s-102.059 227.556-227.556 227.556c-125.497 0-227.556-102.059-227.556-227.556s102.059-227.556 227.556-227.556zM398.222 391.111c-219.534 0-398.222-178.631-398.222-398.222 0-31.403 25.429-56.889 56.889-56.889s56.889 25.486 56.889 56.889c0 156.843 127.602 284.444 284.444 284.444s284.444-127.602 284.444-284.444c0-31.403 25.429-56.889 56.889-56.889s56.889 25.486 56.889 56.889c0 219.591-178.688 398.222-398.222 398.222zM967.111 789.333h56.889c31.289 0 56.889-25.6 56.889-56.889s-25.6-56.889-56.889-56.889h-56.889v-56.889c0-31.289-25.6-56.889-56.889-56.889s-56.889 25.6-56.889 56.889v56.889h-56.889c-31.289 0-56.889 25.6-56.889 56.889s25.6 56.889 56.889 56.889h56.889v56.889c0 31.289 25.6 56.889 56.889 56.889s56.889-25.6 56.889-56.889v-56.889z" />
<glyph unicode="&#xe914;" glyph-name="Mask2" horiz-adv-x="478" d="M397.899-35.683c-19.934 0-39.731 8.711-53.248 25.58l-329.592 411.489c-20.343 25.444-20.070 61.792 0.751 86.893l341.333 411.486c24.098 29.078 67.174 32.987 96.188 8.778 28.945-24.209 32.836-67.484 8.67-96.562l-305.493-368.349 294.571-367.733c23.62-29.491 18.978-72.697-10.445-96.427-12.561-10.22-27.716-15.155-42.735-15.155z" />
<glyph unicode="&#xe915;" glyph-name="1" d="M960.115 958.387c35.2-0.192 63.68-28.736 63.68-63.936l0.192-318.4c0.064-35.328-28.608-64.064-63.936-64.064h-0.064c-35.328 0-63.936 28.672-64 63.936l-0.128 165.44-210.624-210.624c-12.48-12.48-28.864-18.752-45.248-18.752-16.32 0-32.704 6.272-45.248 18.752-24.96 25.024-24.96 65.536 0 90.496l209.92 209.92-164.928 0.832c-35.392 0.192-63.936 29.056-63.744 64.32s28.864 63.68 64 63.68h0.32l319.808-1.6zM338.752 365.27c25.024 25.024 65.472 25.024 90.496 0s25.024-65.472 0-90.496l-210.687-210.688 165.439-0.064c35.392 0 64-28.672 64-64.064-0.064-35.328-28.672-63.936-64-63.936l-318.463 0.192c-35.2 0-63.744 28.48-63.936 63.68l-1.6 319.808c-0.192 35.328 28.352 64.128 63.68 64.32h0.32c35.2 0 63.808-28.416 64-63.68l0.832-164.992 209.919 209.92z" />
</font>
</defs>
</svg>
