<svg width="227" height="421" viewBox="0 0 227 421" fill="none" xmlns="http://www.w3.org/2000/svg">
<path d="M121.834 95.2195C123.065 94.9713 123.733 93.8786 123.785 92.9099C123.444 91.701 122.265 90.9805 121.256 90.8644C120.025 91.1126 119.357 92.2054 119.305 93.1741C119.424 94.7473 120.603 95.4677 121.834 95.2195Z" fill="white"/>
<path d="M138.891 86.5034C140.137 86.2325 140.825 85.1056 140.891 84.1142C140.564 82.8826 139.384 82.1622 138.369 82.0575C137.124 82.3284 136.435 83.4551 136.369 84.4465C136.303 85.4379 137.646 86.7743 138.891 86.5034Z" fill="white"/>
<path d="M156.993 77.4509C158.238 77.18 158.927 76.0531 158.992 75.0618C158.665 73.8302 157.486 73.1097 156.47 73.0049C155.225 73.2758 154.537 74.4027 154.471 75.394C154.405 76.3854 155.748 77.7217 156.993 77.4509Z" fill="white"/>
<path d="M7.11724 174.629C8.38377 174.323 9.10427 173.144 9.19152 172.118C8.88568 170.851 7.70648 170.131 6.68012 170.043C5.41359 170.349 4.69302 171.528 4.60577 172.555C4.51852 173.581 6.09088 174.542 7.11724 174.629Z" fill="white"/>
<path d="M24.7 165.053C25.9451 164.782 26.6335 163.655 26.6994 162.664C26.3722 161.432 25.193 160.712 24.1774 160.607C22.9322 160.878 22.2437 162.005 22.1778 162.996C22.505 164.228 23.4548 165.324 24.7 165.053Z" fill="white"/>
<path d="M42.4865 156.513C43.7178 156.265 44.3855 155.172 44.4375 154.204C44.0965 152.995 42.9172 152.274 41.9084 152.158C40.6772 152.406 40.0095 153.499 39.9575 154.468C40.0759 156.041 41.2552 156.761 42.4865 156.513Z" fill="white"/>
<path d="M59.5436 147.796C60.7888 147.525 61.4773 146.399 61.5432 145.407C61.216 144.176 60.0368 143.455 59.0211 143.35C57.776 143.621 57.0874 144.748 57.0215 145.739C57.3487 146.971 58.2985 148.067 59.5436 147.796Z" fill="white"/>
<path d="M77.6452 138.744C78.8904 138.473 79.5789 137.347 79.6448 136.355C79.3176 135.124 78.1383 134.403 77.1226 134.298C75.8774 134.569 75.189 135.696 75.1231 136.688C75.0572 137.679 76.4001 139.015 77.6452 138.744Z" fill="white"/>
<path d="M95.2793 130.453C96.5459 130.147 97.2664 128.968 97.3537 127.942C97.0478 126.675 95.8686 125.955 94.8422 125.868C93.5757 126.173 92.8552 127.353 92.7679 128.379C92.6807 129.405 94.253 130.366 95.2793 130.453Z" fill="white"/>
<path d="M112.549 121.389C113.78 121.141 114.448 120.048 114.5 119.08C114.552 118.111 112.98 117.15 111.971 117.034C110.74 117.282 110.072 118.375 110.02 119.344C110.138 120.917 111.318 121.637 112.549 121.389Z" fill="white"/>
<path d="M130.123 113.197C131.39 112.891 132.11 111.712 132.197 110.685C131.892 109.419 130.712 108.698 129.686 108.611C128.419 108.917 127.699 110.096 127.612 111.122C127.917 112.389 129.097 113.109 130.123 113.197Z" fill="white"/>
<path d="M147.706 103.621C148.951 103.35 149.639 102.223 149.705 101.231C149.378 99.9999 148.199 99.2793 147.183 99.1746C145.938 99.4455 145.25 100.572 145.184 101.564C145.511 102.795 146.461 103.891 147.706 103.621Z" fill="white"/>
<path d="M165.434 95.1782C166.679 94.9073 167.368 93.7804 167.434 92.789C167.107 91.5574 165.927 90.837 164.912 90.7323C163.667 91.0032 162.978 92.1299 162.912 93.1213C162.846 94.1127 164.189 95.449 165.434 95.1782Z" fill="white"/>
<path d="M183.161 86.7365C184.406 86.4656 185.095 85.3388 185.16 84.3474C184.833 83.1158 183.654 82.3953 182.638 82.2905C181.393 82.5614 180.705 83.6883 180.639 84.6797C180.573 85.6711 181.916 87.0074 183.161 86.7365Z" fill="white"/>
<path d="M-1.6443 199.939C-0.413004 199.691 0.254608 198.598 0.30664 197.629C-0.0344179 196.42 -1.21367 195.7 -2.22241 195.584C-3.45371 195.832 -4.12137 196.925 -4.1734 197.894C-4.0549 199.467 -2.8756 200.187 -1.6443 199.939Z" fill="white"/>
<path d="M15.9317 191.747C17.1982 191.441 17.9187 190.262 18.006 189.235C17.7002 187.969 16.5209 187.248 15.4946 187.161C14.2281 187.467 13.5075 188.646 13.4202 189.673C13.333 190.699 14.9054 191.66 15.9317 191.747Z" fill="white"/>
<path d="M33.2014 182.682C34.4326 182.434 35.1003 181.341 35.1524 180.373C34.8113 179.164 33.632 178.443 32.6233 178.327C31.392 178.575 30.7243 179.668 30.6723 180.637C30.7907 182.21 31.9701 182.93 33.2014 182.682Z" fill="white"/>
<path d="M51.3009 173.63C52.5322 173.382 53.1999 172.289 53.252 171.321C53.304 170.352 51.7316 169.391 50.7229 169.275C49.4916 169.523 48.824 170.616 48.772 171.585C48.8905 173.158 50.0696 173.878 51.3009 173.63Z" fill="white"/>
<path d="M68.9694 165.286C70.2146 165.015 70.9031 163.889 70.969 162.897C70.6418 161.666 69.4625 160.945 68.4468 160.84C67.2017 161.111 66.5133 162.238 66.4474 163.23C66.3815 164.221 67.7243 165.557 68.9694 165.286Z" fill="white"/>
<path d="M86.756 156.746C87.9873 156.498 88.655 155.405 88.707 154.437C88.366 153.228 87.1868 152.507 86.178 152.391C84.9467 152.639 84.279 153.732 84.227 154.701C84.3455 156.274 85.5247 156.995 86.756 156.746Z" fill="white"/>
<path d="M103.721 148.181C104.987 147.875 105.708 146.696 105.795 145.669C105.489 144.403 104.31 143.682 103.284 143.595C102.017 143.901 101.297 145.08 101.209 146.106C101.122 147.133 102.694 148.094 103.721 148.181Z" fill="white"/>
<path d="M121.915 138.978C123.16 138.707 123.848 137.58 123.914 136.589C123.587 135.357 122.408 134.637 121.392 134.532C120.147 134.803 119.459 135.929 119.393 136.921C119.327 137.912 120.67 139.249 121.915 138.978Z" fill="white"/>
<path d="M138.939 130.314C140.206 130.008 140.927 128.828 141.014 127.802C140.708 126.536 139.529 125.815 138.502 125.728C137.236 126.034 136.515 127.213 136.428 128.239C136.734 129.506 137.913 130.226 138.939 130.314Z" fill="white"/>
<path d="M156.819 121.623C158.05 121.374 158.718 120.282 158.77 119.313C158.428 118.104 157.249 117.384 156.24 117.267C155.009 117.516 154.342 118.609 154.289 119.577C154.408 121.15 155.587 121.871 156.819 121.623Z" fill="white"/>
<path d="M174.309 112.197C175.54 111.949 176.208 110.856 176.26 109.887C175.919 108.679 174.74 107.958 173.731 107.842C172.499 108.09 171.832 109.183 171.78 110.152C171.898 111.725 173.077 112.445 174.309 112.197Z" fill="white"/>
<path d="M191.977 103.854C193.222 103.583 193.911 102.456 193.977 101.465C193.65 100.233 192.47 99.5125 191.455 99.4078C190.21 99.6786 189.521 100.805 189.455 101.797C189.782 103.028 190.732 104.125 191.977 103.854Z" fill="white"/>
<path d="M7.78142 217.429C9.01271 217.181 9.68038 216.088 9.73242 215.119C9.39139 213.911 8.21211 213.19 7.20338 213.074C5.9721 213.322 5.30442 214.415 5.25238 215.384C5.37085 216.957 6.55013 217.677 7.78142 217.429Z" fill="white"/>
<path d="M25.3575 209.237C26.624 208.931 27.3445 207.752 27.4318 206.725C27.1259 205.459 25.9467 204.738 24.9203 204.651C23.6538 204.957 22.9333 206.136 22.846 207.163C23.1519 208.429 24.3311 209.15 25.3575 209.237Z" fill="white"/>
<path d="M42.5671 200.27C43.8122 200 44.5008 198.873 44.5666 197.881C44.2394 196.65 43.0601 195.929 42.0445 195.824C40.7993 196.095 40.1109 197.222 40.045 198.214C39.9791 199.205 41.3219 200.541 42.5671 200.27Z" fill="white"/>
<path d="M60.2012 191.98C61.4677 191.674 62.1882 190.495 62.2755 189.469C61.9697 188.202 60.7905 187.482 59.7641 187.394C58.4976 187.7 57.7771 188.879 57.6898 189.906C57.6025 190.932 59.1748 191.893 60.2012 191.98Z" fill="white"/>
<path d="M77.4109 183.014C78.6561 182.743 79.3445 181.616 79.4104 180.624C79.4763 179.633 77.9039 178.672 76.8883 178.568C75.6431 178.839 74.9546 179.965 74.8887 180.957C75.2159 182.188 76.1657 183.285 77.4109 183.014Z" fill="white"/>
<path d="M95.5705 173.864C96.8017 173.615 97.4695 172.523 97.5215 171.554C97.1804 170.345 96.0012 169.625 94.9925 169.508C93.7612 169.757 93.0935 170.849 93.0414 171.818C93.1599 173.391 94.3392 174.112 95.5705 173.864Z" fill="white"/>
<path d="M113.239 165.519C114.484 165.249 115.173 164.122 115.239 163.13C114.911 161.899 113.732 161.178 112.716 161.074C111.471 161.344 110.783 162.471 110.717 163.463C110.651 164.454 111.601 165.55 113.239 165.519Z" fill="white"/>
<path d="M130.416 156.607C131.647 156.359 132.315 155.266 132.367 154.297C132.026 153.088 130.847 152.368 129.838 152.252C128.607 152.5 127.939 153.593 127.887 154.561C127.613 155.894 129.185 156.855 130.416 156.607Z" fill="white"/>
<path d="M147.99 148.414C149.257 148.108 149.977 146.929 150.065 145.902C149.759 144.636 148.579 143.915 147.553 143.828C146.287 144.134 145.566 145.313 145.479 146.34C145.392 147.366 146.964 148.327 147.99 148.414Z" fill="white"/>
<path d="M165.633 138.74C166.864 138.491 167.532 137.399 167.584 136.43C167.636 135.461 166.064 134.501 165.055 134.384C163.824 134.633 163.156 135.725 163.104 136.694C163.222 138.267 164.402 138.988 165.633 138.74Z" fill="white"/>
<path d="M183.209 130.547C184.476 130.241 185.196 129.062 185.283 128.035C185.371 127.009 183.798 126.048 182.772 125.961C181.746 125.874 180.785 127.446 180.698 128.472C181.003 129.739 182.183 130.46 183.209 130.547Z" fill="white"/>
<path d="M-1.56378 243.697C-0.318634 243.426 0.36989 242.299 0.43579 241.308C0.108608 240.076 -1.07067 239.356 -2.08632 239.251C-3.33146 239.522 -4.01999 240.649 -4.08589 241.64C-4.15179 242.632 -2.80892 243.968 -1.56378 243.697Z" fill="white"/>
<path d="M16.8342 235.529C18.0655 235.281 18.7331 234.188 18.7852 233.219C18.8372 232.251 17.2648 231.29 16.2561 231.174C15.0248 231.422 14.3571 232.515 14.3051 233.484C14.0305 234.817 15.2098 235.537 16.8342 235.529Z" fill="white"/>
<path d="M33.7989 226.964C35.0654 226.658 35.786 225.479 35.8732 224.453C35.5674 223.186 34.388 222.466 33.3617 222.378C32.0951 222.684 31.3748 223.864 31.2875 224.89C31.2002 225.916 32.7725 226.877 33.7989 226.964Z" fill="white"/>
<path d="M52.0509 217.662C53.2822 217.414 53.9499 216.321 54.002 215.353C53.6609 214.144 52.4817 213.423 51.4729 213.307C50.4642 213.191 49.5739 214.648 49.5219 215.617C49.6404 217.19 50.8196 217.91 52.0509 217.662Z" fill="white"/>
<path d="M68.6427 209.707C69.9092 209.402 70.6296 208.222 70.7169 207.196C70.411 205.929 69.2319 205.209 68.2055 205.122C66.939 205.427 66.2184 206.607 66.1312 207.633C66.437 208.9 67.6164 209.62 68.6427 209.707Z" fill="white"/>
<path d="M86.8366 200.504C88.0818 200.233 88.7703 199.106 88.8362 198.115C88.509 196.883 87.3297 196.162 86.3141 196.058C85.0689 196.329 84.3804 197.455 84.3145 198.447C84.2486 199.438 85.5915 200.774 86.8366 200.504Z" fill="white"/>
<path d="M104.014 191.591C105.245 191.343 105.913 190.25 105.965 189.281C106.017 188.312 104.445 187.352 103.436 187.236C102.205 187.484 101.537 188.577 101.485 189.545C101.603 191.119 102.783 191.839 104.014 191.591Z" fill="white"/>
<path d="M121.68 183.247C122.926 182.977 123.614 181.85 123.68 180.858C123.746 179.867 122.173 178.906 121.158 178.802C119.913 179.072 119.224 180.199 119.158 181.191C119.485 182.422 120.435 183.518 121.68 183.247Z" fill="white"/>
<path d="M139.231 173.724C140.462 173.475 141.13 172.383 141.182 171.414C140.841 170.205 139.661 169.485 138.653 169.369C137.421 169.617 136.754 170.71 136.702 171.678C136.82 173.251 137.999 173.972 139.231 173.724Z" fill="white"/>
<path d="M156.807 165.532C158.073 165.226 158.794 164.047 158.881 163.02C158.575 161.754 157.396 161.033 156.37 160.946C155.103 161.252 154.383 162.431 154.295 163.458C154.601 164.724 155.78 165.445 156.807 165.532Z" fill="white"/>
<path d="M174.686 156.84C175.917 156.592 176.585 155.499 176.637 154.53C176.296 153.321 175.116 152.601 174.108 152.485C172.876 152.733 172.209 153.826 172.157 154.794C171.882 156.127 173.061 156.848 174.686 156.84Z" fill="white"/>
<path d="M7.48894 261.797C8.7341 261.526 9.42263 260.399 9.48852 259.408C9.16132 258.176 7.98202 257.456 6.96635 257.351C5.72119 257.622 5.03279 258.749 4.9669 259.74C5.29409 260.972 6.24378 262.068 7.48894 261.797Z" fill="white"/>
<path d="M25.5885 252.745C26.8337 252.474 27.5222 251.348 27.5881 250.356C27.2609 249.125 26.0817 248.404 25.066 248.299C23.8209 248.57 23.1324 249.697 23.0665 250.688C23.0006 251.68 24.3434 253.016 25.5885 252.745Z" fill="white"/>
<path d="M42.7058 243.93C43.951 243.659 44.6394 242.532 44.7053 241.541C44.7712 240.55 43.1989 239.589 42.1832 239.484C40.938 239.755 40.2496 240.882 40.1837 241.873C40.5108 243.105 41.4606 244.201 42.7058 243.93Z" fill="white"/>
<path d="M60.4943 235.39C61.7256 235.142 62.3933 234.049 62.4454 233.08C62.4974 232.112 60.925 231.151 59.9163 231.035C58.685 231.283 58.0173 232.376 57.9653 233.345C58.0837 234.918 59.263 235.638 60.4943 235.39Z" fill="white"/>
<path d="M78.0684 227.197C79.3349 226.892 80.0555 225.712 80.1427 224.686C79.8369 223.419 78.6576 222.699 77.6313 222.612C76.3648 222.917 75.6442 224.097 75.557 225.123C75.4697 226.149 76.649 226.87 78.0684 227.197Z" fill="white"/>
<path d="M95.3381 218.133C96.5694 217.885 97.237 216.792 97.2891 215.824C96.948 214.615 95.7687 213.894 94.76 213.778C93.5287 214.026 92.861 215.119 92.809 216.088C92.5344 217.421 94.1068 218.382 95.3381 218.133Z" fill="white"/>
<path d="M113.438 209.081C114.669 208.833 115.337 207.74 115.389 206.771C115.048 205.562 113.868 204.842 112.86 204.726C111.628 204.974 110.961 206.067 110.909 207.035C111.027 208.609 112.206 209.329 113.438 209.081Z" fill="white"/>
<path d="M130.495 200.365C131.74 200.094 132.428 198.967 132.494 197.976C132.167 196.744 130.988 196.024 129.972 195.919C128.727 196.19 128.039 197.316 127.973 198.308C128.3 199.539 129.25 200.636 130.495 200.365Z" fill="white"/>
<path d="M148.283 191.824C149.515 191.576 150.182 190.483 150.234 189.514C150.286 188.546 148.714 187.585 147.705 187.469C146.474 187.717 145.806 188.81 145.754 189.779C145.873 191.352 147.052 192.072 148.283 191.824Z" fill="white"/>
<path d="M165.248 183.259C166.515 182.953 167.235 181.774 167.322 180.748C167.017 179.481 165.837 178.761 164.811 178.673C163.544 178.979 162.824 180.158 162.737 181.185C163.042 182.451 164.222 183.172 165.248 183.259Z" fill="white"/>
<path d="M183.5 173.957C184.731 173.709 185.399 172.616 185.451 171.647C185.11 170.438 183.931 169.718 182.922 169.602C181.691 169.85 181.023 170.943 180.971 171.911C181.09 173.484 182.269 174.205 183.5 173.957Z" fill="white"/>
<path d="M-1.27926 288.491C-0.0127332 288.185 0.707773 287.006 0.795034 285.98C0.489206 284.713 -0.690095 283.993 -1.71645 283.905C-2.98298 284.211 -3.70336 285.39 -3.79062 286.417C-3.87789 287.443 -2.30562 288.404 -1.27926 288.491Z" fill="white"/>
<path d="M16.9128 279.287C18.1579 279.016 18.8465 277.889 18.9124 276.898C18.5852 275.666 17.4059 274.946 16.3902 274.841C15.1451 275.112 14.4566 276.239 14.3907 277.23C14.7179 278.462 15.6676 279.558 16.9128 279.287Z" fill="white"/>
<path d="M34.0901 270.374C35.3214 270.126 35.989 269.033 36.041 268.065C35.6999 266.856 34.5207 266.135 33.512 266.019C32.2807 266.267 31.613 267.36 31.561 268.329C31.6795 269.902 32.8588 270.623 34.0901 270.374Z" fill="white"/>
<path d="M51.7585 262.03C53.0037 261.76 53.6921 260.633 53.758 259.641C53.4309 258.41 52.2516 257.689 51.2359 257.585C49.9908 257.855 49.3022 258.982 49.2363 259.974C49.1704 260.965 50.5134 262.301 51.7585 262.03Z" fill="white"/>
<path d="M69.3088 252.507C70.5401 252.259 71.2077 251.166 71.2598 250.198C71.3118 249.229 69.7395 248.268 68.7307 248.152C67.4994 248.4 66.8318 249.493 66.7797 250.462C66.8982 252.035 68.0775 252.756 69.3088 252.507Z" fill="white"/>
<path d="M86.8828 244.315C88.1494 244.009 88.8699 242.829 88.9572 241.803C89.0444 240.777 87.472 239.816 86.4457 239.729C85.1792 240.035 84.4587 241.214 84.3715 242.24C84.6773 243.507 85.8565 244.227 86.8828 244.315Z" fill="white"/>
<path d="M104.152 235.251C105.384 235.002 106.052 233.91 106.104 232.941C105.762 231.732 104.583 231.012 103.575 230.895C102.343 231.144 101.675 232.236 101.623 233.205C101.742 234.778 102.921 235.499 104.152 235.251Z" fill="white"/>
<path d="M121.729 227.058C122.995 226.752 123.716 225.573 123.803 224.546C123.497 223.28 122.318 222.559 121.291 222.472C120.025 222.778 119.304 223.957 119.217 224.983C119.523 226.25 120.702 226.97 121.729 227.058Z" fill="white"/>
<path d="M139.548 218.465C140.793 218.194 141.481 217.067 141.547 216.076C141.22 214.844 140.041 214.124 139.025 214.019C137.78 214.29 137.091 215.417 137.025 216.408C136.96 217.399 137.909 218.496 139.548 218.465Z" fill="white"/>
<path d="M157.707 209.314C158.938 209.066 159.606 207.973 159.658 207.004C159.317 205.796 158.138 205.075 157.129 204.959C155.898 205.207 155.23 206.3 155.178 207.269C154.904 208.601 156.476 209.562 157.707 209.314Z" fill="white"/>
<path d="M7.53529 305.608C8.80181 305.302 9.52219 304.123 9.60945 303.097C9.6967 302.07 8.12443 301.11 7.09808 301.022C5.83156 301.328 5.11099 302.507 5.02373 303.534C5.32957 304.8 6.50894 305.521 7.53529 305.608Z" fill="white"/>
<path d="M25.3542 297.015C26.5994 296.744 27.2878 295.617 27.3537 294.625C27.4197 293.634 25.8473 292.673 24.8316 292.569C23.5865 292.84 22.898 293.966 22.8321 294.958C23.1593 296.189 24.109 297.285 25.3542 297.015Z" fill="white"/>
<path d="M43.5158 287.864C44.7471 287.616 45.4148 286.523 45.4668 285.555C45.1258 284.346 43.9465 283.625 42.9377 283.509C41.7065 283.757 41.0388 284.85 40.9867 285.819C40.7121 287.152 41.8914 287.872 43.5158 287.864Z" fill="white"/>
<path d="M60.5729 279.147C61.8181 278.877 62.5066 277.75 62.5725 276.758C62.2453 275.527 61.066 274.806 60.0504 274.701C58.8053 274.972 58.1167 276.099 58.0508 277.091C57.9849 278.082 59.3278 279.418 60.5729 279.147Z" fill="white"/>
<path d="M78.3596 270.607C79.5909 270.359 80.2585 269.267 80.3105 268.298C79.9695 267.089 78.7902 266.368 77.7815 266.252C76.5502 266.501 75.8825 267.593 75.8305 268.562C75.949 270.135 77.1283 270.856 78.3596 270.607Z" fill="white"/>
<path d="M95.3242 262.042C96.5908 261.736 97.3113 260.557 97.3986 259.53C97.0928 258.264 95.9135 257.543 94.8871 257.456C93.6206 257.762 92.9001 258.941 92.8128 259.968C93.1187 261.234 94.2979 261.955 95.3242 262.042Z" fill="white"/>
<path d="M113.578 252.741C114.81 252.492 115.477 251.4 115.529 250.431C115.188 249.222 114.009 248.502 113 248.385C111.769 248.634 111.101 249.726 111.049 250.695C111.168 252.268 112.347 252.989 113.578 252.741Z" fill="white"/>
<path d="M130.17 244.785C131.437 244.479 132.157 243.3 132.244 242.274C131.938 241.007 130.759 240.287 129.733 240.199C128.466 240.505 127.746 241.684 127.658 242.711C127.964 243.977 129.144 244.698 130.17 244.785Z" fill="white"/>
<path d="M148.362 235.582C149.607 235.311 150.296 234.184 150.362 233.193C150.034 231.961 148.855 231.241 147.839 231.136C146.594 231.407 145.906 232.534 145.84 233.525C146.167 234.757 147.117 235.853 148.362 235.582Z" fill="white"/>
<path d="M-0.988053 331.901C0.243246 331.653 0.910858 330.56 0.96289 329.591C0.621832 328.383 -0.557418 327.662 -1.56616 327.546C-2.79746 327.794 -3.46512 328.887 -3.51715 329.856C-3.39865 331.429 -2.21935 332.149 -0.988053 331.901Z" fill="white"/>
<path d="M16.5879 323.708C17.8544 323.403 18.575 322.223 18.6622 321.197C18.3564 319.93 17.1771 319.21 16.1508 319.123C14.8843 319.428 14.1638 320.608 14.0765 321.634C14.3823 322.901 15.5616 323.621 16.5879 323.708Z" fill="white"/>
<path d="M34.2307 314.034C35.4619 313.786 36.1296 312.693 36.1816 311.724C35.8406 310.515 34.6613 309.795 33.6526 309.679C32.4213 309.927 31.7536 311.02 31.7016 311.989C31.82 313.562 32.9994 314.282 34.2307 314.034Z" fill="white"/>
<path d="M51.9572 305.592C53.1885 305.344 53.8562 304.251 53.9082 303.282C53.5671 302.073 52.3878 301.353 51.3791 301.237C50.1478 301.485 49.4802 302.578 49.4282 303.546C49.5467 305.12 50.7259 305.84 51.9572 305.592Z" fill="white"/>
<path d="M69.0143 296.875C70.2595 296.605 70.948 295.478 71.0139 294.486C70.6867 293.255 69.5075 292.534 68.4918 292.43C67.2467 292.7 66.5581 293.827 66.4922 294.819C66.8195 296.05 67.7692 297.146 69.0143 296.875Z" fill="white"/>
<path d="M87.176 287.725C88.4073 287.477 89.0749 286.384 89.1269 285.415C88.7859 284.206 87.6067 283.486 86.5979 283.37C85.3666 283.618 84.6989 284.711 84.6469 285.679C84.7654 287.252 85.9447 287.973 87.176 287.725Z" fill="white"/>
<path d="M104.843 279.381C106.088 279.11 106.776 277.984 106.842 276.992C106.515 275.761 105.336 275.04 104.32 274.935C103.075 275.206 102.386 276.333 102.32 277.324C102.254 278.316 103.204 279.412 104.843 279.381Z" fill="white"/>
<path d="M25.4024 340.826C26.6689 340.52 27.3894 339.34 27.4767 338.314C27.1709 337.048 25.9916 336.327 24.9653 336.24C23.6988 336.546 22.9782 337.725 22.891 338.751C22.8037 339.778 24.3761 340.738 25.4024 340.826Z" fill="white"/>
<path d="M43.2833 332.134C44.5146 331.886 45.1824 330.793 45.2344 329.825C44.8933 328.616 43.714 327.895 42.7053 327.779C41.474 328.027 40.8064 329.12 40.7544 330.089C40.8729 331.662 42.0521 332.383 43.2833 332.134Z" fill="white"/>
</svg>
