<svg width="176" height="254" viewBox="0 0 176 254" fill="none" xmlns="http://www.w3.org/2000/svg">
<path d="M6.40957 78.676C7.24698 78.9349 8.02095 78.4881 8.37617 77.9118C8.57066 77.0572 8.08848 76.2219 7.50904 75.8141C6.67163 75.5552 5.89766 76.002 5.54244 76.5783C5.08997 77.5819 5.57216 78.4171 6.40957 78.676Z" fill="white"/>
<path d="M115.98 82.831C116.817 83.0899 117.591 82.6431 117.946 82.0669C118.141 81.2122 117.659 80.377 117.079 79.9692C116.242 79.7103 115.468 80.1571 115.113 80.7334C114.66 81.737 115.142 82.5721 115.98 82.831Z" fill="white"/>
<path d="M129.343 83.1826C130.196 83.4322 130.994 82.9713 131.366 82.3858C131.576 81.5218 131.094 80.6867 130.507 80.2835C129.653 80.0339 128.855 80.4946 128.484 81.0802C128.113 81.6657 128.489 82.9329 129.343 83.1826Z" fill="white"/>
<path d="M143.457 83.6762C144.311 83.9258 145.109 83.465 145.48 82.8795C145.691 82.0155 145.208 81.1803 144.621 80.7771C143.767 80.5275 142.969 80.9883 142.598 81.5738C142.227 82.1594 142.604 83.4266 143.457 83.6762Z" fill="white"/>
<path d="M6.09804 92.1086C6.93546 92.3676 7.70943 91.9207 8.06464 91.3444C8.25913 90.4898 7.77697 89.6546 7.19753 89.2467C6.36011 88.9878 5.58614 89.4347 5.23092 90.0109C4.77846 91.0146 5.26062 91.8497 6.09804 92.1086Z" fill="white"/>
<path d="M19.1713 93.2045C20.0496 93.4399 20.8848 92.9577 21.2808 92.3579C21.5161 91.4796 21.034 90.6445 20.4341 90.2484C19.5559 90.013 18.7206 90.4952 18.3246 91.0951C17.9285 91.695 18.5715 92.8085 19.1713 93.2045Z" fill="white"/>
<path d="M33.1428 93.2038C33.9963 93.4534 34.7942 92.9926 35.1656 92.407C35.3761 91.5431 34.894 90.7079 34.3065 90.3047C33.453 90.0551 32.655 90.5158 32.2836 91.1014C32.0731 91.9654 32.2892 92.9542 33.1428 93.2038Z" fill="white"/>
<path d="M46.894 93.9087C47.7314 94.1676 48.5054 93.7207 48.8606 93.1445C49.0551 92.2898 48.5728 91.4546 47.9934 91.0468C47.156 90.7879 46.3821 91.2347 46.0268 91.811C45.5743 92.8146 46.0565 93.6498 46.894 93.9087Z" fill="white"/>
<path d="M60.257 94.2602C61.1105 94.5098 61.9085 94.049 62.2798 93.4635C62.4904 92.5995 62.0082 91.7643 61.4208 91.3611C60.5673 91.1115 59.7692 91.5722 59.3979 92.1578C59.1873 93.0217 59.4035 94.0105 60.257 94.2602Z" fill="white"/>
<path d="M74.3713 94.7538C75.2248 95.0034 76.0228 94.5427 76.3941 93.9571C76.6047 93.0932 76.1225 92.2579 75.535 91.8547C74.6815 91.6051 73.8834 92.0659 73.5121 92.6515C73.1408 93.2371 73.5178 94.5042 74.3713 94.7538Z" fill="white"/>
<path d="M87.9457 95.5593C88.824 95.7946 89.6592 95.3124 90.0553 94.7126C90.2906 93.8343 89.8084 92.9992 89.2085 92.6031C88.3302 92.3678 87.4951 92.85 87.099 93.4498C86.703 94.0497 87.3459 95.1632 87.9457 95.5593Z" fill="white"/>
<path d="M101.555 95.7686C102.393 96.0275 103.166 95.5806 103.522 95.0043C103.877 94.428 103.234 93.3145 102.655 92.9067C101.817 92.6477 101.043 93.0946 100.688 93.6709C100.235 94.6745 100.718 95.5097 101.555 95.7686Z" fill="white"/>
<path d="M115.06 96.6145C115.938 96.8498 116.773 96.3676 117.169 95.7678C117.405 94.8895 116.923 94.0543 116.323 93.6583C115.445 93.423 114.609 93.9052 114.213 94.505C113.978 95.3833 114.46 96.2184 115.06 96.6145Z" fill="white"/>
<path d="M129.031 96.6151C129.885 96.8647 130.683 96.404 131.054 95.8184C131.265 94.9545 130.783 94.1193 130.195 93.7161C129.342 93.4665 128.544 93.9272 128.172 94.5128C127.962 95.3767 128.178 96.3655 129.031 96.6151Z" fill="white"/>
<path d="M142.714 97.3588C143.568 97.6084 144.366 97.1476 144.737 96.5621C144.947 95.6981 144.465 94.863 143.878 94.4598C143.024 94.2102 142.226 94.6709 141.855 95.2564C141.484 95.842 141.861 97.1092 142.714 97.3588Z" fill="white"/>
<path d="M156.396 98.1027C157.249 98.3523 158.047 97.8915 158.419 97.306C158.629 96.442 158.147 95.6068 157.559 95.2036C156.706 94.954 155.908 95.4148 155.537 96.0004C155.165 96.5859 155.542 97.8531 156.396 98.1027Z" fill="white"/>
<path d="M5.35394 105.791C6.19136 106.05 6.9653 105.603 7.32053 105.027C7.51502 104.172 7.0328 103.337 6.45335 102.929C5.61593 102.67 4.84202 103.117 4.48679 103.694C4.03431 104.697 4.51651 105.532 5.35394 105.791Z" fill="white"/>
<path d="M18.8598 106.637C19.738 106.872 20.5732 106.39 20.9693 105.79C21.2046 104.912 20.7224 104.077 20.1226 103.681C19.2444 103.445 18.4091 103.928 18.0131 104.527C17.617 105.127 18.26 106.241 18.8598 106.637Z" fill="white"/>
<path d="M32.4692 106.846C33.3066 107.105 34.0805 106.658 34.4357 106.082C34.6302 105.227 34.148 104.392 33.5686 103.984C32.7312 103.725 31.9572 104.172 31.602 104.749C31.1495 105.752 31.6318 106.587 32.4692 106.846Z" fill="white"/>
<path d="M46.5824 107.34C47.4199 107.599 48.1938 107.152 48.549 106.576C48.9042 105.999 48.2613 104.886 47.6819 104.478C46.8444 104.219 46.0706 104.666 45.7153 105.242C45.2628 106.246 45.745 107.081 46.5824 107.34Z" fill="white"/>
<path d="M60.1954 108.124C61.0489 108.374 61.847 107.913 62.2183 107.327C62.4289 106.463 61.9467 105.628 61.3592 105.225C60.5057 104.975 59.7077 105.436 59.3364 106.022C58.9651 106.607 59.342 107.874 60.1954 108.124Z" fill="white"/>
<path d="M73.9467 108.827C74.7841 109.086 75.5581 108.639 75.9133 108.063C76.1078 107.209 75.6256 106.373 75.0462 105.965C74.2087 105.707 73.4348 106.153 73.0796 106.73C72.6271 107.733 73.1093 108.568 73.9467 108.827Z" fill="white"/>
<path d="M87.2016 109.241C88.0799 109.476 88.915 108.994 89.3111 108.394C89.5464 107.516 89.0642 106.681 88.4644 106.285C87.5861 106.049 86.751 106.531 86.3549 107.131C85.9588 107.731 86.6018 108.845 87.2016 109.241Z" fill="white"/>
<path d="M101.423 109.674C102.276 109.924 103.075 109.463 103.446 108.877C103.656 108.013 103.174 107.178 102.587 106.775C101.733 106.525 100.935 106.986 100.564 107.572C100.193 108.157 100.57 109.424 101.423 109.674Z" fill="white"/>
<path d="M114.748 110.047C115.627 110.282 116.462 109.8 116.858 109.2C117.093 108.322 116.611 107.487 116.011 107.091C115.133 106.855 114.298 107.338 113.902 107.937C113.666 108.816 114.149 109.651 114.748 110.047Z" fill="white"/>
<path d="M128.607 110.689C129.444 110.948 130.218 110.501 130.573 109.925C130.768 109.07 130.286 108.235 129.706 107.827C128.869 107.568 128.095 108.015 127.74 108.591C127.287 109.595 127.769 110.43 128.607 110.689Z" fill="white"/>
<path d="M142.472 110.75C143.31 111.009 144.083 110.562 144.439 109.986C144.633 109.131 144.151 108.296 143.572 107.888C142.734 107.629 141.96 108.076 141.605 108.652C141.152 109.656 141.635 110.491 142.472 110.75Z" fill="white"/>
<path d="M156.084 111.535C156.938 111.785 157.736 111.324 158.107 110.738C158.318 109.874 157.835 109.039 157.248 108.636C156.394 108.386 155.596 108.847 155.225 109.433C155.014 110.297 155.231 111.285 156.084 111.535Z" fill="white"/>
<path d="M5.29239 119.655C6.12982 119.914 6.90373 119.467 7.25897 118.891C7.45348 118.036 6.97129 117.201 6.39185 116.793C5.55443 116.534 4.78051 116.981 4.42527 117.557C3.97278 118.561 4.45497 119.396 5.29239 119.655Z" fill="white"/>
<path d="M18.7973 120.501C19.6755 120.736 20.5107 120.254 20.9068 119.654C21.1421 118.776 20.6599 117.941 20.0601 117.545C19.1819 117.309 18.3466 117.791 17.9506 118.391C17.7153 119.269 18.1975 120.105 18.7973 120.501Z" fill="white"/>
<path d="M32.337 120.75C33.1905 121 33.9886 120.539 34.3599 119.953C34.5705 119.089 34.0883 118.254 33.5008 117.851C32.6473 117.601 31.8493 118.062 31.478 118.648C31.1067 119.233 31.4836 120.501 32.337 120.75Z" fill="white"/>
<path d="M45.9116 121.557C46.7898 121.792 47.625 121.31 48.021 120.71C48.2564 119.832 47.7742 118.997 47.1743 118.601C46.2961 118.366 45.4609 118.848 45.0649 119.448C44.6688 120.047 45.3117 121.161 45.9116 121.557Z" fill="white"/>
<path d="M59.4513 121.805C60.3048 122.055 61.1029 121.594 61.4742 121.008C61.8455 120.423 61.2025 119.309 60.6151 118.906C59.7616 118.656 58.9635 119.117 58.5922 119.703C58.3817 120.567 58.5978 121.555 59.4513 121.805Z" fill="white"/>
<path d="M73.6352 122.26C74.4726 122.519 75.2465 122.072 75.6018 121.496C75.7963 120.641 75.3141 119.806 74.7346 119.398C73.8972 119.139 73.1233 119.586 72.768 120.162C72.3156 121.166 72.7977 122.001 73.6352 122.26Z" fill="white"/>
<path d="M87.2472 123.044C88.1007 123.293 88.8988 122.833 89.2701 122.247C89.4807 121.383 88.9985 120.548 88.411 120.145C87.5575 119.895 86.7594 120.356 86.3881 120.942C86.0168 121.527 86.233 122.516 87.2472 123.044Z" fill="white"/>
<path d="M100.749 123.315C101.587 123.574 102.361 123.127 102.716 122.551C102.911 121.696 102.428 120.861 101.849 120.453C101.011 120.194 100.238 120.641 99.8823 121.217C99.2691 121.942 99.912 123.056 100.749 123.315Z" fill="white"/>
<path d="M114.254 124.161C115.133 124.396 115.968 123.914 116.364 123.314C116.599 122.436 116.117 121.6 115.517 121.204C114.639 120.969 113.804 121.451 113.408 122.051C113.012 122.651 113.654 123.765 114.254 124.161Z" fill="white"/>
<path d="M128.295 124.121C129.133 124.38 129.907 123.933 130.262 123.357C130.617 122.781 129.974 121.667 129.395 121.259C128.557 121 127.783 121.447 127.428 122.023C126.976 123.027 127.458 123.862 128.295 124.121Z" fill="white"/>
<path d="M141.8 124.967C142.679 125.202 143.514 124.72 143.91 124.12C144.306 123.52 143.663 122.407 143.063 122.011C142.463 121.615 141.35 122.258 140.954 122.858C140.718 123.736 141.2 124.571 141.8 124.967Z" fill="white"/>
<path d="M4.79828 133.769C5.6357 134.028 6.4096 133.581 6.76483 133.005C7.12007 132.428 6.47715 131.315 5.89771 130.907C5.06029 130.648 4.28631 131.095 3.93108 131.671C3.31787 132.396 3.80013 133.232 4.79828 133.769Z" fill="white"/>
<path d="M18.0541 134.183C18.9324 134.419 19.7676 133.936 20.1637 133.337C20.399 132.458 19.9167 131.623 19.3169 131.227C18.4386 130.992 17.6035 131.474 17.2075 132.074C16.8114 132.674 17.4543 133.787 18.0541 134.183Z" fill="white"/>
<path d="M32.3441 134.575C33.1815 134.834 33.9555 134.387 34.3107 133.811C34.5052 132.956 34.0231 132.121 33.4436 131.713C32.8642 131.305 31.8322 131.901 31.477 132.477C31.0246 133.481 31.5067 134.316 32.3441 134.575Z" fill="white"/>
<path d="M45.1685 135.238C46.0467 135.474 46.8818 134.991 47.2779 134.392C47.5132 133.513 47.031 132.678 46.4312 132.282C45.5529 132.047 44.7177 132.529 44.3216 133.129C44.0863 134.007 44.5686 134.842 45.1685 135.238Z" fill="white"/>
<path d="M59.3888 135.67C60.2423 135.92 61.0404 135.459 61.4117 134.873C61.6223 134.009 61.1401 133.174 60.5526 132.771C59.6991 132.521 58.9011 132.982 58.5297 133.568C58.1584 134.153 58.5353 135.42 59.3888 135.67Z" fill="white"/>
<path d="M72.891 135.941C73.7284 136.2 74.5024 135.753 74.8577 135.177C75.2129 134.601 74.5699 133.487 73.9905 133.079C73.153 132.82 72.3791 133.267 72.0239 133.843C71.5714 134.847 72.0536 135.682 72.891 135.941Z" fill="white"/>
<path d="M86.5031 136.726C87.3566 136.976 88.1546 136.515 88.5259 135.93C88.8972 135.344 88.2543 134.231 87.6668 133.827C86.8133 133.578 86.0153 134.039 85.644 134.624C85.4334 135.488 85.6496 136.477 86.5031 136.726Z" fill="white"/>
<path d="M100.438 136.747C101.275 137.006 102.049 136.559 102.404 135.983C102.599 135.128 102.117 134.293 101.537 133.885C100.7 133.627 99.926 134.073 99.5707 134.65C99.1183 135.653 99.6005 136.488 100.438 136.747Z" fill="white"/>
<path d="M113.943 137.593C114.821 137.829 115.656 137.346 116.052 136.746C116.288 135.868 115.805 135.033 115.206 134.637C114.327 134.402 113.492 134.884 113.096 135.484C112.861 136.362 113.343 137.197 113.943 137.593Z" fill="white"/>
<path d="M127.801 138.235C128.639 138.494 129.413 138.047 129.768 137.471C129.962 136.616 129.48 135.781 128.901 135.373C128.063 135.114 127.289 135.561 126.934 136.137C126.321 136.863 126.803 137.698 127.801 138.235Z" fill="white"/>
<path d="M4.41712 147.243C5.27062 147.492 6.0687 147.032 6.44 146.446C6.65056 145.582 6.1684 144.747 5.58092 144.344C4.72742 144.094 3.92934 144.555 3.55805 145.14C3.18675 145.726 3.56363 146.993 4.41712 147.243Z" fill="white"/>
<path d="M17.8488 147.554C18.7023 147.804 19.5003 147.343 19.8716 146.757C20.2429 146.172 19.6 145.058 19.0126 144.655C18.159 144.405 17.361 144.866 16.9897 145.451C16.7791 146.315 16.9953 147.304 17.8488 147.554Z" fill="white"/>
<path d="M31.601 148.258C32.4384 148.516 33.2124 148.07 33.5676 147.493C33.9229 146.917 33.2799 145.804 32.7004 145.396C31.863 145.137 31.0891 145.584 30.7339 146.16C30.2814 147.163 30.7636 147.999 31.601 148.258Z" fill="white"/>
<path d="M45.1059 149.102C45.9841 149.337 46.8193 148.855 47.2154 148.255C47.4507 147.377 46.9685 146.542 46.3687 146.146C45.4904 145.911 44.6552 146.393 44.2592 146.993C43.8631 147.592 44.3453 148.428 45.1059 149.102Z" fill="white"/>
<path d="M58.7153 149.312C59.5527 149.571 60.3266 149.125 60.6818 148.548C60.8763 147.694 60.3941 146.858 59.8147 146.451C58.9773 146.192 58.2033 146.639 57.8481 147.215C57.2349 147.94 57.8779 149.054 58.7153 149.312Z" fill="white"/>
<path d="M72.8295 149.806C73.6669 150.065 74.4408 149.618 74.7961 149.042C74.9906 148.187 74.5084 147.352 73.9289 146.944C73.0915 146.685 72.3176 147.132 71.9624 147.708C71.5099 148.712 71.9921 149.547 72.8295 149.806Z" fill="white"/>
<path d="M86.1915 150.158C87.045 150.407 87.8431 149.946 88.2144 149.361C88.425 148.497 87.9428 147.662 87.3553 147.259C86.5018 147.009 85.7038 147.47 85.3325 148.055C85.1219 148.919 85.338 149.908 86.1915 150.158Z" fill="white"/>
<path d="M99.9438 150.861C100.781 151.12 101.555 150.673 101.91 150.097C102.266 149.521 101.623 148.407 101.043 147.999C100.206 147.741 99.4318 148.187 99.0766 148.764C98.6242 149.767 99.1064 150.602 99.9438 150.861Z" fill="white"/>
<path d="M113.199 151.276C114.077 151.511 114.912 151.029 115.308 150.429C115.543 149.551 115.061 148.716 114.461 148.32C113.583 148.084 112.748 148.567 112.352 149.166C112.117 150.045 112.599 150.88 113.199 151.276Z" fill="white"/>
<path d="M127.49 151.667C128.327 151.926 129.101 151.48 129.456 150.903C129.651 150.049 129.169 149.213 128.589 148.806C127.752 148.547 126.978 148.993 126.623 149.57C126.17 150.573 126.652 151.409 127.49 151.667Z" fill="white"/>
<path d="M3.7426 160.884C4.58002 161.143 5.35394 160.696 5.70916 160.12C5.90365 159.265 5.4215 158.43 4.84206 158.022C4.00464 157.763 3.23067 158.21 2.87545 158.786C2.42299 159.79 2.90519 160.625 3.7426 160.884Z" fill="white"/>
<path d="M17.3547 161.668C18.2082 161.917 19.0062 161.457 19.3775 160.871C19.5881 160.007 19.1059 159.172 18.5184 158.769C17.6649 158.519 16.8668 158.98 16.4955 159.566C16.1242 160.151 16.5012 161.418 17.3547 161.668Z" fill="white"/>
<path d="M31.2895 161.69C32.1269 161.949 32.9008 161.502 33.256 160.926C33.6113 160.35 32.9684 159.236 32.3889 158.828C31.5515 158.569 30.7776 159.016 30.4223 159.592C29.9698 160.596 30.452 161.431 31.2895 161.69Z" fill="white"/>
<path d="M44.7944 162.534C45.6726 162.77 46.5078 162.288 46.9039 161.688C47.2999 161.088 46.657 159.974 46.0571 159.578C45.1789 159.343 44.3437 159.825 43.9477 160.425C43.7124 161.303 44.1945 162.138 44.7944 162.534Z" fill="white"/>
<path d="M58.4037 162.745C59.2411 163.004 60.0151 162.557 60.3703 161.981C60.5648 161.126 60.0826 160.291 59.5032 159.883C58.6658 159.624 57.8918 160.071 57.5366 160.647C57.0841 161.651 57.5663 162.486 58.4037 162.745Z" fill="white"/>
<path d="M71.9087 163.59C72.7869 163.825 73.622 163.343 74.0181 162.743C74.2534 161.865 73.7713 161.029 73.1714 160.633C72.2932 160.398 71.458 160.88 71.0619 161.48C70.8266 162.358 71.3088 163.194 71.9087 163.59Z" fill="white"/>
<path d="M85.6974 164.273C86.5509 164.523 87.349 164.062 87.7203 163.476C87.9309 162.612 87.4486 161.777 86.8612 161.374C86.0077 161.124 85.2096 161.585 84.8383 162.17C84.467 162.756 84.6832 163.745 85.6974 164.273Z" fill="white"/>
<path d="M99.8812 164.726C100.719 164.985 101.493 164.538 101.848 163.962C102.042 163.107 101.56 162.272 100.981 161.864C100.143 161.606 99.3693 162.052 99.0141 162.629C98.4009 163.354 99.0438 164.467 99.8812 164.726Z" fill="white"/>
<path d="M3.68106 174.748C4.51848 175.006 5.29246 174.56 5.6477 173.983C5.8422 173.129 5.35993 172.293 4.78049 171.886C3.94308 171.627 3.16917 172.074 2.81394 172.65C2.20072 173.375 2.68291 174.21 3.68106 174.748Z" fill="white"/>
<path d="M17.0441 175.099C17.8976 175.349 18.6957 174.888 19.067 174.302C19.2775 173.438 18.7953 172.603 18.2079 172.2C17.3544 171.95 16.5563 172.411 16.185 172.997C15.8137 173.582 16.1906 174.849 17.0441 175.099Z" fill="white"/>
<path d="M30.7953 175.804C31.6328 176.063 32.4067 175.616 32.7619 175.04C32.9564 174.185 32.4742 173.35 31.8948 172.942C31.0573 172.683 30.2834 173.13 29.9282 173.706C29.4757 174.71 29.9579 175.545 30.7953 175.804Z" fill="white"/>
<path d="M44.0502 176.217C44.9285 176.452 45.7637 175.97 46.1598 175.37C46.3951 174.492 45.9129 173.657 45.313 173.261C44.4347 173.026 43.5996 173.508 43.2035 174.108C42.9682 174.986 43.4504 175.821 44.0502 176.217Z" fill="white"/>
<path d="M58.3412 176.609C59.1787 176.868 59.9526 176.421 60.3078 175.845C60.5023 174.99 60.0201 174.155 59.4407 173.747C58.6033 173.488 57.8293 173.935 57.4741 174.511C57.0216 175.515 57.5038 176.35 58.3412 176.609Z" fill="white"/>
<path d="M71.1645 177.272C72.0428 177.508 72.8779 177.025 73.274 176.426C73.5093 175.547 73.0271 174.712 72.4273 174.316C71.549 174.081 70.7138 174.563 70.3177 175.163C70.0824 176.041 70.5647 176.876 71.1645 177.272Z" fill="white"/>
<path d="M85.3859 177.704C86.2394 177.954 87.0374 177.493 87.4087 176.907C87.6193 176.043 87.1371 175.208 86.5497 174.805C85.6962 174.555 84.8981 175.016 84.5268 175.602C84.3162 176.466 84.5324 177.454 85.3859 177.704Z" fill="white"/>
<path d="M2.93692 188.43C3.77435 188.689 4.54826 188.242 4.9035 187.666C5.098 186.811 4.6158 185.976 4.03636 185.568C3.19892 185.309 2.42506 185.756 2.06982 186.332C1.61734 187.336 2.09949 188.171 2.93692 188.43Z" fill="white"/>
<path d="M16.2999 188.782C17.1534 189.031 17.9515 188.571 18.3228 187.985C18.5334 187.121 18.0512 186.286 17.4637 185.883C16.6102 185.633 15.8122 186.094 15.4409 186.679C15.2303 187.543 15.4464 188.532 16.2999 188.782Z" fill="white"/>
<path d="M30.4838 189.235C31.3212 189.494 32.0951 189.047 32.4504 188.471C32.6449 187.616 32.1627 186.781 31.5833 186.373C30.7459 186.114 29.9719 186.561 29.6167 187.137C29.1642 188.141 29.6464 188.976 30.4838 189.235Z" fill="white"/>
<path d="M44.0959 190.02C44.9494 190.27 45.7474 189.809 46.1187 189.224C46.3293 188.36 45.8471 187.525 45.2596 187.121C44.4061 186.872 43.6081 187.332 43.2368 187.918C42.8655 188.504 43.0816 189.492 44.0959 190.02Z" fill="white"/>
</svg>
