<svg width="357" height="388" viewBox="0 0 357 388" fill="none" xmlns="http://www.w3.org/2000/svg">
<path d="M68.0022 133.203C69.2402 133.416 70.2569 132.637 70.6548 131.753C70.7727 130.502 69.9327 129.405 69.0337 128.933C67.7958 128.72 66.7789 129.499 66.381 130.383C65.6442 131.528 66.7643 132.991 68.0022 133.203Z" fill="white"/>
<path d="M86.3462 131.767C87.6377 131.938 88.7351 131.098 89.1866 130.172C89.3581 128.881 88.5181 127.784 87.5923 127.332C86.3007 127.16 85.2033 128.001 84.7518 128.926C84.5803 130.218 85.4204 131.315 86.3462 131.767Z" fill="white"/>
<path d="M106.725 129.674C107.963 129.887 108.98 129.108 109.378 128.224C109.495 126.973 108.655 125.876 107.756 125.404C106.518 125.191 105.502 125.97 105.104 126.854C104.647 128.364 105.487 129.462 106.725 129.674Z" fill="white"/>
<path d="M263.19 115.257C264.428 115.469 265.444 114.691 265.842 113.806C265.96 112.556 265.12 111.458 264.221 110.986C262.983 110.774 261.966 111.552 261.568 112.437C261.112 113.947 261.952 115.044 263.19 115.257Z" fill="white"/>
<path d="M282.243 113.279C283.502 113.475 284.55 112.673 284.969 111.772C285.108 110.505 284.268 109.408 283.359 108.944C282.1 108.747 281.051 109.55 280.632 110.451C280.213 111.352 280.984 113.083 282.243 113.279Z" fill="white"/>
<path d="M302.389 111.363C303.648 111.56 304.697 110.757 305.116 109.856C305.255 108.589 304.415 107.492 303.505 107.028C302.246 106.832 301.198 107.634 300.779 108.535C300.36 109.436 301.13 111.167 302.389 111.363Z" fill="white"/>
<path d="M30.76 156.311C31.998 156.524 33.0148 155.745 33.4127 154.86C33.5306 153.61 32.6905 152.513 31.7915 152.04C30.5535 151.828 29.5367 152.606 29.1389 153.491C28.682 155.001 29.5221 156.098 30.76 156.311Z" fill="white"/>
<path d="M49.8111 154.333C51.0702 154.529 52.1188 153.727 52.5378 152.826C52.6768 151.559 51.8367 150.462 50.9272 149.998C49.6681 149.801 48.6195 150.604 48.2005 151.505C48.0616 152.772 48.5521 154.137 49.8111 154.333Z" fill="white"/>
<path d="M69.4827 152.782C70.7206 152.995 71.7374 152.216 72.1353 151.332C72.2532 150.081 71.4132 148.984 70.5142 148.512C69.2762 148.299 68.2593 149.078 67.8614 149.962C67.4046 151.472 68.2448 152.57 69.4827 152.782Z" fill="white"/>
<path d="M88.395 150.912C89.6866 151.083 90.784 150.243 91.2355 149.317C91.407 148.026 90.5668 146.929 89.641 146.477C88.3494 146.305 87.2522 147.146 86.8007 148.071C86.6292 149.363 87.4692 150.46 88.395 150.912Z" fill="white"/>
<path d="M108.774 148.818C110.012 149.031 111.028 148.252 111.426 147.368C111.544 146.117 110.704 145.02 109.805 144.548C108.567 144.335 107.55 145.114 107.153 145.998C106.696 147.508 107.536 148.606 108.774 148.818Z" fill="white"/>
<path d="M127.553 147.95C128.845 148.121 129.942 147.281 130.394 146.356C130.565 145.064 129.725 143.967 128.799 143.515C127.508 143.344 126.41 144.184 125.959 145.109C125.507 146.035 126.627 147.498 127.553 147.95Z" fill="white"/>
<path d="M147.405 145.359C148.664 145.556 149.712 144.753 150.131 143.852C150.27 142.586 149.43 141.488 148.521 141.024C147.262 140.828 146.213 141.631 145.794 142.531C145.655 143.798 146.146 145.163 147.405 145.359Z" fill="white"/>
<path d="M167.076 143.809C168.314 144.022 169.331 143.243 169.729 142.359C169.847 141.108 169.007 140.011 168.108 139.539C166.87 139.326 165.853 140.105 165.455 140.989C164.998 142.499 165.838 143.597 167.076 143.809Z" fill="white"/>
<path d="M186.13 141.83C187.389 142.027 188.437 141.224 188.856 140.323C188.995 139.057 188.155 137.959 187.246 137.495C185.986 137.299 184.938 138.101 184.519 139.002C184.38 140.269 184.87 141.634 186.13 141.83Z" fill="white"/>
<path d="M206.276 139.916C207.535 140.112 208.584 139.309 209.003 138.408C209.142 137.142 208.302 136.044 207.392 135.58C206.133 135.384 205.084 136.187 204.665 137.088C204.246 137.989 205.017 139.719 206.276 139.916Z" fill="white"/>
<path d="M225.713 138.542C227.005 138.714 228.102 137.874 228.554 136.948C228.725 135.656 227.885 134.559 226.959 134.108C225.668 133.936 224.571 134.776 224.119 135.702C223.668 136.628 224.788 138.091 225.713 138.542Z" fill="white"/>
<path d="M245.09 136.317C246.328 136.529 247.345 135.751 247.743 134.866C248.141 133.981 247.021 132.518 246.122 132.046C244.884 131.833 243.867 132.612 243.469 133.497C243.012 135.007 243.852 136.104 245.09 136.317Z" fill="white"/>
<path d="M264.438 135.014C265.73 135.185 266.827 134.345 267.278 133.419C267.45 132.128 266.61 131.03 265.684 130.579C264.392 130.407 263.295 131.247 262.844 132.173C262.672 133.465 263.512 134.562 264.438 135.014Z" fill="white"/>
<path d="M284.29 132.423C285.549 132.619 286.597 131.817 287.016 130.916C287.155 129.649 286.315 128.552 285.406 128.088C284.147 127.891 283.098 128.694 282.679 129.595C282.54 130.862 283.031 132.227 284.29 132.423Z" fill="white"/>
<path d="M303.87 130.942C305.129 131.138 306.177 130.336 306.596 129.435C306.735 128.168 305.895 127.071 304.986 126.607C303.727 126.41 302.678 127.213 302.259 128.114C301.84 129.015 302.611 130.746 303.87 130.942Z" fill="white"/>
<path d="M323.448 129.462C324.707 129.658 325.755 128.856 326.174 127.955C326.313 126.688 325.473 125.591 324.564 125.127C323.305 124.93 322.256 125.733 321.837 126.634C321.418 127.535 322.189 129.266 323.448 129.462Z" fill="white"/>
<path d="M13.096 177.939C14.334 178.151 15.3507 177.373 15.7486 176.488C15.8664 175.237 15.0265 174.14 14.1275 173.668C12.8895 173.456 11.8726 174.234 11.4747 175.119C10.7379 176.263 11.8581 177.726 13.096 177.939Z" fill="white"/>
<path d="M32.2405 175.89C33.4784 176.102 34.4952 175.324 34.8931 174.439C35.011 173.189 34.171 172.091 33.272 171.619C32.034 171.407 31.0172 172.185 30.6193 173.07C30.1625 174.58 31.0025 175.677 32.2405 175.89Z" fill="white"/>
<path d="M51.7272 174.48C52.9862 174.676 54.0348 173.874 54.4538 172.973C54.5928 171.706 53.7527 170.609 52.8432 170.145C51.5841 169.948 50.5356 170.751 50.1166 171.652C49.9776 172.918 50.4681 174.283 51.7272 174.48Z" fill="white"/>
<path d="M71.5315 171.926C72.7694 172.139 73.7863 171.36 74.1842 170.476C74.302 169.225 73.4619 168.128 72.563 167.656C71.325 167.443 70.3082 168.222 69.9104 169.106C69.4536 170.616 70.2935 171.714 71.5315 171.926Z" fill="white"/>
<path d="M91.0182 170.516C92.2773 170.713 93.3258 169.91 93.7448 169.009C93.8838 167.742 93.0438 166.645 92.1342 166.181C90.8751 165.985 89.8266 166.787 89.4076 167.688C89.2686 168.955 89.7591 170.32 91.0182 170.516Z" fill="white"/>
<path d="M110.254 168.397C111.492 168.61 112.509 167.831 112.907 166.946C113.025 165.696 112.185 164.599 111.286 164.127C110.048 163.914 109.031 164.692 108.633 165.577C108.176 167.087 109.016 168.185 110.254 168.397Z" fill="white"/>
<path d="M129.602 167.095C130.894 167.266 131.991 166.426 132.442 165.501C132.614 164.209 131.774 163.112 130.848 162.66C129.557 162.489 128.459 163.329 128.008 164.254C127.556 165.18 128.676 166.643 129.602 167.095Z" fill="white"/>
<path d="M148.977 164.868C150.215 165.081 151.232 164.302 151.629 163.418C151.747 162.167 150.907 161.07 150.008 160.598C148.77 160.385 147.753 161.164 147.356 162.048C146.899 163.558 147.739 164.656 148.977 164.868Z" fill="white"/>
<path d="M169.125 162.953C170.363 163.166 171.38 162.388 171.778 161.503C172.176 160.618 171.056 159.155 170.157 158.683C168.919 158.47 167.902 159.249 167.504 160.134C167.047 161.644 167.887 162.741 169.125 162.953Z" fill="white"/>
<path d="M188.612 161.543C189.871 161.739 190.92 160.936 191.339 160.035C191.478 158.769 190.637 157.671 189.728 157.207C188.469 157.011 187.42 157.814 187.001 158.715C186.582 159.616 187.353 161.346 188.612 161.543Z" fill="white"/>
<path d="M208.283 159.992C209.521 160.205 210.538 159.426 210.936 158.542C211.054 157.291 210.214 156.194 209.315 155.722C208.077 155.509 207.06 156.288 206.662 157.172C206.205 158.682 207.045 159.78 208.283 159.992Z" fill="white"/>
<path d="M227.194 158.121C228.485 158.293 229.583 157.453 230.034 156.527C230.206 155.235 229.366 154.138 228.44 153.686C227.148 153.515 226.051 154.355 225.6 155.281C225.148 156.207 226.268 157.67 227.194 158.121Z" fill="white"/>
<path d="M247.483 156.099C248.742 156.295 249.791 155.492 250.21 154.591C250.349 153.325 249.509 152.228 248.599 151.764C247.34 151.567 246.291 152.37 245.872 153.271C245.453 154.172 246.224 155.902 247.483 156.099Z" fill="white"/>
<path d="M266.487 154.158C267.778 154.329 268.876 153.489 269.327 152.563C269.499 151.272 268.659 150.174 267.733 149.723C266.441 149.551 265.344 150.391 264.892 151.317C264.721 152.609 265.561 153.706 266.487 154.158Z" fill="white"/>
<path d="M286.297 152.5C287.535 152.712 288.552 151.934 288.95 151.049C289.068 149.799 288.228 148.701 287.329 148.229C286.091 148.017 285.074 148.795 284.676 149.68C284.219 151.19 285.059 152.287 286.297 152.5Z" fill="white"/>
<path d="M306.01 150.016C307.248 150.229 308.265 149.45 308.663 148.566C308.781 147.315 307.941 146.218 307.042 145.746C305.804 145.533 304.787 146.312 304.389 147.196C303.932 148.706 304.772 149.804 306.01 150.016Z" fill="white"/>
<path d="M325.497 148.606C326.756 148.803 327.804 148 328.223 147.099C328.362 145.832 327.522 144.735 326.613 144.271C325.354 144.074 324.305 144.877 323.886 145.778C323.747 147.045 324.238 148.41 325.497 148.606Z" fill="white"/>
<path d="M14.5764 197.518C15.8143 197.73 16.8312 196.952 17.2291 196.067C17.347 194.817 16.5069 193.719 15.6079 193.247C14.37 193.035 13.3531 193.813 12.9552 194.698C12.4984 196.208 13.3385 197.305 14.5764 197.518Z" fill="white"/>
<path d="M33.4887 195.646C34.7803 195.818 35.8776 194.978 36.3292 194.052C36.5007 192.76 35.6606 191.663 34.7348 191.212C33.4432 191.04 32.346 191.88 31.8945 192.806C31.7229 194.098 32.5629 195.195 33.4887 195.646Z" fill="white"/>
<path d="M53.776 193.624C55.0351 193.82 56.0837 193.018 56.5027 192.117C56.6416 190.85 55.8015 189.753 54.8919 189.289C53.6329 189.092 52.5844 189.895 52.1654 190.796C51.7464 191.697 52.2369 193.062 53.776 193.624Z" fill="white"/>
<path d="M73.4455 192.073C74.6835 192.285 75.7004 191.507 76.0982 190.622C76.2161 189.372 75.3761 188.274 74.4771 187.802C73.2392 187.59 72.2223 188.368 71.8244 189.253C71.0876 190.397 72.2076 191.86 73.4455 192.073Z" fill="white"/>
<path d="M92.4987 190.095C93.7578 190.291 94.8062 189.489 95.2252 188.588C95.3642 187.321 94.5242 186.224 93.6147 185.76C92.3556 185.563 91.307 186.366 90.888 187.267C90.749 188.534 91.2397 189.899 92.4987 190.095Z" fill="white"/>
<path d="M112.737 188.109C113.975 188.322 114.991 187.543 115.389 186.659C115.507 185.408 114.667 184.311 113.768 183.839C112.53 183.626 111.513 184.405 111.115 185.289C110.659 186.799 111.499 187.897 112.737 188.109Z" fill="white"/>
<path d="M132.084 186.807C133.376 186.979 134.473 186.139 134.925 185.213C135.096 183.921 134.256 182.824 133.331 182.372C132.039 182.201 130.942 183.041 130.49 183.967C130.319 185.258 131.159 186.356 132.084 186.807Z" fill="white"/>
<path d="M151.37 184.65C152.629 184.847 153.677 184.044 154.096 183.143C154.235 181.877 153.395 180.779 152.486 180.315C151.227 180.119 150.178 180.922 149.759 181.823C149.34 182.723 150.111 184.454 151.37 184.65Z" fill="white"/>
<path d="M170.807 183.278C172.099 183.449 173.196 182.609 173.648 181.684C173.819 180.392 172.979 179.295 172.053 178.843C170.762 178.672 169.664 179.512 169.213 180.438C168.761 181.363 169.881 182.826 170.807 183.278Z" fill="white"/>
<path d="M190.092 181.121C191.352 181.318 192.4 180.515 192.819 179.614C193.238 178.713 192.118 177.25 191.208 176.786C189.949 176.59 188.901 177.392 188.482 178.293C188.343 179.56 188.833 180.925 190.092 181.121Z" fill="white"/>
<path d="M210.33 179.137C211.568 179.349 212.585 178.571 212.983 177.686C213.101 176.436 212.261 175.338 211.362 174.866C210.124 174.654 209.107 175.432 208.709 176.317C208.252 177.827 209.092 178.924 210.33 179.137Z" fill="white"/>
<path d="M229.819 177.726C231.078 177.922 232.127 177.119 232.546 176.218C232.685 174.952 231.845 173.854 230.935 173.39C229.676 173.194 228.627 173.997 228.208 174.898C227.789 175.799 228.28 177.163 229.819 177.726Z" fill="white"/>
<path d="M249.055 175.608C250.293 175.82 251.31 175.042 251.708 174.157C251.825 172.906 250.985 171.809 250.086 171.337C248.849 171.125 247.832 171.903 247.434 172.788C246.697 173.932 247.817 175.395 249.055 175.608Z" fill="white"/>
<path d="M268.401 174.304C269.692 174.476 270.79 173.636 271.241 172.71C271.413 171.418 270.573 170.321 269.647 169.87C268.355 169.698 267.258 170.538 266.807 171.464C266.355 172.39 267.475 173.853 268.401 174.304Z" fill="white"/>
<path d="M288.346 171.644C289.584 171.857 290.601 171.078 290.999 170.193C291.396 169.309 290.276 167.846 289.377 167.373C288.14 167.161 287.123 167.939 286.725 168.824C286.268 170.334 287.108 171.431 288.346 171.644Z" fill="white"/>
<path d="M307.692 170.341C308.984 170.512 310.081 169.672 310.532 168.746C310.984 167.821 309.864 166.358 308.938 165.906C308.012 165.454 306.549 166.574 306.098 167.5C305.926 168.792 306.766 169.889 307.692 170.341Z" fill="white"/>
<path d="M-3.31985 219.322C-2.02828 219.494 -0.930891 218.654 -0.479354 217.728C-0.307831 216.436 -1.14799 215.339 -2.07379 214.887C-3.36537 214.716 -4.46265 215.556 -4.91418 216.482C-5.08571 217.773 -4.24565 218.871 -3.31985 219.322Z" fill="white"/>
<path d="M16.6252 216.662C17.8631 216.874 18.88 216.096 19.2779 215.211C19.6758 214.326 18.5557 212.863 17.6567 212.391C16.4188 212.179 15.402 212.957 15.0041 213.842C14.5473 215.352 15.3873 216.449 16.6252 216.662Z" fill="white"/>
<path d="M35.9712 215.359C37.2628 215.53 38.3601 214.69 38.8116 213.764C38.9831 212.473 38.1431 211.375 37.2173 210.924C35.9257 210.752 34.8283 211.592 34.3768 212.518C34.2053 213.81 35.0454 214.907 35.9712 215.359Z" fill="white"/>
<path d="M55.2565 213.203C56.5156 213.399 57.564 212.596 57.983 211.695C58.122 210.429 57.282 209.332 56.3725 208.868C55.1134 208.671 54.0649 209.474 53.6459 210.375C53.5069 211.641 53.9974 213.006 55.2565 213.203Z" fill="white"/>
<path d="M75.4029 211.288C76.662 211.484 77.7106 210.682 78.1296 209.781C78.2686 208.514 77.4285 207.417 76.5189 206.953C75.2599 206.756 74.2114 207.559 73.7924 208.46C73.3733 209.361 74.1439 211.092 75.4029 211.288Z" fill="white"/>
<path d="M94.5475 209.239C95.8065 209.435 96.8551 208.633 97.2741 207.732C97.4131 206.465 96.573 205.368 95.6635 204.904C94.4045 204.707 93.3559 205.51 92.9369 206.411C92.5179 207.312 93.2884 209.043 94.5475 209.239Z" fill="white"/>
<path d="M114.653 208.256C115.891 208.469 116.907 207.69 117.305 206.805C117.703 205.921 116.583 204.458 115.684 203.985C114.446 203.773 113.429 204.551 113.031 205.436C112.295 206.58 113.135 207.678 114.653 208.256Z" fill="white"/>
<path d="M133.565 206.386C134.856 206.557 135.954 205.717 136.405 204.792C136.577 203.5 135.737 202.403 134.811 201.951C133.519 201.78 132.422 202.62 131.971 203.546C131.519 204.471 132.639 205.934 133.565 206.386Z" fill="white"/>
<path d="M153.944 204.292C155.182 204.505 156.198 203.727 156.596 202.842C156.714 201.591 155.874 200.494 154.975 200.022C154.076 199.55 152.72 200.588 152.322 201.472C151.866 202.982 152.706 204.08 153.944 204.292Z" fill="white"/>
<path d="M172.288 202.857C173.579 203.028 174.676 202.188 175.128 201.262C175.299 199.971 174.459 198.874 173.534 198.422C172.242 198.251 171.145 199.091 170.693 200.016C170.522 201.308 171.362 202.405 172.288 202.857Z" fill="white"/>
<path d="M192.575 200.834C193.834 201.03 194.882 200.227 195.301 199.326C195.44 198.06 194.6 196.962 193.691 196.498C192.432 196.302 191.383 197.105 190.964 198.006C190.545 198.906 191.316 200.637 192.575 200.834Z" fill="white"/>
<path d="M211.811 198.715C213.049 198.928 214.066 198.15 214.464 197.265C214.861 196.38 213.741 194.917 212.842 194.445C211.604 194.232 210.588 195.011 210.19 195.896C209.733 197.406 210.573 198.503 211.811 198.715Z" fill="white"/>
<path d="M231.299 197.305C232.558 197.502 233.607 196.699 234.026 195.798C234.445 194.897 233.325 193.434 232.415 192.97C231.156 192.774 230.108 193.576 229.689 194.477C229.55 195.744 230.04 197.109 231.299 197.305Z" fill="white"/>
<path d="M251.102 194.752C252.34 194.964 253.357 194.186 253.754 193.301C253.872 192.051 253.032 190.953 252.133 190.481C250.895 190.269 249.878 191.047 249.481 191.932C249.024 193.442 249.864 194.539 251.102 194.752Z" fill="white"/>
<path d="M270.45 193.449C271.741 193.621 272.839 192.781 273.29 191.855C273.462 190.563 272.622 189.466 271.696 189.015C270.404 188.843 269.307 189.683 268.855 190.609C268.684 191.901 269.524 192.998 270.45 193.449Z" fill="white"/>
<path d="M290.26 191.791C291.498 192.003 292.515 191.225 292.913 190.34C293.031 189.09 292.191 187.992 291.292 187.52C290.054 187.308 289.037 188.086 288.639 188.971C287.902 190.115 288.742 191.212 290.26 191.791Z" fill="white"/>
<path d="M-1.13026 238.359C0.128813 238.556 1.17732 237.753 1.59634 236.852C1.73533 235.586 0.895265 234.488 -0.0142907 234.024C-1.27336 233.828 -2.32178 234.631 -2.7408 235.531C-3.15982 236.432 -2.66935 237.797 -1.13026 238.359Z" fill="white"/>
<path d="M18.4479 236.878C19.7069 237.075 20.7555 236.272 21.1745 235.371C21.3135 234.105 20.4734 233.007 19.5639 232.543C18.3048 232.347 17.2563 233.15 16.8373 234.05C16.4183 234.951 17.1888 236.682 18.4479 236.878Z" fill="white"/>
<path d="M37.4517 234.938C38.7432 235.11 39.8405 234.27 40.292 233.344C40.7436 232.418 39.6236 230.955 38.6977 230.504C37.4062 230.332 36.3088 231.172 35.8573 232.098C35.6858 233.39 36.5259 234.487 37.4517 234.938Z" fill="white"/>
<path d="M57.8304 232.845C59.0683 233.057 60.0851 232.279 60.483 231.394C60.6009 230.144 59.7608 229.046 58.8618 228.574C57.6239 228.362 56.607 229.14 56.2091 230.025C55.7523 231.535 56.5924 232.632 57.8304 232.845Z" fill="white"/>
<path d="M77.4104 231.365C78.6483 231.577 79.6652 230.799 80.0631 229.914C80.1809 228.664 79.3409 227.566 78.4419 227.094C77.204 226.882 76.1871 227.66 75.7892 228.545C75.3324 230.055 76.1725 231.152 77.4104 231.365Z" fill="white"/>
<path d="M96.4635 229.386C97.7225 229.582 98.7711 228.78 99.1901 227.879C99.3291 226.612 98.489 225.515 97.5795 225.051C96.3204 224.854 95.2719 225.657 94.8529 226.558C94.7139 227.825 95.2044 229.189 96.4635 229.386Z" fill="white"/>
<path d="M116.61 227.471C117.869 227.667 118.918 226.865 119.337 225.964C119.476 224.697 118.636 223.6 117.726 223.136C116.467 222.939 115.418 223.742 114.999 224.643C114.58 225.544 115.351 227.275 116.61 227.471Z" fill="white"/>
<path d="M135.755 225.422C137.014 225.619 138.062 224.816 138.481 223.915C138.9 223.014 137.78 221.551 136.871 221.087C135.611 220.891 134.563 221.693 134.144 222.594C134.005 223.861 134.495 225.226 135.755 225.422Z" fill="white"/>
<path d="M155.424 223.872C156.662 224.085 157.679 223.306 158.077 222.422C158.475 221.537 157.355 220.074 156.456 219.602C155.218 219.389 154.201 220.168 153.803 221.052C153.346 222.562 154.186 223.66 155.424 223.872Z" fill="white"/>
<path d="M174.772 222.569C176.063 222.741 177.161 221.9 177.612 220.975C177.784 219.683 176.944 218.586 176.018 218.134C174.726 217.963 173.629 218.803 173.178 219.729C172.726 220.654 173.566 221.752 174.772 222.569Z" fill="white"/>
<path d="M194.149 220.343C195.387 220.556 196.403 219.777 196.801 218.893C196.919 217.642 196.079 216.545 195.18 216.073C193.942 215.86 192.925 216.639 192.527 217.523C191.791 218.668 192.911 220.131 194.149 220.343Z" fill="white"/>
<path d="M214.295 218.427C215.533 218.64 216.55 217.862 216.948 216.977C217.066 215.726 216.226 214.629 215.327 214.157C214.089 213.944 213.072 214.723 212.674 215.608C212.217 217.118 213.057 218.215 214.295 218.427Z" fill="white"/>
<path d="M233.348 216.45C234.607 216.646 235.656 215.843 236.075 214.942C236.214 213.676 235.374 212.578 234.464 212.114C233.205 211.918 232.157 212.721 231.738 213.622C231.599 214.888 232.089 216.253 233.348 216.45Z" fill="white"/>
<path d="M253.018 214.899C254.256 215.111 255.273 214.333 255.67 213.448C256.068 212.563 254.948 211.1 254.049 210.628C252.811 210.415 251.795 211.194 251.397 212.079C250.94 213.589 251.78 214.686 253.018 214.899Z" fill="white"/>
<path d="M271.93 213.028C273.222 213.2 274.319 212.36 274.771 211.434C274.942 210.142 274.102 209.045 273.176 208.593C271.885 208.422 270.787 209.262 270.336 210.188C270.164 211.479 271.004 212.577 271.93 213.028Z" fill="white"/>
<path d="M292.309 210.935C293.547 211.148 294.564 210.369 294.962 209.484C295.079 208.234 294.239 207.137 293.34 206.664C292.102 206.452 291.086 207.23 290.688 208.115C290.231 209.625 291.071 210.722 292.309 210.935Z" fill="white"/>
<path d="M0.350293 257.938C1.60936 258.135 2.65777 257.332 3.07678 256.431C3.21577 255.164 2.37579 254.067 1.46623 253.603C0.207168 253.407 -0.841435 254.209 -1.26044 255.11C-1.39944 256.377 -0.908773 257.742 0.350293 257.938Z" fill="white"/>
<path d="M20.5881 255.953C21.8261 256.165 22.8429 255.387 23.2408 254.502C23.3587 253.252 22.5186 252.154 21.6196 251.682C20.3817 251.47 19.3649 252.248 18.967 253.133C18.5101 254.643 19.3502 255.74 20.5881 255.953Z" fill="white"/>
<path d="M39.5005 254.082C40.792 254.254 41.8894 253.414 42.3409 252.488C42.5124 251.197 41.6724 250.099 40.7466 249.648C39.455 249.476 38.3576 250.316 37.9061 251.242C37.4546 252.168 38.5747 253.631 39.5005 254.082Z" fill="white"/>
<path d="M59.7463 252.992C60.9842 253.204 62.0011 252.426 62.399 251.541C62.5169 250.291 61.6768 249.193 60.7779 248.721C59.5399 248.509 58.523 249.287 58.1252 250.172C57.3883 251.316 58.2284 252.413 59.7463 252.992Z" fill="white"/>
<path d="M78.6587 251.121C79.9503 251.293 81.0475 250.453 81.4991 249.527C81.6706 248.236 80.8305 247.138 79.9047 246.687C78.6131 246.515 77.5159 247.355 77.0644 248.281C76.6128 249.207 77.7328 250.67 78.6587 251.121Z" fill="white"/>
<path d="M98.9459 249.098C100.205 249.294 101.254 248.492 101.673 247.591C101.812 246.324 100.971 245.227 100.062 244.763C98.8028 244.566 97.7543 245.369 97.3353 246.27C97.1963 247.537 97.6868 248.902 98.9459 249.098Z" fill="white"/>
<path d="M118.182 246.98C119.42 247.193 120.437 246.414 120.835 245.529C120.952 244.279 120.112 243.181 119.213 242.709C117.975 242.497 116.959 243.275 116.561 244.16C116.104 245.67 116.944 246.767 118.182 246.98Z" fill="white"/>
<path d="M137.669 245.569C138.928 245.765 139.976 244.963 140.395 244.062C140.534 242.795 139.694 241.698 138.785 241.234C137.526 241.037 136.477 241.84 136.058 242.741C135.639 243.642 136.41 245.372 137.669 245.569Z" fill="white"/>
<path d="M157.473 243.016C158.711 243.229 159.728 242.45 160.126 241.566C160.523 240.681 159.403 239.218 158.504 238.746C157.266 238.533 156.25 239.312 155.852 240.196C155.395 241.706 156.235 242.804 157.473 243.016Z" fill="white"/>
<path d="M176.819 241.713C178.11 241.885 179.208 241.045 179.659 240.119C180.111 239.193 178.991 237.73 178.065 237.278C176.773 237.107 175.676 237.947 175.225 238.873C175.053 240.164 175.893 241.262 176.819 241.713Z" fill="white"/>
<path d="M196.196 239.487C197.433 239.7 198.45 238.921 198.848 238.037C198.966 236.786 198.126 235.689 197.227 235.217C195.989 235.004 194.972 235.783 194.574 236.667C194.118 238.177 194.958 239.275 196.196 239.487Z" fill="white"/>
<path d="M215.543 238.184C216.835 238.356 217.932 237.516 218.384 236.59C218.555 235.298 217.715 234.201 216.79 233.749C215.498 233.578 214.401 234.418 213.949 235.344C213.778 236.635 214.618 237.733 215.543 238.184Z" fill="white"/>
<path d="M235.262 236.596C236.521 236.793 237.57 235.99 237.989 235.089C238.128 233.822 237.288 232.725 236.378 232.261C235.119 232.065 234.071 232.867 233.652 233.768C233.233 234.669 233.723 236.034 235.262 236.596Z" fill="white"/>
<path d="M255.5 234.611C256.738 234.823 257.755 234.045 258.153 233.16C258.271 231.909 257.431 230.812 256.532 230.34C255.294 230.127 254.277 230.906 253.879 231.791C253.142 232.935 254.262 234.398 255.5 234.611Z" fill="white"/>
<path d="M2.83263 277.65C4.09167 277.847 5.14025 277.044 5.55925 276.143C5.69824 274.877 4.85818 273.779 3.94865 273.315C2.68961 273.119 1.64103 273.922 1.22203 274.822C1.08304 276.089 1.57359 277.454 2.83263 277.65Z" fill="white"/>
<path d="M22.5042 276.099C23.7421 276.312 24.7589 275.534 25.1568 274.649C25.2747 273.398 24.4346 272.301 23.5357 271.829C22.2977 271.616 21.2808 272.395 20.8829 273.28C20.4261 274.79 21.2663 275.887 22.5042 276.099Z" fill="white"/>
<path d="M41.4145 274.229C42.7061 274.401 43.8035 273.561 44.255 272.635C44.4265 271.343 43.5863 270.246 42.6605 269.794C41.3689 269.623 40.2718 270.463 39.8202 271.389C39.6487 272.68 40.4887 273.778 41.4145 274.229Z" fill="white"/>
<path d="M61.7951 272.136C63.0331 272.348 64.05 271.57 64.4478 270.685C64.5657 269.435 63.7257 268.337 62.8267 267.865C61.5888 267.653 60.5719 268.431 60.174 269.316C59.7172 270.826 60.5572 271.923 61.7951 272.136Z" fill="white"/>
<path d="M80.7076 270.266C81.9992 270.437 83.0964 269.597 83.5479 268.671C83.9994 267.745 82.8794 266.282 81.9536 265.831C80.662 265.659 79.5646 266.499 79.1131 267.425C78.9416 268.717 79.7818 269.814 80.7076 270.266Z" fill="white"/>
<path d="M60.2584 270.611C61.5499 270.782 62.6471 269.942 63.0987 269.016C63.5502 268.091 62.4302 266.628 61.5044 266.176C60.2128 266.004 59.1154 266.845 58.6639 267.77C58.4924 269.062 59.3325 270.159 60.2584 270.611Z" fill="white"/>
<path d="M100.426 268.677C101.685 268.873 102.734 268.071 103.153 267.17C103.572 266.269 102.452 264.806 101.542 264.342C100.283 264.145 99.2348 264.948 98.8158 265.849C98.6768 267.115 99.1673 268.48 100.426 268.677Z" fill="white"/>
<path d="M120.664 266.692C121.902 266.905 122.919 266.126 123.317 265.241C123.435 263.991 122.595 262.894 121.696 262.422C120.458 262.209 119.441 262.987 119.043 263.872C118.306 265.016 119.146 266.114 120.664 266.692Z" fill="white"/>
<path d="M139.717 264.713C140.976 264.91 142.025 264.107 142.444 263.206C142.583 261.939 141.743 260.842 140.833 260.378C139.574 260.182 138.526 260.984 138.107 261.885C137.688 262.786 138.458 264.517 139.717 264.713Z" fill="white"/>
<path d="M159.389 263.163C160.627 263.376 161.644 262.597 162.042 261.712C162.159 260.462 161.319 259.364 160.42 258.892C159.182 258.68 158.166 259.458 157.768 260.343C157.311 261.853 158.151 262.95 159.389 263.163Z" fill="white"/>
<path d="M178.299 261.292C179.591 261.463 180.688 260.623 181.14 259.698C181.311 258.406 180.471 257.309 179.545 256.857C178.254 256.686 177.156 257.526 176.705 258.451C176.533 259.743 177.373 260.84 178.299 261.292Z" fill="white"/>
<path d="M198.68 259.199C199.918 259.412 200.935 258.633 201.333 257.749C201.45 256.498 200.61 255.401 199.711 254.929C198.474 254.716 197.457 255.495 197.059 256.379C196.602 257.889 197.442 258.987 198.68 259.199Z" fill="white"/>
<path d="M217.024 257.763C218.316 257.935 219.413 257.095 219.864 256.169C220.036 254.877 219.196 253.78 218.27 253.328C216.978 253.157 215.881 253.997 215.429 254.923C215.258 256.214 216.098 257.312 217.024 257.763Z" fill="white"/>
<path d="M237.311 255.74C238.57 255.937 239.619 255.134 240.038 254.233C240.177 252.966 239.337 251.869 238.427 251.405C237.168 251.209 236.12 252.011 235.701 252.912C235.562 254.179 236.052 255.544 237.311 255.74Z" fill="white"/>
<path d="M24.551 295.245C25.7889 295.457 26.8058 294.679 27.2037 293.794C27.6016 292.909 26.4815 291.446 25.5825 290.974C24.3446 290.761 23.3278 291.54 22.9299 292.425C22.1931 293.569 23.3131 295.032 24.551 295.245Z" fill="white"/>
<path d="M44.0397 293.834C45.2987 294.03 46.3472 293.227 46.7663 292.326C46.9052 291.06 46.0653 289.962 45.1557 289.498C43.8966 289.302 42.8481 290.105 42.4291 291.006C42.2901 292.272 42.7806 293.637 44.0397 293.834Z" fill="white"/>
<path d="M63.2757 291.716C64.5136 291.928 65.5304 291.15 65.9283 290.265C66.0462 289.014 65.2061 287.917 64.3071 287.445C63.0692 287.232 62.0524 288.011 61.6545 288.896C61.1977 290.406 62.0377 291.503 63.2757 291.716Z" fill="white"/>
<path d="M82.6215 290.412C83.9131 290.584 85.0105 289.744 85.462 288.818C85.6335 287.526 84.7935 286.429 83.8677 285.977C82.5761 285.806 81.4787 286.646 81.0272 287.572C80.8557 288.863 81.6958 289.961 82.6215 290.412Z" fill="white"/>
<path d="M102.567 287.752C103.805 287.964 104.821 287.186 105.219 286.301C105.337 285.051 104.497 283.953 103.598 283.481C102.36 283.269 101.343 284.047 100.945 284.932C100.489 286.442 101.329 287.539 102.567 287.752Z" fill="white"/>
<path d="M122.145 286.271C123.383 286.483 124.4 285.705 124.797 284.82C124.915 283.57 124.075 282.472 123.176 282C121.938 281.788 120.922 282.566 120.524 283.451C120.067 284.961 120.907 286.058 122.145 286.271Z" fill="white"/>
<path d="M141.198 284.293C142.457 284.489 143.505 283.686 143.924 282.786C144.063 281.519 143.223 280.422 142.314 279.958C141.055 279.761 140.006 280.564 139.587 281.465C139.448 282.731 139.939 284.096 141.198 284.293Z" fill="white"/>
<path d="M161.436 282.307C162.674 282.52 163.691 281.741 164.088 280.857C164.206 279.606 163.366 278.509 162.467 278.037C161.229 277.824 160.212 278.603 159.815 279.487C159.358 280.997 160.198 282.095 161.436 282.307Z" fill="white"/>
<path d="M180.924 280.897C182.184 281.093 183.232 280.291 183.651 279.39C183.79 278.123 182.95 277.026 182.04 276.562C180.781 276.365 179.733 277.168 179.314 278.069C178.895 278.97 179.385 280.335 180.924 280.897Z" fill="white"/>
<path d="M84.6704 309.557C85.9619 309.728 87.0593 308.888 87.5108 307.962C87.6823 306.671 86.8423 305.573 85.9165 305.122C84.6249 304.95 83.5276 305.79 83.076 306.716C82.6245 307.642 83.7446 309.105 84.6704 309.557Z" fill="white"/>
<path d="M104.481 307.899C105.719 308.111 106.736 307.333 107.133 306.448C107.251 305.197 106.411 304.1 105.512 303.628C104.274 303.415 103.257 304.194 102.86 305.079C102.403 306.589 103.243 307.686 104.481 307.899Z" fill="white"/>
</svg>
