<svg width="384" height="419" viewBox="0 0 384 419" fill="none" xmlns="http://www.w3.org/2000/svg">
<path d="M75.2475 84.1335C76.5651 84.5847 78.0683 84.073 78.5217 82.7616C78.975 81.4503 78.4605 79.954 77.1429 79.5028C75.8253 79.0516 74.322 79.5634 73.8687 80.8748C73.4153 82.1861 73.9299 83.6823 75.2475 84.1335Z" fill="#003DEA"/>
<path d="M97.1017 85.3144C98.4193 85.7656 99.9226 85.2538 100.376 83.9424C100.829 82.6311 100.315 81.1349 98.9972 80.6837C97.6796 80.2325 96.1767 80.7446 95.7234 82.0559C95.27 83.3673 95.7841 84.8632 97.1017 85.3144Z" fill="#003DEA"/>
<path d="M51.9689 105.058C53.2865 105.51 54.7898 104.998 55.2431 103.686C55.6965 102.375 55.1824 100.879 53.8648 100.428C52.5472 99.9768 51.0439 100.489 50.5906 101.8C50.1372 103.111 50.6513 104.607 51.9689 105.058Z" fill="#003DEA"/>
<path d="M73.8039 106.226C75.1215 106.678 76.6247 106.166 77.0781 104.855C77.5315 103.543 77.0173 102.047 75.6997 101.596C74.3821 101.145 72.8789 101.657 72.4255 102.968C71.9722 104.279 72.4863 105.775 73.8039 106.226Z" fill="#003DEA"/>
<path d="M96.2651 107.319C97.5826 107.77 99.0859 107.258 99.5393 105.947C99.9926 104.635 99.4781 103.139 98.1605 102.688C96.8429 102.237 95.3396 102.749 94.8863 104.06C94.4329 105.371 94.9475 106.867 96.2651 107.319Z" fill="white"/>
<path d="M118.12 108.497C119.437 108.949 120.94 108.437 121.394 107.126C121.847 105.814 121.333 104.318 120.015 103.867C118.697 103.416 117.195 103.928 116.741 105.239C116.288 106.55 116.802 108.046 118.12 108.497Z" fill="white"/>
<path d="M140.231 109.326C141.549 109.777 143.052 109.266 143.505 107.954C143.959 106.643 143.445 105.147 142.127 104.696C140.809 104.245 139.306 104.756 138.853 106.068C138.482 107.994 139.263 109.141 140.231 109.326Z" fill="white"/>
<path d="M162.423 110.766C163.741 111.217 165.244 110.705 165.697 109.393C166.15 108.082 165.636 106.586 164.319 106.135C163.001 105.684 161.498 106.196 161.044 107.507C160.591 108.818 161.106 110.315 162.423 110.766Z" fill="white"/>
<path d="M28.6712 125.971C29.9888 126.422 31.4916 125.91 31.945 124.599C32.3983 123.287 31.8842 121.791 30.5666 121.34C29.249 120.889 27.7458 121.401 27.2924 122.712C26.8391 124.023 27.3536 125.52 28.6712 125.971Z" fill="#003DEA"/>
<path d="M50.5059 127.14C51.8235 127.591 53.3268 127.08 53.7802 125.768C54.2335 124.457 53.719 122.961 52.4014 122.509C51.0838 122.058 49.5805 122.57 49.1272 123.881C48.6738 125.193 49.4561 126.341 50.5059 127.14Z" fill="#003DEA"/>
<path d="M72.9826 128.243C74.3002 128.694 75.8035 128.182 76.2568 126.871C76.7102 125.56 76.196 124.064 74.8784 123.613C73.5608 123.161 72.0576 123.673 71.6042 124.984C71.1509 126.296 71.665 127.792 72.9826 128.243Z" fill="#003DEA"/>
<path d="M94.8216 129.41C96.1392 129.861 97.6425 129.35 98.0958 128.038C98.5492 126.727 98.0351 125.231 96.7175 124.78C95.3999 124.329 93.8966 124.84 93.4433 126.152C92.9899 127.463 93.7718 128.611 94.8216 129.41Z" fill="white"/>
<path d="M116.938 130.238C118.255 130.689 119.758 130.177 120.212 128.866C120.665 127.554 120.151 126.058 118.833 125.607C117.516 125.156 116.012 125.668 115.559 126.979C115.456 128.557 115.97 130.053 116.938 130.238Z" fill="white"/>
<path d="M139.129 131.678C140.446 132.129 141.95 131.617 142.403 130.306C142.856 128.994 142.342 127.498 141.024 127.047C139.707 126.596 138.204 127.108 137.75 128.419C137.297 129.73 137.811 131.226 139.129 131.678Z" fill="white"/>
<path d="M161.25 132.51C162.568 132.961 164.071 132.449 164.524 131.138C164.977 129.826 164.463 128.331 163.146 127.879C161.828 127.428 160.325 127.94 159.872 129.251C159.418 130.563 159.932 132.058 161.25 132.51Z" fill="white"/>
<path d="M183.441 133.948C184.759 134.399 186.261 133.887 186.715 132.576C187.168 131.264 186.654 129.768 185.336 129.317C184.019 128.866 182.516 129.378 182.062 130.689C181.609 132 182.123 133.497 183.441 133.948Z" fill="white"/>
<path d="M205.545 134.769C206.863 135.22 208.366 134.708 208.82 133.397C209.273 132.085 208.758 130.589 207.441 130.138C206.123 129.687 204.62 130.198 204.167 131.51C203.445 133.169 204.228 134.317 205.545 134.769Z" fill="white"/>
<path d="M227.749 136.216C229.067 136.667 230.57 136.155 231.023 134.844C231.477 133.533 230.963 132.037 229.645 131.585C228.327 131.134 226.824 131.646 226.371 132.957C225.917 134.269 226.432 135.765 227.749 136.216Z" fill="white"/>
<path d="M27.4966 147.717C28.8142 148.168 30.3174 147.656 30.7708 146.345C31.2241 145.033 30.71 143.538 29.3924 143.086C28.0748 142.635 26.5715 143.147 26.1182 144.458C25.3971 146.118 26.179 147.265 27.4966 147.717Z" fill="#003DEA"/>
<path d="M49.6888 149.156C51.0064 149.607 52.5092 149.095 52.9626 147.784C53.4159 146.472 52.9018 144.976 51.5842 144.525C50.2666 144.074 48.7634 144.586 48.31 145.897C47.8566 147.208 48.3712 148.705 49.6888 149.156Z" fill="#003DEA"/>
<path d="M71.5235 150.322C72.8411 150.774 74.3444 150.262 74.7977 148.95C75.2511 147.639 74.7365 146.143 73.4189 145.692C72.1014 145.24 70.5981 145.752 70.1447 147.064C69.6914 148.375 70.4737 149.523 71.5235 150.322Z" fill="white"/>
<path d="M93.9967 151.422C95.3143 151.873 96.8176 151.361 97.271 150.05C97.7243 148.739 97.2102 147.243 95.8926 146.791C94.575 146.34 93.0717 146.852 92.6184 148.163C92.165 149.475 92.6792 150.971 93.9967 151.422Z" fill="white"/>
<path d="M115.832 152.592C117.149 153.043 118.653 152.531 119.106 151.22C119.559 149.908 119.045 148.412 117.728 147.961C116.41 147.51 114.907 148.022 114.454 149.333C114 150.644 114.782 151.792 115.832 152.592Z" fill="white"/>
<path d="M137.951 153.423C139.269 153.874 140.772 153.362 141.225 152.051C141.679 150.739 141.164 149.243 139.847 148.792C138.529 148.341 137.026 148.853 136.573 150.164C136.119 151.476 136.634 152.972 137.951 153.423Z" fill="white"/>
<path d="M160.146 154.861C161.464 155.312 162.967 154.8 163.421 153.489C163.874 152.177 163.359 150.681 162.042 150.23C160.724 149.779 159.221 150.291 158.768 151.602C158.315 152.914 158.829 154.409 160.146 154.861Z" fill="white"/>
<path d="M182.267 155.693C183.585 156.144 185.088 155.632 185.541 154.321C185.995 153.009 185.481 151.513 184.163 151.062C182.845 150.611 181.342 151.123 180.889 152.434C180.435 153.746 180.95 155.241 182.267 155.693Z" fill="white"/>
<path d="M204.459 157.133C205.777 157.584 207.28 157.072 207.733 155.761C208.186 154.449 207.672 152.954 206.355 152.502C205.037 152.051 203.534 152.563 203.081 153.874C202.627 155.186 203.142 156.682 204.459 157.133Z" fill="white"/>
<path d="M226.563 157.952C227.881 158.403 229.384 157.891 229.837 156.58C230.291 155.268 229.776 153.772 228.459 153.321C227.141 152.87 225.638 153.382 225.184 154.693C224.463 156.353 225.246 157.501 226.563 157.952Z" fill="white"/>
<path d="M248.41 159.128C249.727 159.579 251.23 159.067 251.684 157.756C252.137 156.445 251.623 154.948 250.305 154.497C248.987 154.046 247.485 154.558 247.031 155.869C246.578 157.181 247.442 158.943 248.41 159.128Z" fill="white"/>
<path d="M270.871 160.218C272.189 160.669 273.692 160.157 274.145 158.846C274.599 157.535 274.085 156.039 272.767 155.587C271.449 155.136 269.946 155.648 269.493 156.959C268.772 158.619 269.554 159.767 270.871 160.218Z" fill="white"/>
<path d="M292.721 161.398C294.039 161.849 295.542 161.337 295.995 160.026C296.449 158.714 295.935 157.219 294.617 156.767C293.299 156.316 291.796 156.828 291.343 158.139C290.889 159.451 291.404 160.947 292.721 161.398Z" fill="white"/>
<path d="M48.5102 170.899C49.8278 171.351 51.3311 170.839 51.7844 169.527C52.2378 168.216 51.7237 166.72 50.4061 166.269C49.0885 165.818 47.5852 166.33 47.1319 167.641C46.4108 169.301 47.1926 170.448 48.5102 170.899Z" fill="#003DEA"/>
<path d="M70.7064 172.339C72.024 172.79 73.5268 172.278 73.9801 170.967C74.4335 169.655 73.9194 168.159 72.6018 167.708C71.2842 167.257 69.7809 167.769 69.3276 169.08C68.8742 170.391 69.3888 171.888 70.7064 172.339Z" fill="white"/>
<path d="M92.8108 173.159C94.1284 173.61 95.6316 173.099 96.085 171.787C96.5384 170.476 96.0238 168.98 94.7062 168.528C93.3886 168.077 91.8853 168.589 91.432 169.9C90.7109 171.56 91.4932 172.708 92.8108 173.159Z" fill="white"/>
<path d="M114.657 174.335C115.975 174.786 117.478 174.274 117.932 172.963C118.385 171.652 117.87 170.155 116.553 169.704C115.235 169.253 113.732 169.765 113.279 171.076C112.826 172.388 113.69 174.15 114.657 174.335Z" fill="white"/>
<path d="M136.85 175.774C138.168 176.225 139.671 175.713 140.124 174.402C140.578 173.09 140.063 171.594 138.746 171.143C137.428 170.692 135.925 171.204 135.472 172.515C135.018 173.827 135.8 174.974 136.85 175.774Z" fill="white"/>
<path d="M158.969 176.605C160.287 177.056 161.79 176.544 162.243 175.233C162.697 173.921 162.182 172.426 160.865 171.974C159.547 171.523 158.044 172.035 157.591 173.346C157.137 174.658 157.652 176.154 158.969 176.605Z" fill="white"/>
<path d="M181.162 178.044C182.48 178.495 183.983 177.983 184.436 176.672C184.89 175.36 184.375 173.864 183.057 173.413C181.74 172.962 180.237 173.474 179.784 174.785C179.33 176.097 180.112 177.244 181.162 178.044Z" fill="white"/>
<path d="M203.277 178.872C204.594 179.323 206.098 178.811 206.551 177.5C207.004 176.189 206.49 174.693 205.173 174.242C203.855 173.79 202.352 174.302 201.899 175.613C201.445 176.925 201.959 178.421 203.277 178.872Z" fill="white"/>
<path d="M225.115 180.04C226.433 180.491 227.936 179.979 228.389 178.668C228.842 177.357 228.328 175.861 227.011 175.409C225.693 174.958 224.19 175.47 223.737 176.781C223.633 178.359 224.147 179.855 225.115 180.04Z" fill="white"/>
<path d="M247.573 181.131C248.891 181.582 250.394 181.071 250.847 179.759C251.301 178.448 250.786 176.952 249.469 176.5C248.151 176.049 246.648 176.561 246.194 177.872C245.741 179.184 246.256 180.68 247.573 181.131Z" fill="white"/>
<path d="M269.427 182.31C270.745 182.762 272.248 182.25 272.701 180.938C273.154 179.627 272.64 178.131 271.322 177.68C270.005 177.228 268.502 177.741 268.049 179.052C267.595 180.363 268.109 181.859 269.427 182.31Z" fill="white"/>
<path d="M291.889 183.402C293.207 183.853 294.71 183.341 295.163 182.03C295.617 180.719 295.102 179.223 293.785 178.772C292.467 178.32 290.964 178.832 290.511 180.143C289.79 181.803 290.571 182.951 291.889 183.402Z" fill="white"/>
<path d="M313.739 184.582C315.057 185.033 316.56 184.521 317.013 183.21C317.466 181.899 316.952 180.403 315.635 179.951C314.317 179.5 312.814 180.012 312.36 181.323C311.907 182.635 312.422 184.131 313.739 184.582Z" fill="white"/>
<path d="M336.194 185.668C337.511 186.12 339.014 185.608 339.468 184.296C339.921 182.985 339.407 181.489 338.089 181.038C336.771 180.586 335.268 181.099 334.815 182.41C334.362 183.721 334.876 185.217 336.194 185.668Z" fill="white"/>
<path d="M358.047 186.848C359.364 187.299 360.868 186.787 361.321 185.476C361.774 184.165 361.26 182.669 359.942 182.218C358.625 181.766 357.122 182.278 356.668 183.59C356.215 184.901 356.729 186.397 358.047 186.848Z" fill="white"/>
<path d="M47.4086 193.25C48.7262 193.701 50.2295 193.189 50.6828 191.878C51.1362 190.566 50.6216 189.07 49.304 188.619C47.9864 188.168 46.4836 188.68 46.0302 189.991C45.5769 191.303 46.091 192.799 47.4086 193.25Z" fill="#003DEA"/>
<path d="M69.5244 194.08C70.842 194.531 72.3453 194.019 72.7986 192.708C73.252 191.397 72.7379 189.901 71.4203 189.45C70.1027 188.998 68.5994 189.51 68.146 190.822C67.4249 192.481 68.2068 193.629 69.5244 194.08Z" fill="white"/>
<path d="M91.3588 195.248C92.6764 195.699 94.1797 195.187 94.633 193.876C95.0864 192.565 94.5722 191.069 93.2547 190.617C91.9371 190.166 90.4338 190.678 89.9804 191.989C89.877 193.567 90.3912 195.063 91.3588 195.248Z" fill="white"/>
<path d="M113.821 196.338C115.138 196.789 116.642 196.277 117.095 194.966C117.548 193.655 117.034 192.158 115.716 191.707C114.399 191.256 112.895 191.768 112.442 193.079C111.721 194.739 112.503 195.887 113.821 196.338Z" fill="white"/>
<path d="M135.671 197.518C136.989 197.969 138.492 197.457 138.945 196.146C139.399 194.835 138.884 193.338 137.567 192.887C136.249 192.436 134.746 192.948 134.293 194.259C133.839 195.571 134.353 197.067 135.671 197.518Z" fill="white"/>
<path d="M157.868 198.957C159.185 199.408 160.688 198.896 161.142 197.585C161.595 196.273 161.081 194.778 159.763 194.326C158.446 193.875 156.943 194.387 156.489 195.698C156.036 197.01 156.818 198.157 157.868 198.957Z" fill="white"/>
<path d="M179.984 199.784C181.301 200.236 182.804 199.724 183.257 198.412C183.711 197.101 183.197 195.605 181.879 195.154C180.561 194.703 179.058 195.214 178.605 196.526C178.151 197.837 178.666 199.333 179.984 199.784Z" fill="white"/>
<path d="M201.822 200.957C203.14 201.408 204.643 200.897 205.096 199.585C205.55 198.274 205.035 196.778 203.718 196.327C202.4 195.875 200.897 196.387 200.443 197.698C200.34 199.276 201.122 200.424 201.822 200.957Z" fill="white"/>
<path d="M224.295 202.056C225.612 202.507 227.116 201.995 227.569 200.684C228.022 199.373 227.508 197.877 226.191 197.426C224.873 196.974 223.37 197.486 222.916 198.798C222.463 200.109 222.977 201.605 224.295 202.056Z" fill="white"/>
<path d="M246.129 203.223C247.446 203.674 248.95 203.162 249.403 201.851C249.856 200.54 249.342 199.044 248.025 198.593C246.707 198.141 245.204 198.653 244.75 199.964C244.297 201.276 244.811 202.772 246.129 203.223Z" fill="white"/>
<path d="M268.591 204.314C269.909 204.765 271.412 204.254 271.865 202.942C272.319 201.631 271.804 200.135 270.486 199.684C269.169 199.232 267.666 199.744 267.212 201.056C266.759 202.367 267.273 203.863 268.591 204.314Z" fill="white"/>
<path d="M290.441 205.495C291.758 205.946 293.262 205.434 293.715 204.123C294.168 202.812 293.654 201.315 292.336 200.864C291.019 200.413 289.516 200.925 289.062 202.236C288.609 203.548 289.123 205.044 290.441 205.495Z" fill="white"/>
<path d="M312.902 206.585C314.22 207.036 315.723 206.524 316.177 205.213C316.63 203.902 316.116 202.406 314.798 201.955C313.481 201.503 311.977 202.015 311.524 203.326C310.803 204.986 311.585 206.134 312.902 206.585Z" fill="white"/>
<path d="M334.749 207.761C336.067 208.213 337.569 207.7 338.023 206.389C338.476 205.078 337.962 203.582 336.644 203.131C335.327 202.679 333.824 203.191 333.37 204.503C332.917 205.814 333.431 207.31 334.749 207.761Z" fill="white"/>
<path d="M356.854 208.582C358.171 209.033 359.674 208.522 360.128 207.21C360.581 205.899 360.067 204.403 358.749 203.951C357.431 203.5 355.928 204.012 355.475 205.323C354.754 206.983 355.536 208.131 356.854 208.582Z" fill="white"/>
<path d="M46.2274 214.992C47.545 215.443 49.0478 214.931 49.5012 213.62C49.9545 212.309 49.4404 210.813 48.1228 210.362C46.8052 209.91 45.3019 210.422 44.8486 211.734C44.3952 213.045 44.9098 214.541 46.2274 214.992Z" fill="#003DEA"/>
<path d="M68.0646 216.16C69.3822 216.611 70.8855 216.099 71.3388 214.788C71.7922 213.477 71.2776 211.98 69.96 211.529C68.6424 211.078 67.1392 211.59 66.6858 212.901C66.5824 214.479 67.097 215.975 68.0646 216.16Z" fill="white"/>
<path d="M90.5387 217.262C91.8563 217.713 93.3596 217.201 93.8129 215.89C94.2663 214.579 93.7522 213.083 92.4346 212.632C91.117 212.18 89.6137 212.692 89.1604 214.004C88.707 215.315 89.2211 216.811 90.5387 217.262Z" fill="white"/>
<path d="M112.377 218.431C113.694 218.882 115.198 218.37 115.651 217.059C116.104 215.748 115.59 214.252 114.273 213.801C112.955 213.349 111.452 213.861 110.999 215.173C110.545 216.484 111.059 217.98 112.377 218.431Z" fill="white"/>
<path d="M134.838 219.521C136.156 219.972 137.659 219.46 138.113 218.149C138.566 216.838 138.051 215.341 136.734 214.89C135.416 214.439 133.913 214.951 133.46 216.262C132.738 217.922 133.521 219.07 134.838 219.521Z" fill="white"/>
<path d="M156.689 220.7C158.006 221.151 159.509 220.639 159.963 219.328C160.416 218.017 159.902 216.521 158.584 216.069C157.266 215.618 155.764 216.13 155.31 217.442C154.857 218.753 155.371 220.249 156.689 220.7Z" fill="white"/>
<path d="M179.15 221.792C180.468 222.244 181.971 221.732 182.424 220.421C182.878 219.109 182.364 217.613 181.046 217.162C179.728 216.711 178.225 217.223 177.772 218.534C177.051 220.194 177.833 221.341 179.15 221.792Z" fill="white"/>
<path d="M200.997 222.968C202.315 223.42 203.817 222.907 204.271 221.596C204.724 220.285 204.21 218.789 202.892 218.338C201.575 217.886 200.072 218.398 199.618 219.71C199.165 221.021 199.679 222.517 200.997 222.968Z" fill="white"/>
<path d="M222.836 224.136C224.153 224.587 225.657 224.075 226.11 222.764C226.563 221.453 226.049 219.956 224.731 219.505C223.413 219.054 221.91 219.566 221.457 220.877C221.004 222.188 221.786 223.336 222.836 224.136Z" fill="white"/>
<path d="M245.309 225.239C246.627 225.69 248.13 225.179 248.583 223.867C249.037 222.556 248.522 221.06 247.205 220.609C245.887 220.158 244.384 220.669 243.931 221.981C243.477 223.292 243.991 224.788 245.309 225.239Z" fill="white"/>
<path d="M267.148 226.408C268.465 226.859 269.968 226.347 270.422 225.036C270.875 223.725 270.361 222.229 269.043 221.777C267.726 221.326 266.223 221.838 265.769 223.149C265.316 224.461 266.098 225.608 267.148 226.408Z" fill="white"/>
<path d="M289.605 227.498C290.922 227.95 292.426 227.438 292.879 226.126C293.332 224.815 292.818 223.319 291.5 222.868C290.182 222.416 288.679 222.928 288.226 224.24C287.773 225.551 288.287 227.047 289.605 227.498Z" fill="white"/>
<path d="M311.455 228.674C312.773 229.125 314.276 228.613 314.729 227.302C315.183 225.991 314.668 224.494 313.351 224.043C312.033 223.592 310.53 224.104 310.077 225.415C309.623 226.727 310.138 228.223 311.455 228.674Z" fill="white"/>
<path d="M333.576 229.505C334.893 229.957 336.396 229.445 336.85 228.133C337.303 226.822 336.789 225.326 335.471 224.875C334.154 224.424 332.651 224.936 332.197 226.247C332.094 227.825 332.608 229.321 333.576 229.505Z" fill="white"/>
<path d="M355.767 230.946C357.085 231.397 358.588 230.885 359.041 229.573C359.495 228.262 358.98 226.766 357.663 226.315C356.345 225.864 354.842 226.375 354.389 227.687C353.935 228.998 354.45 230.494 355.767 230.946Z" fill="white"/>
<path d="M67.2449 238.174C68.5625 238.626 70.0654 238.114 70.5187 236.802C70.9721 235.491 70.458 233.995 69.1404 233.544C67.8228 233.093 66.3195 233.604 65.8662 234.916C65.4128 236.227 65.9273 237.723 67.2449 238.174Z" fill="#003DEA"/>
<path d="M89.0788 239.343C90.3964 239.794 91.8996 239.282 92.353 237.971C92.8064 236.66 92.2918 235.164 90.9742 234.712C89.6566 234.261 88.1533 234.773 87.7 236.084C87.2466 237.396 87.7612 238.892 89.0788 239.343Z" fill="white"/>
<path d="M111.556 240.446C112.874 240.897 114.377 240.385 114.831 239.074C115.284 237.763 114.77 236.267 113.452 235.816C112.135 235.365 110.631 235.876 110.178 237.188C109.725 238.499 110.239 239.995 111.556 240.446Z" fill="white"/>
<path d="M133.395 241.613C134.712 242.064 136.216 241.553 136.669 240.241C137.122 238.93 136.608 237.434 135.291 236.983C133.973 236.532 132.47 237.043 132.016 238.355C131.563 239.666 132.077 241.162 133.395 241.613Z" fill="white"/>
<path d="M155.852 242.705C157.17 243.156 158.673 242.644 159.126 241.333C159.58 240.022 159.065 238.526 157.747 238.074C156.43 237.623 154.927 238.135 154.473 239.446C153.752 241.106 154.534 242.254 155.852 242.705Z" fill="white"/>
<path d="M177.699 243.881C179.016 244.332 180.519 243.821 180.973 242.509C181.426 241.198 180.912 239.702 179.594 239.25C178.276 238.799 176.774 239.311 176.32 240.623C175.867 241.934 176.381 243.43 177.699 243.881Z" fill="white"/>
<path d="M199.823 244.712C201.141 245.163 202.644 244.651 203.097 243.34C203.551 242.029 203.036 240.533 201.719 240.082C200.401 239.63 198.898 240.142 198.445 241.454C197.724 243.113 198.855 244.527 199.823 244.712Z" fill="white"/>
<path d="M222.015 246.152C223.333 246.603 224.836 246.091 225.289 244.779C225.742 243.468 225.228 241.972 223.911 241.521C222.593 241.07 221.09 241.581 220.636 242.893C220.183 244.204 220.698 245.7 222.015 246.152Z" fill="white"/>
<path d="M243.849 247.32C245.167 247.772 246.67 247.26 247.124 245.948C247.577 244.637 247.062 243.141 245.745 242.69C244.427 242.238 242.924 242.75 242.471 244.062C242.017 245.373 242.8 246.521 243.849 247.32Z" fill="white"/>
<path d="M266.323 248.419C267.641 248.871 269.144 248.359 269.597 247.047C270.05 245.736 269.536 244.24 268.219 243.789C266.901 243.338 265.398 243.85 264.945 245.161C264.491 246.472 265.005 247.968 266.323 248.419Z" fill="white"/>
<path d="M288.161 249.591C289.479 250.042 290.982 249.53 291.436 248.219C291.889 246.908 291.375 245.412 290.057 244.961C288.74 244.509 287.236 245.021 286.783 246.332C286.33 247.644 287.112 248.791 288.161 249.591Z" fill="white"/>
<path d="M310.277 250.419C311.595 250.87 313.098 250.358 313.551 249.046C314.005 247.735 313.49 246.239 312.173 245.788C310.855 245.337 309.352 245.848 308.899 247.16C308.795 248.738 309.31 250.234 310.277 250.419Z" fill="white"/>
<path d="M332.468 251.858C333.786 252.309 335.289 251.798 335.743 250.486C336.196 249.175 335.681 247.679 334.364 247.228C333.046 246.776 331.543 247.288 331.09 248.6C330.637 249.911 331.151 251.407 332.468 251.858Z" fill="white"/>
<path d="M43.9465 259.087C45.264 259.538 46.7673 259.027 47.2207 257.715C47.674 256.404 47.1595 254.908 45.8419 254.456C44.5243 254.005 43.0214 254.517 42.5681 255.829C42.1147 257.14 42.6289 258.636 43.9465 259.087Z" fill="#003DEA"/>
<path d="M65.8011 260.268C67.1187 260.719 68.622 260.207 69.0753 258.896C69.5287 257.585 69.0146 256.089 67.697 255.638C66.3794 255.186 64.8761 255.698 64.4228 257.01C63.9694 258.321 64.7513 259.469 65.8011 260.268Z" fill="#003DEA"/>
<path d="M88.2586 261.359C89.5762 261.811 91.0791 261.298 91.5324 259.987C91.9858 258.676 91.4716 257.18 90.154 256.729C88.8364 256.278 87.3332 256.789 86.8798 258.101C86.4265 259.412 86.941 260.908 88.2586 261.359Z" fill="#003DEA"/>
<path d="M110.097 262.525C111.414 262.976 112.917 262.465 113.371 261.153C113.824 259.842 113.31 258.346 111.992 257.894C110.674 257.443 109.171 257.955 108.718 259.266C108.264 260.578 108.779 262.074 110.097 262.525Z" fill="#003DEA"/>
<path d="M132.566 263.625C133.884 264.076 135.387 263.565 135.84 262.253C136.294 260.942 135.78 259.446 134.462 258.995C133.144 258.544 131.641 259.055 131.188 260.367C130.734 261.678 131.248 263.174 132.566 263.625Z" fill="white"/>
<path d="M154.404 264.794C155.722 265.245 157.225 264.734 157.679 263.422C158.132 262.111 157.618 260.615 156.3 260.164C154.983 259.713 153.479 260.224 153.026 261.536C152.573 262.847 153.087 264.343 154.404 264.794Z" fill="white"/>
<path d="M176.525 265.627C177.843 266.078 179.346 265.566 179.799 264.254C180.253 262.943 179.738 261.447 178.421 260.996C177.103 260.545 175.6 261.056 175.147 262.368C175.043 263.946 175.558 265.442 176.525 265.627Z" fill="white"/>
<path d="M198.716 267.063C200.034 267.514 201.537 267.003 201.99 265.691C202.444 264.38 201.929 262.884 200.612 262.433C199.294 261.981 197.791 262.493 197.338 263.805C196.884 265.116 197.399 266.612 198.716 267.063Z" fill="white"/>
<path d="M220.836 267.896C222.154 268.348 223.657 267.836 224.111 266.524C224.564 265.213 224.05 263.717 222.732 263.266C221.415 262.815 219.911 263.327 219.458 264.638C218.737 266.298 219.519 267.445 220.836 267.896Z" fill="white"/>
<path d="M243.029 269.335C244.346 269.787 245.849 269.275 246.302 267.963C246.756 266.652 246.242 265.156 244.924 264.705C243.606 264.254 242.103 264.765 241.65 266.077C241.196 267.388 241.711 268.884 243.029 269.335Z" fill="white"/>
<path d="M265.133 270.155C266.45 270.606 267.953 270.095 268.407 268.783C268.86 267.472 268.346 265.976 267.028 265.524C265.71 265.073 264.207 265.585 263.754 266.896C263.033 268.556 263.815 269.704 265.133 270.155Z" fill="white"/>
<path d="M286.983 271.331C288.3 271.782 289.804 271.27 290.257 269.959C290.71 268.648 290.196 267.151 288.878 266.7C287.561 266.249 286.058 266.761 285.604 268.072C285.501 269.65 286.015 271.146 286.983 271.331Z" fill="white"/>
<path d="M309.175 272.77C310.493 273.221 311.996 272.709 312.449 271.398C312.903 270.086 312.389 268.59 311.071 268.139C309.754 267.688 308.25 268.2 307.797 269.511C307.344 270.822 308.125 271.97 309.175 272.77Z" fill="white"/>
<path d="M64.964 282.271C66.2816 282.722 67.7849 282.211 68.2383 280.899C68.6916 279.588 68.177 278.092 66.8594 277.641C65.5419 277.189 64.039 277.701 63.5857 279.013C63.1323 280.324 63.6464 281.82 64.964 282.271Z" fill="#003DEA"/>
<path d="M86.8148 283.451C88.1324 283.902 89.6356 283.39 90.089 282.079C90.5423 280.767 90.0282 279.272 88.7106 278.82C87.393 278.369 85.8898 278.881 85.4364 280.192C84.9831 281.504 85.765 282.651 86.8148 283.451Z" fill="#003DEA"/>
<path d="M109.276 284.541C110.594 284.992 112.097 284.48 112.55 283.169C113.003 281.857 112.489 280.362 111.172 279.91C109.854 279.459 108.351 279.971 107.897 281.282C107.444 282.594 107.959 284.09 109.276 284.541Z" fill="#003DEA"/>
<path d="M131.111 285.711C132.429 286.162 133.932 285.65 134.385 284.339C134.839 283.028 134.324 281.531 133.006 281.08C131.689 280.629 130.185 281.141 129.732 282.452C129.279 283.764 130.061 284.911 131.111 285.711Z" fill="#003DEA"/>
<path d="M153.227 286.537C154.545 286.989 156.048 286.477 156.501 285.165C156.955 283.854 156.44 282.358 155.122 281.907C153.805 281.455 152.302 281.968 151.849 283.279C151.745 284.857 152.259 286.353 153.227 286.537Z" fill="white"/>
<path d="M175.422 287.976C176.74 288.428 178.243 287.916 178.696 286.604C179.15 285.293 178.635 283.797 177.318 283.346C176 282.895 174.497 283.407 174.044 284.718C173.59 286.029 174.104 287.525 175.422 287.976Z" fill="white"/>
<path d="M197.543 288.809C198.861 289.26 200.364 288.748 200.817 287.436C201.27 286.125 200.756 284.629 199.439 284.178C198.121 283.727 196.618 284.239 196.164 285.55C195.711 286.861 196.226 288.357 197.543 288.809Z" fill="white"/>
<path d="M219.734 290.248C221.052 290.699 222.555 290.188 223.008 288.876C223.462 287.565 222.947 286.069 221.629 285.618C220.312 285.166 218.809 285.678 218.356 286.99C217.902 288.301 218.416 289.797 219.734 290.248Z" fill="white"/>
<path d="M241.85 291.075C243.168 291.526 244.671 291.015 245.124 289.703C245.578 288.392 245.064 286.896 243.746 286.445C242.428 285.994 240.925 286.505 240.472 287.817C239.751 289.476 240.533 290.624 241.85 291.075Z" fill="white"/>
<path d="M264.042 292.515C265.36 292.966 266.863 292.454 267.316 291.142C267.77 289.831 267.255 288.335 265.938 287.884C264.62 287.433 263.117 287.945 262.664 289.256C262.21 290.567 262.725 292.063 264.042 292.515Z" fill="white"/>
<path d="M286.147 293.334C287.464 293.785 288.968 293.273 289.421 291.962C289.874 290.65 289.36 289.154 288.042 288.703C286.725 288.252 285.221 288.763 284.768 290.075C284.047 291.734 284.829 292.882 286.147 293.334Z" fill="white"/>
<path d="M308.001 294.514C309.319 294.965 310.822 294.453 311.275 293.142C311.729 291.83 311.214 290.334 309.897 289.883C308.579 289.432 307.076 289.944 306.623 291.255C306.169 292.566 306.684 294.062 308.001 294.514Z" fill="white"/>
<path d="M130.286 307.723C131.604 308.174 133.107 307.662 133.56 306.35C134.014 305.039 133.499 303.543 132.182 303.092C130.864 302.641 129.361 303.153 128.908 304.464C128.454 305.775 128.969 307.272 130.286 307.723Z" fill="#003DEA"/>
<path d="M152.125 308.89C153.443 309.341 154.946 308.829 155.399 307.518C155.853 306.206 155.338 304.71 154.02 304.259C152.703 303.808 151.2 304.32 150.746 305.631C150.293 306.942 151.075 308.09 152.125 308.89Z" fill="#003DEA"/>
<path d="M174.245 309.721C175.562 310.173 177.066 309.661 177.519 308.349C177.972 307.038 177.458 305.542 176.14 305.091C174.823 304.639 173.32 305.152 172.866 306.463C172.413 307.774 172.927 309.27 174.245 309.721Z" fill="white"/>
<path d="M196.436 311.16C197.754 311.612 199.257 311.1 199.71 309.788C200.164 308.477 199.649 306.981 198.332 306.53C197.014 306.079 195.511 306.591 195.058 307.902C194.604 309.213 195.118 310.709 196.436 311.16Z" fill="white"/>
<path d="M218.557 311.992C219.874 312.443 221.377 311.931 221.831 310.62C222.284 309.308 221.77 307.812 220.452 307.361C219.135 306.91 217.631 307.422 217.178 308.733C216.725 310.044 217.239 311.541 218.557 311.992Z" fill="white"/>
<path d="M240.744 313.427C242.062 313.878 243.565 313.366 244.018 312.055C244.472 310.743 243.957 309.247 242.639 308.796C241.322 308.345 239.819 308.857 239.366 310.168C238.912 311.479 239.426 312.975 240.744 313.427Z" fill="white"/>
<path d="M262.865 314.26C264.182 314.711 265.685 314.199 266.139 312.888C266.592 311.576 266.078 310.08 264.76 309.629C263.443 309.178 261.94 309.69 261.486 311.001C261.033 312.312 261.547 313.808 262.865 314.26Z" fill="white"/>
<path d="M150.95 330.634C152.268 331.085 153.771 330.573 154.225 329.262C154.678 327.95 154.164 326.454 152.846 326.003C151.529 325.552 150.025 326.064 149.572 327.375C149.119 328.686 149.983 330.449 150.95 330.634Z" fill="#003DEA"/>
<path d="M173.143 332.072C174.46 332.523 175.964 332.012 176.417 330.7C176.87 329.389 176.356 327.893 175.038 327.442C173.721 326.99 172.217 327.502 171.764 328.813C171.311 330.125 172.093 331.273 173.143 332.072Z" fill="white"/>
<path d="M195.262 332.904C196.58 333.355 198.083 332.843 198.536 331.532C198.99 330.221 198.475 328.725 197.158 328.273C195.84 327.822 194.337 328.334 193.884 329.646C193.431 330.957 193.945 332.453 195.262 332.904Z" fill="white"/>
<path d="M217.455 334.344C218.772 334.795 220.276 334.284 220.729 332.972C221.182 331.661 220.668 330.165 219.351 329.714C218.033 329.263 216.53 329.774 216.076 331.086C215.623 332.397 216.405 333.545 217.455 334.344Z" fill="white"/>
<path d="M239.571 335.172C240.888 335.623 242.391 335.111 242.845 333.8C243.298 332.488 242.784 330.992 241.466 330.541C240.149 330.09 238.645 330.602 238.192 331.913C237.739 333.224 238.253 334.721 239.571 335.172Z" fill="white"/>
<path d="M127.653 351.547C128.97 351.998 130.473 351.486 130.927 350.175C131.38 348.863 130.866 347.367 129.548 346.916C128.23 346.465 126.727 346.976 126.274 348.288C126.17 349.866 126.685 351.362 127.653 351.547Z" fill="#003DEA"/>
<path d="M150.13 352.649C151.447 353.1 152.95 352.588 153.404 351.277C153.857 349.966 153.343 348.47 152.025 348.018C150.708 347.567 149.205 348.079 148.751 349.39C148.03 351.05 148.812 352.198 150.13 352.649Z" fill="#003DEA"/>
<path d="M171.964 353.817C173.282 354.268 174.785 353.756 175.238 352.445C175.692 351.133 175.178 349.637 173.86 349.186C172.542 348.735 171.039 349.247 170.586 350.558C170.132 351.87 170.647 353.365 171.964 353.817Z" fill="white"/>
</svg>
