<svg width="31" height="31" viewBox="0 0 31 31" fill="none" xmlns="http://www.w3.org/2000/svg">
<path d="M28.9198 12.5678C29.2697 12.8343 29.6198 13.1009 29.702 13.7157C29.8664 14.9453 29.3308 15.6418 28.0954 15.8054L3.73696 19.3433C2.50154 19.5069 1.80174 18.9739 1.63739 17.7444C1.47304 16.5148 2.00856 15.8183 3.24398 15.6547L27.6024 12.1168C27.9524 12.3833 28.5698 12.3013 28.9198 12.5678Z" fill="white"/>
<path d="M14.9208 1.90818C15.2707 2.17468 15.6209 2.4413 15.703 3.05607L19.2579 27.2988C19.4222 28.5284 18.8867 29.2249 17.6513 29.3885C16.4159 29.5521 15.7161 29.0192 15.5517 27.7896L11.9969 3.54685C11.8325 2.3173 12.368 1.62074 13.6035 1.45717C13.9534 1.72367 14.5709 1.64169 14.9208 1.90818Z" fill="white"/>
</svg>
