<svg width="571" height="546" viewBox="0 0 571 546" fill="none" xmlns="http://www.w3.org/2000/svg">
<path d="M662.871 251.472C674.801 293.688 668.589 343.625 636.131 373.574C597.803 408.993 538.178 405.001 486.707 396.174C435.236 387.348 378.68 375.753 333.128 401.805C279.422 432.691 260.561 505.575 205.64 534.432C171.003 552.782 125.399 547.871 95.3255 522.76C65.2516 497.649 52.19 454.018 64.1841 416.768C75.457 381.177 106.783 349.814 100.617 313.091C92.8684 266.879 32.1345 249.895 9.62181 208.454C-5.70921 180.765 -0.695736 145.377 15.8661 118.784C32.4278 92.1902 60.1055 73.5098 88.8727 60.6289C147.643 34.7035 224.236 33.9472 267.315 81.1112C286.416 101.731 299.173 131.325 326.411 139.919C347.678 146.176 371.214 136.49 387.402 121.208C403.94 106.192 415.146 86.5643 428.452 68.5355C448.906 40.4883 476.112 15.9268 509.264 5.28075C575.033 -15.3148 625.896 28.9416 619.268 94.5747C617.388 115.783 610.505 134.838 616.47 155.947C626.014 189.72 653.163 216.469 662.871 251.472Z" fill="#3DCD90"/>
</svg>
