<svg width="425" height="662" viewBox="0 0 425 662" fill="none" xmlns="http://www.w3.org/2000/svg">
<path d="M83.9231 6.39126C137.03 -17.2202 155.256 39.1781 216.787 73.8886C243.611 88.7939 280.485 94.2349 309.226 102.317C334.713 109.578 354.003 119.851 355.294 141.265C358.286 187.167 272.14 255.195 302.954 285.839C329.753 312.322 371.691 322.724 408.109 338.862C444.795 354.651 479.007 380.152 479.139 421.115C478.972 429.271 477.734 438.82 475.528 448.184C468.642 476.624 451.688 507.337 425.021 521.817C379.387 547.254 316.639 519.9 277.407 548.556C241.821 573.915 245.863 620.616 211.616 644.233C141.165 693.29 108.303 628.506 69.7909 591.999C54.3325 577.466 37.8638 567.134 17.9116 570.714C-38.5888 580.697 61.261 471.751 83.1171 435.385C104.973 399.019 186.908 438.223 191.057 401.073C194.918 366.463 177.837 337.442 152.641 318.254C110.998 286.541 26.0065 280.902 6.04962 230.364C-3.06457 206.857 -0.235697 178.64 4.79643 150.445C7.5803 136 9.93209 120.672 13.3336 106.145C22.9815 65.451 38.5175 26.4804 83.9231 6.39126Z" fill="#FFE9B9"/>
</svg>
