<svg width="320" height="56" viewBox="0 0 320 56" fill="none" xmlns="http://www.w3.org/2000/svg">
<mask id="mask0" mask-type="alpha" maskUnits="userSpaceOnUse" x="0" y="0" width="320" height="56">
<rect width="320" height="56" fill="#C4C4C4"/>
</mask>
<g mask="url(#mask0)">
<path d="M367 49.247C367 49.247 219.37 71.6708 158.19 34.7951C97.01 -2.08056 15.4367 71.8309 -36.4333 37.4344C-88.3033 3.03782 -165 49.247 -165 49.247L-165 -4.49653e-07L367 -4.95911e-05L367 49.247Z" fill="#FFE9B9"/>
<mask id="mask1" mask-type="alpha" maskUnits="userSpaceOnUse" x="-165" y="0" width="532" height="56">
<path d="M366.656 49.247C366.656 49.247 219.122 71.6708 157.981 34.7952C96.8407 -2.08035 15.3201 71.8309 -36.5164 37.4344C-88.3529 3.03801 -165 49.2471 -165 49.2471L-165 0.000193915L366.656 0.000144958L366.656 49.247Z" fill="#FFE9B9"/>
</mask>
<g mask="url(#mask1)">
<path d="M354.915 46.1064C399.209 92.242 170.013 63.472 148.507 63.472C127.001 63.472 181.086 51.2916 219.427 32.0841C257.768 12.8765 284.354 -14.0097 291.899 21.3009C299.444 56.6114 310.621 -0.0292573 354.915 46.1064Z" fill="#F39681"/>
<path d="M254.818 57.1671C292.057 17.5894 202.949 50.1828 213.061 21.3144C223.173 -7.55396 97.5277 41.5077 68.0942 44.4247C48.3794 46.4666 19.904 30.7934 -0.0886013 31.0851C-15.2825 31.3099 -31.6308 34.9998 -43.541 44.4247" stroke="#3DCD90"/>
<ellipse cx="19.9476" cy="47.2498" rx="20.4271" ry="21.5833" fill="#6332CD"/>
<path d="M46.6562 46.375C46.6562 52.6243 41.8879 57.5 36.2344 57.5C30.5809 57.5 25.8125 52.6243 25.8125 46.375C25.8125 40.1256 30.5809 35.25 36.2344 35.25C41.8879 35.25 46.6562 40.1256 46.6562 46.375Z" stroke="#3DCD90" stroke-width="4"/>
</g>
</g>
</svg>
