<svg width="1200" height="120" viewBox="0 0 1200 120" fill="none" xmlns="http://www.w3.org/2000/svg">
<path d="M1200 105.529C1200 105.529 867 153.58 729 74.5611C591 -4.45822 407 153.923 290 80.2165C173 6.50973 -1.26507e-06 105.529 -1.26507e-06 105.529L-1.04907e-05 0.000104907L1200 0L1200 105.529Z" fill="#FFE9B9"/>
<mask id="mask0" mask-type="alpha" maskUnits="userSpaceOnUse" x="0" y="0" width="1200" height="121">
<path d="M1200 105.529C1200 105.529 867 153.58 729 74.5611C591 -4.45822 407 153.923 290 80.2165C173 6.50973 -1.26507e-06 105.529 -1.26507e-06 105.529L-1.04907e-05 0.000104907L1200 0L1200 105.529Z" fill="#FFE9B9"/>
</mask>
<g mask="url(#mask0)">
<path d="M1172.67 98.4315C1272.6 196.912 755.518 135.5 707 135.5C658.481 135.5 780.499 109.5 867 68.4998C953.5 27.4998 1013.48 -29.8909 1030.5 45.4823C1047.52 120.855 1072.74 -0.0485916 1172.67 98.4315Z" fill="#F39681"/>
<path d="M947 123C1031 38 830 108 852.81 46C875.62 -15.9999 592.205 89.3687 525.812 95.6335C481.342 100.019 417.111 66.3578 372.014 66.9843C337.742 67.4671 300.866 75.3919 274 95.6336" stroke="#3DCD90"/>
<circle cx="417" cy="101" r="46" fill="#6332CD"/>
<circle cx="454" cy="99" r="26" stroke="#3DCD90" stroke-width="4"/>
</g>
<path d="M0 120H1200V105C1177.67 108 1125.3 114.5 1094.5 116.5C1056 119 1017.5 120 905 116.5C792.5 113 726 71 711.5 66C697 61 691 55.5001 639.5 52.5001C588 49.5001 509 74.5001 468.5 84.5001C428 94.5001 392 100 354 100C316 100 289.5 77.3817 267 68.5001C248 61.0001 230 51.0001 173.5 52.5C117.404 53.9891 35.5 86.8332 0 105.5V120Z" fill="white"/>
</svg>
