<svg width="640" height="96" viewBox="0 0 640 96" fill="none" xmlns="http://www.w3.org/2000/svg">
<rect width="640" height="96" fill="#FFE9B9"/>
<mask id="mask0" mask-type="alpha" maskUnits="userSpaceOnUse" x="0" y="0" width="640" height="96">
<rect width="640" height="96" fill="#C4C4C4"/>
</mask>
<g mask="url(#mask0)">
<path d="M699.734 79.0385C779.964 158.128 364.817 108.808 325.863 108.808C286.909 108.808 384.873 87.9275 454.321 55.0002C523.77 22.073 571.925 -24.0178 585.591 36.5147C599.257 97.0472 619.504 -0.0512819 699.734 79.0385Z" fill="#F39681"/>
<path d="M518.424 98C585.876 30.1525 424.472 86.0269 442.789 36.5382C461.105 -12.9505 233.521 71.1552 180.207 76.1558C144.497 79.6563 92.9192 52.7879 56.7063 53.2879C29.1853 53.6733 -0.426736 59.9989 -22 76.1559" stroke="#3DCD90"/>
<circle cx="93" cy="81" r="37" fill="#6332CD"/>
<circle cx="122.5" cy="79.5" r="20.5" stroke="#3DCD90" stroke-width="4"/>
</g>
<path fill-rule="evenodd" clip-rule="evenodd" d="M640 92.4475C613.181 94.4344 581.676 95.9935 548.797 96H640V92.4475ZM548.388 96C473.677 95.9853 391.948 87.9354 342.023 58.668C285.284 25.4064 218.855 43.3424 154.931 60.602C98.5487 75.8255 44.1154 90.5227 0 69.0971V96H548.388Z" fill="white"/>
</svg>
