<svg width="425" height="290" viewBox="0 0 425 290" fill="none" xmlns="http://www.w3.org/2000/svg">
<g clip-path="url(#clip0)">
<path d="M217.946 10.6169C219.149 11.8195 220.953 11.8193 222.156 11.218C223.359 10.0155 223.359 8.21181 222.757 7.00927C221.555 5.80674 219.751 5.8067 218.548 6.40797C216.744 7.00924 216.744 9.41438 217.946 10.6169Z" fill="white"/>
<path d="M240.801 25.048C242.003 26.2505 243.808 26.2505 245.01 25.6493C246.213 24.4467 246.213 22.6428 245.612 21.4403C244.409 20.2378 242.605 20.2377 241.402 20.839C240.199 22.0415 240.199 23.8454 240.801 25.048Z" fill="white"/>
<path d="M264.241 39.4776C265.444 40.6802 267.248 40.6802 268.451 40.0789C269.654 38.8764 269.654 37.0725 269.052 35.87C267.85 34.6675 266.045 34.6674 264.843 35.2687C263.038 36.4712 263.038 38.2751 264.241 39.4776Z" fill="white"/>
<path d="M157.193 4.60398C158.396 5.80651 160.2 5.80637 161.403 5.2051C162.606 4.00256 162.606 2.19887 162.004 0.996335C160.802 -0.206201 158.998 -0.206238 157.795 0.39503C155.991 1.59756 155.991 3.40144 157.193 4.60398Z" fill="white"/>
<path d="M180.052 19.0353C181.254 20.2378 183.059 20.2378 184.261 19.6366C185.464 18.434 185.464 16.6302 184.863 15.4276C183.66 14.2251 181.856 14.225 180.653 14.8263C179.45 16.0288 178.849 17.8327 180.052 19.0353Z" fill="white"/>
<path d="M203.496 33.4649C204.699 34.6675 206.503 34.6675 207.706 34.0663C208.908 32.8637 208.909 31.0598 208.307 29.8573C207.104 28.6548 205.3 28.6547 204.097 29.256C202.293 30.4585 202.294 32.2624 203.496 33.4649Z" fill="white"/>
<path d="M226.353 47.8946C227.555 49.0972 229.36 49.0972 230.562 48.4959C231.765 47.2934 231.765 45.4895 231.164 44.287C229.961 43.0845 228.157 43.0846 226.954 43.6859C225.751 44.8884 225.751 46.6921 226.353 47.8946Z" fill="white"/>
<path d="M249.821 62.3263C251.024 63.5288 252.828 63.5288 254.031 62.9276C255.234 61.725 255.234 59.9214 254.632 58.7188C253.43 57.5163 251.625 57.5162 250.423 58.1175C248.619 59.32 248.619 61.1237 249.821 62.3263Z" fill="white"/>
<path d="M272.654 77.358C273.857 78.5605 275.661 78.5606 276.864 77.9593C278.067 76.7568 278.067 74.9531 277.465 73.7506C276.263 72.548 274.458 72.548 273.256 73.1492C272.053 73.7505 272.053 76.1555 272.654 77.358Z" fill="white"/>
<path d="M296.123 91.7878C297.326 92.9903 299.13 92.9902 300.333 92.3889C301.535 91.1864 301.535 89.3827 300.934 88.1802C299.731 86.9776 297.927 86.9776 296.725 87.5789C295.522 88.7814 294.92 90.5853 296.123 91.7878Z" fill="white"/>
<path d="M319.569 106.219C320.772 107.421 322.576 107.421 323.779 106.82C324.982 105.618 324.982 103.814 324.38 102.611C323.178 101.409 321.374 101.409 320.171 102.01C318.367 103.212 318.367 105.016 319.569 106.219Z" fill="white"/>
<path d="M342.421 120.649C343.624 121.852 345.428 121.852 346.631 121.25C347.833 120.048 347.833 118.244 347.232 117.041C346.029 115.839 344.225 115.839 343.022 116.44C341.82 117.643 341.218 119.446 342.421 120.649Z" fill="white"/>
<path d="M365.865 135.079C367.068 136.281 368.872 136.281 370.075 135.68C371.278 134.477 371.278 132.674 370.676 131.471C369.474 130.269 367.669 130.269 366.467 130.87C365.264 131.471 364.663 133.876 365.865 135.079Z" fill="white"/>
<path d="M388.724 149.51C389.926 150.712 391.731 150.712 392.933 150.111C394.136 148.909 394.136 147.105 393.535 145.902C392.332 144.7 390.528 144.7 389.325 145.301C388.122 145.902 388.122 148.307 388.724 149.51Z" fill="white"/>
<path d="M412.191 163.94C413.394 165.143 415.198 165.143 416.401 164.541C417.604 163.94 417.604 161.535 417.002 160.333C415.8 159.13 413.996 159.13 412.793 159.731C410.989 160.934 410.989 162.738 412.191 163.94Z" fill="white"/>
<path d="M119.307 13.623C120.51 14.8256 122.314 14.8254 123.516 14.2241C124.719 13.0216 124.719 11.2179 124.118 10.0154C122.915 8.81284 121.111 8.81281 119.908 9.41407C118.104 10.0153 118.104 12.4205 119.307 13.623Z" fill="white"/>
<path d="M142.774 28.0545C143.976 29.2571 145.78 29.2571 146.983 28.6558C148.186 27.4533 148.186 25.6494 147.584 24.4469C146.382 23.2444 144.578 23.2443 143.375 23.8456C141.571 25.0481 141.571 26.852 142.774 28.0545Z" fill="white"/>
<path d="M165.629 42.4842C166.832 43.6868 168.636 43.6868 169.839 43.0855C171.041 41.883 171.041 40.0791 170.44 38.8766C169.237 37.6741 167.433 37.674 166.23 38.2753C165.028 39.4778 164.426 41.2817 165.629 42.4842Z" fill="white"/>
<path d="M189.073 56.9139C190.276 58.1165 192.08 58.1165 193.283 57.5152C194.486 56.3127 194.486 54.5088 193.884 53.3063C192.682 52.1037 190.877 52.1039 189.675 52.7052C187.871 53.9077 187.87 55.7114 189.073 56.9139Z" fill="white"/>
<path d="M211.933 71.3453C213.136 72.5479 214.94 72.5479 216.142 71.9466C217.345 70.7441 217.345 68.9404 216.744 67.7379C215.541 66.5353 213.737 66.5353 212.534 67.1366C211.331 68.3391 210.73 70.1428 211.933 71.3453Z" fill="white"/>
<path d="M235.372 85.7746C236.575 86.9772 238.379 86.977 239.582 86.3758C240.785 85.1732 240.784 83.3695 240.183 82.167C238.98 80.9645 237.176 80.9644 235.974 81.5657C234.169 82.7682 234.169 84.5721 235.372 85.7746Z" fill="white"/>
<path d="M258.231 100.206C259.434 101.409 261.238 101.409 262.441 100.807C263.644 99.6049 263.644 97.8011 263.043 96.5985C261.84 95.396 260.036 95.3959 258.833 95.9972C257.63 96.5985 257.63 99.0036 258.231 100.206Z" fill="white"/>
<path d="M281.676 114.636C282.879 115.839 284.683 115.839 285.885 115.238C287.088 114.035 287.088 112.231 286.487 111.029C285.284 109.826 283.48 109.826 282.277 110.427C280.473 111.63 280.473 113.434 281.676 114.636Z" fill="white"/>
<path d="M305.144 129.066C306.346 130.269 308.15 130.269 309.353 129.667C310.556 129.066 310.556 126.661 309.955 125.458C308.752 124.256 306.948 124.256 305.745 124.857C303.941 126.06 303.941 127.863 305.144 129.066Z" fill="white"/>
<path d="M328.002 144.098C329.205 145.3 331.009 145.3 332.212 144.699C333.414 143.497 333.414 141.693 332.813 140.49C331.61 139.288 329.806 139.288 328.603 139.889C327.401 140.49 326.799 142.895 328.002 144.098Z" fill="white"/>
<path d="M351.446 158.529C352.649 159.731 354.453 159.731 355.656 159.13C356.859 157.928 356.859 156.124 356.257 154.921C355.055 153.719 353.25 153.719 352.048 154.32C350.244 155.523 350.244 157.326 351.446 158.529Z" fill="white"/>
<path d="M374.302 172.959C375.505 174.161 377.309 174.161 378.511 173.56C379.714 172.357 379.714 170.554 379.113 169.351C377.91 168.149 376.106 168.148 374.903 168.75C373.701 169.351 373.701 171.756 374.302 172.959Z" fill="white"/>
<path d="M397.744 187.39C398.947 188.593 400.751 188.593 401.954 187.992C403.157 186.789 403.156 184.985 402.555 183.783C401.352 182.58 399.548 182.58 398.346 183.181C397.143 183.783 396.541 186.188 397.744 187.39Z" fill="white"/>
<path d="M420.604 201.82C421.807 203.022 423.611 203.022 424.814 202.421C426.017 201.219 426.017 199.415 425.416 198.212C424.213 197.01 422.409 197.01 421.206 197.611C420.003 198.814 420.003 200.617 420.604 201.82Z" fill="white"/>
<path d="M104.88 36.471C106.083 37.6736 107.887 37.6736 109.09 37.0724C110.292 35.8698 110.292 34.0659 109.691 32.8634C108.488 31.6609 106.684 31.6608 105.481 32.2621C103.677 33.4646 103.677 35.2685 104.88 36.471Z" fill="white"/>
<path d="M127.739 50.9012C128.942 52.1038 130.746 52.1038 131.949 51.5025C133.152 50.3 133.152 48.4961 132.55 47.2936C131.348 46.091 129.544 46.0912 128.341 46.6925C127.138 47.895 127.138 49.6987 127.739 50.9012Z" fill="white"/>
<path d="M151.182 65.933C152.384 67.1355 154.189 67.1355 155.391 66.5343C156.594 65.3317 156.594 63.5279 155.993 62.3253C154.79 61.1228 152.986 61.1229 151.783 61.7242C150.58 62.3255 149.979 64.1292 151.182 65.933Z" fill="white"/>
<path d="M174.65 80.3641C175.853 81.5667 177.657 81.5667 178.86 80.9654C180.063 79.7629 180.063 77.9592 179.461 76.7567C178.259 75.5541 176.455 75.5541 175.252 76.1554C173.448 76.7566 173.448 79.1616 174.65 80.3641Z" fill="white"/>
<path d="M197.482 94.7944C198.684 95.9969 200.488 95.9968 201.691 95.3955C202.894 94.193 202.894 92.3893 202.293 91.1868C201.09 89.9842 199.286 89.9842 198.083 90.5855C196.88 91.788 196.279 93.5919 197.482 94.7944Z" fill="white"/>
<path d="M220.953 109.225C222.156 110.428 223.96 110.428 225.163 109.827C226.366 108.624 226.366 106.82 225.764 105.618C224.561 104.415 222.757 104.415 221.555 105.016C219.751 106.219 219.751 108.023 220.953 109.225Z" fill="white"/>
<path d="M243.809 123.655C245.011 124.857 246.815 124.857 248.018 124.256C249.221 123.054 249.221 121.25 248.62 120.047C247.417 118.845 245.613 118.845 244.41 119.446C243.207 120.648 243.207 122.452 243.809 123.655Z" fill="white"/>
<path d="M267.253 138.085C268.456 139.288 270.26 139.288 271.463 138.686C272.665 137.484 272.665 135.68 272.064 134.477C270.861 133.275 269.057 133.275 267.854 133.876C266.652 134.478 266.05 136.883 267.253 138.085Z" fill="white"/>
<path d="M290.107 152.516C291.309 153.719 293.113 153.719 294.316 153.118C295.519 151.915 295.519 150.111 294.918 148.909C293.715 147.706 291.911 147.706 290.708 148.307C289.505 148.909 289.505 151.314 290.107 152.516Z" fill="white"/>
<path d="M313.552 166.946C314.755 168.149 316.559 168.148 317.762 167.547C318.964 166.946 318.964 164.541 318.363 163.338C317.16 162.136 315.356 162.136 314.153 162.737C312.951 163.94 312.349 165.743 313.552 166.946Z" fill="white"/>
<path d="M337.019 181.378C338.222 182.58 340.026 182.58 341.229 181.979C342.432 180.776 342.432 178.972 341.831 177.77C340.628 176.567 338.824 176.567 337.621 177.169C335.817 178.371 335.817 180.175 337.019 181.378Z" fill="white"/>
<path d="M359.855 196.409C361.057 197.611 362.861 197.611 364.064 197.01C365.267 195.808 365.267 194.004 364.666 192.801C363.463 191.599 361.659 191.599 360.456 192.2C359.253 192.801 358.652 194.605 359.855 196.409Z" fill="white"/>
<path d="M383.323 210.839C384.526 212.042 386.33 212.042 387.533 211.44C388.736 210.238 388.736 208.434 388.134 207.231C386.932 206.029 385.128 206.029 383.925 206.63C382.121 207.231 382.121 209.636 383.323 210.839Z" fill="white"/>
<path d="M406.178 225.269C407.38 226.472 409.185 226.472 410.387 225.87C411.59 224.668 411.59 222.864 410.989 221.662C409.786 220.459 407.982 220.459 406.779 221.06C405.576 221.662 405.576 224.067 406.178 225.269Z" fill="white"/>
<path d="M66.9893 45.4901C68.1921 46.6926 69.9963 46.6927 71.199 46.0914C72.4018 44.8889 72.4016 43.085 71.8002 41.8825C70.5975 40.6799 68.7935 40.6799 67.5907 41.2811C66.388 42.4837 66.388 44.2876 66.9893 45.4901Z" fill="white"/>
<path d="M90.457 59.9203C91.6597 61.1228 93.4639 61.1228 94.6667 60.5216C95.8694 59.9203 95.8695 57.5152 95.2681 56.3126C94.0653 55.1101 92.2612 55.1102 91.0584 55.7115C89.2543 56.914 89.2543 58.7177 90.457 59.9203Z" fill="white"/>
<path d="M113.292 74.3514C114.495 75.554 116.299 75.554 117.502 74.9527C118.704 73.7502 118.704 71.9465 118.103 70.744C116.9 69.5414 115.096 69.5414 113.893 70.1427C112.691 71.3452 112.691 73.1489 113.292 74.3514Z" fill="white"/>
<path d="M136.761 88.7812C137.964 89.9838 139.768 89.9836 140.97 89.3823C142.173 88.1798 142.173 86.3761 141.572 85.1736C140.369 83.971 138.565 83.971 137.362 84.5723C136.16 85.7748 135.558 87.5787 136.761 88.7812Z" fill="white"/>
<path d="M160.203 103.213C161.406 104.415 163.21 104.415 164.413 103.814C165.616 102.612 165.615 100.808 165.014 99.6051C163.811 98.4026 162.007 98.4025 160.805 99.0038C159.602 99.6051 159 102.01 160.203 103.213Z" fill="white"/>
<path d="M183.059 117.642C184.261 118.845 186.065 118.845 187.268 118.244C188.471 117.041 188.471 115.237 187.87 114.035C186.667 112.832 184.863 112.832 183.66 113.433C182.457 114.035 181.856 116.44 183.059 117.642Z" fill="white"/>
<path d="M206.504 132.674C207.707 133.877 209.511 133.877 210.714 133.275C211.916 132.674 211.916 130.269 211.315 129.067C210.112 127.864 208.308 127.864 207.105 128.465C205.301 129.066 205.301 130.87 206.504 132.674Z" fill="white"/>
<path d="M229.361 147.104C230.564 148.306 232.368 148.306 233.571 147.705C234.774 146.503 234.774 144.699 234.172 143.496C232.97 142.294 231.166 142.294 229.963 142.895C228.76 143.496 228.76 145.901 229.361 147.104Z" fill="white"/>
<path d="M252.83 161.536C254.033 162.738 255.837 162.738 257.04 162.137C258.242 160.934 258.243 159.131 257.641 157.928C257.04 156.726 254.634 156.725 253.431 157.327C251.627 158.529 251.627 160.333 252.83 161.536Z" fill="white"/>
<path d="M275.662 175.965C276.865 177.168 278.669 177.168 279.872 176.566C281.074 175.364 281.075 173.56 280.473 172.358C279.27 171.155 277.466 171.155 276.263 171.756C275.061 172.959 275.061 174.763 275.662 175.965Z" fill="white"/>
<path d="M299.129 190.396C300.332 191.599 302.136 191.599 303.339 190.997C304.541 189.795 304.541 187.991 303.94 186.788C302.737 185.586 300.933 185.586 299.73 186.187C298.528 186.788 297.926 189.194 299.129 190.396Z" fill="white"/>
<path d="M322.573 204.826C323.776 206.028 325.58 206.028 326.783 205.427C327.986 204.826 327.986 202.421 327.384 201.218C326.181 200.016 324.377 200.016 323.175 200.617C321.371 201.819 321.371 203.623 322.573 204.826Z" fill="white"/>
<path d="M345.432 219.256C346.634 220.458 348.439 220.459 349.641 219.857C350.844 219.256 350.844 216.851 350.243 215.648C349.04 214.446 347.236 214.446 346.033 215.047C344.83 216.25 344.229 218.053 345.432 219.256Z" fill="white"/>
<path d="M368.876 233.687C370.079 234.89 371.883 234.89 373.086 234.288C374.288 233.086 374.288 231.282 373.687 230.08C372.484 228.877 370.68 228.877 369.477 229.478C367.673 230.681 367.673 232.485 368.876 233.687Z" fill="white"/>
<path d="M391.732 248.117C392.934 249.32 394.738 249.32 395.941 248.719C397.144 247.516 397.144 245.712 396.542 244.51C395.34 243.307 393.536 243.307 392.333 243.908C391.13 245.111 391.13 246.915 391.732 248.117Z" fill="white"/>
<path d="M415.198 263.149C416.401 264.352 418.205 264.352 419.408 263.75C420.611 262.548 420.611 260.744 420.009 259.542C418.807 258.339 417.002 258.339 415.8 258.94C413.996 259.541 413.995 261.345 415.198 263.149Z" fill="white"/>
<path d="M52.5705 68.9393C53.7732 70.1418 55.5772 70.1419 56.78 69.5406C57.9827 68.3381 57.9827 66.5342 57.3814 65.3317C56.1786 64.1291 54.3746 64.1293 53.1719 64.7305C51.9691 65.3318 51.3677 67.1355 52.5705 68.9393Z" fill="white"/>
<path d="M76.0108 83.3705C77.2136 84.573 79.0178 84.573 80.2205 83.9718C81.4232 82.7692 81.4231 80.9655 80.8217 79.763C79.619 78.5605 77.815 78.5604 76.6122 79.1617C75.4095 79.763 74.8081 82.1679 76.0108 83.3705Z" fill="white"/>
<path d="M98.8662 97.8003C100.069 99.0028 101.873 99.0027 103.076 98.4014C104.279 97.8001 104.279 95.3952 103.677 94.1926C102.475 92.9901 100.67 92.9901 99.4676 93.5913C98.2648 94.7939 98.2648 96.5977 98.8662 97.8003Z" fill="white"/>
<path d="M122.314 112.231C123.516 113.434 125.32 113.434 126.523 112.833C127.726 111.63 127.726 109.826 127.125 108.624C125.922 107.421 124.118 107.421 122.915 108.022C121.111 109.225 121.111 111.029 122.314 112.231Z" fill="white"/>
<path d="M145.777 126.661C146.98 127.864 148.784 127.864 149.987 127.263C151.19 126.06 151.19 124.256 150.588 123.054C149.386 121.851 147.582 121.851 146.379 122.453C144.575 123.655 144.575 125.459 145.777 126.661Z" fill="white"/>
<path d="M168.636 141.091C169.838 142.294 171.643 142.294 172.845 141.692C174.048 140.49 174.048 138.686 173.447 137.484C172.244 136.281 170.44 136.281 169.237 136.882C168.034 138.085 167.433 139.889 168.636 141.091Z" fill="white"/>
<path d="M192.08 155.522C193.283 156.725 195.087 156.725 196.29 156.124C197.492 154.921 197.493 153.117 196.891 151.915C195.688 150.712 193.884 150.712 192.681 151.314C191.479 151.915 190.877 154.32 192.08 155.522Z" fill="white"/>
<path d="M214.936 169.953C216.138 171.155 217.942 171.155 219.145 170.554C220.348 169.952 220.348 167.548 219.747 166.345C218.544 165.142 216.74 165.142 215.537 165.744C214.334 166.946 213.733 168.75 214.936 169.953Z" fill="white"/>
<path d="M238.383 184.384C239.586 185.586 241.39 185.586 242.593 184.985C243.795 184.384 243.795 181.979 243.194 180.776C241.991 179.573 240.187 179.573 238.984 180.175C237.18 181.377 237.18 183.181 238.383 184.384Z" fill="white"/>
<path d="M261.242 199.415C262.445 200.618 264.249 200.618 265.452 200.017C266.655 198.814 266.655 197.01 266.053 195.808C264.85 194.605 263.046 194.605 261.844 195.206C260.641 195.808 260.641 197.612 261.242 199.415Z" fill="white"/>
<path d="M284.684 213.846C285.886 215.048 287.69 215.048 288.893 214.447C290.096 213.244 290.096 211.44 289.495 210.238C288.292 209.035 286.488 209.035 285.285 209.637C283.481 210.238 283.481 212.643 284.684 213.846Z" fill="white"/>
<path d="M308.151 228.275C309.353 229.478 311.157 229.478 312.36 228.877C313.563 227.674 313.563 225.87 312.961 224.668C311.759 223.465 309.955 223.465 308.752 224.066C306.948 225.269 306.948 227.073 308.151 228.275Z" fill="white"/>
<path d="M331.009 242.706C332.211 243.909 334.016 243.909 335.218 243.307C336.421 242.105 336.421 240.301 335.82 239.099C334.617 237.896 332.813 237.896 331.61 238.497C330.407 239.7 329.806 241.504 331.009 242.706Z" fill="white"/>
<path d="M354.45 257.136C355.653 258.339 357.457 258.339 358.66 257.738C359.863 257.136 359.863 254.731 359.261 253.529C358.059 252.326 356.254 252.326 355.052 252.928C353.247 254.13 353.247 255.934 354.45 257.136Z" fill="white"/>
<path d="M377.309 271.567C378.511 272.77 380.315 272.77 381.518 272.169C382.721 270.966 382.721 269.162 382.12 267.96C380.917 266.757 379.113 266.757 377.91 267.359C376.707 268.561 376.707 270.365 377.309 271.567Z" fill="white"/>
<path d="M400.752 285.997C401.955 287.2 403.759 287.2 404.962 286.598C406.164 285.396 406.164 283.592 405.563 282.39C404.36 281.187 402.556 281.187 401.353 281.788C399.549 282.991 399.549 284.795 400.752 285.997Z" fill="white"/>
<path d="M38.1212 91.7878C39.324 92.9903 41.128 92.9902 42.3307 92.3889C43.5335 91.1864 43.5335 89.3827 42.9321 88.1802C41.7294 86.9776 39.9252 86.9776 38.7225 87.5789C37.5197 88.7814 36.9185 90.5853 38.1212 91.7878Z" fill="white"/>
<path d="M61.588 106.219C62.7908 107.422 64.5948 107.422 65.7975 106.821C67.0003 105.618 67.0003 103.814 66.3989 102.612C65.1962 101.409 63.3922 101.409 62.1894 102.01C60.3853 103.213 60.3853 105.017 61.588 106.219Z" fill="white"/>
<path d="M84.4463 120.649C85.649 121.852 87.4532 121.852 88.6559 121.25C89.8587 120.048 89.8587 118.244 89.2573 117.041C88.0546 115.839 86.2504 115.839 85.0477 116.44C83.8449 117.041 83.8449 119.446 84.4463 120.649Z" fill="white"/>
<path d="M107.888 135.681C109.09 136.883 110.895 136.883 112.097 136.282C113.3 135.079 113.3 133.275 112.699 132.073C111.496 130.87 109.692 130.87 108.489 131.472C106.685 132.073 106.685 133.877 107.888 135.681Z" fill="white"/>
<path d="M130.746 150.11C131.949 151.313 133.753 151.313 134.956 150.712C136.158 149.509 136.159 147.705 135.557 146.503C134.354 145.3 132.55 145.3 131.348 145.901C130.145 146.503 130.145 148.908 130.746 150.11Z" fill="white"/>
<path d="M154.19 164.542C155.392 165.744 157.196 165.744 158.399 165.143C159.602 163.941 159.602 162.137 159 160.934C157.798 159.732 155.994 159.732 154.791 160.333C153.588 161.536 152.987 163.339 154.19 164.542Z" fill="white"/>
<path d="M177.658 178.972C178.861 180.174 180.665 180.174 181.868 179.573C183.071 178.37 183.071 176.567 182.469 175.364C181.267 174.161 179.462 174.161 178.26 174.763C176.455 175.965 176.455 177.769 177.658 178.972Z" fill="white"/>
<path d="M200.488 193.403C201.691 194.605 203.495 194.605 204.698 194.004C205.901 192.801 205.901 190.998 205.299 189.795C204.097 188.593 202.292 188.592 201.09 189.194C199.887 189.795 199.286 192.2 200.488 193.403Z" fill="white"/>
<path d="M223.956 207.832C225.159 209.035 226.963 209.035 228.166 208.434C229.368 207.832 229.368 205.427 228.767 204.225C227.564 203.022 225.76 203.022 224.558 203.623C222.753 204.826 222.753 206.63 223.956 207.832Z" fill="white"/>
<path d="M246.812 222.263C248.015 223.465 249.819 223.465 251.022 222.864C252.225 222.263 252.225 219.857 251.624 218.655C250.421 217.452 248.617 217.453 247.414 218.054C246.211 219.256 246.211 221.06 246.812 222.263Z" fill="white"/>
<path d="M270.259 236.694C271.462 237.896 273.266 237.896 274.468 237.295C275.671 236.092 275.671 234.289 275.07 233.086C273.867 231.884 272.063 231.884 270.86 232.485C269.056 233.687 269.056 235.491 270.259 236.694Z" fill="white"/>
<path d="M293.114 251.124C294.317 252.326 296.121 252.326 297.324 251.725C298.527 250.522 298.527 248.718 297.925 247.516C296.723 246.313 294.919 246.313 293.716 246.915C292.513 248.117 292.513 249.921 293.114 251.124Z" fill="white"/>
<path d="M316.559 266.155C317.761 267.358 319.566 267.358 320.768 266.756C321.971 265.554 321.971 263.75 321.37 262.548C320.167 261.345 318.363 261.345 317.16 261.946C315.957 262.548 315.356 264.351 316.559 266.155Z" fill="white"/>
<path d="M340.03 280.587C341.233 281.789 343.037 281.789 344.24 281.188C345.443 279.986 345.443 278.182 344.841 276.979C343.639 275.777 341.834 275.777 340.632 276.378C338.828 276.979 338.827 279.384 340.03 280.587Z" fill="white"/>
<path d="M0.837972 100.807C2.04072 102.009 3.84491 102.009 5.04765 101.408C6.2504 100.807 6.25025 98.4018 5.64888 97.1992C4.44613 95.9967 2.64213 95.9966 1.43938 96.5979C-0.364736 97.8004 -0.364773 99.6043 0.837972 100.807Z" fill="white"/>
<path d="M23.6972 115.238C24.9 116.44 26.7042 116.44 27.9069 115.839C29.1097 114.637 29.1097 112.833 28.5083 111.63C27.3056 110.428 25.5014 110.428 24.2986 111.029C23.0959 112.231 22.4945 114.035 23.6972 115.238Z" fill="white"/>
<path d="M47.1418 129.668C48.3445 130.871 50.1485 130.871 51.3512 130.269C52.554 129.067 52.554 127.263 51.9527 126.06C50.7499 124.858 48.9457 124.858 47.743 125.459C45.9389 126.662 45.939 128.466 47.1418 129.668Z" fill="white"/>
<path d="M69.9962 144.098C71.1989 145.3 73.0031 145.3 74.2059 144.699C75.4086 143.497 75.4085 141.693 74.8071 140.49C73.6043 139.288 71.8003 139.288 70.5976 139.889C69.3948 141.092 69.3948 142.895 69.9962 144.098Z" fill="white"/>
<path d="M93.4677 158.529C94.6705 159.731 96.4747 159.731 97.6774 159.13C98.8802 157.928 98.8802 156.124 98.2788 154.921C97.0761 153.719 95.2719 153.719 94.0691 154.32C92.265 155.523 92.265 157.326 93.4677 158.529Z" fill="white"/>
<path d="M116.296 172.959C117.499 174.161 119.303 174.161 120.506 173.56C121.708 172.959 121.708 170.554 121.107 169.351C119.904 168.149 118.1 168.148 116.897 168.75C115.695 169.952 115.695 171.756 116.296 172.959Z" fill="white"/>
<path d="M139.763 187.39C140.966 188.593 142.77 188.593 143.972 187.992C145.175 187.39 145.175 184.985 144.574 183.783C143.371 182.58 141.567 182.58 140.364 183.181C139.162 184.384 138.56 186.188 139.763 187.39Z" fill="white"/>
<path d="M163.211 202.422C164.414 203.624 166.218 203.624 167.421 203.023C168.623 201.821 168.623 200.017 168.022 198.814C166.819 197.612 165.015 197.612 163.812 198.213C162.008 198.814 162.008 200.618 163.211 202.422Z" fill="white"/>
<path d="M186.066 216.851C187.269 218.054 189.073 218.054 190.276 217.453C191.479 216.25 191.479 214.446 190.877 213.244C189.675 212.041 187.871 212.041 186.668 212.642C185.465 213.244 184.864 215.649 186.066 216.851Z" fill="white"/>
<path d="M209.51 231.282C210.713 232.484 212.517 232.484 213.719 231.883C214.922 230.68 214.922 228.876 214.321 227.674C213.118 226.471 211.314 226.472 210.111 227.073C208.307 228.275 208.307 230.079 209.51 231.282Z" fill="white"/>
<path d="M232.369 245.713C233.572 246.915 235.376 246.915 236.579 246.314C237.782 245.112 237.781 243.308 237.18 242.105C235.977 240.903 234.173 240.903 232.971 241.504C231.768 242.707 231.768 244.51 232.369 245.713Z" fill="white"/>
<path d="M255.833 260.143C257.036 261.345 258.84 261.345 260.043 260.744C261.245 259.541 261.245 257.737 260.644 256.535C259.441 255.332 257.637 255.332 256.434 255.934C254.63 257.136 254.63 258.94 255.833 260.143Z" fill="white"/>
<path d="M278.668 274.574C279.871 275.777 281.675 275.777 282.878 275.175C284.08 273.973 284.08 272.169 283.479 270.966C282.276 269.764 280.472 269.764 279.269 270.365C278.067 271.568 278.067 273.372 278.668 274.574Z" fill="white"/>
<path d="M302.136 289.004C303.339 290.206 305.143 290.206 306.345 289.605C307.548 288.403 307.548 286.599 306.947 285.396C305.744 284.194 303.94 284.194 302.737 284.795C301.535 285.997 300.933 287.801 302.136 289.004Z" fill="white"/>
<path d="M32.7168 153.117C33.9195 154.319 35.7237 154.319 36.9264 153.718C38.1292 153.117 38.1292 150.712 37.5279 149.509C36.3251 148.307 34.5209 148.307 33.3182 148.908C31.5141 149.509 31.514 151.914 32.7168 153.117Z" fill="white"/>
<path d="M55.5734 167.548C56.7761 168.75 58.5801 168.751 59.7829 168.149C60.9856 166.947 60.9857 165.143 60.3843 163.94C59.1816 162.738 57.3775 162.738 56.1748 163.339C54.9721 164.542 54.3706 166.345 55.5734 167.548Z" fill="white"/>
<path d="M79.0177 181.978C80.2204 183.181 82.0246 183.181 83.2273 182.579C84.4301 181.377 84.4299 179.573 83.8286 178.371C82.6258 177.168 80.8218 177.168 79.6191 177.769C77.815 178.972 77.8149 180.776 79.0177 181.978Z" fill="white"/>
<path d="M101.875 196.409C103.078 197.612 104.882 197.612 106.085 197.011C107.287 195.808 107.287 194.004 106.686 192.802C105.483 191.599 103.679 191.599 102.476 192.2C101.274 193.403 101.274 195.207 101.875 196.409Z" fill="white"/>
<path d="M125.317 210.839C126.519 212.042 128.323 212.042 129.526 211.44C130.729 210.238 130.729 208.434 130.127 207.231C128.925 206.029 127.121 206.029 125.918 206.63C124.114 207.833 124.114 209.636 125.317 210.839Z" fill="white"/>
<path d="M148.785 225.269C149.988 226.472 151.792 226.472 152.995 225.87C154.198 224.668 154.198 222.864 153.596 221.662C152.393 220.459 150.589 220.459 149.387 221.06C147.583 222.263 147.583 224.067 148.785 225.269Z" fill="white"/>
<path d="M171.643 239.7C172.845 240.903 174.649 240.903 175.852 240.302C177.055 239.099 177.055 237.295 176.454 236.093C175.251 234.89 173.447 234.89 172.244 235.492C171.041 236.694 170.44 238.498 171.643 239.7Z" fill="white"/>
<path d="M195.087 254.13C196.29 255.333 198.094 255.332 199.297 254.731C200.499 253.529 200.499 251.725 199.898 250.522C198.695 249.32 196.891 249.32 195.688 249.921C193.884 251.124 193.884 252.928 195.087 254.13Z" fill="white"/>
<path d="M217.946 269.162C219.149 270.364 220.953 270.364 222.156 269.763C223.359 268.56 223.359 266.756 222.757 265.554C221.555 264.351 219.751 264.351 218.548 264.953C217.345 265.554 216.744 267.358 217.946 269.162Z" fill="white"/>
<path d="M87.4492 219.858C88.6519 221.061 90.4561 221.061 91.6589 220.459C92.8616 219.257 92.8616 217.453 92.2603 216.25C91.0575 215.048 89.2533 215.048 88.0506 215.649C86.8479 216.25 86.8478 218.655 87.4492 219.858Z" fill="white"/>
<path d="M110.896 234.288C112.099 235.49 113.903 235.49 115.106 234.889C116.309 233.686 116.309 231.883 115.708 230.68C114.505 229.478 112.701 229.478 111.498 230.079C109.694 231.281 109.694 233.085 110.896 234.288Z" fill="white"/>
</g>
<defs>
<clipPath id="clip0">
<rect width="426" height="290" fill="white"/>
</clipPath>
</defs>
</svg>
