<svg width="278" height="189" viewBox="0 0 278 189" fill="none" xmlns="http://www.w3.org/2000/svg">
<path d="M141.88 6.91271C142.663 7.69567 143.837 7.69558 144.62 7.3041C145.403 6.52113 145.403 5.34676 145.011 4.5638C144.228 3.78084 143.054 3.78081 142.271 4.17229C141.097 4.56378 141.097 6.12975 141.88 6.91271Z" fill="white"/>
<path d="M156.756 16.3089C157.539 17.0918 158.714 17.0919 159.497 16.7004C160.28 15.9174 160.28 14.7429 159.888 13.96C159.105 13.177 157.931 13.177 157.148 13.5685C156.365 14.3514 156.365 15.5259 156.756 16.3089Z" fill="white"/>
<path d="M172.016 25.7032C172.799 26.4861 173.974 26.4862 174.757 26.0947C175.54 25.3117 175.54 24.1372 175.148 23.3543C174.365 22.5713 173.191 22.5713 172.408 22.9627C171.233 23.7457 171.233 24.9202 172.016 25.7032Z" fill="white"/>
<path d="M102.33 2.99743C103.113 3.78039 104.287 3.7803 105.07 3.38881C105.853 2.60585 105.853 1.43148 105.462 0.648517C104.679 -0.134446 103.504 -0.13447 102.721 0.257011C101.547 1.03997 101.547 2.21447 102.33 2.99743Z" fill="white"/>
<path d="M117.211 12.3936C117.994 13.1766 119.168 13.1766 119.951 12.7851C120.734 12.0021 120.734 10.8276 120.342 10.0447C119.56 9.26172 118.385 9.2617 117.602 9.65318C116.819 10.4361 116.428 11.6106 117.211 12.3936Z" fill="white"/>
<path d="M132.472 21.7889C133.255 22.5718 134.43 22.5718 135.213 22.1804C135.996 21.3974 135.996 20.2229 135.604 19.4399C134.821 18.657 133.647 18.657 132.864 19.0484C131.689 19.8314 131.689 21.0059 132.472 21.7889Z" fill="white"/>
<path d="M147.351 31.1841C148.134 31.9671 149.309 31.9671 150.092 31.5756C150.875 30.7927 150.875 29.6182 150.483 28.8352C149.7 28.0522 148.526 28.0523 147.743 28.4438C146.96 29.2268 146.96 30.4012 147.351 31.1841Z" fill="white"/>
<path d="M162.629 40.5794C163.412 41.3623 164.587 41.3624 165.37 40.9709C166.153 40.1879 166.153 39.0136 165.761 38.2306C164.978 37.4476 163.804 37.4476 163.021 37.8391C161.847 38.622 161.847 39.7964 162.629 40.5794Z" fill="white"/>
<path d="M177.493 50.3677C178.276 51.1507 179.45 51.1507 180.233 50.7592C181.016 49.9763 181.016 48.8019 180.625 48.0189C179.842 47.236 178.667 47.2359 177.884 47.6274C177.101 48.0189 177.101 49.5848 177.493 50.3677Z" fill="white"/>
<path d="M192.77 59.7621C193.553 60.545 194.728 60.5449 195.511 60.1535C196.293 59.3705 196.294 58.1961 195.902 57.4132C195.119 56.6302 193.945 56.6302 193.162 57.0217C192.379 57.8046 191.987 58.9791 192.77 59.7621Z" fill="white"/>
<path d="M208.034 69.1582C208.817 69.9412 209.991 69.9412 210.774 69.5497C211.557 68.7668 211.557 67.5923 211.166 66.8093C210.383 66.0264 209.208 66.0263 208.425 66.4178C207.251 67.2008 207.251 68.3753 208.034 69.1582Z" fill="white"/>
<path d="M222.91 78.5545C223.693 79.3374 224.867 79.3375 225.65 78.946C226.433 78.163 226.433 76.9885 226.042 76.2056C225.259 75.4226 224.084 75.4226 223.301 75.8141C222.518 76.597 222.127 77.7715 222.91 78.5545Z" fill="white"/>
<path d="M238.172 87.9497C238.955 88.7327 240.129 88.7327 240.912 88.3413C241.695 87.5583 241.695 86.3838 241.303 85.6008C240.52 84.8179 239.346 84.818 238.563 85.2094C237.78 85.6009 237.389 87.1668 238.172 87.9497Z" fill="white"/>
<path d="M253.051 97.345C253.834 98.128 255.009 98.128 255.792 97.7365C256.575 96.9536 256.575 95.7792 256.183 94.9962C255.4 94.2133 254.226 94.2132 253.443 94.6047C252.66 94.9962 252.66 96.562 253.051 97.345Z" fill="white"/>
<path d="M268.329 106.739C269.112 107.522 270.286 107.522 271.069 107.131C271.852 106.739 271.852 105.173 271.461 104.39C270.678 103.607 269.503 103.607 268.72 103.999C267.546 104.782 267.546 105.956 268.329 106.739Z" fill="white"/>
<path d="M77.6667 8.8695C78.4497 9.65246 79.6241 9.65237 80.407 9.26088C81.19 8.47792 81.19 7.30355 80.7985 6.52059C80.0156 5.73762 78.8411 5.7376 78.0581 6.12908C76.8837 6.52056 76.8838 8.08654 77.6667 8.8695Z" fill="white"/>
<path d="M92.9431 18.2664C93.7261 19.0494 94.9004 19.0494 95.6834 18.6579C96.4664 17.8749 96.4664 16.7004 96.0749 15.9175C95.2919 15.1345 94.1176 15.1345 93.3346 15.526C92.1602 16.3089 92.1601 17.4834 92.9431 18.2664Z" fill="white"/>
<path d="M107.821 27.6609C108.604 28.4439 109.778 28.4439 110.561 28.0524C111.344 27.2695 111.344 26.095 110.953 25.312C110.17 24.5291 108.995 24.529 108.212 24.9205C107.429 25.7035 107.038 26.878 107.821 27.6609Z" fill="white"/>
<path d="M123.083 37.0562C123.866 37.8392 125.04 37.8392 125.823 37.4477C126.606 36.6647 126.606 35.4902 126.215 34.7073C125.432 33.9243 124.257 33.9244 123.474 34.3159C122.3 35.0989 122.3 36.2732 123.083 37.0562Z" fill="white"/>
<path d="M137.964 46.4532C138.747 47.2361 139.921 47.2362 140.704 46.8447C141.487 46.0617 141.487 44.8873 141.095 44.1044C140.312 43.3214 139.138 43.3214 138.355 43.7129C137.572 44.4958 137.181 45.6702 137.964 46.4532Z" fill="white"/>
<path d="M153.223 55.8478C154.006 56.6307 155.181 56.6306 155.964 56.2392C156.747 55.4562 156.747 54.2818 156.355 53.4989C155.572 52.7159 154.398 52.7159 153.615 53.1074C152.44 53.8903 152.44 55.0648 153.223 55.8478Z" fill="white"/>
<path d="M168.104 65.2447C168.887 66.0276 170.062 66.0277 170.845 65.6362C171.627 64.8532 171.628 63.6787 171.236 62.8958C170.453 62.1128 169.279 62.1128 168.496 62.5043C167.713 62.8957 167.713 64.4617 168.104 65.2447Z" fill="white"/>
<path d="M183.366 74.6382C184.149 75.4212 185.323 75.4212 186.106 75.0297C186.889 74.2468 186.889 73.0723 186.498 72.2893C185.715 71.5063 184.54 71.5063 183.757 71.8978C182.583 72.6808 182.583 73.8553 183.366 74.6382Z" fill="white"/>
<path d="M198.642 84.0345C199.425 84.8174 200.6 84.8174 201.383 84.426C202.166 84.0345 202.166 82.4685 201.774 81.6856C200.991 80.9026 199.817 80.9027 199.034 81.2942C197.859 82.0771 197.859 83.2515 198.642 84.0345Z" fill="white"/>
<path d="M213.523 93.8208C214.306 94.6038 215.481 94.6038 216.263 94.2123C217.046 93.4294 217.046 92.2549 216.655 91.4719C215.872 90.689 214.698 90.6891 213.915 91.0805C213.132 91.472 212.74 93.0379 213.523 93.8208Z" fill="white"/>
<path d="M228.784 103.217C229.567 104 230.741 104 231.524 103.609C232.307 102.826 232.307 101.651 231.916 100.868C231.133 100.085 229.958 100.085 229.175 100.477C228.001 101.26 228.001 102.434 228.784 103.217Z" fill="white"/>
<path d="M243.664 112.613C244.447 113.396 245.621 113.396 246.404 113.005C247.187 112.222 247.187 111.047 246.796 110.264C246.013 109.482 244.838 109.481 244.055 109.873C243.272 110.264 243.272 111.83 243.664 112.613Z" fill="white"/>
<path d="M258.924 122.009C259.707 122.792 260.882 122.792 261.665 122.4C262.448 121.617 262.448 120.443 262.056 119.66C261.273 118.877 260.099 118.877 259.316 119.268C258.533 119.66 258.142 121.226 258.924 122.009Z" fill="white"/>
<path d="M273.805 131.403C274.588 132.186 275.763 132.186 276.546 131.794C277.329 131.011 277.329 129.837 276.937 129.054C276.154 128.271 274.98 128.271 274.197 128.662C273.414 129.445 273.414 130.62 273.805 131.403Z" fill="white"/>
<path d="M68.275 23.7456C69.058 24.5286 70.2325 24.5286 71.0154 24.1371C71.7984 23.3542 71.7984 22.1797 71.4069 21.3967C70.624 20.6138 69.4495 20.6137 68.6665 21.0052C67.4921 21.7882 67.492 22.9627 68.275 23.7456Z" fill="white"/>
<path d="M83.156 33.1419C83.9389 33.9248 85.1133 33.9249 85.8963 33.5334C86.6792 32.7504 86.6793 31.5759 86.2878 30.793C85.5048 30.01 84.3305 30.0101 83.5475 30.4016C82.7645 31.1845 82.7645 32.3589 83.156 33.1419Z" fill="white"/>
<path d="M98.4167 42.9283C99.1996 43.7112 100.374 43.7112 101.157 43.3198C101.94 42.5368 101.94 41.3623 101.548 40.5794C100.766 39.7964 99.5911 39.7965 98.8082 40.188C98.0252 40.5794 97.6337 41.7538 98.4167 42.9283Z" fill="white"/>
<path d="M113.694 52.3245C114.477 53.1075 115.651 53.1075 116.434 52.716C117.217 51.933 117.217 50.7587 116.826 49.9757C116.043 49.1927 114.868 49.1927 114.085 49.5842C112.911 49.9757 112.911 51.5415 113.694 52.3245Z" fill="white"/>
<path d="M128.557 61.7206C129.34 62.5035 130.515 62.5034 131.298 62.112C132.081 61.329 132.081 60.1546 131.689 59.3717C130.906 58.5887 129.732 58.5887 128.949 58.9802C128.166 59.7631 127.774 60.9376 128.557 61.7206Z" fill="white"/>
<path d="M143.837 71.115C144.62 71.898 145.794 71.898 146.577 71.5065C147.36 70.7236 147.36 69.5491 146.968 68.7661C146.185 67.9832 145.011 67.9831 144.228 68.3746C143.054 69.1576 143.054 70.3321 143.837 71.115Z" fill="white"/>
<path d="M158.714 80.5113C159.497 81.2942 160.672 81.2943 161.455 80.9028C162.238 80.1198 162.238 78.9453 161.846 78.1624C161.063 77.3794 159.889 77.3794 159.106 77.7709C158.323 78.5538 158.323 79.7283 158.714 80.5113Z" fill="white"/>
<path d="M173.976 89.9056C174.759 90.6885 175.934 90.6885 176.717 90.2971C177.5 89.5141 177.5 88.3396 177.108 87.5566C176.325 86.7737 175.151 86.7738 174.368 87.1653C173.585 87.5567 173.193 89.1226 173.976 89.9056Z" fill="white"/>
<path d="M188.854 99.3018C189.637 100.085 190.812 100.085 191.595 99.6933C192.377 98.9103 192.378 97.736 191.986 96.953C191.203 96.17 190.029 96.17 189.246 96.5615C188.463 96.953 188.463 98.5188 188.854 99.3018Z" fill="white"/>
<path d="M204.116 108.698C204.899 109.481 206.073 109.481 206.856 109.089C207.639 108.698 207.639 107.132 207.248 106.349C206.465 105.566 205.29 105.566 204.507 105.958C203.724 106.741 203.333 107.915 204.116 108.698Z" fill="white"/>
<path d="M219.393 118.093C220.176 118.876 221.351 118.876 222.134 118.485C222.917 117.702 222.917 116.527 222.525 115.744C221.742 114.961 220.568 114.961 219.785 115.353C218.61 116.136 218.61 117.31 219.393 118.093Z" fill="white"/>
<path d="M234.259 127.881C235.041 128.664 236.216 128.664 236.999 128.272C237.782 127.489 237.782 126.315 237.39 125.532C236.607 124.749 235.433 124.749 234.65 125.14C233.867 125.532 233.476 126.706 234.259 127.881Z" fill="white"/>
<path d="M249.536 137.276C250.319 138.059 251.493 138.059 252.276 137.667C253.059 136.884 253.059 135.71 252.668 134.927C251.885 134.144 250.71 134.144 249.927 134.536C248.753 134.927 248.753 136.493 249.536 137.276Z" fill="white"/>
<path d="M264.414 146.671C265.197 147.454 266.371 147.454 267.154 147.063C267.937 146.28 267.937 145.105 267.546 144.322C266.763 143.539 265.588 143.539 264.805 143.931C264.022 144.322 264.022 145.888 264.414 146.671Z" fill="white"/>
<path d="M43.6091 29.6194C44.392 30.4024 45.5665 30.4024 46.3495 30.0109C47.1324 29.228 47.1323 28.0535 46.7409 27.2705C45.9579 26.4875 44.7835 26.4875 44.0006 26.879C43.2176 27.662 43.2176 28.8365 43.6091 29.6194Z" fill="white"/>
<path d="M58.8854 39.014C59.6683 39.7969 60.8428 39.7969 61.6258 39.4055C62.4087 39.014 62.4088 37.448 62.0173 36.665C61.2343 35.8821 60.0598 35.8822 59.2769 36.2737C58.1024 37.0566 58.1024 38.231 58.8854 39.014Z" fill="white"/>
<path d="M73.7517 48.4092C74.5346 49.1922 75.709 49.1922 76.492 48.8007C77.2749 48.0178 77.275 46.8434 76.8835 46.0604C76.1005 45.2775 74.926 45.2774 74.1431 45.6689C73.3601 46.4519 73.3602 47.6263 73.7517 48.4092Z" fill="white"/>
<path d="M89.029 57.8046C89.812 58.5875 90.9864 58.5874 91.7693 58.1959C92.5523 57.413 92.5523 56.2386 92.1608 55.4556C91.3779 54.6727 90.2035 54.6727 89.4205 55.0641C88.6376 55.8471 88.2461 57.0216 89.029 57.8046Z" fill="white"/>
<path d="M104.29 67.2015C105.073 67.9844 106.247 67.9844 107.03 67.593C107.813 66.81 107.813 65.6355 107.422 64.8525C106.639 64.0696 105.464 64.0696 104.681 64.461C103.898 64.8525 103.507 66.4185 104.29 67.2015Z" fill="white"/>
<path d="M119.168 76.595C119.951 77.378 121.125 77.378 121.908 76.9865C122.691 76.2036 122.691 75.0291 122.3 74.2461C121.517 73.4631 120.342 73.4631 119.559 73.8546C118.776 74.2461 118.385 75.812 119.168 76.595Z" fill="white"/>
<path d="M134.429 86.3833C135.212 87.1663 136.387 87.1663 137.17 86.7748C137.953 86.3834 137.953 84.8174 137.561 84.0344C136.778 83.2515 135.604 83.2514 134.821 83.6429C133.646 84.0344 133.646 85.2089 134.429 86.3833Z" fill="white"/>
<path d="M149.31 95.7786C150.093 96.5616 151.268 96.5616 152.051 96.1701C152.834 95.3871 152.834 94.2127 152.442 93.4297C151.659 92.6467 150.485 92.6468 149.702 93.0383C148.919 93.4298 148.919 94.9956 149.31 95.7786Z" fill="white"/>
<path d="M164.588 105.175C165.37 105.958 166.545 105.958 167.328 105.566C168.111 104.783 168.111 103.609 167.719 102.826C167.328 102.043 165.762 102.043 164.979 102.434C163.805 103.217 163.805 104.392 164.588 105.175Z" fill="white"/>
<path d="M179.451 114.57C180.234 115.353 181.408 115.353 182.191 114.962C182.974 114.179 182.974 113.004 182.583 112.221C181.8 111.438 180.625 111.438 179.842 111.83C179.059 112.613 179.059 113.787 179.451 114.57Z" fill="white"/>
<path d="M194.727 123.966C195.51 124.749 196.685 124.749 197.468 124.358C198.251 123.575 198.251 122.4 197.859 121.617C197.076 120.834 195.902 120.834 195.119 121.226C194.336 121.617 193.944 123.183 194.727 123.966Z" fill="white"/>
<path d="M209.989 133.361C210.772 134.144 211.946 134.144 212.729 133.752C213.512 133.361 213.512 131.795 213.121 131.012C212.338 130.229 211.163 130.229 210.38 130.62C209.206 131.403 209.206 132.578 209.989 133.361Z" fill="white"/>
<path d="M224.87 142.756C225.653 143.539 226.827 143.539 227.61 143.147C228.393 142.756 228.393 141.19 228.002 140.407C227.219 139.624 226.044 139.624 225.261 140.016C224.478 140.799 224.087 141.973 224.87 142.756Z" fill="white"/>
<path d="M240.132 152.153C240.915 152.936 242.089 152.936 242.872 152.544C243.655 151.761 243.655 150.587 243.263 149.804C242.48 149.021 241.306 149.021 240.523 149.413C239.349 150.196 239.349 151.37 240.132 152.153Z" fill="white"/>
<path d="M255.009 161.548C255.792 162.331 256.967 162.331 257.75 161.94C258.533 161.157 258.533 159.982 258.141 159.199C257.358 158.416 256.184 158.416 255.401 158.808C254.618 159.591 254.618 160.765 255.009 161.548Z" fill="white"/>
<path d="M270.287 171.335C271.07 172.118 272.244 172.118 273.027 171.726C273.81 170.943 273.81 169.769 273.419 168.986C272.636 168.203 271.461 168.203 270.678 168.594C269.504 168.986 269.504 170.16 270.287 171.335Z" fill="white"/>
<path d="M34.2224 44.886C35.0054 45.669 36.1797 45.669 36.9627 45.2775C37.7456 44.4946 37.7457 43.3201 37.3542 42.5371C36.5712 41.7542 35.3969 41.7542 34.6139 42.1457C33.8309 42.5372 33.4394 43.7116 34.2224 44.886Z" fill="white"/>
<path d="M49.4811 54.282C50.2641 55.065 51.4386 55.065 52.2215 54.6735C53.0045 53.8906 53.0044 52.7162 52.6129 51.9332C51.83 51.1503 50.6556 51.1502 49.8726 51.5417C49.0897 51.9332 48.6982 53.4991 49.4811 54.282Z" fill="white"/>
<path d="M64.36 63.6783C65.1429 64.4613 66.3174 64.4612 67.1004 64.0697C67.8833 63.6782 67.8834 62.1124 67.4919 61.3294C66.7089 60.5465 65.5344 60.5464 64.7515 60.9379C63.9685 61.7209 63.9685 62.8954 64.36 63.6783Z" fill="white"/>
<path d="M79.6238 73.0735C80.4067 73.8565 81.5811 73.8565 82.3641 73.465C83.147 72.6821 83.147 71.5076 82.7556 70.7246C81.9726 69.9417 80.7981 69.9416 80.0151 70.3331C78.8407 71.1161 78.8408 72.2906 79.6238 73.0735Z" fill="white"/>
<path d="M94.8991 82.4681C95.6821 83.251 96.8565 83.251 97.6394 82.8596C98.4224 82.0766 98.4224 80.9021 98.0309 80.1191C97.248 79.3362 96.0736 79.3362 95.2907 79.7276C94.1162 80.5106 94.1162 81.6851 94.8991 82.4681Z" fill="white"/>
<path d="M109.779 91.8641C110.562 92.647 111.736 92.647 112.519 92.2556C113.302 91.4726 113.302 90.2981 112.911 89.5151C112.128 88.7322 110.953 88.7323 110.17 89.1238C109.387 89.9067 108.996 91.0811 109.779 91.8641Z" fill="white"/>
<path d="M125.041 101.259C125.824 102.042 126.998 102.042 127.781 101.651C128.564 100.868 128.564 99.6935 128.173 98.9105C127.39 98.1276 126.215 98.1275 125.432 98.519C124.649 98.9105 124.258 100.476 125.041 101.259Z" fill="white"/>
<path d="M139.919 110.655C140.702 111.438 141.876 111.438 142.659 111.046C143.442 110.655 143.442 109.089 143.05 108.306C142.268 107.523 141.093 107.523 140.31 107.914C139.527 108.697 139.136 109.872 139.919 110.655Z" fill="white"/>
<path d="M155.182 120.051C155.965 120.834 157.14 120.834 157.923 120.442C158.706 120.051 158.706 118.485 158.314 117.702C157.531 116.919 156.357 116.919 155.574 117.31C154.399 118.093 154.399 119.268 155.182 120.051Z" fill="white"/>
<path d="M170.064 129.837C170.847 130.62 172.022 130.62 172.804 130.229C173.587 129.446 173.587 128.271 173.196 127.489C172.413 126.706 171.239 126.706 170.456 127.097C169.673 127.489 169.673 128.663 170.064 129.837Z" fill="white"/>
<path d="M185.324 139.233C186.107 140.016 187.281 140.016 188.064 139.625C188.847 138.842 188.847 137.667 188.456 136.885C187.673 136.102 186.498 136.102 185.715 136.493C184.541 136.885 184.541 138.45 185.324 139.233Z" fill="white"/>
<path d="M200.6 148.629C201.383 149.412 202.558 149.412 203.341 149.02C204.124 148.237 204.124 147.063 203.732 146.28C202.949 145.497 201.775 145.497 200.992 145.888C199.817 146.671 199.817 147.846 200.6 148.629Z" fill="white"/>
<path d="M215.481 158.025C216.264 158.808 217.439 158.808 218.221 158.416C219.004 157.633 219.004 156.459 218.613 155.676C217.83 154.893 216.656 154.893 215.873 155.285C215.09 156.068 214.698 157.242 215.481 158.025Z" fill="white"/>
<path d="M230.74 167.42C231.523 168.203 232.697 168.202 233.48 167.811C234.263 167.419 234.263 165.854 233.872 165.071C233.089 164.288 231.914 164.288 231.131 164.679C229.957 165.462 229.957 166.637 230.74 167.42Z" fill="white"/>
<path d="M245.62 176.815C246.403 177.598 247.577 177.598 248.36 177.207C249.143 176.424 249.143 175.25 248.752 174.467C247.969 173.684 246.794 173.684 246.011 174.075C245.228 174.858 245.228 176.033 245.62 176.815Z" fill="white"/>
<path d="M260.882 186.212C261.665 186.995 262.84 186.995 263.623 186.603C264.406 185.82 264.406 184.646 264.014 183.863C263.231 183.08 262.057 183.08 261.274 183.471C260.1 184.254 260.1 185.429 260.882 186.212Z" fill="white"/>
<path d="M24.8161 59.7621C25.5991 60.545 26.7735 60.5449 27.5564 60.1535C28.3394 59.3705 28.3394 58.1961 27.9479 57.4132C27.165 56.6302 25.9905 56.6302 25.2075 57.0217C24.4246 57.8046 24.0332 58.9791 24.8161 59.7621Z" fill="white"/>
<path d="M40.0925 69.1582C40.8755 69.9412 42.0498 69.9412 42.8328 69.5497C43.6158 68.7668 43.6158 67.5923 43.2243 66.8093C42.4413 66.0264 41.267 66.0263 40.484 66.4178C39.3096 67.2008 39.3095 68.3753 40.0925 69.1582Z" fill="white"/>
<path d="M54.9732 78.5545C55.7562 79.3374 56.9307 79.3375 57.7137 78.946C58.4966 78.163 58.4966 76.9885 58.1052 76.2056C57.3222 75.4226 56.1477 75.4226 55.3648 75.8141C54.5818 76.2055 54.5818 77.7715 54.9732 78.5545Z" fill="white"/>
<path d="M70.233 88.3399C71.016 89.1228 72.1905 89.1229 72.9734 88.7314C73.7564 87.9484 73.7564 86.7739 73.3649 85.991C72.582 85.208 71.4075 85.208 70.6245 85.5995C69.4501 85.9909 69.45 87.1654 70.233 88.3399Z" fill="white"/>
<path d="M85.113 97.7361C85.896 98.5191 87.0703 98.5191 87.8533 98.1276C88.6363 97.3447 88.6363 96.1702 88.2448 95.3872C87.4619 94.6042 86.2875 94.6043 85.5045 94.9958C84.7216 95.3873 84.7215 96.9532 85.113 97.7361Z" fill="white"/>
<path d="M100.375 107.133C101.158 107.916 102.332 107.916 103.115 107.525C103.898 106.742 103.898 105.568 103.506 104.785C102.724 104.002 101.549 104.002 100.766 104.393C99.9832 105.176 99.5917 106.35 100.375 107.133Z" fill="white"/>
<path d="M115.652 116.527C116.435 117.31 117.609 117.31 118.392 116.918C119.175 116.135 119.175 114.961 118.784 114.178C118.001 113.395 116.826 113.395 116.043 113.786C114.869 114.569 114.869 115.744 115.652 116.527Z" fill="white"/>
<path d="M130.514 125.923C131.297 126.706 132.472 126.706 133.255 126.314C134.038 125.531 134.038 124.357 133.646 123.574C132.863 122.791 131.689 122.791 130.906 123.182C130.123 123.574 129.731 125.14 130.514 125.923Z" fill="white"/>
<path d="M145.792 135.319C146.575 136.102 147.749 136.102 148.532 135.711C149.315 135.319 149.315 133.753 148.924 132.97C148.141 132.187 146.966 132.187 146.183 132.579C145.009 133.362 145.009 134.536 145.792 135.319Z" fill="white"/>
<path d="M160.671 144.713C161.453 145.496 162.628 145.496 163.411 145.105C164.194 144.713 164.194 143.147 163.802 142.365C163.019 141.582 161.845 141.582 161.062 141.973C160.279 142.756 160.279 143.93 160.671 144.713Z" fill="white"/>
<path d="M175.933 154.11C176.716 154.893 177.891 154.893 178.674 154.501C179.457 153.718 179.457 152.544 179.065 151.761C178.282 150.978 177.108 150.978 176.325 151.369C175.15 152.152 175.15 153.327 175.933 154.11Z" fill="white"/>
<path d="M190.812 163.505C191.595 164.288 192.77 164.288 193.553 163.896C194.335 163.113 194.336 161.939 193.944 161.156C193.161 160.373 191.987 160.373 191.204 160.765C190.421 161.548 190.421 162.722 190.812 163.505Z" fill="white"/>
<path d="M206.074 173.292C206.857 174.075 208.031 174.075 208.814 173.684C209.597 172.901 209.597 171.726 209.206 170.943C208.423 170.16 207.248 170.16 206.465 170.552C205.682 170.943 205.291 172.118 206.074 173.292Z" fill="white"/>
<path d="M221.353 182.689C222.136 183.471 223.311 183.472 224.094 183.08C224.877 182.297 224.877 181.123 224.485 180.34C223.702 179.557 222.528 179.557 221.745 179.948C220.57 180.34 220.57 181.906 221.353 182.689Z" fill="white"/>
<path d="M0.545586 65.6341C1.32855 66.4171 2.50304 66.417 3.286 66.0255C4.06897 65.6341 4.06887 64.0682 3.67739 63.2852C2.89443 62.5023 1.72005 62.5022 0.937091 62.8937C-0.237353 63.6767 -0.237377 64.8512 0.545586 65.6341Z" fill="white"/>
<path d="M15.4264 75.0313C16.2093 75.8143 17.3838 75.8143 18.1668 75.4228C18.9497 74.6398 18.9498 73.4653 18.5583 72.6824C17.7753 71.8994 16.6008 71.8994 15.8179 72.2909C15.0349 73.0738 14.6434 74.2483 15.4264 75.0313Z" fill="white"/>
<path d="M30.6892 84.4266C31.4721 85.2095 32.6465 85.2095 33.4295 84.8181C34.2124 84.0351 34.2125 82.8606 33.821 82.0776C33.038 81.2947 31.8635 81.2947 31.0806 81.6861C29.9061 82.4691 29.9062 83.6436 30.6892 84.4266Z" fill="white"/>
<path d="M45.5661 93.8208C46.3491 94.6038 47.5235 94.6038 48.3065 94.2123C49.0895 93.4294 49.0894 92.2549 48.6979 91.4719C47.9149 90.689 46.7406 90.6891 45.9576 91.0805C45.1746 91.8635 45.1746 93.0379 45.5661 93.8208Z" fill="white"/>
<path d="M60.8453 103.217C61.6283 104 62.8028 104 63.5857 103.609C64.3687 102.826 64.3687 101.651 63.9772 100.868C63.1943 100.085 62.0198 100.085 61.2368 100.477C60.0624 101.26 60.0624 102.434 60.8453 103.217Z" fill="white"/>
<path d="M75.7068 112.613C76.4897 113.396 77.6641 113.396 78.4471 113.005C79.23 112.613 79.23 111.047 78.8386 110.264C78.0556 109.482 76.8811 109.481 76.0981 109.873C75.3152 110.656 75.3153 111.83 75.7068 112.613Z" fill="white"/>
<path d="M60.7048 101.794C61.4878 102.577 62.6621 102.577 63.4451 102.186C64.2281 101.794 64.2281 100.228 63.8366 99.4454C63.0537 98.6624 61.8792 98.6624 61.0962 99.0539C60.3132 99.8368 60.3133 101.011 60.7048 101.794Z" fill="white"/>
<path d="M90.9841 122.009C91.7671 122.792 92.9414 122.792 93.7244 122.4C94.5074 122.009 94.5074 120.443 94.1159 119.66C93.3329 118.877 92.1586 118.877 91.3756 119.268C90.5927 120.051 90.2011 121.226 90.9841 122.009Z" fill="white"/>
<path d="M106.248 131.796C107.031 132.579 108.205 132.579 108.988 132.187C109.771 131.404 109.771 130.23 109.38 129.447C108.597 128.664 107.422 128.664 106.639 129.056C105.465 129.447 105.465 130.621 106.248 131.796Z" fill="white"/>
<path d="M121.126 141.19C121.909 141.973 123.083 141.973 123.866 141.582C124.649 140.799 124.649 139.624 124.258 138.841C123.475 138.058 122.3 138.058 121.517 138.45C120.734 138.841 120.343 140.407 121.126 141.19Z" fill="white"/>
<path d="M136.387 150.586C137.17 151.369 138.345 151.369 139.128 150.978C139.911 150.195 139.911 149.021 139.519 148.238C138.736 147.455 137.562 147.455 136.779 147.846C135.604 148.629 135.604 149.804 136.387 150.586Z" fill="white"/>
<path d="M151.268 159.982C152.051 160.765 153.226 160.765 154.009 160.373C154.792 159.59 154.792 158.416 154.4 157.633C153.617 156.85 152.443 156.85 151.66 157.241C150.877 158.024 150.877 159.199 151.268 159.982Z" fill="white"/>
<path d="M166.543 169.378C167.326 170.161 168.5 170.161 169.283 169.769C170.066 168.986 170.066 167.812 169.675 167.029C168.892 166.246 167.717 166.246 166.934 166.638C165.76 167.421 165.76 168.595 166.543 169.378Z" fill="white"/>
<path d="M181.408 178.772C182.191 179.555 183.365 179.555 184.148 179.164C184.931 178.381 184.931 177.206 184.54 176.423C183.757 175.64 182.582 175.64 181.799 176.032C181.016 176.815 181.016 177.989 181.408 178.772Z" fill="white"/>
<path d="M196.684 188.168C197.467 188.951 198.642 188.951 199.425 188.56C200.208 187.777 200.208 186.603 199.816 185.82C199.033 185.037 197.859 185.037 197.076 185.428C196.293 186.211 195.901 187.386 196.684 188.168Z" fill="white"/>
<path d="M21.2984 99.6929C22.0814 100.476 23.2559 100.476 24.0389 100.084C24.8218 99.6929 24.8218 98.127 24.4304 97.344C23.6474 96.561 22.4729 96.5611 21.6899 96.9526C20.5155 97.3441 20.5155 98.9099 21.2984 99.6929Z" fill="white"/>
<path d="M36.1775 109.089C36.9604 109.872 38.1348 109.872 38.9178 109.481C39.7007 108.698 39.7008 107.523 39.3093 106.74C38.5263 105.957 37.3519 105.957 36.569 106.349C35.786 107.132 35.3945 108.306 36.1775 109.089Z" fill="white"/>
<path d="M51.4401 118.484C52.2231 119.266 53.3976 119.266 54.1805 118.875C54.9635 118.092 54.9634 116.918 54.5719 116.135C53.789 115.352 52.6146 115.352 51.8316 115.743C50.6572 116.526 50.6572 117.701 51.4401 118.484Z" fill="white"/>
<path d="M66.3199 127.881C67.1029 128.664 68.2774 128.664 69.0603 128.272C69.8433 127.489 69.8433 126.315 69.4518 125.532C68.6689 124.749 67.4944 124.749 66.7114 125.14C65.9285 125.923 65.9284 127.098 66.3199 127.881Z" fill="white"/>
<path d="M81.5788 137.276C82.3618 138.059 83.5362 138.059 84.3191 137.667C85.1021 136.884 85.1021 135.71 84.7106 134.927C83.9277 134.144 82.7532 134.144 81.9702 134.536C80.7958 135.318 80.7959 136.493 81.5788 137.276Z" fill="white"/>
<path d="M96.8562 146.671C97.6391 147.454 98.8135 147.454 99.5965 147.063C100.379 146.28 100.379 145.105 99.988 144.322C99.205 143.539 98.0306 143.539 97.2477 143.931C96.0732 144.714 96.0732 145.888 96.8562 146.671Z" fill="white"/>
<path d="M111.736 156.067C112.519 156.85 113.693 156.85 114.476 156.459C115.259 155.676 115.259 154.502 114.868 153.719C114.085 152.936 112.91 152.936 112.127 153.327C111.344 154.11 110.953 155.284 111.736 156.067Z" fill="white"/>
<path d="M126.998 165.462C127.781 166.245 128.955 166.245 129.738 165.853C130.521 165.07 130.521 163.896 130.13 163.113C129.347 162.33 128.172 162.33 127.389 162.721C126.215 163.504 126.215 164.679 126.998 165.462Z" fill="white"/>
<path d="M141.88 175.249C142.663 176.032 143.837 176.032 144.62 175.641C145.403 174.858 145.403 173.683 145.011 172.9C144.228 172.117 143.054 172.117 142.271 172.509C141.488 172.9 141.097 174.075 141.88 175.249Z" fill="white"/>
<path d="M56.9283 143.147C57.7113 143.93 58.8858 143.93 59.6687 143.539C60.4517 142.756 60.4517 141.581 60.0602 140.798C59.2773 140.015 58.1028 140.015 57.3198 140.407C56.5369 140.798 56.5368 142.364 56.9283 143.147Z" fill="white"/>
<path d="M72.192 152.543C72.975 153.326 74.1494 153.326 74.9324 152.935C75.7154 152.152 75.7154 150.977 75.3239 150.194C74.541 149.411 73.3665 149.411 72.5835 149.803C71.4091 150.586 71.409 151.76 72.192 152.543Z" fill="white"/>
</svg>
