<svg width="128" height="291" viewBox="0 0 128 291" fill="none" xmlns="http://www.w3.org/2000/svg">
<path d="M119.491 13.6457C120.696 14.8503 122.503 14.8502 123.707 14.2479C124.912 13.0433 124.912 11.2365 124.309 10.0318C123.105 8.82723 121.298 8.82719 120.093 9.4295C118.286 10.0318 118.286 12.4411 119.491 13.6457Z" fill="white"/>
<path d="M105.042 36.5335C106.246 37.7381 108.053 37.7382 109.258 37.1359C110.463 35.9313 110.463 34.1243 109.86 32.9197C108.656 31.7151 106.849 31.715 105.644 32.3173C103.837 33.5219 103.837 35.3289 105.042 36.5335Z" fill="white"/>
<path d="M127.937 50.9882C129.142 52.1929 130.949 52.1929 132.153 51.5906C133.358 50.386 133.358 48.579 132.756 47.3744C131.551 46.1698 129.744 46.1699 128.54 46.7722C127.335 47.9768 127.335 49.7836 127.937 50.9882Z" fill="white"/>
<path d="M67.0926 45.5682C68.2972 46.7728 70.1042 46.7729 71.3088 46.1705C72.5134 44.9659 72.5133 43.1589 71.911 41.9543C70.7063 40.7497 68.8995 40.7497 67.6949 41.352C66.4903 42.5566 66.4903 44.3636 67.0926 45.5682Z" fill="white"/>
<path d="M90.5964 60.023C91.801 61.2277 93.608 61.2277 94.8126 60.6254C96.0172 60.0231 96.0172 57.6138 95.4149 56.4092C94.2103 55.2046 92.4033 55.2047 91.1987 55.807C89.3918 57.0116 89.3918 58.8184 90.5964 60.023Z" fill="white"/>
<path d="M113.468 74.4791C114.672 75.6837 116.479 75.6837 117.684 75.0814C118.888 73.8768 118.888 72.07 118.286 70.8654C117.081 69.6608 115.274 69.6608 114.07 70.2631C112.865 71.4677 112.865 73.2745 113.468 74.4791Z" fill="white"/>
<path d="M52.6512 69.0577C53.8559 70.2623 55.6627 70.2624 56.8673 69.6601C58.0719 68.4554 58.0719 66.6484 57.4696 65.4438C56.265 64.2392 54.4582 64.2394 53.2536 64.8417C52.049 65.444 51.4466 67.2508 52.6512 69.0577Z" fill="white"/>
<path d="M76.1277 83.5138C77.3324 84.7184 79.1393 84.7184 80.344 84.1161C81.5486 82.9115 81.5484 81.1047 80.9461 79.9001C79.7415 78.6955 77.9347 78.6954 76.7301 79.2977C75.5255 79.9 74.9231 82.3092 76.1277 83.5138Z" fill="white"/>
<path d="M99.0192 97.9686C100.224 99.1732 102.031 99.1731 103.235 98.5707C104.44 97.9684 104.44 95.5593 103.838 94.3547C102.633 93.1501 100.826 93.1501 99.6216 93.7524C98.417 94.957 98.4169 96.764 99.0192 97.9686Z" fill="white"/>
<path d="M122.503 112.425C123.707 113.629 125.514 113.629 126.719 113.027C127.923 111.822 127.923 110.015 127.321 108.811C126.117 107.606 124.31 107.606 123.105 108.208C121.298 109.413 121.298 111.22 122.503 112.425Z" fill="white"/>
<path d="M38.1796 91.9456C39.3842 93.1503 41.191 93.1501 42.3956 92.5478C43.6002 91.3432 43.6002 89.5364 42.9979 88.3318C41.7933 87.1272 39.9863 87.1271 38.7817 87.7294C37.5771 88.934 36.975 90.741 38.1796 91.9456Z" fill="white"/>
<path d="M61.6825 106.402C62.8871 107.606 64.6939 107.606 65.8985 107.004C67.1031 105.799 67.1032 103.992 66.5009 102.788C65.2963 101.583 63.4895 101.583 62.2848 102.185C60.4779 103.39 60.4779 105.197 61.6825 106.402Z" fill="white"/>
<path d="M84.5768 120.857C85.7815 122.061 87.5884 122.061 88.7931 121.459C89.9977 120.254 89.9977 118.447 89.3954 117.243C88.1908 116.038 86.3838 116.038 85.1792 116.64C83.9746 117.243 83.9745 119.652 84.5768 120.857Z" fill="white"/>
<path d="M108.054 135.914C109.259 137.119 111.066 137.119 112.271 136.516C113.475 135.312 113.475 133.505 112.873 132.3C111.668 131.096 109.861 131.096 108.657 131.698C106.85 132.3 106.85 134.107 108.054 135.914Z" fill="white"/>
<path d="M0.83868 100.98C2.04329 102.185 3.85028 102.185 5.05489 101.582C6.25951 100.98 6.25936 98.5709 5.65705 97.3663C4.45244 96.1617 2.64563 96.1617 1.44102 96.764C-0.365895 97.9686 -0.365932 99.7756 0.83868 100.98Z" fill="white"/>
<path d="M23.7331 115.436C24.9377 116.641 26.7447 116.641 27.9493 116.039C29.1539 114.834 29.154 113.027 28.5517 111.822C27.347 110.618 25.5401 110.618 24.3354 111.22C23.1308 112.425 22.5285 114.232 23.7331 115.436Z" fill="white"/>
<path d="M47.2147 129.891C48.4193 131.096 50.2261 131.096 51.4308 130.493C52.6354 129.289 52.6354 127.482 52.0331 126.277C50.8285 125.072 49.0215 125.072 47.8169 125.675C46.01 126.879 46.0101 128.686 47.2147 129.891Z" fill="white"/>
<path d="M70.1043 144.346C71.3089 145.55 73.1159 145.55 74.3205 144.948C75.5251 143.743 75.525 141.936 74.9227 140.732C73.7181 139.527 71.9113 139.527 70.7066 140.13C69.502 141.334 69.502 143.141 70.1043 144.346Z" fill="white"/>
<path d="M93.612 158.802C94.8166 160.006 96.6236 160.006 97.8282 159.404C99.0328 158.2 99.0329 156.393 98.4306 155.188C97.2259 153.984 95.419 153.984 94.2143 154.586C92.4074 155.79 92.4074 157.597 93.612 158.802Z" fill="white"/>
<path d="M116.475 173.257C117.68 174.461 119.487 174.461 120.691 173.859C121.896 173.257 121.896 170.848 121.294 169.643C120.089 168.438 118.282 168.438 117.078 169.041C115.873 170.245 115.873 172.052 116.475 173.257Z" fill="white"/>
<path d="M93.3934 156.611C94.598 157.816 96.4049 157.816 97.6095 157.213C98.8141 156.611 98.8141 154.202 98.2118 152.997C97.0072 151.793 95.2002 151.793 93.9956 152.395C92.791 153.599 92.7911 155.406 93.3934 156.611Z" fill="white"/>
<path d="M32.7673 153.38C33.9719 154.585 35.7789 154.585 36.9835 153.983C38.1881 153.38 38.1881 150.971 37.5858 149.766C36.3812 148.562 34.5742 148.562 33.3696 149.164C31.5627 149.766 31.5627 152.176 32.7673 153.38Z" fill="white"/>
<path d="M55.6591 167.837C56.8637 169.041 58.6705 169.041 59.8751 168.439C61.0797 167.234 61.0797 165.427 60.4774 164.223C59.2728 163.018 57.466 163.018 56.2614 163.62C55.0568 164.825 54.4544 166.632 55.6591 167.837Z" fill="white"/>
<path d="M79.1395 182.291C80.3441 183.496 82.1511 183.496 83.3557 182.894C84.5603 181.689 84.5601 179.882 83.9578 178.678C82.7532 177.473 80.9464 177.473 79.7418 178.075C77.9349 179.28 77.9348 181.087 79.1395 182.291Z" fill="white"/>
<path d="M102.033 196.747C103.238 197.952 105.045 197.952 106.249 197.35C107.454 196.145 107.454 194.338 106.851 193.134C105.647 191.929 103.84 191.929 102.635 192.531C101.431 193.736 101.431 195.543 102.033 196.747Z" fill="white"/>
<path d="M125.511 211.202C126.715 212.407 128.522 212.407 129.727 211.805C130.931 210.6 130.931 208.793 130.329 207.589C129.124 206.384 127.317 206.384 126.113 206.986C124.306 208.191 124.306 209.998 125.511 211.202Z" fill="white"/>
<path d="M87.5847 220.237C88.7893 221.442 90.5963 221.442 91.8009 220.839C93.0055 219.635 93.0055 217.828 92.4032 216.623C91.1986 215.418 89.3916 215.418 88.187 216.021C86.9824 216.623 86.9824 219.032 87.5847 220.237Z" fill="white"/>
<path d="M111.068 234.692C112.273 235.896 114.08 235.896 115.284 235.294C116.489 234.089 116.489 232.282 115.887 231.078C114.682 229.873 112.875 229.873 111.67 230.476C109.863 231.68 109.863 233.487 111.068 234.692Z" fill="white"/>
</svg>
