<svg width="640" height="112" viewBox="0 0 640 112" fill="none" xmlns="http://www.w3.org/2000/svg">
<mask id="mask0" mask-type="alpha" maskUnits="userSpaceOnUse" x="0" y="0" width="640" height="112">
<rect width="640" height="112" fill="white"/>
</mask>
<g mask="url(#mask0)">
<path d="M705.191 161.554C652.761 265.037 456.58 175.721 552.137 45.3391C647.694 -85.0425 625.161 141.187 698.733 59.0977C772.306 -22.9918 855.188 48.3122 835.499 108.222C815.81 168.132 757.621 58.0719 705.191 161.554Z" fill="#3DCD90"/>
<path d="M625.111 139.5C625.111 203.297 573.616 255 510.111 255C446.607 255 395.111 203.297 395.111 139.5C395.111 75.7031 446.607 24 510.111 24C573.616 24 625.111 75.7031 625.111 139.5Z" stroke="#6332CD" stroke-width="4"/>
<circle r="16.5" transform="matrix(1 0 0 -1 636.611 55.5)" stroke="#6332CD" stroke-width="4"/>
<path d="M-215 87.9341C-215 87.9341 -103.335 100.689 85.1804 98.5231C273.695 96.3571 366.679 57.4163 470.702 77.9697C574.725 98.5232 804 87.9341 804 87.9341V112H-215V87.9341Z" fill="#FFE9B9"/>
<path d="M-214.889 78.929C-214.889 78.929 -103.223 91.9598 85.2918 89.747C273.807 87.5342 317.114 29.3443 472.936 54.1366C628.758 78.9289 804.111 78.929 804.111 78.929" stroke="#FFE9B9"/>
</g>
</svg>
