<svg width="1200" height="128" viewBox="0 0 1200 128" fill="none" xmlns="http://www.w3.org/2000/svg">
<mask id="mask0" mask-type="alpha" maskUnits="userSpaceOnUse" x="0" y="0" width="1200" height="128">
<rect width="1200" height="128" fill="#C4C4C4"/>
</mask>
<g mask="url(#mask0)">
<path d="M1083.59 186.914C1021.85 308.772 790.831 203.596 903.357 50.0629C1015.88 -103.471 989.348 162.931 1075.98 66.2646C1162.62 -30.4016 1260.22 53.5639 1237.04 124.112C1213.85 194.66 1145.33 65.0567 1083.59 186.914Z" fill="#3DCD90"/>
<circle cx="854" cy="161" r="136" stroke="#6332CD" stroke-width="4"/>
<path d="M0 99.1209C0 99.1209 131.5 114.427 353.5 111.828C575.5 109.229 685 62.4996 807.5 87.1637C930 111.828 1200 99.1209 1200 99.1209V128H0V99.1209Z" fill="#FFE9B9"/>
<path d="M0 89.1209C0 89.1209 131.5 104.427 353.5 101.828C575.5 99.2286 626.5 30.8792 810 60C993.5 89.1209 1200 89.1209 1200 89.1209" stroke="#FFE9B9"/>
</g>
</svg>
