<svg width="320" height="56" viewBox="0 0 320 56" fill="none" xmlns="http://www.w3.org/2000/svg">
<mask id="mask0" mask-type="alpha" maskUnits="userSpaceOnUse" x="0" y="0" width="320" height="56">
<rect width="320" height="56" fill="#C4C4C4"/>
</mask>
<g mask="url(#mask0)">
<path d="M328.807 95.462C297.057 158.128 178.255 104.041 236.122 25.0853C293.989 -53.8703 280.343 83.1283 324.897 33.4171C369.45 -16.2941 419.641 26.8857 407.718 63.1656C395.795 99.4455 360.557 32.7959 328.807 95.462Z" fill="#3DCD90"/>
<path d="M280 82.3623C280 120.759 249.094 151.862 211 151.862C172.906 151.862 142 120.759 142 82.3623C142 43.9653 172.906 12.8623 211 12.8623C249.094 12.8623 280 43.9653 280 82.3623Z" stroke="#6332CD" stroke-width="4"/>
<circle r="9.5" transform="matrix(1 0 0 -1 287.5 13.3623)" stroke="#6332CD" stroke-width="4"/>
<path d="M0 39.1806C14.0218 37.5301 64.4712 17.8524 135.734 32.217C206.997 46.5815 321 39.1806 321 39.1806V56H0V39.1806Z" fill="#FFE9B9"/>
<path d="M-334 33.6198C-334 33.6198 -250.945 48.4753 -122 47.0001C6.94499 45.5249 26 3.00028 132 22.5005C238 42.0008 320.5 30.4998 320.5 30.4998" stroke="#FFE9B9"/>
</g>
</svg>
