<svg width="1392" height="837" viewBox="0 0 1392 837" fill="none" xmlns="http://www.w3.org/2000/svg">
<path d="M812.019 699.418C715.857 679.258 835.525 630.402 947.874 641.723C1058.74 652.894 1139.24 695.803 1039.61 704.758C902.515 717.082 869.46 711.461 812.019 699.418Z" fill="#F39681"/>
<path d="M1071.29 185.776C1135.12 211.571 1076.28 228.915 998.497 226.691C937.497 224.155 891.965 222.84 692.063 204.837C592.984 195.914 629.964 156.256 843.677 142.246C971.901 133.839 995.302 155.068 1071.29 185.776Z" fill="#3DCD90"/>
<path d="M709.501 696.463C853.502 722.463 713.4 620.087 617.763 619.105C542.722 619.308 552.379 622.895 306.001 635.463C183.887 641.693 259.001 715.43 423.583 715.43C581.525 715.43 610.364 678.563 709.501 696.463Z" fill="#3DCD90"/>
<path d="M253.7 604.773C291.428 712.002 447.428 609.502 535.428 644.502C636.021 684.511 864.843 623.127 827.928 586.002C791.518 549.385 606.694 529.638 563.319 515.178C457.49 479.897 412.458 421.038 346.628 440.503C280.798 459.968 222.678 516.601 253.7 604.773Z" fill="#3DCD90"/>
<path d="M392.501 196.963C369.001 173.963 468.928 144.502 571.428 144.502C646.428 144.502 667.414 162.002 731.428 162.002C786.018 162.002 810.442 150.857 853.501 169.463C894.001 186.963 893.613 206.002 908.928 248.502C924.027 290.405 1032.37 266.095 1040.5 302.463C1048.63 338.831 942.216 362.823 900.403 357.289C821.422 346.835 786.605 381.936 766.338 389.577C749.787 395.817 641.928 429.002 653.928 389.577C662.748 360.599 632.428 350.756 589.428 345.502C523.421 337.438 392.852 355.323 379.928 315.002C365.99 271.519 551.928 300.064 551.928 252.002C551.928 203.94 410.253 214.338 392.501 196.963Z" fill="#FFE9B9"/>
<path d="M460.747 516.963C437.247 493.963 534.247 475.963 636.747 475.963C711.747 475.963 732.733 493.463 796.747 493.463C851.337 493.463 874.437 485.746 918.82 500.924C965.722 516.963 958.932 537.463 974.247 579.963C989.346 621.866 1097.69 597.556 1105.82 633.924C1113.95 670.292 1032.5 673.463 991.501 680.963C913.132 695.299 851.924 713.397 831.657 721.038C815.106 727.278 707.247 760.463 719.247 721.038C728.067 692.06 697.747 682.217 654.747 676.963C588.741 668.899 458.171 686.784 445.247 646.463C431.309 602.98 617.247 631.525 617.247 583.463C617.247 535.401 478.499 534.338 460.747 516.963Z" fill="#FFE9B9"/>
<path d="M417.573 389.33C388.757 366.479 445.548 342.308 460.001 338.463C485.47 331.688 524.482 343.617 560.052 331.963C590.386 322.025 618.79 312.733 648.001 317.963C692.001 325.842 707.626 362.009 726.001 389.33C744.117 416.267 672.042 378.178 685.001 402.463C697.96 426.748 703.52 431.772 679.001 435.463C632.688 442.436 632.003 471.61 622.515 480.713C614.766 488.147 562.535 531.294 560.052 501.178C558.227 479.043 542.935 472.408 517.822 476.515C479.272 482.818 413.093 518.532 396.553 492.319C378.715 464.05 490.587 457.244 479.431 423.194C468.276 389.145 430.874 399.878 417.573 389.33Z" fill="#3DCD90"/>
<path d="M1187.62 169.745C1464.62 213.441 1156.03 285.334 1194.86 339.85C1202.29 347.472 1204.14 350.135 1197 342.463C1196.19 341.597 1195.48 340.726 1194.86 339.85C1174.2 318.664 1110.44 259.165 1077.06 276.864C1031.66 300.932 898.784 276.241 858.737 268.076C798.483 255.791 840.318 114.959 1187.62 169.745Z" fill="#F39681"/>
<path d="M607.001 219.463C657.809 236.811 605.001 277.964 556.501 277.963C496.501 277.963 371.254 292.398 370.5 354.964C369.612 428.694 321.895 300.229 297.926 302.464C227.204 309.056 295.817 354.6 297.926 418.779C299.858 477.539 284.649 454.672 237.426 438.396C190.203 422.119 124.214 451.498 183.927 403.269C275.426 329.367 186.156 367.425 171.427 306.558C158.611 253.598 112.455 256.788 92.0005 219.463C83.0005 203.041 102.732 188.176 194.5 160.463C265.5 139.023 341.213 158.697 399.428 181.503C496.428 219.503 543.49 197.779 607.001 219.463Z" fill="#F39681"/>
<path opacity="0.95" d="M381.154 394.769C398.886 400.017 418.951 391.763 431.303 380.219C449.483 363.088 451.996 337.823 446.135 316.349C441.248 298.156 429.639 281.739 414.106 269.084C395.358 253.739 369.784 243.534 343.353 248.815C323.677 252.738 302.688 264.63 299.679 283.429C298.938 287.892 299.41 292.471 300.584 296.787C303.051 305.41 307.6 312.928 315.266 318.739" stroke="#3DCD90" stroke-width="4" stroke-miterlimit="10"/>
<path d="M621.123 419.607C616.101 395.506 563.987 382.279 540.31 370.711C503.718 353.037 452.777 363.32 420.491 339.54C401.119 325.08 382.808 303.24 373.839 282.031C361.082 262.988 351.269 255.604 330.381 237.255C309.933 224.08 283.027 216.368 257.557 218.296C241.055 219.581 225.27 224.723 212.355 235.006C184.732 256.857 189.631 266.991 165.806 294.467C141.982 321.944 106.498 326.044 78.8748 339.54C51.9693 352.394 29.1056 367.176 31.6168 394.49C36.9979 454.26 127.4 477.718 180.494 490.251C226.054 500.855 273.049 508.889 314.663 528.491C338.339 539.738 359.864 554.841 383.182 567.052C412.957 582.798 458.876 582.477 471.073 546.807C471.073 546.807 471.073 546.807 471.073 546.486C475.378 533.311 485.009 532.426 499 526.963C508.327 523.107 518.068 509.531 527.036 505.675C539.951 500.212 552.148 493.143 562.552 484.466C583 472.255 625.428 441.458 621.123 419.607Z" fill="#3DCD90"/>
<path d="M1286 623.963C1267.59 644.463 1246.87 644.677 1212.24 650.463C1189.59 654.249 1175.56 666.076 1156 684.087C1134.37 704.007 1130 724.463 1089 720.463C1048 716.463 1097.11 662.087 964.112 684.087C915.288 692.163 857.061 620.497 921.064 586.362C981.629 554.062 1057.29 568.899 1084.22 531.091C1111.15 493.283 1062.69 466.256 1092.71 430.958C1111.42 408.95 1184.81 444.339 1212.24 478.099C1239.68 511.858 1221.61 507.699 1257.46 537.078C1293.31 566.458 1320.86 585.155 1286 623.963Z" fill="#FFE9B9"/>
<path d="M974.429 392.502C1000.77 528.658 780.156 458.578 741.536 483.561C701.386 509.206 721.284 533.058 673.275 561.929C644.055 584.308 621.496 586.875 602.239 610.305C573.318 645.222 510.009 668.574 476.009 666.074C431.534 660.137 415.18 629.416 438.198 591.531C455.079 563.282 480.792 558.335 491.009 532.574C496.848 517.853 509.285 462.81 483.969 451.712C461.778 441.984 440.373 433.014 412.65 423.247C378.497 411.215 345.275 390.238 376.613 356.875C408.485 323.442 422.643 313.598 470.429 320.002C518.929 326.502 542.231 370.984 650.296 375.847C705.615 375.847 969.075 364.824 974.429 392.502Z" fill="#F39681"/>
<path d="M631.569 565.238C631.386 565.243 631.021 565.255 630.839 565.26C614.094 565.963 596.214 565.808 578.926 559.209C561.524 552.524 544.971 538.584 539.771 521.879C534.75 505.883 540.761 490.612 550.28 479.426C559.912 468.326 572.785 460.248 583.824 450.354C591.557 443.418 598.294 435.443 604.124 426.782C610.047 417.762 613.795 403.365 626.402 400.829C649.15 396.19 665.442 421.562 678.104 437.587C702.299 468.067 760.053 510.259 752.627 548.867C748.396 570.508 725.841 577.015 702.52 568.73C677.676 559.869 654.978 563.97 631.569 565.238Z" stroke="#3DCD90" stroke-width="4" stroke-miterlimit="10"/>
<path d="M796.001 374.463C746.812 372.004 778.502 332.363 859.465 314.65C902.063 305.33 959.126 310.353 1005.98 289.163C1052.84 267.972 1004.84 231.963 1066 231.963C1096 231.963 1152.5 258.963 1163 286.463C1179.71 330.213 1199.36 346.693 1222.5 354.963C1289.11 378.763 1309.97 405.022 1289 423.963C1259.76 450.373 1175.49 417.668 1171.51 446.486C1168.29 469.834 1240.65 530.804 1192.76 515.758C1164.18 506.778 1139.28 498.189 1112.84 501.146C1086.4 504.104 1074.9 527.094 1027.93 539.731C980.953 552.368 1000.01 507.482 991.428 479.002C973.662 420.018 866.001 377.963 796.001 374.463Z" fill="#3DCD90"/>
<path d="M1052 654.964C1012.04 654.73 944.573 649.924 908.501 636.963C889.849 630.262 838.001 609.963 763.001 609.963C691.001 609.963 607.002 667.464 577.501 624.964C548 582.464 685.232 609.963 646.501 484.885C631.931 437.833 756.515 429.963 823.501 495.963C890.487 561.963 846.418 519.964 951.001 519.964C1011.54 519.964 1024.41 480.364 1084.81 484.885C1130.39 488.297 1189.81 497.699 1170.82 546.722C1151.83 595.746 1128.44 555.088 1134 613.464C1136 634.463 1088.68 655.178 1052 654.964Z" fill="#3DCD90"/>
<path d="M1328.33 592.463C1327.86 605.423 1284 616.963 1256 598.963C1216.71 573.704 1144.5 632.463 1131 606.463C1102.06 550.725 1028 578.963 1028 578.963C1028 578.963 946.501 589.463 881.502 557.464C826.968 530.616 863.001 494.963 717.002 434.463C688.186 422.522 894.192 386.603 969.928 443.002C1016.93 478.002 1073.9 481.481 1131 448.963C1167 428.463 1179.11 422.739 1218.98 415.231C1258.85 407.722 1329.72 425.737 1359 452.463C1410.5 499.463 1355.35 504.596 1328.33 521.479C1273.37 555.83 1329.9 549.263 1328.33 592.463Z" fill="#F39681"/>
<path d="M1173.71 637.187C1173.52 637.301 1173.14 637.528 1172.95 637.641C1155.7 648.17 1136.49 658.807 1112.32 664.778C1087.95 670.76 1058.2 671.379 1038.15 663.328C1018.91 655.644 1012.06 641.818 1012.51 628.618C1013.15 615.406 1019.87 602.27 1023.06 589.021C1025.29 579.736 1025.55 570.354 1024.25 561.059C1022.74 551.466 1023.25 536.733 1034.5 527.463C1054.74 510.696 1085.13 520.732 1112.55 523.845C1164.81 529.7 1263.04 523.229 1288.63 553.516C1302.91 570.533 1284.49 588.435 1252.43 596.902C1218.23 605.899 1197.58 622.278 1173.71 637.187Z" stroke="#FFE9B9" stroke-width="4" stroke-miterlimit="10"/>
<path d="M1254.69 329.031C1215.23 318.645 1257.62 284.792 1302.61 289.187C1347 293.524 1382.4 318.685 1344.23 326.804C1291.7 337.977 1278.26 335.234 1254.69 329.031Z" fill="#F39681"/>
<path d="M493.68 557.414C475.501 582.463 445.126 587.179 369.501 594.963C335.501 598.463 312.052 609.778 292.373 628.926C270.609 650.103 248.501 662.383 203.68 658.5C158.858 654.617 188.02 618.33 64.9298 611.528C15.6936 608.807 18.7197 570.184 84.4298 536.528C145.93 505.028 182.334 529.486 209.501 489.362C232.86 454.862 148.732 427.097 190.679 403.414C211.934 391.414 319.717 391.634 346.965 427.205C374.212 462.775 356.159 458.466 391.851 489.362C427.544 520.258 525.466 513.615 493.68 557.414Z" fill="#FFE9B9"/>
<path d="M135.268 291.221C136.646 301.192 126.705 302.725 109.949 305.041C99.6948 306.458 72.7525 299.699 71.3748 289.728C69.997 279.757 87.8828 273.087 98.137 271.67C119.424 270.075 133.89 281.25 135.268 291.221Z" fill="#F39681"/>
<path d="M850.083 661.275C853.158 670.539 840.874 675.881 823.025 680.701C811.243 683.883 779.442 684.557 776.367 675.293C773.293 666.029 792.869 655.283 804.453 651.438C828.7 644.754 847.009 652.011 850.083 661.275Z" fill="#3DCD90"/>
<path d="M469.632 367.714C470.479 368.627 471.748 368.627 472.595 368.17C473.441 367.257 473.441 365.887 473.018 364.974C472.172 364.06 470.902 364.06 470.056 364.517C468.786 364.974 468.786 366.8 469.632 367.714Z" fill="white"/>
<path d="M484.938 377.638C485.851 378.551 487.222 378.551 488.135 378.095C489.048 377.181 489.048 375.811 488.592 374.898C487.678 373.985 486.308 373.985 485.395 374.441C484.481 375.355 484.481 376.725 484.938 377.638Z" fill="white"/>
<path d="M502.244 388.271C503.09 389.185 504.36 389.185 505.206 388.728C506.052 387.815 506.052 386.444 505.629 385.531C504.783 384.618 503.513 384.618 502.667 385.074C501.397 385.988 501.397 387.358 502.244 388.271Z" fill="white"/>
<path d="M634.098 471.214C634.945 472.127 636.214 472.127 637.061 471.67C637.907 470.757 637.907 469.387 637.484 468.474C636.637 467.56 635.368 467.56 634.521 468.017C633.252 468.93 633.252 470.3 634.098 471.214Z" fill="white"/>
<path d="M650.29 481.138C651.162 482.052 652.472 482.052 653.344 481.595C654.217 480.682 654.217 479.312 653.781 478.398C652.908 477.485 651.599 477.485 650.726 477.942C649.853 478.398 649.417 480.225 650.29 481.138Z" fill="white"/>
<path d="M667.304 491.771C668.177 492.685 669.486 492.685 670.359 492.228C671.232 491.315 671.232 489.945 670.795 489.031C669.923 488.118 668.613 488.118 667.741 488.575C666.868 489.031 666.432 490.858 667.304 491.771Z" fill="white"/>
<path d="M426.388 363.46C427.235 364.374 428.504 364.373 429.351 363.917C430.197 363.003 430.197 361.633 429.774 360.72C428.927 359.807 427.658 359.807 426.811 360.263C425.542 361.177 425.542 362.547 426.388 363.46Z" fill="white"/>
<path d="M442.581 373.384C443.453 374.298 444.763 374.298 445.635 373.841C446.508 372.928 446.508 371.558 446.072 370.644C445.199 369.731 443.89 369.731 443.017 370.188C442.144 371.101 441.708 372.471 442.581 373.384Z" fill="white"/>
<path d="M459 384.018C459.846 384.931 461.115 384.931 461.962 384.474C462.808 383.561 462.808 382.191 462.385 381.277C461.539 380.364 460.269 380.364 459.423 380.821C458.153 381.734 458.153 383.104 459 384.018Z" fill="white"/>
<path d="M475.013 393.942C475.927 394.855 477.297 394.855 478.21 394.399C479.124 393.485 479.123 392.115 478.667 391.202C477.753 390.289 476.383 390.289 475.47 390.745C474.557 391.659 474.557 393.029 475.013 393.942Z" fill="white"/>
<path d="M492.317 404.577C493.163 405.49 494.433 405.49 495.279 405.034C496.126 404.12 496.126 402.75 495.703 401.837C494.856 400.924 493.587 400.924 492.74 401.38C491.471 402.294 491.471 403.664 492.317 404.577Z" fill="white"/>
<path d="M507.624 415.21C508.537 416.123 509.907 416.124 510.82 415.667C511.734 414.753 511.734 413.383 511.277 412.47C510.364 411.557 508.994 411.557 508.08 412.013C507.167 412.47 507.167 414.297 507.624 415.21Z" fill="white"/>
<path d="M524.813 425.135C525.686 426.048 526.995 426.048 527.868 425.591C528.741 424.678 528.741 423.308 528.304 422.395C527.431 421.481 526.122 421.481 525.25 421.938C524.377 422.851 523.94 424.221 524.813 425.135Z" fill="white"/>
<path d="M541.232 435.768C542.078 436.681 543.348 436.681 544.194 436.224C545.041 435.311 545.041 433.941 544.617 433.027C543.771 432.114 542.502 432.114 541.655 432.571C540.386 433.484 540.386 434.854 541.232 435.768Z" fill="white"/>
<path d="M557.423 445.692C558.296 446.605 559.605 446.605 560.478 446.149C561.351 445.235 561.351 443.865 560.915 442.952C560.042 442.039 558.733 442.039 557.86 442.495C556.987 443.409 556.551 444.779 557.423 445.692Z" fill="white"/>
<path d="M574.435 456.327C575.308 457.241 576.617 457.241 577.49 456.784C578.363 455.871 578.363 454.501 577.926 453.587C577.053 452.674 575.744 452.674 574.872 453.131C573.999 453.587 573.562 455.414 574.435 456.327Z" fill="white"/>
<path d="M590.566 466.96C591.479 467.874 592.85 467.874 593.763 467.417C594.676 466.504 594.676 465.134 594.22 464.22C593.306 463.307 591.936 463.307 591.023 463.764C590.109 464.22 590.109 466.047 590.566 466.96Z" fill="white"/>
<path d="M607.16 476.885C608.006 477.798 609.276 477.798 610.122 477.341C610.968 476.885 610.968 475.058 610.545 474.145C609.699 473.231 608.429 473.231 607.583 473.688C606.313 474.601 606.313 475.971 607.16 476.885Z" fill="white"/>
<path d="M623.175 487.518C624.088 488.431 625.458 488.431 626.371 487.974C627.285 487.061 627.285 485.691 626.828 484.778C625.915 483.864 624.544 483.864 623.631 484.321C622.718 485.234 622.718 486.604 623.175 487.518Z" fill="white"/>
<path d="M640.364 497.442C641.237 498.355 642.546 498.355 643.419 497.899C644.291 496.985 644.291 495.615 643.855 494.702C642.982 493.789 641.673 493.789 640.8 494.245C639.928 495.159 639.491 496.529 640.364 497.442Z" fill="white"/>
<path d="M656.67 508.077C657.542 508.991 658.852 508.991 659.724 508.534C660.597 507.621 660.597 506.251 660.161 505.337C659.288 504.424 657.979 504.424 657.106 504.881C656.233 505.337 655.797 507.164 656.67 508.077Z" fill="white"/>
<path d="M672.974 518.71C673.847 519.623 675.156 519.624 676.029 519.167C676.902 518.253 676.902 516.883 676.465 515.97C675.593 515.057 674.283 515.057 673.411 515.513C672.538 515.97 672.101 517.797 672.974 518.71Z" fill="white"/>
<path d="M399.451 369.84C400.297 370.753 401.567 370.753 402.413 370.296C403.259 369.383 403.259 368.013 402.836 367.099C401.99 366.186 400.72 366.186 399.874 366.643C398.604 367.099 398.604 368.926 399.451 369.84Z" fill="white"/>
<path d="M415.757 379.764C416.604 380.677 417.873 380.677 418.72 380.221C419.566 379.307 419.566 377.937 419.143 377.024C418.297 376.11 417.027 376.11 416.181 376.567C414.911 377.48 414.911 378.85 415.757 379.764Z" fill="white"/>
<path d="M431.947 390.399C432.82 391.312 434.129 391.312 435.002 390.856C435.874 389.942 435.874 388.572 435.438 387.659C434.565 386.746 433.256 386.746 432.383 387.202C431.511 388.116 431.074 389.486 431.947 390.399Z" fill="white"/>
<path d="M449.075 400.323C449.921 401.237 451.191 401.237 452.037 400.78C452.883 399.867 452.884 398.497 452.46 397.583C451.614 396.67 450.344 396.67 449.498 397.127C448.228 398.04 448.228 399.41 449.075 400.323Z" fill="white"/>
<path d="M465.264 410.956C466.137 411.87 467.446 411.87 468.319 411.413C469.192 410.5 469.192 409.13 468.755 408.216C467.883 407.303 466.573 407.303 465.701 407.76C464.828 408.673 464.392 410.043 465.264 410.956Z" fill="white"/>
<path d="M481.683 420.881C482.53 421.794 483.799 421.794 484.646 421.338C485.492 420.424 485.492 419.054 485.069 418.141C484.222 417.228 482.953 417.228 482.106 417.684C480.837 418.598 480.837 419.968 481.683 420.881Z" fill="white"/>
<path d="M497.7 431.514C498.613 432.427 499.983 432.427 500.897 431.971C501.81 431.057 501.81 429.687 501.353 428.774C500.44 427.861 499.07 427.861 498.157 428.317C497.243 428.774 497.243 430.601 497.7 431.514Z" fill="white"/>
<path d="M514.294 441.438C515.14 442.352 516.409 442.352 517.256 441.895C518.102 440.982 518.102 439.612 517.679 438.698C516.833 437.785 515.563 437.785 514.717 438.242C513.447 439.155 513.447 440.525 514.294 441.438Z" fill="white"/>
<path d="M531.307 452.074C532.154 452.987 533.423 452.987 534.27 452.53C535.116 452.074 535.116 450.247 534.693 449.333C533.846 448.42 532.577 448.42 531.73 448.877C530.461 449.79 530.461 451.16 531.307 452.074Z" fill="white"/>
<path d="M547.498 462.706C548.37 463.62 549.68 463.62 550.552 463.163C551.425 462.25 551.425 460.88 550.989 459.966C550.116 459.053 548.807 459.053 547.934 459.51C547.061 459.966 546.625 461.793 547.498 462.706Z" fill="white"/>
<path d="M563.917 473.339C564.764 474.253 566.033 474.253 566.88 473.796C567.726 472.883 567.726 471.513 567.303 470.599C566.457 469.686 565.187 469.686 564.341 470.143C563.071 471.056 563.071 472.426 563.917 473.339Z" fill="white"/>
<path d="M579.932 483.264C580.846 484.177 582.216 484.177 583.129 483.72C584.042 482.807 584.042 481.437 583.586 480.524C582.672 479.61 581.302 479.61 580.389 480.067C579.476 480.524 579.476 482.351 579.932 483.264Z" fill="white"/>
<path d="M597.122 493.899C597.994 494.813 599.304 494.813 600.176 494.356C601.049 493.443 601.049 492.073 600.613 491.159C599.74 490.246 598.431 490.246 597.558 490.703C596.685 491.159 596.249 492.986 597.122 493.899Z" fill="white"/>
<path d="M613.251 503.824C614.164 504.737 615.534 504.737 616.447 504.28C617.361 503.367 617.361 501.997 616.904 501.084C615.991 500.17 614.621 500.17 613.707 500.627C612.794 501.54 612.794 502.91 613.251 503.824Z" fill="white"/>
<path d="M629.844 514.457C630.691 515.37 631.96 515.37 632.807 514.913C633.653 514 633.653 512.63 633.23 511.717C632.383 510.803 631.114 510.803 630.267 511.26C628.998 512.173 628.998 513.543 629.844 514.457Z" fill="white"/>
<path d="M646.86 524.381C647.706 525.294 648.976 525.294 649.822 524.838C650.669 523.924 650.669 522.554 650.245 521.641C649.399 520.728 648.13 520.728 647.283 521.184C646.014 522.098 646.013 523.468 646.86 524.381Z" fill="white"/>
<path d="M663.05 535.014C663.923 535.928 665.232 535.927 666.105 535.471C666.978 534.557 666.978 533.187 666.541 532.274C665.669 531.361 664.36 531.361 663.487 531.817C662.614 532.731 662.178 534.101 663.05 535.014Z" fill="white"/>
<path d="M388.817 386.145C389.663 387.059 390.933 387.059 391.779 386.602C392.626 385.689 392.626 384.319 392.203 383.405C391.356 382.492 390.087 382.492 389.24 382.949C387.971 383.862 387.971 385.232 388.817 386.145Z" fill="white"/>
<path d="M404.833 396.07C405.746 396.983 407.116 396.983 408.029 396.527C408.943 395.613 408.943 394.243 408.486 393.33C407.573 392.416 406.203 392.417 405.289 392.873C404.376 393.787 404.376 395.157 404.833 396.07Z" fill="white"/>
<path d="M422.022 406.703C422.895 407.616 424.204 407.616 425.077 407.16C425.95 406.246 425.95 404.876 425.513 403.963C424.64 403.049 423.331 403.049 422.459 403.506C421.586 403.963 421.149 405.333 422.022 406.703Z" fill="white"/>
<path d="M438.441 417.336C439.287 418.249 440.557 418.249 441.403 417.793C442.25 416.879 442.25 415.509 441.827 414.596C440.98 413.682 439.711 413.682 438.864 414.139C437.595 414.596 437.595 416.422 438.441 417.336Z" fill="white"/>
<path d="M454.632 427.26C455.504 428.174 456.813 428.174 457.686 427.717C458.559 426.804 458.559 425.434 458.123 424.52C457.25 423.607 455.941 423.607 455.068 424.064C454.195 424.977 453.759 426.347 454.632 427.26Z" fill="white"/>
<path d="M471.758 437.895C472.605 438.809 473.874 438.809 474.721 438.352C475.567 437.439 475.567 436.069 475.144 435.155C474.297 434.242 473.028 434.242 472.182 434.699C470.912 435.612 470.912 436.982 471.758 437.895Z" fill="white"/>
<path d="M487.775 448.528C488.688 449.442 490.058 449.442 490.972 448.985C491.885 448.072 491.885 446.702 491.429 445.788C490.515 444.875 489.145 444.875 488.232 445.332C487.318 446.245 487.318 447.615 487.775 448.528Z" fill="white"/>
<path d="M504.255 458.453C505.128 459.366 506.437 459.366 507.31 458.91C508.183 457.996 508.183 456.626 507.747 455.713C506.874 454.8 505.565 454.8 504.692 455.256C503.819 455.713 503.383 457.54 504.255 458.453Z" fill="white"/>
<path d="M520.383 469.086C521.297 469.999 522.667 469.999 523.58 469.543C524.494 468.629 524.494 467.259 524.037 466.346C523.124 465.433 521.754 465.433 520.84 465.889C519.927 466.346 519.927 468.173 520.383 469.086Z" fill="white"/>
<path d="M536.864 479.01C537.737 479.924 539.046 479.924 539.919 479.467C540.791 479.01 540.791 477.184 540.355 476.27C539.482 475.357 538.173 475.357 537.3 475.814C536.428 476.727 535.991 478.097 536.864 479.01Z" fill="white"/>
<path d="M553.994 489.645C554.84 490.559 556.11 490.559 556.956 490.102C557.802 489.189 557.802 487.819 557.379 486.905C556.533 485.992 555.263 485.992 554.417 486.449C553.147 487.362 553.147 488.732 553.994 489.645Z" fill="white"/>
<path d="M570.183 500.278C571.056 501.192 572.365 501.192 573.238 500.735C574.111 499.822 574.111 498.452 573.674 497.538C572.802 496.625 571.492 496.625 570.62 497.082C569.747 497.538 569.311 498.908 570.183 500.278Z" fill="white"/>
<path d="M586.602 510.203C587.448 511.116 588.718 511.116 589.564 510.66C590.411 509.746 590.411 508.376 589.988 507.463C589.141 506.55 587.872 506.55 587.025 507.006C585.756 507.463 585.756 509.29 586.602 510.203Z" fill="white"/>
<path d="M602.617 520.836C603.53 521.749 604.9 521.749 605.814 521.293C606.727 520.379 606.727 519.009 606.27 518.096C605.357 517.183 603.987 517.183 603.074 517.639C602.16 518.096 602.16 519.923 602.617 520.836Z" fill="white"/>
<path d="M619.919 530.76C620.766 531.674 622.035 531.674 622.882 531.217C623.728 530.76 623.728 528.934 623.305 528.02C622.459 527.107 621.189 527.107 620.343 527.564C619.073 528.477 619.073 529.847 619.919 530.76Z" fill="white"/>
<path d="M635.936 541.396C636.85 542.309 638.22 542.309 639.133 541.852C640.046 541.396 640.046 539.569 639.59 538.656C639.133 537.742 637.306 537.742 636.393 538.199C635.48 539.112 635.479 540.482 635.936 541.396Z" fill="white"/>
<path d="M361.59 392.525C362.503 393.438 363.873 393.438 364.786 392.982C365.7 392.068 365.7 390.698 365.243 389.785C364.33 388.871 362.96 388.871 362.046 389.328C361.133 390.241 361.133 391.611 361.59 392.525Z" fill="white"/>
<path d="M378.892 402.449C379.738 403.363 381.008 403.363 381.854 402.906C382.701 402.449 382.701 400.623 382.278 399.709C381.431 398.796 380.162 398.796 379.315 399.253C378.046 400.166 378.046 401.536 378.892 402.449Z" fill="white"/>
<path d="M394.909 413.082C395.822 413.996 397.192 413.996 398.106 413.539C399.019 412.626 399.019 411.256 398.562 410.342C397.649 409.429 396.279 409.429 395.365 409.885C394.452 410.799 394.452 412.169 394.909 413.082Z" fill="white"/>
<path d="M411.389 423.009C412.262 423.922 413.571 423.922 414.444 423.466C415.317 422.552 415.317 421.182 414.88 420.269C414.008 419.356 412.698 419.355 411.826 419.812C410.953 420.726 410.517 422.096 411.389 423.009Z" fill="white"/>
<path d="M428.402 433.642C429.275 434.555 430.584 434.555 431.457 434.099C432.329 433.185 432.329 431.815 431.893 430.902C431.02 429.989 429.711 429.989 428.838 430.445C427.966 430.902 427.529 432.729 428.402 433.642Z" fill="white"/>
<path d="M444.707 443.566C445.579 444.48 446.889 444.48 447.761 444.023C448.634 443.11 448.634 441.74 448.198 440.826C447.325 439.913 446.016 439.913 445.143 440.37C444.27 440.826 443.834 442.653 444.707 443.566Z" fill="white"/>
<path d="M461.128 454.908C461.974 455.821 463.243 455.821 464.09 455.365C464.936 454.908 464.936 453.081 464.513 452.168C463.667 451.254 462.397 451.254 461.551 451.711C460.281 452.168 460.281 453.538 461.128 454.908Z" fill="white"/>
<path d="M477.141 464.832C478.055 465.746 479.425 465.746 480.338 465.289C481.252 464.376 481.251 463.005 480.795 462.092C479.881 461.179 478.511 461.179 477.598 461.635C476.685 462.092 476.685 463.919 477.141 464.832Z" fill="white"/>
<path d="M494.445 475.467C495.291 476.381 496.561 476.381 497.407 475.924C498.254 475.011 498.254 473.641 497.83 472.727C497.407 471.814 495.714 471.814 494.868 472.271C493.598 473.184 493.598 474.554 494.445 475.467Z" fill="white"/>
<path d="M509.75 485.392C510.663 486.305 512.033 486.305 512.946 485.848C513.86 484.935 513.86 483.565 513.403 482.652C512.49 481.738 511.12 481.738 510.206 482.195C509.293 483.108 509.293 484.478 509.75 485.392Z" fill="white"/>
<path d="M526.939 496.025C527.812 496.938 529.121 496.938 529.994 496.482C530.867 495.568 530.867 494.198 530.43 493.285C529.557 492.372 528.248 492.372 527.376 492.828C526.503 493.285 526.066 495.112 526.939 496.025Z" fill="white"/>
<path d="M543.36 505.949C544.206 506.863 545.476 506.863 546.322 506.406C547.169 505.949 547.169 504.123 546.745 503.209C545.899 502.296 544.63 502.296 543.783 502.753C542.514 503.666 542.513 505.036 543.36 505.949Z" fill="white"/>
<path d="M559.549 516.582C560.422 517.496 561.731 517.496 562.604 517.039C563.477 516.582 563.477 514.756 563.041 513.842C562.168 512.929 560.859 512.929 559.986 513.386C559.113 514.299 558.677 515.669 559.549 516.582Z" fill="white"/>
<path d="M576.677 526.509C577.524 527.422 578.793 527.422 579.64 526.966C580.486 526.052 580.486 524.682 580.063 523.769C579.216 522.855 577.947 522.855 577.1 523.312C575.831 524.226 575.831 525.596 576.677 526.509Z" fill="white"/>
<path d="M592.692 537.142C593.605 538.055 594.976 538.055 595.889 537.599C596.802 536.685 596.802 535.315 596.345 534.402C595.432 533.489 594.062 533.489 593.149 533.945C592.235 534.859 592.235 536.229 592.692 537.142Z" fill="white"/>
<path d="M609.288 547.775C610.134 548.689 611.404 548.688 612.25 548.232C613.096 547.318 613.096 545.948 612.673 545.035C611.827 544.122 610.557 544.122 609.711 544.578C608.441 545.035 608.441 546.405 609.288 547.775Z" fill="white"/>
<path d="M351.839 408.831C352.712 409.744 354.021 409.744 354.894 409.287C355.767 408.374 355.767 407.004 355.331 406.091C354.458 405.177 353.149 405.177 352.276 405.634C351.403 406.091 350.967 407.461 351.839 408.831Z" fill="white"/>
<path d="M368.144 419.464C369.017 420.377 370.326 420.377 371.199 419.92C372.072 419.007 372.072 417.637 371.635 416.724C370.762 415.81 369.453 415.81 368.581 416.267C367.708 416.724 367.271 418.55 368.144 419.464Z" fill="white"/>
<path d="M384.273 429.388C385.186 430.302 386.557 430.302 387.47 429.845C388.383 429.388 388.383 427.562 387.927 426.648C387.013 425.735 385.643 425.735 384.73 426.192C383.816 427.105 383.816 428.475 384.273 429.388Z" fill="white"/>
<path d="M401.578 440.021C402.424 440.935 403.694 440.935 404.54 440.478C405.386 439.565 405.386 438.194 404.963 437.281C404.117 436.368 402.847 436.368 402.001 436.824C400.731 437.738 400.731 439.108 401.578 440.021Z" fill="white"/>
<path d="M417.882 450.654C418.729 451.568 419.998 451.568 420.845 451.111C421.691 450.198 421.691 448.827 421.268 447.914C420.422 447.001 419.152 447.001 418.306 447.457C417.036 448.371 417.036 449.741 417.882 450.654Z" fill="white"/>
<path d="M434.073 460.581C434.946 461.494 436.255 461.494 437.128 461.038C438 460.124 438 458.754 437.564 457.841C436.691 456.927 435.382 456.928 434.509 457.384C433.637 458.298 433.2 459.668 434.073 460.581Z" fill="white"/>
<path d="M451.087 471.214C451.959 472.127 453.268 472.127 454.141 471.67C455.014 470.757 455.014 469.387 454.578 468.474C453.705 467.56 452.396 467.56 451.523 468.017C450.65 468.474 450.214 470.3 451.087 471.214Z" fill="white"/>
<path d="M467.392 481.138C468.265 482.052 469.574 482.052 470.447 481.595C471.32 481.138 471.32 479.312 470.883 478.398C470.011 477.485 468.701 477.485 467.829 477.942C466.956 478.855 466.519 480.225 467.392 481.138Z" fill="white"/>
<path d="M483.811 491.771C484.657 492.685 485.927 492.685 486.773 492.228C487.62 491.771 487.62 489.945 487.197 489.031C486.35 488.118 485.081 488.118 484.234 488.575C482.965 489.488 482.965 490.858 483.811 491.771Z" fill="white"/>
<path d="M499.826 502.404C500.739 503.318 502.109 503.318 503.023 502.861C503.936 501.948 503.936 500.577 503.479 499.664C502.566 498.751 501.196 498.751 500.283 499.207C499.369 499.664 499.369 501.034 499.826 502.404Z" fill="white"/>
<path d="M516.42 512.331C517.266 513.244 518.535 513.244 519.382 512.788C520.228 511.874 520.228 510.504 519.805 509.591C518.959 508.678 517.689 508.677 516.843 509.134C515.573 509.591 515.573 511.418 516.42 512.331Z" fill="white"/>
<path d="M533.433 522.964C534.28 523.877 535.549 523.877 536.395 523.42C537.242 522.507 537.242 521.137 536.819 520.224C535.972 519.31 534.703 519.31 533.856 519.767C532.587 520.68 532.587 522.05 533.433 522.964Z" fill="white"/>
<path d="M549.626 532.888C550.498 533.802 551.808 533.802 552.68 533.345C553.553 532.432 553.553 531.062 553.117 530.148C552.244 529.235 550.935 529.235 550.062 529.692C549.189 530.605 548.753 531.975 549.626 532.888Z" fill="white"/>
<path d="M566.043 543.521C566.89 544.435 568.159 544.435 569.006 543.978C569.852 543.521 569.852 541.695 569.429 540.781C568.583 539.868 567.313 539.868 566.467 540.325C565.197 541.238 565.197 542.608 566.043 543.521Z" fill="white"/>
<path d="M582.058 553.446C582.972 554.359 584.342 554.359 585.255 553.902C586.168 552.989 586.168 551.619 585.712 550.706C584.798 549.792 583.428 549.792 582.515 550.249C581.602 551.162 581.602 552.532 582.058 553.446Z" fill="white"/>
<path d="M599.362 564.081C600.208 564.994 601.478 564.994 602.324 564.538C603.171 563.624 603.171 562.254 602.747 561.341C601.901 560.428 600.631 560.427 599.785 560.884C598.515 561.798 598.515 563.168 599.362 564.081Z" fill="white"/>
<path d="M341.207 425.135C342.079 426.048 343.389 426.048 344.261 425.591C345.134 424.678 345.134 423.308 344.698 422.395C343.825 421.481 342.516 421.481 341.643 421.938C340.77 422.851 340.334 424.221 341.207 425.135Z" fill="white"/>
<path d="M358.334 435.768C359.181 436.681 360.45 436.681 361.297 436.224C362.143 435.311 362.143 433.941 361.72 433.028C360.874 432.114 359.604 432.114 358.758 432.571C357.488 433.484 357.488 434.854 358.334 435.768Z" fill="white"/>
<path d="M374.348 445.692C375.262 446.605 376.632 446.605 377.545 446.149C378.458 445.235 378.458 443.865 378.002 442.952C377.088 442.039 375.718 442.039 374.805 442.495C373.892 442.952 373.892 444.779 374.348 445.692Z" fill="white"/>
<path d="M390.945 457.036C391.791 457.949 393.061 457.949 393.907 457.493C394.754 456.579 394.754 455.209 394.33 454.296C393.484 453.382 392.214 453.382 391.368 453.839C390.098 454.296 390.098 455.666 390.945 457.036Z" fill="white"/>
<path d="M406.96 466.96C407.873 467.873 409.243 467.874 410.156 467.417C411.07 466.503 411.07 465.133 410.613 464.22C409.7 463.307 408.33 463.307 407.416 463.763C406.503 464.22 406.503 466.047 406.96 466.96Z" fill="white"/>
<path d="M424.148 477.593C425.021 478.507 426.33 478.507 427.203 478.05C428.076 477.136 428.075 475.767 427.639 474.853C426.766 473.94 425.457 473.94 424.584 474.396C423.712 475.31 423.275 476.68 424.148 477.593Z" fill="white"/>
<path d="M440.567 487.518C441.413 488.431 442.683 488.431 443.529 487.974C444.376 487.061 444.376 485.691 443.953 484.778C443.106 483.864 441.837 483.864 440.99 484.321C439.721 485.234 439.721 486.604 440.567 487.518Z" fill="white"/>
<path d="M456.759 498.153C457.632 499.066 458.941 499.066 459.814 498.609C460.687 497.696 460.687 496.326 460.25 495.413C459.378 494.499 458.068 494.499 457.196 494.956C456.323 495.413 455.887 497.239 456.759 498.153Z" fill="white"/>
<path d="M473.886 508.077C474.733 508.991 476.002 508.991 476.849 508.534C477.695 508.077 477.695 506.251 477.272 505.337C476.425 504.424 475.156 504.424 474.309 504.881C473.04 505.794 473.04 507.164 473.886 508.077Z" fill="white"/>
<path d="M489.901 518.71C490.814 519.624 492.184 519.624 493.098 519.167C494.011 518.71 494.011 516.884 493.555 515.97C492.641 515.057 491.271 515.057 490.358 515.514C489.444 516.427 489.444 517.797 489.901 518.71Z" fill="white"/>
<path d="M506.495 528.635C507.341 529.548 508.611 529.548 509.457 529.091C510.303 528.178 510.303 526.808 509.88 525.895C509.034 524.981 507.764 524.981 506.918 525.438C505.648 526.351 505.648 527.721 506.495 528.635Z" fill="white"/>
<path d="M522.509 539.268C523.423 540.181 524.793 540.181 525.706 539.724C526.62 538.811 526.62 537.441 526.163 536.528C525.25 535.614 523.88 535.614 522.966 536.071C522.053 536.984 522.053 538.354 522.509 539.268Z" fill="white"/>
<path d="M538.992 549.903C539.865 550.816 541.174 550.816 542.047 550.36C542.919 549.446 542.919 548.076 542.483 547.163C541.61 546.25 540.301 546.25 539.428 546.706C538.555 547.163 538.119 548.533 538.992 549.903Z" fill="white"/>
<path d="M556.119 560.536C556.965 561.449 558.235 561.449 559.081 560.993C559.927 560.079 559.927 558.709 559.504 557.796C558.658 556.882 557.388 556.882 556.542 557.339C555.272 557.796 555.272 559.622 556.119 560.536Z" fill="white"/>
<path d="M315.091 432.223C315.938 433.136 317.207 433.136 318.054 432.679C318.9 432.223 318.9 430.396 318.477 429.482C317.63 428.569 316.361 428.569 315.515 429.026C314.245 429.939 314.245 431.309 315.091 432.223Z" fill="white"/>
<path d="M331.282 442.149C332.155 443.062 333.464 443.062 334.337 442.606C335.209 441.692 335.209 440.322 334.773 439.409C333.9 438.496 332.591 438.496 331.718 438.952C330.846 439.866 330.409 441.236 331.282 442.149Z" fill="white"/>
<path d="M347.701 452.782C348.547 453.696 349.817 453.696 350.663 453.239C351.509 452.326 351.509 450.955 351.086 450.042C350.24 449.129 348.97 449.129 348.124 449.585C346.854 450.499 346.854 451.869 347.701 452.782Z" fill="white"/>
<path d="M363.716 462.706C364.63 463.62 366 463.62 366.913 463.163C367.827 462.25 367.827 460.88 367.37 459.966C366.457 459.053 365.087 459.053 364.173 459.51C363.26 460.423 363.26 461.793 363.716 462.706Z" fill="white"/>
<path d="M381.018 473.339C381.864 474.253 383.134 474.253 383.98 473.796C384.827 472.883 384.827 471.513 384.404 470.599C383.557 469.686 382.288 469.686 381.441 470.143C380.172 471.056 380.172 472.426 381.018 473.339Z" fill="white"/>
<path d="M397.034 483.264C397.947 484.178 399.317 484.177 400.231 483.721C401.144 483.264 401.144 481.437 400.687 480.524C399.774 479.611 398.404 479.611 397.49 480.067C396.577 480.981 396.577 482.351 397.034 483.264Z" fill="white"/>
<path d="M380.728 471.214C381.642 472.127 383.012 472.127 383.925 471.67C384.838 471.214 384.838 469.387 384.382 468.474C383.468 467.56 382.098 467.56 381.185 468.017C380.271 468.93 380.272 470.3 380.728 471.214Z" fill="white"/>
<path d="M413.514 493.899C414.387 494.813 415.696 494.813 416.569 494.356C417.442 493.899 417.442 492.073 417.005 491.159C416.133 490.246 414.823 490.246 413.951 490.703C413.078 491.616 412.642 492.986 413.514 493.899Z" fill="white"/>
<path d="M430.642 504.532C431.489 505.446 432.758 505.446 433.605 504.989C434.451 504.076 434.451 502.705 434.028 501.792C433.181 500.879 431.912 500.879 431.065 501.335C429.796 501.792 429.796 503.162 430.642 504.532Z" fill="white"/>
<path d="M446.834 514.457C447.706 515.37 449.016 515.37 449.888 514.913C450.761 514 450.761 512.63 450.325 511.717C449.452 510.803 448.143 510.803 447.27 511.26C446.397 511.717 445.961 513.543 446.834 514.457Z" fill="white"/>
<path d="M463.253 525.09C464.1 526.003 465.369 526.003 466.216 525.546C467.062 524.633 467.062 523.263 466.639 522.35C465.793 521.436 464.523 521.436 463.677 521.893C462.407 522.806 462.407 524.176 463.253 525.09Z" fill="white"/>
<path d="M479.267 535.014C480.181 535.927 481.551 535.927 482.464 535.471C483.377 534.557 483.377 533.187 482.921 532.274C482.007 531.361 480.637 531.361 479.724 531.817C478.811 532.731 478.811 534.101 479.267 535.014Z" fill="white"/>
<path d="M496.571 545.649C497.417 546.563 498.687 546.563 499.533 546.106C500.38 545.193 500.38 543.823 499.956 542.909C499.11 541.996 497.84 541.996 496.994 542.453C495.724 543.366 495.724 544.736 496.571 545.649Z" fill="white"/>
<path d="M511.878 555.574C512.791 556.487 514.161 556.487 515.074 556.03C515.988 555.117 515.988 553.747 515.531 552.834C514.618 551.92 513.248 551.92 512.334 552.377C511.421 553.29 511.421 554.66 511.878 555.574Z" fill="white"/>
<path d="M529.067 566.207C529.94 567.12 531.249 567.12 532.122 566.663C532.994 565.75 532.994 564.38 532.558 563.467C531.685 562.553 530.376 562.553 529.503 563.01C528.631 563.923 528.194 565.293 529.067 566.207Z" fill="white"/>
<path d="M337.776 469.086C338.622 469.999 339.892 469.999 340.738 469.543C341.585 469.086 341.585 467.259 341.161 466.346C340.315 465.433 339.045 465.433 338.199 465.889C336.93 466.346 336.93 468.173 337.776 469.086Z" fill="white"/>
<path d="M353.968 479.721C354.841 480.634 356.15 480.635 357.023 480.178C357.896 479.264 357.896 477.894 357.459 476.981C356.587 476.068 355.278 476.068 354.405 476.524C353.532 477.438 353.096 478.808 353.968 479.721Z" fill="white"/>
<path d="M370.387 489.646C371.234 490.559 372.503 490.559 373.35 490.102C374.196 489.189 374.196 487.819 373.773 486.906C372.926 485.992 371.657 485.992 370.81 486.449C369.541 487.362 369.541 488.732 370.387 489.646Z" fill="white"/>
<path d="M386.401 500.278C387.314 501.192 388.684 501.192 389.598 500.735C390.511 499.822 390.511 498.452 390.055 497.538C389.141 496.625 387.771 496.625 386.858 497.082C385.944 497.995 385.944 499.365 386.401 500.278Z" fill="white"/>
<path d="M403.705 510.203C404.551 511.116 405.821 511.116 406.667 510.66C407.513 509.746 407.513 508.376 407.09 507.463C406.244 506.55 404.974 506.55 404.128 507.006C402.858 507.92 402.858 509.29 403.705 510.203Z" fill="white"/>
<path d="M420.008 520.836C420.855 521.749 422.124 521.749 422.971 521.293C423.817 520.379 423.817 519.009 423.394 518.096C422.547 517.182 421.278 517.182 420.432 517.639C419.162 518.552 419.162 519.922 420.008 520.836Z" fill="white"/>
<path d="M436.201 530.76C437.074 531.674 438.383 531.674 439.255 531.217C440.128 530.304 440.128 528.934 439.692 528.02C438.819 527.107 437.51 527.107 436.637 527.564C435.764 528.477 435.328 529.847 436.201 530.76Z" fill="white"/>
<path d="M453.329 541.396C454.175 542.309 455.445 542.309 456.291 541.852C457.137 540.939 457.137 539.569 456.714 538.656C455.868 537.742 454.598 537.742 453.752 538.199C452.482 539.112 452.482 540.482 453.329 541.396Z" fill="white"/>
<path d="M469.518 552.029C470.391 552.942 471.7 552.942 472.573 552.485C473.446 551.572 473.446 550.202 473.009 549.288C472.136 548.375 470.827 548.375 469.955 548.832C469.082 549.288 468.645 550.658 469.518 552.029Z" fill="white"/>
<path d="M376.476 516.582C377.39 517.496 378.76 517.496 379.673 517.039C380.586 516.126 380.586 514.756 380.13 513.842C379.216 512.929 377.846 512.929 376.933 513.386C376.02 513.842 376.02 515.669 376.476 516.582Z" fill="white"/>
<path d="M393.071 527.217C393.917 528.131 395.187 528.131 396.033 527.674C396.88 526.761 396.88 525.391 396.456 524.477C395.61 523.564 394.34 523.564 393.494 524.021C392.224 524.934 392.224 526.304 393.071 527.217Z" fill="white"/>
<path d="M811.25 294.622C810.466 293.714 809.243 293.672 808.413 294.083C807.568 294.934 807.522 296.253 807.899 297.147C808.683 298.055 809.905 298.097 810.736 297.686C811.989 296.849 812.034 295.53 811.25 294.622Z" fill="white"/>
<path d="M795.991 284.524C795.181 283.616 793.921 283.572 793.065 283.982C792.194 284.832 792.148 286.152 792.538 287.046C793.348 287.954 794.608 287.998 795.464 287.588C796.319 287.177 796.801 285.433 795.991 284.524Z" fill="white"/>
<path d="M779.966 273.717C779.156 272.808 777.895 272.764 777.04 273.175C776.169 274.025 776.123 275.344 776.512 276.238C777.322 277.147 778.583 277.191 779.438 276.78C780.294 276.37 780.775 274.625 779.966 273.717Z" fill="white"/>
<path d="M945.53 363.53C944.746 362.623 943.524 362.58 942.693 362.992C941.848 363.843 941.802 365.162 942.179 366.055C942.963 366.963 944.186 367.006 945.016 366.594C946.269 365.757 946.315 364.438 945.53 363.53Z" fill="white"/>
<path d="M931.149 352.78C930.3 351.87 928.981 351.824 928.087 352.233C927.177 353.082 927.131 354.401 927.54 355.296C928.389 356.206 929.708 356.252 930.603 355.843C931.497 355.434 931.558 353.675 931.149 352.78Z" fill="white"/>
<path d="M914.93 342.648C914.121 341.74 912.86 341.696 912.004 342.107C911.134 342.957 911.088 344.276 911.477 345.17C912.287 346.079 913.547 346.122 914.403 345.712C915.274 344.862 915.74 343.557 914.93 342.648Z" fill="white"/>
<path d="M899.479 331.861C898.694 330.953 897.472 330.911 896.642 331.322C895.796 332.173 895.75 333.492 896.127 334.386C896.912 335.294 898.134 335.336 898.964 334.925C900.217 334.088 900.263 332.769 899.479 331.861Z" fill="white"/>
<path d="M884.219 321.763C883.41 320.854 882.149 320.811 881.294 321.221C880.423 322.071 880.377 323.39 880.766 324.284C881.576 325.193 882.837 325.237 883.692 324.826C884.563 323.976 885.029 322.672 884.219 321.763Z" fill="white"/>
<path d="M868.197 310.953C867.387 310.045 866.127 310.001 865.271 310.411C864.4 311.262 864.354 312.581 864.744 313.475C865.554 314.384 866.814 314.427 867.67 314.017C868.525 313.606 869.007 311.862 868.197 310.953Z" fill="white"/>
<path d="M853.021 300.175C852.173 299.265 850.853 299.219 849.959 299.629C849.049 300.477 849.003 301.797 849.412 302.691C850.261 303.601 851.58 303.647 852.475 303.238C853.369 302.829 853.431 301.07 853.021 300.175Z" fill="white"/>
<path d="M837.376 290.064C836.592 289.156 835.369 289.114 834.539 289.525C833.709 289.937 833.648 291.695 834.025 292.589C834.809 293.497 836.031 293.539 836.862 293.128C838.115 292.291 838.16 290.972 837.376 290.064Z" fill="white"/>
<path d="M822.312 279.29C821.464 278.38 820.144 278.334 819.25 278.743C818.34 279.592 818.294 280.911 818.703 281.806C819.552 282.716 820.871 282.762 821.766 282.353C822.676 281.504 822.722 280.185 822.312 279.29Z" fill="white"/>
<path d="M806.094 269.159C805.285 268.25 804.024 268.206 803.169 268.617C802.298 269.467 802.252 270.786 802.641 271.68C803.451 272.589 804.712 272.633 805.567 272.222C806.438 271.372 806.904 270.067 806.094 269.159Z" fill="white"/>
<path d="M790.751 258.373C789.941 257.464 788.68 257.42 787.825 257.831C786.954 258.681 786.908 260 787.298 260.894C788.107 261.803 789.368 261.847 790.223 261.436C791.079 261.026 791.56 259.281 790.751 258.373Z" fill="white"/>
<path d="M775.408 247.589C774.598 246.68 773.338 246.636 772.482 247.047C771.611 247.897 771.565 249.216 771.955 250.11C772.765 251.019 774.025 251.063 774.881 250.652C775.736 250.242 776.218 248.497 775.408 247.589Z" fill="white"/>
<path d="M956.316 348.188C955.531 347.281 954.309 347.238 953.478 347.65C952.633 348.501 952.587 349.82 952.964 350.713C953.748 351.621 954.971 351.664 955.801 351.252C957.054 350.415 957.1 349.096 956.316 348.188Z" fill="white"/>
<path d="M941.251 337.414C940.402 336.504 939.083 336.458 938.188 336.868C937.278 337.716 937.232 339.036 937.641 339.93C938.49 340.84 939.809 340.886 940.704 340.477C941.599 340.068 941.66 338.309 941.251 337.414Z" fill="white"/>
<path d="M925.606 327.303C924.821 326.395 923.599 326.353 922.769 326.764C921.923 327.615 921.877 328.934 922.254 329.828C923.038 330.736 924.261 330.778 925.091 330.367C926.344 329.53 926.39 328.211 925.606 327.303Z" fill="white"/>
<path d="M909.58 316.493C908.796 315.586 907.573 315.543 906.743 315.954C905.913 316.366 905.852 318.125 906.229 319.018C907.013 319.926 908.235 319.968 909.066 319.557C910.319 318.72 910.365 317.401 909.58 316.493Z" fill="white"/>
<path d="M894.347 305.713C893.538 304.805 892.277 304.761 891.421 305.171C890.551 306.021 890.505 307.341 890.894 308.235C891.704 309.143 892.965 309.187 893.82 308.777C894.676 308.366 895.157 306.622 894.347 305.713Z" fill="white"/>
<path d="M878.894 294.925C878.109 294.018 876.887 293.975 876.057 294.387C875.211 295.238 875.165 296.557 875.542 297.45C876.326 298.358 877.549 298.401 878.379 297.989C879.632 297.152 879.678 295.833 878.894 294.925Z" fill="white"/>
<path d="M863.807 284.834C862.958 283.924 861.639 283.878 860.744 284.287C859.834 285.136 859.788 286.455 860.197 287.35C861.046 288.26 862.365 288.305 863.26 287.896C864.155 287.487 864.216 285.728 863.807 284.834Z" fill="white"/>
<path d="M847.612 274.018C846.802 273.109 845.542 273.065 844.686 273.476C843.815 274.326 843.769 275.645 844.159 276.539C844.969 277.448 846.229 277.492 847.085 277.081C847.94 276.671 848.422 274.927 847.612 274.018Z" fill="white"/>
<path d="M832.415 263.922C831.566 263.012 830.247 262.966 829.352 263.375C828.442 264.224 828.396 265.543 828.806 266.438C829.654 267.348 830.974 267.394 831.868 266.985C832.778 266.136 832.824 264.817 832.415 263.922Z" fill="white"/>
<path d="M816.794 253.129C816.01 252.221 814.787 252.178 813.957 252.59C813.112 253.441 813.066 254.76 813.443 255.654C814.227 256.561 815.449 256.604 816.28 256.192C817.533 255.355 817.578 254.036 816.794 253.129Z" fill="white"/>
<path d="M800.741 243.003C799.957 242.095 798.735 242.053 797.904 242.464C797.059 243.315 797.013 244.634 797.39 245.528C798.174 246.436 799.397 246.478 800.227 246.067C801.48 245.23 801.526 243.911 800.741 243.003Z" fill="white"/>
<path d="M785.51 232.223C784.701 231.314 783.44 231.271 782.585 231.681C781.714 232.531 781.668 233.851 782.057 234.745C782.867 235.653 784.128 235.697 784.983 235.287C785.854 234.436 786.32 233.132 785.51 232.223Z" fill="white"/>
<path d="M997.833 353.05C997.049 352.142 995.826 352.1 994.996 352.511C994.151 353.362 994.105 354.681 994.482 355.575C995.266 356.483 996.488 356.525 997.319 356.114C998.556 355.717 998.617 353.958 997.833 353.05Z" fill="white"/>
<path d="M982.576 342.952C981.766 342.043 980.506 342 979.65 342.41C978.779 343.26 978.733 344.579 979.123 345.473C979.933 346.382 981.193 346.426 982.049 346.015C982.92 345.165 983.386 343.861 982.576 342.952Z" fill="white"/>
<path d="M966.442 332.139C965.657 331.231 964.435 331.188 963.605 331.6C962.759 332.451 962.713 333.77 963.09 334.663C963.874 335.571 965.097 335.614 965.927 335.202C967.18 334.366 967.226 333.046 966.442 332.139Z" fill="white"/>
<path d="M951.375 321.364C950.526 320.454 949.207 320.408 948.312 320.817C947.402 321.666 947.356 322.985 947.765 323.88C948.614 324.79 949.933 324.836 950.828 324.427C951.738 323.578 951.784 322.259 951.375 321.364Z" fill="white"/>
<path d="M935.841 311.257C935.031 310.348 933.77 310.304 932.915 310.715C932.044 311.565 931.998 312.884 932.387 313.778C933.197 314.687 934.458 314.731 935.313 314.32C936.169 313.91 936.65 312.165 935.841 311.257Z" fill="white"/>
<path d="M920.667 300.479C919.818 299.569 918.499 299.523 917.604 299.932C916.694 300.781 916.648 302.1 917.057 302.995C917.906 303.905 919.225 303.95 920.12 303.541C921.015 303.132 921.076 301.373 920.667 300.479Z" fill="white"/>
<path d="M905.133 290.371C904.323 289.463 903.062 289.419 902.207 289.829C901.351 290.24 901.29 291.999 901.679 292.893C902.489 293.801 903.75 293.845 904.605 293.435C905.476 292.585 905.942 291.28 905.133 290.371Z" fill="white"/>
<path d="M888.995 279.558C888.211 278.65 886.988 278.607 886.158 279.019C885.313 279.87 885.267 281.189 885.644 282.083C886.428 282.99 887.65 283.033 888.481 282.622C889.734 281.785 889.78 280.466 888.995 279.558Z" fill="white"/>
<path d="M873.762 268.778C872.953 267.869 871.692 267.825 870.837 268.236C869.966 269.086 869.92 270.405 870.309 271.299C871.119 272.208 872.38 272.252 873.235 271.841C874.091 271.431 874.557 270.126 873.762 268.778Z" fill="white"/>
<path d="M858.286 258.672C857.502 257.765 856.28 257.722 855.449 258.133C854.604 258.984 854.558 260.304 854.935 261.197C855.719 262.105 856.941 262.147 857.772 261.736C859.009 261.339 859.071 259.58 858.286 258.672Z" fill="white"/>
<path d="M843.224 247.898C842.375 246.988 841.056 246.942 840.161 247.351C839.251 248.2 839.205 249.519 839.614 250.414C840.463 251.324 841.782 251.37 842.677 250.961C843.572 250.552 843.633 248.793 843.224 247.898Z" fill="white"/>
<path d="M826.896 237.763C826.111 236.855 824.889 236.813 824.059 237.224C823.228 237.636 823.167 239.394 823.544 240.288C824.328 241.196 825.551 241.238 826.381 240.827C827.634 239.99 827.68 238.671 826.896 237.763Z" fill="white"/>
<path d="M811.83 226.987C810.981 226.077 809.662 226.031 808.767 226.44C807.873 226.849 807.811 228.608 808.221 229.503C808.63 230.397 810.389 230.459 811.283 230.049C812.193 229.201 812.239 227.881 811.83 226.987Z" fill="white"/>
<path d="M1071 379.513C1070.15 378.603 1068.83 378.557 1067.93 378.966C1067.02 379.815 1066.98 381.134 1067.39 382.028C1068.24 382.938 1069.56 382.984 1070.45 382.575C1071.36 381.726 1071.41 380.407 1071 379.513Z" fill="white"/>
<path d="M1054.67 369.377C1053.88 368.47 1052.66 368.427 1051.83 368.838C1051 369.25 1050.94 371.009 1051.32 371.902C1052.1 372.81 1053.32 372.853 1054.15 372.441C1055.41 371.604 1055.45 370.285 1054.67 369.377Z" fill="white"/>
<path d="M1039.61 358.603C1038.76 357.693 1037.44 357.647 1036.54 358.056C1035.63 358.905 1035.59 360.224 1036 361.119C1036.84 362.029 1038.16 362.075 1039.06 361.666C1039.97 360.817 1040.01 359.498 1039.61 358.603Z" fill="white"/>
<path d="M1024.07 348.494C1023.26 347.585 1022 347.541 1021.14 347.952C1020.27 348.802 1020.23 350.121 1020.62 351.015C1021.43 351.924 1022.69 351.968 1023.54 351.557C1024.41 350.707 1024.88 349.402 1024.07 348.494Z" fill="white"/>
<path d="M1008.04 337.686C1007.23 336.777 1005.97 336.734 1005.12 337.144C1004.25 337.994 1004.2 339.313 1004.59 340.207C1005.4 341.116 1006.66 341.16 1007.52 340.75C1008.37 340.339 1008.85 338.595 1008.04 337.686Z" fill="white"/>
<path d="M992.677 327.584C991.868 326.676 990.607 326.632 989.752 327.042C988.881 327.892 988.835 329.212 989.224 330.106C990.034 331.014 991.295 331.058 992.15 330.648C993.006 330.237 993.487 328.493 992.677 327.584Z" fill="white"/>
<path d="M977.248 316.114C976.464 315.206 975.241 315.164 974.411 315.575C973.581 315.987 973.52 317.745 973.897 318.639C974.681 319.547 975.903 319.589 976.734 319.178C977.971 318.781 978.017 317.462 977.248 316.114Z" fill="white"/>
<path d="M962.16 306.022C961.311 305.112 959.992 305.066 959.097 305.476C958.187 306.324 958.142 307.644 958.551 308.538C959.4 309.448 960.719 309.494 961.613 309.085C962.508 308.676 962.569 306.917 962.16 306.022Z" fill="white"/>
<path d="M945.857 295.203C945.072 294.295 943.85 294.253 943.02 294.664C942.174 295.515 942.128 296.834 942.505 297.728C942.882 298.622 944.512 298.678 945.342 298.267C946.595 297.43 946.641 296.111 945.857 295.203Z" fill="white"/>
<path d="M931.451 285.135C930.602 284.225 929.283 284.179 928.388 284.588C927.478 285.437 927.433 286.756 927.842 287.651C928.69 288.561 930.01 288.607 930.904 288.198C931.814 287.349 931.86 286.03 931.451 285.135Z" fill="white"/>
<path d="M915.258 274.321C914.449 273.413 913.188 273.369 912.333 273.779C911.462 274.63 911.416 275.949 911.805 276.843C912.615 277.751 913.876 277.795 914.731 277.385C915.587 276.974 916.068 275.23 915.258 274.321Z" fill="white"/>
<path d="M899.779 264.216C898.995 263.308 897.773 263.265 896.942 263.677C896.112 264.088 896.051 265.847 896.428 266.741C897.212 267.648 898.435 267.691 899.265 267.28C900.518 266.443 900.564 265.123 899.779 264.216Z" fill="white"/>
<path d="M884.548 253.436C883.738 252.527 882.477 252.483 881.622 252.894C880.766 253.304 880.705 255.063 881.094 255.957C881.904 256.866 883.165 256.91 884.02 256.499C884.891 255.649 885.357 254.345 884.548 253.436Z" fill="white"/>
<path d="M868.388 243.304C867.603 242.397 866.381 242.354 865.551 242.765C864.705 243.617 864.659 244.936 865.036 245.829C865.821 246.737 867.043 246.78 867.873 246.368C869.126 245.531 869.172 244.212 868.388 243.304Z" fill="white"/>
<path d="M853.325 232.53C852.476 231.62 851.157 231.575 850.262 231.984C849.352 232.832 849.307 234.152 849.716 235.046C850.565 235.956 851.884 236.002 852.778 235.593C853.688 234.744 853.734 233.425 853.325 232.53Z" fill="white"/>
<path d="M837.701 221.737C836.917 220.829 835.695 220.786 834.864 221.198C834.019 222.049 833.973 223.368 834.35 224.262C835.134 225.169 836.357 225.212 837.187 224.801C838.424 224.403 838.47 223.084 837.701 221.737Z" fill="white"/>
<path d="M1080.93 364.139C1080.12 363.23 1078.86 363.186 1078 363.597C1077.13 364.447 1077.09 365.766 1077.48 366.66C1078.29 367.569 1079.55 367.613 1080.4 367.202C1081.26 366.792 1081.72 365.487 1080.93 364.139Z" fill="white"/>
<path d="M1065.59 353.355C1064.78 352.446 1063.52 352.403 1062.66 352.813C1061.79 353.663 1061.74 354.982 1062.13 355.876C1062.94 356.785 1064.2 356.829 1065.06 356.418C1065.92 356.008 1066.4 354.264 1065.59 353.355Z" fill="white"/>
<path d="M1050.39 343.259C1049.54 342.349 1048.22 342.304 1047.33 342.713C1046.43 343.122 1046.37 344.881 1046.78 345.775C1047.63 346.685 1048.95 346.731 1049.84 346.322C1050.75 345.473 1050.8 344.154 1050.39 343.259Z" fill="white"/>
<path d="M1034.09 332.442C1033.3 331.534 1032.08 331.492 1031.25 331.903C1030.4 332.754 1030.36 334.073 1030.73 334.967C1031.52 335.874 1032.74 335.917 1033.57 335.506C1034.82 334.669 1034.87 333.35 1034.09 332.442Z" fill="white"/>
<path d="M1018.74 321.658C1017.96 320.75 1016.73 320.708 1015.9 321.119C1015.06 321.97 1015.01 323.289 1015.39 324.183C1016.17 325.091 1017.4 325.133 1018.23 324.722C1019.48 323.885 1019.53 322.566 1018.74 321.658Z" fill="white"/>
<path d="M1003.49 311.558C1002.68 310.649 1001.42 310.605 1000.56 311.016C999.689 311.866 999.643 313.185 1000.03 314.079C1000.84 314.988 1002.1 315.032 1002.96 314.621C1003.83 313.771 1004.3 312.467 1003.49 311.558Z" fill="white"/>
<path d="M987.461 300.751C986.651 299.842 985.39 299.798 984.535 300.209C983.664 301.059 983.618 302.378 984.008 303.272C984.817 304.181 986.078 304.224 986.933 303.814C987.789 303.403 988.27 301.659 987.461 300.751Z" fill="white"/>
<path d="M972.093 290.649C971.284 289.74 970.023 289.696 969.168 290.107C968.312 290.517 968.251 292.276 968.64 293.17C969.45 294.079 970.711 294.123 971.566 293.712C972.437 292.862 972.903 291.557 972.093 290.649Z" fill="white"/>
<path d="M956.641 279.861C955.856 278.953 954.634 278.911 953.804 279.322C952.973 279.733 952.912 281.492 953.289 282.386C954.074 283.294 955.296 283.336 956.126 282.925C957.379 282.088 957.425 280.769 956.641 279.861Z" fill="white"/>
<path d="M941.577 269.087C940.728 268.177 939.409 268.131 938.514 268.54C937.604 269.389 937.558 270.708 937.968 271.603C938.816 272.513 940.136 272.559 941.03 272.15C941.925 271.741 941.971 270.421 941.577 269.087Z" fill="white"/>
<path d="M925.931 258.974C925.146 258.066 923.924 258.023 923.094 258.435C922.248 259.286 922.202 260.605 922.579 261.498C923.364 262.406 924.586 262.449 925.416 262.037C926.654 261.64 926.715 259.881 925.931 258.974Z" fill="white"/>
<path d="M909.906 248.166C909.122 247.258 907.9 247.216 907.069 247.627C906.224 248.478 906.178 249.797 906.555 250.691C907.339 251.599 908.562 251.641 909.392 251.23C910.645 250.393 910.691 249.074 909.906 248.166Z" fill="white"/>
<path d="M894.649 238.068C893.839 237.159 892.579 237.115 891.723 237.526C890.852 238.376 890.806 239.695 891.196 240.589C892.006 241.498 893.266 241.542 894.122 241.131C894.993 240.281 895.459 238.977 894.649 238.068Z" fill="white"/>
<path d="M879.195 227.28C878.411 226.373 877.189 226.33 876.358 226.742C875.528 227.153 875.467 228.912 875.844 229.805C876.628 230.713 877.851 230.756 878.681 230.344C879.934 229.507 879.98 228.188 879.195 227.28Z" fill="white"/>
<path d="M864.109 217.188C863.26 216.278 861.941 216.232 861.047 216.642C860.137 217.49 860.091 218.81 860.5 219.704C861.349 220.614 862.668 220.66 863.563 220.251C864.473 219.402 864.518 218.083 864.109 217.188Z" fill="white"/>
<path d="M847.804 206.369C847.019 205.461 845.797 205.419 844.967 205.83C844.121 206.681 844.075 208 844.452 208.894C845.237 209.802 846.459 209.844 847.289 209.433C848.542 208.596 848.588 207.277 847.804 206.369Z" fill="white"/>
<path d="M1091.71 348.797C1090.9 347.888 1089.64 347.844 1088.79 348.255C1087.92 349.105 1087.87 350.424 1088.26 351.318C1089.07 352.227 1090.33 352.271 1091.19 351.86C1092.06 351.01 1092.52 349.706 1091.71 348.797Z" fill="white"/>
<path d="M1075.58 337.986C1074.79 337.078 1073.57 337.035 1072.74 337.447C1071.9 338.298 1071.85 339.617 1072.23 340.51C1073.01 341.418 1074.23 341.461 1075.06 341.049C1076.32 340.212 1076.36 338.893 1075.58 337.986Z" fill="white"/>
<path d="M1060.49 327.893C1059.64 326.983 1058.32 326.937 1057.43 327.347C1056.52 328.195 1056.47 329.515 1056.88 330.409C1057.73 331.319 1059.05 331.365 1059.95 330.956C1060.84 330.547 1060.9 328.788 1060.49 327.893Z" fill="white"/>
<path d="M1044.89 316.416C1044.11 315.508 1042.89 315.465 1042.06 315.877C1041.21 316.728 1041.16 318.047 1041.54 318.941C1042.33 319.848 1043.55 319.891 1044.38 319.48C1045.62 319.082 1045.66 317.763 1044.89 316.416Z" fill="white"/>
<path d="M1029.81 306.324C1028.96 305.414 1027.64 305.368 1026.74 305.777C1025.83 306.626 1025.79 307.945 1026.2 308.84C1027.05 309.75 1028.36 309.795 1029.26 309.386C1030.15 308.977 1030.21 307.218 1029.81 306.324Z" fill="white"/>
<path d="M1013.61 295.51C1012.8 294.601 1011.54 294.558 1010.69 294.968C1009.81 295.818 1009.77 297.137 1010.16 298.031C1010.97 298.94 1012.23 298.984 1013.08 298.573C1013.95 297.723 1014.42 296.419 1013.61 295.51Z" fill="white"/>
<path d="M998.135 285.405C997.351 284.497 996.128 284.454 995.298 284.866C994.452 285.717 994.406 287.036 994.783 287.93C995.568 288.837 996.79 288.88 997.62 288.469C998.873 287.632 998.919 286.312 998.135 285.405Z" fill="white"/>
<path d="M982.901 274.623C982.091 273.714 980.831 273.67 979.975 274.081C979.104 274.931 979.058 276.25 979.448 277.144C980.258 278.053 981.518 278.097 982.374 277.686C983.23 277.276 983.711 275.531 982.901 274.623Z" fill="white"/>
<path d="M966.742 264.493C965.958 263.586 964.736 263.543 963.905 263.954C963.075 264.366 963.014 266.125 963.391 267.018C964.175 267.926 965.398 267.969 966.228 267.557C967.481 266.72 967.527 265.401 966.742 264.493Z" fill="white"/>
<path d="M951.679 253.719C950.83 252.809 949.511 252.763 948.616 253.172C947.721 253.581 947.66 255.34 948.069 256.235C948.918 257.145 950.237 257.191 951.132 256.782C952.042 255.933 952.088 254.614 951.679 253.719Z" fill="white"/>
<path d="M936.032 243.608C935.248 242.7 934.026 242.658 933.195 243.069C932.35 243.92 932.304 245.239 932.681 246.133C933.465 247.04 934.688 247.083 935.518 246.672C936.771 245.835 936.817 244.516 936.032 243.608Z" fill="white"/>
<path d="M920.971 232.834C920.122 231.924 918.803 231.878 917.908 232.287C916.998 233.136 916.952 234.455 917.361 235.35C918.21 236.26 919.529 236.305 920.424 235.896C921.334 235.047 921.38 233.728 920.971 232.834Z" fill="white"/>
<path d="M905.456 222.042C904.646 221.133 903.385 221.089 902.53 221.5C901.659 222.35 901.613 223.669 902.003 224.563C902.812 225.472 904.073 225.516 904.928 225.105C905.784 224.695 906.25 223.39 905.456 222.042Z" fill="white"/>
<path d="M889.321 211.23C888.537 210.323 887.315 210.28 886.484 210.691C885.639 211.543 885.593 212.862 885.97 213.755C886.754 214.663 887.977 214.706 888.807 214.294C890.045 213.897 890.106 212.138 889.321 211.23Z" fill="white"/>
<path d="M1117.1 342.847C1116.31 341.939 1115.09 341.897 1114.26 342.308C1113.43 342.719 1113.37 344.478 1113.74 345.372C1114.53 346.28 1115.75 346.322 1116.58 345.911C1117.83 345.074 1117.88 343.755 1117.1 342.847Z" fill="white"/>
<path d="M1101.84 332.747C1101.03 331.838 1099.77 331.794 1098.91 332.205C1098.04 333.055 1098 334.374 1098.39 335.268C1099.2 336.177 1100.46 336.221 1101.31 335.81C1102.18 334.96 1102.65 333.656 1101.84 332.747Z" fill="white"/>
<path d="M1086.39 321.959C1085.6 321.052 1084.38 321.009 1083.55 321.42C1082.7 322.272 1082.66 323.591 1083.04 324.484C1083.82 325.392 1085.04 325.435 1085.87 325.023C1087.13 324.186 1087.17 322.867 1086.39 321.959Z" fill="white"/>
<path d="M1071.3 311.867C1070.45 310.957 1069.13 310.911 1068.24 311.321C1067.33 312.169 1067.28 313.489 1067.69 314.383C1068.54 315.293 1069.86 315.339 1070.75 314.93C1071.66 314.081 1071.71 312.762 1071.3 311.867Z" fill="white"/>
<path d="M1055 301.05C1054.21 300.142 1052.99 300.1 1052.16 300.511C1051.31 301.362 1051.27 302.681 1051.64 303.575C1052.43 304.483 1053.65 304.525 1054.48 304.114C1055.73 303.277 1055.78 301.958 1055 301.05Z" fill="white"/>
<path d="M1039.91 290.958C1039.06 290.048 1037.74 290.002 1036.84 290.411C1035.95 290.821 1035.89 292.579 1036.3 293.474C1037.15 294.384 1038.47 294.43 1039.36 294.021C1040.27 293.172 1040.32 291.853 1039.91 290.958Z" fill="white"/>
<path d="M1055.2 303.106C1054.36 302.196 1053.04 302.151 1052.14 302.56C1051.25 302.969 1051.19 304.728 1051.59 305.622C1052.44 306.532 1053.76 306.578 1054.66 306.169C1055.57 305.32 1055.61 304.001 1055.2 303.106Z" fill="white"/>
<path d="M1024.4 280.166C1023.59 279.257 1022.32 279.214 1021.47 279.624C1020.61 280.035 1020.55 281.793 1020.94 282.687C1021.75 283.596 1023.01 283.64 1023.87 283.229C1024.74 282.379 1025.2 281.075 1024.4 280.166Z" fill="white"/>
<path d="M1008.26 269.355C1007.48 268.447 1006.25 268.404 1005.42 268.816C1004.58 269.667 1004.53 270.986 1004.91 271.88C1005.69 272.787 1006.92 272.83 1007.75 272.418C1008.98 272.021 1009.03 270.702 1008.26 269.355Z" fill="white"/>
<path d="M993.003 259.257C992.193 258.348 990.932 258.304 990.077 258.715C989.206 259.565 989.16 260.884 989.55 261.778C990.359 262.687 991.62 262.731 992.475 262.32C993.331 261.91 993.812 260.166 993.003 259.257Z" fill="white"/>
<path d="M977.55 248.469C976.766 247.561 975.543 247.519 974.713 247.93C973.867 248.781 973.822 250.101 974.198 250.994C974.983 251.902 976.205 251.944 977.035 251.533C978.288 250.696 978.334 249.377 977.55 248.469Z" fill="white"/>
<path d="M962.464 238.377C961.615 237.467 960.296 237.421 959.401 237.831C958.491 238.679 958.445 239.998 958.854 240.893C959.703 241.803 961.022 241.849 961.917 241.44C962.827 240.591 962.873 239.272 962.464 238.377Z" fill="white"/>
<path d="M946.158 227.558C945.374 226.65 944.152 226.608 943.321 227.019C942.476 227.87 942.43 229.189 942.807 230.083C943.591 230.99 944.814 231.033 945.644 230.622C946.897 229.785 946.943 228.465 946.158 227.558Z" fill="white"/>
<path d="M931.753 217.49C930.904 216.58 929.585 216.534 928.69 216.943C927.78 217.792 927.734 219.111 928.143 220.006C928.992 220.916 930.311 220.961 931.206 220.552C932.116 219.703 932.162 218.384 931.753 217.49Z" fill="white"/>
<path d="M915.558 206.676C914.749 205.767 913.488 205.724 912.632 206.134C911.761 206.984 911.716 208.303 912.105 209.197C912.915 210.106 914.175 210.15 915.031 209.739C915.902 208.889 916.368 207.585 915.558 206.676Z" fill="white"/>
<path d="M1096.49 306.593C1095.71 305.686 1094.48 305.643 1093.65 306.054C1092.82 306.466 1092.76 308.225 1093.14 309.118C1093.92 310.026 1095.14 310.069 1095.97 309.657C1097.21 309.26 1097.27 307.501 1096.49 306.593Z" fill="white"/>
<path d="M1081.26 295.811C1080.45 294.903 1079.19 294.859 1078.33 295.269C1077.46 296.12 1077.41 297.439 1077.8 298.333C1078.61 299.241 1079.87 299.285 1080.73 298.875C1081.6 298.025 1082.07 296.72 1081.26 295.811Z" fill="white"/>
<path d="M1065.78 285.706C1064.99 284.798 1063.77 284.756 1062.94 285.167C1062.1 286.018 1062.05 287.337 1062.43 288.231C1063.21 289.139 1064.43 289.181 1065.26 288.77C1066.52 287.933 1066.56 286.614 1065.78 285.706Z" fill="white"/>
<path d="M1050.72 274.932C1049.87 274.022 1048.55 273.976 1047.65 274.385C1046.74 275.234 1046.7 276.553 1047.11 277.448C1047.96 278.358 1049.27 278.404 1050.17 277.994C1051.08 277.146 1051.12 275.826 1050.72 274.932Z" fill="white"/>
<path d="M1034.39 264.797C1033.6 263.889 1032.38 263.846 1031.55 264.258C1030.7 265.109 1030.66 266.428 1031.04 267.322C1031.82 268.229 1033.04 268.272 1033.87 267.861C1035.13 267.024 1035.17 265.705 1034.39 264.797Z" fill="white"/>
<path d="M1019.05 254.013C1018.26 253.105 1017.04 253.063 1016.21 253.474C1015.36 254.325 1015.32 255.644 1015.69 256.538C1016.48 257.446 1017.7 257.488 1018.53 257.077C1019.78 256.24 1019.83 254.921 1019.05 254.013Z" fill="white"/>
<path d="M1003.79 243.915C1002.98 243.006 1001.72 242.963 1000.86 243.373C999.99 244.223 999.944 245.542 1000.33 246.436C1001.14 247.345 1002.4 247.389 1003.26 246.979C1004.13 246.128 1004.6 244.824 1003.79 243.915Z" fill="white"/>
<path d="M987.652 233.101C986.867 232.194 985.645 232.151 984.814 232.563C983.969 233.414 983.923 234.733 984.3 235.626C985.084 236.534 986.307 236.577 987.137 236.165C988.39 235.328 988.436 234.009 987.652 233.101Z" fill="white"/>
<path d="M972.419 222.321C971.609 221.413 970.348 221.369 969.493 221.779C968.622 222.63 968.576 223.949 968.966 224.843C969.775 225.751 971.036 225.795 971.891 225.385C972.747 224.974 973.213 223.67 972.419 222.321Z" fill="white"/>
<path d="M1060.82 259.566C1059.97 258.656 1058.65 258.61 1057.76 259.019C1056.85 259.868 1056.8 261.187 1057.21 262.082C1058.06 262.992 1059.38 263.038 1060.27 262.629C1061.17 262.22 1061.23 260.461 1060.82 259.566Z" fill="white"/>
<path d="M1045.2 248.771C1044.41 247.863 1043.19 247.82 1042.36 248.232C1041.51 249.083 1041.47 250.402 1041.84 251.296C1042.63 252.203 1043.85 252.246 1044.68 251.834C1045.93 250.998 1045.98 249.678 1045.2 248.771Z" fill="white"/>
<circle cx="191.001" cy="351.502" r="18.5" stroke="#FFE9B9" stroke-width="4"/>
</svg>
