<svg width="80" height="80" viewBox="0 0 80 80" fill="none" xmlns="http://www.w3.org/2000/svg">
<mask id="mask0" mask-type="alpha" maskUnits="userSpaceOnUse" x="0" y="0" width="80" height="80">
<rect width="80" height="80" fill="#C4C4C4"/>
</mask>
<g mask="url(#mask0)">
<path d="M27.6978 0.488463C7.71899 -4.6487 -2.17273 31.6076 0.401209 68.1769C2.97515 104.746 23.1166 42.3996 54.7553 68.1771C80.2187 88.9234 89.0326 39.5275 68.9558 44.9611C48.8791 50.3946 52.6713 6.90992 27.6978 0.488463Z" fill="#F39681" fill-opacity="0.4"/>
<g filter="url(#filter0_d)">
<path fill-rule="evenodd" clip-rule="evenodd" d="M52.3036 16.0711C50.9946 15.3928 49.3854 15.906 48.7109 17.2169L21.0258 70.8295C20.687 71.4855 20.6453 72.2136 20.8531 72.8652C21.06 73.514 21.5165 74.0864 22.1715 74.4222C23.4796 75.0977 25.0859 74.5854 25.7643 73.2765L53.4494 19.6639C54.1239 18.3529 53.6117 16.7466 52.3036 16.0711ZM55.0494 61.607C52.6857 62.3608 50.1487 61.0507 49.3949 58.687C48.641 56.3233 49.9511 53.7863 52.3148 53.0325C54.6785 52.2786 57.2155 53.5887 57.9694 55.9524C58.7232 58.3161 57.4131 60.8531 55.0494 61.607ZM50.4918 47.3161C44.9755 49.0754 41.9193 54.9938 43.6785 60.5101C45.4378 66.0263 51.3562 69.0826 56.8725 67.3233C62.3887 65.5641 65.445 59.6456 63.6857 54.1294C61.9265 48.6131 56.008 45.5569 50.4918 47.3161ZM20.3342 31.743C22.6979 30.9892 25.2349 32.2993 25.9888 34.663C26.7426 37.0267 25.4325 39.5637 23.0688 40.3175C20.7051 41.0714 18.1681 39.7613 17.4143 37.3976C16.6604 35.0339 17.9705 32.4969 20.3342 31.743ZM24.8919 46.0339C30.4081 44.2746 33.4643 38.3562 31.7051 32.8399C29.9459 27.3237 24.0274 24.2674 18.5112 26.0267C12.9949 27.7859 9.93868 33.7044 11.6979 39.2206C13.4572 44.7369 19.3756 47.7931 24.8919 46.0339Z" fill="#231F20"/>
<mask id="mask1" mask-type="alpha" maskUnits="userSpaceOnUse" x="7" y="15" width="62" height="64">
<path fill-rule="evenodd" clip-rule="evenodd" d="M52.3036 16.0711C50.9946 15.3928 49.3854 15.906 48.7109 17.2169L21.0258 70.8295C20.687 71.4855 20.6453 72.2136 20.8531 72.8652C21.06 73.514 21.5165 74.0864 22.1715 74.4222C23.4796 75.0977 25.0859 74.5854 25.7643 73.2765L53.4494 19.6639C54.1239 18.3529 53.6117 16.7466 52.3036 16.0711ZM55.0494 61.607C52.6857 62.3608 50.1487 61.0507 49.3949 58.687C48.641 56.3233 49.9511 53.7863 52.3148 53.0325C54.6785 52.2786 57.2155 53.5887 57.9694 55.9524C58.7232 58.3161 57.4131 60.8531 55.0494 61.607ZM50.4918 47.3161C44.9755 49.0754 41.9193 54.9938 43.6785 60.5101C45.4378 66.0263 51.3562 69.0826 56.8725 67.3233C62.3887 65.5641 65.445 59.6456 63.6857 54.1294C61.9265 48.6131 56.008 45.5569 50.4918 47.3161ZM20.3342 31.743C22.6979 30.9892 25.2349 32.2993 25.9888 34.663C26.7426 37.0267 25.4325 39.5637 23.0688 40.3175C20.7051 41.0714 18.1681 39.7613 17.4143 37.3976C16.6604 35.0339 17.9705 32.4969 20.3342 31.743ZM24.8919 46.0339C30.4081 44.2746 33.4643 38.3562 31.7051 32.8399C29.9459 27.3237 24.0274 24.2674 18.5112 26.0267C12.9949 27.7859 9.93868 33.7044 11.6979 39.2206C13.4572 44.7369 19.3756 47.7931 24.8919 46.0339Z" fill="white"/>
</mask>
<g mask="url(#mask1)">
<rect x="-8" y="21.8862" width="72" height="72" transform="rotate(-17.6885 -8 21.8862)" fill="#FF7050"/>
</g>
</g>
<path fill-rule="evenodd" clip-rule="evenodd" d="M18.053 17.2661L12.3371 15.4417L14.1614 9.72581C14.3296 9.19899 14.0387 8.63694 13.5128 8.4691C12.987 8.30126 12.4243 8.59087 12.2561 9.11769L10.4318 14.8336L4.71584 13.0093C4.18997 12.8414 3.62727 13.131 3.45913 13.6578C3.29098 14.1847 3.58185 14.7467 4.10772 14.9146L9.82364 16.7389L7.99928 22.4548C7.83114 22.9817 8.12201 23.5437 8.64787 23.7115C9.17374 23.8794 9.73644 23.5898 9.90459 23.063L11.7289 17.347L17.4449 19.1714C17.9707 19.3392 18.5334 19.0496 18.7016 18.5228C18.8697 17.996 18.5788 17.4339 18.053 17.2661Z" fill="#231F20"/>
<mask id="mask2" mask-type="alpha" maskUnits="userSpaceOnUse" x="1" y="6" width="21" height="21">
<path fill-rule="evenodd" clip-rule="evenodd" d="M18.053 17.2661L12.3371 15.4417L14.1614 9.72581C14.3296 9.19899 14.0387 8.63694 13.5128 8.4691C12.987 8.30126 12.4243 8.59087 12.2561 9.11769L10.4318 14.8336L4.71584 13.0093C4.18997 12.8414 3.62727 13.131 3.45913 13.6578C3.29098 14.1847 3.58185 14.7467 4.10772 14.9146L9.82364 16.7389L7.99928 22.4548C7.83114 22.9817 8.12201 23.5437 8.64787 23.7115C9.17374 23.8794 9.73644 23.5898 9.90459 23.063L11.7289 17.347L17.4449 19.1714C17.9707 19.3392 18.5334 19.0496 18.7016 18.5228C18.8697 17.996 18.5788 17.4339 18.053 17.2661Z" fill="white"/>
</mask>
<g mask="url(#mask2)">
<rect x="3.29688" y="1.00977" width="24" height="24" transform="rotate(17.7016 3.29688 1.00977)" fill="#FF7050"/>
</g>
<path fill-rule="evenodd" clip-rule="evenodd" d="M74.3685 34.7851L60.7023 37.824C60.1634 37.9438 59.6291 37.6047 59.5091 37.0649C59.389 36.5251 59.7293 35.9915 60.2681 35.8717L73.9344 32.8328C74.4742 32.7128 75.0075 33.0521 75.1276 33.5919C75.2476 34.1317 74.9083 34.6651 74.3685 34.7851Z" fill="#231F20"/>
<mask id="mask3" mask-type="alpha" maskUnits="userSpaceOnUse" x="59" y="32" width="17" height="7">
<path fill-rule="evenodd" clip-rule="evenodd" d="M74.3685 34.7851L60.7023 37.824C60.1634 37.9438 59.6291 37.6047 59.5091 37.0649C59.389 36.5251 59.7293 35.9915 60.2681 35.8717L73.9344 32.8328C74.4742 32.7128 75.0075 33.0521 75.1276 33.5919C75.2476 34.1317 74.9083 34.6651 74.3685 34.7851Z" fill="white"/>
</mask>
<g mask="url(#mask3)">
<rect x="53" y="26.2192" width="24" height="24" transform="rotate(-12.5366 53 26.2192)" fill="#FF7050"/>
</g>
</g>
<defs>
<filter id="filter0_d" x="-12" y="0.00952148" width="98.4727" height="98.4727" filterUnits="userSpaceOnUse" color-interpolation-filters="sRGB">
<feFlood flood-opacity="0" result="BackgroundImageFix"/>
<feColorMatrix in="SourceAlpha" type="matrix" values="0 0 0 0 0 0 0 0 0 0 0 0 0 0 0 0 0 0 127 0"/>
<feOffset dy="4"/>
<feGaussianBlur stdDeviation="2"/>
<feColorMatrix type="matrix" values="0 0 0 0 0.945833 0 0 0 0 0.25024 0 0 0 0 0.0945833 0 0 0 0.25 0"/>
<feBlend mode="normal" in2="BackgroundImageFix" result="effect1_dropShadow"/>
<feBlend mode="normal" in="SourceGraphic" in2="effect1_dropShadow" result="shape"/>
</filter>
</defs>
</svg>
