<svg width="80" height="80" viewBox="0 0 80 80" fill="none" xmlns="http://www.w3.org/2000/svg">
<mask id="mask0" mask-type="alpha" maskUnits="userSpaceOnUse" x="0" y="0" width="80" height="80">
<rect width="80" height="80" fill="#C4C4C4"/>
</mask>
<g mask="url(#mask0)">
<path d="M0.909761 19.3534C-0.665361 35.1543 -2.34738 59.7871 15.8651 70.4634C34.0775 81.1397 15.1842 46.5779 59.4845 72.7347C103.785 98.8916 61.9457 48.1796 65.8835 19.3534C69.8213 -9.47277 57.5156 -0.931533 37.8266 11.88C18.1376 24.6915 2.87866 -0.397719 0.909761 19.3534Z" fill="#349EFF" fill-opacity="0.4"/>
<g filter="url(#filter0_d)">
<path fill-rule="evenodd" clip-rule="evenodd" d="M32.5561 38.6658L47.6513 41.6483C48.4871 41.8134 49.2143 42.3271 49.6479 43.058C50.0814 43.7889 50.1853 44.6718 49.933 45.4843L46.1983 57.4371L63.6768 39.9218L48.5817 36.9393C47.7458 36.7742 47.0186 36.2605 46.5851 35.5296C46.1486 34.7981 46.0447 33.9152 46.2999 33.1033L50.034 21.1534L32.5561 38.6658ZM39.103 71.1516C38.7674 71.0853 38.44 70.9626 38.1313 70.7762C36.9518 70.06 36.4083 68.6315 36.8212 67.3156L43.2091 46.8873L25.886 43.4646C24.8 43.2501 23.9203 42.4555 23.5972 41.3978C23.2746 40.3372 23.5632 39.1863 24.345 38.4019L54.4243 8.26372C55.3981 7.28185 56.9144 7.09829 58.0969 7.81509C59.28 8.52894 59.8228 9.96031 59.4099 11.2762L53.0227 31.7016L70.3458 35.1243C71.4318 35.3388 72.3109 36.1364 72.634 37.194C72.9565 38.2547 72.6686 39.4026 71.8867 40.187L41.8069 70.3281C41.0855 71.0541 40.0624 71.3412 39.103 71.1516Z" fill="#231F20"/>
<mask id="mask1" mask-type="alpha" maskUnits="userSpaceOnUse" x="18" y="2" width="61" height="75">
<path fill-rule="evenodd" clip-rule="evenodd" d="M32.5561 38.6658L47.6513 41.6483C48.4871 41.8134 49.2143 42.3271 49.6479 43.058C50.0814 43.7889 50.1853 44.6718 49.933 45.4843L46.1983 57.4371L63.6768 39.9218L48.5817 36.9393C47.7458 36.7742 47.0186 36.2605 46.5851 35.5296C46.1486 34.7981 46.0447 33.9152 46.2999 33.1033L50.034 21.1534L32.5561 38.6658ZM39.103 71.1516C38.7674 71.0853 38.44 70.9626 38.1313 70.7762C36.9518 70.06 36.4083 68.6315 36.8212 67.3156L43.2091 46.8873L25.886 43.4646C24.8 43.2501 23.9203 42.4555 23.5972 41.3978C23.2746 40.3372 23.5632 39.1863 24.345 38.4019L54.4243 8.26372C55.3981 7.28185 56.9144 7.09829 58.0969 7.81509C59.28 8.52894 59.8228 9.96031 59.4099 11.2762L53.0227 31.7016L70.3458 35.1243C71.4318 35.3388 72.3109 36.1364 72.634 37.194C72.9565 38.2547 72.6686 39.4026 71.8867 40.187L41.8069 70.3281C41.0855 71.0541 40.0624 71.3412 39.103 71.1516Z" fill="white"/>
</mask>
<g mask="url(#mask1)">
<rect x="19.7764" y="-3" width="72" height="72" transform="rotate(11.1766 19.7764 -3)" fill="#0066FF"/>
</g>
</g>
<path fill-rule="evenodd" clip-rule="evenodd" d="M20.6734 5.7599C20.1404 5.90355 19.8247 6.45366 19.9681 6.98568L22.1905 15.2314C22.2837 15.5771 22.1854 15.9464 21.9315 16.1992C21.1775 16.9524 20.8819 18.0615 21.1599 19.0927C21.5903 20.6897 23.2402 21.639 24.8372 21.2086C26.4342 20.7782 27.3836 19.1283 26.9531 17.5313C26.6752 16.5001 25.8623 15.6897 24.832 15.4174C24.4854 15.3265 24.2148 15.0566 24.1216 14.711L21.8992 6.4652C21.8297 6.2074 21.6662 5.99668 21.4415 5.8698C21.1963 5.72462 20.9312 5.69041 20.6734 5.7599ZM25.3577 23.1397C22.6957 23.8572 19.9463 22.2752 19.2288 19.6132C18.8176 18.0876 19.16 16.4604 20.1197 15.2334L18.037 7.50615C17.6066 5.90914 18.5559 4.25924 20.1529 3.82881C20.937 3.61749 21.7475 3.72735 22.4388 4.13655C23.1176 4.51492 23.6192 5.16167 23.8303 5.94473L25.913 13.672C27.3594 14.2505 28.4731 15.4852 28.8842 17.0108C29.6017 19.6728 28.0197 22.4222 25.3577 23.1397ZM11.7987 11.2589L10.8331 11.5191C10.3021 11.6623 9.75049 11.3449 9.60736 10.8138C9.46423 10.2828 9.78161 9.73119 10.3127 9.58806L11.2782 9.32782L11.018 8.36227C10.8748 7.83122 11.1922 7.27962 11.7233 7.13649C12.2543 6.99336 12.8059 7.31075 12.9491 7.8418L13.2093 8.80734L14.1748 8.54711C14.7059 8.40397 15.2575 8.72136 15.4006 9.25241C15.5438 9.78346 15.2264 10.3351 14.6953 10.4782L13.7298 10.7384L13.99 11.704C14.1331 12.235 13.8158 12.7866 13.2847 12.9298C12.7537 13.0729 12.2021 12.7555 12.0589 12.2245L11.7987 11.2589Z" fill="#231F20"/>
<mask id="mask2" mask-type="alpha" maskUnits="userSpaceOnUse" x="8" y="2" width="23" height="25">
<path fill-rule="evenodd" clip-rule="evenodd" d="M20.6734 5.7599C20.1404 5.90355 19.8247 6.45366 19.9681 6.98568L22.1905 15.2314C22.2837 15.5771 22.1854 15.9464 21.9315 16.1992C21.1775 16.9524 20.8819 18.0615 21.1599 19.0927C21.5903 20.6897 23.2402 21.639 24.8372 21.2086C26.4342 20.7782 27.3836 19.1283 26.9531 17.5313C26.6752 16.5001 25.8623 15.6897 24.832 15.4174C24.4854 15.3265 24.2148 15.0566 24.1216 14.711L21.8992 6.4652C21.8297 6.2074 21.6662 5.99668 21.4415 5.8698C21.1963 5.72462 20.9312 5.69041 20.6734 5.7599ZM25.3577 23.1397C22.6957 23.8572 19.9463 22.2752 19.2288 19.6132C18.8176 18.0876 19.16 16.4604 20.1197 15.2334L18.037 7.50615C17.6066 5.90914 18.5559 4.25924 20.1529 3.82881C20.937 3.61749 21.7475 3.72735 22.4388 4.13655C23.1176 4.51492 23.6192 5.16167 23.8303 5.94473L25.913 13.672C27.3594 14.2505 28.4731 15.4852 28.8842 17.0108C29.6017 19.6728 28.0197 22.4222 25.3577 23.1397ZM11.7987 11.2589L10.8331 11.5191C10.3021 11.6623 9.75049 11.3449 9.60736 10.8138C9.46423 10.2828 9.78161 9.73119 10.3127 9.58806L11.2782 9.32782L11.018 8.36227C10.8748 7.83122 11.1922 7.27962 11.7233 7.13649C12.2543 6.99336 12.8059 7.31075 12.9491 7.8418L13.2093 8.80734L14.1748 8.54711C14.7059 8.40397 15.2575 8.72136 15.4006 9.25241C15.5438 9.78346 15.2264 10.3351 14.6953 10.4782L13.7298 10.7384L13.99 11.704C14.1331 12.235 13.8158 12.7866 13.2847 12.9298C12.7537 13.0729 12.2021 12.7555 12.0589 12.2245L11.7987 11.2589Z" fill="white"/>
</mask>
<g mask="url(#mask2)">
<rect x="6.11523" y="5.54102" width="24" height="24" transform="rotate(-15.0842 6.11523 5.54102)" fill="#0066FF"/>
</g>
</g>
<defs>
<filter id="filter0_d" x="1.82031" y="-3" width="92.5905" height="92.5905" filterUnits="userSpaceOnUse" color-interpolation-filters="sRGB">
<feFlood flood-opacity="0" result="BackgroundImageFix"/>
<feColorMatrix in="SourceAlpha" type="matrix" values="0 0 0 0 0 0 0 0 0 0 0 0 0 0 0 0 0 0 127 0"/>
<feOffset dy="4"/>
<feGaussianBlur stdDeviation="2"/>
<feColorMatrix type="matrix" values="0 0 0 0 0 0 0 0 0 0.4 0 0 0 0 1 0 0 0 0.25 0"/>
<feBlend mode="normal" in2="BackgroundImageFix" result="effect1_dropShadow"/>
<feBlend mode="normal" in="SourceGraphic" in2="effect1_dropShadow" result="shape"/>
</filter>
</defs>
</svg>
