<svg width="80" height="80" viewBox="0 0 80 80" fill="none" xmlns="http://www.w3.org/2000/svg">
<mask id="mask0" mask-type="alpha" maskUnits="userSpaceOnUse" x="0" y="0" width="80" height="80">
<rect width="80" height="80" fill="#C4C4C4"/>
</mask>
<g mask="url(#mask0)">
<path d="M38.1721 4.69044C20.9116 -8.94676 7.54008 10.3726 3.01187 21.7369C0.348216 26.4721 -2.98135 41.8681 5.00961 65.5708C14.9983 95.1993 46.9621 73.2824 71.7341 52.583C96.5061 31.8837 59.7477 21.7369 38.1721 4.69044Z" fill="#FFD373" fill-opacity="0.4"/>
<g filter="url(#filter0_d)">
<path fill-rule="evenodd" clip-rule="evenodd" d="M40 22C41.656 22 43 20.659 43 19V13C43 11.341 41.656 10 40 10C38.344 10 37 11.341 37 13V19C37 20.659 38.344 22 40 22ZM40 46C36.691 46 34 43.309 34 40C34 36.691 36.691 34 40 34C43.309 34 46 36.691 46 40C46 43.309 43.309 46 40 46ZM40 28C33.382 28 28 33.382 28 40C28 46.618 33.382 52 40 52C46.618 52 52 46.618 52 40C52 33.382 46.618 28 40 28ZM61 37H67C68.656 37 70 38.341 70 40C70 41.659 68.656 43 67 43H61C59.344 43 58 41.659 58 40C58 38.341 59.344 37 61 37ZM22 40C22 38.341 20.656 37 19 37H13C11.344 37 10 38.341 10 40C10 41.659 11.344 43 13 43H19C20.656 43 22 41.659 22 40ZM18.4195 19.159C19.5715 17.971 21.4705 17.935 22.6615 19.084L26.9785 23.254C28.1695 24.403 28.2025 26.305 27.0505 27.496C26.4625 28.105 25.6795 28.411 24.8935 28.411C24.1435 28.411 23.3935 28.135 22.8085 27.571L18.4915 23.401C17.3005 22.252 17.2675 20.35 18.4195 19.159ZM55.1056 28.4133C55.8556 28.4133 56.6056 28.1343 57.1906 27.5733L61.5076 23.4033C62.6986 22.2513 62.7316 20.3493 61.5796 19.1613C60.4306 17.9733 58.5346 17.9373 57.3376 19.0863L53.0206 23.2533C51.8296 24.4053 51.7966 26.3073 52.9486 27.4953C53.5366 28.1043 54.3196 28.4133 55.1056 28.4133ZM37 61C37 59.341 38.344 58 40 58C41.656 58 43 59.341 43 61V67C43 68.659 41.656 70 40 70C38.344 70 37 68.659 37 67V61ZM57.1904 52.4287C55.9994 51.2797 54.1004 51.3157 52.9484 52.5037C51.7964 53.6947 51.8294 55.5967 53.0204 56.7457L57.3374 60.9157C57.9224 61.4797 58.6724 61.7557 59.4224 61.7557C60.2084 61.7557 60.9914 61.4497 61.5794 60.8407C62.7314 59.6497 62.6984 57.7477 61.5074 56.5987L57.1904 52.4287ZM18.4938 56.5987L22.8108 52.4287C24.0048 51.2797 25.9038 51.3157 27.0528 52.5037C28.2048 53.6947 28.1718 55.5967 26.9808 56.7457L22.6638 60.9157C22.0788 61.4797 21.3288 61.7557 20.5788 61.7557C19.7928 61.7557 19.0098 61.4497 18.4218 60.8407C17.2698 59.6497 17.3028 57.7477 18.4938 56.5987Z" fill="#231F20"/>
<mask id="mask1" mask-type="alpha" maskUnits="userSpaceOnUse" x="10" y="10" width="60" height="60">
<path fill-rule="evenodd" clip-rule="evenodd" d="M40 22C41.656 22 43 20.659 43 19V13C43 11.341 41.656 10 40 10C38.344 10 37 11.341 37 13V19C37 20.659 38.344 22 40 22ZM40 46C36.691 46 34 43.309 34 40C34 36.691 36.691 34 40 34C43.309 34 46 36.691 46 40C46 43.309 43.309 46 40 46ZM40 28C33.382 28 28 33.382 28 40C28 46.618 33.382 52 40 52C46.618 52 52 46.618 52 40C52 33.382 46.618 28 40 28ZM61 37H67C68.656 37 70 38.341 70 40C70 41.659 68.656 43 67 43H61C59.344 43 58 41.659 58 40C58 38.341 59.344 37 61 37ZM22 40C22 38.341 20.656 37 19 37H13C11.344 37 10 38.341 10 40C10 41.659 11.344 43 13 43H19C20.656 43 22 41.659 22 40ZM18.4195 19.159C19.5715 17.971 21.4705 17.935 22.6615 19.084L26.9785 23.254C28.1695 24.403 28.2025 26.305 27.0505 27.496C26.4625 28.105 25.6795 28.411 24.8935 28.411C24.1435 28.411 23.3935 28.135 22.8085 27.571L18.4915 23.401C17.3005 22.252 17.2675 20.35 18.4195 19.159ZM55.1056 28.4133C55.8556 28.4133 56.6056 28.1343 57.1906 27.5733L61.5076 23.4033C62.6986 22.2513 62.7316 20.3493 61.5796 19.1613C60.4306 17.9733 58.5346 17.9373 57.3376 19.0863L53.0206 23.2533C51.8296 24.4053 51.7966 26.3073 52.9486 27.4953C53.5366 28.1043 54.3196 28.4133 55.1056 28.4133ZM37 61C37 59.341 38.344 58 40 58C41.656 58 43 59.341 43 61V67C43 68.659 41.656 70 40 70C38.344 70 37 68.659 37 67V61ZM57.1904 52.4287C55.9994 51.2797 54.1004 51.3157 52.9484 52.5037C51.7964 53.6947 51.8294 55.5967 53.0204 56.7457L57.3374 60.9157C57.9224 61.4797 58.6724 61.7557 59.4224 61.7557C60.2084 61.7557 60.9914 61.4497 61.5794 60.8407C62.7314 59.6497 62.6984 57.7477 61.5074 56.5987L57.1904 52.4287ZM18.4938 56.5987L22.8108 52.4287C24.0048 51.2797 25.9038 51.3157 27.0528 52.5037C28.2048 53.6947 28.1718 55.5967 26.9808 56.7457L22.6638 60.9157C22.0788 61.4797 21.3288 61.7557 20.5788 61.7557C19.7928 61.7557 19.0098 61.4497 18.4218 60.8407C17.2698 59.6497 17.3028 57.7477 18.4938 56.5987Z" fill="white"/>
</mask>
<g mask="url(#mask1)">
<rect x="4" y="4" width="72" height="72" fill="#FF991C"/>
</g>
</g>
</g>
<defs>
<filter id="filter0_d" x="0" y="4" width="80" height="80" filterUnits="userSpaceOnUse" color-interpolation-filters="sRGB">
<feFlood flood-opacity="0" result="BackgroundImageFix"/>
<feColorMatrix in="SourceAlpha" type="matrix" values="0 0 0 0 0 0 0 0 0 0 0 0 0 0 0 0 0 0 127 0"/>
<feOffset dy="4"/>
<feGaussianBlur stdDeviation="2"/>
<feColorMatrix type="matrix" values="0 0 0 0 1 0 0 0 0 0.6 0 0 0 0 0.109804 0 0 0 0.25 0"/>
<feBlend mode="normal" in2="BackgroundImageFix" result="effect1_dropShadow"/>
<feBlend mode="normal" in="SourceGraphic" in2="effect1_dropShadow" result="shape"/>
</filter>
</defs>
</svg>
