<svg width="80" height="80" viewBox="0 0 80 80" fill="none" xmlns="http://www.w3.org/2000/svg">
<mask id="mask0" mask-type="alpha" maskUnits="userSpaceOnUse" x="0" y="0" width="80" height="80">
<rect width="80" height="80" fill="#C4C4C4"/>
</mask>
<g mask="url(#mask0)">
<path d="M29.9672 5.41554C10.3886 -14.4182 1.83133 24.9739 0 47.1491C0 98.3863 21.2938 75.5605 62.3958 70.9964C107.551 65.9823 54.4404 30.2078 29.9672 5.41554Z" fill="#3DCD90" fill-opacity="0.4"/>
<g filter="url(#filter0_d)">
<path fill-rule="evenodd" clip-rule="evenodd" d="M54.6669 58.9545C54.1509 57.6555 53.4189 56.5215 52.7769 55.5525C52.4529 55.0665 52.1199 54.5715 51.8289 54.0615C50.6619 52.0335 51.0639 51.2115 52.9569 48.0405L53.2629 47.5215C54.7959 44.9385 54.8799 42.4605 54.9579 40.2765C54.9939 39.2025 55.0299 38.1915 55.2369 37.2405C55.7199 35.0445 60.3609 34.4595 63.2379 34.1145C63.7209 36.0015 63.9999 37.9665 63.9999 40.0005C63.9999 47.7075 60.3339 54.5595 54.6669 58.9545ZM18.8858 51.3983C20.7938 51.8843 22.8608 52.2203 24.9638 52.2203C28.2038 52.2203 31.5128 51.4283 34.3748 49.1873C39.5228 45.1613 39.5228 40.0133 39.5228 35.8733C39.5228 33.1973 39.5228 30.8903 40.6388 28.8413C41.2388 27.7433 42.5168 26.9813 43.9958 26.0963C44.9018 25.5533 45.8408 24.9953 46.7408 24.2873C48.6698 22.7783 50.1038 20.8373 50.9918 18.6893C55.1918 20.8643 58.6718 24.2333 60.9698 28.3583C56.6858 28.9523 50.6048 30.3563 49.3778 35.9573C49.0538 37.4393 49.0028 38.8343 48.9638 40.0673C48.9008 41.8163 48.8528 43.1993 48.1028 44.4653L47.8028 44.9693C45.8618 48.2183 43.6658 51.9023 46.6268 57.0533C46.9838 57.6773 47.3828 58.2773 47.7758 58.8743C48.8078 60.4223 49.3148 61.2773 49.3178 62.1173C46.4528 63.3293 43.3028 64.0013 39.9998 64.0013C30.8888 64.0013 22.9508 58.8953 18.8858 51.3983ZM40 16.0004C41.848 16.0004 43.633 16.2284 45.361 16.6244C44.854 17.7404 44.071 18.7574 43.039 19.5644C42.385 20.0804 41.65 20.5094 40.921 20.9444C38.968 22.1084 36.757 23.4284 35.371 25.9664C33.523 29.3564 33.523 32.8184 33.523 35.8724C33.523 39.9374 33.391 42.3404 30.679 44.4614C26.572 47.6804 20.287 45.8834 16.399 44.2484C16.153 42.8654 16 41.4494 16 40.0004C16 26.7674 26.767 16.0004 40 16.0004ZM40 10.0004C23.458 10.0004 10 23.4584 10 40.0004C10 56.5394 23.458 70.0004 40 70.0004C56.542 70.0004 70 56.5394 70 40.0004C70 23.4584 56.542 10.0004 40 10.0004Z" fill="#231F20"/>
<mask id="mask1" mask-type="alpha" maskUnits="userSpaceOnUse" x="10" y="10" width="60" height="61">
<path fill-rule="evenodd" clip-rule="evenodd" d="M54.6669 58.9545C54.1509 57.6555 53.4189 56.5215 52.7769 55.5525C52.4529 55.0665 52.1199 54.5715 51.8289 54.0615C50.6619 52.0335 51.0639 51.2115 52.9569 48.0405L53.2629 47.5215C54.7959 44.9385 54.8799 42.4605 54.9579 40.2765C54.9939 39.2025 55.0299 38.1915 55.2369 37.2405C55.7199 35.0445 60.3609 34.4595 63.2379 34.1145C63.7209 36.0015 63.9999 37.9665 63.9999 40.0005C63.9999 47.7075 60.3339 54.5595 54.6669 58.9545ZM18.8858 51.3983C20.7938 51.8843 22.8608 52.2203 24.9638 52.2203C28.2038 52.2203 31.5128 51.4283 34.3748 49.1873C39.5228 45.1613 39.5228 40.0133 39.5228 35.8733C39.5228 33.1973 39.5228 30.8903 40.6388 28.8413C41.2388 27.7433 42.5168 26.9813 43.9958 26.0963C44.9018 25.5533 45.8408 24.9953 46.7408 24.2873C48.6698 22.7783 50.1038 20.8373 50.9918 18.6893C55.1918 20.8643 58.6718 24.2333 60.9698 28.3583C56.6858 28.9523 50.6048 30.3563 49.3778 35.9573C49.0538 37.4393 49.0028 38.8343 48.9638 40.0673C48.9008 41.8163 48.8528 43.1993 48.1028 44.4653L47.8028 44.9693C45.8618 48.2183 43.6658 51.9023 46.6268 57.0533C46.9838 57.6773 47.3828 58.2773 47.7758 58.8743C48.8078 60.4223 49.3148 61.2773 49.3178 62.1173C46.4528 63.3293 43.3028 64.0013 39.9998 64.0013C30.8888 64.0013 22.9508 58.8953 18.8858 51.3983ZM40 16.0004C41.848 16.0004 43.633 16.2284 45.361 16.6244C44.854 17.7404 44.071 18.7574 43.039 19.5644C42.385 20.0804 41.65 20.5094 40.921 20.9444C38.968 22.1084 36.757 23.4284 35.371 25.9664C33.523 29.3564 33.523 32.8184 33.523 35.8724C33.523 39.9374 33.391 42.3404 30.679 44.4614C26.572 47.6804 20.287 45.8834 16.399 44.2484C16.153 42.8654 16 41.4494 16 40.0004C16 26.7674 26.767 16.0004 40 16.0004ZM40 10.0004C23.458 10.0004 10 23.4584 10 40.0004C10 56.5394 23.458 70.0004 40 70.0004C56.542 70.0004 70 56.5394 70 40.0004C70 23.4584 56.542 10.0004 40 10.0004Z" fill="white"/>
</mask>
<g mask="url(#mask1)">
<rect x="4" y="4" width="72" height="72" fill="#3DCD90"/>
</g>
</g>
<path d="M5 31C5.66667 25 10.5 11.9 24.5 7.5" stroke="#3DCD90" stroke-width="3" stroke-linecap="round"/>
</g>
<defs>
<filter id="filter0_d" x="0" y="4" width="80" height="80" filterUnits="userSpaceOnUse" color-interpolation-filters="sRGB">
<feFlood flood-opacity="0" result="BackgroundImageFix"/>
<feColorMatrix in="SourceAlpha" type="matrix" values="0 0 0 0 0 0 0 0 0 0 0 0 0 0 0 0 0 0 127 0"/>
<feOffset dy="4"/>
<feGaussianBlur stdDeviation="2"/>
<feColorMatrix type="matrix" values="0 0 0 0 0.239216 0 0 0 0 0.803922 0 0 0 0 0.564706 0 0 0 0.25 0"/>
<feBlend mode="normal" in2="BackgroundImageFix" result="effect1_dropShadow"/>
<feBlend mode="normal" in="SourceGraphic" in2="effect1_dropShadow" result="shape"/>
</filter>
</defs>
</svg>
