<svg width="80" height="81" viewBox="0 0 80 81" fill="none" xmlns="http://www.w3.org/2000/svg">
<mask id="mask0" mask-type="alpha" maskUnits="userSpaceOnUse" x="0" y="0" width="80" height="81">
<rect width="80" height="81" fill="#C4C4C4"/>
</mask>
<g mask="url(#mask0)">
<path d="M34.8988 12.0557C28.5321 -2.4033 21.2992 -12.3384 5.05492 34.0025C-11.1894 80.3433 15.7612 78.8782 29.0334 67.9805C42.3055 57.0829 28.3517 63.0319 58.5272 76.8024C88.7027 90.5729 83.3081 55.6535 65.4059 51.646C47.5037 47.6385 42.8572 30.1295 34.8988 12.0557Z" fill="#BCFF79" fill-opacity="0.4"/>
<g filter="url(#filter0_d)">
<path fill-rule="evenodd" clip-rule="evenodd" d="M38.6533 64H42.4063V61.699C42.4063 58.894 44.1313 56.374 46.7983 55.273C49.5583 54.124 52.5733 54.688 54.5593 56.686L56.1763 58.309L58.8403 55.645L57.2053 54.013C55.2163 52.027 54.6553 49.015 55.7743 46.342C55.7743 46.342 55.7773 46.339 55.7773 46.336L55.8103 46.252C56.9023 43.603 59.4253 41.875 62.2303 41.875H64.5283V38.125H62.2303C59.4253 38.125 56.9023 36.4 55.8043 33.733C54.6493 30.973 55.2163 27.958 57.2143 25.969L58.8373 24.352L56.1763 21.691L54.5413 23.326C52.5553 25.312 49.5463 25.873 46.8733 24.757C44.1343 23.626 42.4063 21.106 42.4063 18.301V16H38.6533V18.301C38.6533 21.106 36.9283 23.626 34.2613 24.727C31.5043 25.882 28.4893 25.315 26.5003 23.314L24.8833 21.691L22.2193 24.355L23.8543 25.987C25.8403 27.973 26.4043 30.985 25.2853 33.658C24.1573 36.397 21.6343 38.125 18.8293 38.125H16.5283V41.875H18.8293C21.6343 41.875 24.1573 43.6 25.2553 46.267C26.4103 49.027 25.8433 52.042 23.8453 54.031L22.2223 55.648L24.8833 58.309L26.5183 56.674C28.5043 54.688 31.5133 54.127 34.1863 55.243C36.9253 56.374 38.6533 58.894 38.6533 61.699V64ZM43.3573 70H37.6813C34.9093 70 32.6533 67.744 32.6533 64.972V61.699C32.6533 61.258 32.3023 60.955 31.9723 60.82C31.5403 60.643 31.0783 60.607 30.7603 60.916L28.4503 63.229C26.4823 65.191 23.2843 65.197 21.3193 63.229L17.2993 59.209C16.3453 58.255 15.8233 56.989 15.8233 55.639C15.8263 54.292 16.3513 53.026 17.3083 52.072L19.6123 49.777C19.9273 49.462 19.8943 49 19.7533 48.667C19.5733 48.226 19.2733 47.875 18.8293 47.875H15.5773C12.7933 47.875 10.5283 45.613 10.5283 42.829V37.153C10.5283 34.378 12.7843 32.125 15.5593 32.125H18.8293C19.2703 32.125 19.5733 31.771 19.7083 31.441C19.8883 31.009 19.9243 30.544 19.6123 30.232L17.2993 27.922C15.3373 25.951 15.3373 22.753 17.2993 20.791L21.3193 16.771C22.2733 15.817 23.5363 15.295 24.8833 15.295H24.8893C26.2363 15.295 27.5053 15.82 28.4563 16.777L30.7513 19.084C31.0663 19.402 31.5313 19.366 31.8643 19.225C32.3023 19.042 32.6533 18.742 32.6533 18.301V15.049C32.6533 12.265 34.9183 10 37.7023 10H43.3783C46.1503 10 48.4063 12.256 48.4063 15.028V18.301C48.4063 18.742 48.7573 19.045 49.0873 19.18C49.5223 19.36 49.9843 19.399 50.2993 19.084L52.6093 16.771C54.5773 14.809 57.7753 14.803 59.7403 16.771L63.7633 20.794C64.7173 21.745 65.2393 23.011 65.2363 24.361C65.2363 25.705 64.7113 26.974 63.7543 27.925L61.4473 30.223C61.1323 30.538 61.1653 31 61.3063 31.333C61.4863 31.774 61.7863 32.125 62.2303 32.125H65.4823C68.2663 32.125 70.5283 34.387 70.5283 37.171V42.847C70.5283 45.622 68.2753 47.875 65.5003 47.875H62.2303C61.7893 47.875 61.4863 48.229 61.3513 48.559C61.3483 48.562 61.3123 48.652 61.3093 48.658C61.1713 48.991 61.1353 49.456 61.4473 49.768L63.7603 52.078C65.7223 54.049 65.7223 57.247 63.7603 59.209L59.7403 63.229C58.7863 64.183 57.5233 64.705 56.1763 64.705H56.1703C54.8233 64.705 53.5543 64.18 52.6033 63.223L50.3083 60.916C49.9933 60.601 49.5253 60.637 49.1953 60.775C48.7573 60.958 48.4063 61.258 48.4063 61.699V64.951C48.4063 67.735 46.1413 70 43.3573 70ZM40.5308 35.5C38.0498 35.5 36.0308 37.519 36.0308 40C36.0308 42.481 38.0498 44.5 40.5308 44.5C43.0118 44.5 45.0308 42.481 45.0308 40C45.0308 37.519 43.0118 35.5 40.5308 35.5ZM40.5308 50.5C34.7408 50.5 30.0308 45.79 30.0308 40C30.0308 34.21 34.7408 29.5 40.5308 29.5C46.3208 29.5 51.0308 34.21 51.0308 40C51.0308 45.79 46.3208 50.5 40.5308 50.5Z" fill="#231F20"/>
<mask id="mask1" mask-type="alpha" maskUnits="userSpaceOnUse" x="10" y="10" width="61" height="60">
<path fill-rule="evenodd" clip-rule="evenodd" d="M38.6533 64H42.4063V61.699C42.4063 58.894 44.1313 56.374 46.7983 55.273C49.5583 54.124 52.5733 54.688 54.5593 56.686L56.1763 58.309L58.8403 55.645L57.2053 54.013C55.2163 52.027 54.6553 49.015 55.7743 46.342C55.7743 46.342 55.7773 46.339 55.7773 46.336L55.8103 46.252C56.9023 43.603 59.4253 41.875 62.2303 41.875H64.5283V38.125H62.2303C59.4253 38.125 56.9023 36.4 55.8043 33.733C54.6493 30.973 55.2163 27.958 57.2143 25.969L58.8373 24.352L56.1763 21.691L54.5413 23.326C52.5553 25.312 49.5463 25.873 46.8733 24.757C44.1343 23.626 42.4063 21.106 42.4063 18.301V16H38.6533V18.301C38.6533 21.106 36.9283 23.626 34.2613 24.727C31.5043 25.882 28.4893 25.315 26.5003 23.314L24.8833 21.691L22.2193 24.355L23.8543 25.987C25.8403 27.973 26.4043 30.985 25.2853 33.658C24.1573 36.397 21.6343 38.125 18.8293 38.125H16.5283V41.875H18.8293C21.6343 41.875 24.1573 43.6 25.2553 46.267C26.4103 49.027 25.8433 52.042 23.8453 54.031L22.2223 55.648L24.8833 58.309L26.5183 56.674C28.5043 54.688 31.5133 54.127 34.1863 55.243C36.9253 56.374 38.6533 58.894 38.6533 61.699V64ZM43.3573 70H37.6813C34.9093 70 32.6533 67.744 32.6533 64.972V61.699C32.6533 61.258 32.3023 60.955 31.9723 60.82C31.5403 60.643 31.0783 60.607 30.7603 60.916L28.4503 63.229C26.4823 65.191 23.2843 65.197 21.3193 63.229L17.2993 59.209C16.3453 58.255 15.8233 56.989 15.8233 55.639C15.8263 54.292 16.3513 53.026 17.3083 52.072L19.6123 49.777C19.9273 49.462 19.8943 49 19.7533 48.667C19.5733 48.226 19.2733 47.875 18.8293 47.875H15.5773C12.7933 47.875 10.5283 45.613 10.5283 42.829V37.153C10.5283 34.378 12.7843 32.125 15.5593 32.125H18.8293C19.2703 32.125 19.5733 31.771 19.7083 31.441C19.8883 31.009 19.9243 30.544 19.6123 30.232L17.2993 27.922C15.3373 25.951 15.3373 22.753 17.2993 20.791L21.3193 16.771C22.2733 15.817 23.5363 15.295 24.8833 15.295H24.8893C26.2363 15.295 27.5053 15.82 28.4563 16.777L30.7513 19.084C31.0663 19.402 31.5313 19.366 31.8643 19.225C32.3023 19.042 32.6533 18.742 32.6533 18.301V15.049C32.6533 12.265 34.9183 10 37.7023 10H43.3783C46.1503 10 48.4063 12.256 48.4063 15.028V18.301C48.4063 18.742 48.7573 19.045 49.0873 19.18C49.5223 19.36 49.9843 19.399 50.2993 19.084L52.6093 16.771C54.5773 14.809 57.7753 14.803 59.7403 16.771L63.7633 20.794C64.7173 21.745 65.2393 23.011 65.2363 24.361C65.2363 25.705 64.7113 26.974 63.7543 27.925L61.4473 30.223C61.1323 30.538 61.1653 31 61.3063 31.333C61.4863 31.774 61.7863 32.125 62.2303 32.125H65.4823C68.2663 32.125 70.5283 34.387 70.5283 37.171V42.847C70.5283 45.622 68.2753 47.875 65.5003 47.875H62.2303C61.7893 47.875 61.4863 48.229 61.3513 48.559C61.3483 48.562 61.3123 48.652 61.3093 48.658C61.1713 48.991 61.1353 49.456 61.4473 49.768L63.7603 52.078C65.7223 54.049 65.7223 57.247 63.7603 59.209L59.7403 63.229C58.7863 64.183 57.5233 64.705 56.1763 64.705H56.1703C54.8233 64.705 53.5543 64.18 52.6033 63.223L50.3083 60.916C49.9933 60.601 49.5253 60.637 49.1953 60.775C48.7573 60.958 48.4063 61.258 48.4063 61.699V64.951C48.4063 67.735 46.1413 70 43.3573 70ZM40.5308 35.5C38.0498 35.5 36.0308 37.519 36.0308 40C36.0308 42.481 38.0498 44.5 40.5308 44.5C43.0118 44.5 45.0308 42.481 45.0308 40C45.0308 37.519 43.0118 35.5 40.5308 35.5ZM40.5308 50.5C34.7408 50.5 30.0308 45.79 30.0308 40C30.0308 34.21 34.7408 29.5 40.5308 29.5C46.3208 29.5 51.0308 34.21 51.0308 40C51.0308 45.79 46.3208 50.5 40.5308 50.5Z" fill="white"/>
</mask>
<g mask="url(#mask1)">
<rect x="4.53125" y="4" width="72" height="72" fill="#73EF7F"/>
</g>
</g>
</g>
<defs>
<filter id="filter0_d" x="0.53125" y="4" width="80" height="80" filterUnits="userSpaceOnUse" color-interpolation-filters="sRGB">
<feFlood flood-opacity="0" result="BackgroundImageFix"/>
<feColorMatrix in="SourceAlpha" type="matrix" values="0 0 0 0 0 0 0 0 0 0 0 0 0 0 0 0 0 0 127 0"/>
<feOffset dy="4"/>
<feGaussianBlur stdDeviation="2"/>
<feColorMatrix type="matrix" values="0 0 0 0 0.737255 0 0 0 0 1 0 0 0 0 0.47451 0 0 0 0.25 0"/>
<feBlend mode="normal" in2="BackgroundImageFix" result="effect1_dropShadow"/>
<feBlend mode="normal" in="SourceGraphic" in2="effect1_dropShadow" result="shape"/>
</filter>
</defs>
</svg>
