<svg width="80" height="80" viewBox="0 0 80 80" fill="none" xmlns="http://www.w3.org/2000/svg">
<mask id="mask0" mask-type="alpha" maskUnits="userSpaceOnUse" x="0" y="0" width="80" height="80">
<rect width="80" height="80" fill="#C4C4C4"/>
</mask>
<g mask="url(#mask0)">
<path d="M40.0017 3.66282C31.3867 -5.58587 7.6954 3.66281 13.849 20.4061C20.0026 37.1494 -0.304215 28.3791 0.00346398 60.2711C0.388063 100.136 50.7705 68.6427 69.2312 60.2711C87.692 51.8994 81.1538 29.575 59.2317 29.575C37.3095 29.575 50.7705 15.2237 40.0017 3.66282Z" fill="#FFBFA0" fill-opacity="0.4"/>
<g filter="url(#filter0_d)">
<path fill-rule="evenodd" clip-rule="evenodd" d="M39.9503 25.9694L23.0993 42.8204L22.3073 51.6884L31.2383 50.8754L48.0383 34.0574L39.9503 25.9694ZM57.8987 24.1872L49.8137 16.1052L43.9697 21.9492L52.0547 30.0372L57.8987 24.1872ZM19.2735 57.9885C19.1805 57.9975 19.0905 58.0005 19.0005 58.0005C18.2085 58.0005 17.4435 57.6885 16.8795 57.1215C16.2495 56.4915 15.9315 55.6155 16.0125 54.7305L17.1495 42.2175C17.2755 40.8465 17.8815 39.5535 18.8565 38.5785L45.8445 11.5875C47.9505 9.47554 51.7725 9.58054 53.9925 11.7975L62.2065 20.0115H62.2095C64.5075 22.3125 64.5975 25.9635 62.4135 28.1535L35.4225 55.1445C34.4475 56.1225 33.1575 56.7255 31.7835 56.8515L19.2735 57.9885ZM19 64H61C62.65 64 64 65.35 64 67C64 68.65 62.65 70 61 70H19C17.35 70 16 68.65 16 67C16 65.35 17.35 64 19 64Z" fill="#231F20"/>
<mask id="mask1" mask-type="alpha" maskUnits="userSpaceOnUse" x="16" y="10" width="48" height="60">
<path fill-rule="evenodd" clip-rule="evenodd" d="M39.9503 25.9694L23.0993 42.8204L22.3073 51.6884L31.2383 50.8754L48.0383 34.0574L39.9503 25.9694ZM57.8987 24.1872L49.8137 16.1052L43.9697 21.9492L52.0547 30.0372L57.8987 24.1872ZM19.2735 57.9885C19.1805 57.9975 19.0905 58.0005 19.0005 58.0005C18.2085 58.0005 17.4435 57.6885 16.8795 57.1215C16.2495 56.4915 15.9315 55.6155 16.0125 54.7305L17.1495 42.2175C17.2755 40.8465 17.8815 39.5535 18.8565 38.5785L45.8445 11.5875C47.9505 9.47554 51.7725 9.58054 53.9925 11.7975L62.2065 20.0115H62.2095C64.5075 22.3125 64.5975 25.9635 62.4135 28.1535L35.4225 55.1445C34.4475 56.1225 33.1575 56.7255 31.7835 56.8515L19.2735 57.9885ZM19 64H61C62.65 64 64 65.35 64 67C64 68.65 62.65 70 61 70H19C17.35 70 16 68.65 16 67C16 65.35 17.35 64 19 64Z" fill="white"/>
</mask>
<g mask="url(#mask1)">
<rect x="4" y="4" width="72" height="72" fill="#FF9D6D"/>
</g>
</g>
</g>
<defs>
<filter id="filter0_d" x="0" y="4" width="80" height="80" filterUnits="userSpaceOnUse" color-interpolation-filters="sRGB">
<feFlood flood-opacity="0" result="BackgroundImageFix"/>
<feColorMatrix in="SourceAlpha" type="matrix" values="0 0 0 0 0 0 0 0 0 0 0 0 0 0 0 0 0 0 127 0"/>
<feOffset dy="4"/>
<feGaussianBlur stdDeviation="2"/>
<feColorMatrix type="matrix" values="0 0 0 0 1 0 0 0 0 0.615686 0 0 0 0 0.427451 0 0 0 0.25 0"/>
<feBlend mode="normal" in2="BackgroundImageFix" result="effect1_dropShadow"/>
<feBlend mode="normal" in="SourceGraphic" in2="effect1_dropShadow" result="shape"/>
</filter>
</defs>
</svg>
