<svg width="80" height="80" viewBox="0 0 80 80" fill="none" xmlns="http://www.w3.org/2000/svg">
<mask id="mask0" mask-type="alpha" maskUnits="userSpaceOnUse" x="0" y="0" width="80" height="80">
<rect width="80" height="80" fill="#C4C4C4"/>
</mask>
<g mask="url(#mask0)">
<path d="M5.09926 9.64761C-5.24625 16.6483 -0.477447 45.2291 5.09928 58.277C10.676 71.325 29.3266 87.613 47.7058 76.0671C61.6143 67.3296 45.6119 62.7616 54.1633 53.9886C62.7147 45.2156 71.0519 81.4053 77.9489 28.8999C84.8459 -23.6056 55.9647 9.64755 44.7571 18.9819C33.5494 28.3162 18.0312 0.896699 5.09926 9.64761Z" fill="#C12AE7" fill-opacity="0.4"/>
<g filter="url(#filter0_d)">
<path fill-rule="evenodd" clip-rule="evenodd" d="M34.5005 23.5C34.5005 21.016 36.5165 19 39.0005 19C41.4845 19 43.5005 21.016 43.5005 23.5C43.5005 25.984 41.4845 28 39.0005 28C36.5165 28 34.5005 25.984 34.5005 23.5ZM47.1035 31.7503C45.8615 29.5993 46.5995 26.8453 48.7505 25.6033C50.9045 24.3613 53.6555 25.0993 54.8975 27.2503C56.1395 29.4043 55.4015 32.1553 53.2505 33.3973C51.0965 34.6393 48.3455 33.9043 47.1035 31.7503ZM29.2505 25.6033C27.0995 24.3613 24.3455 25.0993 23.1035 27.2503C21.8615 29.4043 22.5995 32.1553 24.7505 33.3973C26.9045 34.6393 29.6555 33.9043 30.8975 31.7503C32.1395 29.5993 31.4045 26.8453 29.2505 25.6033ZM20.272 44.0168C18.88 41.9587 19.423 39.1597 21.484 37.7707C23.545 36.3787 26.341 36.9247 27.73 38.9827C29.122 41.0437 28.576 43.8397 26.518 45.2287C24.457 46.6208 21.661 46.0778 20.272 44.0168ZM50.6444 49.003H45.6944C41.5574 49.003 38.1944 52.366 38.1944 56.503C38.1944 58.321 38.8664 60.082 40.0874 61.462C40.4594 61.882 40.5824 62.377 40.4504 62.926C40.3034 63.541 39.5954 63.94 38.6684 64C31.8194 63.907 25.3184 60.874 20.8304 55.681C16.2854 50.416 14.2934 43.669 15.2234 36.685C16.7564 25.186 27.0974 16.099 38.7704 16H38.9954C46.0664 16 52.7294 18.7 57.3164 23.434C61.1804 27.421 63.1964 32.506 62.9864 37.75C62.7494 43.744 56.9804 49.003 50.6444 49.003ZM61.6211 19.2551C55.8521 13.3031 47.4461 9.9791 38.7191 10.0001H38.7161C23.8841 10.1261 11.2241 21.2561 9.27715 35.8931C8.13115 44.4731 10.6901 53.1161 16.2911 59.6021C21.8951 66.0941 30.0221 69.8831 38.5841 70.0001H38.6981C42.2981 70.0001 45.4721 67.6391 46.2791 64.3421C46.8761 61.8761 46.2551 59.3741 44.5781 57.4781C44.3321 57.2051 44.1941 56.8481 44.1941 56.5031C44.1941 55.6781 44.8661 55.0031 45.6941 55.0031H50.6441C60.2201 55.0031 68.6171 47.2091 68.9801 37.9871C69.2561 31.0871 66.6431 24.4361 61.6211 19.2551Z" fill="#231F20"/>
<mask id="mask1" mask-type="alpha" maskUnits="userSpaceOnUse" x="9" y="10" width="60" height="61">
<path fill-rule="evenodd" clip-rule="evenodd" d="M34.5005 23.5C34.5005 21.016 36.5165 19 39.0005 19C41.4845 19 43.5005 21.016 43.5005 23.5C43.5005 25.984 41.4845 28 39.0005 28C36.5165 28 34.5005 25.984 34.5005 23.5ZM47.1035 31.7503C45.8615 29.5993 46.5995 26.8453 48.7505 25.6033C50.9045 24.3613 53.6555 25.0993 54.8975 27.2503C56.1395 29.4043 55.4015 32.1553 53.2505 33.3973C51.0965 34.6393 48.3455 33.9043 47.1035 31.7503ZM29.2505 25.6033C27.0995 24.3613 24.3455 25.0993 23.1035 27.2503C21.8615 29.4043 22.5995 32.1553 24.7505 33.3973C26.9045 34.6393 29.6555 33.9043 30.8975 31.7503C32.1395 29.5993 31.4045 26.8453 29.2505 25.6033ZM20.272 44.0168C18.88 41.9587 19.423 39.1597 21.484 37.7707C23.545 36.3787 26.341 36.9247 27.73 38.9827C29.122 41.0437 28.576 43.8397 26.518 45.2287C24.457 46.6208 21.661 46.0778 20.272 44.0168ZM50.6444 49.003H45.6944C41.5574 49.003 38.1944 52.366 38.1944 56.503C38.1944 58.321 38.8664 60.082 40.0874 61.462C40.4594 61.882 40.5824 62.377 40.4504 62.926C40.3034 63.541 39.5954 63.94 38.6684 64C31.8194 63.907 25.3184 60.874 20.8304 55.681C16.2854 50.416 14.2934 43.669 15.2234 36.685C16.7564 25.186 27.0974 16.099 38.7704 16H38.9954C46.0664 16 52.7294 18.7 57.3164 23.434C61.1804 27.421 63.1964 32.506 62.9864 37.75C62.7494 43.744 56.9804 49.003 50.6444 49.003ZM61.6211 19.2551C55.8521 13.3031 47.4461 9.9791 38.7191 10.0001H38.7161C23.8841 10.1261 11.2241 21.2561 9.27715 35.8931C8.13115 44.4731 10.6901 53.1161 16.2911 59.6021C21.8951 66.0941 30.0221 69.8831 38.5841 70.0001H38.6981C42.2981 70.0001 45.4721 67.6391 46.2791 64.3421C46.8761 61.8761 46.2551 59.3741 44.5781 57.4781C44.3321 57.2051 44.1941 56.8481 44.1941 56.5031C44.1941 55.6781 44.8661 55.0031 45.6941 55.0031H50.6441C60.2201 55.0031 68.6171 47.2091 68.9801 37.9871C69.2561 31.0871 66.6431 24.4361 61.6211 19.2551Z" fill="white"/>
</mask>
<g mask="url(#mask1)">
<rect x="3" y="4" width="72" height="72" fill="#C12AE7"/>
</g>
</g>
</g>
<defs>
<filter id="filter0_d" x="-1" y="4" width="80" height="80" filterUnits="userSpaceOnUse" color-interpolation-filters="sRGB">
<feFlood flood-opacity="0" result="BackgroundImageFix"/>
<feColorMatrix in="SourceAlpha" type="matrix" values="0 0 0 0 0 0 0 0 0 0 0 0 0 0 0 0 0 0 127 0"/>
<feOffset dy="4"/>
<feGaussianBlur stdDeviation="2"/>
<feColorMatrix type="matrix" values="0 0 0 0 0.756863 0 0 0 0 0.164706 0 0 0 0 0.901961 0 0 0 0.25 0"/>
<feBlend mode="normal" in2="BackgroundImageFix" result="effect1_dropShadow"/>
<feBlend mode="normal" in="SourceGraphic" in2="effect1_dropShadow" result="shape"/>
</filter>
</defs>
</svg>
