<svg width="80" height="80" viewBox="0 0 80 80" fill="none" xmlns="http://www.w3.org/2000/svg">
<mask id="mask0" mask-type="alpha" maskUnits="userSpaceOnUse" x="0" y="0" width="80" height="80">
<rect width="80" height="80" fill="#C4C4C4"/>
</mask>
<g mask="url(#mask0)">
<path d="M61.4196 23.5141C75.0126 7.50146 46.5456 -9.23262 25.8283 5.98613C5.11099 21.2049 -7.86618 33.35 5.33912 45.0674C37.6551 73.742 46.307 85.2058 73.1572 77.8143C100.007 70.4228 37.5278 51.6589 61.4196 23.5141Z" fill="#FFD757" fill-opacity="0.4"/>
<g filter="url(#filter0_d)">
<path fill-rule="evenodd" clip-rule="evenodd" d="M58 34C58 32.347 56.656 31 55 31C53.344 31 52 32.347 52 34C52 35.653 53.344 37 55 37C56.656 37 58 35.653 58 34ZM64 34C64 38.962 59.962 43 55 43C50.038 43 46 38.962 46 34C46 29.038 50.038 25 55 25C59.962 25 64 29.038 64 34ZM37 25C37 21.691 34.309 19 31 19C27.691 19 25 21.691 25 25C25 28.309 27.691 31 31 31C34.309 31 37 28.309 37 25ZM43 25C43 31.618 37.618 37 31 37C24.382 37 19 31.618 19 25C19 18.382 24.382 13 31 13C37.618 13 43 18.382 43 25ZM45.82 49.138C48.427 47.122 51.637 46 55 46C63.271 46 70 52.729 70 61C70 62.656 68.659 64 67 64C65.341 64 64 62.656 64 61C64 56.038 59.962 52 55 52C52.951 52 51.004 52.702 49.432 53.947C51.064 56.935 52 60.361 52 64C52 65.656 50.659 67 49 67C47.341 67 46 65.656 46 64C46 55.729 39.271 49 31 49C22.729 49 16 55.729 16 64C16 65.656 14.659 67 13 67C11.341 67 10 65.656 10 64C10 52.42 19.423 43 31 43C36.781 43 42.019 45.349 45.82 49.138Z" fill="#231F20"/>
<mask id="mask1" mask-type="alpha" maskUnits="userSpaceOnUse" x="10" y="13" width="60" height="54">
<path fill-rule="evenodd" clip-rule="evenodd" d="M58 34C58 32.347 56.656 31 55 31C53.344 31 52 32.347 52 34C52 35.653 53.344 37 55 37C56.656 37 58 35.653 58 34ZM64 34C64 38.962 59.962 43 55 43C50.038 43 46 38.962 46 34C46 29.038 50.038 25 55 25C59.962 25 64 29.038 64 34ZM37 25C37 21.691 34.309 19 31 19C27.691 19 25 21.691 25 25C25 28.309 27.691 31 31 31C34.309 31 37 28.309 37 25ZM43 25C43 31.618 37.618 37 31 37C24.382 37 19 31.618 19 25C19 18.382 24.382 13 31 13C37.618 13 43 18.382 43 25ZM45.82 49.138C48.427 47.122 51.637 46 55 46C63.271 46 70 52.729 70 61C70 62.656 68.659 64 67 64C65.341 64 64 62.656 64 61C64 56.038 59.962 52 55 52C52.951 52 51.004 52.702 49.432 53.947C51.064 56.935 52 60.361 52 64C52 65.656 50.659 67 49 67C47.341 67 46 65.656 46 64C46 55.729 39.271 49 31 49C22.729 49 16 55.729 16 64C16 65.656 14.659 67 13 67C11.341 67 10 65.656 10 64C10 52.42 19.423 43 31 43C36.781 43 42.019 45.349 45.82 49.138Z" fill="white"/>
</mask>
<g mask="url(#mask1)">
<rect x="4" y="4" width="72" height="72" fill="#FFCA1D"/>
</g>
</g>
</g>
<defs>
<filter id="filter0_d" x="0" y="4" width="80" height="80" filterUnits="userSpaceOnUse" color-interpolation-filters="sRGB">
<feFlood flood-opacity="0" result="BackgroundImageFix"/>
<feColorMatrix in="SourceAlpha" type="matrix" values="0 0 0 0 0 0 0 0 0 0 0 0 0 0 0 0 0 0 127 0"/>
<feOffset dy="4"/>
<feGaussianBlur stdDeviation="2"/>
<feColorMatrix type="matrix" values="0 0 0 0 1 0 0 0 0 0.843137 0 0 0 0 0.341176 0 0 0 0.25 0"/>
<feBlend mode="normal" in2="BackgroundImageFix" result="effect1_dropShadow"/>
<feBlend mode="normal" in="SourceGraphic" in2="effect1_dropShadow" result="shape"/>
</filter>
</defs>
</svg>
