<svg width="60" height="60" viewBox="0 0 60 60" fill="none" xmlns="http://www.w3.org/2000/svg">
<mask id="mask0" mask-type="alpha" maskUnits="userSpaceOnUse" x="0" y="0" width="60" height="60">
<rect width="60" height="60" fill="#C4C4C4"/>
</mask>
<g mask="url(#mask0)">
<path d="M14.5 19.5016C48.5 37.0007 -22.9999 59.5015 23.5 59.0012C69.9999 58.5008 43.0003 36.0005 56.5 13.5013C69.9997 -8.99791 -19.5001 2.00253 14.5 19.5016Z" fill="#3DCD90"/>
<circle cx="9" cy="29" r="3" fill="#3DCD90"/>
<g filter="url(#filter0_d)">
<path fill-rule="evenodd" clip-rule="evenodd" d="M26.7376 43.696C25.8501 44.0731 24.8197 43.6572 24.4426 42.7697C24.0656 41.8822 24.4815 40.8518 25.369 40.4747L43.0862 32.9472L44.4548 36.1685L26.7376 43.696ZM17.1571 21.1469L34.8743 13.6194L41.7175 29.7259L24.0003 37.2534C23.4318 37.495 22.9447 37.8388 22.5156 38.2341L16.2308 23.4418C15.8537 22.5544 16.2697 21.5239 17.1571 21.1469ZM35.1164 9.71372L15.7885 17.9256C13.1245 19.0574 11.8776 22.1465 13.0095 24.8105L21.2213 44.1383C22.3532 46.8024 25.4422 48.0492 28.1063 46.9173L45.8235 39.3898L47.4341 38.7055C48.3232 38.3278 48.7382 37.2996 48.3604 36.4105L47.6761 34.7999L46.3075 31.5786L37.4113 10.6401C37.0336 9.75098 36.0054 9.33598 35.1164 9.71372Z" fill="#231F20"/>
<mask id="mask1" mask-type="alpha" maskUnits="userSpaceOnUse" x="10" y="9" width="40" height="40">
<path fill-rule="evenodd" clip-rule="evenodd" d="M26.7376 43.696C25.8501 44.0731 24.8197 43.6572 24.4426 42.7697C24.0656 41.8822 24.4815 40.8518 25.369 40.4747L43.0862 32.9472L44.4548 36.1685L26.7376 43.696ZM17.1571 21.1469L34.8743 13.6194L41.7175 29.7259L24.0003 37.2534C23.4318 37.495 22.9447 37.8388 22.5156 38.2341L16.2308 23.4418C15.8537 22.5544 16.2697 21.5239 17.1571 21.1469ZM35.1164 9.71372L15.7885 17.9256C13.1245 19.0574 11.8776 22.1465 13.0095 24.8105L21.2213 44.1383C22.3532 46.8024 25.4422 48.0492 28.1063 46.9173L45.8235 39.3898L47.4341 38.7055C48.3232 38.3278 48.7382 37.2996 48.3604 36.4105L47.6761 34.7999L46.3075 31.5786L37.4113 10.6401C37.0336 9.75098 36.0054 9.33598 35.1164 9.71372Z" fill="white"/>
</mask>
<g mask="url(#mask1)">
<rect x="2.46094" y="17.8838" width="42" height="42" transform="rotate(-23.0192 2.46094 17.8838)" fill="#FFE9B9"/>
</g>
</g>
</g>
<defs>
<filter id="filter0_d" x="-1.53906" y="1.46021" width="63.0794" height="63.0794" filterUnits="userSpaceOnUse" color-interpolation-filters="sRGB">
<feFlood flood-opacity="0" result="BackgroundImageFix"/>
<feColorMatrix in="SourceAlpha" type="matrix" values="0 0 0 0 0 0 0 0 0 0 0 0 0 0 0 0 0 0 127 0"/>
<feOffset dy="4"/>
<feGaussianBlur stdDeviation="2"/>
<feColorMatrix type="matrix" values="0 0 0 0 1 0 0 0 0 0.913725 0 0 0 0 0.72549 0 0 0 0.25 0"/>
<feBlend mode="normal" in2="BackgroundImageFix" result="effect1_dropShadow"/>
<feBlend mode="normal" in="SourceGraphic" in2="effect1_dropShadow" result="shape"/>
</filter>
</defs>
</svg>
