<svg width="60" height="60" viewBox="0 0 60 60" fill="none" xmlns="http://www.w3.org/2000/svg">
<mask id="mask0" mask-type="alpha" maskUnits="userSpaceOnUse" x="0" y="0" width="60" height="60">
<rect width="60" height="60" fill="#C4C4C4"/>
</mask>
<g mask="url(#mask0)">
<path d="M2.50019 33.5002C-5.89981 51.9002 19.6669 58.1669 33.5002 59.0002C64.5002 59.0002 60.5002 26.0002 54.0002 11.5002C47.5002 -2.99976 43.5002 0.500237 33.5002 19.0002C23.5002 37.5002 13.0002 10.5002 2.50019 33.5002Z" fill="#6332CD"/>
<g filter="url(#filter0_d)">
<path fill-rule="evenodd" clip-rule="evenodd" d="M40.1657 32.4412C43.1494 29.9615 45.2232 26.4177 45.7359 22.342C45.8567 21.3847 45.1777 20.5097 44.2169 20.389C43.2719 20.2595 42.3829 20.9472 42.2639 21.9062C41.4957 28.0172 36.2229 32.625 29.9999 32.625C23.7769 32.625 18.5042 28.0172 17.7359 21.9062C17.6169 20.9472 16.7244 20.2665 15.7812 20.389C14.8222 20.5097 14.1432 21.3847 14.2639 22.342C14.7767 26.4177 16.8504 29.9615 19.8342 32.4412L15.7882 36.4872C15.1074 37.168 15.1074 38.281 15.7882 38.9617C16.4672 39.6425 17.5819 39.6425 18.2627 38.9617L22.8179 34.4065C24.4874 35.25 26.3197 35.8065 28.2499 36.0182V42.25C28.2499 43.2125 29.0374 44 29.9999 44C30.9624 44 31.7499 43.2125 31.7499 42.25V36.0182C33.6784 35.8065 35.5124 35.25 37.1802 34.4065L41.7372 38.9617C42.4179 39.6425 43.5309 39.6425 44.2117 38.9617C44.8924 38.281 44.8924 37.168 44.2117 36.4872L40.1657 32.4412Z" fill="#231F20"/>
<mask id="mask1" mask-type="alpha" maskUnits="userSpaceOnUse" x="14" y="20" width="32" height="24">
<path fill-rule="evenodd" clip-rule="evenodd" d="M40.1657 32.4412C43.1494 29.9615 45.2232 26.4177 45.7359 22.342C45.8567 21.3847 45.1777 20.5097 44.2169 20.389C43.2719 20.2595 42.3829 20.9472 42.2639 21.9062C41.4957 28.0172 36.2229 32.625 29.9999 32.625C23.7769 32.625 18.5042 28.0172 17.7359 21.9062C17.6169 20.9472 16.7244 20.2665 15.7812 20.389C14.8222 20.5097 14.1432 21.3847 14.2639 22.342C14.7767 26.4177 16.8504 29.9615 19.8342 32.4412L15.7882 36.4872C15.1074 37.168 15.1074 38.281 15.7882 38.9617C16.4672 39.6425 17.5819 39.6425 18.2627 38.9617L22.8179 34.4065C24.4874 35.25 26.3197 35.8065 28.2499 36.0182V42.25C28.2499 43.2125 29.0374 44 29.9999 44C30.9624 44 31.7499 43.2125 31.7499 42.25V36.0182C33.6784 35.8065 35.5124 35.25 37.1802 34.4065L41.7372 38.9617C42.4179 39.6425 43.5309 39.6425 44.2117 38.9617C44.8924 38.281 44.8924 37.168 44.2117 36.4872L40.1657 32.4412Z" fill="white"/>
</mask>
<g mask="url(#mask1)">
<rect x="9" y="9" width="42" height="42" fill="#F39681"/>
</g>
</g>
<circle cx="20" cy="12" r="6" fill="#6332CD"/>
</g>
<defs>
<filter id="filter0_d" x="5" y="9" width="50" height="50" filterUnits="userSpaceOnUse" color-interpolation-filters="sRGB">
<feFlood flood-opacity="0" result="BackgroundImageFix"/>
<feColorMatrix in="SourceAlpha" type="matrix" values="0 0 0 0 0 0 0 0 0 0 0 0 0 0 0 0 0 0 127 0"/>
<feOffset dy="4"/>
<feGaussianBlur stdDeviation="2"/>
<feColorMatrix type="matrix" values="0 0 0 0 0.952941 0 0 0 0 0.588235 0 0 0 0 0.505882 0 0 0 0.25 0"/>
<feBlend mode="normal" in2="BackgroundImageFix" result="effect1_dropShadow"/>
<feBlend mode="normal" in="SourceGraphic" in2="effect1_dropShadow" result="shape"/>
</filter>
</defs>
</svg>
