<svg width="60" height="60" viewBox="0 0 60 60" fill="none" xmlns="http://www.w3.org/2000/svg">
<mask id="mask0" mask-type="alpha" maskUnits="userSpaceOnUse" x="0" y="0" width="60" height="60">
<rect width="60" height="60" fill="#C4C4C4"/>
</mask>
<g mask="url(#mask0)">
<path d="M25.9998 3.50011C21.1998 -0.099889 10.6665 10.6668 5.99983 16.5001C-4.55768 27.0002 5.99982 38.5 18.9998 42.5C31.9998 46.5 22.9998 54.5 39.4998 57.5C55.9998 60.5 53.4998 37.5 56.4998 30C59.4998 22.5 53.4998 16.5001 39.4998 16.5001C25.4998 16.5001 31.9998 8.00011 25.9998 3.50011Z" fill="#FFE9B9"/>
<path d="M26.3138 3.72033C21.5138 0.120326 10.9805 10.887 6.31379 16.7203C-4.24372 27.2204 6.31379 38.7202 19.3138 42.7202C32.3138 46.7202 23.3138 54.7202 39.8138 57.7202C56.3138 60.7202 53.8138 37.7202 56.8138 30.2202C59.8138 22.7202 53.8138 16.7203 39.8138 16.7203C25.8138 16.7203 32.3138 8.22033 26.3138 3.72033Z" fill="#FFE9B9"/>
<g filter="url(#filter0_d)">
<path fill-rule="evenodd" clip-rule="evenodd" d="M38.5552 41.0569C38.2542 40.2992 37.8272 39.6377 37.4527 39.0724C37.2637 38.7889 37.0695 38.5002 36.8997 38.2027C36.219 37.0197 36.4535 36.5402 37.5577 34.6904L37.7362 34.3877C38.6305 32.8809 38.6795 31.4354 38.725 30.1614C38.746 29.5349 38.767 28.9452 38.8877 28.3904C39.1695 27.1094 41.8767 26.7682 43.555 26.5669C43.8367 27.6677 43.9995 28.8139 43.9995 30.0004C43.9995 34.4962 41.861 38.4932 38.5552 41.0569ZM17.6829 36.649C18.7959 36.9325 20.0017 37.1285 21.2284 37.1285C23.1184 37.1285 25.0487 36.6665 26.7182 35.3592C29.7212 33.0107 29.7212 30.0077 29.7212 27.5927C29.7212 26.0317 29.7212 24.686 30.3722 23.4907C30.7222 22.8502 31.4677 22.4057 32.3304 21.8895C32.8589 21.5727 33.4067 21.2472 33.9317 20.8342C35.0569 19.954 35.8934 18.8217 36.4114 17.5687C38.8614 18.8375 40.8914 20.8027 42.2319 23.209C39.7329 23.5555 36.1857 24.3745 35.4699 27.6417C35.2809 28.5062 35.2512 29.32 35.2284 30.0392C35.1917 31.0595 35.1637 31.8662 34.7262 32.6047L34.5512 32.8987C33.4189 34.794 32.1379 36.943 33.8652 39.9477C34.0734 40.3117 34.3062 40.6617 34.5354 41.01C35.1374 41.913 35.4332 42.4117 35.4349 42.9017C33.7637 43.6087 31.9262 44.0007 29.9994 44.0007C24.6847 44.0007 20.0542 41.0222 17.6829 36.649ZM29.9995 16.0004C31.0775 16.0004 32.1188 16.1334 33.1268 16.3644C32.831 17.0154 32.3743 17.6086 31.7723 18.0794C31.3908 18.3804 30.962 18.6306 30.5368 18.8844C29.3975 19.5634 28.1078 20.3334 27.2993 21.8139C26.2213 23.7914 26.2213 25.8109 26.2213 27.5924C26.2213 29.9636 26.1443 31.3654 24.5623 32.6026C22.1665 34.4804 18.5003 33.4321 16.2323 32.4784C16.0888 31.6716 15.9995 30.8456 15.9995 30.0004C15.9995 22.2811 22.2803 16.0004 29.9995 16.0004ZM29.9995 12.5004C20.35 12.5004 12.4995 20.3509 12.4995 30.0004C12.4995 39.6481 20.35 47.5004 29.9995 47.5004C39.649 47.5004 47.4995 39.6481 47.4995 30.0004C47.4995 20.3509 39.649 12.5004 29.9995 12.5004Z" fill="#231F20"/>
<mask id="mask1" mask-type="alpha" maskUnits="userSpaceOnUse" x="12" y="12" width="36" height="36">
<path fill-rule="evenodd" clip-rule="evenodd" d="M38.5552 41.0569C38.2542 40.2992 37.8272 39.6377 37.4527 39.0724C37.2637 38.7889 37.0695 38.5002 36.8997 38.2027C36.219 37.0197 36.4535 36.5402 37.5577 34.6904L37.7362 34.3877C38.6305 32.8809 38.6795 31.4354 38.725 30.1614C38.746 29.5349 38.767 28.9452 38.8877 28.3904C39.1695 27.1094 41.8767 26.7682 43.555 26.5669C43.8367 27.6677 43.9995 28.8139 43.9995 30.0004C43.9995 34.4962 41.861 38.4932 38.5552 41.0569ZM17.6829 36.649C18.7959 36.9325 20.0017 37.1285 21.2284 37.1285C23.1184 37.1285 25.0487 36.6665 26.7182 35.3592C29.7212 33.0107 29.7212 30.0077 29.7212 27.5927C29.7212 26.0317 29.7212 24.686 30.3722 23.4907C30.7222 22.8502 31.4677 22.4057 32.3304 21.8895C32.8589 21.5727 33.4067 21.2472 33.9317 20.8342C35.0569 19.954 35.8934 18.8217 36.4114 17.5687C38.8614 18.8375 40.8914 20.8027 42.2319 23.209C39.7329 23.5555 36.1857 24.3745 35.4699 27.6417C35.2809 28.5062 35.2512 29.32 35.2284 30.0392C35.1917 31.0595 35.1637 31.8662 34.7262 32.6047L34.5512 32.8987C33.4189 34.794 32.1379 36.943 33.8652 39.9477C34.0734 40.3117 34.3062 40.6617 34.5354 41.01C35.1374 41.913 35.4332 42.4117 35.4349 42.9017C33.7637 43.6087 31.9262 44.0007 29.9994 44.0007C24.6847 44.0007 20.0542 41.0222 17.6829 36.649ZM29.9995 16.0004C31.0775 16.0004 32.1188 16.1334 33.1268 16.3644C32.831 17.0154 32.3743 17.6086 31.7723 18.0794C31.3908 18.3804 30.962 18.6306 30.5368 18.8844C29.3975 19.5634 28.1078 20.3334 27.2993 21.8139C26.2213 23.7914 26.2213 25.8109 26.2213 27.5924C26.2213 29.9636 26.1443 31.3654 24.5623 32.6026C22.1665 34.4804 18.5003 33.4321 16.2323 32.4784C16.0888 31.6716 15.9995 30.8456 15.9995 30.0004C15.9995 22.2811 22.2803 16.0004 29.9995 16.0004ZM29.9995 12.5004C20.35 12.5004 12.4995 20.3509 12.4995 30.0004C12.4995 39.6481 20.35 47.5004 29.9995 47.5004C39.649 47.5004 47.4995 39.6481 47.4995 30.0004C47.4995 20.3509 39.649 12.5004 29.9995 12.5004Z" fill="white"/>
</mask>
<g mask="url(#mask1)">
<g filter="url(#filter1_d)">
<rect x="9" y="9" width="42" height="42" fill="#3DCD90"/>
</g>
</g>
</g>
<circle cx="10.5" cy="48.5" r="4.5" fill="#FFE9B9"/>
<circle cx="37" cy="8" r="3" fill="#FFE9B9"/>
</g>
<defs>
<filter id="filter0_d" x="5" y="9" width="50" height="50" filterUnits="userSpaceOnUse" color-interpolation-filters="sRGB">
<feFlood flood-opacity="0" result="BackgroundImageFix"/>
<feColorMatrix in="SourceAlpha" type="matrix" values="0 0 0 0 0 0 0 0 0 0 0 0 0 0 0 0 0 0 127 0"/>
<feOffset dy="4"/>
<feGaussianBlur stdDeviation="2"/>
<feColorMatrix type="matrix" values="0 0 0 0 0.239216 0 0 0 0 0.803922 0 0 0 0 0.564706 0 0 0 0.25 0"/>
<feBlend mode="normal" in2="BackgroundImageFix" result="effect1_dropShadow"/>
<feBlend mode="normal" in="SourceGraphic" in2="effect1_dropShadow" result="shape"/>
</filter>
<filter id="filter1_d" x="5" y="9" width="50" height="50" filterUnits="userSpaceOnUse" color-interpolation-filters="sRGB">
<feFlood flood-opacity="0" result="BackgroundImageFix"/>
<feColorMatrix in="SourceAlpha" type="matrix" values="0 0 0 0 0 0 0 0 0 0 0 0 0 0 0 0 0 0 127 0"/>
<feOffset dy="4"/>
<feGaussianBlur stdDeviation="2"/>
<feColorMatrix type="matrix" values="0 0 0 0 0.239216 0 0 0 0 0.803922 0 0 0 0 0.564706 0 0 0 1 0"/>
<feBlend mode="normal" in2="BackgroundImageFix" result="effect1_dropShadow"/>
<feBlend mode="normal" in="SourceGraphic" in2="effect1_dropShadow" result="shape"/>
</filter>
</defs>
</svg>
