<svg width="60" height="60" viewBox="0 0 60 60" fill="none" xmlns="http://www.w3.org/2000/svg">
<mask id="mask0" mask-type="alpha" maskUnits="userSpaceOnUse" x="0" y="0" width="60" height="60">
<rect width="60" height="60" fill="#C4C4C4"/>
</mask>
<g mask="url(#mask0)">
<path d="M2.5 29.4997C2.5 46.2997 7.5 59.4995 23.5 58.9997C39.5 58.5 38 42.5 48 45.5C58 48.5 59 37.4999 56.5 13.4999C54 -10.5001 39.5 10.9997 30.5 24.9997C21.5 38.9997 2.5 8.49973 2.5 29.4997Z" fill="#FFE9B9"/>
<circle cx="19.5" cy="13.5" r="7.5" fill="#FFE9B9"/>
<g filter="url(#filter0_d)">
<path fill-rule="evenodd" clip-rule="evenodd" d="M27.3752 20.375C27.3752 18.926 28.5512 17.75 30.0002 17.75C31.4492 17.75 32.6252 18.926 32.6252 20.375C32.6252 21.824 31.4492 23 30.0002 23C28.5512 23 27.3752 21.824 27.3752 20.375ZM34.727 25.1878C34.0025 23.933 34.433 22.3265 35.6878 21.602C36.9443 20.8775 38.549 21.308 39.2735 22.5628C39.998 23.8193 39.5675 25.424 38.3128 26.1485C37.0563 26.873 35.4515 26.4443 34.727 25.1878ZM24.3128 21.602C23.058 20.8775 21.4515 21.308 20.727 22.5628C20.0025 23.8193 20.433 25.424 21.6878 26.1485C22.9443 26.873 24.549 26.4443 25.2735 25.1878C25.998 23.933 25.5693 22.3265 24.3128 21.602ZM19.0753 32.3431C18.2633 31.1426 18.58 29.5098 19.7823 28.6996C20.9845 27.8876 22.6155 28.2061 23.4258 29.4066C24.2378 30.6088 23.9193 32.2398 22.7188 33.0501C21.5165 33.8621 19.8855 33.5453 19.0753 32.3431ZM36.7923 35.2518H33.9048C31.4915 35.2518 29.5298 37.2135 29.5298 39.6268C29.5298 40.6873 29.9218 41.7145 30.634 42.5195C30.851 42.7645 30.9228 43.0533 30.8458 43.3735C30.76 43.7323 30.347 43.965 29.8063 44C25.811 43.9458 22.0188 42.1765 19.4008 39.1473C16.7495 36.076 15.5875 32.1403 16.13 28.0663C17.0243 21.3585 23.0565 16.0578 29.8658 16H29.997C34.1218 16 38.0085 17.575 40.6843 20.3365C42.9383 22.6623 44.1143 25.6285 43.9918 28.6875C43.8535 32.184 40.4883 35.2518 36.7923 35.2518ZM43.1954 17.8988C39.8302 14.4268 34.9267 12.4878 29.8359 12.5001H29.8342C21.1822 12.5736 13.7972 19.0661 12.6614 27.6043C11.9929 32.6093 13.4857 37.6511 16.7529 41.4346C20.0219 45.2216 24.7627 47.4318 29.7572 47.5001H29.8237C31.9237 47.5001 33.7752 46.1228 34.2459 44.1996C34.5942 42.7611 34.2319 41.3016 33.2537 40.1956C33.1102 40.0363 33.0297 39.8281 33.0297 39.6268C33.0297 39.1456 33.4217 38.7518 33.9047 38.7518H36.7922C42.3782 38.7518 47.2764 34.2053 47.4882 28.8258C47.6492 24.8008 46.1249 20.9211 43.1954 17.8988Z" fill="#231F20"/>
<mask id="mask1" mask-type="alpha" maskUnits="userSpaceOnUse" x="12" y="12" width="36" height="36">
<path fill-rule="evenodd" clip-rule="evenodd" d="M27.3752 20.375C27.3752 18.926 28.5512 17.75 30.0002 17.75C31.4492 17.75 32.6252 18.926 32.6252 20.375C32.6252 21.824 31.4492 23 30.0002 23C28.5512 23 27.3752 21.824 27.3752 20.375ZM34.727 25.1878C34.0025 23.933 34.433 22.3265 35.6878 21.602C36.9443 20.8775 38.549 21.308 39.2735 22.5628C39.998 23.8193 39.5675 25.424 38.3128 26.1485C37.0563 26.873 35.4515 26.4443 34.727 25.1878ZM24.3128 21.602C23.058 20.8775 21.4515 21.308 20.727 22.5628C20.0025 23.8193 20.433 25.424 21.6878 26.1485C22.9443 26.873 24.549 26.4443 25.2735 25.1878C25.998 23.933 25.5693 22.3265 24.3128 21.602ZM19.0753 32.3431C18.2633 31.1426 18.58 29.5098 19.7823 28.6996C20.9845 27.8876 22.6155 28.2061 23.4258 29.4066C24.2378 30.6088 23.9193 32.2398 22.7188 33.0501C21.5165 33.8621 19.8855 33.5453 19.0753 32.3431ZM36.7923 35.2518H33.9048C31.4915 35.2518 29.5298 37.2135 29.5298 39.6268C29.5298 40.6873 29.9218 41.7145 30.634 42.5195C30.851 42.7645 30.9228 43.0533 30.8458 43.3735C30.76 43.7323 30.347 43.965 29.8063 44C25.811 43.9458 22.0188 42.1765 19.4008 39.1473C16.7495 36.076 15.5875 32.1403 16.13 28.0663C17.0243 21.3585 23.0565 16.0578 29.8658 16H29.997C34.1218 16 38.0085 17.575 40.6843 20.3365C42.9383 22.6623 44.1143 25.6285 43.9918 28.6875C43.8535 32.184 40.4883 35.2518 36.7923 35.2518ZM43.1954 17.8988C39.8302 14.4268 34.9267 12.4878 29.8359 12.5001H29.8342C21.1822 12.5736 13.7972 19.0661 12.6614 27.6043C11.9929 32.6093 13.4857 37.6511 16.7529 41.4346C20.0219 45.2216 24.7627 47.4318 29.7572 47.5001H29.8237C31.9237 47.5001 33.7752 46.1228 34.2459 44.1996C34.5942 42.7611 34.2319 41.3016 33.2537 40.1956C33.1102 40.0363 33.0297 39.8281 33.0297 39.6268C33.0297 39.1456 33.4217 38.7518 33.9047 38.7518H36.7922C42.3782 38.7518 47.2764 34.2053 47.4882 28.8258C47.6492 24.8008 46.1249 20.9211 43.1954 17.8988Z" fill="white"/>
</mask>
<g mask="url(#mask1)">
<rect x="9" y="9" width="42" height="42" fill="#6332CD"/>
</g>
</g>
</g>
<defs>
<filter id="filter0_d" x="5" y="9" width="50" height="50" filterUnits="userSpaceOnUse" color-interpolation-filters="sRGB">
<feFlood flood-opacity="0" result="BackgroundImageFix"/>
<feColorMatrix in="SourceAlpha" type="matrix" values="0 0 0 0 0 0 0 0 0 0 0 0 0 0 0 0 0 0 127 0"/>
<feOffset dy="4"/>
<feGaussianBlur stdDeviation="2"/>
<feColorMatrix type="matrix" values="0 0 0 0 0.388235 0 0 0 0 0.196078 0 0 0 0 0.803922 0 0 0 0.25 0"/>
<feBlend mode="normal" in2="BackgroundImageFix" result="effect1_dropShadow"/>
<feBlend mode="normal" in="SourceGraphic" in2="effect1_dropShadow" result="shape"/>
</filter>
</defs>
</svg>
