<svg width="60" height="60" viewBox="0 0 60 60" fill="none" xmlns="http://www.w3.org/2000/svg">
<mask id="mask0" mask-type="alpha" maskUnits="userSpaceOnUse" x="0" y="0" width="60" height="60">
<rect width="60" height="60" fill="#C4C4C4"/>
</mask>
<g mask="url(#mask0)">
<path d="M55.0001 15.0002C54.0001 -2.99984 36.0001 2.50016 18.5001 3.00016C11.5001 3.4004 4.50006 7 10.5001 15.0002C16.5001 23.0003 13.5001 21.5 4.50006 40.5C-4.49994 59.5 18.5001 58 31.0001 58C43.5001 58 56.0001 33.0002 55.0001 15.0002Z" fill="#349EFF"/>
<g filter="url(#filter0_d)">
<path fill-rule="evenodd" clip-rule="evenodd" d="M29.9709 21.8152L20.1411 31.645L19.6791 36.818L24.8889 36.3437L34.6889 26.5332L29.9709 21.8152ZM40.4409 20.7757L35.7246 16.0612L32.3156 19.4702L37.0319 24.1882L40.4409 20.7757ZM17.9096 40.493C17.8553 40.4983 17.8028 40.5 17.7503 40.5C17.2883 40.5 16.8421 40.318 16.5131 39.9873C16.1456 39.6198 15.9601 39.1088 16.0073 38.5925L16.6706 31.2933C16.7441 30.4935 17.0976 29.7393 17.6663 29.1705L33.4093 13.4258C34.6378 12.1938 36.8673 12.255 38.1623 13.5483L42.9538 18.3398H42.9556C44.2961 19.682 44.3486 21.8118 43.0746 23.0893L27.3298 38.834C26.7611 39.4045 26.0086 39.7563 25.2071 39.8298L17.9096 40.493ZM17.75 43.9999H42.25C43.2125 43.9999 44 44.7874 44 45.7499C44 46.7124 43.2125 47.4999 42.25 47.4999H17.75C16.7875 47.4999 16 46.7124 16 45.7499C16 44.7874 16.7875 43.9999 17.75 43.9999Z" fill="#231F20"/>
<mask id="mask1" mask-type="alpha" maskUnits="userSpaceOnUse" x="16" y="12" width="28" height="36">
<path fill-rule="evenodd" clip-rule="evenodd" d="M29.9709 21.8152L20.1411 31.645L19.6791 36.818L24.8889 36.3437L34.6889 26.5332L29.9709 21.8152ZM40.4409 20.7757L35.7246 16.0612L32.3156 19.4702L37.0319 24.1882L40.4409 20.7757ZM17.9096 40.493C17.8553 40.4983 17.8028 40.5 17.7503 40.5C17.2883 40.5 16.8421 40.318 16.5131 39.9873C16.1456 39.6198 15.9601 39.1088 16.0073 38.5925L16.6706 31.2933C16.7441 30.4935 17.0976 29.7393 17.6663 29.1705L33.4093 13.4258C34.6378 12.1938 36.8673 12.255 38.1623 13.5483L42.9538 18.3398H42.9556C44.2961 19.682 44.3486 21.8118 43.0746 23.0893L27.3298 38.834C26.7611 39.4045 26.0086 39.7563 25.2071 39.8298L17.9096 40.493ZM17.75 43.9999H42.25C43.2125 43.9999 44 44.7874 44 45.7499C44 46.7124 43.2125 47.4999 42.25 47.4999H17.75C16.7875 47.4999 16 46.7124 16 45.7499C16 44.7874 16.7875 43.9999 17.75 43.9999Z" fill="white"/>
</mask>
<g mask="url(#mask1)">
<rect x="9" y="9" width="42" height="42" fill="#FFE9B9"/>
</g>
</g>
<circle cx="52" cy="51" r="4" fill="#349EFF"/>
</g>
<defs>
<filter id="filter0_d" x="5" y="9" width="50" height="50" filterUnits="userSpaceOnUse" color-interpolation-filters="sRGB">
<feFlood flood-opacity="0" result="BackgroundImageFix"/>
<feColorMatrix in="SourceAlpha" type="matrix" values="0 0 0 0 0 0 0 0 0 0 0 0 0 0 0 0 0 0 127 0"/>
<feOffset dy="4"/>
<feGaussianBlur stdDeviation="2"/>
<feColorMatrix type="matrix" values="0 0 0 0 1 0 0 0 0 0.913725 0 0 0 0 0.72549 0 0 0 0.25 0"/>
<feBlend mode="normal" in2="BackgroundImageFix" result="effect1_dropShadow"/>
<feBlend mode="normal" in="SourceGraphic" in2="effect1_dropShadow" result="shape"/>
</filter>
</defs>
</svg>
