<svg width="60" height="60" viewBox="0 0 60 60" fill="none" xmlns="http://www.w3.org/2000/svg">
<mask id="mask0" mask-type="alpha" maskUnits="userSpaceOnUse" x="0" y="0" width="60" height="60">
<rect width="60" height="60" fill="#C4C4C4"/>
</mask>
<g mask="url(#mask0)">
<path d="M23.5505 8.50014C7.55053 14.9001 4.55053 25.1668 5.05053 29.5001C5.05053 53.0003 18.5505 57.5 37.0505 58.5C55.5505 59.5 55.0505 58 47.0505 45C39.0505 32 50.0505 19.0001 55.0505 8.50014C60.0505 -1.99986 43.5505 0.500139 23.5505 8.50014Z" fill="#F39681"/>
<g filter="url(#filter0_d)">
<path fill-rule="evenodd" clip-rule="evenodd" d="M40.5 26.5C40.5 25.5358 39.716 24.75 38.75 24.75C37.784 24.75 37 25.5358 37 26.5C37 27.4642 37.784 28.25 38.75 28.25C39.716 28.25 40.5 27.4642 40.5 26.5ZM44 26.5C44 29.3945 41.6445 31.75 38.75 31.75C35.8555 31.75 33.5 29.3945 33.5 26.5C33.5 23.6055 35.8555 21.25 38.75 21.25C41.6445 21.25 44 23.6055 44 26.5ZM28.25 21.25C28.25 19.3197 26.6803 17.75 24.75 17.75C22.8197 17.75 21.25 19.3197 21.25 21.25C21.25 23.1803 22.8197 24.75 24.75 24.75C26.6803 24.75 28.25 23.1803 28.25 21.25ZM31.75 21.25C31.75 25.1105 28.6105 28.25 24.75 28.25C20.8895 28.25 17.75 25.1105 17.75 21.25C17.75 17.3895 20.8895 14.25 24.75 14.25C28.6105 14.25 31.75 17.3895 31.75 21.25ZM33.395 35.3305C34.9157 34.1545 36.7882 33.5 38.75 33.5C43.5747 33.5 47.5 37.4253 47.5 42.25C47.5 43.216 46.7178 44 45.75 44C44.7822 44 44 43.216 44 42.25C44 39.3555 41.6445 37 38.75 37C37.5548 37 36.419 37.4095 35.502 38.1357C36.454 39.8787 37 41.8773 37 44C37 44.966 36.2178 45.75 35.25 45.75C34.2822 45.75 33.5 44.966 33.5 44C33.5 39.1753 29.5747 35.25 24.75 35.25C19.9253 35.25 16 39.1753 16 44C16 44.966 15.2178 45.75 14.25 45.75C13.2823 45.75 12.5 44.966 12.5 44C12.5 37.245 17.9967 31.75 24.75 31.75C28.1222 31.75 31.1777 33.1203 33.395 35.3305Z" fill="#231F20"/>
<mask id="mask1" mask-type="alpha" maskUnits="userSpaceOnUse" x="12" y="14" width="36" height="32">
<path fill-rule="evenodd" clip-rule="evenodd" d="M40.5 26.5C40.5 25.5358 39.716 24.75 38.75 24.75C37.784 24.75 37 25.5358 37 26.5C37 27.4642 37.784 28.25 38.75 28.25C39.716 28.25 40.5 27.4642 40.5 26.5ZM44 26.5C44 29.3945 41.6445 31.75 38.75 31.75C35.8555 31.75 33.5 29.3945 33.5 26.5C33.5 23.6055 35.8555 21.25 38.75 21.25C41.6445 21.25 44 23.6055 44 26.5ZM28.25 21.25C28.25 19.3197 26.6803 17.75 24.75 17.75C22.8197 17.75 21.25 19.3197 21.25 21.25C21.25 23.1803 22.8197 24.75 24.75 24.75C26.6803 24.75 28.25 23.1803 28.25 21.25ZM31.75 21.25C31.75 25.1105 28.6105 28.25 24.75 28.25C20.8895 28.25 17.75 25.1105 17.75 21.25C17.75 17.3895 20.8895 14.25 24.75 14.25C28.6105 14.25 31.75 17.3895 31.75 21.25ZM33.395 35.3305C34.9157 34.1545 36.7882 33.5 38.75 33.5C43.5747 33.5 47.5 37.4253 47.5 42.25C47.5 43.216 46.7178 44 45.75 44C44.7822 44 44 43.216 44 42.25C44 39.3555 41.6445 37 38.75 37C37.5548 37 36.419 37.4095 35.502 38.1357C36.454 39.8787 37 41.8773 37 44C37 44.966 36.2178 45.75 35.25 45.75C34.2822 45.75 33.5 44.966 33.5 44C33.5 39.1753 29.5747 35.25 24.75 35.25C19.9253 35.25 16 39.1753 16 44C16 44.966 15.2178 45.75 14.25 45.75C13.2823 45.75 12.5 44.966 12.5 44C12.5 37.245 17.9967 31.75 24.75 31.75C28.1222 31.75 31.1777 33.1203 33.395 35.3305Z" fill="white"/>
</mask>
<g mask="url(#mask1)">
<g filter="url(#filter1_d)">
<rect x="9" y="9" width="42" height="42" fill="#6332CD"/>
</g>
</g>
</g>
</g>
<defs>
<filter id="filter0_d" x="5" y="9" width="50" height="50" filterUnits="userSpaceOnUse" color-interpolation-filters="sRGB">
<feFlood flood-opacity="0" result="BackgroundImageFix"/>
<feColorMatrix in="SourceAlpha" type="matrix" values="0 0 0 0 0 0 0 0 0 0 0 0 0 0 0 0 0 0 127 0"/>
<feOffset dy="4"/>
<feGaussianBlur stdDeviation="2"/>
<feColorMatrix type="matrix" values="0 0 0 0 0.388235 0 0 0 0 0.196078 0 0 0 0 0.803922 0 0 0 0.25 0"/>
<feBlend mode="normal" in2="BackgroundImageFix" result="effect1_dropShadow"/>
<feBlend mode="normal" in="SourceGraphic" in2="effect1_dropShadow" result="shape"/>
</filter>
<filter id="filter1_d" x="5" y="9" width="50" height="50" filterUnits="userSpaceOnUse" color-interpolation-filters="sRGB">
<feFlood flood-opacity="0" result="BackgroundImageFix"/>
<feColorMatrix in="SourceAlpha" type="matrix" values="0 0 0 0 0 0 0 0 0 0 0 0 0 0 0 0 0 0 127 0"/>
<feOffset dy="4"/>
<feGaussianBlur stdDeviation="2"/>
<feColorMatrix type="matrix" values="0 0 0 0 0.388235 0 0 0 0 0.196078 0 0 0 0 0.803922 0 0 0 1 0"/>
<feBlend mode="normal" in2="BackgroundImageFix" result="effect1_dropShadow"/>
<feBlend mode="normal" in="SourceGraphic" in2="effect1_dropShadow" result="shape"/>
</filter>
</defs>
</svg>
