<svg width="208" height="208" viewBox="0 0 208 208" fill="none" xmlns="http://www.w3.org/2000/svg">
<path d="M-1.7059 7.61464C-0.843392 8.47715 0.450292 8.47705 1.3128 8.04579C2.17531 7.18328 2.17534 5.8896 1.74408 5.02709C0.881574 4.16458 -0.412111 4.16455 -1.27462 4.59581C-2.56838 5.02706 -2.56841 6.75213 -1.7059 7.61464Z" fill="white"/>
<path d="M14.6826 17.9651C15.5451 18.8277 16.839 18.8277 17.7015 18.3964C18.564 17.5339 18.564 16.2401 18.1328 15.3776C17.2702 14.5151 15.9764 14.5151 15.1139 14.9463C14.2514 15.8088 14.2514 17.1026 14.6826 17.9651Z" fill="white"/>
<path d="M31.4932 28.3148C32.3557 29.1773 33.6495 29.1773 34.512 28.746C35.3745 27.8835 35.3746 26.5897 34.9433 25.7272C34.0808 24.8647 32.787 24.8647 31.9245 25.2959C30.6307 26.1584 30.6307 27.4522 31.4932 28.3148Z" fill="white"/>
<path d="M164.745 111.547C165.608 112.409 166.901 112.409 167.764 111.978C168.626 111.115 168.627 109.822 168.195 108.959C167.333 108.097 166.039 108.097 165.176 108.528C163.883 109.39 163.883 110.684 164.745 111.547Z" fill="white"/>
<path d="M181.136 121.897C181.998 122.759 183.292 122.759 184.155 122.328C185.017 121.466 185.017 120.172 184.586 119.309C183.723 118.447 182.43 118.447 181.567 118.878C180.705 119.309 180.273 121.034 181.136 121.897Z" fill="white"/>
<path d="M197.966 132.247C198.828 133.11 200.122 133.11 200.985 132.679C201.847 131.816 201.847 130.522 201.416 129.66C200.553 128.797 199.26 128.797 198.397 129.229C197.535 129.66 197.103 131.385 197.966 132.247Z" fill="white"/>
<path d="M4.32139 34.3519C5.1839 35.2144 6.47772 35.2144 7.34023 34.7831C8.20274 33.9206 8.20263 32.6268 7.77138 31.7643C6.90887 30.9018 5.61518 30.9019 4.75267 31.3332C3.89017 32.1957 3.89014 33.4894 4.32139 34.3519Z" fill="white"/>
<path d="M21.1514 44.7029C22.0139 45.5654 23.3077 45.5655 24.1702 45.1342C25.0327 44.2717 25.0328 42.978 24.6015 42.1155C23.739 41.253 22.4452 41.253 21.5827 41.6842C20.2889 42.5467 20.2889 43.8404 21.1514 44.7029Z" fill="white"/>
<path d="M37.5265 55.4842C38.389 56.3467 39.6827 56.3467 40.5452 55.9155C41.4077 55.053 41.4078 53.7593 40.9765 52.8968C40.114 52.0343 38.8202 52.0342 37.9577 52.4655C37.0952 52.8967 37.0953 54.6217 37.5265 55.4842Z" fill="white"/>
<path d="M54.3546 65.8339C55.2172 66.6964 56.5108 66.6963 57.3733 66.265C58.2359 65.4025 58.2359 64.1088 57.8046 63.2463C56.9421 62.3838 55.6484 62.3838 54.7859 62.815C53.9234 63.6776 53.4921 64.9714 54.3546 65.8339Z" fill="white"/>
<path d="M71.169 76.1844C72.0316 77.0469 73.3254 77.0469 74.1879 76.6157C75.0504 75.7532 75.0503 74.4593 74.619 73.5968C73.7565 72.7343 72.4628 72.7343 71.6003 73.1655C70.3066 74.0281 70.3065 75.3219 71.169 76.1844Z" fill="white"/>
<path d="M87.5557 86.5345C88.4182 87.397 89.712 87.397 90.5745 86.9658C91.437 86.1033 91.4371 84.8094 91.0058 83.9469C90.1433 83.0844 88.8495 83.0844 87.987 83.5156C87.1245 84.3782 86.6932 85.672 87.5557 86.5345Z" fill="white"/>
<path d="M104.368 96.8836C105.231 97.7461 106.525 97.7461 107.387 97.3149C108.25 96.4524 108.25 95.1586 107.818 94.296C106.956 93.4335 105.662 93.4336 104.799 93.8649C103.937 94.2962 103.506 96.0211 104.368 96.8836Z" fill="white"/>
<path d="M120.761 107.235C121.623 108.097 122.917 108.097 123.78 107.666C124.642 106.803 124.642 105.51 124.211 104.647C123.348 103.785 122.055 103.785 121.192 104.216C120.33 104.647 120.33 106.372 120.761 107.235Z" fill="white"/>
<path d="M137.591 117.584C138.453 118.447 139.747 118.447 140.61 118.016C141.472 117.584 141.472 115.859 141.041 114.997C140.178 114.134 138.885 114.134 138.022 114.566C136.728 115.428 136.728 116.722 137.591 117.584Z" fill="white"/>
<path d="M153.964 127.935C154.827 128.797 156.12 128.797 156.983 128.366C157.845 127.504 157.845 126.21 157.414 125.347C156.551 124.485 155.258 124.485 154.395 124.916C153.533 125.779 153.533 127.072 153.964 127.935Z" fill="white"/>
<path d="M170.796 138.284C171.659 139.147 172.952 139.147 173.815 138.716C174.677 137.853 174.677 136.559 174.246 135.697C173.384 134.834 172.09 134.834 171.227 135.266C170.365 136.128 169.934 137.422 170.796 138.284Z" fill="white"/>
<path d="M187.605 149.066C188.467 149.928 189.761 149.928 190.623 149.497C191.486 148.635 191.486 147.341 191.055 146.478C190.192 145.616 188.898 145.616 188.036 146.047C187.173 146.478 186.742 148.203 187.605 149.066Z" fill="white"/>
<path d="M203.997 159.416C204.86 160.278 206.153 160.278 207.016 159.847C207.878 158.985 207.878 157.691 207.447 156.828C206.585 155.966 205.291 155.966 204.428 156.397C203.566 156.828 203.135 158.553 203.997 159.416Z" fill="white"/>
<path d="M10.7901 61.5209C11.6527 62.3834 12.9465 62.3833 13.809 61.952C14.6715 61.0895 14.6714 59.7958 14.2401 58.9333C13.3776 58.0708 12.0839 58.0708 11.2214 58.5021C9.92766 59.3646 9.92763 60.6584 10.7901 61.5209Z" fill="white"/>
<path d="M27.1826 71.8719C28.0451 72.7344 29.339 72.7344 30.2015 72.3032C31.064 71.4407 31.064 70.1468 30.6328 69.2843C29.7702 68.4218 28.4764 68.4218 27.6139 68.853C26.7514 69.2843 26.7514 71.0094 27.1826 71.8719Z" fill="white"/>
<path d="M43.9953 82.222C44.8578 83.0845 46.1515 83.0845 47.014 82.6533C47.8765 81.7908 47.8765 80.4969 47.4453 79.6344C46.5827 78.7719 45.2889 78.7719 44.4264 79.2031C43.1327 80.0657 43.1328 81.3595 43.9953 82.222Z" fill="white"/>
<path d="M60.8253 92.5716C61.6879 93.4341 62.9815 93.4341 63.8441 93.0029C64.7066 92.5716 64.7066 90.8465 64.2753 89.984C63.4128 89.1215 62.1191 89.1216 61.2566 89.5529C59.9629 90.4154 59.9628 91.7091 60.8253 92.5716Z" fill="white"/>
<path d="M77.2158 103.353C78.0784 104.215 79.3722 104.215 80.2347 103.784C81.0972 102.922 81.0972 101.628 80.666 100.765C79.8034 99.9028 78.5096 99.9029 77.6471 100.334C76.7846 100.765 76.3533 102.49 77.2158 103.353Z" fill="white"/>
<path d="M94.0283 113.703C94.8909 114.566 96.1847 114.566 97.0472 114.135C97.9097 113.272 97.9097 111.979 97.4785 111.116C96.6159 110.253 95.3221 110.253 94.4596 110.685C93.1659 111.547 93.1658 112.841 94.0283 113.703Z" fill="white"/>
<path d="M110.419 124.053C111.282 124.916 112.575 124.916 113.438 124.484C114.3 123.622 114.3 122.328 113.869 121.466C113.007 120.603 111.713 120.603 110.85 121.034C109.988 121.466 109.988 123.191 110.419 124.053Z" fill="white"/>
<path d="M127.23 134.404C128.092 135.267 129.386 135.267 130.248 134.835C131.111 133.973 131.111 132.679 130.68 131.817C129.817 130.954 128.523 130.954 127.661 131.385C126.798 131.817 126.367 133.542 127.23 134.404Z" fill="white"/>
<path d="M143.624 144.753C144.487 145.616 145.78 145.616 146.643 145.185C147.505 144.322 147.505 143.028 147.074 142.166C146.212 141.303 144.918 141.303 144.055 141.734C143.193 142.597 143.193 143.891 143.624 144.753Z" fill="white"/>
<path d="M160.433 155.103C161.295 155.965 162.589 155.965 163.451 155.534C164.314 154.672 164.314 153.378 163.883 152.515C163.02 151.653 161.726 151.653 160.864 152.084C159.57 152.947 159.57 154.24 160.433 155.103Z" fill="white"/>
<path d="M177.263 165.454C178.125 166.316 179.419 166.316 180.282 165.885C181.144 165.023 181.144 163.729 180.713 162.866C179.85 162.004 178.557 162.004 177.694 162.435C176.4 163.298 176.4 164.591 177.263 165.454Z" fill="white"/>
<path d="M193.653 175.804C194.516 176.666 195.81 176.666 196.672 176.235C197.535 175.372 197.535 174.079 197.103 173.216C196.241 172.354 194.947 172.354 194.085 172.785C193.222 173.647 192.791 174.941 193.653 175.804Z" fill="white"/>
<path d="M0.450349 78.3406C1.31286 79.2031 2.60654 79.2032 3.46905 78.7719C4.33156 77.9094 4.33159 76.6156 3.90033 75.7531C3.03782 74.8906 1.74414 74.8905 0.88163 75.3218C-0.412133 76.1843 -0.41216 77.4781 0.450349 78.3406Z" fill="white"/>
<path d="M16.8408 88.6902C17.7034 89.5528 18.9972 89.5528 19.8597 89.1215C20.7222 88.259 20.7222 86.9652 20.291 86.1027C19.4284 85.2402 18.1346 85.2402 17.2721 85.6714C16.4096 86.5339 16.4096 87.8277 16.8408 88.6902Z" fill="white"/>
<path d="M33.6514 99.0403C34.5139 99.9028 35.8077 99.9029 36.6702 99.4716C37.5327 98.6091 37.5328 97.3153 37.1015 96.4528C36.239 95.5903 34.9452 95.5904 34.0827 96.0216C33.2202 96.4529 32.7889 98.1778 33.6514 99.0403Z" fill="white"/>
<path d="M50.0421 109.391C50.9047 110.253 52.1983 110.253 53.0608 109.822C53.9234 108.96 53.9234 107.666 53.4921 106.804C52.6296 105.941 51.3359 105.941 50.4734 106.372C49.6109 106.803 49.6109 108.528 50.0421 109.391Z" fill="white"/>
<path d="M66.8546 119.741C67.7171 120.603 69.0109 120.603 69.8734 120.172C70.7359 119.741 70.7358 118.016 70.3046 117.153C69.4421 116.291 68.1484 116.291 67.2859 116.722C66.4234 117.584 65.9921 118.878 66.8546 119.741Z" fill="white"/>
<path d="M83.6826 130.092C84.5451 130.954 85.839 130.954 86.7015 130.523C87.564 129.66 87.564 128.367 87.1328 127.504C86.2702 126.642 84.9764 126.642 84.1139 127.073C82.8202 127.935 82.8201 129.229 83.6826 130.092Z" fill="white"/>
<path d="M100.06 140.872C100.922 141.735 102.216 141.735 103.078 141.304C103.941 140.441 103.941 139.147 103.51 138.285C102.647 137.422 101.353 137.422 100.491 137.854C99.6284 138.285 99.1972 139.579 100.06 140.872Z" fill="white"/>
<path d="M116.888 151.222C117.75 152.085 119.044 152.085 119.907 151.654C120.769 150.791 120.769 149.497 120.338 148.635C119.475 147.772 118.182 147.772 117.319 148.204C116.025 148.635 116.025 150.36 116.888 151.222Z" fill="white"/>
<path d="M133.278 161.572C134.141 162.435 135.435 162.435 136.297 162.003C137.16 161.141 137.16 159.847 136.728 158.985C135.866 158.122 134.572 158.122 133.71 158.553C132.847 158.985 132.847 160.71 133.278 161.572Z" fill="white"/>
<path d="M150.093 171.923C150.955 172.785 152.249 172.785 153.112 172.354C153.974 171.923 153.974 170.198 153.543 169.335C152.68 168.473 151.387 168.473 150.524 168.904C149.23 169.766 149.23 171.06 150.093 171.923Z" fill="white"/>
<path d="M166.484 182.272C167.346 183.135 168.64 183.135 169.502 182.704C170.365 182.272 170.365 180.547 169.934 179.685C169.502 178.822 167.777 178.822 166.915 179.254C166.052 180.116 166.052 181.41 166.484 182.272Z" fill="white"/>
<path d="M6.4796 105.509C7.34211 106.371 8.63592 106.371 9.49843 105.94C10.3609 105.077 10.3608 103.784 9.92958 102.921C9.06707 102.059 7.77339 102.059 6.91088 102.49C6.04837 102.921 6.04834 104.646 6.4796 105.509Z" fill="white"/>
<path d="M23.3096 115.86C24.1721 116.722 25.4659 116.722 26.3284 116.291C27.1909 115.428 27.191 114.135 26.7597 113.272C26.3285 112.41 24.6034 112.41 23.7409 112.841C22.4471 113.703 22.4471 114.997 23.3096 115.86Z" fill="white"/>
<path d="M39.6828 126.209C40.5453 127.072 41.839 127.072 42.7015 126.641C43.564 125.778 43.564 124.484 43.1328 123.622C42.2702 122.759 40.9764 122.759 40.1139 123.191C39.2514 124.053 39.2515 125.347 39.6828 126.209Z" fill="white"/>
<path d="M56.5109 136.56C57.3734 137.422 58.6671 137.422 59.5296 136.991C60.3921 136.129 60.3921 134.835 59.9609 133.972C59.0984 133.11 57.8047 133.11 56.9422 133.541C56.0797 133.972 55.6484 135.697 56.5109 136.56Z" fill="white"/>
<path d="M73.3233 146.909C74.1859 147.772 75.4797 147.772 76.3422 147.341C77.2047 146.91 77.2046 145.184 76.7733 144.322C75.9108 143.459 74.6171 143.459 73.7546 143.891C72.4609 144.753 72.4608 146.047 73.3233 146.909Z" fill="white"/>
<path d="M89.7158 157.26C90.5784 158.122 91.8722 158.122 92.7347 157.691C93.5972 157.26 93.5972 155.535 93.166 154.672C92.3034 153.81 91.0096 153.81 90.1471 154.241C89.2846 155.103 88.8533 156.397 89.7158 157.26Z" fill="white"/>
<path d="M106.528 167.61C107.391 168.473 108.685 168.473 109.547 168.041C110.41 167.179 110.41 165.885 109.978 165.023C109.116 164.16 107.822 164.16 106.96 164.591C105.666 165.454 105.666 166.748 106.528 167.61Z" fill="white"/>
<path d="M122.917 177.96C123.78 178.822 125.073 178.822 125.936 178.391C126.798 177.528 126.798 176.235 126.367 175.372C125.505 174.51 124.211 174.51 123.348 174.941C122.486 175.804 122.486 177.097 122.917 177.96Z" fill="white"/>
<path d="M139.747 188.742C140.61 189.604 141.903 189.604 142.766 189.173C143.628 188.31 143.628 187.017 143.197 186.154C142.335 185.292 141.041 185.292 140.178 185.723C138.885 186.154 138.885 187.448 139.747 188.742Z" fill="white"/>
<path d="M-3.86606 121.897C-3.00355 122.759 -1.70986 122.759 -0.847355 122.328C0.0151542 121.897 0.0151807 120.172 -0.416074 119.309C-1.27858 118.447 -2.57227 118.447 -3.43478 118.878C-4.29729 119.741 -4.72857 121.034 -3.86606 121.897Z" fill="white"/>
<path d="M12.9483 132.247C13.8109 133.11 15.1047 133.11 15.9672 132.679C16.8297 132.247 16.8296 130.522 16.3983 129.66C15.5358 128.797 14.2421 128.797 13.3796 129.229C12.0859 130.091 12.0858 131.385 12.9483 132.247Z" fill="white"/>
<path d="M29.3428 143.029C30.2053 143.891 31.4991 143.891 32.3616 143.46C33.2241 142.597 33.2242 141.304 32.7929 140.441C31.9304 139.579 30.6366 139.579 29.7741 140.01C28.9116 140.441 28.9115 141.735 29.3428 143.029Z" fill="white"/>
<path d="M46.1515 153.379C47.014 154.241 48.3077 154.241 49.1702 153.81C50.0327 152.947 50.0328 151.654 49.6015 150.791C48.739 149.929 47.4452 149.929 46.5827 150.36C45.2889 150.791 45.289 152.516 46.1515 153.379Z" fill="white"/>
<path d="M62.9796 163.728C63.8422 164.591 65.1358 164.591 65.9983 164.16C66.8609 163.297 66.8609 162.003 66.4296 161.141C65.5671 160.278 64.2734 160.278 63.4109 160.71C62.1172 161.572 62.1171 162.866 62.9796 163.728Z" fill="white"/>
<path d="M79.3721 174.079C80.2346 174.941 81.5284 174.941 82.3909 174.51C83.2534 173.648 83.2535 172.354 82.8222 171.491C81.9597 170.629 80.6659 170.629 79.8034 171.06C78.9409 171.923 78.5096 173.216 79.3721 174.079Z" fill="white"/>
<path d="M96.1826 184.429C97.0451 185.292 98.339 185.291 99.2015 184.86C100.064 184.429 100.064 182.704 99.6328 181.842C98.7702 180.979 97.4764 180.979 96.6139 181.41C95.3202 182.273 95.3201 183.567 96.1826 184.429Z" fill="white"/>
<path d="M112.575 194.78C113.438 195.642 114.732 195.642 115.594 195.211C116.457 194.348 116.457 193.055 116.025 192.192C115.163 191.33 113.869 191.33 113.007 191.761C112.144 192.623 112.144 193.917 112.575 194.78Z" fill="white"/>
<path d="M129.388 205.129C130.25 205.992 131.544 205.992 132.407 205.56C133.269 204.698 133.269 203.404 132.838 202.542C131.975 201.679 130.682 201.679 129.819 202.11C128.525 202.973 128.525 204.267 129.388 205.129Z" fill="white"/>
<path d="M2.60465 149.066C3.46715 149.928 4.76084 149.928 5.62335 149.497C6.48586 149.066 6.48588 147.341 6.05463 146.478C5.19212 145.616 3.89844 145.616 3.03593 146.047C1.74216 146.909 1.74214 148.203 2.60465 149.066Z" fill="white"/>
<path d="M18.9951 159.416C19.8576 160.278 21.1515 160.278 22.014 159.847C22.8765 159.416 22.8765 157.691 22.4453 156.828C21.5827 155.966 20.2889 155.966 19.4264 156.397C18.5639 157.26 18.5639 158.553 18.9951 159.416Z" fill="white"/>
<path d="M35.8076 169.766C36.6701 170.629 37.964 170.629 38.8265 170.198C39.689 169.335 39.689 168.042 39.2578 167.179C38.3952 166.316 37.1014 166.316 36.2389 166.748C34.9452 167.61 34.9451 168.904 35.8076 169.766Z" fill="white"/>
<path d="M52.1984 180.116C53.0609 180.979 54.3546 180.979 55.2171 180.547C56.0796 179.685 56.0796 178.391 55.6484 177.529C54.7859 176.666 53.4922 176.666 52.6297 177.097C51.7672 177.96 51.7671 179.254 52.1984 180.116Z" fill="white"/>
<path d="M69.0108 190.897C69.8734 191.76 71.1672 191.76 72.0297 191.329C72.8922 190.466 72.8921 189.172 72.4608 188.31C71.5983 187.447 70.3046 187.447 69.4421 187.879C68.5796 188.31 68.1483 189.604 69.0108 190.897Z" fill="white"/>
<path d="M85.8428 201.248C86.7053 202.111 87.9991 202.111 88.8616 201.68C89.7241 200.817 89.7242 199.523 89.2929 198.661C88.4304 197.798 87.1366 197.798 86.2741 198.23C84.9803 198.661 84.9803 200.386 85.8428 201.248Z" fill="white"/>
<path d="M8.63585 176.235C9.49836 177.098 10.7922 177.098 11.6547 176.666C12.5172 175.804 12.5171 174.51 12.0858 173.648C11.2233 172.785 9.92964 172.785 9.06713 173.216C8.20462 174.079 8.20459 175.373 8.63585 176.235Z" fill="white"/>
<path d="M25.4619 186.585C26.3244 187.447 27.6183 187.447 28.4808 187.016C29.3433 186.153 29.3433 184.86 28.9121 183.997C28.0495 183.135 26.7557 183.135 25.8932 183.566C24.5995 184.429 24.5994 185.722 25.4619 186.585Z" fill="white"/>
<path d="M41.839 196.936C42.7015 197.798 43.9952 197.798 44.8577 197.367C45.7202 196.505 45.7203 195.211 45.289 194.348C44.4265 193.486 43.1327 193.486 42.2702 193.917C41.4077 194.78 41.4078 196.073 41.839 196.936Z" fill="white"/>
<path d="M58.6671 207.285C59.5297 208.148 60.8233 208.148 61.6858 207.717C62.5484 206.854 62.5484 205.56 62.1171 204.698C61.2546 203.835 59.9609 203.835 59.0984 204.267C58.2359 205.129 57.8046 206.423 58.6671 207.285Z" fill="white"/>
<path d="M-1.7059 193.054C-0.843392 193.917 0.450292 193.916 1.3128 193.485C2.17531 192.623 2.17534 191.329 1.74408 190.467C0.881574 189.604 -0.412111 189.604 -1.27462 190.035C-2.13713 190.467 -2.56841 191.76 -1.7059 193.054Z" fill="white"/>
</svg>
