<svg width="156" height="333" viewBox="0 0 156 333" fill="none" xmlns="http://www.w3.org/2000/svg">
<path d="M-146.794 135.62C-136.077 113.115 -116.877 101.796 -90.8547 99.6336C-63.9102 97.5628 -35.1393 113.655 0.299213 107.677C21.1454 104.162 38.919 80.9615 55.5476 73.9514C80.4308 63.5702 102.867 66.5477 121.279 82.8201C139.69 99.0924 137.936 131.712 114.77 145.432C97.6264 155.745 72.7743 154.576 60.6789 169.397C51.3309 180.952 54.8903 196.678 61.8241 208.454C68.7579 220.231 78.4032 230.973 81.0759 244.375C85.4786 267.545 64.9017 292.703 39.4274 301.534C13.6855 310.246 -14.6093 305.289 -36.7545 293.769C-59.2871 282.397 -64.8645 253.24 -87.4048 244.756C-119.55 232.614 -170.863 186.516 -146.794 135.62Z" fill="#F39681"/>
</svg>
