<svg width="1200" height="82" viewBox="0 0 1200 82" fill="none" xmlns="http://www.w3.org/2000/svg">
<path d="M0 0H1200V70.9325C1106 21.1288 659.5 82 607.5 82C555.5 82 499 70.1987 453.5 58.8589C408 47.5191 297 52.8221 241 58.8589C185 64.8957 0 72.4417 0 72.4417V0Z" fill="#6332CD"/>
<mask id="mask0" mask-type="alpha" maskUnits="userSpaceOnUse" x="0" y="0" width="1200" height="82">
<path d="M0 0H1200V70.9325C1106 21.1288 659.5 82 607.5 82C555.5 82 499 70.1987 453.5 58.8589C408 47.5191 297 52.8221 241 58.8589C185 64.8957 0 72.4417 0 72.4417V0Z" fill="#6332CD"/>
</mask>
<g mask="url(#mask0)">
<path d="M187.832 20.9327C189.026 22.2212 190.817 22.221 192.011 21.5768C193.205 20.2884 193.205 18.3558 192.608 17.0674C191.414 15.779 189.623 15.7789 188.429 16.4231C186.638 17.0674 186.638 19.6443 187.832 20.9327Z" fill="white"/>
<path d="M209.423 34.9326C210.712 36.221 212.644 36.2211 213.933 35.5769C215.221 34.2885 215.221 32.3558 214.577 31.0674C213.288 29.779 211.356 29.7789 210.067 30.4231C208.779 31.7115 208.779 33.6442 209.423 34.9326Z" fill="white"/>
<path d="M233.832 49.9326C235.026 51.221 236.817 51.2211 238.011 50.5769C239.205 49.2885 239.205 47.3558 238.608 46.0674C237.414 44.779 235.623 44.7789 234.429 45.4231C232.638 46.7115 232.638 48.6442 233.832 49.9326Z" fill="white"/>
<path d="M126.832 14.9327C128.026 16.2212 129.817 16.221 131.011 15.5768C132.205 14.2884 132.205 12.3558 131.608 11.0674C130.414 9.77897 128.623 9.77893 127.429 10.4231C125.638 11.7116 125.638 13.6443 126.832 14.9327Z" fill="white"/>
<path d="M149.671 28.9326C150.902 30.221 152.749 30.2211 153.98 29.5769C155.211 28.2885 155.211 26.3558 154.596 25.0674C153.365 23.779 151.518 23.7789 150.287 24.4231C149.056 25.7115 148.44 27.6442 149.671 28.9326Z" fill="white"/>
<path d="M172.832 43.9326C174.026 45.221 175.817 45.2211 177.011 44.5769C178.205 43.2885 178.205 41.3558 177.608 40.0674C176.414 38.779 174.623 38.7789 173.429 39.4231C171.638 40.7115 171.638 42.6442 172.832 43.9326Z" fill="white"/>
<path d="M195.423 57.9326C196.712 59.221 198.644 59.2211 199.933 58.5769C201.221 57.2884 201.221 55.3557 200.577 54.0673C199.288 52.7788 197.356 52.779 196.067 53.4232C194.779 54.7117 194.779 56.6442 195.423 57.9326Z" fill="white"/>
<path d="M219.832 72.9326C221.026 74.221 222.817 74.2211 224.011 73.5768C225.205 72.2884 225.205 70.3558 224.608 69.0674C223.414 67.779 221.623 67.7789 220.429 68.4231C218.638 69.7116 218.638 71.6441 219.832 72.9326Z" fill="white"/>
<path d="M88.8322 23.9327C90.0261 25.2212 91.8169 25.221 93.0109 24.5768C94.2048 23.2884 94.2049 21.3558 93.6079 20.0674C92.4139 18.779 90.6229 18.7789 89.429 19.4231C87.6381 20.0674 87.6382 22.6443 88.8322 23.9327Z" fill="white"/>
<path d="M111.832 37.9326C113.026 39.221 114.817 39.2211 116.011 38.5769C117.205 37.2885 117.205 35.3558 116.608 34.0674C115.414 32.779 113.623 32.7789 112.429 33.4231C110.638 34.7115 110.638 36.6442 111.832 37.9326Z" fill="white"/>
<path d="M134.671 52.9326C135.902 54.221 137.749 54.2211 138.98 53.5769C140.211 52.2885 140.211 50.3558 139.596 49.0674C138.365 47.779 136.518 47.7789 135.287 48.4231C134.056 49.7115 133.44 51.6442 134.671 52.9326Z" fill="white"/>
<path d="M158.832 66.9326C160.026 68.221 161.817 68.2211 163.011 67.5769C164.205 66.2884 164.205 64.3557 163.608 63.0673C162.414 61.7788 160.623 61.779 159.429 62.4232C157.638 63.7116 157.638 65.6442 158.832 66.9326Z" fill="white"/>
<path d="M181.671 81.9326C182.902 83.221 184.749 83.2211 185.98 82.5769C187.211 81.2884 187.211 79.3559 186.596 78.0674C185.365 76.779 183.518 76.7789 182.287 77.4232C181.056 78.7116 180.44 80.6441 181.671 81.9326Z" fill="white"/>
<path d="M73.8321 46.9326C75.026 48.221 76.817 48.2211 78.0109 47.5769C79.2048 46.2885 79.2049 44.3558 78.6079 43.0674C77.414 41.779 75.623 41.7789 74.4291 42.4231C72.6382 43.7115 72.6382 45.6442 73.8321 46.9326Z" fill="white"/>
<path d="M96.4231 60.9326C97.7116 62.221 99.6441 62.2211 100.933 61.5769C102.221 60.2884 102.221 58.3557 101.577 57.0673C100.288 55.7788 98.3559 55.779 97.0674 56.4232C95.779 57.7116 95.7789 59.6442 96.4231 60.9326Z" fill="white"/>
<path d="M120.671 75.9326C121.902 77.221 123.749 77.2211 124.98 76.5769C126.211 75.2884 126.211 73.3557 125.596 72.0673C124.364 70.7788 122.518 70.779 121.287 71.4232C120.056 72.0674 119.44 74 120.671 75.9326Z" fill="white"/>
<path d="M35.4231 55.9326C36.7116 57.221 38.6443 57.2211 39.9327 56.5769C41.2212 55.2885 41.221 53.3558 40.5768 52.0674C39.2884 50.779 37.3558 50.7789 36.0674 51.4231C34.779 52.7115 34.7789 54.6442 35.4231 55.9326Z" fill="white"/>
<path d="M59.8321 69.9326C61.026 71.221 62.817 71.2211 64.0109 70.5769C65.2048 69.9326 65.2049 67.3557 64.6079 66.0673C63.414 64.7788 61.623 64.779 60.4291 65.4232C58.6382 66.7116 58.6382 68.6442 59.8321 69.9326Z" fill="white"/>
<path d="M82.4232 84.9326C83.7116 86.221 85.6442 86.2211 86.9326 85.5768C88.221 84.2884 88.2211 82.3559 87.5769 81.0674C86.2884 79.779 84.3557 79.7789 83.0673 80.4231C81.7788 81.7116 81.779 83.6441 82.4232 84.9326Z" fill="white"/>
<path d="M21.6711 78.9326C22.9022 80.221 24.7489 80.2211 25.98 79.5769C27.2112 78.2884 27.2112 76.3557 26.5957 75.0673C25.3645 73.7788 23.5179 73.779 22.2867 74.4232C21.0555 75.0674 20.4399 77 21.6711 78.9326Z" fill="white"/>
<path d="M857.644 37.5099C883.119 14.4192 644.262 78.5 605.778 82L1141.87 95.2368C1196.48 107.117 1342.97 106.18 1264.25 37.51C1165.84 -48.3271 832.169 60.6006 857.644 37.5099Z" fill="#FFE9B9"/>
<circle cx="917" cy="33" r="15" fill="#3DCD90"/>
<circle cx="917" cy="33" r="15" fill="#3DCD90"/>
<circle cx="80" cy="62" r="28" stroke="#3DCD90" stroke-width="2"/>
</g>
</svg>
