<svg width="320" height="49" viewBox="0 0 320 49" fill="none" xmlns="http://www.w3.org/2000/svg">
<path d="M-28 0H713V41.5215C654.955 12.3681 379.241 48 347.131 48C315.021 48 280.133 41.0919 252.036 34.454C223.94 27.8161 155.398 30.9202 120.818 34.454C86.2375 37.9877 -28 42.4049 -28 42.4049V0Z" fill="#6332CD"/>
<mask id="mask0" mask-type="alpha" maskUnits="userSpaceOnUse" x="-24" y="1" width="741" height="48">
<path d="M-24 1H717V42.5215C658.955 13.3681 383.241 49 351.131 49C319.021 49 296.073 44.4444 256.036 35.454C216 26.4636 159.398 31.9202 124.818 35.454C90.2375 38.9877 -24 41.6123 -24 41.6123V1Z" fill="#6332CD"/>
</mask>
<g mask="url(#mask0)">
<path d="M87.5547 12.2885C88.3507 13.1474 89.5446 13.1473 90.3406 12.7179C91.1366 11.8589 91.1366 10.5706 90.7386 9.7116C89.9426 8.85264 88.7487 8.85262 87.9527 9.28209C86.7588 9.71157 86.7588 11.4295 87.5547 12.2885Z" fill="white"/>
<path d="M101.282 20.2884C102.141 21.1474 103.429 21.1474 104.288 20.7179C105.147 19.859 105.147 18.5705 104.718 17.7116C103.859 16.8526 102.571 16.8526 101.712 17.2821C100.853 18.141 100.853 19.4295 101.282 20.2884Z" fill="white"/>
<path d="M115.555 29.2884C116.351 30.1474 117.545 30.1474 118.341 29.7179C119.137 28.859 119.137 27.5705 118.739 26.7116C117.943 25.8527 116.749 25.8526 115.953 26.2821C114.759 27.141 114.759 28.4295 115.555 29.2884Z" fill="white"/>
<path d="M49.5547 9.28848C50.3507 10.1474 51.5447 10.1473 52.3407 9.71786C53.1366 8.8589 53.1365 7.57055 52.7385 6.7116C51.9426 5.85264 50.7487 5.85262 49.9527 6.28209C48.7588 7.14105 48.7588 8.42953 49.5547 9.28848Z" fill="white"/>
<path d="M64.4474 17.2884C65.2681 18.1474 66.4993 18.1474 67.3201 17.7179C68.1408 16.859 68.1408 15.5705 67.7305 14.7116C66.9097 13.8526 65.6785 13.8526 64.8578 14.2821C64.037 15.141 63.6266 16.4295 64.4474 17.2884Z" fill="white"/>
<path d="M78.5548 25.2884C79.3507 26.1474 80.5446 26.1474 81.3406 25.7179C82.1366 24.859 82.1366 23.5705 81.7386 22.7116C80.9426 21.8526 79.7486 21.8526 78.9527 22.2821C77.7587 23.141 77.7588 24.4295 78.5548 25.2884Z" fill="white"/>
<path d="M92.2821 34.2884C93.141 35.1474 94.4295 35.1474 95.2885 34.7179C96.1474 33.859 96.1473 32.5705 95.7179 31.7115C94.8589 30.8526 93.5706 30.8527 92.7116 31.2821C91.8526 32.1411 91.8526 33.4294 92.2821 34.2884Z" fill="white"/>
<path d="M107.555 42.2884C108.351 43.1474 109.545 43.1474 110.341 42.7179C111.137 41.8589 111.137 40.5706 110.739 39.7116C109.943 38.8526 108.749 38.8526 107.953 39.2821C106.759 40.1411 106.759 41.4294 107.555 42.2884Z" fill="white"/>
<path d="M120.282 51.2884C121.141 52.1474 122.429 52.1474 123.288 51.7179C124.147 50.8589 124.147 49.5706 123.718 48.7116C122.859 47.8526 121.57 47.8526 120.712 48.2821C119.853 48.7116 119.853 50.4294 120.282 51.2884Z" fill="white"/>
<path d="M26.5548 14.2885C27.3507 15.1474 28.5446 15.1473 29.3406 14.7179C30.1366 13.8589 30.1366 12.5705 29.7386 11.7116C28.9426 10.8526 27.7486 10.8526 26.9527 11.2821C25.7587 11.7116 25.7588 13.4295 26.5548 14.2885Z" fill="white"/>
<path d="M40.5547 22.2884C41.3507 23.1473 42.5446 23.1474 43.3406 22.7179C44.1366 21.859 44.1366 20.5705 43.7386 19.7116C42.9426 18.8526 41.7487 18.8526 40.9527 19.2821C39.7588 20.141 39.7588 21.4295 40.5547 22.2884Z" fill="white"/>
<path d="M54.4474 31.2884C55.2681 32.1473 56.4993 32.1474 57.3201 31.7179C58.1408 30.859 58.1408 29.5705 57.7305 28.7116C56.9097 27.8526 55.6785 27.8526 54.8578 28.2821C54.037 29.141 53.6266 30.4295 54.4474 31.2884Z" fill="white"/>
<path d="M69.5547 39.2884C70.3507 40.1474 71.5446 40.1474 72.3406 39.7179C73.1365 38.859 73.1366 37.5705 72.7386 36.7115C71.9426 35.8526 70.7487 35.8527 69.9527 36.2821C68.7588 37.1411 68.7588 38.4294 69.5547 39.2884Z" fill="white"/>
<path d="M83.4474 48.2884C84.2682 49.1474 85.4993 49.1474 86.32 48.7179C87.1408 47.8589 87.1408 46.5706 86.7304 45.7116C85.9097 44.8526 84.6786 44.8526 83.8578 45.2821C83.037 46.1411 82.6266 47.4294 83.4474 48.2884Z" fill="white"/>
<path d="M17.5547 27.2884C18.3507 28.1473 19.5446 28.1474 20.3406 27.7179C21.1365 26.859 21.1366 25.5705 20.7386 24.7116C19.9426 23.8526 18.7487 23.8526 17.9527 24.2821C16.7588 25.141 16.7588 26.4295 17.5547 27.2884Z" fill="white"/>
<path d="M31.2821 35.2884C32.1411 36.1474 33.4294 36.1474 34.2884 35.7179C35.1474 34.8589 35.1474 33.5705 34.7179 32.7115C33.8589 31.8526 32.5706 31.8527 31.7116 32.2821C30.8526 33.1411 30.8526 34.4294 31.2821 35.2884Z" fill="white"/>
<path d="M46.4474 44.2884C47.2681 45.1474 48.4993 45.1474 49.3201 44.7179C50.1409 43.859 50.1408 42.5705 49.7304 41.7115C48.9096 40.8526 47.6786 40.8527 46.8578 41.2821C46.037 41.7116 45.6266 43 46.4474 44.2884Z" fill="white"/>
<path d="M8.55472 41.2884C9.35067 42.1473 10.5446 42.1474 11.3406 41.7179C12.1365 41.2884 12.1366 39.5705 11.7386 38.7115C10.9426 37.8526 9.74867 37.8527 8.95272 38.2821C7.75879 39.1411 7.75877 40.4294 8.55472 41.2884Z" fill="white"/>
<path d="M22.2821 50.2884C23.1411 51.1474 24.4294 51.1474 25.2884 50.7179C26.1474 49.8589 26.1474 48.5706 25.7179 47.7116C24.859 46.8526 23.5705 46.8526 22.7115 47.2821C21.8526 48.1411 21.8527 49.4294 22.2821 50.2884Z" fill="white"/>
<path d="M268.907 20.6914C284.636 7.12263 138.711 35.5844 114.95 37.6411L444.392 54.6134C478.111 61.5943 568.557 61.0437 519.952 20.6914C459.195 -29.7489 253.179 34.2601 268.907 20.6914Z" fill="#FFE9B9"/>
<ellipse cx="304.5" cy="16" rx="9.5" ry="9" fill="#3DCD90"/>
<ellipse cx="304.5" cy="16" rx="9.5" ry="9" fill="#3DCD90"/>
<path d="M39 36C39 44.7835 31.4435 52 22 52C12.5565 52 5 44.7835 5 36C5 27.2165 12.5565 20 22 20C31.4435 20 39 27.2165 39 36Z" stroke="#3DCD90" stroke-width="2"/>
</g>
</svg>
