<svg width="640" height="72" viewBox="0 0 640 72" fill="none" xmlns="http://www.w3.org/2000/svg">
<path d="M0 0H1007V62.2822C928.118 18.5521 553.43 72 509.794 72C466.157 72 418.744 61.6379 380.562 51.681C342.38 41.7241 249.232 46.3804 202.239 51.681C155.246 56.9816 0 63.6074 0 63.6074V0Z" fill="#6332CD"/>
<mask id="mask0" mask-type="alpha" maskUnits="userSpaceOnUse" x="0" y="0" width="1007" height="72">
<path d="M0 0H1007V62.2822C928.118 18.5521 553.43 72 509.794 72C466.157 72 418.744 61.6379 380.562 51.681C342.38 41.7241 249.232 46.3804 202.239 51.681C155.246 56.9816 0 63.6074 0 63.6074V0Z" fill="#6332CD"/>
</mask>
<g mask="url(#mask0)">
<path d="M157.693 17.8537C158.688 18.974 160.181 18.9739 161.176 18.4137C162.171 17.2934 162.171 15.6129 161.673 14.4925C160.678 13.3721 159.186 13.3721 158.191 13.9323C156.698 14.4925 156.698 16.7333 157.693 17.8537Z" fill="white"/>
<path d="M176.353 30.3753C177.426 31.4957 179.037 31.4957 180.111 30.9355C181.184 29.8152 181.184 28.1346 180.647 27.0142C179.574 25.8939 177.963 25.8938 176.889 26.454C175.816 27.5744 175.816 29.255 176.353 30.3753Z" fill="white"/>
<path d="M196.693 43.9405C197.688 45.0609 199.181 45.0609 200.176 44.5007C201.171 43.3804 201.171 41.6998 200.673 40.5794C199.678 39.4591 198.186 39.459 197.191 40.0192C195.698 41.1396 195.698 42.8201 196.693 43.9405Z" fill="white"/>
<path d="M106.693 12.6363C107.688 13.7566 109.181 13.7565 110.176 13.1963C111.171 12.0759 111.171 10.3955 110.673 9.27511C109.678 8.15473 108.186 8.1547 107.191 8.71489C105.698 9.83526 105.698 11.5159 106.693 12.6363Z" fill="white"/>
<path d="M125.559 25.1579C126.585 26.2783 128.124 26.2783 129.15 25.7181C130.176 24.5978 130.176 22.9172 129.663 21.7968C128.637 20.6765 127.098 20.6764 126.072 21.2366C125.046 22.357 124.533 24.0376 125.559 25.1579Z" fill="white"/>
<path d="M144.693 37.6796C145.688 38.8 147.181 38.8 148.176 38.2398C149.171 37.1195 149.171 35.4389 148.673 34.3185C147.678 33.1982 146.186 33.1982 145.191 33.7583C143.698 34.8787 143.699 36.5593 144.693 37.6796Z" fill="white"/>
<path d="M164.353 50.2014C165.426 51.3218 167.037 51.3218 168.111 50.7616C169.184 49.6413 169.184 47.9606 168.647 46.8402C167.574 45.7199 165.963 45.72 164.889 46.2802C163.816 47.4006 163.816 49.081 164.353 50.2014Z" fill="white"/>
<path d="M184.693 63.7666C185.688 64.887 187.181 64.887 188.176 64.3268C189.171 63.2064 189.171 61.5259 188.673 60.4056C187.678 59.2852 186.186 59.2851 185.191 59.8453C183.698 60.9657 183.698 62.6462 184.693 63.7666Z" fill="white"/>
<path d="M74.6935 20.9841C75.6884 22.1045 77.1808 22.1043 78.1757 21.5442C79.1707 20.4238 79.1707 18.7433 78.6732 17.6229C77.6783 16.5026 76.1858 16.5025 75.1908 17.0627C73.6984 17.6229 73.6985 19.8637 74.6935 20.9841Z" fill="white"/>
<path d="M93.6934 32.4623C94.6884 33.5826 96.1808 33.5827 97.1757 33.0225C98.1707 31.9021 98.1707 30.2216 97.6732 29.1012C96.6783 27.9808 95.1859 27.9808 94.1909 28.541C92.6985 29.6613 92.6985 31.3419 93.6934 32.4623Z" fill="white"/>
<path d="M113.559 46.0275C114.585 47.1478 116.124 47.1479 117.15 46.5877C118.176 45.4673 118.176 43.7867 117.663 42.6664C116.637 41.546 115.098 41.546 114.072 42.1062C113.046 43.2265 112.533 44.9071 113.559 46.0275Z" fill="white"/>
<path d="M133.693 58.5492C134.688 59.6696 136.181 59.6696 137.176 59.1094C138.171 57.989 138.171 56.3084 137.673 55.188C136.678 54.0677 135.186 54.0678 134.191 54.628C132.698 55.7484 132.698 57.4288 133.693 58.5492Z" fill="white"/>
<path d="M152.559 71.0709C153.585 72.1913 155.124 72.1913 156.15 71.6311C157.176 70.5107 157.176 68.8303 156.663 67.7099C155.637 66.5895 154.098 66.5895 153.072 67.1496C152.046 68.27 151.533 69.9505 152.559 71.0709Z" fill="white"/>
<path d="M61.6934 40.8101C62.6883 41.9304 64.1808 41.9305 65.1757 41.3703C66.1707 40.2499 66.1707 38.5693 65.6732 37.449C64.6783 36.3286 63.1858 36.3286 62.1909 36.8888C60.6985 38.0091 60.6985 39.6897 61.6934 40.8101Z" fill="white"/>
<path d="M81.3526 53.3318C82.4263 54.4522 84.0368 54.4522 85.1105 53.8921C86.1842 52.7717 86.1842 51.0911 85.6474 49.9707C84.5737 48.8503 82.9632 48.8504 81.8895 49.4106C80.8158 50.531 80.8158 52.2115 81.3526 53.3318Z" fill="white"/>
<path d="M101.559 65.8536C102.585 66.9739 104.124 66.974 105.15 66.4138C106.176 65.2934 106.176 63.6128 105.663 62.4924C104.637 61.372 103.098 61.3722 102.072 61.9324C101.046 62.4925 100.533 64.173 101.559 65.8536Z" fill="white"/>
<path d="M29.3526 49.1579C30.4263 50.2783 32.0369 50.2783 33.1106 49.7181C34.1843 48.5978 34.1842 46.9172 33.6473 45.7968C32.5736 44.6765 30.9632 44.6764 29.8895 45.2366C28.8158 46.357 28.8158 48.0376 29.3526 49.1579Z" fill="white"/>
<path d="M50.6934 60.6362C51.6883 61.7565 53.1808 61.7566 54.1757 61.1964C55.1707 60.6362 55.1707 58.3954 54.6732 57.275C53.6783 56.1546 52.1858 56.1548 51.1909 56.715C49.6985 57.8353 49.6985 59.5158 50.6934 60.6362Z" fill="white"/>
<path d="M69.3527 74.2014C70.4264 75.3218 72.0368 75.3218 73.1105 74.7616C74.1842 73.6412 74.1842 71.9608 73.6474 70.8404C72.5737 69.72 70.9631 69.7199 69.8894 70.2801C68.8157 71.4005 68.8158 73.081 69.3527 74.2014Z" fill="white"/>
<path d="M18.5592 68.984C19.5852 70.1044 21.1241 70.1044 22.15 69.5442C23.176 68.4238 23.176 66.7432 22.6631 65.6228C21.6371 64.5025 20.0982 64.5026 19.0722 65.0628C18.0463 65.623 17.5333 67.3034 18.5592 68.984Z" fill="white"/>
<path d="M719.491 32.69C740.881 12.3214 540.325 68.848 508.011 71.9354L958.139 83.6118C1003.99 94.0912 1127 93.2647 1060.9 32.6901C978.271 -43.0281 698.101 53.0587 719.491 32.69Z" fill="#FFE9B9"/>
<path d="M91 53.7387C91 67.3462 80.439 78.3039 67.5 78.3039C54.561 78.3039 44 67.3462 44 53.7387C44 40.1311 54.561 29.1735 67.5 29.1735C80.439 29.1735 91 40.1311 91 53.7387Z" stroke="#3DCD90" stroke-width="2"/>
</g>
</svg>
