<svg width="320" height="32" viewBox="0 0 320 32" fill="none" xmlns="http://www.w3.org/2000/svg">
<path d="M0 7.27267C0 7.27267 14 -1.19401 97.6783 0.148075C181.357 1.49016 320 15.106 320 15.106V31.9983L4.57764e-05 31.9983L0 7.27267Z" fill="#6332CD"/>
<mask id="mask0" mask-type="alpha" maskUnits="userSpaceOnUse" x="0" y="0" width="320" height="32">
<path d="M0 3.67639C0 3.67639 0.0779419 -0.620472 97.789 0.0764585C195.5 0.773389 320 15.0294 320 15.0294V31.998H0V3.67639Z" fill="#6332CD"/>
</mask>
<g mask="url(#mask0)">
<path d="M403 4.26584C403 8.7744 401.485 12.1857 398.69 14.782C395.859 17.4112 391.64 19.2728 386.127 20.4809C375.089 22.8997 359.286 22.6143 340.322 21.1218C328.463 20.1885 315.39 18.7844 301.539 17.2967C271.232 14.0415 237.197 10.3861 204 10.3861C167.349 10.3861 136.872 14.8392 113.239 18.2923C105.662 19.3994 98.7878 20.4038 92.6397 21.1256C79.9008 22.6211 70.4502 22.878 64.1988 20.522C61.1222 19.3625 58.8574 17.5814 57.343 15.0076C55.8163 12.4127 55 8.92309 55 4.26584C55 -0.485704 55.1746 -4.2186 55.6545 -7.13656C56.1351 -10.0585 56.9072 -12.0651 58.028 -13.4438C60.2204 -16.1406 64.1037 -16.8417 71.5784 -16.2652C75.4562 -15.9662 80.1988 -15.3341 85.9668 -14.5654C102.078 -12.4182 126.189 -9.20483 161.798 -9.20483C185.994 -9.20483 213.241 -10.6844 240.476 -12.3053C243.841 -12.5056 247.206 -12.7081 250.565 -12.9101C274.403 -14.3443 297.945 -15.7605 319.166 -16.2625C343.395 -16.8357 364.51 -16.2135 379.544 -13.0954C387.067 -11.5353 392.97 -9.3686 396.973 -6.48729C400.934 -3.63517 403 -0.115528 403 4.26584Z" stroke="#3DCD90" stroke-width="2"/>
<ellipse cx="290" cy="7.27206" rx="19" ry="15.0294" fill="#3DCD90"/>
<path d="M67.8743 2.84793C68.4683 3.41931 69.3593 3.41933 69.9533 3.13364C70.5473 2.56226 70.5472 1.70516 70.2502 1.13378C69.6562 0.562408 68.7653 0.56239 68.1713 0.848079C67.5773 1.13377 67.2803 2.27656 67.8743 2.84793Z" fill="white"/>
<path d="M78.9709 9.49831C79.5649 10.0697 80.4559 10.0697 81.0499 9.78403C81.6439 9.21264 81.6439 8.35552 81.3469 7.78413C80.7529 7.21274 79.8619 7.21281 79.2679 7.49851C78.674 7.7842 78.377 8.92693 78.9709 9.49831Z" fill="white"/>
<path d="M38.324 0.186312C38.9456 0.75769 39.8781 0.757707 40.4997 0.472019C41.1213 -0.0993585 41.1213 -0.956459 40.8105 -1.52784C40.1889 -2.09921 39.2564 -2.09923 38.6348 -1.81354C38.0132 -1.24217 38.0132 -0.385065 38.324 0.186312Z" fill="white"/>
<path d="M49.618 6.83718C50.194 7.40857 51.0581 7.40859 51.6341 7.12289C52.2102 6.5515 52.2102 5.69439 51.9221 5.123C51.3461 4.55161 50.482 4.55168 49.906 4.83737C49.0419 5.40876 49.042 6.26579 49.618 6.83718Z" fill="white"/>
<path d="M61.1971 13.0452C61.7731 13.6166 62.6371 13.6166 63.2132 13.3309C63.7893 12.7595 63.7893 11.9025 63.5012 11.3311C62.9252 10.7597 62.0612 10.7597 61.4851 11.0454C60.621 11.6167 60.621 12.4738 61.1971 13.0452Z" fill="white"/>
<path d="M72.2161 19.6986C72.81 20.27 73.701 20.2699 74.295 19.9842C74.889 19.4128 74.889 18.5558 74.592 17.9844C73.9981 17.413 73.107 17.413 72.5131 17.6987C71.9191 18.2701 71.6221 19.1272 72.2161 19.6986Z" fill="white"/>
<path d="M20.1873 4.17655C20.7634 4.74792 21.6274 4.74794 22.2034 4.46225C22.7795 3.89088 22.7795 3.03378 22.4915 2.4624C21.9154 1.89102 21.0514 1.891 20.4753 2.17669C19.6113 2.46238 19.6113 3.60517 20.1873 4.17655Z" fill="white"/>
<path d="M31.0867 10.8294C31.7083 11.4008 32.6408 11.4008 33.2624 11.1151C33.884 10.5437 33.884 9.68657 33.5732 9.11519C32.9516 8.5438 32.0191 8.54387 31.3975 8.82956C30.7759 9.11525 30.7759 10.258 31.0867 10.8294Z" fill="white"/>
<path d="M42.8631 17.0374C43.4391 17.6088 44.3032 17.6088 44.8792 17.3231C45.4553 17.0374 45.4553 15.8946 45.1673 15.3233C44.5912 14.7519 43.7271 14.7518 43.1511 15.0375C42.2871 15.6089 42.287 16.466 42.8631 17.0374Z" fill="white"/>
<path d="M53.7634 23.6912C54.3851 24.2626 55.3175 24.2626 55.9391 23.9769C56.5607 23.6912 56.5608 22.5484 56.2499 21.9771C55.9391 21.4057 54.6959 21.4056 54.0743 21.6913C53.4526 22.2627 53.4526 23.1199 53.7634 23.6912Z" fill="white"/>
<path d="M1.77562 8.16824C2.3696 8.73963 3.26061 8.73964 3.8546 8.45395C4.44858 8.16825 4.4486 7.02544 4.15161 6.45405C3.55762 5.88266 2.66661 5.88273 2.07263 6.16843C1.47865 6.73982 1.18164 7.59685 1.77562 8.16824Z" fill="white"/>
<path d="M13.4325 14.3772C14.0085 14.9486 14.8725 14.9486 15.4486 14.6629C16.0246 14.0915 16.0246 13.2345 15.7366 12.6631C15.1606 12.0917 14.2965 12.0917 13.7204 12.3774C12.8563 12.9488 12.8564 13.8058 13.4325 14.3772Z" fill="white"/>
<path d="M24.3318 21.0296C24.9534 21.601 25.8859 21.6009 26.5075 21.3152C27.1292 20.7439 27.1291 19.8868 26.8183 19.3154C26.1966 18.744 25.2643 18.744 24.6426 19.0297C24.021 19.6011 24.021 20.4582 24.3318 21.0296Z" fill="white"/>
<path d="M35.6258 27.6805C36.2018 28.2519 37.0659 28.2518 37.6419 27.9661C38.218 27.3947 38.218 26.5377 37.93 25.9663C37.3539 25.3949 36.4898 25.3949 35.9138 25.6806C35.0498 25.9663 35.0497 26.8234 35.6258 27.6805Z" fill="white"/>
<path d="M6.19511 25.0194C6.77114 25.5908 7.63523 25.5907 8.21126 25.305C8.7873 25.0193 8.78732 23.8766 8.4993 23.3052C7.92326 22.7338 7.05918 22.7338 6.48314 23.0195C5.61909 23.5909 5.61907 24.448 6.19511 25.0194Z" fill="white"/>
<path d="M17.0955 31.2278C17.7171 31.7992 18.6495 31.7992 19.2711 31.5135C19.8928 30.9421 19.8928 30.085 19.582 29.5137C18.9603 28.9423 18.0279 28.9423 17.4063 29.228C16.7847 29.7993 16.7846 30.6564 17.0955 31.2278Z" fill="white"/>
</g>
</svg>
