<svg width="1200" height="72" viewBox="0 0 1200 72" fill="none" xmlns="http://www.w3.org/2000/svg">
<path d="M0 23.043C0 23.043 53 2.64422 242 0.0943779C431 -2.45547 723.5 47.5216 901 45.9916C1078.5 44.4616 1200 23.043 1200 23.043V72H0V23.043Z" fill="#6332CD"/>
<path d="M0 23.043C0 23.043 53 2.64422 242 0.0943779C431 -2.45547 723.5 47.5216 901 45.9916C1078.5 44.4616 1200 23.043 1200 23.043V72H0V23.043Z" fill="#6332CD"/>
<mask id="mask0" mask-type="alpha" maskUnits="userSpaceOnUse" x="0" y="0" width="1200" height="72">
<path d="M0 23.043C0 23.043 53 2.64422 242 0.0943779C431 -2.45547 723.5 47.5216 901 45.9916C1078.5 44.4616 1200 23.043 1200 23.043V72H0V23.043Z" fill="#6332CD"/>
</mask>
<g mask="url(#mask0)">
<path d="M720 8.66583C720 17.8347 717.528 24.8265 712.992 30.1119C708.444 35.4124 701.735 39.0957 693.087 41.4735C675.75 46.2398 650.964 45.6726 621.274 42.741C602.69 40.906 582.211 38.1464 560.518 35.223C513.074 28.8295 459.818 21.6529 407.857 21.6529C350.498 21.6529 302.813 30.3942 265.813 37.177C253.943 39.3529 243.173 41.3273 233.536 42.7468C223.605 44.2096 214.898 45.0815 207.422 44.994C199.941 44.9065 193.76 43.8584 188.844 41.5337C183.956 39.2227 180.271 35.6288 177.79 30.3386C175.296 25.02 174 17.9443 174 8.66583C174 -0.68314 174.273 -8.0934 175.037 -13.9219C175.803 -19.7615 177.05 -23.9155 178.931 -26.8184C182.587 -32.4613 188.917 -33.754 200.547 -32.6288C206.637 -32.0395 214.075 -30.7957 223.117 -29.2838C248.344 -25.0656 286.052 -18.7604 341.781 -18.7604C379.655 -18.7604 422.307 -21.6663 464.949 -24.8504C470.217 -25.2438 475.486 -25.6415 480.745 -26.0384C518.069 -28.8556 554.934 -31.6382 588.167 -32.6246C626.104 -33.7505 659.195 -32.5302 682.775 -26.3944C694.564 -23.327 703.883 -19.0535 710.242 -13.3098C716.566 -7.59747 720 -0.400681 720 8.66583Z" stroke="#3DCD90" stroke-width="2"/>
<circle cx="543" cy="15" r="30" fill="#3DCD90"/>
<path d="M182.865 0.224647C183.381 0.74091 184.156 0.740926 184.672 0.482795C185.188 -0.0334681 185.188 -0.807894 184.93 -1.32416C184.414 -1.84042 183.639 -1.84044 183.123 -1.5823C182.607 -1.32417 182.349 -0.291616 182.865 0.224647Z" fill="white"/>
<path d="M192.676 6.41947C193.193 6.93573 193.967 6.93575 194.483 6.67762C195 6.16136 195 5.38693 194.742 4.87067C194.225 4.3544 193.451 4.35447 192.935 4.6126C192.418 4.87073 192.16 5.90321 192.676 6.41947Z" fill="white"/>
<path d="M166.6 3.83793C167.117 4.35419 167.891 4.35421 168.407 4.09608C168.924 3.57981 168.924 2.80539 168.665 2.28912C168.149 1.77286 167.375 1.77292 166.858 2.03106C166.084 2.54732 166.084 3.32167 166.6 3.83793Z" fill="white"/>
<path d="M176.676 10.0337C177.192 10.55 177.966 10.55 178.482 10.2919C178.999 9.77561 178.999 9.00127 178.741 8.485C178.224 7.96874 177.45 7.96872 176.934 8.22686C176.159 8.74312 176.159 9.51747 176.676 10.0337Z" fill="white"/>
<path d="M186.486 16.2286C187.002 16.7449 187.777 16.7448 188.293 16.4867C188.809 15.9704 188.809 15.1961 188.551 14.6798C188.035 14.1635 187.26 14.1635 186.744 14.4217C186.228 14.9379 185.97 15.7123 186.486 16.2286Z" fill="white"/>
<path d="M140.536 1.51517C141.052 2.03144 141.827 2.03145 142.343 1.77332C142.859 1.25706 142.859 0.482633 142.601 -0.0336297C142.085 -0.549893 141.31 -0.549909 140.794 -0.291777C140.02 -0.0336456 140.02 0.998912 140.536 1.51517Z" fill="white"/>
<path d="M150.346 7.71C150.863 8.22626 151.637 8.22628 152.153 7.96815C152.67 7.45188 152.67 6.67746 152.412 6.16119C151.895 5.64493 151.121 5.64499 150.605 5.90313C150.088 6.16126 150.088 7.19374 150.346 7.71Z" fill="white"/>
<path d="M160.412 13.9058C160.928 14.4221 161.703 14.4221 162.219 14.1639C162.735 13.9058 162.735 12.8733 162.477 12.3571C161.961 11.8408 161.186 11.8408 160.67 12.0989C159.896 12.6152 159.896 13.3895 160.412 13.9058Z" fill="white"/>
<path d="M170.221 20.1007C170.738 20.6169 171.512 20.6169 172.028 20.3587C172.545 20.1006 172.545 19.0681 172.287 18.5519C172.028 18.0356 170.996 18.0356 170.48 18.2937C169.963 18.81 169.963 19.5844 170.221 20.1007Z" fill="white"/>
<path d="M124.272 5.12894C124.788 5.64521 125.563 5.64522 126.079 5.38709C126.595 5.12896 126.595 4.0964 126.337 3.58014C125.821 3.06388 125.047 3.06394 124.53 3.32207C124.014 3.83833 123.756 4.61268 124.272 5.12894Z" fill="white"/>
<path d="M134.336 11.3243C134.852 11.8405 135.626 11.8405 136.143 11.5824C136.659 11.0661 136.659 10.2918 136.401 9.77553C135.885 9.25927 135.11 9.25925 134.594 9.51738C133.819 10.0336 133.819 10.808 134.336 11.3243Z" fill="white"/>
<path d="M144.145 17.5191C144.662 18.0354 145.436 18.0353 145.952 17.7772C146.468 17.2609 146.468 16.4866 146.21 15.9703C145.694 15.4541 144.92 15.454 144.403 15.7122C143.887 16.2284 143.887 17.0029 144.145 17.5191Z" fill="white"/>
<path d="M154.218 23.9727C154.735 24.489 155.509 24.4889 156.025 24.2308C156.542 23.7145 156.542 22.9402 156.284 22.4239C155.767 21.9077 154.993 21.9077 154.477 22.1658C153.702 22.4239 153.702 23.1983 154.218 23.9727Z" fill="white"/>
<path d="M98.1961 2.8057C98.7124 3.32197 99.4867 3.32198 100.003 3.06385C100.519 2.54759 100.519 1.77316 100.261 1.2569C99.7449 0.740635 98.9704 0.740619 98.4542 0.99875C97.6798 1.25688 97.6798 2.28944 98.1961 2.8057Z" fill="white"/>
<path d="M108.269 9.00101C108.786 9.51728 109.56 9.51729 110.076 9.25916C110.592 8.7429 110.592 7.96847 110.334 7.45221C109.818 6.93595 109.044 6.93601 108.527 7.19414C107.753 7.7104 107.753 8.48475 108.269 9.00101Z" fill="white"/>
<path d="M118.082 15.1963C118.598 15.7126 119.372 15.7126 119.889 15.4545C120.405 14.9382 120.405 14.1639 120.147 13.6476C119.631 13.1313 118.856 13.1313 118.34 13.3895C117.824 13.9057 117.565 14.6801 118.082 15.1963Z" fill="white"/>
<path d="M128.143 21.3912C128.66 21.9075 129.434 21.9074 129.95 21.6493C130.466 21.3911 130.467 20.3587 130.208 19.8424C129.692 19.3261 128.918 19.3261 128.401 19.5842C127.627 20.1005 127.627 20.8749 128.143 21.3912Z" fill="white"/>
<path d="M137.955 27.587C138.471 28.1032 139.245 28.1032 139.762 27.8451C140.278 27.3288 140.278 26.5544 140.02 26.0381C139.504 25.5219 138.729 25.5219 138.213 25.78C137.697 26.2963 137.697 27.0707 137.955 27.587Z" fill="white"/>
<path d="M148.018 33.7818C148.535 34.298 149.309 34.2981 149.825 34.0399C150.342 33.5237 150.341 32.7492 150.083 32.233C149.567 31.7167 148.793 31.7167 148.276 31.9748C147.502 32.4911 147.502 33.2655 148.018 33.7818Z" fill="white"/>
<path d="M72.1307 0.224647C72.6469 0.74091 73.4213 0.740926 73.9375 0.482795C74.4538 0.224663 74.4538 -0.807894 74.1957 -1.32416C73.6794 -1.84042 72.9051 -1.84044 72.3888 -1.5823C71.6144 -1.06604 71.6144 -0.291616 72.1307 0.224647Z" fill="white"/>
<path d="M81.9411 6.41947C82.4574 6.93573 83.2318 6.93575 83.7481 6.67762C84.2643 6.41949 84.2644 5.38693 84.0062 4.87067C83.49 4.3544 82.7155 4.35447 82.1993 4.6126C81.683 5.12886 81.683 5.90321 81.9411 6.41947Z" fill="white"/>
<path d="M92.0056 12.6148C92.5218 13.131 93.2963 13.1311 93.8125 12.8729C94.3288 12.3567 94.3288 11.5823 94.0707 11.0661C93.5544 10.5498 92.78 10.5498 92.2637 10.8079C91.4893 11.3242 91.4893 12.0985 92.0056 12.6148Z" fill="white"/>
<path d="M101.816 18.8101C102.332 19.3264 103.107 19.3263 103.623 19.0682C104.139 18.552 104.139 17.7776 103.881 17.2613C103.365 16.7451 102.591 16.7451 102.074 17.0032C101.558 17.5195 101.558 18.2939 101.816 18.8101Z" fill="white"/>
<path d="M111.879 25.2633C112.395 25.7795 113.169 25.7795 113.686 25.5213C114.202 25.0051 114.202 24.2307 113.944 23.7145C113.427 23.1982 112.653 23.1982 112.137 23.4563C111.621 23.7145 111.362 24.4889 111.879 25.2633Z" fill="white"/>
<path d="M121.954 31.4585C122.47 31.9748 123.245 31.9748 123.761 31.7167C124.277 31.2004 124.277 30.426 124.019 29.9097C123.503 29.3935 122.728 29.3935 122.212 29.6516C121.438 29.9097 121.438 30.9423 121.954 31.4585Z" fill="white"/>
<path d="M55.8669 4.09672C56.3832 4.61298 57.1576 4.613 57.6739 4.35487C58.1901 3.8386 58.1901 3.06418 57.932 2.54791C57.4158 2.03165 56.6413 2.03163 56.1251 2.28977C55.6088 2.5479 55.3507 3.58045 55.8669 4.09672Z" fill="white"/>
<path d="M65.9295 10.2915C66.4458 10.8078 67.2201 10.8078 67.7364 10.5497C68.2526 10.0334 68.2526 9.259 67.9945 8.74274C67.4783 8.22647 66.7038 8.22654 66.1876 8.48467C65.4132 9.00093 65.4132 9.77528 65.9295 10.2915Z" fill="white"/>
<path d="M75.742 16.4869C76.2582 17.0031 77.0327 17.0031 77.5489 16.745C78.0652 16.2287 78.0651 15.4544 77.807 14.9381C77.2907 14.4219 76.5164 14.4218 76.0001 14.68C75.4838 15.1962 75.4838 15.9706 75.742 16.4869Z" fill="white"/>
<path d="M85.8132 22.6817C86.3295 23.198 87.1039 23.1979 87.6202 22.9398C88.1364 22.4235 88.1364 21.6492 87.8783 21.1329C87.362 20.6167 86.5876 20.6166 86.0714 20.8748C85.297 21.391 85.2969 22.1655 85.8132 22.6817Z" fill="white"/>
<path d="M95.615 28.8775C96.1313 29.3937 96.9057 29.3938 97.4219 29.1356C97.9382 28.6194 97.9382 27.8449 97.6801 27.3287C97.1638 26.8124 96.3894 26.8124 95.8731 27.0705C95.3568 27.5868 95.3569 28.3612 95.615 28.8775Z" fill="white"/>
<path d="M105.688 35.0723C106.205 35.5886 106.979 35.5886 107.495 35.3305C108.011 34.8142 108.011 34.0398 107.753 33.5235C107.237 33.0072 106.463 33.0072 105.946 33.2654C105.43 33.7816 105.172 34.556 105.688 35.0723Z" fill="white"/>
<path d="M29.7908 1.51517C30.3071 2.03144 31.0814 2.03145 31.5977 1.77332C32.114 1.25706 32.114 0.482633 31.8558 -0.0336297C31.3396 -0.549893 30.5652 -0.549909 30.0489 -0.291777C29.2745 0.224486 29.2746 0.998912 29.7908 1.51517Z" fill="white"/>
<path d="M39.8641 7.71C40.3803 8.22626 41.1547 8.22628 41.6709 7.96815C42.1872 7.45188 42.1872 6.67746 41.9291 6.16119C41.4128 5.64493 40.6385 5.64499 40.1222 5.90313C39.3478 6.41939 39.3478 7.19374 39.8641 7.71Z" fill="white"/>
<path d="M49.6755 13.9058C50.1918 14.4221 50.9662 14.4221 51.4825 14.1639C51.9987 13.6477 51.9987 12.8733 51.7406 12.3571C51.2243 11.8408 50.4499 11.8408 49.9337 12.0989C49.4174 12.6152 49.1592 13.3895 49.6755 13.9058Z" fill="white"/>
<path d="M59.739 20.1007C60.2552 20.6169 61.0297 20.6169 61.5459 20.3587C62.0622 19.8425 62.0622 19.0681 61.8041 18.5519C61.2878 18.0356 60.5134 18.0356 59.9971 18.2937C59.2227 18.81 59.2227 19.5844 59.739 20.1007Z" fill="white"/>
<path d="M69.5506 26.5538C70.0669 27.0701 70.8412 27.07 71.3575 26.8119C71.8737 26.2956 71.8737 25.5213 71.6156 25.005C71.0993 24.4887 70.325 24.4887 69.8087 24.7468C69.2925 25.005 69.0343 25.7794 69.5506 26.5538Z" fill="white"/>
<path d="M13.5368 5.38725C14.0531 5.90351 14.8275 5.90352 15.3438 5.64539C15.8601 5.12913 15.8601 4.3547 15.6019 3.83844C15.0857 3.32218 14.3112 3.32216 13.795 3.58029C13.2787 3.83842 13.2787 4.87098 13.5368 5.38725Z" fill="white"/>
<path d="M23.6013 11.5821C24.1176 12.0983 24.892 12.0983 25.4082 11.8402C25.9245 11.324 25.9245 10.5495 25.6664 10.0333C25.1501 9.517 24.3757 9.51706 23.8594 9.7752C23.085 10.2915 23.085 11.0658 23.6013 11.5821Z" fill="white"/>
</g>
</svg>
