<svg width="640" height="56" viewBox="0 0 640 56" fill="none" xmlns="http://www.w3.org/2000/svg">
<mask id="mask0" mask-type="alpha" maskUnits="userSpaceOnUse" x="0" y="0" width="640" height="56">
<rect width="640" height="56" fill="#C4C4C4"/>
</mask>
<g mask="url(#mask0)">
<path d="M-12 17.9223C-12 17.9223 29.9142 2.05662 179.382 0.073405C328.849 -1.90981 560.168 36.9613 700.541 35.7712C840.914 34.5812 937 17.9223 937 17.9223V56H-12V17.9223Z" fill="#6332CD"/>
<path d="M-12 17.9223C-12 17.9223 29.9142 2.05662 179.382 0.073405C328.849 -1.90981 560.168 36.9613 700.541 35.7712C840.914 34.5812 937 17.9223 937 17.9223V56H-12V17.9223Z" fill="#6332CD"/>
<mask id="mask1" mask-type="alpha" maskUnits="userSpaceOnUse" x="-12" y="0" width="949" height="56">
<path d="M-12 17.2935C-12 17.2935 29.9142 1.98446 179.382 0.0708294C328.849 -1.8428 560.168 35.6644 700.541 34.5161C840.914 33.3678 937 17.2935 937 17.2935V56H-12V17.2935Z" fill="#6332CD"/>
</mask>
<g mask="url(#mask1)">
<path d="M557 6.36971C557 13.2836 555.065 18.5339 551.526 22.5004C547.971 26.4856 542.713 29.271 535.898 31.0733C522.235 34.6871 502.679 34.2599 479.219 32.0315C464.546 30.6378 448.372 28.5411 431.235 26.3196C393.741 21.4592 351.64 16.0014 310.571 16.0014C265.232 16.0014 227.531 22.65 198.294 27.8059C188.919 29.4592 180.414 30.959 172.807 32.0369C164.963 33.1483 158.094 33.8096 152.2 33.7433C146.301 33.6769 141.446 32.8815 137.595 31.1298C133.773 29.3913 130.902 26.6946 128.968 22.7279C127.021 18.7332 126 13.3991 126 6.36971C126 -0.733736 126.216 -6.35155 126.817 -10.7633C127.42 -15.1851 128.398 -18.2968 129.853 -20.4569C132.665 -24.6321 137.551 -25.6358 146.749 -24.7796C151.549 -24.3329 157.418 -23.3889 164.555 -22.2409C184.487 -19.0347 214.311 -14.2374 258.361 -14.2374C288.295 -14.2374 322.002 -16.4466 355.695 -18.8669C359.858 -19.166 364.021 -19.4682 368.177 -19.77C397.668 -21.9114 426.793 -24.0261 453.048 -24.7758C483.022 -25.6316 509.147 -24.7028 527.753 -20.0455C537.055 -17.717 544.384 -14.4782 549.373 -10.1435C554.325 -5.84077 557 -0.437593 557 6.36971Z" stroke="#3DCD90" stroke-width="2"/>
<ellipse cx="417.5" cy="11.5833" rx="23.5" ry="23.1653" fill="#3DCD90"/>
<path d="M132.224 -0.343417C132.634 0.0711143 133.25 0.071127 133.66 -0.136139C134.07 -0.55067 134.07 -1.17249 133.865 -1.58702C133.455 -2.00155 132.839 -2.00157 132.429 -1.7943C132.019 -1.58704 131.813 -0.757948 132.224 -0.343417Z" fill="white"/>
<path d="M140.224 4.48275C140.634 4.89729 141.25 4.8973 141.66 4.69003C142.07 4.27549 142.07 3.65366 141.865 3.23912C141.455 2.82458 140.839 2.82463 140.429 3.0319C140.019 3.23917 139.813 4.06821 140.224 4.48275Z" fill="white"/>
<path d="M119.277 2.55208C119.675 2.96662 120.272 2.96664 120.67 2.75937C121.068 2.34483 121.068 1.72299 120.869 1.30845C120.471 0.893912 119.874 0.893963 119.476 1.10123C118.879 1.51577 118.879 2.13754 119.277 2.55208Z" fill="white"/>
<path d="M127.277 7.37825C127.675 7.7928 128.272 7.79281 128.67 7.58554C129.068 7.17099 129.068 6.54921 128.869 6.13467C128.471 5.72012 127.874 5.72011 127.476 5.92738C126.879 6.34193 126.879 6.96371 127.277 7.37825Z" fill="white"/>
<path d="M135.224 12.204C135.634 12.6185 136.25 12.6185 136.66 12.4112C137.07 11.9967 137.07 11.3749 136.865 10.9603C136.455 10.5458 135.839 10.5458 135.429 10.7531C135.019 11.1676 134.813 11.7894 135.224 12.204Z" fill="white"/>
<path d="M99.2774 0.621915C99.6754 1.03645 100.272 1.03646 100.67 0.829193C101.068 0.414662 101.068 -0.20716 100.869 -0.621691C100.471 -1.03622 99.8744 -1.03624 99.4764 -0.82897C98.8794 -0.621704 98.8794 0.207384 99.2774 0.621915Z" fill="white"/>
<path d="M107.141 5.44759C107.571 5.86213 108.215 5.86214 108.644 5.65487C109.074 5.24033 109.074 4.6185 108.859 4.20396C108.429 3.78942 107.785 3.78947 107.356 3.99674C106.926 4.20401 106.926 5.03305 107.141 5.44759Z" fill="white"/>
<path d="M115.277 10.2738C115.675 10.6883 116.272 10.6883 116.67 10.481C117.068 10.2738 117.068 9.44472 116.869 9.03018C116.471 8.61563 115.874 8.61562 115.476 8.82289C114.879 9.23744 114.879 9.85921 115.277 10.2738Z" fill="white"/>
<path d="M122.141 15.1005C122.571 15.515 123.215 15.515 123.644 15.3077C124.074 15.1004 124.074 14.2714 123.859 13.8568C123.644 13.4423 122.785 13.4423 122.356 13.6495C121.926 14.0641 121.926 14.6859 122.141 15.1005Z" fill="white"/>
<path d="M86.2237 3.51742C86.6341 3.93196 87.2496 3.93197 87.66 3.7247C88.0704 3.51743 88.0704 2.68832 87.8652 2.27378C87.4549 1.85924 86.8393 1.85929 86.4289 2.06656C86.0185 2.4811 85.8133 3.10288 86.2237 3.51742Z" fill="white"/>
<path d="M94.2774 8.3431C94.6754 8.75764 95.2723 8.75765 95.6703 8.55038C96.0683 8.13584 96.0683 7.51406 95.8693 7.09951C95.4713 6.68497 94.8743 6.68495 94.4763 6.89223C93.8794 7.30677 93.8794 7.92855 94.2774 8.3431Z" fill="white"/>
<path d="M102.141 13.1693C102.571 13.5839 103.215 13.5838 103.644 13.3765C104.074 12.962 104.074 12.3402 103.859 11.9257C103.429 11.5111 102.785 11.5111 102.356 11.7184C101.926 12.1329 101.926 12.7548 102.141 13.1693Z" fill="white"/>
<path d="M110.277 17.996C110.675 18.4105 111.272 18.4105 111.67 18.2032C112.068 17.7887 112.068 17.1669 111.869 16.7523C111.471 16.3378 110.874 16.3378 110.476 16.5451C109.879 16.7523 109.879 17.3742 110.277 17.996Z" fill="white"/>
<path d="M65.2774 1.58676C65.6754 2.00129 66.2723 2.0013 66.6703 1.79404C67.0683 1.37951 67.0683 0.757684 66.8693 0.343152C66.4713 -0.071379 65.8743 -0.0713917 65.4763 0.135874C64.8794 0.34314 64.8794 1.17223 65.2774 1.58676Z" fill="white"/>
<path d="M73.2774 6.41292C73.6754 6.82746 74.2723 6.82748 74.6703 6.62021C75.0683 6.20567 75.0683 5.58383 74.8693 5.16929C74.4713 4.75475 73.8744 4.7548 73.4764 4.96207C72.8794 5.37661 72.8794 5.99838 73.2774 6.41292Z" fill="white"/>
<path d="M81.2237 11.2386C81.6341 11.6531 82.2496 11.6532 82.66 11.4459C83.0704 11.0313 83.0704 10.4096 82.8652 9.99502C82.4549 9.58047 81.8393 9.58046 81.4289 9.78773C81.0185 10.2023 80.8133 10.8241 81.2237 11.2386Z" fill="white"/>
<path d="M89.2774 16.0658C89.6753 16.4803 90.2723 16.4803 90.6703 16.273C91.0683 16.0657 91.0683 15.2367 90.8693 14.8222C90.4713 14.4076 89.8743 14.4076 89.4764 14.6149C88.8794 15.0294 88.8794 15.6513 89.2774 16.0658Z" fill="white"/>
<path d="M97.141 20.8914C97.5705 21.306 98.2147 21.306 98.6442 21.0987C99.0737 20.6842 99.0737 20.0624 98.859 19.6478C98.4295 19.2333 97.7853 19.2333 97.3558 19.4406C96.9263 19.8551 96.9263 20.4769 97.141 20.8914Z" fill="white"/>
<path d="M105.277 25.7176C105.675 26.1321 106.272 26.1322 106.67 25.9249C107.068 25.5104 107.068 24.8885 106.869 24.474C106.471 24.0595 105.874 24.0595 105.476 24.2667C104.879 24.6813 104.879 25.3031 105.277 25.7176Z" fill="white"/>
<path d="M45.2774 -0.343417C45.6754 0.0711143 46.2723 0.071127 46.6703 -0.136139C47.0683 -0.343404 47.0683 -1.17249 46.8693 -1.58702C46.4713 -2.00155 45.8744 -2.00157 45.4764 -1.7943C44.8794 -1.37977 44.8794 -0.757948 45.2774 -0.343417Z" fill="white"/>
<path d="M52.141 4.48275C52.5705 4.89729 53.2147 4.8973 53.6442 4.69003C54.0737 4.48276 54.0737 3.65366 53.859 3.23912C53.4295 2.82458 52.7853 2.82463 52.3558 3.0319C51.9263 3.44644 51.9263 4.06821 52.141 4.48275Z" fill="white"/>
<path d="M60.2774 9.30843C60.6753 9.72297 61.2723 9.72298 61.6703 9.51571C62.0683 9.10117 62.0683 8.47939 61.8693 8.06484C61.4713 7.6503 60.8743 7.65029 60.4764 7.85756C59.8794 8.2721 59.8794 8.89388 60.2774 9.30843Z" fill="white"/>
<path d="M68.141 14.1351C68.5705 14.5497 69.2147 14.5496 69.6442 14.3424C70.0737 13.9278 70.0737 13.306 69.859 12.8915C69.4295 12.477 68.7853 12.4769 68.3558 12.6842C67.9263 13.0988 67.9263 13.7206 68.141 14.1351Z" fill="white"/>
<path d="M76.2237 18.9613C76.6341 19.3758 77.2497 19.3758 77.6601 19.1685C78.0704 18.754 78.0704 18.1322 77.8652 17.7177C77.4548 17.3031 76.8393 17.3031 76.4289 17.5104C76.0185 17.7177 75.8133 18.3395 76.2237 18.9613Z" fill="white"/>
<path d="M84.2774 23.7874C84.6753 24.202 85.2723 24.202 85.6703 23.9947C86.0683 23.5802 86.0683 22.9584 85.8693 22.5438C85.4713 22.1293 84.8743 22.1293 84.4764 22.3366C83.8794 22.5438 83.8794 23.3729 84.2774 23.7874Z" fill="white"/>
<path d="M32.2237 2.55209C32.6341 2.96662 33.2496 2.96663 33.66 2.75937C34.0704 2.34484 34.0704 1.72302 33.8652 1.30848C33.4549 0.893953 32.8393 0.89394 32.4289 1.10121C32.0185 1.30847 31.8133 2.13756 32.2237 2.55209Z" fill="white"/>
<path d="M40.2774 7.37826C40.6754 7.7928 41.2723 7.79281 41.6703 7.58554C42.0683 7.171 42.0683 6.54916 41.8693 6.13462C41.4713 5.72008 40.8743 5.72013 40.4763 5.9274C39.8794 6.34194 39.8794 6.96372 40.2774 7.37826Z" fill="white"/>
<path d="M48.141 12.2039C48.5705 12.6185 49.2148 12.6185 49.6442 12.4112C50.0737 11.9967 50.0737 11.3749 49.8589 10.9604C49.4295 10.5458 48.7853 10.5458 48.3558 10.7531C47.9263 11.1676 47.9263 11.7894 48.141 12.2039Z" fill="white"/>
<path d="M56.2774 17.0311C56.6753 17.4457 57.2723 17.4456 57.6703 17.2383C58.0683 16.8238 58.0683 16.202 57.8693 15.7875C57.4713 15.373 56.8743 15.3729 56.4764 15.5802C55.8794 15.9948 55.8794 16.6166 56.2774 17.0311Z" fill="white"/>
<path d="M63.1411 21.8568C63.5705 22.2713 64.2147 22.2713 64.6442 22.0641C65.0737 21.6495 65.0737 21.0277 64.859 20.6132C64.4295 20.1986 63.7852 20.1986 63.3558 20.4059C62.9263 20.8204 62.9263 21.4422 63.1411 21.8568Z" fill="white"/>
<path d="M71.2237 26.683C71.6341 27.0975 72.2496 27.0975 72.66 26.8902C73.0704 26.4757 73.0704 25.8539 72.8652 25.4393C72.4548 25.0248 71.8393 25.0248 71.4289 25.2321C71.0185 25.6466 70.8133 26.2684 71.2237 26.683Z" fill="white"/>
<path d="M11.2774 0.621915C11.6754 1.03645 12.2723 1.03646 12.6703 0.829193C13.0683 0.414662 13.0683 -0.20716 12.8693 -0.621691C12.4713 -1.03622 11.8743 -1.03624 11.4763 -0.82897C10.8794 -0.414438 10.8794 0.207384 11.2774 0.621915Z" fill="white"/>
<path d="M19.2774 5.44759C19.6754 5.86213 20.2723 5.86214 20.6703 5.65487C21.0683 5.24033 21.0683 4.6185 20.8693 4.20396C20.4713 3.78942 19.8744 3.78947 19.4764 3.99674C18.8794 4.41128 18.8794 5.03305 19.2774 5.44759Z" fill="white"/>
<path d="M27.2237 10.2738C27.6341 10.6883 28.2496 10.6883 28.66 10.481C29.0704 10.0665 29.0704 9.44472 28.8652 9.03018C28.4549 8.61563 27.8393 8.61562 27.4289 8.82289C27.0185 9.23744 26.8133 9.85921 27.2237 10.2738Z" fill="white"/>
<path d="M35.2774 15.1005C35.6753 15.515 36.2723 15.515 36.6703 15.3077C37.0683 14.8931 37.0683 14.2714 36.8693 13.8568C36.4713 13.4423 35.8743 13.4423 35.4764 13.6495C34.8794 14.0641 34.8794 14.6859 35.2774 15.1005Z" fill="white"/>
<path d="M43.2237 19.9266C43.6341 20.3412 44.2496 20.3411 44.66 20.1339C45.0704 19.7193 45.0704 19.0975 44.8652 18.683C44.4548 18.2685 43.8393 18.2685 43.4289 18.4757C43.0185 18.683 42.8133 19.3048 43.2237 19.9266Z" fill="white"/>
<path d="M-1.85896 3.51742C-1.42949 3.93195 -0.785259 3.93197 -0.355791 3.7247C0.0736769 3.31017 0.0736901 2.68835 -0.141044 2.27382C-0.570512 1.85929 -1.21474 1.85927 -1.64421 2.06654C-2.07368 2.2738 -2.07369 3.10289 -1.85896 3.51742Z" fill="white"/>
<path d="M6.27736 8.3431C6.67534 8.75764 7.27232 8.75765 7.6703 8.55038C8.06827 8.13584 8.06829 7.51401 7.8693 7.09947C7.47132 6.68493 6.87434 6.68498 6.47636 6.89225C5.8794 7.30679 5.87938 7.92856 6.27736 8.3431Z" fill="white"/>
</g>
</g>
</svg>
