<svg width="424" height="408" viewBox="0 0 424 408" fill="none" xmlns="http://www.w3.org/2000/svg">
<path d="M14.5044 51.4437C-28.9974 94.4437 48.5033 97.4437 26.0044 211.444C3.50553 325.444 38.7055 413.344 179.506 406.944C355.505 398.944 456.506 193.944 413.006 73.9437C369.506 -46.0563 58.0062 8.44358 14.5044 51.4437Z" fill="#FFE9B9" stroke="#FFE9B9"/>
<mask id="mask0" mask-type="alpha" maskUnits="userSpaceOnUse" x="0" y="0" width="424" height="408">
<path d="M14.5044 51.4437C-28.9974 94.4437 48.5033 97.4437 26.0044 211.444C3.50553 325.444 38.7055 413.344 179.506 406.944C355.505 398.944 456.506 193.944 413.006 73.9437C369.506 -46.0563 58.0062 8.44358 14.5044 51.4437Z" fill="#FFE9B9" stroke="#FFE9B9"/>
</mask>
<g mask="url(#mask0)">
<path d="M212.504 347.444C159.479 331.848 186.456 389.646 195.623 406.979C219.789 418.646 286.222 441.079 358.622 437.479C449.122 432.979 370.622 365.479 374.122 340.979C377.622 316.479 413.122 280.944 342.502 291.444C332.244 292.969 296.504 304.944 307.504 314.444C329.235 333.212 280.383 367.409 212.504 347.444Z" fill="#F39681"/>
<circle cx="182.004" cy="407.444" r="26" fill="#3DCD90" stroke="#3DCD90" stroke-width="4"/>
<circle cx="110.004" cy="411.444" r="62.5" stroke="#3DCD90"/>
</g>
</svg>
