<svg width="320" height="45" viewBox="0 0 320 45" fill="none" xmlns="http://www.w3.org/2000/svg">
<path d="M113 44.3733C209.5 39.6033 280 29.1091 321 21V0H-11V21C-3.33334 29.2681 24.9401 48.7262 113 44.3733Z" fill="#FFE9B9"/>
<mask id="mask0" mask-type="alpha" maskUnits="userSpaceOnUse" x="-11" y="0" width="332" height="45">
<path d="M113 44.3733C209.5 39.6033 280 29.1091 321 21V0H-11V21C-3.33334 29.2681 24.9401 48.7262 113 44.3733Z" fill="#FFE9B9"/>
</mask>
<g mask="url(#mask0)">
<path d="M101.5 37.9137C101.5 58.4393 84.7148 75.086 64 75.086C43.2852 75.086 26.5 58.4393 26.5 37.9137C26.5 17.3881 43.2852 0.741394 64 0.741394C84.7148 0.741394 101.5 17.3881 101.5 37.9137Z" stroke="#3DCD90"/>
<path d="M196.738 19.3129C124.058 -1.84961 161.036 76.5776 173.6 100.098C206.724 115.928 297.781 146.369 397.018 141.484C521.064 135.378 413.466 43.7853 418.263 10.5407C423.061 -22.7039 471.72 -70.9229 374.924 -56.6747C360.863 -54.6049 311.875 -38.3563 326.952 -25.4656C356.739 0.00130463 289.779 46.4039 196.738 19.3129Z" fill="#F39681"/>
<path d="M164 45.8447C164 56.2218 155.51 64.6636 145 64.6636C134.49 64.6636 126 56.2218 126 45.8447C126 35.4676 134.49 27.0258 145 27.0258C155.51 27.0258 164 35.4676 164 45.8447Z" fill="#3DCD90" stroke="#3DCD90" stroke-width="4"/>
</g>
</svg>
