<svg width="81" height="88" viewBox="0 0 81 88" fill="none" xmlns="http://www.w3.org/2000/svg">
<path d="M31.098 40.3453C31.098 40.5786 31.0607 40.8166 30.986 41.0593C30.9113 41.3019 30.7993 41.5306 30.65 41.7453C30.5007 41.9506 30.3093 42.1326 30.076 42.2913C29.8427 42.4499 29.5673 42.5713 29.25 42.6553V42.7113C29.53 42.7579 29.796 42.8373 30.048 42.9493C30.3093 43.0613 30.538 43.2153 30.734 43.4113C30.93 43.6073 31.0887 43.8453 31.21 44.1253C31.3313 44.4053 31.392 44.7366 31.392 45.1193C31.392 45.6233 31.2847 46.0619 31.07 46.4353C30.8647 46.7993 30.5893 47.0979 30.244 47.3313C29.908 47.5646 29.5207 47.7373 29.082 47.8493C28.6433 47.9613 28.1953 48.0173 27.738 48.0173C27.5793 48.0173 27.3927 48.0173 27.178 48.0173C26.9633 48.0173 26.7393 48.0079 26.506 47.9893C26.2727 47.9799 26.0393 47.9613 25.806 47.9333C25.5727 47.9146 25.3673 47.8819 25.19 47.8353V38.1893C25.5353 38.1333 25.9367 38.0866 26.394 38.0493C26.8513 38.0119 27.3507 37.9933 27.892 37.9933C28.256 37.9933 28.6247 38.0259 28.998 38.0913C29.3807 38.1473 29.726 38.2639 30.034 38.4413C30.342 38.6093 30.594 38.8473 30.79 39.1553C30.9953 39.4633 31.098 39.8599 31.098 40.3453ZM27.85 47.0093C28.1487 47.0093 28.438 46.9766 28.718 46.9113C28.998 46.8366 29.2453 46.7246 29.46 46.5753C29.6747 46.4166 29.8427 46.2253 29.964 46.0013C30.0947 45.7773 30.16 45.5113 30.16 45.2033C30.16 44.8206 30.0807 44.5126 29.922 44.2793C29.7727 44.0459 29.572 43.8639 29.32 43.7333C29.0773 43.6026 28.802 43.5139 28.494 43.4673C28.186 43.4206 27.878 43.3973 27.57 43.3973H26.352V46.9113C26.4173 46.9299 26.5107 46.9439 26.632 46.9533C26.7533 46.9626 26.884 46.9719 27.024 46.9813C27.164 46.9906 27.3087 46.9999 27.458 47.0093C27.6073 47.0093 27.738 47.0093 27.85 47.0093ZM27.08 42.4173C27.2387 42.4173 27.43 42.4126 27.654 42.4033C27.878 42.3939 28.0647 42.3799 28.214 42.3613C28.438 42.2866 28.648 42.1979 28.844 42.0953C29.04 41.9833 29.2127 41.8573 29.362 41.7173C29.5207 41.5679 29.642 41.3999 29.726 41.2133C29.8193 41.0173 29.866 40.8073 29.866 40.5833C29.866 40.2753 29.8053 40.0233 29.684 39.8273C29.572 39.6219 29.418 39.4586 29.222 39.3373C29.026 39.2159 28.802 39.1319 28.55 39.0853C28.298 39.0293 28.0413 39.0013 27.78 39.0013C27.472 39.0013 27.1873 39.0106 26.926 39.0293C26.674 39.0386 26.4827 39.0573 26.352 39.0853V42.4173H27.08ZM32.8618 44.4053C32.8618 43.2199 33.1231 42.3146 33.6458 41.6893C34.1778 41.0546 34.9384 40.7373 35.9278 40.7373C36.4504 40.7373 36.9031 40.8259 37.2858 41.0033C37.6778 41.1713 37.9998 41.4186 38.2518 41.7453C38.5038 42.0626 38.6904 42.4499 38.8118 42.9073C38.9331 43.3553 38.9938 43.8546 38.9938 44.4053C38.9938 45.5906 38.7278 46.5006 38.1958 47.1353C37.6731 47.7606 36.9171 48.0733 35.9278 48.0733C35.4051 48.0733 34.9478 47.9893 34.5558 47.8213C34.1731 47.6439 33.8558 47.3966 33.6038 47.0793C33.3518 46.7526 33.1651 46.3653 33.0438 45.9173C32.9224 45.4599 32.8618 44.9559 32.8618 44.4053ZM34.0238 44.4053C34.0238 44.7599 34.0564 45.1006 34.1218 45.4273C34.1964 45.7539 34.3084 46.0386 34.4578 46.2813C34.6071 46.5239 34.8031 46.7199 35.0458 46.8693C35.2884 47.0186 35.5824 47.0933 35.9278 47.0933C37.1971 47.1026 37.8318 46.2066 37.8318 44.4053C37.8318 44.0413 37.7944 43.6959 37.7198 43.3693C37.6544 43.0426 37.5471 42.7579 37.3978 42.5153C37.2484 42.2726 37.0524 42.0813 36.8098 41.9413C36.5671 41.7919 36.2731 41.7173 35.9278 41.7173C34.6584 41.7079 34.0238 42.6039 34.0238 44.4053ZM40.3676 44.4053C40.3676 43.2199 40.629 42.3146 41.1516 41.6893C41.6836 41.0546 42.4443 40.7373 43.4336 40.7373C43.9563 40.7373 44.409 40.8259 44.7916 41.0033C45.1836 41.1713 45.5056 41.4186 45.7576 41.7453C46.0096 42.0626 46.1963 42.4499 46.3176 42.9073C46.439 43.3553 46.4996 43.8546 46.4996 44.4053C46.4996 45.5906 46.2336 46.5006 45.7016 47.1353C45.179 47.7606 44.423 48.0733 43.4336 48.0733C42.911 48.0733 42.4536 47.9893 42.0616 47.8213C41.679 47.6439 41.3616 47.3966 41.1096 47.0793C40.8576 46.7526 40.671 46.3653 40.5496 45.9173C40.4283 45.4599 40.3676 44.9559 40.3676 44.4053ZM41.5296 44.4053C41.5296 44.7599 41.5623 45.1006 41.6276 45.4273C41.7023 45.7539 41.8143 46.0386 41.9636 46.2813C42.113 46.5239 42.309 46.7199 42.5516 46.8693C42.7943 47.0186 43.0883 47.0933 43.4336 47.0933C44.703 47.1026 45.3376 46.2066 45.3376 44.4053C45.3376 44.0413 45.3003 43.6959 45.2256 43.3693C45.1603 43.0426 45.053 42.7579 44.9036 42.5153C44.7543 42.2726 44.5583 42.0813 44.3156 41.9413C44.073 41.7919 43.779 41.7173 43.4336 41.7173C42.1643 41.7079 41.5296 42.6039 41.5296 44.4053ZM50.0295 44.7553H49.3855V47.9053H48.2655V38.1053H49.3855V44.0693L49.9595 43.8733L52.1295 40.9053H53.4315L51.2895 43.7193L50.7155 44.1813L51.4155 44.7413L53.7535 47.9053H52.3675L50.0295 44.7553Z" fill="black"/>
<path d="M8.00077 36.4051C19.0003 61.4049 -4.80734 73.8975 32.3638 82.342C69.5349 90.7865 78.4117 50.6467 75.7261 23.9814C73.0406 -2.68389 53.1401 9.07115 48.0184 19.9466C42.8967 30.822 1.15444 20.8446 8.00077 36.4051Z" fill="#FFE9B9"/>
<g filter="url(#filter0_d)">
<path fill-rule="evenodd" clip-rule="evenodd" d="M38.9324 25.2122C39.1775 26.3379 38.4637 27.4465 37.34 27.6912C36.2164 27.9358 35.1062 27.2245 34.8611 26.0988L33.9745 22.0276C33.7294 20.9019 34.4432 19.7933 35.5669 19.5486C36.6905 19.304 37.8007 20.0153 38.0458 21.141L38.9324 25.2122ZM43.5694 46.5043C43.4112 45.7776 43.6532 45.0191 44.2049 44.5173C45.8525 43.0264 46.5803 40.7485 46.1069 38.5745C45.3737 35.2075 42.0371 33.0643 38.6702 33.7974C35.3032 34.5306 33.16 37.8673 33.8932 41.2342C34.3666 43.4082 35.9757 45.1772 38.094 45.8481C38.8044 46.075 39.3399 46.6642 39.4982 47.3909L41.5107 56.6326L45.5819 55.7461L43.5694 46.5043ZM29.8219 42.1208C28.5998 36.5085 32.1714 30.9483 37.7836 29.7262C43.3958 28.5041 48.956 32.0757 50.1782 37.6879C50.8781 40.9022 50.0006 44.2552 47.8783 46.7088L49.6532 54.8595C50.1421 57.1048 48.7138 59.3284 46.4685 59.8173L42.3973 60.7039C40.152 61.1928 37.9284 59.7645 37.4394 57.5192L35.6645 49.3685C32.7121 48.02 30.5218 45.335 29.8219 42.1208ZM57.8764 33.8796L53.8052 34.7662C52.6795 35.0113 51.9677 36.1194 52.2128 37.2451C52.458 38.3708 53.566 39.0826 54.6917 38.8374L58.763 37.9509C59.8887 37.7057 60.6005 36.5977 60.3553 35.472C60.1102 34.3462 59.0021 33.6345 57.8764 33.8796ZM21.2348 41.8587L25.3061 40.9721C26.4298 40.7274 27.5399 41.4388 27.785 42.5645C28.0302 43.6902 27.3163 44.7987 26.1927 45.0434L22.1214 45.93C20.9978 46.1747 19.8876 45.4633 19.6425 44.3376C19.3974 43.2119 20.1112 42.1034 21.2348 41.8587ZM28.6941 30.4656L25.1486 28.274C24.1707 27.6703 22.8895 27.9749 22.2818 28.9537C21.6756 29.93 21.9791 31.2158 22.9574 31.8214L26.5024 34.011C26.9827 34.3073 27.5328 34.3858 28.0418 34.275C28.5751 34.1588 29.0607 33.8335 29.3697 33.3334C29.9759 32.357 29.6724 31.0713 28.6941 30.4656ZM48.6744 23.1541C49.3107 22.1989 50.6103 21.9394 51.5614 22.5766C52.5186 23.2125 52.7773 24.508 52.1389 25.4636L49.8258 28.931C49.5158 29.3972 49.0465 29.6998 48.5376 29.8106C48.0043 29.9268 47.4253 29.8333 46.9384 29.5065C45.9812 28.8706 45.7225 27.5751 46.3609 26.6195L48.6744 23.1541Z" fill="#231F20"/>
<mask id="mask0" mask-type="alpha" maskUnits="userSpaceOnUse" x="15" y="15" width="50" height="50">
<path fill-rule="evenodd" clip-rule="evenodd" d="M38.9324 25.2122C39.1775 26.3379 38.4637 27.4465 37.34 27.6912C36.2164 27.9358 35.1062 27.2245 34.8611 26.0988L33.9745 22.0276C33.7294 20.9019 34.4432 19.7933 35.5669 19.5486C36.6905 19.304 37.8007 20.0153 38.0458 21.141L38.9324 25.2122ZM43.5694 46.5043C43.4112 45.7776 43.6532 45.0191 44.2049 44.5173C45.8525 43.0264 46.5803 40.7485 46.1069 38.5745C45.3737 35.2075 42.0371 33.0643 38.6702 33.7974C35.3032 34.5306 33.16 37.8673 33.8932 41.2342C34.3666 43.4082 35.9757 45.1772 38.094 45.8481C38.8044 46.075 39.3399 46.6642 39.4982 47.3909L41.5107 56.6326L45.5819 55.7461L43.5694 46.5043ZM29.8219 42.1208C28.5998 36.5085 32.1714 30.9483 37.7836 29.7262C43.3958 28.5041 48.956 32.0757 50.1782 37.6879C50.8781 40.9022 50.0006 44.2552 47.8783 46.7088L49.6532 54.8595C50.1421 57.1048 48.7138 59.3284 46.4685 59.8173L42.3973 60.7039C40.152 61.1928 37.9284 59.7645 37.4394 57.5192L35.6645 49.3685C32.7121 48.02 30.5218 45.335 29.8219 42.1208ZM57.8764 33.8796L53.8052 34.7662C52.6795 35.0113 51.9677 36.1194 52.2128 37.2451C52.458 38.3708 53.566 39.0826 54.6917 38.8374L58.763 37.9509C59.8887 37.7057 60.6005 36.5977 60.3553 35.472C60.1102 34.3462 59.0021 33.6345 57.8764 33.8796ZM21.2348 41.8587L25.3061 40.9721C26.4298 40.7274 27.5399 41.4388 27.785 42.5645C28.0302 43.6902 27.3163 44.7987 26.1927 45.0434L22.1214 45.93C20.9978 46.1747 19.8876 45.4633 19.6425 44.3376C19.3974 43.2119 20.1112 42.1034 21.2348 41.8587ZM28.6941 30.4656L25.1486 28.274C24.1707 27.6703 22.8895 27.9749 22.2818 28.9537C21.6756 29.93 21.9791 31.2158 22.9574 31.8214L26.5024 34.011C26.9827 34.3073 27.5328 34.3858 28.0418 34.275C28.5751 34.1588 29.0607 33.8335 29.3697 33.3334C29.9759 32.357 29.6724 31.0713 28.6941 30.4656ZM48.6744 23.1541C49.3107 22.1989 50.6103 21.9394 51.5614 22.5766C52.5186 23.2125 52.7773 24.508 52.1389 25.4636L49.8258 28.931C49.5158 29.3972 49.0465 29.6998 48.5376 29.8106C48.0043 29.9268 47.4253 29.8333 46.9384 29.5065C45.9812 28.8706 45.7225 27.5751 46.3609 26.6195L48.6744 23.1541Z" fill="white"/>
</mask>
<g mask="url(#mask0)">
<rect x="10.2539" y="20.7969" width="50" height="50" transform="rotate(-12.2851 10.2539 20.7969)" fill="#FF9839"/>
<circle cx="63.5" cy="52.405" r="1.5" fill="white"/>
</g>
</g>
<path d="M68.8438 44.6451C68.904 44.7516 68.9642 44.8582 68.9179 45.0249C68.8253 45.3583 68.6123 45.4787 68.2789 45.3861L61.671 43.6402C61.3376 43.5475 61.2173 43.3345 61.3099 43.0011C61.4025 42.6677 61.6155 42.5474 61.9489 42.64L68.5568 44.3859C68.617 44.4924 68.7836 44.5386 68.8438 44.6451Z" fill="white"/>
<path d="M66.4358 40.3848C66.496 40.4913 66.5562 40.5979 66.5099 40.7646L64.764 47.3724C64.6714 47.7058 64.4584 47.8262 64.125 47.7336C63.7916 47.641 63.6712 47.428 63.7638 47.0946L65.5097 40.4867C65.6023 40.1533 65.8154 40.0329 66.1488 40.1256C66.2089 40.2321 66.3756 40.2783 66.4358 40.3848Z" fill="white"/>
<circle cx="26.5" cy="69.4053" r="1.5" fill="white"/>
<circle cx="36.5" cy="69.4053" r="1.5" fill="white"/>
<circle cx="46.5" cy="69.4053" r="1.5" fill="white"/>
<circle cx="26.5" cy="59.4053" r="1.5" fill="white"/>
<circle cx="16.5" cy="59.4053" r="1.5" fill="white"/>
<circle cx="16.5" cy="49.4053" r="1.5" fill="white"/>
<circle cx="6.5" cy="49.4053" r="1.5" fill="white"/>
<defs>
<filter id="filter0_d" x="6.25391" y="10.158" width="67.4939" height="67.4939" filterUnits="userSpaceOnUse" color-interpolation-filters="sRGB">
<feFlood flood-opacity="0" result="BackgroundImageFix"/>
<feColorMatrix in="SourceAlpha" type="matrix" values="0 0 0 0 0 0 0 0 0 0 0 0 0 0 0 0 0 0 127 0"/>
<feOffset dy="4"/>
<feGaussianBlur stdDeviation="2"/>
<feColorMatrix type="matrix" values="0 0 0 0 1 0 0 0 0 0.596078 0 0 0 0 0.223529 0 0 0 0.5 0"/>
<feBlend mode="normal" in2="BackgroundImageFix" result="effect1_dropShadow"/>
<feBlend mode="normal" in="SourceGraphic" in2="effect1_dropShadow" result="shape"/>
</filter>
</defs>
</svg>
