<svg width="80" height="80" viewBox="0 0 80 80" fill="none" xmlns="http://www.w3.org/2000/svg">
<mask id="mask0" mask-type="alpha" maskUnits="userSpaceOnUse" x="0" y="0" width="80" height="80">
<rect width="80" height="80" fill="#C4C4C4"/>
</mask>
<g mask="url(#mask0)">
<path d="M32.518 35.236H29.466V44H28.304V35.236H25.252V34.2H32.518V35.236ZM32.8797 39.1C32.8797 37.4667 33.225 36.216 33.9157 35.348C34.6064 34.4707 35.591 34.032 36.8697 34.032C37.5604 34.032 38.1577 34.1533 38.6617 34.396C39.1657 34.6387 39.581 34.984 39.9077 35.432C40.2437 35.8707 40.491 36.4027 40.6497 37.028C40.8084 37.644 40.8877 38.3347 40.8877 39.1C40.8877 40.7333 40.5377 41.9887 39.8377 42.866C39.147 43.734 38.1577 44.168 36.8697 44.168C36.1884 44.168 35.5957 44.0467 35.0917 43.804C34.597 43.5613 34.1817 43.2207 33.8457 42.782C33.519 42.334 33.2764 41.802 33.1177 41.186C32.959 40.5607 32.8797 39.8653 32.8797 39.1ZM34.1117 39.1C34.1117 39.6413 34.163 40.1547 34.2657 40.64C34.3777 41.1253 34.5457 41.5547 34.7697 41.928C34.9937 42.292 35.2784 42.586 35.6237 42.81C35.9784 43.0247 36.3937 43.132 36.8697 43.132C37.7377 43.132 38.419 42.8053 38.9137 42.152C39.4084 41.4893 39.6557 40.472 39.6557 39.1C39.6557 38.568 39.5997 38.0593 39.4877 37.574C39.385 37.0793 39.217 36.65 38.9837 36.286C38.7597 35.9127 38.4704 35.6187 38.1157 35.404C37.7704 35.18 37.355 35.068 36.8697 35.068C36.011 35.068 35.3344 35.3993 34.8397 36.062C34.3544 36.7153 34.1117 37.728 34.1117 39.1ZM42.856 34.298C43.2107 34.214 43.5933 34.158 44.004 34.13C44.4147 34.102 44.8207 34.088 45.222 34.088C45.6513 34.088 46.0853 34.13 46.524 34.214C46.972 34.298 47.378 34.452 47.742 34.676C48.106 34.9 48.4 35.208 48.624 35.6C48.8573 35.992 48.974 36.4913 48.974 37.098C48.974 37.6953 48.8667 38.1993 48.652 38.61C48.4373 39.0207 48.1527 39.3567 47.798 39.618C47.4433 39.87 47.0373 40.052 46.58 40.164C46.1227 40.276 45.6513 40.332 45.166 40.332C45.1193 40.332 45.04 40.332 44.928 40.332C44.8253 40.332 44.7133 40.332 44.592 40.332C44.48 40.3227 44.368 40.3133 44.256 40.304C44.144 40.2947 44.0647 40.2853 44.018 40.276V44H42.856V34.298ZM45.25 35.096C45.0073 35.096 44.774 35.1007 44.55 35.11C44.326 35.1193 44.1487 35.1427 44.018 35.18V39.24C44.0647 39.2587 44.1393 39.2727 44.242 39.282C44.3447 39.282 44.452 39.2867 44.564 39.296C44.676 39.296 44.7833 39.296 44.886 39.296C44.9887 39.296 45.0633 39.296 45.11 39.296C45.4273 39.296 45.74 39.268 46.048 39.212C46.3653 39.1467 46.65 39.0347 46.902 38.876C47.154 38.7173 47.3547 38.4933 47.504 38.204C47.6627 37.9147 47.742 37.546 47.742 37.098C47.742 36.7153 47.6673 36.398 47.518 36.146C47.378 35.8847 47.1867 35.6793 46.944 35.53C46.7107 35.3713 46.4447 35.2593 46.146 35.194C45.8473 35.1287 45.5487 35.096 45.25 35.096Z" fill="black"/>
<path d="M10.1325 32.941C2.90366 51.9637 -8.5031 92.9531 10.1337 75.9686C18.5979 68.2548 43.6983 69.8466 52.4867 66.344C63.0489 62.1344 62.4107 49.6379 72.8193 32.941C91.5031 2.96973 69.4313 -4.99118 55.3104 8.03028C41.1895 21.0517 19.1685 9.16271 10.1325 32.941Z" fill="#C9FFE8"/>
<g filter="url(#filter0_d)">
<path fill-rule="evenodd" clip-rule="evenodd" d="M56.7341 33.5062C56.7299 33.3562 56.6861 33.2146 56.6466 33.0708C56.6153 32.95 56.6007 32.8271 56.5486 32.7167C56.5007 32.6083 56.4195 32.5208 56.3486 32.4208C56.2611 32.2937 56.182 32.1667 56.0695 32.0625C56.0507 32.0437 56.0424 32.0187 56.0216 32.0021C55.9466 31.9375 55.8549 31.9146 55.7736 31.8625C55.6486 31.7812 55.5257 31.6979 55.3841 31.6437C55.2445 31.5937 55.107 31.5812 54.9632 31.5604C54.8632 31.5458 54.7736 31.5 54.6674 31.5H44.2507C43.0986 31.5 42.1674 32.4333 42.1674 33.5833C42.1674 34.7333 43.0986 35.6667 44.2507 35.6667H50.1382L41.7299 45.475L32.8216 40.1313C31.9403 39.5979 30.807 39.7937 30.1486 40.5833L19.732 53.0833C18.9966 53.9667 19.1153 55.2812 19.9986 56.0167C20.3903 56.3417 20.8611 56.5 21.332 56.5C21.9299 56.5 22.5216 56.2458 22.9341 55.75L32.2091 44.6208L41.0945 49.9542C41.9674 50.4771 43.0882 50.2937 43.7486 49.5229L52.5841 39.2146V44C52.5841 45.15 53.5153 46.0833 54.6674 46.0833C55.8195 46.0833 56.7507 45.15 56.7507 44V33.5833C56.7507 33.5562 56.7361 33.5333 56.7341 33.5062Z" fill="#231F20"/>
<mask id="mask1" mask-type="alpha" maskUnits="userSpaceOnUse" x="19" y="31" width="38" height="26">
<path fill-rule="evenodd" clip-rule="evenodd" d="M56.7341 33.5062C56.7299 33.3562 56.6861 33.2146 56.6466 33.0708C56.6153 32.95 56.6007 32.8271 56.5486 32.7167C56.5007 32.6083 56.4195 32.5208 56.3486 32.4208C56.2611 32.2937 56.182 32.1667 56.0695 32.0625C56.0507 32.0437 56.0424 32.0187 56.0216 32.0021C55.9466 31.9375 55.8549 31.9146 55.7736 31.8625C55.6486 31.7812 55.5257 31.6979 55.3841 31.6437C55.2445 31.5937 55.107 31.5812 54.9632 31.5604C54.8632 31.5458 54.7736 31.5 54.6674 31.5H44.2507C43.0986 31.5 42.1674 32.4333 42.1674 33.5833C42.1674 34.7333 43.0986 35.6667 44.2507 35.6667H50.1382L41.7299 45.475L32.8216 40.1313C31.9403 39.5979 30.807 39.7937 30.1486 40.5833L19.732 53.0833C18.9966 53.9667 19.1153 55.2812 19.9986 56.0167C20.3903 56.3417 20.8611 56.5 21.332 56.5C21.9299 56.5 22.5216 56.2458 22.9341 55.75L32.2091 44.6208L41.0945 49.9542C41.9674 50.4771 43.0882 50.2937 43.7486 49.5229L52.5841 39.2146V44C52.5841 45.15 53.5153 46.0833 54.6674 46.0833C55.8195 46.0833 56.7507 45.15 56.7507 44V33.5833C56.7507 33.5562 56.7361 33.5333 56.7341 33.5062Z" fill="white"/>
</mask>
<g mask="url(#mask1)">
<rect x="13" y="19" width="50" height="50" fill="#3DCD90"/>
</g>
</g>
<circle cx="47.5" cy="56.5" r="1.5" fill="white"/>
<circle cx="27" cy="33" r="3" fill="white"/>
<circle cx="64" cy="20" r="4" fill="white"/>
</g>
<defs>
<filter id="filter0_d" x="9" y="19" width="58" height="58" filterUnits="userSpaceOnUse" color-interpolation-filters="sRGB">
<feFlood flood-opacity="0" result="BackgroundImageFix"/>
<feColorMatrix in="SourceAlpha" type="matrix" values="0 0 0 0 0 0 0 0 0 0 0 0 0 0 0 0 0 0 127 0"/>
<feOffset dy="4"/>
<feGaussianBlur stdDeviation="2"/>
<feColorMatrix type="matrix" values="0 0 0 0 0.368627 0 0 0 0 0.85098 0 0 0 0 0.647059 0 0 0 0.5 0"/>
<feBlend mode="normal" in2="BackgroundImageFix" result="effect1_dropShadow"/>
<feBlend mode="normal" in="SourceGraphic" in2="effect1_dropShadow" result="shape"/>
</filter>
</defs>
</svg>
