<svg width="324" height="303" viewBox="0 0 324 303" fill="none" xmlns="http://www.w3.org/2000/svg">
<path d="M227.356 11.5897C228.606 12.8401 230.482 12.84 231.732 12.2147C232.983 10.9643 232.983 9.08866 232.357 7.83818C231.107 6.5877 229.231 6.58767 227.981 7.2129C226.105 7.83814 226.105 10.3392 227.356 11.5897Z" fill="white"/>
<path d="M251.117 26.5959C252.367 27.8464 254.243 27.8464 255.493 27.2212C256.744 25.9707 256.744 24.0949 256.119 22.8444C254.868 21.5939 252.992 21.5939 251.742 22.2191C250.491 23.4696 250.491 25.3454 251.117 26.5959Z" fill="white"/>
<path d="M275.488 41.6013C276.739 42.8517 278.614 42.8518 279.865 42.2265C281.115 40.9761 281.115 39.1003 280.49 37.8498C279.24 36.5993 277.364 36.5993 276.113 37.2245C274.238 38.475 274.238 40.3508 275.488 41.6013Z" fill="white"/>
<path d="M164.192 5.33672C165.442 6.5872 167.318 6.58705 168.569 5.96181C169.819 4.71133 169.819 2.83573 169.194 1.58525C167.943 0.334775 166.068 0.334737 164.817 0.959975C162.941 2.21045 162.941 4.08625 164.192 5.33672Z" fill="white"/>
<path d="M187.958 20.3439C189.208 21.5944 191.084 21.5944 192.335 20.9692C193.585 19.7187 193.585 17.8429 192.96 16.5925C191.709 15.342 189.834 15.3419 188.583 15.9672C187.333 17.2177 186.707 19.0935 187.958 20.3439Z" fill="white"/>
<path d="M212.331 35.3483C213.581 36.5988 215.457 36.5988 216.707 35.9736C217.958 34.7231 217.958 32.8473 217.332 31.5969C216.082 30.3464 214.206 30.3463 212.956 30.9716C211.08 32.2221 211.08 34.0978 212.331 35.3483Z" fill="white"/>
<path d="M236.095 50.3537C237.345 51.6042 239.221 51.6042 240.471 50.979C241.722 49.7285 241.722 47.8527 241.097 46.6022C239.846 45.3517 237.97 45.3519 236.72 45.9771C235.47 47.2276 235.47 49.1032 236.095 50.3537Z" fill="white"/>
<path d="M260.496 65.361C261.747 66.6115 263.623 66.6115 264.873 65.9863C266.124 64.7358 266.124 62.8602 265.499 61.6097C264.248 60.3593 262.372 60.3592 261.122 60.9845C259.246 62.2349 259.246 64.1105 260.496 65.361Z" fill="white"/>
<path d="M284.234 80.9914C285.484 82.2419 287.36 82.2419 288.611 81.6167C289.861 80.3662 289.861 78.4906 289.236 77.2401C287.985 75.9896 286.11 75.9896 284.859 76.6148C283.609 77.2401 283.609 79.7409 284.234 80.9914Z" fill="white"/>
<path d="M308.635 95.9969C309.885 97.2474 311.761 97.2472 313.011 96.622C314.262 95.3715 314.262 93.4959 313.637 92.2454C312.386 90.9949 310.511 90.9949 309.26 91.6201C308.01 92.8706 307.384 94.7464 308.635 95.9969Z" fill="white"/>
<path d="M124.8 14.7156C126.051 15.9661 127.926 15.966 129.177 15.3407C130.427 14.0902 130.427 12.2146 129.802 10.9642C128.552 9.71368 126.676 9.71364 125.425 10.3389C123.55 10.9641 123.55 13.4652 124.8 14.7156Z" fill="white"/>
<path d="M149.199 29.7223C150.449 30.9728 152.325 30.9729 153.575 30.3476C154.826 29.0971 154.826 27.2214 154.201 25.9709C152.95 24.7204 151.075 24.7204 149.824 25.3456C147.948 26.5961 147.948 28.4719 149.199 29.7223Z" fill="white"/>
<path d="M172.963 44.7272C174.213 45.9777 176.089 45.9777 177.34 45.3525C178.59 44.102 178.59 42.2262 177.965 40.9758C176.714 39.7253 174.839 39.7252 173.588 40.3505C172.338 41.601 171.712 43.4768 172.963 44.7272Z" fill="white"/>
<path d="M197.336 59.7321C198.586 60.9826 200.462 60.9826 201.713 60.3574C202.963 59.1069 202.963 57.2311 202.338 55.9806C201.087 54.7302 199.212 54.7303 197.961 55.3556C196.085 56.606 196.085 58.4816 197.336 59.7321Z" fill="white"/>
<path d="M221.102 74.7394C222.353 75.9899 224.228 75.99 225.479 75.3647C226.729 74.1142 226.729 72.2386 226.104 70.9882C224.853 69.7377 222.978 69.7376 221.727 70.3629C220.477 71.6134 219.852 73.489 221.102 74.7394Z" fill="white"/>
<path d="M245.473 89.7435C246.723 90.9939 248.599 90.9938 249.849 90.3685C251.1 89.1181 251.1 87.2425 250.475 85.992C249.224 84.7415 247.348 84.7415 246.098 85.3667C244.222 86.6172 244.222 88.493 245.473 89.7435Z" fill="white"/>
<path d="M269.239 104.751C270.489 106.001 272.365 106.001 273.615 105.376C274.866 104.125 274.866 102.25 274.241 100.999C272.99 99.7487 271.114 99.7487 269.864 100.374C268.613 100.999 268.613 103.5 269.239 104.751Z" fill="white"/>
<path d="M293.614 119.757C294.864 121.007 296.74 121.007 297.99 120.382C299.241 119.131 299.241 117.256 298.616 116.005C297.365 114.755 295.489 114.755 294.239 115.38C292.363 116.63 292.363 118.506 293.614 119.757Z" fill="white"/>
<path d="M318.014 134.761C319.264 136.012 321.14 136.012 322.39 135.387C323.641 134.761 323.641 132.26 323.016 131.01C321.765 129.759 319.89 129.76 318.639 130.385C316.763 131.635 316.763 133.511 318.014 134.761Z" fill="white"/>
<path d="M109.802 38.4748C111.053 39.7253 112.928 39.7253 114.179 39.1001C115.429 37.8496 115.429 35.9738 114.804 34.7233C113.554 33.4728 111.678 33.4728 110.427 34.098C108.552 35.3485 108.552 37.2243 109.802 38.4748Z" fill="white"/>
<path d="M133.568 53.4802C134.819 54.7306 136.695 54.7307 137.945 54.1054C139.195 52.855 139.196 50.9792 138.57 49.7287C137.32 48.4782 135.444 48.4784 134.194 49.1036C132.943 50.3541 132.943 52.2297 133.568 53.4802Z" fill="white"/>
<path d="M157.942 69.1105C159.193 70.361 161.069 70.361 162.319 69.7358C163.57 68.4853 163.569 66.6095 162.944 65.3591C161.694 64.1086 159.818 64.1087 158.568 64.734C157.317 65.3592 156.692 67.2348 157.942 69.1105Z" fill="white"/>
<path d="M182.341 84.1179C183.591 85.3683 185.467 85.3684 186.717 84.7431C187.968 83.4927 187.968 81.6171 187.343 80.3666C186.092 79.1161 184.216 79.1161 182.966 79.7413C181.09 80.3665 181.09 82.8674 182.341 84.1179Z" fill="white"/>
<path d="M206.079 99.1229C207.33 100.373 209.205 100.373 210.456 99.7479C211.706 98.4975 211.706 96.6219 211.081 95.3714C209.831 94.1209 207.955 94.1209 206.704 94.7461C205.454 95.9966 204.829 97.8724 206.079 99.1229Z" fill="white"/>
<path d="M230.482 114.129C231.732 115.38 233.608 115.38 234.859 114.754C236.109 113.504 236.109 111.628 235.484 110.378C234.233 109.127 232.358 109.127 231.107 109.752C229.232 111.003 229.232 112.879 230.482 114.129Z" fill="white"/>
<path d="M254.244 129.134C255.495 130.385 257.37 130.385 258.621 129.76C259.871 128.509 259.871 126.633 259.246 125.383C257.996 124.133 256.12 124.132 254.869 124.758C253.619 126.008 253.619 127.884 254.244 129.134Z" fill="white"/>
<path d="M278.619 144.14C279.87 145.39 281.745 145.39 282.996 144.765C284.246 143.515 284.246 141.639 283.621 140.388C282.371 139.138 280.495 139.138 279.244 139.763C277.994 140.389 277.369 142.889 278.619 144.14Z" fill="white"/>
<path d="M302.38 159.146C303.63 160.397 305.506 160.397 306.757 159.771C308.007 158.521 308.007 156.645 307.382 155.395C306.131 154.144 304.256 154.144 303.005 154.77C301.755 155.395 301.755 157.896 302.38 159.146Z" fill="white"/>
<path d="M70.4077 47.8532C71.6582 49.1037 73.534 49.1037 74.7845 48.4785C76.035 47.228 76.0348 45.3522 75.4096 44.1017C74.1591 42.8513 72.2835 42.8512 71.033 43.4765C69.7825 44.7269 69.7825 46.6027 70.4077 47.8532Z" fill="white"/>
<path d="M94.807 62.8591C96.0575 64.1095 97.9333 64.1096 99.1838 63.4843C100.434 62.8591 100.434 60.3581 99.8091 59.1076C98.5586 57.8571 96.6828 57.8573 95.4323 58.4825C93.5566 59.733 93.5565 61.6086 94.807 62.8591Z" fill="white"/>
<path d="M118.548 77.8659C119.798 79.1164 121.674 79.1164 122.924 78.4912C124.175 77.2407 124.175 75.3651 123.55 74.1146C122.299 72.8641 120.424 72.8641 119.173 73.4893C117.923 74.7398 117.923 76.6154 118.548 77.8659Z" fill="white"/>
<path d="M142.948 92.8704C144.199 94.1209 146.074 94.1207 147.325 93.4955C148.575 92.245 148.575 90.3694 147.95 89.1189C146.7 87.8685 144.824 87.8684 143.574 88.4937C142.323 89.7441 141.698 91.6199 142.948 92.8704Z" fill="white"/>
<path d="M167.32 107.877C168.571 109.128 170.447 109.128 171.697 108.502C172.948 107.252 172.947 105.376 172.322 104.126C171.072 102.875 169.196 102.875 167.946 103.5C166.695 104.126 166.07 106.627 167.32 107.877Z" fill="white"/>
<path d="M191.084 122.882C192.334 124.132 194.21 124.133 195.461 123.507C196.711 122.257 196.711 120.381 196.086 119.131C194.835 117.88 192.96 117.88 191.709 118.505C190.459 119.131 189.833 121.632 191.084 122.882Z" fill="white"/>
<path d="M215.46 138.513C216.71 139.763 218.586 139.763 219.836 139.138C221.087 138.513 221.087 136.012 220.461 134.761C219.211 133.511 217.335 133.511 216.085 134.136C214.209 134.761 214.209 136.637 215.46 138.513Z" fill="white"/>
<path d="M239.223 153.518C240.474 154.768 242.349 154.768 243.6 154.143C244.85 152.893 244.85 151.017 244.225 149.766C242.975 148.516 241.099 148.516 239.848 149.141C238.598 149.766 238.598 152.267 239.223 153.518Z" fill="white"/>
<path d="M263.624 168.525C264.874 169.776 266.75 169.776 268.001 169.15C269.251 167.9 269.251 166.024 268.626 164.774C268.001 163.523 265.5 163.523 264.249 164.149C262.373 165.399 262.373 167.275 263.624 168.525Z" fill="white"/>
<path d="M287.362 183.53C288.613 184.781 290.488 184.78 291.739 184.155C292.989 182.905 292.989 181.029 292.364 179.779C291.114 178.528 289.238 178.528 287.987 179.153C286.737 180.404 286.737 182.28 287.362 183.53Z" fill="white"/>
<path d="M311.76 198.536C313.01 199.787 314.886 199.787 316.136 199.162C317.387 197.911 317.387 196.035 316.762 194.785C315.511 193.534 313.636 193.534 312.385 194.16C311.135 194.785 310.509 197.286 311.76 198.536Z" fill="white"/>
<path d="M55.4156 72.2375C56.6661 73.488 58.5417 73.488 59.7922 72.8628C61.0426 71.6123 61.0427 69.7365 60.4174 68.486C59.167 67.2355 57.2914 67.2357 56.0409 67.8609C54.7904 68.4862 54.1651 70.3618 55.4156 72.2375Z" fill="white"/>
<path d="M79.7866 87.2443C81.0371 88.4948 82.9129 88.4948 84.1634 87.8696C85.4139 86.6191 85.4137 84.7435 84.7885 83.493C83.538 82.2426 81.6624 82.2425 80.4119 82.8678C79.1614 83.493 78.5362 85.9938 79.7866 87.2443Z" fill="white"/>
<path d="M103.549 102.249C104.8 103.5 106.675 103.5 107.926 102.874C109.176 102.249 109.176 99.7483 108.551 98.4979C107.301 97.2474 105.425 97.2473 104.174 97.8726C102.924 99.1231 102.924 100.999 103.549 102.249Z" fill="white"/>
<path d="M127.928 117.256C129.178 118.506 131.054 118.506 132.304 117.881C133.555 116.63 133.555 114.755 132.93 113.504C131.679 112.254 129.803 112.254 128.553 112.879C126.677 114.129 126.677 116.005 127.928 117.256Z" fill="white"/>
<path d="M152.323 132.261C153.574 133.511 155.449 133.511 156.7 132.886C157.95 131.636 157.95 129.76 157.325 128.509C156.075 127.259 154.199 127.259 152.949 127.884C151.073 129.135 151.073 131.01 152.323 132.261Z" fill="white"/>
<path d="M176.089 147.265C177.34 148.516 179.216 148.516 180.466 147.891C181.716 146.64 181.717 144.764 181.091 143.514C179.841 142.263 177.965 142.264 176.715 142.889C175.464 144.139 174.839 146.015 176.089 147.265Z" fill="white"/>
<path d="M200.462 162.272C201.712 163.523 203.588 163.523 204.839 162.897C206.089 161.647 206.089 159.771 205.464 158.521C204.213 157.27 202.338 157.27 201.087 157.896C199.837 158.521 199.211 161.022 200.462 162.272Z" fill="white"/>
<path d="M224.226 177.278C225.477 178.528 227.352 178.528 228.603 177.903C229.853 177.277 229.853 174.777 229.228 173.526C227.978 172.276 226.102 172.276 224.851 172.901C223.601 174.151 222.976 176.027 224.226 177.278Z" fill="white"/>
<path d="M248.604 192.284C249.854 193.534 251.73 193.534 252.98 192.909C254.231 192.284 254.231 189.783 253.605 188.532C252.355 187.282 250.479 187.282 249.229 187.907C247.353 189.158 247.353 191.033 248.604 192.284Z" fill="white"/>
<path d="M272.37 207.915C273.62 209.165 275.496 209.165 276.746 208.54C277.997 207.29 277.997 205.414 277.372 204.163C276.121 202.913 274.245 202.913 272.995 203.538C271.744 204.163 271.744 206.039 272.37 207.915Z" fill="white"/>
<path d="M296.741 222.921C297.992 224.171 299.867 224.171 301.118 223.546C302.368 222.295 302.368 220.42 301.743 219.169C300.493 217.919 298.617 217.919 297.366 218.544C295.491 219.169 295.491 221.67 296.741 222.921Z" fill="white"/>
<path d="M321.14 237.926C322.391 239.176 324.266 239.176 325.517 238.551C326.767 237.301 326.767 235.425 326.142 234.174C324.892 232.924 323.016 232.924 321.766 233.549C319.89 234.8 319.89 236.675 321.14 237.926Z" fill="white"/>
<path d="M40.3941 95.9969C41.6446 97.2474 43.5202 97.2472 44.7707 96.622C46.0212 95.3715 46.0212 93.4959 45.396 92.2454C44.1455 90.9949 42.2697 90.9949 41.0192 91.6201C39.7687 92.8706 39.1437 94.7464 40.3941 95.9969Z" fill="white"/>
<path d="M64.7916 111.004C66.0421 112.255 67.9177 112.255 69.1681 111.629C70.4186 110.379 70.4187 108.503 69.7934 107.253C68.5429 106.002 66.6673 106.002 65.4169 106.627C63.5412 107.878 63.5411 109.754 64.7916 111.004Z" fill="white"/>
<path d="M88.5575 126.009C89.808 127.259 91.6838 127.259 92.9343 126.634C94.1847 125.384 94.1848 123.508 93.5595 122.257C92.3091 121.007 90.4333 121.007 89.1828 121.632C87.9323 122.257 87.9323 124.758 88.5575 126.009Z" fill="white"/>
<path d="M112.93 141.639C114.18 142.89 116.056 142.89 117.306 142.265C118.557 141.014 118.557 139.138 117.932 137.888C116.681 136.637 114.805 136.637 113.555 137.263C111.679 137.888 111.679 139.764 112.93 141.639Z" fill="white"/>
<path d="M136.693 156.645C137.944 157.895 139.82 157.895 141.07 157.27C142.32 156.02 142.321 154.144 141.695 152.893C140.445 151.643 138.569 151.643 137.319 152.268C136.068 152.893 136.068 155.394 136.693 156.645Z" fill="white"/>
<path d="M161.068 171.651C162.319 172.902 164.195 172.902 165.445 172.276C166.696 171.026 166.695 169.15 166.07 167.9C164.82 166.649 162.944 166.649 161.694 167.275C160.443 168.525 159.818 170.401 161.068 171.651Z" fill="white"/>
<path d="M185.468 186.656C186.719 187.907 188.594 187.906 189.845 187.281C191.095 186.031 191.095 184.155 190.47 182.905C189.22 181.654 187.344 181.654 186.093 182.279C184.218 183.53 184.218 185.406 185.468 186.656Z" fill="white"/>
<path d="M209.206 201.662C210.456 202.913 212.332 202.913 213.582 202.288C214.833 201.037 214.833 199.161 214.207 197.911C212.957 196.66 211.081 196.66 209.831 197.286C208.58 197.911 207.955 200.412 209.206 201.662Z" fill="white"/>
<path d="M233.604 216.668C234.855 217.918 236.73 217.918 237.981 217.293C239.231 216.668 239.231 214.167 238.606 212.916C237.355 211.666 235.48 211.666 234.229 212.291C232.354 213.541 232.354 215.417 233.604 216.668Z" fill="white"/>
<path d="M257.367 231.673C258.618 232.924 260.493 232.924 261.744 232.298C262.994 231.673 262.994 229.172 262.369 227.922C261.119 226.671 259.243 226.671 257.992 227.296C256.742 228.547 256.742 230.423 257.367 231.673Z" fill="white"/>
<path d="M281.744 246.68C282.995 247.93 284.87 247.93 286.121 247.305C287.371 246.055 287.371 244.179 286.746 242.929C285.496 241.678 283.62 241.678 282.369 242.303C280.494 243.554 280.494 245.429 281.744 246.68Z" fill="white"/>
<path d="M305.507 261.684C306.758 262.935 308.633 262.935 309.884 262.309C311.134 261.059 311.134 259.183 310.509 257.933C309.259 256.682 307.383 256.682 306.133 257.308C304.882 258.558 304.882 260.434 305.507 261.684Z" fill="white"/>
<path d="M1.63087 105.375C2.88135 106.626 4.75715 106.626 6.00762 106C7.2581 105.375 7.25795 102.874 6.63271 101.624C5.38223 100.373 3.50663 100.373 2.25615 100.999C0.380435 102.249 0.380397 104.125 1.63087 105.375Z" fill="white"/>
<path d="M25.3969 120.382C26.6473 121.632 28.5231 121.633 29.7736 121.007C31.0241 119.757 31.0241 117.881 30.3989 116.631C29.1484 115.38 27.2726 115.38 26.0221 116.005C24.7717 117.256 24.1464 119.132 25.3969 120.382Z" fill="white"/>
<path d="M49.7721 135.387C51.0225 136.638 52.8981 136.638 54.1486 136.013C55.3991 134.762 55.3991 132.886 54.7739 131.636C53.5234 130.385 51.6476 130.385 50.3971 131.011C48.5214 132.261 48.5216 134.137 49.7721 135.387Z" fill="white"/>
<path d="M73.5337 150.392C74.7842 151.643 76.66 151.643 77.9105 151.018C79.1609 149.767 79.1608 147.891 78.5355 146.641C77.2851 145.39 75.4095 145.39 74.159 146.016C72.9085 147.266 72.9085 149.142 73.5337 150.392Z" fill="white"/>
<path d="M97.9354 165.399C99.1859 166.649 101.062 166.649 102.312 166.024C103.563 164.773 103.563 162.898 102.937 161.647C101.687 160.397 99.8112 160.397 98.5607 161.022C96.685 162.273 96.685 164.148 97.9354 165.399Z" fill="white"/>
<path d="M121.671 180.404C122.921 181.655 124.797 181.654 126.048 181.029C127.298 180.404 127.298 177.903 126.673 176.653C125.422 175.402 123.547 175.402 122.296 176.027C121.046 177.278 121.046 179.154 121.671 180.404Z" fill="white"/>
<path d="M97.71 163.124C98.9605 164.375 100.836 164.375 102.087 163.749C103.337 163.124 103.337 160.623 102.712 159.373C101.461 158.122 99.5856 158.122 98.3351 158.748C97.0847 159.998 97.0848 161.874 97.71 163.124Z" fill="white"/>
<path d="M146.07 195.411C147.321 196.661 149.196 196.661 150.447 196.036C151.697 195.411 151.697 192.91 151.072 191.659C149.822 190.409 147.946 190.409 146.696 191.034C145.445 192.285 144.82 194.16 146.07 195.411Z" fill="white"/>
<path d="M170.448 211.042C171.698 212.292 173.574 212.292 174.825 211.667C176.075 210.416 176.075 208.541 175.45 207.29C174.199 206.04 172.324 206.04 171.073 206.665C169.197 207.29 169.197 209.166 170.448 211.042Z" fill="white"/>
<path d="M194.209 226.047C195.46 227.298 197.336 227.298 198.586 226.672C199.837 225.422 199.837 223.546 199.211 222.296C197.961 221.045 196.085 221.045 194.835 221.67C193.584 222.296 192.959 224.797 194.209 226.047Z" fill="white"/>
<path d="M218.585 241.051C219.835 242.302 221.711 242.302 222.961 241.677C224.212 240.426 224.212 238.55 223.586 237.3C222.336 236.049 220.46 236.05 219.21 236.675C217.334 237.925 217.334 239.801 218.585 241.051Z" fill="white"/>
<path d="M242.351 256.058C243.601 257.309 245.477 257.309 246.727 256.684C247.978 255.433 247.978 253.557 247.352 252.307C246.102 251.057 244.226 251.056 242.976 251.682C241.725 252.932 241.725 254.808 242.351 256.058Z" fill="white"/>
<path d="M266.746 271.064C267.996 272.314 269.872 272.314 271.123 271.689C272.373 270.438 272.373 268.563 271.748 267.312C270.498 266.062 268.622 266.062 267.371 266.687C265.496 267.938 265.496 269.813 266.746 271.064Z" fill="white"/>
<path d="M290.487 286.07C291.737 287.32 293.613 287.321 294.863 286.695C296.114 285.445 296.114 283.569 295.489 282.319C294.238 281.068 292.362 281.068 291.112 281.693C289.862 282.944 289.862 284.82 290.487 286.07Z" fill="white"/>
<path d="M314.886 301.075C316.137 302.326 318.012 302.326 319.263 301.701C320.513 300.45 320.513 298.574 319.888 297.324C318.638 296.073 316.762 296.073 315.512 296.699C314.261 297.949 313.636 299.825 314.886 301.075Z" fill="white"/>
<path d="M34.7758 159.771C36.0263 161.022 37.902 161.022 39.1525 160.396C40.403 159.771 40.403 157.27 39.7778 156.02C38.5273 154.769 36.6515 154.769 35.4011 155.395C33.5253 156.02 33.5253 158.521 34.7758 159.771Z" fill="white"/>
<path d="M58.5391 174.777C59.7896 176.028 61.6652 176.028 62.9157 175.402C64.1662 174.152 64.1662 172.276 63.541 171.026C62.2905 169.775 60.4149 169.775 59.1644 170.4C57.9139 171.651 57.2887 173.527 58.5391 174.777Z" fill="white"/>
<path d="M82.9126 189.783C84.1631 191.033 86.0389 191.033 87.2894 190.408C88.5398 189.158 88.5397 187.282 87.9144 186.032C86.664 184.781 84.7884 184.781 83.5379 185.406C81.6622 186.657 81.6621 188.533 82.9126 189.783Z" fill="white"/>
<path d="M106.679 204.789C107.93 206.04 109.805 206.04 111.056 205.415C112.306 204.164 112.306 202.288 111.681 201.038C110.431 199.787 108.555 199.787 107.304 200.412C106.054 201.663 106.054 203.539 106.679 204.789Z" fill="white"/>
<path d="M131.05 219.794C132.3 221.045 134.176 221.045 135.426 220.419C136.677 219.169 136.677 217.293 136.052 216.043C134.801 214.792 132.925 214.792 131.675 215.417C129.799 216.668 129.799 218.544 131.05 219.794Z" fill="white"/>
<path d="M155.448 234.799C156.699 236.05 158.574 236.05 159.825 235.425C161.075 234.174 161.075 232.299 160.45 231.048C159.2 229.798 157.324 229.798 156.074 230.423C154.198 231.673 154.198 233.549 155.448 234.799Z" fill="white"/>
<path d="M179.213 249.806C180.464 251.056 182.34 251.056 183.59 250.431C184.841 249.181 184.841 247.305 184.215 246.055C182.965 244.804 181.089 244.804 179.839 245.429C178.588 246.68 177.963 248.555 179.213 249.806Z" fill="white"/>
<path d="M203.589 264.811C204.84 266.061 206.716 266.061 207.966 265.436C209.216 264.185 209.217 262.31 208.591 261.059C207.341 259.809 205.465 259.809 204.215 260.434C202.339 261.685 202.339 263.56 203.589 264.811Z" fill="white"/>
<path d="M227.356 280.443C228.607 281.693 230.482 281.693 231.733 281.068C232.983 279.817 232.983 277.942 232.358 276.691C231.107 275.441 229.232 275.441 227.981 276.066C226.731 276.691 226.106 278.567 227.356 280.443Z" fill="white"/>
<path d="M91.6796 229.173C92.9301 230.423 94.8059 230.423 96.0563 229.798C97.3068 228.547 97.3068 226.672 96.6816 225.421C95.4311 224.171 93.5553 224.171 92.3049 224.796C91.0544 225.421 91.0543 227.922 91.6796 229.173Z" fill="white"/>
<path d="M116.057 244.178C117.307 245.428 119.183 245.428 120.433 244.803C121.684 243.553 121.684 241.677 121.059 240.426C119.808 239.176 117.932 239.176 116.682 239.801C114.806 241.052 114.806 242.927 116.057 244.178Z" fill="white"/>
</svg>
