<?xml version="1.0" encoding="utf-8"?>
<!-- Generator: Adobe Illustrator 23.1.0, SVG Export Plug-In . SVG Version: 6.00 Build 0)  -->
<svg version="1.1" id="Слой_1" xmlns="http://www.w3.org/2000/svg" xmlns:xlink="http://www.w3.org/1999/xlink" x="0px" y="0px"
	 viewBox="0 0 415.8 345.2" style="enable-background:new 0 0 415.8 345.2;" xml:space="preserve">
<style type="text/css">
	.st0{fill:#F39681;}
</style>
<path class="st0" d="M9,98.2c15.5-32.6,43.4-49,81.1-52.2c39.1-3,80.8,20.3,132.2,11.7c30.2-5.1,56-38.7,80.1-48.9
	C338.5-6.3,371-2,397.7,21.6c26.7,23.6,24.1,70.9-9.4,90.8c-24.9,15-60.9,13.3-78.4,34.7c-13.6,16.8-8.4,39.6,1.7,56.6
	c10.1,17.1,24,32.6,27.9,52.1c6.4,33.6-23.4,70.1-60.4,82.9c-37.3,12.6-78.3,5.4-110.4-11.3c-32.7-16.5-40.8-58.8-73.4-71.1
	C48.5,238.8-25.9,172,9,98.2z"/>
</svg>
