<?xml version="1.0" encoding="utf-8"?>
<!-- Generator: Adobe Illustrator 23.1.0, SVG Export Plug-In . SVG Version: 6.00 Build 0)  -->
<svg version="1.1" id="Слой_1" xmlns="http://www.w3.org/2000/svg" xmlns:xlink="http://www.w3.org/1999/xlink" x="0px" y="0px"
	 viewBox="0 0 209.8 313.6" style="enable-background:new 0 0 209.8 313.6;" xml:space="preserve">
<style type="text/css">
	.st0{fill:#F39681;}
	.st1{fill:#FFE9B9;}
	.st2{fill:none;stroke:#3DCD90;stroke-width:6;}
</style>
<path class="st0" d="M11.8,114.6c-2.1-19.8,3-42,17.4-56.5c14.7-14.6,40-18.3,53.3-4.4c14.4,14.7,10.8,48,27.9,59.5
	c22.1,14.9,52.7-13.3,74.8,1.6c11.6,7.8,19.9,21.5,18.2,36.4c-1.7,14.6-7.1,29-7.7,43.7c-1,19.7,6.2,38.1,9,57.4
	c2.6,19.3-0.5,42.3-16.6,54.3c-14.6,10.8-35,8.3-48.4-1.7c-13.6-10.1-21.8-26-27.9-42.3c-6.1-16.2-10.7-33.2-19.4-47.9
	c-14.2-24-34.9-28.8-56.4-42.9C19.7,161,13.7,133.8,11.8,114.6z"/>
<path class="st1" d="M120.5,128.8c0.2,0.9,1,1.3,1.7,1.3c0.8-0.3,1.3-1.2,1.3-1.9c-0.2-0.9-1-1.3-1.7-1.3
	C120.9,126.7,120.3,127.9,120.5,128.8z"/>
<path class="st1" d="M127.3,140.4c0.3,0.9,1.2,1.3,1.9,1.3c0.9-0.3,1.3-1.2,1.3-1.9c-0.3-0.9-1.2-1.3-1.9-1.3
	C127.8,138.8,127.3,139.7,127.3,140.4z"/>
<path class="st1" d="M135,152.6c0.2,0.9,1,1.3,1.7,1.3c0.8-0.3,1.3-1.2,1.3-1.9c-0.2-0.9-1-1.3-1.7-1.3
	C135.2,150.8,134.8,151.7,135,152.6z"/>
<path class="st1" d="M192.3,248.8c0.2,0.9,1,1.3,1.7,1.3c0.8-0.3,1.3-1.2,1.3-1.9c-0.2-0.9-1-1.3-1.7-1.3
	C192.5,247.1,192.1,247.9,192.3,248.8z"/>
<path class="st1" d="M199.2,260.5c0.3,0.9,1.1,1.3,1.8,1.3c0.9-0.3,1.3-1.2,1.3-1.9c-0.3-0.9-1.1-1.3-1.8-1.3
	C199.8,258.6,198.9,259.7,199.2,260.5z"/>
<path class="st1" d="M206.7,272.6c0.3,0.9,1.1,1.3,1.8,1.3c0.9-0.3,1.3-1.2,1.3-1.9c-0.3-0.9-1.1-1.3-1.8-1.3
	C207.3,270.7,206.4,271.7,206.7,272.6z"/>
<path class="st1" d="M94.3,111.9c0.2,0.9,1,1.3,1.7,1.3c0.8-0.3,1.3-1.2,1.3-1.9c-0.2-0.9-1-1.3-1.7-1.3
	C94.5,110.2,94.1,111.1,94.3,111.9z"/>
<path class="st1" d="M101.2,123.7c0.3,0.9,1.1,1.3,1.8,1.3c0.9-0.3,1.3-1.2,1.3-1.9c-0.3-0.9-1.1-1.3-1.8-1.3
	C101.7,122.1,101,122.8,101.2,123.7z"/>
<path class="st1" d="M108.8,135.7c0.2,0.9,1,1.3,1.7,1.3c0.8-0.3,1.3-1.2,1.3-1.9c-0.2-0.9-1-1.3-1.7-1.3
	C109,134,108.6,134.9,108.8,135.7z"/>
<path class="st1" d="M115.6,147.4c0.3,0.9,1.2,1.3,1.9,1.3c0.9-0.3,1.3-1.2,1.3-1.9c-0.3-0.9-1.2-1.3-1.9-1.3
	C116,145.8,115.6,146.7,115.6,147.4z"/>
<path class="st1" d="M123.3,159.5c0.2,0.9,1,1.3,1.7,1.3c0.8-0.3,1.3-1.2,1.3-1.9c-0.2-0.9-1-1.3-1.7-1.3
	C123.5,157.8,123,158.7,123.3,159.5z"/>
<path class="st1" d="M129.8,171.7c0.3,0.9,1.2,1.3,1.9,1.3c0.9-0.3,1.3-1.2,1.3-1.9c-0.3-0.9-1.2-1.3-1.9-1.3
	C130.4,169.8,129.8,171,129.8,171.7z"/>
<path class="st1" d="M136.8,183.5c0.3,0.9,1.1,1.3,1.8,1.3c0.9-0.3,1.3-1.2,1.3-1.9c-0.3-0.9-1.1-1.3-1.8-1.3
	C137.3,181.9,136.6,182.7,136.8,183.5z"/>
<path class="st1" d="M144.4,195.6c0.2,0.9,1,1.3,1.7,1.3c0.8-0.3,1.3-1.2,1.3-1.9c-0.2-0.9-1-1.3-1.7-1.3
	C144.6,193.9,144.2,194.7,144.4,195.6z"/>
<path class="st1" d="M151.3,207.3c0.3,0.9,1.1,1.3,1.8,1.3c0.9-0.3,1.3-1.2,1.3-1.9c-0.3-0.9-1.1-1.3-1.8-1.3
	C151.7,205.7,151,206.5,151.3,207.3z"/>
<path class="st1" d="M158.8,219.4c0.3,0.9,1.1,1.3,1.8,1.3c0.9-0.3,1.3-1.2,1.3-1.9c-0.3-0.9-1.1-1.3-1.8-1.3
	C159.4,217.5,158.5,218.5,158.8,219.4z"/>
<path class="st1" d="M165.4,231.6c0.3,0.9,1.2,1.3,1.9,1.3c0.9-0.3,1.3-1.2,1.3-1.9c-0.3-0.9-1.2-1.3-1.9-1.3
	C166,229.7,165.4,230.9,165.4,231.6z"/>
<path class="st1" d="M173,243.7c0.2,0.9,1,1.3,1.7,1.3c0.7,0,1.3-1.2,1.3-1.9c-0.2-0.9-1-1.3-1.7-1.3
	C173.2,242,172.8,242.9,173,243.7z"/>
<path class="st1" d="M179.8,255.4c0.3,0.9,1.2,1.3,1.9,1.3c0.9-0.3,1.3-1.2,1.3-1.9c-0.3-0.9-1.2-1.3-1.9-1.3
	C180.3,253.8,179.8,254.7,179.8,255.4z"/>
<path class="st1" d="M187.4,267.5c0.3,0.9,1.1,1.3,1.8,1.3c0.9-0.3,1.3-1.2,1.3-1.9c-0.3-0.9-1.1-1.3-1.8-1.3
	C187.9,265.9,187.2,266.6,187.4,267.5z"/>
<path class="st1" d="M194.7,280.1c0.3,0.9,1.1,1.3,1.8,1.3c0.9-0.3,1.3-1.2,1.3-1.9c-0.3-0.9-1.1-1.3-1.8-1.3
	C195.3,278.2,194.4,279.2,194.7,280.1z"/>
<path class="st1" d="M201.6,291.8c0.3,0.9,1.1,1.3,1.8,1.3c0.9-0.3,1.3-1.2,1.3-1.9c-0.3-0.9-1.1-1.3-1.8-1.3
	C202.2,289.9,201.4,290.9,201.6,291.8z"/>
<path class="st1" d="M75.1,106.9c0.2,0.9,1,1.3,1.7,1.3c0.8-0.3,1.3-1.2,1.3-1.9c-0.2-0.9-1-1.3-1.7-1.3
	C75.4,104.8,74.8,106,75.1,106.9z"/>
<path class="st1" d="M82,118.6c0.2,0.9,1,1.3,1.7,1.3c0.8-0.3,1.3-1.2,1.3-1.9c-0.2-0.9-1-1.3-1.7-1.3
	C82.2,116.9,81.8,117.8,82,118.6z"/>
<path class="st1" d="M89.2,131.2c0.3,0.9,1.1,1.3,1.8,1.3c0.9-0.3,1.3-1.2,1.3-1.9c-0.3-0.9-1.1-1.3-1.8-1.3
	C89.6,129.6,88.9,130.3,89.2,131.2z"/>
<path class="st1" d="M96.2,142.9c0.2,0.9,1,1.3,1.7,1.3c0.8-0.3,1.3-1.2,1.3-1.9c-0.2-0.9-1-1.3-1.7-1.3
	C96.4,141.2,96,142.1,96.2,142.9z"/>
<path class="st1" d="M103.6,154.9c0.3,0.9,1.1,1.3,1.8,1.3c0.9-0.3,1.3-1.2,1.3-1.9c-0.3-0.9-1.1-1.3-1.8-1.3
	C104.1,153.3,103.4,154.1,103.6,154.9z"/>
<path class="st1" d="M110.7,166.7c0.2,0.9,1,1.3,1.7,1.3c0.8-0.3,1.3-1.2,1.3-1.9c-0.2-0.9-1-1.3-1.7-1.3
	C110.9,165,110.4,165.9,110.7,166.7z"/>
<path class="st1" d="M118,178.7c0.3,0.9,1.2,1.3,1.9,1.3c0.9-0.3,1.3-1.2,1.3-1.9c-0.3-0.9-1.2-1.3-1.9-1.3
	C118.6,176.8,118,177.9,118,178.7z"/>
<path class="st1" d="M125.1,190.5c0.2,0.9,1,1.3,1.7,1.3c0.8-0.3,1.3-1.2,1.3-1.9c-0.2-0.9-1-1.3-1.7-1.3
	C125.3,188.8,124.9,189.7,125.1,190.5z"/>
<path class="st1" d="M132.6,202.6c0.2,0.9,1,1.3,1.7,1.3s1.3-1.2,1.3-1.9c-0.2-0.9-1-1.3-1.7-1.3
	C132.8,200.8,132.4,201.7,132.6,202.6z"/>
<path class="st1" d="M139.2,214.8c0.3,0.9,1.1,1.3,1.8,1.3c0.9-0.3,1.3-1.2,1.3-1.9c-0.3-0.9-1.1-1.3-1.8-1.3
	C139.9,212.9,139,214,139.2,214.8z"/>
<path class="st1" d="M146.8,226.9c0.2,0.9,1,1.3,1.7,1.3c0.8-0.3,1.3-1.2,1.3-1.9c-0.2-0.9-1-1.3-1.7-1.3
	C147,225.2,146.6,226,146.8,226.9z"/>
<path class="st1" d="M153.6,238.6c0.3,0.9,1.2,1.3,1.9,1.3c0.9-0.3,1.3-1.2,1.3-1.9c-0.3-0.9-1.2-1.3-1.9-1.3
	C154.2,236.7,153.6,237.8,153.6,238.6z"/>
<path class="st1" d="M160.9,251.2c0.3,0.9,1.1,1.3,1.8,1.3c0.9-0.3,1.3-1.2,1.3-1.9c-0.3-0.9-1.1-1.3-1.8-1.3
	C161.6,249.3,160.7,250.3,160.9,251.2z"/>
<path class="st1" d="M167.8,262.9c0.3,0.9,1.2,1.3,1.9,1.3c0.9-0.3,1.3-1.2,1.3-1.9c-0.3-0.9-1.2-1.3-1.9-1.3
	C168.2,261.3,167.8,262.2,167.8,262.9z"/>
<path class="st1" d="M175.5,275c0.2,0.9,1,1.3,1.7,1.3c0.8-0.3,1.3-1.2,1.3-1.9c-0.2-0.9-1-1.3-1.7-1.3
	C175.7,273.3,175.2,274.2,175.5,275z"/>
<path class="st1" d="M183,287.1c0.2,0.9,1,1.3,1.7,1.3c0.8-0.3,1.3-1.2,1.3-1.9c-0.2-0.9-1-1.3-1.7-1.3
	C183.2,285.3,182.7,286.2,183,287.1z"/>
<path class="st1" d="M189.9,298.8c0.3,0.9,1.1,1.3,1.8,1.3c0.9-0.3,1.3-1.2,1.3-1.9c-0.3-0.9-1.1-1.3-1.8-1.3
	C190.3,297.2,189.6,297.9,189.9,298.8z"/>
<path class="st1" d="M63,114.4c0.2,0.9,1,1.3,1.7,1.3c0.8-0.3,1.3-1.2,1.3-1.9c-0.2-0.9-1-1.3-1.7-1.3
	C63.2,112.6,62.8,113.5,63,114.4z"/>
<path class="st1" d="M69.8,126c0.3,0.9,1.2,1.3,1.9,1.3c0.9-0.3,1.3-1.2,1.3-1.9c-0.3-0.9-1.2-1.3-1.9-1.3
	C70.3,124.4,69.8,125.3,69.8,126z"/>
<path class="st1" d="M77.4,138.1c0.3,0.9,1.1,1.3,1.8,1.3c0.9-0.3,1.3-1.2,1.3-1.9c-0.3-0.9-1.1-1.3-1.8-1.3
	C78,136.2,77.3,137,77.4,138.1z"/>
<path class="st1" d="M84.5,149.9c0.2,0.9,1,1.3,1.7,1.3c0.8-0.3,1.3-1.2,1.3-1.9c-0.2-0.9-1-1.3-1.7-1.3
	C84.8,147.9,84.2,149,84.5,149.9z"/>
<path class="st1" d="M91.1,162.2c0.3,0.9,1.1,1.3,1.8,1.3c0.9-0.3,1.3-1.2,1.3-1.9c-0.3-0.9-1.1-1.3-1.8-1.3
	C91.5,160.6,90.8,161.3,91.1,162.2z"/>
<path class="st1" d="M98.6,174.2c0.2,0.9,1,1.3,1.7,1.3c0.8-0.3,1.3-1.2,1.3-1.9c-0.2-0.9-1-1.3-1.7-1.3
	C98.8,172.5,98.4,173.4,98.6,174.2z"/>
<path class="st1" d="M105.4,185.9c0.3,0.9,1.2,1.3,1.9,1.3c0.9-0.3,1.3-1.2,1.3-1.9c-0.3-0.9-1.2-1.3-1.9-1.3
	C105.9,184.3,105.4,185.2,105.4,185.9z"/>
<path class="st1" d="M113,198c0.3,0.9,1.1,1.3,1.8,1.3c0.9-0.3,1.3-1.2,1.3-1.9c-0.3-0.9-1.1-1.3-1.8-1.3
	C113.6,196.1,112.8,197.1,113,198z"/>
<path class="st1" d="M119.9,209.7c0.3,0.9,1.2,1.3,1.9,1.3c0.9-0.3,1.3-1.2,1.3-1.9c-0.3-0.9-1.2-1.3-1.9-1.3
	C120.5,207.8,119.9,209,119.9,209.7z"/>
<path class="st1" d="M127.5,221.8c0.3,0.9,1.1,1.3,1.8,1.3c0.7,0,1.3-1.2,1.3-1.9c-0.3-0.9-1.1-1.3-1.8-1.3
	C128,220.2,127.2,220.9,127.5,221.8z"/>
<path class="st1" d="M135.1,233.9c0.2,0.9,1,1.3,1.7,1.3c0.8-0.3,1.3-1.2,1.3-1.9c-0.2-0.9-1-1.3-1.7-1.3
	C135.3,232.1,134.8,233,135.1,233.9z"/>
<path class="st1" d="M141.7,246.1c0.3,0.9,1.1,1.3,1.8,1.3c0.9-0.3,1.3-1.2,1.3-1.9c-0.3-0.9-1.1-1.3-1.8-1.3
	C142.3,244.2,141.6,245,141.7,246.1z"/>
<path class="st1" d="M149.3,258.2c0.2,0.9,1,1.3,1.7,1.3c0.8-0.3,1.3-1.2,1.3-1.9c-0.2-0.9-1-1.3-1.7-1.3
	C149.6,256.2,149,257.3,149.3,258.2z"/>
<path class="st1" d="M156,269.9c0.3,0.9,1.2,1.3,1.9,1.3c0.9-0.3,1.3-1.2,1.3-1.9c-0.3-0.9-1.2-1.3-1.9-1.3
	C156.6,268,156,269.1,156,269.9z"/>
<path class="st1" d="M163.4,282.5c0.2,0.9,1,1.3,1.7,1.3s1.3-1.2,1.3-1.9c-0.2-0.9-1-1.3-1.7-1.3
	C163.6,280.8,163.2,281.7,163.4,282.5z"/>
<path class="st1" d="M170.2,294.2c0.3,0.9,1.2,1.3,1.9,1.3c0.7,0,1.3-1.2,1.3-1.9c0-0.7-1.2-1.3-1.9-1.3
	C170.7,292.6,170.2,293.5,170.2,294.2z"/>
<path class="st1" d="M43.6,109.2c0.3,0.9,1.2,1.3,1.9,1.3c0.9-0.3,1.3-1.2,1.3-1.9c-0.3-0.9-1.2-1.3-1.9-1.3
	C44,107.6,43.6,108.5,43.6,109.2z"/>
<path class="st1" d="M50.7,121c0.2,0.9,1,1.3,1.7,1.3c0.7,0,1.3-1.2,1.3-1.9c-0.2-0.9-1-1.3-1.7-1.3C50.9,119.3,50.5,120.2,50.7,121
	z"/>
<path class="st1" d="M58.1,133c0.3,0.9,1.2,1.3,1.9,1.3c0.9-0.3,1.3-1.2,1.3-1.9c-0.3-0.9-1.2-1.3-1.9-1.3
	C58.5,131.4,58.1,132.3,58.1,133z"/>
<path class="st1" d="M64.8,145.3c0.3,0.9,1.1,1.3,1.8,1.3c0.9-0.3,1.3-1.2,1.3-1.9c-0.3-0.9-1.1-1.3-1.8-1.3
	C65.3,143.7,64.6,144.5,64.8,145.3z"/>
<path class="st1" d="M72.4,157.4c0.3,0.9,1.1,1.3,1.8,1.3c0.9-0.3,1.3-1.2,1.3-1.9c-0.3-0.9-1.1-1.3-1.8-1.3
	C73,155.5,72.1,156.5,72.4,157.4z"/>
<path class="st1" d="M79.3,169.1c0.3,0.9,1.1,1.3,1.8,1.3c0.9-0.3,1.3-1.2,1.3-1.9c-0.3-0.9-1.1-1.3-1.8-1.3
	C79.9,167.2,79.1,168.3,79.3,169.1z"/>
<path class="st1" d="M86.9,181.2c0.2,0.9,1,1.3,1.7,1.3c0.7,0,1.3-1.2,1.3-1.9c-0.2-0.9-1-1.3-1.7-1.3
	C87.2,179.2,86.8,180.1,86.9,181.2z"/>
<path class="st1" d="M93.4,193.4c0.3,0.9,1.2,1.3,1.9,1.3c0.9-0.3,1.3-1.2,1.3-1.9c-0.3-0.9-1.2-1.3-1.9-1.3
	C94,191.5,93.4,192.7,93.4,193.4z"/>
<path class="st1" d="M101.1,205.5c0.2,0.9,1,1.3,1.7,1.3c0.8-0.3,1.3-1.2,1.3-1.9c0-0.7-1-1.3-1.7-1.3
	C101.3,203.8,100.8,204.7,101.1,205.5z"/>
<path class="st1" d="M107.8,217.2c0.3,0.9,1.2,1.3,1.9,1.3c0.9-0.3,1.3-1.2,1.3-1.9c-0.3-0.9-1.2-1.3-1.9-1.3
	C108.3,215.6,107.9,216.5,107.8,217.2z"/>
<path class="st1" d="M115.5,229.3c0.3,0.9,1.1,1.3,1.8,1.3c0.9-0.3,1.3-1.2,1.3-1.9c-0.3-0.9-1.1-1.3-1.8-1.3
	C116.1,227.4,115.2,228.4,115.5,229.3z"/>
<path class="st1" d="M123,241.4c0.2,0.9,1,1.3,1.7,1.3c0.7,0,1.3-1.2,1.3-1.9c-0.2-0.9-1-1.3-1.7-1.3
	C123.2,239.6,122.8,240.5,123,241.4z"/>
<path class="st1" d="M129.9,253.1c0.3,0.9,1.1,1.3,1.8,1.3c0.7,0,1.3-1.2,1.3-1.9c-0.3-0.9-1.1-1.3-1.8-1.3
	C130.4,251.5,129.7,252.2,129.9,253.1z"/>
<path class="st1" d="M137.5,265.2c0.2,0.9,1,1.3,1.7,1.3c0.8-0.3,1.3-1.2,1.3-1.9c-0.2-0.9-1-1.3-1.7-1.3
	C137.7,263.4,137.3,264.3,137.5,265.2z"/>
<path class="st1" d="M144,277.4c0.3,0.9,1.2,1.3,1.9,1.3c0.9-0.3,1.3-1.2,1.3-1.9c-0.3-0.9-1.2-1.3-1.9-1.3
	C144.5,275.8,144,276.6,144,277.4z"/>
<path class="st1" d="M151.7,289.5c0.2,0.9,1,1.3,1.7,1.3c0.8-0.3,1.3-1.2,1.3-1.9c-0.2-0.9-1-1.3-1.7-1.3
	C152,287.5,151.6,288.3,151.7,289.5z"/>
<path class="st1" d="M31.7,116.8c0.3,0.9,1.1,1.3,1.8,1.3c0.9-0.3,1.3-1.2,1.3-1.9c-0.3-0.9-1.1-1.3-1.8-1.3
	C32.3,114.9,31.6,115.6,31.7,116.8z"/>
<path class="st1" d="M38.6,128.5c0.3,0.9,1.1,1.3,1.8,1.3c0.9-0.3,1.3-1.2,1.3-1.9c-0.3-0.9-1.1-1.3-1.8-1.3
	C39.2,126.6,38.4,127.6,38.6,128.5z"/>
<path class="st1" d="M46,140.5c0.3,0.9,1.2,1.3,1.9,1.3c0.7,0,1.3-1.2,1.3-1.9c-0.3-0.9-1.2-1.3-1.9-1.3
	C46.5,138.9,46,139.8,46,140.5z"/>
<path class="st1" d="M53.2,152.3c0.2,0.9,1,1.3,1.7,1.3c0.8-0.3,1.3-1.2,1.3-1.9c-0.2-0.9-1-1.3-1.7-1.3
	C53.4,150.6,52.9,151.5,53.2,152.3z"/>
<path class="st1" d="M60.7,164.4c0.2,0.9,1,1.3,1.7,1.3c0.8-0.3,1.3-1.2,1.3-1.9c-0.2-0.9-1-1.3-1.7-1.3
	C60.9,162.6,60.4,163.5,60.7,164.4z"/>
<path class="st1" d="M67.3,176.6c0.3,0.9,1.1,1.3,1.8,1.3c0.9-0.3,1.3-1.2,1.3-1.9c-0.3-0.9-1.1-1.3-1.8-1.3
	C67.7,175,67,175.8,67.3,176.6z"/>
<path class="st1" d="M74.8,188.7c0.3,0.9,1.1,1.3,1.8,1.3c0.9-0.3,1.3-1.2,1.3-1.9c-0.3-0.9-1.1-1.3-1.8-1.3
	C75.4,186.8,74.5,187.8,74.8,188.7z"/>
<path class="st1" d="M81.7,200.4c0.3,0.9,1.1,1.3,1.8,1.3c0.7,0,1.3-1.2,1.3-1.9c-0.3-0.9-1.1-1.3-1.8-1.3
	C82.2,198.8,81.5,199.6,81.7,200.4z"/>
<path class="st1" d="M89.3,212.5c0.2,0.9,1,1.3,1.7,1.3c0.7,0,1.3-1.2,1.3-1.9c-0.2-0.9-1-1.3-1.7-1.3
	C89.5,210.8,89.1,211.6,89.3,212.5z"/>
<path class="st1" d="M95.8,224.7c0.3,0.9,1.2,1.3,1.9,1.3c0.9-0.3,1.3-1.2,1.3-1.9c-0.3-0.9-1.2-1.3-1.9-1.3
	C96.4,222.8,96,223.7,95.8,224.7z"/>
<path class="st1" d="M103.5,236.8c0.2,0.9,1,1.3,1.7,1.3c0.8-0.3,1.3-1.2,1.3-1.9c-0.2-0.9-1-1.3-1.7-1.3
	C103.9,234.8,103.3,236,103.5,236.8z"/>
<path class="st1" d="M111,248.9c0.2,0.9,1,1.3,1.7,1.3c0.8-0.3,1.3-1.2,1.3-1.9c-0.2-0.9-1-1.3-1.7-1.3
	C111.2,247.1,110.8,248,111,248.9z"/>
<path class="st1" d="M117.9,260.6c0.3,0.9,1.1,1.3,1.8,1.3c0.9-0.3,1.3-1.2,1.3-1.9c-0.3-0.9-1.1-1.3-1.8-1.3
	C118.4,259,117.6,259.7,117.9,260.6z"/>
<path class="st1" d="M125.5,272.7c0.2,0.9,1,1.3,1.7,1.3c0.7,0,1.3-1.2,1.3-1.9c-0.2-0.9-1-1.3-1.7-1.3
	C125.7,270.9,125.2,271.8,125.5,272.7z"/>
<path class="st1" d="M132.2,284.3c0.3,0.9,1.2,1.3,1.9,1.3c0.9-0.3,1.3-1.2,1.3-1.9c-0.3-0.9-1.2-1.3-1.9-1.3
	C132.7,282.7,132.2,283.6,132.2,284.3z"/>
<path class="st1" d="M139.4,296.2c0.2,0.9,1,1.3,1.7,1.3c0.8-0.3,1.3-1.2,1.3-1.9c-0.2-0.9-1-1.3-1.7-1.3
	C139.6,294.4,139.1,295.3,139.4,296.2z"/>
<path class="st1" d="M19.4,123.4c0.3,0.9,1.1,1.3,1.8,1.3c0.9-0.3,1.3-1.2,1.3-1.9c-0.3-0.9-1.1-1.3-1.8-1.3
	C19.8,121.8,19.1,122.6,19.4,123.4z"/>
<path class="st1" d="M26.9,135.5c0.2,0.9,1,1.3,1.7,1.3c0.8-0.3,1.3-1.2,1.3-1.9c-0.2-0.9-1-1.3-1.7-1.3
	C27.2,133.8,26.7,134.6,26.9,135.5z"/>
<path class="st1" d="M33.7,147.2c0.3,0.9,1.2,1.3,1.9,1.3c0.9-0.3,1.3-1.2,1.3-1.9c-0.3-0.9-1.2-1.3-1.9-1.3
	C34.3,145.3,33.7,146.4,33.7,147.2z"/>
<path class="st1" d="M41.1,159.8c0.2,0.9,1,1.3,1.7,1.3c0.8-0.3,1.3-1.2,1.3-1.9c-0.2-0.9-1-1.3-1.7-1.3
	C41.5,157.8,41,158.7,41.1,159.8z"/>
<path class="st1" d="M47.9,171.5c0.3,0.9,1.2,1.3,1.9,1.3c0.9-0.3,1.3-1.2,1.3-1.9c-0.3-0.9-1.2-1.3-1.9-1.3
	C48.5,169.6,47.9,170.8,47.9,171.5z"/>
<path class="st1" d="M55.5,183.6c0.3,0.9,1.1,1.3,1.8,1.3c0.9-0.3,1.3-1.2,1.3-1.9c-0.3-0.9-1.1-1.3-1.8-1.3
	C56,182,55.3,182.7,55.5,183.6z"/>
<path class="st1" d="M63.1,195.7c0.2,0.9,1,1.3,1.7,1.3c0.8-0.3,1.3-1.2,1.3-1.9c-0.2-0.9-1-1.3-1.7-1.3
	C63.3,193.9,62.9,194.8,63.1,195.7z"/>
<path class="st1" d="M69.7,207.9c0.3,0.9,1.1,1.3,1.8,1.3c0.9-0.3,1.3-1.2,1.3-1.9c-0.3-0.9-1.1-1.3-1.8-1.3
	C70.3,206,69.5,207.1,69.7,207.9z"/>
<path class="st1" d="M77.3,220c0.2,0.9,1,1.3,1.7,1.3c0.7,0,1.3-1.2,1.3-1.9c-0.2-0.9-1-1.3-1.7-1.3C77.5,218.3,77,219.1,77.3,220z"
	/>
<path class="st1" d="M84.1,231.7c0.3,0.9,1.2,1.3,1.9,1.3c0.7,0,1.3-1.2,1.3-1.9c-0.3-0.9-1.2-1.3-1.9-1.3
	C84.5,230.1,84.1,230.9,84.1,231.7z"/>
<path class="st1" d="M91.7,243.8c0.2,0.9,1,1.3,1.7,1.3c0.8-0.3,1.3-1.2,1.3-1.9c-0.2-0.9-1-1.3-1.7-1.3
	C91.9,242.1,91.5,242.9,91.7,243.8z"/>
<path class="st1" d="M98.5,255.5c0.3,0.9,1.2,1.3,1.9,1.3c0.9-0.3,1.3-1.2,1.3-1.9c-0.3-0.9-1.2-1.3-1.9-1.3
	C99,253.8,98.5,254.7,98.5,255.5z"/>
<path class="st1" d="M105.9,268.1c0.3,0.9,1.1,1.3,1.8,1.3c0.9-0.3,1.3-1.2,1.3-1.9c-0.3-0.9-1.1-1.3-1.8-1.3
	C106.5,266.2,105.7,266.9,105.9,268.1z"/>
<path class="st1" d="M112.9,279.9c0.2,0.9,1,1.3,1.7,1.3c0.8-0.3,1.3-1.2,1.3-1.9c-0.2-0.9-1-1.3-1.7-1.3
	C113.2,277.9,112.6,279,112.9,279.9z"/>
<path class="st1" d="M0.5,119.2c0.2,0.9,1,1.3,1.7,1.3c0.7,0,1.3-1.2,1.3-1.9c-0.2-0.9-1-1.3-1.7-1.3C0.7,117.5,0.2,118.4,0.5,119.2
	z"/>
<path class="st1" d="M7.3,130.9c0.3,0.9,1.1,1.3,1.8,1.3c0.9-0.3,1.3-1.2,1.3-1.9c-0.3-0.9-1.1-1.3-1.8-1.3
	C7.8,129.3,7.1,130.1,7.3,130.9z"/>
<path class="st1" d="M14.9,143c0.2,0.9,1,1.3,1.7,1.3c0.8-0.3,1.3-1.2,1.3-1.9c-0.2-0.9-1-1.3-1.7-1.3
	C15.1,141.3,14.7,142.2,14.9,143z"/>
<path class="st1" d="M21.7,154.7c0.3,0.9,1.2,1.3,1.9,1.3c0.9-0.3,1.3-1.2,1.3-1.9c-0.3-0.9-1.2-1.3-1.9-1.3
	C22.1,153.1,21.7,153.9,21.7,154.7z"/>
<path class="st1" d="M29.4,166.8c0.2,0.9,1,1.3,1.7,1.3c0.8-0.3,1.3-1.2,1.3-1.9c-0.2-0.9-1-1.3-1.7-1.3
	C29.6,165.1,29.1,165.9,29.4,166.8z"/>
<path class="st1" d="M36.2,178.5c0.3,0.9,1.2,1.3,1.9,1.3c0.7,0,1.3-1.2,1.3-1.9c-0.3-0.9-1.2-1.3-1.9-1.3
	C36.6,176.9,36.2,177.7,36.2,178.5z"/>
<path class="st1" d="M29.7,165.6c0.3,0.9,1.2,1.3,1.9,1.3c0.7,0,1.3-1.2,1.3-1.9c-0.3-0.9-1.2-1.3-1.9-1.3
	C30.2,164,29.8,164.9,29.7,165.6z"/>
<path class="st1" d="M43.5,191.1c0.3,0.9,1.1,1.3,1.8,1.3c0.7,0,1.3-1.2,1.3-1.9c-0.3-0.9-1.1-1.3-1.8-1.3
	C44,189.5,43.2,190.2,43.5,191.1z"/>
<path class="st1" d="M51.1,203.2c0.2,0.9,1,1.3,1.7,1.3c0.8-0.3,1.3-1.2,1.3-1.9c-0.2-0.9-1-1.3-1.7-1.3
	C51.4,201.1,51,202,51.1,203.2z"/>
<path class="st1" d="M58,214.9c0.3,0.9,1.1,1.3,1.8,1.3c0.9-0.3,1.3-1.2,1.3-1.9c-0.3-0.9-1.1-1.3-1.8-1.3
	C58.6,213,57.7,214,58,214.9z"/>
<path class="st1" d="M65.5,227c0.2,0.9,1,1.3,1.7,1.3c0.8-0.3,1.3-1.2,1.3-1.9c-0.2-0.9-1-1.3-1.7-1.3
	C65.7,225.2,65.3,226.1,65.5,227z"/>
<path class="st1" d="M72,239.2c0.3,0.9,1.2,1.3,1.9,1.3c0.9-0.3,1.3-1.2,1.3-1.9c-0.3-0.9-1.2-1.3-1.9-1.3
	C72.5,237.6,72,238.4,72,239.2z"/>
<path class="st1" d="M79.7,251.3c0.2,0.9,1,1.3,1.7,1.3c0.8-0.3,1.3-1.2,1.3-1.9c-0.2-0.9-1-1.3-1.7-1.3
	C79.9,249.6,79.5,250.4,79.7,251.3z"/>
<path class="st1" d="M86.5,263c0.3,0.9,1.2,1.3,1.9,1.3c0.9-0.3,1.3-1.2,1.3-1.9c-0.3-0.9-1.2-1.3-1.9-1.3
	C86.9,261.3,86.5,262.2,86.5,263z"/>
<path class="st1" d="M94.1,275c0.3,0.9,1.1,1.3,1.8,1.3c0.9-0.3,1.3-1.2,1.3-1.9c-0.3-0.9-1.1-1.3-1.8-1.3
	C94.6,273.4,93.8,274.2,94.1,275z"/>
<path class="st1" d="M2.9,150.5c0.2,0.9,1,1.3,1.7,1.3c0.7,0,1.3-1.2,1.3-1.9c-0.2-0.9-1-1.3-1.7-1.3C3.2,148.5,2.6,149.7,2.9,150.5
	z"/>
<path class="st1" d="M9.8,162.2c0.3,0.9,1.1,1.3,1.8,1.3c0.9-0.3,1.3-1.2,1.3-1.9c-0.3-0.9-1.1-1.3-1.8-1.3
	C10.2,160.6,9.5,161.4,9.8,162.2z"/>
<path class="st1" d="M17.3,174.3c0.2,0.9,1,1.3,1.7,1.3c0.8-0.3,1.3-1.2,1.3-1.9c-0.2-0.9-1-1.3-1.7-1.3
	C17.5,172.6,17.1,173.4,17.3,174.3z"/>
<path class="st1" d="M24.1,186c0.3,0.9,1.2,1.3,1.9,1.3c0.9-0.3,1.3-1.2,1.3-1.9c-0.3-0.9-1.2-1.3-1.9-1.3
	C24.6,184.4,24.1,185.2,24.1,186z"/>
<path class="st1" d="M31.8,198.1c0.2,0.9,1,1.3,1.7,1.3c0.8-0.3,1.3-1.2,1.3-1.9c-0.2-0.9-1-1.3-1.7-1.3
	C32,196.4,31.6,197.2,31.8,198.1z"/>
<path class="st1" d="M39.3,210.1c0.2,0.9,1,1.3,1.7,1.3c0.8-0.3,1.3-1.2,1.3-1.9c-0.2-0.9-1-1.3-1.7-1.3
	C39.5,208.4,39.1,209.3,39.3,210.1z"/>
<path class="st1" d="M45.9,222.4c0.3,0.9,1.1,1.3,1.8,1.3c0.9-0.3,1.3-1.2,1.3-1.9c-0.3-0.9-1.1-1.3-1.8-1.3
	C46.4,220.8,45.7,221.5,45.9,222.4z"/>
<path class="st1" d="M52.9,234.2c0.2,0.9,1,1.3,1.7,1.3c0.8-0.3,1.3-1.2,1.3-1.9c-0.2-0.9-1-1.3-1.7-1.3
	C53.2,232.5,52.7,233.3,52.9,234.2z"/>
<path class="st1" d="M60.4,246.2c0.3,0.9,1.1,1.3,1.8,1.3c0.9-0.3,1.3-1.2,1.3-1.9c-0.3-0.9-1.1-1.3-1.8-1.3
	C61,244.3,60.3,245,60.4,246.2z"/>
<path class="st1" d="M12.1,193.5c0.3,0.9,1.2,1.3,1.9,1.3c0.9-0.3,1.3-1.2,1.3-1.9c-0.3-0.9-1.2-1.3-1.9-1.3
	C12.7,191.6,12.1,192.7,12.1,193.5z"/>
<path class="st1" d="M19.8,205.6c0.2,0.9,1,1.3,1.7,1.3c0.8-0.3,1.3-1.2,1.3-1.9c-0.2-0.9-1-1.3-1.7-1.3
	C20,203.9,19.5,204.7,19.8,205.6z"/>
<circle class="st2" cx="52.1" cy="31" r="28"/>
</svg>
