<?xml version="1.0" encoding="utf-8"?>
<!-- Generator: Adobe Illustrator 23.1.0, SVG Export Plug-In . SVG Version: 6.00 Build 0)  -->
<svg version="1.1" id="Слой_1" xmlns="http://www.w3.org/2000/svg" xmlns:xlink="http://www.w3.org/1999/xlink" x="0px" y="0px"
	 viewBox="0 0 430 302.7" style="enable-background:new 0 0 430 302.7;" xml:space="preserve">
<style type="text/css">
	.st0{fill:#F39681;}
	.st1{fill:#FFE9B9;}
	.st2{fill:none;stroke:#3DCD90;stroke-width:8;}
</style>
<path class="st0" d="M47,135.4c-14.8-22.6-22.4-52.8-13.9-79.2c8.7-26.8,37.1-47,61.8-38.4c26.5,8.9,42.8,51.5,70.7,54.8
	c36,4.4,55.6-48.8,91.6-44.5c18.9,2.3,37.5,13.8,44.5,32.8c7,18.8,9.4,39.5,17.8,57.7c10.9,24.5,31.1,42.3,46.6,64
	c15.2,21.8,25.6,51.5,13.6,76c-11,22.1-37.3,31.8-59.8,27.9c-22.8-3.7-42.5-18-59.9-33.9c-17.4-15.9-33.6-33.6-53.2-46
	c-32.1-20.2-60.2-13.2-94.9-17.1C85.4,186.7,61.3,157.6,47,135.4z"/>
<path class="st0" d="M193.6,231.3c0.3,2.2,2.3,3.8,4.5,3.6c2.2-0.3,3.8-2.3,3.6-4.5c-0.3-2.2-1.7-4-4-4.3c-1.4-0.3-3.1,0.2-4.1,1.4
	C192.8,228.3,192.6,230.2,193.6,231.3z"/>
<path class="st0" d="M203.8,276.1c2.8-8.4,1.4-18.3-3.7-25.5c-4.2-6.2-10.9-10.8-12.8-17.9c-0.6-2.4-0.9-4.5-2.2-6.8
	c-2.4-4.1-8.5-4.4-12.3-1.8c-3.8,2.6-5.2,7.8-5.3,12.3c0,4.8,1.5,9.2,2.7,13.6c1.2,4.5,2.2,9.3,1.5,14c-0.8,4.1-2.7,7.8-3.1,12
	c-0.6,8.5,7.8,17.1,16.5,17.3C194.1,293.4,201.3,283.5,203.8,276.1z"/>
<path class="st1" d="M183.3,67.7c1,1,2.5,1,3.5,0.5c1-1,1-2.5,0.5-3.5c-1-1-2.5-1-3.5-0.5C182.3,64.6,182.3,66.6,183.3,67.7z"/>
<path class="st1" d="M202.6,79.8c1,1,2.5,1,3.5,0.5c1-1,1-2.5,0.5-3.5c-1-1-2.5-1-3.5-0.5C202.1,77.3,202.1,78.8,202.6,79.8z"/>
<path class="st1" d="M222.3,91.9c1,1,2.5,1,3.5,0.5c1-1,1-2.5,0.5-3.5c-1-1-2.5-1-3.5-0.5C221.3,89.4,221.3,90.9,222.3,91.9z"/>
<path class="st1" d="M378.6,189.6c1,1,2.5,1,3.5,0.5c1-1,1-2.5,0.5-3.5c-1-1-2.5-1-3.5-0.5C377.6,187,377.6,188.6,378.6,189.6z"/>
<path class="st1" d="M397.8,201.7c1,1,2.5,1,3.5,0.5c1-1,1-2.5,0.5-3.5c-1-1-2.5-1-3.5-0.5C397.3,198.7,396.8,200.7,397.8,201.7z"/>
<path class="st1" d="M417.6,213.9c1,1,2.5,1,3.5,0.5c1-1,1-2.5,0.5-3.5c-1-1-2.5-1-3.5-0.5C417.1,210.8,416.6,212.9,417.6,213.9z"/>
<path class="st1" d="M132.2,62.6c1,1,2.5,1,3.5,0.5c1-1,1-2.5,0.5-3.5c-1-1-2.5-1-3.5-0.5C131.2,60.1,131.2,61.6,132.2,62.6z"/>
<path class="st1" d="M151.5,74.7c1,1,2.5,1,3.5,0.5c1-1,1-2.5,0.5-3.5c-1-1-2.5-1-3.5-0.5C151,72.2,150.4,73.7,151.5,74.7z"/>
<path class="st1" d="M171.2,86.9c1,1,2.5,1,3.5,0.5c1-1,1-2.5,0.5-3.5c-1-1-2.5-1-3.5-0.5C170.2,84.4,170.2,85.9,171.2,86.9z"/>
<path class="st1" d="M190.4,99c1,1,2.5,1,3.5,0.5c1-1,1-2.5,0.5-3.5c-1-1-2.5-1-3.5-0.5C189.9,96.5,189.9,98,190.4,99z"/>
<path class="st1" d="M210.2,111.2c1,1,2.5,1,3.5,0.5c1-1,1-2.5,0.5-3.5c-1-1-2.5-1-3.5-0.5C209.1,108.6,209.1,110.2,210.2,111.2z"/>
<path class="st1" d="M229.4,123.8c1,1,2.5,1,3.5,0.5c1-1,1-2.5,0.5-3.5c-1-1-2.5-1-3.5-0.5C228.9,120.8,228.9,122.8,229.4,123.8z"/>
<path class="st1" d="M249.1,136c1,1,2.5,1,3.5,0.5c1-1,1-2.5,0.5-3.5c-1-1-2.5-1-3.5-0.5C248.6,133.4,248.1,134.9,249.1,136z"/>
<path class="st1" d="M268.8,148.1c1,1,2.5,1,3.5,0.5c1-1,1-2.5,0.5-3.5c-1-1-2.5-1-3.5-0.5C267.8,145.6,267.8,147.1,268.8,148.1z"/>
<path class="st1" d="M288,160.2c1,1,2.5,1,3.5,0.5c1-1,1-2.5,0.5-3.5c-1-1-2.5-1-3.5-0.5C287.5,157.7,287,159.2,288,160.2z"/>
<path class="st1" d="M307.8,172.4c1,1,2.5,1,3.5,0.5c1-1,1-2.5,0.5-3.5c-1-1-2.5-1-3.5-0.5C307.3,169.3,306.8,171.4,307.8,172.4z"/>
<path class="st1" d="M327,184.5c1,1,2.5,1,3.5,0.5c1-1,1-2.5,0.5-3.5c-1-1-2.5-1-3.5-0.5C326.5,181.5,326.5,183.5,327,184.5z"/>
<path class="st1" d="M346.7,196.7c1,1,2.5,1,3.5,0.5c1-0.5,1-2.5,0.5-3.5c-1-1-2.5-1-3.5-0.5C345.7,194.1,345.7,195.6,346.7,196.7z"
	/>
<path class="st1" d="M366,208.8c1,1,2.5,1,3.5,0.5c1-1,1-2.5,0.5-3.5c-1-1-2.5-1-3.5-0.5C365.4,206.3,365.4,207.8,366,208.8z"/>
<path class="st1" d="M385.7,220.9c1,1,2.5,1,3.5,0.5c1-1,1-2.5,0.5-3.5c-1-1-2.5-1-3.5-0.5C385.2,218.4,384.7,219.9,385.7,220.9z"/>
<path class="st1" d="M405.4,233.6c1,1,2.5,1,3.5,0.5c1-1,1-2.5,0.5-3.5c-1-1-2.5-1-3.5-0.5C404.9,230.6,404.4,232.6,405.4,233.6z"/>
<path class="st1" d="M424.6,245.7c1,1,2.5,1,3.5,0.5c1-1,1-2.5,0.5-3.5c-1-1-2.5-1-3.5-0.5C424.1,242.7,423.6,244.7,424.6,245.7z"/>
<path class="st1" d="M100.4,70.2c1,1,2.5,1,3.5,0.5c1-1,1-2.5,0.5-3.5c-1-1-2.5-1-3.5-0.5C99.3,67.2,99.3,69.2,100.4,70.2z"/>
<path class="st1" d="M120.1,82.3c1,1,2.5,1,3.5,0.5c1-1,1-2.5,0.5-3.5c-1-1-2.5-1-3.5-0.5C119.1,79.8,119.1,81.3,120.1,82.3z"/>
<path class="st1" d="M139.3,94.5c1,1,2.5,1,3.5,0.5c1-1,1-2.5,0.5-3.5c-1-1-2.5-1-3.5-0.5C138.8,91.9,138.3,93.5,139.3,94.5z"/>
<path class="st1" d="M159,106.6c1,1,2.5,1,3.5,0.5c1-1,1-2.5,0.5-3.5c-1-1-2.5-1-3.5-0.5C158,104.1,158,105.6,159,106.6z"/>
<path class="st1" d="M178.3,118.8c1,1,2.5,1,3.5,0.5c1-1,1-2.5,0.5-3.5c-1-1-2.5-1-3.5-0.5C177.8,116.2,177.3,117.7,178.3,118.8z"/>
<path class="st1" d="M198,130.9c1,1,2.5,1,3.5,0.5c1-1,1-2.5,0.5-3.5c-1-1-2.5-1-3.5-0.5C197,128.4,197,129.9,198,130.9z"/>
<path class="st1" d="M217.2,143c1,1,2.5,1,3.5,0.5c1-1,1-2.5,0.5-3.5c-1-1-2.5-1-3.5-0.5C216.7,140,216.7,142,217.2,143z"/>
<path class="st1" d="M236.9,155.2c1,1,2.5,1,3.5,0.5c1-1,1-2.5,0.5-3.5c-1-1-2.5-1-3.5-0.5C235.9,152.6,235.9,154.2,236.9,155.2z"/>
<path class="st1" d="M256.7,167.3c1,1,2.5,1,3.5,0.5c1-0.5,1-2.5,0.5-3.5c-1-1-2.5-1-3.5-0.5C255.7,164.8,255.7,166.3,256.7,167.3z"
	/>
<path class="st1" d="M275.9,180c1,1,2.5,1,3.5,0.5c1-1,1-2.5,0.5-3.5c-1-1-2.5-1-3.5-0.5C275.4,176.9,274.9,179,275.9,180z"/>
<path class="st1" d="M295.6,192.1c1,1,2.5,1,3.5,0.5c1-1,1-2.5,0.5-3.5c-1-1-2.5-1-3.5-0.5C294.6,189.6,294.6,191.1,295.6,192.1z"/>
<path class="st1" d="M314.9,204.2c1,1,2.5,1,3.5,0.5c1-1,1-2.5,0.5-3.5c-1-1-2.5-1-3.5-0.5C314.4,201.2,314.4,203.2,314.9,204.2z"/>
<path class="st1" d="M334.6,216.4c1,1,2.5,1,3.5,0.5c1-1,1-2.5,0.5-3.5c-1-1-2.5-1-3.5-0.5C334.1,213.4,333.6,215.4,334.6,216.4z"/>
<path class="st1" d="M353.8,228.5c1,1,2.5,1,3.5,0.5c1-1,1-2.5,0.5-3.5c-1-1-2.5-1-3.5-0.5C353.3,226,353.3,227.5,353.8,228.5z"/>
<path class="st1" d="M373.5,240.7c1,1,2.5,1,3.5,0.5c1-1,1-2.5,0.5-3.5c-1-1-2.5-1-3.5-0.5C372.5,238.1,372.5,239.7,373.5,240.7z"/>
<path class="st1" d="M393.3,252.8c1,1,2.5,1,3.5,0.5c1-1,1-2.5,0.5-3.5c-1-1-2.5-1-3.5-0.5C392.3,250.3,392.3,251.8,393.3,252.8z"/>
<path class="st1" d="M412.5,265c1,1,2.5,1,3.5,0.5c1-1,1-2.5,0.5-3.5c-1-1-2.5-1-3.5-0.5C412,262.4,411.5,263.9,412.5,265z"/>
<path class="st1" d="M88.2,89.4c1,1,2.5,1,3.5,0.5c1-1,1-2.5,0.5-3.5c-1-1-2.5-1-3.5-0.5C87.2,86.9,87.2,88.4,88.2,89.4z"/>
<path class="st1" d="M107.5,101.6c1,1,2.5,1,3.5,0.5c1-1,1-2.5,0.5-3.5c-1-1-2.5-1-3.5-0.5C106.9,99,106.9,100.5,107.5,101.6z"/>
<path class="st1" d="M127.2,114.2c1,1,2.5,1,3.5,0.5c1-1,1-2.5,0.5-3.5c-1-1-2.5-1-3.5-0.5C126.7,111.2,126.2,112.7,127.2,114.2z"/>
<path class="st1" d="M146.9,126.3c1,1,2.5,1,3.5,0.5c1-1,1-2.5,0.5-3.5c-1-1-2.5-1-3.5-0.5C145.9,123.3,145.9,125.3,146.9,126.3z"/>
<path class="st1" d="M166.1,138.5c1,1,2.5,1,3.5,0.5c1-1,1-2.5,0.5-3.5c-1-1-2.5-1-3.5-0.5C165.6,136,165.1,137.5,166.1,138.5z"/>
<path class="st1" d="M185.9,150.6c1,1,2.5,1,3.5,0.5c1-1,1-2.5,0.5-3.5c-1-1-2.5-1-3.5-0.5C184.9,148.1,184.9,149.6,185.9,150.6z"/>
<path class="st1" d="M205.1,162.8c1,1,2.5,1,3.5,0.5c1-1,1-2.5,0.5-3.5c-1-1-2.5-1-3.5-0.5C204.6,160.2,204.6,161.8,205.1,162.8z"/>
<path class="st1" d="M224.8,174.9c1,1,2.5,1,3.5,0.5c1-1,1-2.5,0.5-3.5c-1-1-2.5-1-3.5-0.5C224.3,171.9,223.8,173.9,224.8,174.9z"/>
<path class="st1" d="M244,187c1,1,2.5,1,3.5,0.5c1-1,1-2.5,0.5-3.5c-1-1-2.5-1-3.5-0.5S243.5,186,244,187z"/>
<path class="st1" d="M263.8,199.2c1,1,2.5,1,3.5,0.5c1-0.5,1-2.5,0.5-3.5c-1-1-2.5-1-3.5-0.5C263.3,196.7,262.8,198.2,263.8,199.2z"
	/>
<path class="st1" d="M283.5,211.3c1,1,2.5,1,3.5,0.5c1-1,1-2.5,0.5-3.5c-1-1-2.5-1-3.5-0.5C282.5,208.8,282.5,210.3,283.5,211.3z"/>
<path class="st1" d="M302.7,224c1,1,2.5,1,3.5,0.5c1-1,1-2.5,0.5-3.5c-1-1-2.5-1-3.5-0.5C302.2,220.9,301.7,222.5,302.7,224z"/>
<path class="st1" d="M322.5,236.1c1,1,2.5,1,3.5,0.5c1-1,1-2.5,0.5-3.5c-1-1-2.5-1-3.5-0.5C321.4,233.1,321.4,235.1,322.5,236.1z"/>
<path class="st1" d="M341.7,248.3c1,1,2.5,1,3.5,0.5c1-1,1-2.5,0.5-3.5c-1-1-2.5-1-3.5-0.5C341.2,245.2,341.2,247.2,341.7,248.3z"/>
<path class="st1" d="M361.4,260.4c1,1,2.5,1,3.5,0.5c1-0.5,1-2.5,0.5-3.5c-1-1-2.5-1-3.5-0.5C360.4,257.9,360.4,259.4,361.4,260.4z"
	/>
<path class="st1" d="M380.6,272.5c1,1,2.5,1,3.5,0.5c1-0.5,1-2.5,0.5-3.5c-0.5-1-2.5-1-3.5-0.5C380.1,270,380.1,271.5,380.6,272.5z"
	/>
<path class="st1" d="M56.4,97c1,1,2.5,1,3.5,0.5c1-1,1-2.5,0.5-3.5c-1-1-2.5-1-3.5-0.5C55.8,94.5,55.8,96,56.4,97z"/>
<path class="st1" d="M76.1,109.1c1,1,2.5,1,3.5,0.5c1-0.5,1-2.5,0.5-3.5c-1-1-2.5-1-3.5-0.5C75.1,106.6,75.1,108.1,76.1,109.1z"/>
<path class="st1" d="M95.3,121.3c1,1,2.5,1,3.5,0.5c1-1,1-2.5,0.5-3.5c-1-1-2.5-1-3.5-0.5C94.8,118.8,94.8,120.3,95.3,121.3z"/>
<path class="st1" d="M115,133.4c1,1,2.5,1,3.5,0.5c1-1,1-2.5,0.5-3.5c-1-1-2.5-1-3.5-0.5C114.5,130.9,114,132.4,115,133.4z"/>
<path class="st1" d="M134.8,145.6c1,1,2.5,1,3.5,0.5c1-1,1-2.5,0.5-3.5c-1-1-2.5-1-3.5-0.5C134.3,142.5,133.7,144.6,134.8,145.6z"/>
<path class="st1" d="M154,157.7c1,1,2.5,1,3.5,0.5c1-1,1-2.5,0.5-3.5c-1-1-2.5-1-3.5-0.5C153.5,154.7,153,156.7,154,157.7z"/>
<path class="st1" d="M173.7,170.4c1,1,2.5,1,3.5,0.5c1-0.5,1-2.5,0.5-3.5c-1-1-2.5-1-3.5-0.5C172.7,167.3,172.7,168.8,173.7,170.4z"
	/>
<path class="st1" d="M192.9,182.5c1,1,2.5,1,3.5,0.5c1-1,1-2.5,0.5-3.5c-1-1-2.5-1-3.5-0.5C192.4,179.5,192.4,181.5,192.9,182.5z"/>
<path class="st1" d="M212.7,194.6c1,1,2.5,1,3.5,0.5c1-1,1-2.5,0.5-3.5c-0.5-1-2.5-1-3.5-0.5C211.7,192.1,211.7,193.6,212.7,194.6z"
	/>
<path class="st1" d="M231.9,206.8c1,1,2.5,1,3.5,0.5c1-1,1-2.5,0.5-3.5c-1-1-2.5-1-3.5-0.5C231.4,204.2,231.4,205.8,231.9,206.8z"/>
<path class="st1" d="M251.6,218.9c1,1,2.5,1,3.5,0.5c1-1,1-2.5,0.5-3.5c-1-1-2.5-1-3.5-0.5C251.1,215.9,250.6,217.9,251.6,218.9z"/>
<path class="st1" d="M271.4,231.1c1,1,2.5,1,3.5,0.5c1-0.5,1-2.5,0.5-3.5c-1-1-2.5-1-3.5-0.5C270.3,228.5,270.3,230,271.4,231.1z"/>
<path class="st1" d="M290.6,243.2c1,1,2.5,1,3.5,0.5c1-0.5,1-2.5,0.5-3.5c-1-1-2.5-1-3.5-0.5C290.1,240.7,289.6,242.2,290.6,243.2z"
	/>
<path class="st1" d="M310.3,255.3c1,1,2.5,1,3.5,0.5c1-1,1-2.5,0.5-3.5c-1-1-2.5-1-3.5-0.5C309.3,252.8,309.3,254.3,310.3,255.3z"/>
<path class="st1" d="M329.5,267.5c1,1,2.5,1,3.5,0.5c1-1,1-2.5,0.5-3.5c-1-1-2.5-1-3.5-0.5C329,265,329,266.5,329.5,267.5z"/>
<path class="st1" d="M349.3,280.1c1,1,2.5,1,3.5,0.5c1-1,1-2.5,0.5-3.5c-1-1-2.5-1-3.5-0.5C348.3,277.1,348.3,278.6,349.3,280.1z"/>
<path class="st1" d="M44.2,116.7c1,1,2.5,1,3.5,0.5c1-1,1-2.5,0.5-3.5c-1-1-2.5-1-3.5-0.5C43.7,113.7,43.2,115.2,44.2,116.7z"/>
<path class="st1" d="M63.9,128.9c1,1,2.5,1,3.5,0.5c1-1,1-2.5,0.5-3.5c-1-1-2.5-1-3.5-0.5C63.4,125.8,62.9,127.9,63.9,128.9z"/>
<path class="st1" d="M83.2,141c1,1,2.5,1,3.5,0.5c1-0.5,1-2.5,0.5-3.5c-1-1-2.5-1-3.5-0.5C82.7,138.5,82.7,140,83.2,141z"/>
<path class="st1" d="M102.9,153.2c1,1,2.5,1,3.5,0.5c1-1,1-2.5,0.5-3.5c-1-1-2.5-1-3.5-0.5C101.9,150.6,101.9,152.1,102.9,153.2z"/>
<path class="st1" d="M122.6,165.3c1,1,2.5,1,3.5,0.5c1-1,1-2.5,0.5-3.5c-1-1-2.5-1-3.5-0.5C121.6,162.8,121.6,164.3,122.6,165.3z"/>
<path class="st1" d="M141.9,177.4c1,1,2.5,1,3.5,0.5c1-1,1-2.5,0.5-3.5c-1-1-2.5-1-3.5-0.5C141.4,174.9,140.8,176.4,141.9,177.4z"/>
<path class="st1" d="M161.6,189.6c1,1,2.5,1,3.5,0.5c1-1,1-2.5,0.5-3.5c-1-1-2.5-1-3.5-0.5C161.1,186.5,160.6,188.6,161.6,189.6z"/>
<path class="st1" d="M180.8,201.7c1,1,2.5,1,3.5,0.5c1-0.5,1-2.5,0.5-3.5c-1-1-2.5-1-3.5-0.5C180.3,199.2,179.8,200.7,180.8,201.7z"
	/>
<path class="st1" d="M200.5,213.9c1,1,2.5,1,3.5,0.5c1-0.5,1-2.5,0.5-3.5c-1-1-2.5-1-3.5-0.5C199.5,211.3,199.5,212.9,200.5,213.9z"
	/>
<path class="st1" d="M219.8,226.5c1,1,2.5,1,3.5,0.5c1-1,1-2.5,0.5-3.5c-1-1-2.5-1-3.5-0.5C219.3,223.5,219.3,225,219.8,226.5z"/>
<path class="st1" d="M239.5,238.7c1,1,2.5,1,3.5,0.5c1-1,1-2.5,0.5-3.5c-1-1-2.5-1-3.5-0.5C238.5,235.6,238.5,237.6,239.5,238.7z"/>
<path class="st1" d="M259.2,250.8c1,1,2.5,1,3.5,0.5c1-1,1-2.5,0.5-3.5c-1-1-2.5-1-3.5-0.5C258.2,248.3,258.2,249.8,259.2,250.8z"/>
<path class="st1" d="M278.5,262.9c1,1,2.5,1,3.5,0.5c1-1,1-2.5,0.5-3.5c-1-1-2.5-1-3.5-0.5C277.9,260.4,277.4,261.9,278.5,262.9z"/>
<path class="st1" d="M298.2,275.1c1,1,2.5,1,3.5,0.5c1-0.5,1-2.5,0.5-3.5c-1-1-2.5-1-3.5-0.5C297.2,272.5,297.2,274.1,298.2,275.1z"
	/>
<path class="st1" d="M317.4,287.2c1,1,2.5,1,3.5,0.5c1-1,1-2.5,0.5-3.5c-1-1-2.5-1-3.5-0.5C316.9,284.7,316.9,286.2,317.4,287.2z"/>
<path class="st1" d="M337.1,299.4c1,1,2.5,1,3.5,0.5c1-1,1-2.5,0.5-3.5c-1-1-2.5-1-3.5-0.5C336.1,296.8,336.1,298.3,337.1,299.4z"/>
<path class="st1" d="M32.1,136c1,1,2.5,1,3.5,0.5c1-1,1-2.5,0.5-3.5c-1-1-2.5-1-3.5-0.5C31.6,133.4,31.1,134.9,32.1,136z"/>
<path class="st1" d="M51.8,148.1c1,1,2.5,1,3.5,0.5c1-1,1-2.5,0.5-3.5c-1-1-2.5-1-3.5-0.5C50.8,145.6,50.8,147.1,51.8,148.1z"/>
<path class="st1" d="M71,160.2c1,1,2.5,1,3.5,0.5c1-1,1-2.5,0.5-3.5c-1-1-2.5-1-3.5-0.5C70.5,157.2,70.5,159.2,71,160.2z"/>
<path class="st1" d="M90.8,172.9c1,1,2.5,1,3.5,0.5c1-1,1-2.5,0.5-3.5c-1-1-2.5-1-3.5-0.5C89.7,169.8,89.7,171.4,90.8,172.9z"/>
<path class="st1" d="M110,185c1,1,2.5,1,3.5,0.5c1-1,1-2.5,0.5-3.5c-1-1-2.5-1-3.5-0.5C109.5,182,109.5,184,110,185z"/>
<path class="st1" d="M129.7,197.2c1,1,2.5,1,3.5,0.5c1-1,1-2.5,0.5-3.5c-1-1-2.5-1-3.5-0.5C129.2,194.6,128.7,196.2,129.7,197.2z"/>
<path class="st1" d="M149.4,209.3c1,1,2.5,1,3.5,0.5c1-1,1-2.5,0.5-3.5c-1-1-2.5-1-3.5-0.5C148.4,206.8,148.4,208.3,149.4,209.3z"/>
<path class="st1" d="M168.7,221.5c1,1,2.5,1,3.5,0.5c1-1,1-2.5,0.5-3.5c-1-1-2.5-1-3.5-0.5C168.1,218.4,167.6,220.4,168.7,221.5z"/>
<path class="st1" d="M188.4,233.6c1,1,2.5,1,3.5,0.5c1-0.5,1-2.5,0.5-3.5c-1-1-2.5-1-3.5-0.5C187.4,231.1,187.4,232.6,188.4,233.6z"
	/>
<path class="st1" d="M207.6,245.7c1,1,2.5,1,3.5,0.5c1-0.5,1-2.5,0.5-3.5c-1-1-2.5-1-3.5-0.5C207.1,243.2,207.1,244.7,207.6,245.7z"
	/>
<path class="st1" d="M227.3,257.9c1,1,2.5,1,3.5,0.5c1-1,1-2.5,0.5-3.5c-1-1-2.5-1-3.5-0.5C226.3,255.3,226.3,256.9,227.3,257.9z"/>
<path class="st1" d="M246.6,270c1,1,2.5,1,3.5,0.5c1-1,1-2.5,0.5-3.5c-1-1-2.5-1-3.5-0.5C246.1,267.5,246.1,269,246.6,270z"/>
<path class="st1" d="M266.3,282.7c1,1,2.5,1,3.5,0.5c1-1,1-2.5,0.5-3.5c-1-1-2.5-1-3.5-0.5C265.8,279.6,265.3,281.1,266.3,282.7z"/>
<path class="st1" d="M286,294.8c1,1,2.5,1,3.5,0.5c1-1,1-2.5,0.5-3.5c-1-1-2.5-1-3.5-0.5C285,291.8,285,293.8,286,294.8z"/>
<path class="st1" d="M0.7,143.5c1,1,2.5,1,3.5,0.5c1-0.5,1-2.5,0.5-3.5c-1-1-2.5-1-3.5-0.5C-0.3,141-0.3,142.5,0.7,143.5z"/>
<path class="st1" d="M19.9,155.7c1,1,2.5,1,3.5,0.5c1-1,1-2.5,0.5-3.5c-1-1-2.5-1-3.5-0.5C19.4,153.2,18.9,154.7,19.9,155.7z"/>
<path class="st1" d="M39.7,167.8c1,1,2.5,1,3.5,0.5c1-1,1-2.5,0.5-3.5c-1-1-2.5-1-3.5-0.5C38.6,165.3,38.6,166.8,39.7,167.8z"/>
<path class="st1" d="M58.9,180c1,1,2.5,1,3.5,0.5c1-1,1-2.5,0.5-3.5c-1-1-2.5-1-3.5-0.5C58.4,177.4,58.4,179,58.9,180z"/>
<path class="st1" d="M78.6,192.1c1,1,2.5,1,3.5,0.5c1-1,1-2.5,0.5-3.5c-1-1-2.5-1-3.5-0.5C77.6,189.6,77.6,191.1,78.6,192.1z"/>
<path class="st1" d="M97.8,204.2c1,1,2.5,1,3.5,0.5c1-0.5,1-2.5,0.5-3.5c-1-1-2.5-1-3.5-0.5C97.3,201.7,97.3,203.2,97.8,204.2z"/>
<path class="st1" d="M78.4,190.3c1,1,2.5,1,3.5,0.5c1-0.5,1-2.5,0.5-3.5c-1-1-2.5-1-3.5-0.5C77.9,187.7,77.9,189.3,78.4,190.3z"/>
<path class="st1" d="M117.6,216.4c1,1,2.5,1,3.5,0.5c1-0.5,1-2.5,0.5-3.5c-1-1-2.5-1-3.5-0.5C117.1,213.9,116.6,215.4,117.6,216.4z"
	/>
<path class="st1" d="M137.3,229c1,1,2.5,1,3.5,0.5c1-1,1-2.5,0.5-3.5c-1-1-2.5-1-3.5-0.5C136.3,226,136.3,227.5,137.3,229z"/>
<path class="st1" d="M156.5,241.2c1,1,2.5,1,3.5,0.5c1-1,1-2.5,0.5-3.5c-1-1-2.5-1-3.5-0.5C156,238.1,155.5,240.2,156.5,241.2z"/>
<path class="st1" d="M176.2,253.3c1,1,2.5,1,3.5,0.5c1-1,1-2.5,0.5-3.5c-1-1-2.5-1-3.5-0.5C175.2,250.8,175.2,252.3,176.2,253.3z"/>
<path class="st1" d="M195.5,265.5c1,1,2.5,1,3.5,0.5c1-1,1-2.5,0.5-3.5c-1-1-2.5-1-3.5-0.5C195,262.9,195,264.5,195.5,265.5z"/>
<path class="st1" d="M215.2,277.6c1,1,2.5,1,3.5,0.5c1-1,1-2.5,0.5-3.5c-1-1-2.5-1-3.5-0.5C214.2,275.1,214.2,276.6,215.2,277.6z"/>
<path class="st1" d="M234.4,289.7c1,1,2.5,1,3.5,0.5c1-1,1-2.5,0.5-3.5c-1-1-2.5-1-3.5-0.5C233.9,287.2,233.9,288.7,234.4,289.7z"/>
<path class="st1" d="M254.2,301.9c1,1,2.5,1,3.5,0.5c1-1,1-2.5,0.5-3.5c-1-1-2.5-1-3.5-0.5C253.7,299.4,253.2,300.9,254.2,301.9z"/>
<path class="st1" d="M27.5,187.6c1,1,2.5,1,3.5,0.5c1-0.5,1-2.5,0.5-3.5c-1-1-2.5-1-3.5-0.5C26.5,184.5,26.5,186.5,27.5,187.6z"/>
<path class="st1" d="M46.7,199.7c1,1,2.5,1,3.5,0.5c1-1,1-2.5,0.5-3.5c-1-1-2.5-1-3.5-0.5C46.2,197.2,45.7,198.7,46.7,199.7z"/>
<path class="st1" d="M66.5,211.8c1,1,2.5,1,3.5,0.5c1-1,1-2.5,0.5-3.5c-1-1-2.5-1-3.5-0.5C65.5,209.3,65.5,210.8,66.5,211.8z"/>
<path class="st1" d="M85.7,224c1,1,2.5,1,3.5,0.5c1-1,1-2.5,0.5-3.5c-1-1-2.5-1-3.5-0.5C85.2,221.5,85.2,223,85.7,224z"/>
<path class="st1" d="M105.4,236.1c1,1,2.5,1,3.5,0.5c1-1,1-2.5,0.5-3.5c-1-1-2.5-1-3.5-0.5C104.4,233.6,104.4,235.1,105.4,236.1z"/>
<path class="st1" d="M125.2,248.3c1,1,2.5,1,3.5,0.5c1-1,1-2.5,0.5-3.5c-1-1-2.5-1-3.5-0.5C124.1,245.7,124.1,247.3,125.2,248.3z"/>
<path class="st1" d="M144.4,260.4c1,1,2.5,1,3.5,0.5c1-1,1-2.5,0.5-3.5c-1-1-2.5-1-3.5-0.5C143.9,257.9,143.4,259.4,144.4,260.4z"/>
<path class="st1" d="M164.1,272.5c1,1,2.5,1,3.5,0.5c1-1,1-2.5,0.5-3.5c-1-1-2.5-1-3.5-0.5C163.1,270,163.1,271.5,164.1,272.5z"/>
<path class="st1" d="M183.3,285.2c1,1,2.5,1,3.5,0.5c1-1,1-2.5,0.5-3.5c-1-1-2.5-1-3.5-0.5C182.8,282.2,182.3,283.7,183.3,285.2z"/>
<path class="st1" d="M73.6,243.7c1,1,2.5,1,3.5,0.5c1-1,1-2.5,0.5-3.5c-1-1-2.5-1-3.5-0.5C73.1,240.7,73.1,242.7,73.6,243.7z"/>
<path class="st1" d="M93.3,255.9c1,1,2.5,1,3.5,0.5c1-1,1-2.5,0.5-3.5c-1-1-2.5-1-3.5-0.5C92.3,253.3,92.3,254.8,93.3,255.9z"/>
<circle class="st2" cx="369" cy="46.7" r="42"/>
</svg>
