<?xml version="1.0" encoding="utf-8"?>
<!-- Generator: Adobe Illustrator 23.1.0, SVG Export Plug-In . SVG Version: 6.00 Build 0)  -->
<svg version="1.1" id="Слой_1" xmlns="http://www.w3.org/2000/svg" xmlns:xlink="http://www.w3.org/1999/xlink" x="0px" y="0px"
	 viewBox="0 0 367.4 301" style="enable-background:new 0 0 367.4 301;" xml:space="preserve">
<style type="text/css">
	.st0{fill:#F39681;}
	.st1{fill:#FFFFFF;}
	.st2{fill:none;stroke:#6332CD;stroke-width:2;}
</style>
<path class="st0" d="M25.8,81c10.7-22.4,29.8-33.7,55.8-35.9c26.9-2.1,55.6,14,90.9,8c20.8-3.5,38.5-26.6,55.1-33.6
	c24.8-10.4,47.2-7.4,65.5,8.8c18.4,16.2,16.6,48.7-6.5,62.4c-17.1,10.3-41.9,9.1-53.9,23.9c-9.3,11.5-5.8,27.2,1.1,38.9
	c6.9,11.7,16.5,22.5,19.2,35.8c4.4,23.1-16.1,48.2-41.5,57c-25.7,8.7-53.9,3.7-76-7.7c-22.5-11.3-28-40.4-50.5-48.9
	C53,177.7,1.8,131.7,25.8,81z"/>
<path class="st1" d="M158.8,103c0.9,0.9,2.1,0.9,3,0.4c0.9-0.9,0.9-2.1,0.4-3c-0.9-0.9-2.1-0.9-3-0.4
	C157.9,100.4,157.9,102.1,158.8,103z"/>
<path class="st1" d="M175.1,113.3c0.9,0.9,2.1,0.9,3,0.4c0.9-0.9,0.9-2.1,0.4-3c-0.9-0.9-2.2-0.9-3-0.4
	C174.7,111.1,174.7,112.4,175.1,113.3z"/>
<path class="st1" d="M191.9,123.6c0.9,0.9,2.2,0.9,3,0.4c0.9-0.9,0.9-2.1,0.4-3c-0.9-0.9-2.1-0.9-3-0.4
	C191,121.4,191,122.7,191.9,123.6z"/>
<path class="st1" d="M324.8,206.6c0.9,0.9,2.1,0.9,3,0.4c0.9-0.9,0.9-2.1,0.4-3c-0.9-0.9-2.2-0.9-3-0.4
	C323.9,204.4,323.9,205.7,324.8,206.6z"/>
<path class="st1" d="M341.1,216.9c0.9,0.9,2.1,0.9,3,0.4c0.9-0.9,0.9-2.1,0.4-3c-0.9-0.9-2.1-0.9-3-0.4
	C340.7,214.3,340.2,216,341.1,216.9z"/>
<path class="st1" d="M357.9,227.2c0.9,0.9,2.1,0.9,3,0.4c0.9-0.9,0.9-2.1,0.4-3c-0.9-0.9-2.2-0.9-3-0.4
	C357.5,224.6,357,226.4,357.9,227.2z"/>
<path class="st1" d="M115.4,98.7c0.9,0.9,2.1,0.9,3,0.4c0.9-0.9,0.9-2.1,0.4-3c-0.9-0.9-2.2-0.9-3-0.4
	C114.5,96.5,114.5,97.8,115.4,98.7z"/>
<path class="st1" d="M131.7,109c0.9,0.9,2.2,0.9,3,0.4c0.9-0.9,0.9-2.1,0.4-3c-0.9-0.9-2.1-0.9-3-0.4
	C131.3,106.8,130.9,108.1,131.7,109z"/>
<path class="st1" d="M148.5,119.3c0.9,0.9,2.1,0.9,3,0.4c0.9-0.9,0.9-2.1,0.4-3c-0.9-0.9-2.2-0.9-3-0.4
	C147.6,117.1,147.6,118.4,148.5,119.3z"/>
<path class="st1" d="M164.8,129.6c0.9,0.9,2.1,0.9,3,0.4c0.9-0.9,0.9-2.2,0.4-3c-0.9-0.9-2.1-0.9-3-0.4
	C164.4,127.5,164.4,128.8,164.8,129.6z"/>
<path class="st1" d="M181.6,139.9c0.9,0.9,2.1,0.9,3,0.4c0.9-0.9,0.9-2.1,0.4-3c-0.9-0.9-2.2-0.9-3-0.4
	C180.7,137.8,180.7,139.1,181.6,139.9z"/>
<path class="st1" d="M197.9,150.7c0.9,0.9,2.1,0.9,3,0.4c0.9-0.9,0.9-2.1,0.4-3c-0.9-0.9-2.2-0.9-3-0.4
	C197.5,148.1,197.5,149.8,197.9,150.7z"/>
<path class="st1" d="M214.7,161c0.9,0.9,2.1,0.9,3,0.4c0.9-0.9,0.9-2.1,0.4-3c-0.9-0.9-2.2-0.9-3-0.4
	C214.3,158.9,213.8,160.1,214.7,161z"/>
<path class="st1" d="M231.5,171.3c0.9,0.9,2.1,0.9,3,0.4c0.9-0.9,0.9-2.1,0.4-3c-0.9-0.9-2.2-0.9-3-0.4
	C230.6,169.2,230.6,170.5,231.5,171.3z"/>
<path class="st1" d="M247.8,181.6c0.9,0.9,2.2,0.9,3,0.4c0.9-0.9,0.9-2.1,0.4-3c-0.9-0.9-2.1-0.9-3-0.4
	C247.4,179.5,246.9,180.8,247.8,181.6z"/>
<path class="st1" d="M264.6,192c0.9,0.9,2.2,0.9,3,0.4c0.9-0.9,0.9-2.1,0.4-3c-0.9-0.9-2.1-0.9-3-0.4
	C264.1,189.4,263.7,191.1,264.6,192z"/>
<path class="st1" d="M280.9,202.3c0.9,0.9,2.1,0.9,3,0.4c0.9-0.9,0.9-2.2,0.4-3c-0.9-0.9-2.1-0.9-3-0.4
	C280.5,199.7,280.5,201.4,280.9,202.3z"/>
<path class="st1" d="M297.7,212.6c0.9,0.9,2.1,0.9,3,0.4c0.9-0.4,0.9-2.1,0.4-3c-0.9-0.9-2.2-0.9-3-0.4
	C296.8,210.5,296.8,211.7,297.7,212.6z"/>
<path class="st1" d="M314,222.9c0.9,0.9,2.1,0.9,3,0.4c0.9-0.9,0.9-2.2,0.4-3c-0.9-0.9-2.1-0.9-3-0.4
	C313.6,220.8,313.6,222.1,314,222.9z"/>
<path class="st1" d="M330.8,233.2c0.9,0.9,2.1,0.9,3,0.4c0.9-0.9,0.9-2.2,0.4-3c-0.9-0.9-2.1-0.9-3-0.4
	C330.4,231.1,329.9,232.4,330.8,233.2z"/>
<path class="st1" d="M347.6,244c0.9,0.9,2.1,0.9,3,0.4c0.9-0.9,0.9-2.2,0.4-3c-0.9-0.9-2.2-0.9-3-0.4
	C347.1,241.4,346.7,243.1,347.6,244z"/>
<path class="st1" d="M363.9,254.3c0.9,0.9,2.1,0.9,3,0.4c0.9-0.9,0.9-2.2,0.4-3c-0.9-0.9-2.1-0.9-3-0.4
	C363.5,251.7,363,253.5,363.9,254.3z"/>
<path class="st1" d="M88.3,105.1c0.9,0.9,2.2,0.9,3,0.4c0.9-0.9,0.9-2.1,0.4-3c-0.9-0.9-2.2-0.9-3-0.4
	C87.4,102.5,87.4,104.2,88.3,105.1z"/>
<path class="st1" d="M105.1,115.4c0.9,0.9,2.2,0.9,3,0.4c0.9-0.9,0.9-2.2,0.4-3c-0.9-0.9-2.2-0.9-3-0.4
	C104.2,113.3,104.2,114.6,105.1,115.4z"/>
<path class="st1" d="M121.4,125.7c0.9,0.9,2.1,0.9,3,0.4c0.9-0.9,0.9-2.2,0.4-3c-0.9-0.9-2.1-0.9-3-0.4
	C121,123.6,120.5,124.9,121.4,125.7z"/>
<path class="st1" d="M138.2,136.1c0.9,0.9,2.1,0.9,3,0.4c0.9-0.9,0.9-2.2,0.4-3c-0.9-0.9-2.2-0.9-3-0.4
	C137.3,133.9,137.3,135.2,138.2,136.1z"/>
<path class="st1" d="M154.5,146.4c0.9,0.9,2.2,0.9,3,0.4c0.9-0.9,0.9-2.2,0.4-3c-0.9-0.9-2.1-0.9-3-0.4
	C154.1,144.2,153.6,145.5,154.5,146.4z"/>
<path class="st1" d="M171.3,156.7c0.9,0.9,2.1,0.9,3,0.4c0.9-0.9,0.9-2.2,0.4-3c-0.9-0.9-2.2-0.9-3-0.4
	C170.4,154.6,170.4,155.8,171.3,156.7z"/>
<path class="st1" d="M187.6,167c0.9,0.9,2.1,0.9,3,0.4c0.9-0.9,0.9-2.1,0.4-3c-0.9-0.9-2.1-0.9-3-0.4
	C187.2,164.4,187.2,166.2,187.6,167z"/>
<path class="st1" d="M204.4,177.3c0.9,0.9,2.1,0.9,3,0.4c0.9-0.9,0.9-2.1,0.4-3c-0.9-0.9-2.1-0.9-3-0.4
	C203.5,175.2,203.5,176.5,204.4,177.3z"/>
<path class="st1" d="M221.2,187.7c0.9,0.9,2.1,0.9,3,0.4c0.9-0.4,0.9-2.2,0.4-3c-0.9-0.9-2.1-0.9-3-0.4
	C220.3,185.5,220.3,186.8,221.2,187.7z"/>
<path class="st1" d="M237.5,198.4c0.9,0.9,2.1,0.9,3,0.4c0.9-0.9,0.9-2.1,0.4-3c-0.9-0.9-2.2-0.9-3-0.4S236.6,197.6,237.5,198.4z"/>
<path class="st1" d="M254.3,208.7c0.9,0.9,2.2,0.9,3,0.4c0.9-0.9,0.9-2.1,0.4-3c-0.9-0.9-2.1-0.9-3-0.4
	C253.4,206.6,253.4,207.9,254.3,208.7z"/>
<path class="st1" d="M270.6,219.1c0.9,0.9,2.1,0.9,3,0.4c0.9-0.9,0.9-2.1,0.4-3c-0.9-0.9-2.2-0.9-3-0.4
	C270.2,216.5,270.2,218.2,270.6,219.1z"/>
<path class="st1" d="M287.4,229.4c0.9,0.9,2.1,0.9,3,0.4c0.9-0.9,0.9-2.1,0.4-3c-0.9-0.9-2.1-0.9-3-0.4
	C286.9,226.8,286.5,228.5,287.4,229.4z"/>
<path class="st1" d="M303.7,239.7c0.9,0.9,2.1,0.9,3,0.4c0.9-0.9,0.9-2.1,0.4-3c-0.9-0.9-2.1-0.9-3-0.4
	C303.3,237.5,303.3,238.8,303.7,239.7z"/>
<path class="st1" d="M320.5,250c0.9,0.9,2.1,0.9,3,0.4c0.9-0.9,0.9-2.1,0.4-3c-0.9-0.9-2.1-0.9-3-0.4
	C319.6,247.9,319.6,249.2,320.5,250z"/>
<path class="st1" d="M337.2,260.3c0.9,0.9,2.1,0.9,3,0.4c0.9-0.9,0.9-2.1,0.4-3c-0.9-0.9-2.1-0.9-3-0.4
	C336.4,258.2,336.4,259.5,337.2,260.3z"/>
<path class="st1" d="M353.6,270.7c0.9,0.9,2.1,0.9,3,0.4c0.9-0.9,0.9-2.1,0.4-3c-0.9-0.9-2.1-0.9-3-0.4
	C353.2,268.5,352.7,269.8,353.6,270.7z"/>
<path class="st1" d="M78,121.4c0.9,0.9,2.2,0.9,3,0.4c0.9-0.9,0.9-2.1,0.4-3c-0.9-0.9-2.2-0.9-3-0.4C77.1,119.3,77.1,120.6,78,121.4
	z"/>
<path class="st1" d="M94.3,131.8c0.9,0.9,2.2,0.9,3,0.4c0.9-0.9,0.9-2.2,0.4-3c-0.9-0.9-2.2-0.9-3-0.4
	C93.9,129.6,93.9,130.9,94.3,131.8z"/>
<path class="st1" d="M111.1,142.5c0.9,0.9,2.2,0.9,3,0.4c0.9-0.9,0.9-2.1,0.4-3c-0.9-0.9-2.2-0.9-3-0.4
	C110.6,139.9,110.2,141.2,111.1,142.5z"/>
<path class="st1" d="M127.9,152.8c0.9,0.9,2.2,0.9,3,0.4c0.9-0.9,0.9-2.1,0.4-3c-0.9-0.9-2.1-0.9-3-0.4
	C127,150.3,127,152,127.9,152.8z"/>
<path class="st1" d="M144.2,163.2c0.9,0.9,2.1,0.9,3,0.4c0.9-0.9,0.9-2.1,0.4-3c-0.9-0.9-2.2-0.9-3-0.4
	C143.7,161,143.3,162.3,144.2,163.2z"/>
<path class="st1" d="M161,173.5c0.9,0.9,2.1,0.9,3,0.4c0.9-0.9,0.9-2.2,0.4-3c-0.9-0.9-2.1-0.9-3-0.4
	C160.1,171.3,160.1,172.6,161,173.5z"/>
<path class="st1" d="M177.3,183.8c0.9,0.9,2.1,0.9,3,0.4c0.9-0.9,0.9-2.1,0.4-3c-0.9-0.9-2.2-0.9-3-0.4
	C176.9,181.6,176.9,182.9,177.3,183.8z"/>
<path class="st1" d="M194.1,194.1c0.9,0.9,2.2,0.9,3,0.4c0.9-0.9,0.9-2.1,0.4-3c-0.9-0.9-2.1-0.9-3-0.4
	C193.6,191.5,193.2,193.3,194.1,194.1z"/>
<path class="st1" d="M210.4,204.4c0.9,0.9,2.1,0.9,3,0.4c0.9-0.9,0.9-2.1,0.4-3c-0.9-0.9-2.1-0.9-3-0.4
	C210,201.9,210,203.6,210.4,204.4z"/>
<path class="st1" d="M227.2,214.8c0.9,0.9,2.1,0.9,3,0.4s0.9-2.1,0.4-3c-0.9-0.9-2.1-0.9-3-0.4C226.7,212.6,226.3,213.9,227.2,214.8
	z"/>
<path class="st1" d="M243.9,225.1c0.9,0.9,2.2,0.9,3,0.4c0.9-0.9,0.9-2.2,0.4-3c-0.9-0.9-2.1-0.9-3-0.4
	C243.1,222.9,243.1,224.2,243.9,225.1z"/>
<path class="st1" d="M260.3,235.8c0.9,0.9,2.2,0.9,3,0.4c0.9-0.9,0.9-2.1,0.4-3c-0.9-0.9-2.1-0.9-3-0.4
	C259.8,233.2,259.4,234.5,260.3,235.8z"/>
<path class="st1" d="M277.1,246.1c0.9,0.9,2.2,0.9,3,0.4c0.9-0.9,0.9-2.1,0.4-3c-0.9-0.9-2.1-0.9-3-0.4
	C276.2,243.6,276.2,245.3,277.1,246.1z"/>
<path class="st1" d="M293.4,256.5c0.9,0.9,2.1,0.9,3,0.4c0.9-0.9,0.9-2.2,0.4-3c-0.9-0.9-2.2-0.9-3-0.4
	C293,253.9,293,255.6,293.4,256.5z"/>
<path class="st1" d="M310.2,266.8c0.9,0.9,2.1,0.9,3,0.4c0.9-0.4,0.9-2.2,0.4-3c-0.9-0.9-2.1-0.9-3-0.4
	C309.3,264.6,309.3,265.9,310.2,266.8z"/>
<path class="st1" d="M326.5,277.1c0.9,0.9,2.2,0.9,3,0.4c0.9-0.4,0.9-2.1,0.4-3c-0.4-0.9-2.1-0.9-3-0.4
	C326.1,275,326.1,276.2,326.5,277.1z"/>
<path class="st1" d="M50.9,127.9c0.9,0.9,2.2,0.9,3,0.4c0.9-0.9,0.9-2.2,0.4-3c-0.9-0.9-2.1-0.9-3-0.4
	C50.4,125.7,50.4,127,50.9,127.9z"/>
<path class="st1" d="M67.7,138.2c0.9,0.9,2.2,0.9,3,0.4c0.9-0.4,0.9-2.2,0.4-3c-0.9-0.9-2.2-0.9-3-0.4
	C66.8,136.1,66.8,137.4,67.7,138.2z"/>
<path class="st1" d="M84,148.5c0.9,0.9,2.2,0.9,3,0.4c0.9-0.9,0.9-2.2,0.4-3c-0.9-0.9-2.1-0.9-3-0.4C83.5,146.4,83.5,147.7,84,148.5
	z"/>
<path class="st1" d="M100.8,158.9c0.9,0.9,2.2,0.9,3,0.4c0.9-0.9,0.9-2.1,0.4-3c-0.9-0.9-2.2-0.9-3-0.4
	C100.3,156.7,99.9,158,100.8,158.9z"/>
<path class="st1" d="M117.5,169.2c0.9,0.9,2.2,0.9,3,0.4c0.9-0.9,0.9-2.2,0.4-3c-0.9-0.9-2.1-0.9-3-0.4
	C117.1,166.6,116.7,168.3,117.5,169.2z"/>
<path class="st1" d="M133.9,179.5c0.9,0.9,2.1,0.9,3,0.4c0.9-0.9,0.9-2.2,0.4-3c-0.9-0.9-2.2-0.9-3-0.4
	C133.4,176.9,133,178.6,133.9,179.5z"/>
<path class="st1" d="M150.6,190.2c0.9,0.9,2.1,0.9,3,0.4s0.9-2.1,0.4-3c-0.9-0.9-2.1-0.9-3-0.4C149.8,187.7,149.8,189,150.6,190.2z"
	/>
<path class="st1" d="M167,200.6c0.9,0.9,2.1,0.9,3,0.4c0.9-0.9,0.9-2.1,0.4-3c-0.9-0.9-2.2-0.9-3-0.4
	C166.5,198,166.5,199.7,167,200.6z"/>
<path class="st1" d="M183.7,210.9c0.9,0.9,2.1,0.9,3,0.4c0.9-0.9,0.9-2.1,0.4-3c-0.4-0.9-2.1-0.9-3-0.4
	C182.9,208.7,182.9,210,183.7,210.9z"/>
<path class="st1" d="M200.1,221.2c0.9,0.9,2.2,0.9,3,0.4c0.9-0.9,0.9-2.1,0.4-3c-0.9-0.9-2.1-0.9-3-0.4
	C199.6,219.1,199.6,220.3,200.1,221.2z"/>
<path class="st1" d="M216.9,231.5c0.9,0.9,2.2,0.9,3,0.4c0.9-0.9,0.9-2.1,0.4-3c-0.9-0.9-2.1-0.9-3-0.4
	C216.4,228.9,216,230.7,216.9,231.5z"/>
<path class="st1" d="M233.6,241.8c0.9,0.9,2.2,0.9,3,0.4s0.9-2.1,0.4-3c-0.9-0.9-2.1-0.9-3-0.4C232.8,239.7,232.8,241,233.6,241.8z"
	/>
<path class="st1" d="M250,252.2c0.9,0.9,2.1,0.9,3,0.4c0.9-0.4,0.9-2.1,0.4-3c-0.9-0.9-2.1-0.9-3-0.4
	C249.5,250,249.1,251.3,250,252.2z"/>
<path class="st1" d="M266.7,262.5c0.9,0.9,2.1,0.9,3,0.4c0.9-0.9,0.9-2.1,0.4-3c-0.9-0.9-2.1-0.9-3-0.4
	C265.9,260.3,265.9,261.6,266.7,262.5z"/>
<path class="st1" d="M283.1,272.8c0.9,0.9,2.2,0.9,3,0.4c0.9-0.9,0.9-2.1,0.4-3c-0.9-0.9-2.1-0.9-3-0.4
	C282.6,270.6,282.6,271.9,283.1,272.8z"/>
<path class="st1" d="M299.8,283.6c0.9,0.9,2.1,0.9,3,0.4c0.9-0.9,0.9-2.1,0.4-3c-0.9-0.9-2.1-0.9-3-0.4
	C299,281,299,282.3,299.8,283.6z"/>
<path class="st1" d="M40.6,144.7c0.9,0.9,2.1,0.9,3,0.4c0.9-0.9,0.9-2.1,0.4-3c-0.9-0.9-2.1-0.9-3-0.4
	C40.1,142.1,39.7,143.4,40.6,144.7z"/>
<path class="st1" d="M57.3,155c0.9,0.9,2.2,0.9,3,0.4c0.9-0.9,0.9-2.1,0.4-3c-0.9-0.9-2.1-0.9-3-0.4C56.9,152.4,56.5,154.1,57.3,155
	z"/>
<path class="st1" d="M73.7,165.3c0.9,0.9,2.2,0.9,3,0.4c0.9-0.4,0.9-2.1,0.4-3c-0.9-0.9-2.1-0.9-3-0.4
	C73.2,163.2,73.2,164.4,73.7,165.3z"/>
<path class="st1" d="M90.4,175.6c0.9,0.9,2.2,0.9,3,0.4c0.9-0.9,0.9-2.1,0.4-3c-0.9-0.9-2.2-0.9-3-0.4
	C89.6,173.5,89.6,174.8,90.4,175.6z"/>
<path class="st1" d="M107.2,185.9c0.9,0.9,2.2,0.9,3,0.4c0.9-0.9,0.9-2.1,0.4-3c-0.9-0.9-2.2-0.9-3-0.4
	C106.3,183.8,106.3,185.1,107.2,185.9z"/>
<path class="st1" d="M123.6,196.3c0.9,0.9,2.1,0.9,3,0.4c0.9-0.9,0.9-2.2,0.4-3c-0.9-0.9-2.2-0.9-3-0.4
	C123.1,194.1,122.7,195.4,123.6,196.3z"/>
<path class="st1" d="M140.3,206.6c0.9,0.9,2.2,0.9,3,0.4c0.9-0.9,0.9-2.1,0.4-3c-0.9-0.9-2.1-0.9-3-0.4
	C139.9,204,139.5,205.7,140.3,206.6z"/>
<path class="st1" d="M156.7,216.9c0.9,0.9,2.2,0.9,3,0.4s0.9-2.1,0.4-3c-0.9-0.9-2.1-0.9-3-0.4C156.2,214.8,155.8,216,156.7,216.9z"
	/>
<path class="st1" d="M173.4,227.2c0.9,0.9,2.1,0.9,3,0.4c0.9-0.4,0.9-2.1,0.4-3c-0.9-0.9-2.1-0.9-3-0.4
	C172.6,225.1,172.6,226.4,173.4,227.2z"/>
<path class="st1" d="M189.8,238c0.9,0.9,2.1,0.9,3,0.4c0.9-0.9,0.9-2.1,0.4-3c-0.9-0.9-2.1-0.9-3-0.4
	C189.3,235.4,189.3,236.7,189.8,238z"/>
<path class="st1" d="M206.5,248.3c0.9,0.9,2.1,0.9,3,0.4c0.9-0.9,0.9-2.1,0.4-3c-0.9-0.9-2.1-0.9-3-0.4
	C205.7,245.7,205.7,247.4,206.5,248.3z"/>
<path class="st1" d="M223.3,258.6c0.9,0.9,2.1,0.9,3,0.4c0.9-0.9,0.9-2.1,0.4-3c-0.9-0.9-2.1-0.9-3-0.4
	C222.4,256.5,222.4,257.7,223.3,258.6z"/>
<path class="st1" d="M239.6,268.9c0.9,0.9,2.2,0.9,3,0.4c0.9-0.9,0.9-2.1,0.4-3c-0.9-0.9-2.1-0.9-3-0.4
	C239.2,266.8,238.8,268.1,239.6,268.9z"/>
<path class="st1" d="M256.4,279.2c0.9,0.9,2.1,0.9,3,0.4c0.9-0.4,0.9-2.1,0.4-3c-0.9-0.9-2.1-0.9-3-0.4
	C255.5,277.1,255.5,278.4,256.4,279.2z"/>
<path class="st1" d="M272.8,289.6c0.9,0.9,2.2,0.9,3,0.4c0.9-0.9,0.9-2.1,0.4-3c-0.9-0.9-2.1-0.9-3-0.4
	C272.3,287.4,272.3,288.7,272.8,289.6z"/>
<path class="st1" d="M289.5,299.9c0.9,0.9,2.1,0.9,3,0.4c0.9-0.9,0.9-2.1,0.4-3c-0.9-0.9-2.2-0.9-3-0.4
	C288.7,297.7,288.7,299,289.5,299.9z"/>
<path class="st1" d="M30.2,161c0.9,0.9,2.1,0.9,3,0.4c0.9-0.9,0.9-2.1,0.4-3c-0.9-0.9-2.1-0.9-3-0.4C29.8,158.9,29.4,160.1,30.2,161
	z"/>
<path class="st1" d="M47,171.3c0.9,0.9,2.1,0.9,3,0.4c0.9-0.9,0.9-2.1,0.4-3c-0.9-0.9-2.1-0.9-3-0.4C46.2,169.2,46.2,170.5,47,171.3
	z"/>
<path class="st1" d="M63.4,181.6c0.9,0.9,2.1,0.9,3,0.4c0.9-0.9,0.9-2.1,0.4-3c-0.9-0.9-2.2-0.9-3-0.4
	C62.9,179.1,62.9,180.8,63.4,181.6z"/>
<path class="st1" d="M80.1,192.4c0.9,0.9,2.2,0.9,3,0.4c0.9-0.9,0.9-2.1,0.4-3c-0.9-0.9-2.1-0.9-3-0.4
	C79.3,189.8,79.3,191.1,80.1,192.4z"/>
<path class="st1" d="M96.5,202.7c0.9,0.9,2.2,0.9,3,0.4c0.9-0.9,0.9-2.2,0.4-3c-0.9-0.9-2.2-0.9-3-0.4C96,200.1,96,201.9,96.5,202.7
	z"/>
<path class="st1" d="M113.2,213c0.9,0.9,2.2,0.9,3,0.4c0.9-0.9,0.9-2.1,0.4-3c-0.9-0.9-2.1-0.9-3-0.4
	C112.8,210.9,112.4,212.2,113.2,213z"/>
<path class="st1" d="M130,223.4c0.9,0.9,2.1,0.9,3,0.4c0.9-0.9,0.9-2.1,0.4-3c-0.9-0.9-2.1-0.9-3-0.4
	C129.1,221.2,129.1,222.5,130,223.4z"/>
<path class="st1" d="M146.3,233.7c0.9,0.9,2.2,0.9,3,0.4c0.9-0.9,0.9-2.2,0.4-3c-0.9-0.9-2.1-0.9-3-0.4
	C145.9,231.1,145.5,232.8,146.3,233.7z"/>
<path class="st1" d="M163.1,244c0.9,0.9,2.2,0.9,3,0.4c0.9-0.4,0.9-2.2,0.4-3c-0.9-0.9-2.1-0.9-3-0.4
	C162.2,241.8,162.2,243.1,163.1,244z"/>
<path class="st1" d="M179.4,254.3c0.9,0.9,2.2,0.9,3,0.4c0.9-0.4,0.9-2.2,0.4-3c-0.9-0.9-2.1-0.9-3-0.4
	C179,252.2,179,253.5,179.4,254.3z"/>
<path class="st1" d="M196.2,264.6c0.9,0.9,2.1,0.9,3,0.4c0.9-0.9,0.9-2.1,0.4-3c-0.9-0.9-2.1-0.9-3-0.4
	C195.3,262.5,195.3,263.8,196.2,264.6z"/>
<path class="st1" d="M212.6,275c0.9,0.9,2.1,0.9,3,0.4c0.9-0.9,0.9-2.1,0.4-3c-0.9-0.9-2.1-0.9-3-0.4
	C212.1,272.8,212.1,274.1,212.6,275z"/>
<path class="st1" d="M229.3,285.7c0.9,0.9,2.1,0.9,3,0.4c0.9-0.9,0.9-2.2,0.4-3c-0.9-0.9-2.1-0.9-3-0.4
	C228.9,283.1,228.5,284.4,229.3,285.7z"/>
<path class="st1" d="M246.1,296c0.9,0.9,2.1,0.9,3,0.4c0.9-0.9,0.9-2.2,0.4-3c-0.9-0.9-2.1-0.9-3-0.4
	C245.2,293.4,245.2,295.2,246.1,296z"/>
<path class="st1" d="M3.6,167.5c0.9,0.9,2.1,0.9,3,0.4c0.9-0.4,0.9-2.2,0.4-3c-0.9-0.9-2.1-0.9-3-0.4C2.7,165.3,2.7,166.6,3.6,167.5
	z"/>
<path class="st1" d="M19.9,177.8c0.9,0.9,2.1,0.9,3,0.4c0.9-0.9,0.9-2.2,0.4-3c-0.9-0.9-2.2-0.9-3-0.4
	C19.5,175.6,19.1,176.9,19.9,177.8z"/>
<path class="st1" d="M36.7,188.1c0.9,0.9,2.1,0.9,3,0.4c0.9-0.9,0.9-2.1,0.4-3c-0.9-0.9-2.1-0.9-3-0.4
	C35.8,185.9,35.8,187.2,36.7,188.1z"/>
<path class="st1" d="M53,198.4c0.9,0.9,2.1,0.9,3,0.4c0.9-0.9,0.9-2.1,0.4-3c-0.9-0.9-2.1-0.9-3-0.4C52.6,196.3,52.6,197.6,53,198.4
	z"/>
<path class="st1" d="M69.8,208.7c0.9,0.9,2.2,0.9,3,0.4c0.9-0.9,0.9-2.1,0.4-3c-0.9-0.9-2.1-0.9-3-0.4
	C68.9,206.6,68.9,207.9,69.8,208.7z"/>
<path class="st1" d="M86.1,219.1c0.9,0.9,2.1,0.9,3,0.4c0.9-0.4,0.9-2.1,0.4-3c-0.9-0.9-2.2-0.9-3-0.4
	C85.7,216.9,85.7,218.2,86.1,219.1z"/>
<path class="st1" d="M69.6,207.2c0.9,0.9,2.1,0.9,3,0.4c0.9-0.4,0.9-2.1,0.4-3c-0.9-0.9-2.1-0.9-3-0.4
	C69.2,205,69.2,206.3,69.6,207.2z"/>
<path class="st1" d="M102.9,229.4c0.9,0.9,2.1,0.9,3,0.4s0.9-2.1,0.4-3c-0.9-0.9-2.2-0.9-3-0.4C102.5,227.2,102,228.5,102.9,229.4z"
	/>
<path class="st1" d="M119.7,240.1c0.9,0.9,2.1,0.9,3,0.4c0.9-0.9,0.9-2.1,0.4-3c-0.9-0.9-2.1-0.9-3-0.4
	C118.8,237.5,118.8,238.8,119.7,240.1z"/>
<path class="st1" d="M136,250.4c0.9,0.9,2.1,0.9,3,0.4c0.9-0.9,0.9-2.1,0.4-3c-0.9-0.9-2.1-0.9-3-0.4
	C135.6,247.9,135.2,249.6,136,250.4z"/>
<path class="st1" d="M152.8,260.8c0.9,0.9,2.1,0.9,3,0.4c0.9-0.9,0.9-2.1,0.4-3c-0.9-0.9-2.1-0.9-3-0.4
	C151.9,258.6,151.9,259.9,152.8,260.8z"/>
<path class="st1" d="M169.1,271.1c0.9,0.9,2.1,0.9,3,0.4c0.9-0.9,0.9-2.1,0.4-3c-0.9-0.9-2.2-0.9-3-0.4
	C168.7,268.9,168.7,270.2,169.1,271.1z"/>
<path class="st1" d="M185.9,281.4c0.9,0.9,2.2,0.9,3,0.4c0.9-0.9,0.9-2.1,0.4-3c-0.9-0.9-2.1-0.9-3-0.4
	C185,279.2,185,280.5,185.9,281.4z"/>
<path class="st1" d="M202.2,291.7c0.9,0.9,2.1,0.9,3,0.4c0.9-0.9,0.9-2.2,0.4-3c-0.9-0.9-2.1-0.9-3-0.4
	C201.8,289.6,201.8,290.9,202.2,291.7z"/>
<path class="st1" d="M219,302c0.9,0.9,2.1,0.9,3,0.4c0.9-0.9,0.9-2.1,0.4-3c-0.9-0.9-2.1-0.9-3-0.4C218.6,299.9,218.1,301.2,219,302
	z"/>
<path class="st1" d="M26.4,204.9c0.9,0.9,2.1,0.9,3,0.4c0.9-0.4,0.9-2.1,0.4-3c-0.9-0.9-2.1-0.9-3-0.4
	C25.5,202.3,25.5,204,26.4,204.9z"/>
<path class="st1" d="M42.7,215.2c0.9,0.9,2.1,0.9,3,0.4c0.9-0.9,0.9-2.1,0.4-3c-0.9-0.9-2.1-0.9-3-0.4
	C42.3,213,41.9,214.3,42.7,215.2z"/>
<path class="st1" d="M59.5,225.5c0.9,0.9,2.2,0.9,3,0.4c0.9-0.9,0.9-2.1,0.4-3c-0.9-0.9-2.1-0.9-3-0.4
	C58.6,223.4,58.6,224.6,59.5,225.5z"/>
<path class="st1" d="M75.8,235.8c0.9,0.9,2.1,0.9,3,0.4c0.9-0.9,0.9-2.1,0.4-3c-0.9-0.9-2.2-0.9-3-0.4
	C75.4,233.7,75.4,235,75.8,235.8z"/>
<path class="st1" d="M92.6,246.1c0.9,0.9,2.2,0.9,3,0.4c0.9-0.9,0.9-2.1,0.4-3c-0.9-0.9-2.2-0.9-3-0.4
	C91.7,244,91.7,245.3,92.6,246.1z"/>
<path class="st1" d="M109.4,256.5c0.9,0.9,2.2,0.9,3,0.4c0.9-0.9,0.9-2.2,0.4-3c-0.9-0.9-2.2-0.9-3-0.4
	C108.5,254.3,108.5,255.6,109.4,256.5z"/>
<path class="st1" d="M125.7,266.8c0.9,0.9,2.2,0.9,3,0.4c0.9-0.9,0.9-2.2,0.4-3c-0.9-0.9-2.1-0.9-3-0.4
	C125.3,264.6,124.8,265.9,125.7,266.8z"/>
<path class="st1" d="M142.5,277.1c0.9,0.9,2.2,0.9,3,0.4c0.9-0.9,0.9-2.1,0.4-3c-0.9-0.9-2.1-0.9-3-0.4
	C141.6,275,141.6,276.2,142.5,277.1z"/>
<path class="st1" d="M158.8,287.9c0.9,0.9,2.1,0.9,3,0.4c0.9-0.9,0.9-2.1,0.4-3c-0.9-0.9-2.1-0.9-3-0.4
	C158.4,285.3,157.9,286.6,158.8,287.9z"/>
<path class="st1" d="M65.5,252.6c0.9,0.9,2.2,0.9,3,0.4c0.9-0.9,0.9-2.1,0.4-3c-0.9-0.9-2.1-0.9-3-0.4
	C65.1,250,65.1,251.7,65.5,252.6z"/>
<path class="st1" d="M82.3,262.9c0.9,0.9,2.2,0.9,3,0.4c0.9-0.9,0.9-2.2,0.4-3c-0.9-0.9-2.2-0.9-3-0.4
	C81.4,260.8,81.4,262,82.3,262.9z"/>
<path class="st2" d="M160.4,55.8c0,30.4-24.4,55-54.6,55c-30.1,0-54.6-24.6-54.6-55c0-30.4,24.4-55,54.6-55
	C136,0.8,160.4,25.4,160.4,55.8z"/>
</svg>
