<?xml version="1.0" encoding="utf-8"?>
<!-- Generator: Adobe Illustrator 23.1.0, SVG Export Plug-In . SVG Version: 6.00 Build 0)  -->
<svg version="1.1" id="Слой_1" xmlns="http://www.w3.org/2000/svg" xmlns:xlink="http://www.w3.org/1999/xlink" x="0px" y="0px"
	 viewBox="0 0 530.3 435.2" style="enable-background:new 0 0 530.3 435.2;" xml:space="preserve">
<style type="text/css">
	.st0{fill:#F39681;}
	.st1{fill:#FFFFFF;}
	.st2{fill:none;stroke:#6332CD;stroke-width:2;}
</style>
<path class="st0" d="M33.3,112.7c15.5-32.6,43.4-49,81.1-52.2c39.1-3,80.8,20.3,132.2,11.7c30.2-5.1,56-38.7,80.1-48.9
	c36.1-15,68.6-10.7,95.3,12.9c26.7,23.6,24.1,70.9-9.4,90.8c-24.9,15-60.9,13.3-78.4,34.7c-13.6,16.8-8.4,39.6,1.7,56.6
	c10.1,17.1,24,32.6,27.9,52.1c6.4,33.6-23.4,70.1-60.4,82.9C266,365.9,225,358.7,192.9,342c-32.7-16.5-40.8-58.8-73.4-71.1
	C72.8,253.3-1.6,186.5,33.3,112.7z"/>
<path class="st1" d="M226.7,144.7c1.3,1.3,3.1,1.3,4.4,0.6c1.3-1.3,1.3-3.1,0.6-4.4c-1.3-1.3-3.1-1.3-4.4-0.6
	C225.4,140.9,225.4,143.4,226.7,144.7z"/>
<path class="st1" d="M250.4,159.7c1.3,1.3,3.1,1.3,4.4,0.6c1.3-1.3,1.3-3.1,0.6-4.4c-1.3-1.3-3.1-1.3-4.4-0.6
	C249.8,156.5,249.8,158.4,250.4,159.7z"/>
<path class="st1" d="M274.8,174.7c1.3,1.3,3.1,1.3,4.4,0.6c1.3-1.3,1.3-3.1,0.6-4.4c-1.3-1.3-3.1-1.3-4.4-0.6
	C273.6,171.6,273.6,173.4,274.8,174.7z"/>
<path class="st1" d="M468,295.4c1.3,1.3,3.1,1.3,4.4,0.6c1.3-1.3,1.3-3.1,0.6-4.4c-1.3-1.3-3.1-1.3-4.4-0.6
	C466.7,292.2,466.7,294.1,468,295.4z"/>
<path class="st1" d="M491.8,310.4c1.3,1.3,3.1,1.3,4.4,0.6c1.3-1.3,1.3-3.1,0.6-4.4c-1.3-1.3-3.1-1.3-4.4-0.6
	C491.1,306.6,490.5,309.1,491.8,310.4z"/>
<path class="st1" d="M516.2,325.4c1.3,1.3,3.1,1.3,4.4,0.6c1.3-1.3,1.3-3.1,0.6-4.4c-1.3-1.3-3.1-1.3-4.4-0.6
	C515.5,321.6,514.9,324.1,516.2,325.4z"/>
<path class="st1" d="M163.5,138.4c1.3,1.3,3.1,1.3,4.4,0.6c1.3-1.3,1.3-3.1,0.6-4.4c-1.3-1.3-3.1-1.3-4.4-0.6
	C162.3,135.3,162.3,137.2,163.5,138.4z"/>
<path class="st1" d="M187.3,153.4c1.3,1.3,3.1,1.3,4.4,0.6c1.3-1.3,1.3-3.1,0.6-4.4c-1.3-1.3-3.1-1.3-4.4-0.6
	C186.6,150.3,186,152.2,187.3,153.4z"/>
<path class="st1" d="M211.6,168.4c1.3,1.3,3.1,1.3,4.4,0.6c1.3-1.3,1.3-3.1,0.6-4.4c-1.3-1.3-3.1-1.3-4.4-0.6
	C210.4,165.3,210.4,167.2,211.6,168.4z"/>
<path class="st1" d="M235.4,183.4c1.3,1.3,3.1,1.3,4.4,0.6c1.3-1.3,1.3-3.1,0.6-4.4c-1.3-1.3-3.1-1.3-4.4-0.6
	C234.8,180.3,234.8,182.2,235.4,183.4z"/>
<path class="st1" d="M259.8,198.4c1.3,1.3,3.1,1.3,4.4,0.6c1.3-1.3,1.3-3.1,0.6-4.4c-1.3-1.3-3.1-1.3-4.4-0.6
	C258.6,195.3,258.6,197.2,259.8,198.4z"/>
<path class="st1" d="M283.5,214.1c1.3,1.3,3.1,1.3,4.4,0.6c1.3-1.3,1.3-3.1,0.6-4.4c-1.3-1.3-3.1-1.3-4.4-0.6
	C282.9,210.3,282.9,212.8,283.5,214.1z"/>
<path class="st1" d="M307.9,229.1c1.3,1.3,3.1,1.3,4.4,0.6c1.3-1.3,1.3-3.1,0.6-4.4c-1.3-1.3-3.1-1.3-4.4-0.6
	C307.3,225.9,306.7,227.8,307.9,229.1z"/>
<path class="st1" d="M332.3,244.1c1.3,1.3,3.1,1.3,4.4,0.6c1.3-1.3,1.3-3.1,0.6-4.4c-1.3-1.3-3.1-1.3-4.4-0.6
	C331.1,241,331.1,242.8,332.3,244.1z"/>
<path class="st1" d="M356.1,259.1c1.3,1.3,3.1,1.3,4.4,0.6c1.3-1.3,1.3-3.1,0.6-4.4c-1.3-1.3-3.1-1.3-4.4-0.6
	C355.5,256,354.8,257.8,356.1,259.1z"/>
<path class="st1" d="M380.5,274.1c1.3,1.3,3.1,1.3,4.4,0.6c1.3-1.3,1.3-3.1,0.6-4.4c-1.3-1.3-3.1-1.3-4.4-0.6
	C379.8,270.3,379.2,272.8,380.5,274.1z"/>
<path class="st1" d="M404.2,289.1c1.3,1.3,3.1,1.3,4.4,0.6c1.3-1.3,1.3-3.1,0.6-4.4c-1.3-1.3-3.1-1.3-4.4-0.6
	C403.6,285.3,403.6,287.8,404.2,289.1z"/>
<path class="st1" d="M428.6,304.1c1.3,1.3,3.1,1.3,4.4,0.6c1.3-0.6,1.3-3.1,0.6-4.4c-1.3-1.3-3.1-1.3-4.4-0.6
	C427.4,301,427.4,302.9,428.6,304.1z"/>
<path class="st1" d="M452.4,319.1c1.3,1.3,3.1,1.3,4.4,0.6c1.3-1.3,1.3-3.1,0.6-4.4c-1.3-1.3-3.1-1.3-4.4-0.6
	C451.7,316,451.7,317.9,452.4,319.1z"/>
<path class="st1" d="M476.8,334.1c1.3,1.3,3.1,1.3,4.4,0.6c1.3-1.3,1.3-3.1,0.6-4.4c-1.3-1.3-3.1-1.3-4.4-0.6
	C476.1,331,475.5,332.9,476.8,334.1z"/>
<path class="st1" d="M501.1,349.7c1.3,1.3,3.1,1.3,4.4,0.6c1.3-1.3,1.3-3.1,0.6-4.4c-1.3-1.3-3.1-1.3-4.4-0.6
	C500.5,346,499.9,348.5,501.1,349.7z"/>
<path class="st1" d="M524.9,364.8c1.3,1.3,3.1,1.3,4.4,0.6c1.3-1.3,1.3-3.1,0.6-4.4c-1.3-1.3-3.1-1.3-4.4-0.6
	C524.3,361,523.6,363.5,524.9,364.8z"/>
<path class="st1" d="M124.1,147.8c1.3,1.3,3.1,1.3,4.4,0.6c1.3-1.3,1.3-3.1,0.6-4.4c-1.3-1.3-3.1-1.3-4.4-0.6
	C122.9,144,122.9,146.5,124.1,147.8z"/>
<path class="st1" d="M148.5,162.8c1.3,1.3,3.1,1.3,4.4,0.6c1.3-1.3,1.3-3.1,0.6-4.4c-1.3-1.3-3.1-1.3-4.4-0.6
	C147.3,159.7,147.3,161.5,148.5,162.8z"/>
<path class="st1" d="M172.3,177.8c1.3,1.3,3.1,1.3,4.4,0.6c1.3-1.3,1.3-3.1,0.6-4.4c-1.3-1.3-3.1-1.3-4.4-0.6
	C171.7,174.7,171,176.6,172.3,177.8z"/>
<path class="st1" d="M196.6,192.8c1.3,1.3,3.1,1.3,4.4,0.6c1.3-1.3,1.3-3.1,0.6-4.4c-1.3-1.3-3.1-1.3-4.4-0.6
	C195.4,189.7,195.4,191.6,196.6,192.8z"/>
<path class="st1" d="M220.4,207.8c1.3,1.3,3.1,1.3,4.4,0.6c1.3-1.3,1.3-3.1,0.6-4.4c-1.3-1.3-3.1-1.3-4.4-0.6
	C219.8,204.7,219.2,206.6,220.4,207.8z"/>
<path class="st1" d="M244.8,222.8c1.3,1.3,3.1,1.3,4.4,0.6c1.3-1.3,1.3-3.1,0.6-4.4c-1.3-1.3-3.1-1.3-4.4-0.6
	C243.5,219.7,243.5,221.6,244.8,222.8z"/>
<path class="st1" d="M268.6,237.8c1.3,1.3,3.1,1.3,4.4,0.6c1.3-1.3,1.3-3.1,0.6-4.4c-1.3-1.3-3.1-1.3-4.4-0.6
	C267.9,234.1,267.9,236.6,268.6,237.8z"/>
<path class="st1" d="M292.9,252.8c1.3,1.3,3.1,1.3,4.4,0.6c1.3-1.3,1.3-3.1,0.6-4.4c-1.3-1.3-3.1-1.3-4.4-0.6
	C291.7,249.7,291.7,251.6,292.9,252.8z"/>
<path class="st1" d="M317.3,267.8c1.3,1.3,3.1,1.3,4.4,0.6c1.3-0.6,1.3-3.1,0.6-4.4c-1.3-1.3-3.1-1.3-4.4-0.6
	C316.1,264.7,316.1,266.6,317.3,267.8z"/>
<path class="st1" d="M341.1,283.5c1.3,1.3,3.1,1.3,4.4,0.6c1.3-1.3,1.3-3.1,0.6-4.4c-1.3-1.3-3.1-1.3-4.4-0.6
	C340.5,279.7,339.8,282.2,341.1,283.5z"/>
<path class="st1" d="M365.5,298.5c1.3,1.3,3.1,1.3,4.4,0.6c1.3-1.3,1.3-3.1,0.6-4.4c-1.3-1.3-3.1-1.3-4.4-0.6
	C364.2,295.4,364.2,297.2,365.5,298.5z"/>
<path class="st1" d="M389.2,313.5c1.3,1.3,3.1,1.3,4.4,0.6c1.3-1.3,1.3-3.1,0.6-4.4c-1.3-1.3-3.1-1.3-4.4-0.6
	C388.6,309.7,388.6,312.2,389.2,313.5z"/>
<path class="st1" d="M413.6,328.5c1.3,1.3,3.1,1.3,4.4,0.6c1.3-1.3,1.3-3.1,0.6-4.4c-1.3-1.3-3.1-1.3-4.4-0.6
	C413,324.7,412.4,327.2,413.6,328.5z"/>
<path class="st1" d="M437.4,343.5c1.3,1.3,3.1,1.3,4.4,0.6c1.3-1.3,1.3-3.1,0.6-4.4c-1.3-1.3-3.1-1.3-4.4-0.6
	C436.7,340.4,436.7,342.2,437.4,343.5z"/>
<path class="st1" d="M461.7,358.5c1.3,1.3,3.1,1.3,4.4,0.6c1.3-1.3,1.3-3.1,0.6-4.4c-1.3-1.3-3.1-1.3-4.4-0.6
	C460.5,355.4,460.5,357.2,461.7,358.5z"/>
<path class="st1" d="M486.1,373.5c1.3,1.3,3.1,1.3,4.4,0.6c1.3-1.3,1.3-3.1,0.6-4.4c-1.3-1.3-3.1-1.3-4.4-0.6
	C484.9,370.4,484.9,372.3,486.1,373.5z"/>
<path class="st1" d="M509.9,388.5c1.3,1.3,3.1,1.3,4.4,0.6c1.3-1.3,1.3-3.1,0.6-4.4c-1.3-1.3-3.1-1.3-4.4-0.6
	C509.3,385.4,508.7,387.3,509.9,388.5z"/>
<path class="st1" d="M109.1,171.6c1.3,1.3,3.1,1.3,4.4,0.6c1.3-1.3,1.3-3.1,0.6-4.4c-1.3-1.3-3.1-1.3-4.4-0.6
	C107.9,168.4,107.9,170.3,109.1,171.6z"/>
<path class="st1" d="M132.9,186.6c1.3,1.3,3.1,1.3,4.4,0.6c1.3-1.3,1.3-3.1,0.6-4.4c-1.3-1.3-3.1-1.3-4.4-0.6
	C132.3,183.4,132.3,185.3,132.9,186.6z"/>
<path class="st1" d="M157.3,202.2c1.3,1.3,3.1,1.3,4.4,0.6c1.3-1.3,1.3-3.1,0.6-4.4c-1.3-1.3-3.1-1.3-4.4-0.6
	C156.6,198.4,156,200.3,157.3,202.2z"/>
<path class="st1" d="M181.7,217.2c1.3,1.3,3.1,1.3,4.4,0.6c1.3-1.3,1.3-3.1,0.6-4.4c-1.3-1.3-3.1-1.3-4.4-0.6
	C180.4,213.4,180.4,215.9,181.7,217.2z"/>
<path class="st1" d="M205.4,232.2c1.3,1.3,3.1,1.3,4.4,0.6c1.3-1.3,1.3-3.1,0.6-4.4c-1.3-1.3-3.1-1.3-4.4-0.6
	C204.8,229.1,204.1,231,205.4,232.2z"/>
<path class="st1" d="M229.8,247.2c1.3,1.3,3.1,1.3,4.4,0.6c1.3-1.3,1.3-3.1,0.6-4.4c-1.3-1.3-3.1-1.3-4.4-0.6
	C228.5,244.1,228.5,246,229.8,247.2z"/>
<path class="st1" d="M253.6,262.2c1.3,1.3,3.1,1.3,4.4,0.6c1.3-1.3,1.3-3.1,0.6-4.4c-1.3-1.3-3.1-1.3-4.4-0.6
	C252.9,259.1,252.9,261,253.6,262.2z"/>
<path class="st1" d="M277.9,277.2c1.3,1.3,3.1,1.3,4.4,0.6c1.3-1.3,1.3-3.1,0.6-4.4c-1.3-1.3-3.1-1.3-4.4-0.6
	C277.3,273.5,276.7,276,277.9,277.2z"/>
<path class="st1" d="M301.7,292.2c1.3,1.3,3.1,1.3,4.4,0.6c1.3-1.3,1.3-3.1,0.6-4.4c-1.3-1.3-3.1-1.3-4.4-0.6
	C301.1,288.5,301.1,291,301.7,292.2z"/>
<path class="st1" d="M326.1,307.2c1.3,1.3,3.1,1.3,4.4,0.6c1.3-0.6,1.3-3.1,0.6-4.4c-1.3-1.3-3.1-1.3-4.4-0.6
	C325.4,304.1,324.8,306,326.1,307.2z"/>
<path class="st1" d="M350.5,322.2c1.3,1.3,3.1,1.3,4.4,0.6c1.3-1.3,1.3-3.1,0.6-4.4c-1.3-1.3-3.1-1.3-4.4-0.6
	C349.2,319.1,349.2,321,350.5,322.2z"/>
<path class="st1" d="M374.2,337.9c1.3,1.3,3.1,1.3,4.4,0.6c1.3-1.3,1.3-3.1,0.6-4.4c-1.3-1.3-3.1-1.3-4.4-0.6
	C373.6,334.1,373,336,374.2,337.9z"/>
<path class="st1" d="M398.6,352.9c1.3,1.3,3.1,1.3,4.4,0.6c1.3-1.3,1.3-3.1,0.6-4.4c-1.3-1.3-3.1-1.3-4.4-0.6
	C397.4,349.1,397.4,351.6,398.6,352.9z"/>
<path class="st1" d="M422.4,367.9c1.3,1.3,3.1,1.3,4.4,0.6c1.3-1.3,1.3-3.1,0.6-4.4c-1.3-1.3-3.1-1.3-4.4-0.6
	C421.7,364.1,421.7,366.6,422.4,367.9z"/>
<path class="st1" d="M446.7,382.9c1.3,1.3,3.1,1.3,4.4,0.6c1.3-0.6,1.3-3.1,0.6-4.4c-1.3-1.3-3.1-1.3-4.4-0.6
	C445.5,379.8,445.5,381.6,446.7,382.9z"/>
<path class="st1" d="M470.5,397.9c1.3,1.3,3.1,1.3,4.4,0.6c1.3-0.6,1.3-3.1,0.6-4.4c-0.6-1.3-3.1-1.3-4.4-0.6
	C469.9,394.8,469.9,396.6,470.5,397.9z"/>
<path class="st1" d="M69.7,180.9c1.3,1.3,3.1,1.3,4.4,0.6c1.3-1.3,1.3-3.1,0.6-4.4c-1.3-1.3-3.1-1.3-4.4-0.6
	C69.1,177.8,69.1,179.7,69.7,180.9z"/>
<path class="st1" d="M94.1,195.9c1.3,1.3,3.1,1.3,4.4,0.6c1.3-0.6,1.3-3.1,0.6-4.4c-1.3-1.3-3.1-1.3-4.4-0.6
	C92.9,192.8,92.9,194.7,94.1,195.9z"/>
<path class="st1" d="M117.9,210.9c1.3,1.3,3.1,1.3,4.4,0.6c1.3-1.3,1.3-3.1,0.6-4.4c-1.3-1.3-3.1-1.3-4.4-0.6
	C117.2,207.8,117.2,209.7,117.9,210.9z"/>
<path class="st1" d="M142.3,225.9c1.3,1.3,3.1,1.3,4.4,0.6c1.3-1.3,1.3-3.1,0.6-4.4c-1.3-1.3-3.1-1.3-4.4-0.6
	C141.6,222.8,141,224.7,142.3,225.9z"/>
<path class="st1" d="M166.6,241c1.3,1.3,3.1,1.3,4.4,0.6c1.3-1.3,1.3-3.1,0.6-4.4c-1.3-1.3-3.1-1.3-4.4-0.6
	C166,237.2,165.4,239.7,166.6,241z"/>
<path class="st1" d="M190.4,256c1.3,1.2,3.1,1.2,4.4,0.6c1.3-1.3,1.3-3.1,0.6-4.4c-1.3-1.3-3.1-1.3-4.4-0.6
	C189.8,252.2,189.1,254.7,190.4,256z"/>
<path class="st1" d="M214.8,271.6c1.3,1.3,3.1,1.3,4.4,0.6c1.3-0.6,1.3-3.1,0.6-4.4c-1.3-1.3-3.1-1.3-4.4-0.6
	C213.5,267.8,213.5,269.7,214.8,271.6z"/>
<path class="st1" d="M238.5,286.6c1.3,1.3,3.1,1.3,4.4,0.6c1.3-1.3,1.3-3.1,0.6-4.4c-1.3-1.3-3.1-1.3-4.4-0.6
	C237.9,282.8,237.9,285.3,238.5,286.6z"/>
<path class="st1" d="M262.9,301.6c1.3,1.3,3.1,1.3,4.4,0.6c1.3-1.3,1.3-3.1,0.6-4.4c-0.6-1.3-3.1-1.3-4.4-0.6
	C261.7,298.5,261.7,300.4,262.9,301.6z"/>
<path class="st1" d="M286.7,316.6c1.3,1.3,3.1,1.3,4.4,0.6c1.3-1.3,1.3-3.1,0.6-4.4c-1.3-1.3-3.1-1.3-4.4-0.6
	C286,313.5,286,315.4,286.7,316.6z"/>
<path class="st1" d="M311.1,331.6c1.3,1.3,3.1,1.3,4.4,0.6c1.3-1.3,1.3-3.1,0.6-4.4c-1.3-1.3-3.1-1.3-4.4-0.6
	C310.4,327.9,309.8,330.4,311.1,331.6z"/>
<path class="st1" d="M335.4,346.6c1.3,1.3,3.1,1.3,4.4,0.6c1.3-0.6,1.3-3.1,0.6-4.4c-1.3-1.3-3.1-1.3-4.4-0.6
	C334.2,343.5,334.2,345.4,335.4,346.6z"/>
<path class="st1" d="M359.2,361.6c1.3,1.3,3.1,1.3,4.4,0.6c1.3-0.6,1.3-3.1,0.6-4.4c-1.3-1.3-3.1-1.3-4.4-0.6
	C358.6,358.5,358,360.4,359.2,361.6z"/>
<path class="st1" d="M383.6,376.6c1.3,1.3,3.1,1.3,4.4,0.6c1.3-1.3,1.3-3.1,0.6-4.4c-1.3-1.3-3.1-1.3-4.4-0.6
	C382.3,373.5,382.3,375.4,383.6,376.6z"/>
<path class="st1" d="M407.4,391.6c1.3,1.3,3.1,1.3,4.4,0.6c1.3-1.3,1.3-3.1,0.6-4.4c-1.3-1.3-3.1-1.3-4.4-0.6
	C406.7,388.5,406.7,390.4,407.4,391.6z"/>
<path class="st1" d="M431.7,407.3c1.3,1.3,3.1,1.3,4.4,0.6c1.3-1.3,1.3-3.1,0.6-4.4c-1.3-1.3-3.1-1.3-4.4-0.6
	C430.5,403.5,430.5,405.4,431.7,407.3z"/>
<path class="st1" d="M54.7,205.3c1.3,1.3,3.1,1.3,4.4,0.6c1.3-1.3,1.3-3.1,0.6-4.4c-1.3-1.3-3.1-1.3-4.4-0.6
	C54.1,201.6,53.5,203.4,54.7,205.3z"/>
<path class="st1" d="M79.1,220.3c1.3,1.3,3.1,1.3,4.4,0.6c1.3-1.3,1.3-3.1,0.6-4.4c-1.3-1.3-3.1-1.3-4.4-0.6
	C78.5,216.6,77.8,219.1,79.1,220.3z"/>
<path class="st1" d="M102.9,235.3c1.3,1.3,3.1,1.3,4.4,0.6c1.3-0.6,1.3-3.1,0.6-4.4c-1.3-1.3-3.1-1.3-4.4-0.6
	C102.2,232.2,102.2,234.1,102.9,235.3z"/>
<path class="st1" d="M127.2,250.3c1.3,1.3,3.1,1.3,4.4,0.6c1.3-1.3,1.3-3.1,0.6-4.4c-1.3-1.3-3.1-1.3-4.4-0.6
	C126,247.2,126,249.1,127.2,250.3z"/>
<path class="st1" d="M151.6,265.3c1.3,1.3,3.1,1.3,4.4,0.6c1.3-1.3,1.3-3.1,0.6-4.4c-1.3-1.3-3.1-1.3-4.4-0.6
	C150.4,262.2,150.4,264.1,151.6,265.3z"/>
<path class="st1" d="M175.4,280.3c1.3,1.3,3.1,1.3,4.4,0.6c1.3-1.3,1.3-3.1,0.6-4.4c-1.3-1.3-3.1-1.3-4.4-0.6
	C174.8,277.2,174.2,279.1,175.4,280.3z"/>
<path class="st1" d="M199.8,295.4c1.3,1.3,3.1,1.3,4.4,0.6c1.3-1.3,1.3-3.1,0.6-4.4c-1.3-1.3-3.1-1.3-4.4-0.6
	C199.1,291.6,198.5,294.1,199.8,295.4z"/>
<path class="st1" d="M223.5,310.4c1.3,1.3,3.1,1.3,4.4,0.6c1.3-0.6,1.3-3.1,0.6-4.4c-1.3-1.3-3.1-1.3-4.4-0.6
	C222.9,307.2,222.3,309.1,223.5,310.4z"/>
<path class="st1" d="M247.9,325.4c1.3,1.3,3.1,1.3,4.4,0.6c1.3-0.6,1.3-3.1,0.6-4.4c-1.3-1.3-3.1-1.3-4.4-0.6
	C246.7,322.2,246.7,324.1,247.9,325.4z"/>
<path class="st1" d="M271.7,341c1.3,1.3,3.1,1.3,4.4,0.6c1.3-1.3,1.3-3.1,0.6-4.4c-1.3-1.3-3.1-1.3-4.4-0.6
	C271.1,337.2,271.1,339.1,271.7,341z"/>
<path class="st1" d="M296.1,356c1.3,1.3,3.1,1.3,4.4,0.6c1.3-1.3,1.3-3.1,0.6-4.4c-1.3-1.3-3.1-1.3-4.4-0.6
	C294.8,352.2,294.8,354.7,296.1,356z"/>
<path class="st1" d="M320.5,371c1.3,1.3,3.1,1.3,4.4,0.6c1.3-1.3,1.3-3.1,0.6-4.4c-1.3-1.3-3.1-1.3-4.4-0.6
	C319.2,367.9,319.2,369.8,320.5,371z"/>
<path class="st1" d="M344.2,386c1.3,1.3,3.1,1.3,4.4,0.6c1.3-1.3,1.3-3.1,0.6-4.4c-1.3-1.3-3.1-1.3-4.4-0.6
	C343.6,382.9,343,384.8,344.2,386z"/>
<path class="st1" d="M368.6,401c1.3,1.3,3.1,1.3,4.4,0.6c1.3-0.6,1.3-3.1,0.6-4.4c-1.3-1.3-3.1-1.3-4.4-0.6
	C367.3,397.9,367.3,399.8,368.6,401z"/>
<path class="st1" d="M392.4,416c1.3,1.3,3.1,1.3,4.4,0.6c1.3-1.3,1.3-3.1,0.6-4.4c-1.3-1.3-3.1-1.3-4.4-0.6
	C391.7,412.9,391.7,414.8,392.4,416z"/>
<path class="st1" d="M416.7,431c1.3,1.3,3.1,1.3,4.4,0.6c1.3-1.3,1.3-3.1,0.6-4.4c-1.3-1.3-3.1-1.3-4.4-0.6
	C415.5,427.9,415.5,429.8,416.7,431z"/>
<path class="st1" d="M39.7,229.1c1.3,1.3,3.1,1.3,4.4,0.6c1.3-1.3,1.3-3.1,0.6-4.4c-1.3-1.3-3.1-1.3-4.4-0.6
	C39.1,225.9,38.5,227.8,39.7,229.1z"/>
<path class="st1" d="M64.1,244.1c1.3,1.3,3.1,1.3,4.4,0.6c1.3-1.3,1.3-3.1,0.6-4.4c-1.3-1.3-3.1-1.3-4.4-0.6
	C62.9,241,62.9,242.8,64.1,244.1z"/>
<path class="st1" d="M87.9,259.1c1.3,1.3,3.1,1.3,4.4,0.6c1.3-1.3,1.3-3.1,0.6-4.4c-1.3-1.3-3.1-1.3-4.4-0.6
	C87.2,255.3,87.2,257.8,87.9,259.1z"/>
<path class="st1" d="M112.2,274.7c1.3,1.3,3.1,1.3,4.4,0.6c1.3-1.3,1.3-3.1,0.6-4.4c-1.3-1.3-3.1-1.3-4.4-0.6
	C111,271,111,272.8,112.2,274.7z"/>
<path class="st1" d="M136,289.7c1.3,1.3,3.1,1.3,4.4,0.6c1.3-1.3,1.3-3.1,0.6-4.4c-1.3-1.3-3.1-1.3-4.4-0.6
	C135.4,286,135.4,288.5,136,289.7z"/>
<path class="st1" d="M160.4,304.7c1.3,1.3,3.1,1.3,4.4,0.6c1.3-1.3,1.3-3.1,0.6-4.4c-1.3-1.3-3.1-1.3-4.4-0.6
	C159.8,301.6,159.1,303.5,160.4,304.7z"/>
<path class="st1" d="M184.8,319.7c1.3,1.3,3.1,1.3,4.4,0.6c1.3-1.3,1.3-3.1,0.6-4.4c-1.3-1.3-3.1-1.3-4.4-0.6
	C183.5,316.6,183.5,318.5,184.8,319.7z"/>
<path class="st1" d="M208.5,334.7c1.3,1.3,3.1,1.3,4.4,0.6c1.3-1.3,1.3-3.1,0.6-4.4c-1.3-1.3-3.1-1.3-4.4-0.6
	C207.9,331,207.3,333.5,208.5,334.7z"/>
<path class="st1" d="M232.9,349.7c1.3,1.3,3.1,1.3,4.4,0.6c1.3-0.6,1.3-3.1,0.6-4.4c-1.3-1.3-3.1-1.3-4.4-0.6
	C231.7,346.6,231.7,348.5,232.9,349.7z"/>
<path class="st1" d="M256.7,364.8c1.3,1.3,3.1,1.3,4.4,0.6c1.3-0.6,1.3-3.1,0.6-4.4c-1.3-1.3-3.1-1.3-4.4-0.6
	C256.1,361.6,256.1,363.5,256.7,364.8z"/>
<path class="st1" d="M281.1,379.8c1.3,1.3,3.1,1.3,4.4,0.6c1.3-1.3,1.3-3.1,0.6-4.4c-1.3-1.3-3.1-1.3-4.4-0.6
	C279.8,376.6,279.8,378.5,281.1,379.8z"/>
<path class="st1" d="M304.8,394.8c1.3,1.3,3.1,1.3,4.4,0.6c1.3-1.3,1.3-3.1,0.6-4.4c-1.3-1.3-3.1-1.3-4.4-0.6
	C304.2,391.6,304.2,393.5,304.8,394.8z"/>
<path class="st1" d="M329.2,410.4c1.3,1.3,3.1,1.3,4.4,0.6c1.3-1.3,1.3-3.1,0.6-4.4c-1.3-1.3-3.1-1.3-4.4-0.6
	C328.6,406.6,327.9,408.5,329.2,410.4z"/>
<path class="st1" d="M353.6,425.4c1.3,1.3,3.1,1.3,4.4,0.6c1.3-1.3,1.3-3.1,0.6-4.4c-1.3-1.3-3.1-1.3-4.4-0.6
	C352.3,421.6,352.3,424.2,353.6,425.4z"/>
<path class="st1" d="M0.9,238.5c1.3,1.3,3.1,1.3,4.4,0.6c1.3-0.6,1.3-3.1,0.6-4.4c-1.3-1.3-3.1-1.3-4.4-0.6
	C-0.3,235.3-0.3,237.2,0.9,238.5z"/>
<path class="st1" d="M24.7,253.5c1.3,1.3,3.1,1.3,4.4,0.6c1.3-1.3,1.3-3.1,0.6-4.4c-1.3-1.3-3.1-1.3-4.4-0.6
	C24.1,250.3,23.5,252.2,24.7,253.5z"/>
<path class="st1" d="M49.1,268.5c1.3,1.3,3.1,1.3,4.4,0.6c1.3-1.3,1.3-3.1,0.6-4.4c-1.3-1.3-3.1-1.3-4.4-0.6
	C47.8,265.3,47.8,267.2,49.1,268.5z"/>
<path class="st1" d="M72.8,283.5c1.3,1.3,3.1,1.3,4.4,0.6c1.3-1.3,1.3-3.1,0.6-4.4c-1.3-1.3-3.1-1.3-4.4-0.6
	C72.2,280.3,72.2,282.2,72.8,283.5z"/>
<path class="st1" d="M97.2,298.5c1.3,1.3,3.1,1.3,4.4,0.6c1.3-1.3,1.3-3.1,0.6-4.4c-1.3-1.3-3.1-1.3-4.4-0.6
	C96,295.4,96,297.2,97.2,298.5z"/>
<path class="st1" d="M121,313.5c1.3,1.3,3.1,1.3,4.4,0.6c1.3-0.6,1.3-3.1,0.6-4.4c-1.3-1.3-3.1-1.3-4.4-0.6
	C120.4,310.4,120.4,312.2,121,313.5z"/>
<path class="st1" d="M97,296.2c1.3,1.3,3.1,1.3,4.4,0.6c1.3-0.6,1.3-3.1,0.6-4.4c-1.3-1.3-3.1-1.3-4.4-0.6
	C96.4,293.1,96.4,295,97,296.2z"/>
<path class="st1" d="M145.4,328.5c1.3,1.3,3.1,1.3,4.4,0.6c1.3-0.6,1.3-3.1,0.6-4.4c-1.3-1.3-3.1-1.3-4.4-0.6
	C144.8,325.4,144.1,327.2,145.4,328.5z"/>
<path class="st1" d="M169.8,344.1c1.3,1.3,3.1,1.3,4.4,0.6c1.3-1.3,1.3-3.1,0.6-4.4c-1.3-1.3-3.1-1.3-4.4-0.6
	C168.5,340.4,168.5,342.2,169.8,344.1z"/>
<path class="st1" d="M193.5,359.1c1.3,1.3,3.1,1.3,4.4,0.6c1.3-1.3,1.3-3.1,0.6-4.4c-1.3-1.3-3.1-1.3-4.4-0.6
	C192.9,355.4,192.3,357.9,193.5,359.1z"/>
<path class="st1" d="M217.9,374.1c1.3,1.3,3.1,1.3,4.4,0.6c1.3-1.3,1.3-3.1,0.6-4.4c-1.3-1.3-3.1-1.3-4.4-0.6
	C216.6,371,216.6,372.9,217.9,374.1z"/>
<path class="st1" d="M241.7,389.1c1.3,1.3,3.1,1.3,4.4,0.6c1.3-1.3,1.3-3.1,0.6-4.4c-1.3-1.3-3.1-1.3-4.4-0.6
	C241,386,241,387.9,241.7,389.1z"/>
<path class="st1" d="M266.1,404.1c1.3,1.3,3.1,1.3,4.4,0.6c1.3-1.3,1.3-3.1,0.6-4.4c-1.3-1.3-3.1-1.3-4.4-0.6
	C264.8,401,264.8,402.9,266.1,404.1z"/>
<path class="st1" d="M289.8,419.1c1.3,1.3,3.1,1.3,4.4,0.6c1.3-1.3,1.3-3.1,0.6-4.4c-1.3-1.3-3.1-1.3-4.4-0.6
	C289.2,416,289.2,417.9,289.8,419.1z"/>
<path class="st1" d="M314.2,434.2c1.3,1.3,3.1,1.3,4.4,0.6c1.3-1.3,1.3-3.1,0.6-4.4c-1.3-1.3-3.1-1.3-4.4-0.6
	C313.6,431,312.9,432.9,314.2,434.2z"/>
<path class="st1" d="M34.1,292.8c1.3,1.3,3.1,1.3,4.4,0.6c1.3-0.6,1.3-3.1,0.6-4.4c-1.3-1.3-3.1-1.3-4.4-0.6
	C32.8,289.1,32.8,291.6,34.1,292.8z"/>
<path class="st1" d="M57.9,307.9c1.3,1.3,3.1,1.3,4.4,0.6c1.3-1.3,1.3-3.1,0.6-4.4c-1.3-1.3-3.1-1.3-4.4-0.6
	C57.2,304.7,56.6,306.6,57.9,307.9z"/>
<path class="st1" d="M82.2,322.9c1.3,1.3,3.1,1.3,4.4,0.6c1.3-1.3,1.3-3.1,0.6-4.4c-1.3-1.3-3.1-1.3-4.4-0.6
	C81,319.7,81,321.6,82.2,322.9z"/>
<path class="st1" d="M106,337.9c1.3,1.3,3.1,1.3,4.4,0.6c1.3-1.3,1.3-3.1,0.6-4.4c-1.3-1.3-3.1-1.3-4.4-0.6
	C105.4,334.7,105.4,336.6,106,337.9z"/>
<path class="st1" d="M130.4,352.9c1.3,1.3,3.1,1.3,4.4,0.6c1.3-1.3,1.3-3.1,0.6-4.4c-1.3-1.3-3.1-1.3-4.4-0.6
	C129.1,349.7,129.1,351.6,130.4,352.9z"/>
<path class="st1" d="M154.8,367.9c1.3,1.3,3.1,1.3,4.4,0.6c1.3-1.3,1.3-3.1,0.6-4.4c-1.3-1.3-3.1-1.3-4.4-0.6
	C153.5,364.8,153.5,366.6,154.8,367.9z"/>
<path class="st1" d="M178.5,382.9c1.3,1.3,3.1,1.3,4.4,0.6c1.3-1.3,1.3-3.1,0.6-4.4c-1.3-1.3-3.1-1.3-4.4-0.6
	C177.9,379.8,177.3,381.6,178.5,382.9z"/>
<path class="st1" d="M202.9,397.9c1.3,1.3,3.1,1.3,4.4,0.6c1.3-1.3,1.3-3.1,0.6-4.4c-1.3-1.3-3.1-1.3-4.4-0.6
	C201.7,394.8,201.7,396.6,202.9,397.9z"/>
<path class="st1" d="M226.7,413.5c1.3,1.3,3.1,1.3,4.4,0.6c1.3-1.3,1.3-3.1,0.6-4.4c-1.3-1.3-3.1-1.3-4.4-0.6
	C226,409.8,225.4,411.6,226.7,413.5z"/>
<path class="st1" d="M91,362.3c1.3,1.3,3.1,1.3,4.4,0.6c1.3-1.3,1.3-3.1,0.6-4.4c-1.3-1.3-3.1-1.3-4.4-0.6
	C90.4,358.5,90.4,361,91,362.3z"/>
<path class="st1" d="M115.4,377.3c1.3,1.3,3.1,1.3,4.4,0.6c1.3-1.3,1.3-3.1,0.6-4.4c-1.3-1.3-3.1-1.3-4.4-0.6
	C114.1,374.1,114.1,376,115.4,377.3z"/>
<circle class="st2" cx="208.3" cy="82.1" r="80"/>
</svg>
