<?xml version="1.0" encoding="utf-8"?>
<!-- Generator: Adobe Illustrator 23.1.0, SVG Export Plug-In . SVG Version: 6.00 Build 0)  -->
<svg version="1.1" id="Слой_1" xmlns="http://www.w3.org/2000/svg" xmlns:xlink="http://www.w3.org/1999/xlink" x="0px" y="0px"
	 viewBox="0 0 537.8 276.7" style="enable-background:new 0 0 537.8 276.7;" xml:space="preserve">
<style type="text/css">
	.st0{fill:#349EFF;}
	.st1{fill:#FFFFFF;}
	.st2{fill:none;stroke:#6332CD;stroke-width:2;}
</style>
<path class="st0" d="M416.5,96.6c-7,55.9-51.9,74.5-98.6,90.7c-17.9,6.1-36.1,14.9-47.4,29.7s-15.4,34.7-28.8,47.8
	c-16.1,15.7-40.8,14.6-59.5,3.7c-14.8-8.5-27.7-21.4-39.4-33.5c-13.9-14.6-31-24.4-49.5-32.7c-22-9.8-44.6-17.8-63.9-32.1
	c-26-19.6-38.6-55.5-21.7-90.7c11-23.1,51.4-18.8,76.1-12.7c32.4,7.9,61.6,26.8,94.9,31.8c38,6.2,78.7-8.1,104.8-36.3
	c22.7-24.8,49.3-75.2,91.8-59.1C406.2,15.4,420.3,67.3,416.5,96.6z"/>
<path class="st1" d="M293.4,35.2c1,1,2.5,1,3.5,0.5c1-1,1-2.5,0.5-3.5c-1-1-2.5-1-3.5-0.5C292.4,32.2,292.4,34.2,293.4,35.2z"/>
<path class="st1" d="M312.7,47.4c1,1,2.5,1,3.5,0.5c1-1,1-2.5,0.5-3.5c-1-1-2.5-1-3.5-0.5C312.1,44.8,312.1,46.3,312.7,47.4z"/>
<path class="st1" d="M332.4,59.5c1,1,2.5,1,3.5,0.5c1-1,1-2.5,0.5-3.5c-1-1-2.5-1-3.5-0.5C331.4,57,331.4,58.5,332.4,59.5z"/>
<path class="st1" d="M488.7,157.1c1,1,2.5,1,3.5,0.5c1-1,1-2.5,0.5-3.5c-1-1-2.5-1-3.5-0.5C487.7,154.6,487.7,156.1,488.7,157.1z"/>
<path class="st1" d="M507.9,169.3c1,1,2.5,1,3.5,0.5c1-1,1-2.5,0.5-3.5c-1-1-2.5-1-3.5-0.5C507.4,166.2,506.9,168.3,507.9,169.3z"/>
<path class="st1" d="M527.7,181.4c1,1,2.5,1,3.5,0.5c1-1,1-2.5,0.5-3.5c-1-1-2.5-1-3.5-0.5S526.6,180.4,527.7,181.4z"/>
<path class="st1" d="M242.3,30.2c1,1,2.5,1,3.5,0.5c1-1,1-2.5,0.5-3.5c-1-1-2.5-1-3.5-0.5C241.3,27.6,241.3,29.1,242.3,30.2z"/>
<path class="st1" d="M261.5,42.3c1,1,2.5,1,3.5,0.5c1-1,1-2.5,0.5-3.5c-1-1-2.5-1-3.5-0.5C261,39.8,260.5,41.3,261.5,42.3z"/>
<path class="st1" d="M281.3,54.4c1,1,2.5,1,3.5,0.5c1-1,1-2.5,0.5-3.5c-1-1-2.5-1-3.5-0.5C280.3,51.9,280.3,53.4,281.3,54.4z"/>
<path class="st1" d="M300.5,66.6c1,1,2.5,1,3.5,0.5c1-1,1-2.5,0.5-3.5c-1-1-2.5-1-3.5-0.5C300,64,300,65.6,300.5,66.6z"/>
<path class="st1" d="M320.2,78.7c1,1,2.5,1,3.5,0.5c1-1,1-2.5,0.5-3.5c-1-1-2.5-1-3.5-0.5C319.2,76.2,319.2,77.7,320.2,78.7z"/>
<path class="st1" d="M339.4,91.4c1,1,2.5,1,3.5,0.5c1-1,1-2.5,0.5-3.5c-1-1-2.5-1-3.5-0.5C338.9,88.3,338.9,90.4,339.4,91.4z"/>
<path class="st1" d="M359.2,103.5c1,1,2.5,1,3.5,0.5c1-1,1-2.5,0.5-3.5c-1-1-2.5-1-3.5-0.5C358.7,101,358.2,102.5,359.2,103.5z"/>
<path class="st1" d="M378.9,115.6c1,1,2.5,1,3.5,0.5c1-1,1-2.5,0.5-3.5c-1-1-2.5-1-3.5-0.5C377.9,113.1,377.9,114.6,378.9,115.6z"/>
<path class="st1" d="M398.1,127.8c1,1,2.5,1,3.5,0.5c1-1,1-2.5,0.5-3.5c-1-1-2.5-1-3.5-0.5C397.6,125.3,397.1,126.8,398.1,127.8z"/>
<path class="st1" d="M417.9,139.9c1,1,2.5,1,3.5,0.5c1-1,1-2.5,0.5-3.5c-1-1-2.5-1-3.5-0.5S416.8,138.9,417.9,139.9z"/>
<path class="st1" d="M437.1,152.1c1,1,2.5,1,3.5,0.5c1-1,1-2.5,0.5-3.5c-1-1-2.5-1-3.5-0.5S436.6,151.1,437.1,152.1z"/>
<path class="st1" d="M456.8,164.2c1,1,2.5,1,3.5,0.5s1-2.5,0.5-3.5c-1-1-2.5-1-3.5-0.5C455.8,161.7,455.8,163.2,456.8,164.2z"/>
<path class="st1" d="M476,176.4c1,1,2.5,1,3.5,0.5c1-1,1-2.5,0.5-3.5c-1-1-2.5-1-3.5-0.5C475.5,173.8,475.5,175.3,476,176.4z"/>
<path class="st1" d="M495.8,188.5c1,1,2.5,1,3.5,0.5c1-1,1-2.5,0.5-3.5c-1-1-2.5-1-3.5-0.5C495.3,186,494.8,187.5,495.8,188.5z"/>
<path class="st1" d="M515.5,201.1c1,1,2.5,1,3.5,0.5c1-1,1-2.5,0.5-3.5c-1-1-2.5-1-3.5-0.5S514.5,200.1,515.5,201.1z"/>
<path class="st1" d="M534.7,213.3c1,1,2.5,1,3.5,0.5c1-1,1-2.5,0.5-3.5c-1-1-2.5-1-3.5-0.5S533.7,212.3,534.7,213.3z"/>
<path class="st1" d="M210.4,37.7c1,1,2.5,1,3.5,0.5c1-1,1-2.5,0.5-3.5c-1-1-2.5-1-3.5-0.5C209.4,34.7,209.4,36.7,210.4,37.7z"/>
<path class="st1" d="M230.2,49.9c1,1,2.5,1,3.5,0.5c1-1,1-2.5,0.5-3.5c-1-1-2.5-1-3.5-0.5C229.2,47.4,229.2,48.9,230.2,49.9z"/>
<path class="st1" d="M249.4,62c1,1,2.5,1,3.5,0.5c1-1,1-2.5,0.5-3.5c-1-1-2.5-1-3.5-0.5C248.9,59.5,248.4,61,249.4,62z"/>
<path class="st1" d="M269.1,74.2c1,1,2.5,1,3.5,0.5c1-1,1-2.5,0.5-3.5c-1-1-2.5-1-3.5-0.5C268.1,71.6,268.1,73.2,269.1,74.2z"/>
<path class="st1" d="M288.4,86.3c1,1,2.5,1,3.5,0.5c1-1,1-2.5,0.5-3.5c-1-1-2.5-1-3.5-0.5C287.9,83.8,287.4,85.3,288.4,86.3z"/>
<path class="st1" d="M308.1,98.4c1,1,2.5,1,3.5,0.5c1-1,1-2.5,0.5-3.5c-1-1-2.5-1-3.5-0.5C307.1,95.9,307.1,97.4,308.1,98.4z"/>
<path class="st1" d="M327.3,110.6c1,1,2.5,1,3.5,0.5c1-1,1-2.5,0.5-3.5c-1-1-2.5-1-3.5-0.5S326.8,109.6,327.3,110.6z"/>
<path class="st1" d="M347,122.7c1,1,2.5,1,3.5,0.5c1-1,1-2.5,0.5-3.5c-1-1-2.5-1-3.5-0.5C346,120.2,346,121.7,347,122.7z"/>
<path class="st1" d="M366.8,134.9c1,1,2.5,1,3.5,0.5s1-2.5,0.5-3.5c-1-1-2.5-1-3.5-0.5C365.8,132.3,365.8,133.9,366.8,134.9z"/>
<path class="st1" d="M386,147.5c1,1,2.5,1,3.5,0.5c1-1,1-2.5,0.5-3.5c-1-1-2.5-1-3.5-0.5S385,146.5,386,147.5z"/>
<path class="st1" d="M405.7,159.7c1,1,2.5,1,3.5,0.5c1-1,1-2.5,0.5-3.5c-1-1-2.5-1-3.5-0.5C404.7,157.1,404.7,158.6,405.7,159.7z"/>
<path class="st1" d="M425,171.8c1,1,2.5,1,3.5,0.5c1-1,1-2.5,0.5-3.5c-1-1-2.5-1-3.5-0.5S424.5,170.8,425,171.8z"/>
<path class="st1" d="M444.7,183.9c1,1,2.5,1,3.5,0.5c1-1,1-2.5,0.5-3.5c-1-1-2.5-1-3.5-0.5S443.7,182.9,444.7,183.9z"/>
<path class="st1" d="M463.9,196.1c1,1,2.5,1,3.5,0.5c1-1,1-2.5,0.5-3.5c-1-1-2.5-1-3.5-0.5C463.4,193.6,463.4,195.1,463.9,196.1z"/>
<path class="st1" d="M483.6,208.2c1,1,2.5,1,3.5,0.5c1-1,1-2.5,0.5-3.5c-1-1-2.5-1-3.5-0.5C482.6,205.7,482.6,207.2,483.6,208.2z"/>
<path class="st1" d="M503.4,220.4c1,1,2.5,1,3.5,0.5c1-1,1-2.5,0.5-3.5c-1-1-2.5-1-3.5-0.5C502.4,217.8,502.4,219.4,503.4,220.4z"/>
<path class="st1" d="M522.6,232.5c1,1,2.5,1,3.5,0.5c1-1,1-2.5,0.5-3.5c-1-1-2.5-1-3.5-0.5C522.1,230,521.6,231.5,522.6,232.5z"/>
<path class="st1" d="M198.3,57c1,1,2.5,1,3.5,0.5c1-1,1-2.5,0.5-3.5c-1-1-2.5-1-3.5-0.5C197.3,54.4,197.3,56,198.3,57z"/>
<path class="st1" d="M217.5,69.1c1,1,2.5,1,3.5,0.5c1-1,1-2.5,0.5-3.5c-1-1-2.5-1-3.5-0.5C217,66.6,217,68.1,217.5,69.1z"/>
<path class="st1" d="M237.3,81.8c1,1,2.5,1,3.5,0.5c1-1,1-2.5,0.5-3.5c-1-1-2.5-1-3.5-0.5C236.8,78.7,236.3,80.2,237.3,81.8z"/>
<path class="st1" d="M257,93.9c1,1,2.5,1,3.5,0.5c1-1,1-2.5,0.5-3.5c-1-1-2.5-1-3.5-0.5C256,90.9,256,92.9,257,93.9z"/>
<path class="st1" d="M276.2,106c1,1,2.5,1,3.5,0.5c1-1,1-2.5,0.5-3.5c-1-1-2.5-1-3.5-0.5C275.7,103.5,275.2,105,276.2,106z"/>
<path class="st1" d="M296,118.2c1,1,2.5,1,3.5,0.5c1-1,1-2.5,0.5-3.5c-1-1-2.5-1-3.5-0.5C294.9,115.6,294.9,117.2,296,118.2z"/>
<path class="st1" d="M315.2,130.3c1,1,2.5,1,3.5,0.5c1-1,1-2.5,0.5-3.5c-1-1-2.5-1-3.5-0.5C314.7,127.8,314.7,129.3,315.2,130.3z"/>
<path class="st1" d="M334.9,142.5c1,1,2.5,1,3.5,0.5c1-1,1-2.5,0.5-3.5c-1-1-2.5-1-3.5-0.5C334.4,139.4,333.9,141.4,334.9,142.5z"/>
<path class="st1" d="M354.1,154.6c1,1,2.5,1,3.5,0.5c1-1,1-2.5,0.5-3.5c-1-1-2.5-1-3.5-0.5S353.6,153.6,354.1,154.6z"/>
<path class="st1" d="M373.9,166.7c1,1,2.5,1,3.5,0.5s1-2.5,0.5-3.5c-1-1-2.5-1-3.5-0.5C373.3,164.2,372.8,165.7,373.9,166.7z"/>
<path class="st1" d="M393.6,178.9c1,1,2.5,1,3.5,0.5c1-1,1-2.5,0.5-3.5c-1-1-2.5-1-3.5-0.5C392.6,176.4,392.6,177.9,393.6,178.9z"/>
<path class="st1" d="M412.8,191.5c1,1,2.5,1,3.5,0.5c1-1,1-2.5,0.5-3.5c-1-1-2.5-1-3.5-0.5S411.8,190,412.8,191.5z"/>
<path class="st1" d="M432.5,203.7c1,1,2.5,1,3.5,0.5c1-1,1-2.5,0.5-3.5c-1-1-2.5-1-3.5-0.5C431.5,200.6,431.5,202.7,432.5,203.7z"/>
<path class="st1" d="M451.8,215.8c1,1,2.5,1,3.5,0.5c1-1,1-2.5,0.5-3.5c-1-1-2.5-1-3.5-0.5S451.3,214.8,451.8,215.8z"/>
<path class="st1" d="M471.5,228c1,1,2.5,1,3.5,0.5s1-2.5,0.5-3.5c-1-1-2.5-1-3.5-0.5C470.5,225.4,470.5,226.9,471.5,228z"/>
<path class="st1" d="M490.7,240.1c1,1,2.5,1,3.5,0.5s1-2.5,0.5-3.5s-2.5-1-3.5-0.5C490.2,237.6,490.2,239.1,490.7,240.1z"/>
<path class="st1" d="M166.4,64.6c1,1,2.5,1,3.5,0.5c1-1,1-2.5,0.5-3.5c-1-1-2.5-1-3.5-0.5C165.9,62,165.9,63.5,166.4,64.6z"/>
<path class="st1" d="M186.2,76.7c1,1,2.5,1,3.5,0.5s1-2.5,0.5-3.5c-1-1-2.5-1-3.5-0.5C185.2,74.2,185.2,75.7,186.2,76.7z"/>
<path class="st1" d="M205.4,88.8c1,1,2.5,1,3.5,0.5c1-1,1-2.5,0.5-3.5c-1-1-2.5-1-3.5-0.5C204.9,86.3,204.9,87.8,205.4,88.8z"/>
<path class="st1" d="M225.1,101c1,1,2.5,1,3.5,0.5c1-1,1-2.5,0.5-3.5c-1-1-2.5-1-3.5-0.5C224.6,98.4,224.1,100,225.1,101z"/>
<path class="st1" d="M244.9,113.1c1,1,2.5,1,3.5,0.5c1-1,1-2.5,0.5-3.5c-1-1-2.5-1-3.5-0.5C244.3,110.1,243.8,112.1,244.9,113.1z"/>
<path class="st1" d="M264.1,125.3c1,1,2.5,1,3.5,0.5c1-1,1-2.5,0.5-3.5c-1-1-2.5-1-3.5-0.5C263.6,122.2,263.1,124.2,264.1,125.3z"/>
<path class="st1" d="M283.8,137.9c1,1,2.5,1,3.5,0.5s1-2.5,0.5-3.5c-1-1-2.5-1-3.5-0.5C282.8,134.9,282.8,136.4,283.8,137.9z"/>
<path class="st1" d="M303,150c1,1,2.5,1,3.5,0.5c1-1,1-2.5,0.5-3.5c-1-1-2.5-1-3.5-0.5S302.5,149,303,150z"/>
<path class="st1" d="M322.8,162.2c1,1,2.5,1,3.5,0.5c1-1,1-2.5,0.5-3.5s-2.5-1-3.5-0.5C321.8,159.7,321.8,161.2,322.8,162.2z"/>
<path class="st1" d="M342,174.3c1,1,2.5,1,3.5,0.5c1-1,1-2.5,0.5-3.5c-1-1-2.5-1-3.5-0.5C341.5,171.8,341.5,173.3,342,174.3z"/>
<path class="st1" d="M361.7,186.5c1,1,2.5,1,3.5,0.5c1-1,1-2.5,0.5-3.5c-1-1-2.5-1-3.5-0.5C361.2,183.4,360.7,185.5,361.7,186.5z"/>
<path class="st1" d="M381.4,198.6c1,1,2.5,1,3.5,0.5s1-2.5,0.5-3.5c-1-1-2.5-1-3.5-0.5C380.4,196.1,380.4,197.6,381.4,198.6z"/>
<path class="st1" d="M400.7,210.8c1,1,2.5,1,3.5,0.5s1-2.5,0.5-3.5c-1-1-2.5-1-3.5-0.5C400.2,208.2,399.7,209.7,400.7,210.8z"/>
<path class="st1" d="M420.4,222.9c1,1,2.5,1,3.5,0.5c1-1,1-2.5,0.5-3.5c-1-1-2.5-1-3.5-0.5C419.4,220.4,419.4,221.9,420.4,222.9z"/>
<path class="st1" d="M439.6,235c1,1,2.5,1,3.5,0.5c1-1,1-2.5,0.5-3.5c-1-1-2.5-1-3.5-0.5C439.1,232.5,439.1,234,439.6,235z"/>
<path class="st1" d="M459.4,247.7c1,1,2.5,1,3.5,0.5c1-1,1-2.5,0.5-3.5c-1-1-2.5-1-3.5-0.5C458.4,244.7,458.4,246.2,459.4,247.7z"/>
<path class="st1" d="M154.3,84.3c1,1,2.5,1,3.5,0.5c1-1,1-2.5,0.5-3.5c-1-1-2.5-1-3.5-0.5C153.8,81.2,153.3,82.8,154.3,84.3z"/>
<path class="st1" d="M174,96.4c1,1,2.5,1,3.5,0.5c1-1,1-2.5,0.5-3.5c-1-1-2.5-1-3.5-0.5S173,95.4,174,96.4z"/>
<path class="st1" d="M193.3,108.6c1,1,2.5,1,3.5,0.5s1-2.5,0.5-3.5c-1-1-2.5-1-3.5-0.5C192.7,106,192.7,107.6,193.3,108.6z"/>
<path class="st1" d="M213,120.7c1,1,2.5,1,3.5,0.5c1-1,1-2.5,0.5-3.5c-1-1-2.5-1-3.5-0.5C212,118.2,212,119.7,213,120.7z"/>
<path class="st1" d="M232.7,132.8c1,1,2.5,1,3.5,0.5c1-1,1-2.5,0.5-3.5c-1-1-2.5-1-3.5-0.5C231.7,130.3,231.7,131.8,232.7,132.8z"/>
<path class="st1" d="M251.9,145c1,1,2.5,1,3.5,0.5c1-1,1-2.5,0.5-3.5c-1-1-2.5-1-3.5-0.5C251.4,142.5,250.9,144,251.9,145z"/>
<path class="st1" d="M271.7,157.1c1,1,2.5,1,3.5,0.5c1-1,1-2.5,0.5-3.5c-1-1-2.5-1-3.5-0.5S270.7,156.1,271.7,157.1z"/>
<path class="st1" d="M290.9,169.3c1,1,2.5,1,3.5,0.5s1-2.5,0.5-3.5c-1-1-2.5-1-3.5-0.5C290.4,166.7,289.9,168.3,290.9,169.3z"/>
<path class="st1" d="M310.6,181.4c1,1,2.5,1,3.5,0.5s1-2.5,0.5-3.5c-1-1-2.5-1-3.5-0.5C309.6,178.9,309.6,180.4,310.6,181.4z"/>
<path class="st1" d="M329.8,194.1c1,1,2.5,1,3.5,0.5c1-1,1-2.5,0.5-3.5c-1-1-2.5-1-3.5-0.5C329.3,191,329.3,192.5,329.8,194.1z"/>
<path class="st1" d="M349.6,206.2c1,1,2.5,1,3.5,0.5c1-1,1-2.5,0.5-3.5c-1-1-2.5-1-3.5-0.5C348.6,203.2,348.6,205.2,349.6,206.2z"/>
<path class="st1" d="M369.3,218.3c1,1,2.5,1,3.5,0.5c1-1,1-2.5,0.5-3.5c-1-1-2.5-1-3.5-0.5C368.3,215.8,368.3,217.3,369.3,218.3z"/>
<path class="st1" d="M388.5,230.5c1,1,2.5,1,3.5,0.5c1-1,1-2.5,0.5-3.5c-1-1-2.5-1-3.5-0.5C388,228,387.5,229.5,388.5,230.5z"/>
<path class="st1" d="M408.3,242.6c1,1,2.5,1,3.5,0.5s1-2.5,0.5-3.5c-1-1-2.5-1-3.5-0.5C407.2,240.1,407.2,241.6,408.3,242.6z"/>
<path class="st1" d="M427.5,254.8c1,1,2.5,1,3.5,0.5c1-1,1-2.5,0.5-3.5c-1-1-2.5-1-3.5-0.5C427,252.2,427,253.8,427.5,254.8z"/>
<path class="st1" d="M447.2,266.9c1,1,2.5,1,3.5,0.5c1-1,1-2.5,0.5-3.5c-1-1-2.5-1-3.5-0.5C446.2,264.4,446.2,265.9,447.2,266.9z"/>
<path class="st1" d="M142.2,103.5c1,1,2.5,1,3.5,0.5c1-1,1-2.5,0.5-3.5c-1-1-2.5-1-3.5-0.5C141.6,101,141.1,102.5,142.2,103.5z"/>
<path class="st1" d="M161.9,115.6c1,1,2.5,1,3.5,0.5c1-1,1-2.5,0.5-3.5c-1-1-2.5-1-3.5-0.5C160.9,113.1,160.9,114.6,161.9,115.6z"/>
<path class="st1" d="M181.1,127.8c1,1,2.5,1,3.5,0.5c1-1,1-2.5,0.5-3.5c-1-1-2.5-1-3.5-0.5S180.6,126.8,181.1,127.8z"/>
<path class="st1" d="M200.8,140.4c1,1,2.5,1,3.5,0.5c1-1,1-2.5,0.5-3.5c-1-1-2.5-1-3.5-0.5C199.8,137.4,199.8,138.9,200.8,140.4z"/>
<path class="st1" d="M220.1,152.6c1,1,2.5,1,3.5,0.5c1-1,1-2.5,0.5-3.5c-1-1-2.5-1-3.5-0.5C219.6,149.5,219.6,151.6,220.1,152.6z"/>
<path class="st1" d="M239.8,164.7c1,1,2.5,1,3.5,0.5c1-1,1-2.5,0.5-3.5c-1-1-2.5-1-3.5-0.5C239.3,162.2,238.8,163.7,239.8,164.7z"/>
<path class="st1" d="M259.5,176.9c1,1,2.5,1,3.5,0.5c1-1,1-2.5,0.5-3.5c-1-1-2.5-1-3.5-0.5C258.5,174.3,258.5,175.9,259.5,176.9z"/>
<path class="st1" d="M278.7,189c1,1,2.5,1,3.5,0.5c1-1,1-2.5,0.5-3.5c-1-1-2.5-1-3.5-0.5S277.7,188,278.7,189z"/>
<path class="st1" d="M298.5,201.1c1,1,2.5,1,3.5,0.5s1-2.5,0.5-3.5c-1-1-2.5-1-3.5-0.5C297.5,198.6,297.5,200.1,298.5,201.1z"/>
<path class="st1" d="M317.7,213.3c1,1,2.5,1,3.5,0.5s1-2.5,0.5-3.5c-1-1-2.5-1-3.5-0.5C317.2,210.8,317.2,212.3,317.7,213.3z"/>
<path class="st1" d="M337.4,225.4c1,1,2.5,1,3.5,0.5c1-1,1-2.5,0.5-3.5c-1-1-2.5-1-3.5-0.5C336.4,222.9,336.4,224.4,337.4,225.4z"/>
<path class="st1" d="M356.7,237.6c1,1,2.5,1,3.5,0.5c1-1,1-2.5,0.5-3.5c-1-1-2.5-1-3.5-0.5C356.2,235,356.2,236.6,356.7,237.6z"/>
<path class="st1" d="M376.4,250.2c1,1,2.5,1,3.5,0.5c1-1,1-2.5,0.5-3.5c-1-1-2.5-1-3.5-0.5S375.4,248.7,376.4,250.2z"/>
<path class="st1" d="M396.1,262.4c1,1,2.5,1,3.5,0.5c1-1,1-2.5,0.5-3.5c-1-1-2.5-1-3.5-0.5C395.1,259.3,395.1,261.3,396.1,262.4z"/>
<path class="st1" d="M110.8,111.1c1,1,2.5,1,3.5,0.5s1-2.5,0.5-3.5c-1-1-2.5-1-3.5-0.5C109.8,108.6,109.8,110.1,110.8,111.1z"/>
<path class="st1" d="M130,123.2c1,1,2.5,1,3.5,0.5c1-1,1-2.5,0.5-3.5c-1-1-2.5-1-3.5-0.5C129.5,120.7,129,122.2,130,123.2z"/>
<path class="st1" d="M149.7,135.4c1,1,2.5,1,3.5,0.5c1-1,1-2.5,0.5-3.5c-1-1-2.5-1-3.5-0.5C148.7,132.8,148.7,134.4,149.7,135.4z"/>
<path class="st1" d="M169,147.5c1,1,2.5,1,3.5,0.5c1-1,1-2.5,0.5-3.5c-1-1-2.5-1-3.5-0.5C168.5,145,168.5,146.5,169,147.5z"/>
<path class="st1" d="M188.7,159.7c1,1,2.5,1,3.5,0.5c1-1,1-2.5,0.5-3.5c-1-1-2.5-1-3.5-0.5C187.7,157.1,187.7,158.6,188.7,159.7z"/>
<path class="st1" d="M207.9,171.8c1,1,2.5,1,3.5,0.5s1-2.5,0.5-3.5c-1-1-2.5-1-3.5-0.5C207.4,169.3,207.4,170.8,207.9,171.8z"/>
<path class="st1" d="M188.5,157.8c1,1,2.5,1,3.5,0.5s1-2.5,0.5-3.5c-1-1-2.5-1-3.5-0.5C188,155.3,188,156.8,188.5,157.8z"/>
<path class="st1" d="M227.7,183.9c1,1,2.5,1,3.5,0.5s1-2.5,0.5-3.5c-1-1-2.5-1-3.5-0.5C227.2,181.4,226.6,182.9,227.7,183.9z"/>
<path class="st1" d="M247.4,196.6c1,1,2.5,1,3.5,0.5c1-1,1-2.5,0.5-3.5c-1-1-2.5-1-3.5-0.5C246.4,193.6,246.4,195.1,247.4,196.6z"/>
<path class="st1" d="M266.6,208.7c1,1,2.5,1,3.5,0.5c1-1,1-2.5,0.5-3.5c-1-1-2.5-1-3.5-0.5S265.6,207.7,266.6,208.7z"/>
<path class="st1" d="M286.3,220.9c1,1,2.5,1,3.5,0.5c1-1,1-2.5,0.5-3.5c-1-1-2.5-1-3.5-0.5C285.3,218.3,285.3,219.9,286.3,220.9z"/>
<path class="st1" d="M305.6,233c1,1,2.5,1,3.5,0.5c1-1,1-2.5,0.5-3.5c-1-1-2.5-1-3.5-0.5C305.1,230.5,305.1,232,305.6,233z"/>
<path class="st1" d="M325.3,245.2c1,1,2.5,1,3.5,0.5c1-1,1-2.5,0.5-3.5c-1-1-2.5-1-3.5-0.5C324.3,242.6,324.3,244.1,325.3,245.2z"/>
<path class="st1" d="M344.5,257.3c1,1,2.5,1,3.5,0.5c1-1,1-2.5,0.5-3.5c-1-1-2.5-1-3.5-0.5C344,254.8,344,256.3,344.5,257.3z"/>
<path class="st1" d="M364.2,269.4c1,1,2.5,1,3.5,0.5c1-1,1-2.5,0.5-3.5c-1-1-2.5-1-3.5-0.5C363.7,266.9,363.2,268.4,364.2,269.4z"/>
<path class="st1" d="M137.6,155.1c1,1,2.5,1,3.5,0.5s1-2.5,0.5-3.5c-1-1-2.5-1-3.5-0.5C136.6,152.1,136.6,154.1,137.6,155.1z"/>
<path class="st1" d="M156.8,167.3c1,1,2.5,1,3.5,0.5c1-1,1-2.5,0.5-3.5c-1-1-2.5-1-3.5-0.5C156.3,164.7,155.8,166.2,156.8,167.3z"/>
<path class="st1" d="M176.6,179.4c1,1,2.5,1,3.5,0.5c1-1,1-2.5,0.5-3.5c-1-1-2.5-1-3.5-0.5C175.5,176.9,175.5,178.4,176.6,179.4z"/>
<path class="st1" d="M195.8,191.5c1,1,2.5,1,3.5,0.5c1-1,1-2.5,0.5-3.5c-1-1-2.5-1-3.5-0.5C195.3,189,195.3,190.5,195.8,191.5z"/>
<path class="st1" d="M215.5,203.7c1,1,2.5,1,3.5,0.5c1-1,1-2.5,0.5-3.5c-1-1-2.5-1-3.5-0.5C214.5,201.1,214.5,202.7,215.5,203.7z"/>
<path class="st1" d="M235.2,215.8c1,1,2.5,1,3.5,0.5c1-1,1-2.5,0.5-3.5c-1-1-2.5-1-3.5-0.5C234.2,213.3,234.2,214.8,235.2,215.8z"/>
<path class="st1" d="M254.5,228c1,1,2.5,1,3.5,0.5c1-1,1-2.5,0.5-3.5c-1-1-2.5-1-3.5-0.5C254,225.4,253.5,226.9,254.5,228z"/>
<path class="st1" d="M274.2,240.1c1,1,2.5,1,3.5,0.5c1-1,1-2.5,0.5-3.5c-1-1-2.5-1-3.5-0.5C273.2,237.6,273.2,239.1,274.2,240.1z"/>
<path class="st1" d="M293.4,252.7c1,1,2.5,1,3.5,0.5c1-1,1-2.5,0.5-3.5c-1-1-2.5-1-3.5-0.5S292.4,251.2,293.4,252.7z"/>
<path class="st1" d="M183.6,211.3c1,1,2.5,1,3.5,0.5c1-1,1-2.5,0.5-3.5c-1-1-2.5-1-3.5-0.5C183.1,208.2,183.1,210.3,183.6,211.3z"/>
<path class="st1" d="M203.4,223.4c1,1,2.5,1,3.5,0.5c1-1,1-2.5,0.5-3.5c-1-1-2.5-1-3.5-0.5C202.4,220.9,202.4,222.4,203.4,223.4z"/>
<circle class="st2" cx="115.6" cy="87.8" r="45.5"/>
</svg>
