<svg width="1200" height="256" viewBox="0 0 1200 256" fill="none" xmlns="http://www.w3.org/2000/svg">
<mask id="mask0" mask-type="alpha" maskUnits="userSpaceOnUse" x="624" y="0" width="456" height="240">
<path d="M624 0H1080V240H624V0Z" fill="#C4C4C4"/>
</mask>
<g mask="url(#mask0)">
<path d="M810.94 17.9836C812.079 18.8581 813.521 18.6126 814.395 17.9299C815.18 16.7283 814.916 15.1714 814.258 14.2152C813.12 13.3408 811.677 13.5861 810.803 14.2687C809.449 15.0331 809.802 17.1092 810.94 17.9836Z" fill="white"/>
<path d="M830.253 26.3034C831.468 27.1648 833.025 26.9001 833.975 26.2045C834.836 24.99 834.571 23.4329 833.876 22.4832C832.661 21.6217 831.104 21.8865 830.154 22.5821C829.293 23.7966 829.558 25.3537 830.253 26.3034Z" fill="white"/>
<path d="M851.973 35.0442C853.112 35.9186 854.555 35.6733 855.428 34.9907C856.214 33.7891 855.949 32.232 855.291 31.2758C854.153 30.4014 852.71 30.6468 851.837 31.3294C850.57 32.6128 850.835 34.1698 851.973 35.0442Z" fill="white"/>
<path d="M1017.86 103.819C1018.99 104.693 1020.44 104.448 1021.31 103.765C1022.1 102.564 1021.83 101.007 1021.17 100.05C1020.04 99.176 1018.59 99.4213 1017.72 100.104C1016.45 101.387 1016.72 102.944 1017.86 103.819Z" fill="white"/>
<path d="M1038.17 111.969C1039.34 112.838 1040.83 112.585 1041.73 111.898C1042.55 110.691 1042.28 109.134 1041.61 108.18C1040.44 107.311 1038.96 107.564 1038.05 108.252C1037.15 108.939 1037.01 111.1 1038.17 111.969Z" fill="white"/>
<path d="M1059.56 120.766C1060.73 121.635 1062.22 121.382 1063.12 120.694C1063.94 119.488 1063.67 117.931 1063 116.977C1061.83 116.108 1060.35 116.361 1059.44 117.048C1058.54 117.736 1058.4 119.897 1059.56 120.766Z" fill="white"/>
<path d="M760.975 21.5077C762.114 22.3821 763.557 22.1366 764.43 21.454C765.216 20.2524 764.951 18.6955 764.293 17.7392C763.155 16.8648 761.712 17.1102 760.839 17.7928C759.572 19.0762 759.837 20.6333 760.975 21.5077Z" fill="white"/>
<path d="M781.293 29.6577C782.461 30.527 783.949 30.274 784.853 29.5863C785.668 28.3796 785.403 26.8226 784.731 25.8689C783.562 24.9996 782.075 25.2526 781.171 25.9403C780.356 27.147 780.125 28.7884 781.293 29.6577Z" fill="white"/>
<path d="M802.009 38.5683C803.147 39.4427 804.59 39.1973 805.464 38.5147C806.249 37.3131 805.984 35.7561 805.327 34.7999C804.188 33.9255 802.745 34.1708 801.872 34.8534C800.605 36.1368 800.87 37.6939 802.009 38.5683Z" fill="white"/>
<path d="M822.126 46.7523C823.341 47.6138 824.898 47.349 825.848 46.6535C826.709 45.4389 826.444 43.8819 825.749 42.9321C824.534 42.0706 822.977 42.3355 822.028 43.0311C821.166 44.2457 821.431 45.8026 822.126 46.7523Z" fill="white"/>
<path d="M843.846 55.4922C844.985 56.3666 846.428 56.1213 847.301 55.4387C848.087 54.237 847.822 52.6801 847.164 51.7239C846.026 50.8494 844.583 51.0948 843.71 51.7774C842.443 53.0608 842.708 54.6178 843.846 55.4922Z" fill="white"/>
<path d="M863.296 64.6183C864.511 65.4798 866.068 65.215 867.018 64.5195C867.879 63.3049 867.614 61.7479 866.919 60.7982C865.704 59.9367 864.147 60.2015 863.197 60.897C862.248 61.5926 862.601 63.6685 863.296 64.6183Z" fill="white"/>
<path d="M884.75 72.575C885.918 73.4444 887.406 73.1912 888.31 72.5035C889.125 71.2968 888.86 69.7399 888.188 68.7862C887.019 67.9169 885.532 68.1699 884.628 68.8576C883.813 70.0643 883.582 71.7057 884.75 72.575Z" fill="white"/>
<path d="M905.466 81.4865C906.604 82.3609 908.047 82.1155 908.921 81.4329C909.706 80.2313 909.441 78.6743 908.784 77.7181C907.645 76.8437 906.202 77.089 905.329 77.7716C904.062 79.055 904.327 80.6121 905.466 81.4865Z" fill="white"/>
<path d="M925.783 89.6359C926.952 90.5052 928.439 90.2522 929.343 89.5645C930.158 88.3578 929.894 86.8007 929.221 85.8471C928.053 84.9778 926.565 85.2308 925.661 85.9185C924.846 87.1252 924.615 88.7666 925.783 89.6359Z" fill="white"/>
<path d="M947.174 98.4325C948.342 99.3018 949.83 99.0488 950.734 98.3611C951.549 97.1544 951.284 95.5973 950.612 94.6436C949.443 93.7743 947.955 94.0275 947.052 94.7152C946.148 95.4029 946.005 97.5631 947.174 98.4325Z" fill="white"/>
<path d="M967.56 107.399C968.775 108.261 970.332 107.996 971.281 107.3C972.143 106.086 971.878 104.529 971.182 103.579C969.968 102.718 968.411 102.982 967.461 103.678C966.511 104.373 966.864 106.449 967.56 107.399Z" fill="white"/>
<path d="M988.337 115.471C989.475 116.346 990.918 116.1 991.792 115.417C992.665 114.735 992.312 112.659 991.655 111.703C990.516 110.828 989.073 111.074 988.2 111.756C986.934 113.04 987.198 114.597 988.337 115.471Z" fill="white"/>
<path d="M1008.59 124.46C1009.81 125.321 1011.36 125.057 1012.31 124.361C1013.18 123.147 1012.91 121.59 1012.22 120.64C1011 119.778 1009.44 120.043 1008.49 120.739C1007.63 121.953 1007.9 123.51 1008.59 124.46Z" fill="white"/>
<path d="M1030.05 132.417C1031.22 133.286 1032.7 133.033 1033.61 132.345C1034.42 131.139 1034.16 129.582 1033.48 128.628C1032.32 127.759 1030.83 128.012 1029.92 128.699C1029.11 129.906 1028.88 131.548 1030.05 132.417Z" fill="white"/>
<path d="M1050.63 141.35C1051.8 142.219 1053.29 141.966 1054.19 141.279C1055.01 140.072 1054.74 138.515 1054.07 137.561C1052.9 136.692 1051.41 136.945 1050.51 137.633C1049.61 138.32 1049.46 140.481 1050.63 141.35Z" fill="white"/>
<path d="M1071.22 150.284C1072.39 151.153 1073.87 150.9 1074.78 150.212C1075.59 149.005 1075.33 147.448 1074.65 146.495C1073.49 145.625 1072 145.879 1071.09 146.566C1070.19 147.254 1070.05 149.414 1071.22 150.284Z" fill="white"/>
<path d="M731.593 33.9657C732.731 34.8401 734.174 34.5946 735.047 33.912C735.833 32.7104 735.568 31.1535 734.911 30.1972C733.772 29.3228 732.329 29.5682 731.456 30.2508C730.101 31.0152 730.454 33.0913 731.593 33.9657Z" fill="white"/>
<path d="M752.042 42.0927C753.18 42.9671 754.623 42.7217 755.497 42.0391C756.282 40.8376 756.017 39.2805 755.36 38.3243C754.221 37.4499 752.779 37.6952 751.905 38.3778C750.639 39.6612 750.903 41.2183 752.042 42.0927Z" fill="white"/>
<path d="M772.496 51.0483C773.664 51.9177 775.152 51.6646 776.056 50.977C776.871 49.7703 776.606 48.2132 775.934 47.2596C774.766 46.3902 773.278 46.6433 772.374 47.3309C771.559 48.5376 771.328 50.179 772.496 51.0483Z" fill="white"/>
<path d="M793.88 59.0161C795.018 59.8906 796.461 59.6452 797.335 58.9626C798.12 57.761 797.855 56.2039 797.198 55.2477C796.059 54.3732 794.616 54.6188 793.743 55.3014C792.477 56.5848 792.741 58.1417 793.88 59.0161Z" fill="white"/>
<path d="M814.336 67.972C815.504 68.8414 816.992 68.5884 817.896 67.9007C818.711 66.6939 818.446 65.137 817.774 64.1833C816.605 63.314 815.118 63.5669 814.214 64.2547C813.399 65.4614 813.167 67.1027 814.336 67.972Z" fill="white"/>
<path d="M834.913 76.0771C836.051 76.9516 837.494 76.706 838.368 76.0234C839.153 74.8218 838.888 73.2649 838.231 72.3087C837.092 71.4343 835.65 71.6796 834.776 72.3622C833.51 73.6456 833.774 75.2027 834.913 76.0771Z" fill="white"/>
<path d="M855.169 85.0669C856.384 85.9284 857.941 85.6636 858.891 84.9681C859.752 83.7535 859.487 82.1965 858.792 81.2468C857.577 80.3853 856.02 80.6501 855.071 81.3456C854.121 82.0411 854.474 84.1172 855.169 85.0669Z" fill="white"/>
<path d="M875.946 93.1377C877.085 94.0121 878.527 93.7668 879.401 93.0842C880.186 91.8826 879.922 90.3255 879.264 89.3693C878.126 88.4949 876.683 88.7403 875.809 89.4229C874.543 90.7063 874.808 92.2633 875.946 93.1377Z" fill="white"/>
<path d="M897.337 101.935C898.475 102.809 899.918 102.564 900.792 101.881C901.665 101.198 901.312 99.1223 900.655 98.1661C899.516 97.2917 898.073 97.5372 897.2 98.2198C895.934 99.5032 896.198 101.06 897.337 101.935Z" fill="white"/>
<path d="M917.793 110.89C918.961 111.759 920.449 111.506 921.353 110.818C922.168 109.611 921.903 108.054 921.231 107.101C920.062 106.231 918.575 106.485 917.671 107.172C916.767 107.86 916.625 110.02 917.793 110.89Z" fill="white"/>
<path d="M938.507 119.801C939.645 120.675 941.088 120.43 941.962 119.748C942.747 118.546 942.482 116.989 941.825 116.033C940.686 115.158 939.243 115.404 938.37 116.086C937.103 117.37 937.368 118.927 938.507 119.801Z" fill="white"/>
<path d="M958.626 127.984C959.841 128.846 961.398 128.581 962.348 127.885C963.209 126.671 962.944 125.114 962.249 124.164C961.034 123.303 959.477 123.567 958.528 124.263C957.578 124.958 957.931 127.035 958.626 127.984Z" fill="white"/>
<path d="M980.217 136.747C981.385 137.616 982.873 137.363 983.777 136.675C984.592 135.469 984.327 133.912 983.655 132.958C982.486 132.089 980.998 132.342 980.095 133.029C979.191 133.717 979.048 135.878 980.217 136.747Z" fill="white"/>
<path d="M1000.47 144.908C1001.68 145.769 1003.24 145.505 1004.19 144.809C1005.05 143.594 1004.78 142.037 1004.09 141.088C1002.87 140.226 1001.32 140.491 1000.37 141.187C999.506 142.401 999.771 143.958 1000.47 144.908Z" fill="white"/>
<path d="M1021.38 153.786C1022.52 154.66 1023.96 154.415 1024.83 153.732C1025.62 152.531 1025.36 150.973 1024.7 150.017C1023.56 149.143 1022.12 149.388 1021.24 150.071C1019.98 151.354 1020.24 152.911 1021.38 153.786Z" fill="white"/>
<path d="M1042.63 161.776C1043.77 162.65 1045.21 162.405 1046.09 161.722C1046.87 160.52 1046.61 158.963 1045.95 158.007C1044.81 157.133 1043.37 157.378 1042.5 158.061C1041.23 159.344 1041.5 160.901 1042.63 161.776Z" fill="white"/>
<path d="M1063.09 170.731C1064.26 171.601 1065.74 171.347 1066.65 170.66C1067.46 169.453 1067.2 167.896 1066.53 166.942C1065.36 166.073 1063.87 166.326 1062.97 167.014C1062.15 168.221 1061.92 169.862 1063.09 170.731Z" fill="white"/>
<path d="M722.661 54.5506C723.799 55.425 725.242 55.1796 726.116 54.497C726.901 53.2954 726.636 51.7384 725.979 50.7822C724.841 49.9078 723.398 50.1531 722.524 50.8357C721.258 52.1191 721.523 53.6762 722.661 54.5506Z" fill="white"/>
<path d="M742.779 62.7337C743.993 63.5951 745.55 63.3304 746.5 62.6348C747.362 61.4203 747.097 59.8632 746.401 58.9134C745.187 58.0519 743.63 58.3169 742.68 59.0124C741.818 60.227 742.083 61.7839 742.779 62.7337Z" fill="white"/>
<path d="M764.369 71.4963C765.538 72.3656 767.025 72.1126 767.929 71.4249C768.744 70.2182 768.479 68.6612 767.807 67.7075C766.639 66.8382 765.151 67.0913 764.247 67.779C763.344 68.4667 763.112 70.108 764.369 71.4963Z" fill="white"/>
<path d="M785.085 80.407C786.223 81.2814 787.666 81.0361 788.54 80.3535C789.325 79.1518 789.06 77.5949 788.403 76.6386C787.264 75.7642 785.821 76.0096 784.948 76.6922C783.593 77.4566 783.946 79.5326 785.085 80.407Z" fill="white"/>
<path d="M805.402 88.5571C806.571 89.4264 808.058 89.1733 808.962 88.4856C809.777 87.2789 809.513 85.7219 808.84 84.7682C807.672 83.8989 806.184 84.1519 805.28 84.8396C804.465 86.0463 804.234 87.6878 805.402 88.5571Z" fill="white"/>
<path d="M826.923 97.331C828.061 98.2054 829.504 97.96 830.378 97.2774C831.163 96.0758 830.898 94.5188 830.241 93.5626C829.102 92.6882 827.659 92.9335 826.786 93.6161C825.519 94.8995 825.784 96.4566 826.923 97.331Z" fill="white"/>
<path d="M847.179 106.321C848.394 107.182 849.951 106.917 850.9 106.222C851.762 105.007 851.497 103.45 850.802 102.5C849.587 101.639 848.03 101.904 847.08 102.599C846.219 103.814 846.484 105.371 847.179 106.321Z" fill="white"/>
<path d="M867.826 114.413C868.995 115.283 870.482 115.03 871.386 114.342C872.201 113.135 871.936 111.578 871.264 110.625C870.096 109.755 868.608 110.008 867.704 110.696C866.801 111.384 866.658 113.544 867.826 114.413Z" fill="white"/>
<path d="M888.212 123.381C889.427 124.243 890.984 123.978 891.934 123.282C892.795 122.068 892.53 120.511 891.835 119.561C890.62 118.7 889.063 118.964 888.114 119.66C887.164 120.356 887.517 122.431 888.212 123.381Z" fill="white"/>
<path d="M908.859 131.474C910.028 132.344 911.516 132.091 912.419 131.403C913.323 130.715 912.97 128.639 912.297 127.686C911.129 126.816 909.641 127.069 908.737 127.757C907.922 128.964 907.691 130.605 908.859 131.474Z" fill="white"/>
<path d="M930.38 140.249C931.518 141.123 932.961 140.878 933.835 140.195C934.62 138.994 934.355 137.437 933.698 136.481C932.559 135.606 931.116 135.851 930.243 136.534C928.976 137.817 929.241 139.375 930.38 140.249Z" fill="white"/>
<path d="M950.836 149.204C952.004 150.073 953.492 149.82 954.396 149.132C955.211 147.926 954.946 146.369 954.274 145.415C953.105 144.546 951.617 144.799 950.714 145.486C949.81 146.174 949.579 147.816 950.836 149.204Z" fill="white"/>
<path d="M971.413 157.31C972.551 158.184 973.994 157.939 974.868 157.256C975.653 156.054 975.388 154.497 974.731 153.541C973.592 152.667 972.15 152.912 971.276 153.595C969.921 154.359 970.274 156.435 971.413 157.31Z" fill="white"/>
<path d="M991.669 166.299C992.884 167.16 994.441 166.895 995.391 166.2C996.252 164.985 995.987 163.428 995.292 162.478C994.077 161.617 992.52 161.882 991.571 162.577C990.621 163.273 990.974 165.349 991.669 166.299Z" fill="white"/>
<path d="M1013.25 174.234C1014.39 175.108 1015.83 174.863 1016.71 174.18C1017.58 173.497 1017.23 171.421 1016.57 170.465C1015.43 169.591 1013.99 169.836 1013.12 170.519C1011.85 171.802 1012.11 173.359 1013.25 174.234Z" fill="white"/>
<path d="M1033.51 183.222C1034.72 184.084 1036.28 183.819 1037.23 183.123C1038.18 182.428 1037.83 180.352 1037.13 179.402C1036.43 178.452 1034.36 178.805 1033.41 179.501C1032.55 180.715 1032.81 182.273 1033.51 183.222Z" fill="white"/>
<path d="M692.949 67.0636C694.163 67.9251 695.72 67.6603 696.67 66.9648C697.532 65.7502 697.267 64.1932 696.571 63.2435C695.357 62.382 693.8 62.6468 692.85 63.3423C691.988 64.5568 692.253 66.1139 692.949 67.0636Z" fill="white"/>
<path d="M714.532 74.9982C715.67 75.8726 717.113 75.6272 717.987 74.9446C718.861 74.262 718.508 72.1859 717.85 71.2297C716.712 70.3553 715.269 70.6008 714.395 71.2834C713.129 72.5668 713.394 74.1238 714.532 74.9982Z" fill="white"/>
<path d="M734.789 83.9873C736.003 84.8488 737.56 84.584 738.51 83.8885C739.371 82.6739 739.107 81.117 738.411 80.1672C737.196 79.3057 735.639 79.5705 734.69 80.266C733.828 81.4806 734.093 83.0375 734.789 83.9873Z" fill="white"/>
<path d="M755.436 92.0813C756.604 92.9506 758.092 92.6974 758.995 92.0097C759.811 90.803 759.546 89.2461 758.873 88.2924C757.705 87.4231 756.217 87.6761 755.314 88.3638C754.498 89.5705 754.267 91.2119 755.436 92.0813Z" fill="white"/>
<path d="M776.826 100.878C777.995 101.747 779.482 101.494 780.386 100.806C781.201 99.5997 780.936 98.0427 780.264 97.089C779.096 96.2197 777.608 96.4727 776.704 97.1604C775.801 97.8481 775.658 100.009 776.826 100.878Z" fill="white"/>
<path d="M797.275 109.005C798.444 109.874 799.932 109.621 800.835 108.933C801.65 107.727 801.386 106.17 800.713 105.216C799.545 104.347 798.057 104.6 797.153 105.287C796.25 105.975 796.107 108.136 797.275 109.005Z" fill="white"/>
<path d="M818.128 118.722C819.266 119.596 820.709 119.351 821.583 118.668C822.456 117.985 822.103 115.909 821.446 114.953C820.307 114.079 818.864 114.324 817.991 115.007C816.636 115.771 816.901 117.328 818.128 118.722Z" fill="white"/>
<path d="M838.246 126.906C839.46 127.767 841.017 127.502 841.967 126.807C842.828 125.592 842.563 124.035 841.868 123.085C840.653 122.224 839.096 122.489 838.147 123.184C837.197 123.88 837.55 125.956 838.246 126.906Z" fill="white"/>
<path d="M859.966 135.645C861.104 136.52 862.547 136.274 863.421 135.592C864.206 134.39 863.941 132.833 863.284 131.877C862.626 130.921 860.702 131.248 859.829 131.93C858.562 133.214 858.827 134.771 859.966 135.645Z" fill="white"/>
<path d="M879.279 143.966C880.493 144.828 882.05 144.563 883 143.867C883.862 142.653 883.597 141.096 882.901 140.146C881.687 139.285 880.13 139.549 879.18 140.245C878.318 141.459 878.583 143.017 879.279 143.966Z" fill="white"/>
<path d="M900.869 152.728C902.038 153.597 903.525 153.344 904.429 152.657C905.244 151.45 904.979 149.893 904.307 148.939C903.139 148.07 901.651 148.323 900.747 149.011C899.844 149.698 899.701 151.859 900.869 152.728Z" fill="white"/>
<path d="M921.446 160.834C922.585 161.708 924.027 161.463 924.901 160.78C925.775 160.098 925.422 158.022 924.764 157.066C923.626 156.191 922.183 156.436 921.309 157.119C920.043 158.402 920.308 159.959 921.446 160.834Z" fill="white"/>
<path d="M941.902 169.79C943.071 170.659 944.559 170.406 945.462 169.718C946.366 169.03 946.013 166.954 945.34 166.001C944.172 165.131 942.684 165.385 941.78 166.072C940.965 167.279 940.734 168.92 941.902 169.79Z" fill="white"/>
<path d="M963.286 177.758C964.424 178.632 965.867 178.387 966.741 177.704C967.526 176.503 967.261 174.946 966.604 173.989C965.466 173.115 964.023 173.36 963.149 174.043C961.883 175.326 962.148 176.883 963.286 177.758Z" fill="white"/>
<path d="M983.54 186.748C984.755 187.609 986.312 187.344 987.262 186.649C988.123 185.434 987.858 183.877 987.163 182.927C985.948 182.066 984.391 182.331 983.442 183.026C982.58 184.241 982.845 185.798 983.54 186.748Z" fill="white"/>
<path d="M1004.46 195.624C1005.59 196.499 1007.04 196.253 1007.91 195.571C1008.7 194.369 1008.43 192.812 1007.77 191.856C1006.64 190.981 1005.19 191.227 1004.32 191.909C1002.96 192.674 1003.23 194.231 1004.46 195.624Z" fill="white"/>
<path d="M685.021 87.4783C686.19 88.3476 687.678 88.0946 688.581 87.4069C689.397 86.2002 689.132 84.6431 688.459 83.6894C687.291 82.8201 685.803 83.0732 684.9 83.7609C683.996 84.4486 683.765 86.0899 685.021 87.4783Z" fill="white"/>
<path d="M705.607 96.4109C706.776 97.2802 708.264 97.0272 709.167 96.3395C709.983 95.1328 709.718 93.5758 709.045 92.6221C707.877 91.7528 706.389 92.0058 705.485 92.6935C704.582 93.3812 704.439 95.5415 705.607 96.4109Z" fill="white"/>
<path d="M725.855 104.573C727.069 105.434 728.627 105.17 729.576 104.474C730.526 103.778 730.173 101.703 729.477 100.753C728.263 99.8913 726.706 100.156 725.756 100.852C724.895 102.066 725.159 103.623 725.855 104.573Z" fill="white"/>
<path d="M747.575 113.313C748.714 114.187 750.156 113.942 751.03 113.259C751.815 112.058 751.55 110.501 750.893 109.544C749.755 108.67 748.312 108.915 747.438 109.598C746.172 110.881 746.437 112.438 747.575 113.313Z" fill="white"/>
<path d="M768.161 122.247C769.299 123.121 770.742 122.876 771.616 122.193C772.401 120.991 772.136 119.434 771.479 118.478C770.34 117.604 768.898 117.849 768.024 118.532C766.758 119.815 767.023 121.372 768.161 122.247Z" fill="white"/>
<path d="M788.478 130.395C789.647 131.265 791.135 131.012 792.038 130.324C792.854 129.117 792.589 127.56 791.916 126.607C790.748 125.737 789.26 125.99 788.357 126.678C787.541 127.885 787.31 129.526 788.478 130.395Z" fill="white"/>
<path d="M809.869 139.192C811.037 140.061 812.525 139.808 813.429 139.121C814.244 137.914 813.979 136.357 813.307 135.403C812.139 134.534 810.651 134.787 809.747 135.475C808.844 136.162 808.701 138.323 809.869 139.192Z" fill="white"/>
<path d="M830.318 147.32C831.487 148.189 832.974 147.936 833.878 147.248C834.782 146.56 834.429 144.484 833.756 143.531C832.588 142.661 831.1 142.914 830.196 143.602C829.381 144.809 829.15 146.45 830.318 147.32Z" fill="white"/>
<path d="M851.032 156.231C852.17 157.105 853.613 156.86 854.487 156.177C855.361 155.495 855.007 153.419 854.35 152.463C853.212 151.588 851.769 151.834 850.895 152.516C849.629 153.8 849.894 155.357 851.032 156.231Z" fill="white"/>
<path d="M871.289 165.22C872.503 166.082 874.06 165.817 875.01 165.121C875.871 163.907 875.607 162.35 874.911 161.4C873.696 160.538 872.139 160.803 871.19 161.499C870.24 162.194 870.505 163.751 871.289 165.22Z" fill="white"/>
<path d="M892.065 173.292C893.204 174.166 894.647 173.921 895.52 173.238C896.306 172.037 896.041 170.48 895.383 169.524C894.245 168.649 892.802 168.894 891.928 169.577C890.574 170.341 890.927 172.417 892.065 173.292Z" fill="white"/>
<path d="M913.456 182.088C914.594 182.962 916.037 182.717 916.911 182.034C917.696 180.832 917.431 179.275 916.774 178.319C915.635 177.445 914.193 177.69 913.319 178.373C912.053 179.656 912.317 181.213 913.456 182.088Z" fill="white"/>
<path d="M933.775 190.238C934.944 191.107 936.432 190.854 937.335 190.166C938.15 188.96 937.886 187.403 937.213 186.449C936.045 185.58 934.557 185.833 933.653 186.52C932.838 187.727 932.607 189.368 933.775 190.238Z" fill="white"/>
<path d="M954.489 199.149C955.628 200.023 957.07 199.777 957.944 199.095C958.818 198.412 958.465 196.336 957.807 195.38C956.669 194.506 955.226 194.751 954.352 195.434C953.086 196.717 953.351 198.274 954.489 199.149Z" fill="white"/>
<path d="M974.609 207.333C975.823 208.194 977.38 207.929 978.33 207.234C979.192 206.019 978.927 204.462 978.231 203.512C977.017 202.651 975.46 202.916 974.51 203.611C973.648 204.826 973.913 206.383 974.609 207.333Z" fill="white"/>
<path d="M996.329 216.072C997.467 216.947 998.91 216.701 999.784 216.019C1000.57 214.817 1000.3 213.26 999.647 212.304C998.508 211.429 997.066 211.675 996.192 212.357C994.926 213.641 995.19 215.198 996.329 216.072Z" fill="white"/>
<path d="M676.088 108.063C677.256 108.933 678.744 108.679 679.648 107.992C680.463 106.785 680.198 105.228 679.526 104.274C678.357 103.405 676.869 103.658 675.966 104.346C675.151 105.553 674.92 107.194 676.088 108.063Z" fill="white"/>
<path d="M697.608 116.837C698.747 117.711 700.189 117.466 701.063 116.783C701.848 115.582 701.584 114.025 700.926 113.069C699.788 112.194 698.345 112.439 697.471 113.122C696.205 114.405 696.47 115.963 697.608 116.837Z" fill="white"/>
<path d="M717.728 125.021C718.942 125.882 720.5 125.618 721.449 124.922C722.311 123.708 722.046 122.15 721.35 121.201C720.136 120.339 718.579 120.604 717.629 121.3C716.679 121.995 717.032 124.071 717.728 125.021Z" fill="white"/>
<path d="M738.778 134.704C739.917 135.578 741.359 135.333 742.233 134.65C743.018 133.449 742.754 131.891 742.096 130.935C740.958 130.061 739.515 130.306 738.641 130.989C737.287 131.753 737.551 133.31 738.778 134.704Z" fill="white"/>
<path d="M758.898 142.887C760.112 143.749 761.669 143.484 762.619 142.789C763.481 141.574 763.216 140.017 762.52 139.067C761.306 138.206 759.749 138.471 758.799 139.166C757.849 139.862 758.202 141.938 758.898 142.887Z" fill="white"/>
<path d="M780.488 151.649C781.657 152.518 783.145 152.265 784.048 151.578C784.863 150.371 784.599 148.814 783.926 147.86C782.758 146.991 781.27 147.244 780.366 147.932C779.551 149.139 779.32 150.78 780.488 151.649Z" fill="white"/>
<path d="M801.065 159.755C802.204 160.63 803.647 160.384 804.52 159.702C805.305 158.5 805.041 156.943 804.383 155.987C803.245 155.112 801.802 155.358 800.928 156.04C799.662 157.324 799.927 158.881 801.065 159.755Z" fill="white"/>
<path d="M821.522 168.71C822.69 169.579 824.178 169.326 825.081 168.639C825.897 167.432 825.632 165.875 824.959 164.921C823.791 164.052 822.303 164.305 821.399 164.993C820.496 165.68 820.353 167.841 821.522 168.71Z" fill="white"/>
<path d="M842.905 176.679C844.044 177.553 845.486 177.308 846.36 176.625C847.234 175.943 846.881 173.867 846.223 172.91C845.085 172.036 843.642 172.281 842.768 172.964C841.502 174.247 841.767 175.804 842.905 176.679Z" fill="white"/>
<path d="M863.16 185.668C864.374 186.529 865.931 186.264 866.881 185.569C867.831 184.873 867.478 182.797 866.782 181.848C865.568 180.986 864.01 181.251 863.061 181.947C862.199 183.161 862.464 184.718 863.16 185.668Z" fill="white"/>
<path d="M883.938 193.74C885.077 194.614 886.52 194.369 887.393 193.686C888.179 192.484 887.914 190.927 887.256 189.971C886.118 189.097 884.675 189.342 883.801 190.025C882.535 191.308 882.8 192.865 883.938 193.74Z" fill="white"/>
<path d="M904.193 202.729C905.407 203.59 906.964 203.325 907.914 202.63C908.776 201.415 908.511 199.858 907.815 198.909C906.601 198.047 905.044 198.312 904.094 199.007C903.232 200.222 903.497 201.779 904.193 202.729Z" fill="white"/>
<path d="M924.979 211.628C926.147 212.498 927.635 212.245 928.538 211.557C929.354 210.35 929.089 208.793 928.416 207.84C927.248 206.97 925.76 207.223 924.857 207.911C923.953 208.599 923.722 210.24 924.979 211.628Z" fill="white"/>
<path d="M946.499 220.402C947.637 221.277 949.08 221.031 949.954 220.349C950.739 219.147 950.474 217.59 949.817 216.634C948.678 215.759 947.236 216.005 946.362 216.687C945.007 217.452 945.36 219.528 946.499 220.402Z" fill="white"/>
<path d="M647.78 121.167C648.919 122.041 650.361 121.796 651.235 121.113C652.109 120.431 651.756 118.355 651.098 117.399C649.96 116.524 648.517 116.769 647.643 117.452C646.377 118.735 646.642 120.293 647.78 121.167Z" fill="white"/>
<path d="M668.098 129.317C669.266 130.186 670.754 129.933 671.657 129.246C672.473 128.039 672.208 126.482 671.536 125.528C670.367 124.659 668.879 124.912 667.976 125.599C667.16 126.806 666.929 128.448 668.098 129.317Z" fill="white"/>
<path d="M688.813 138.228C689.952 139.102 691.395 138.857 692.268 138.174C693.054 136.972 692.789 135.415 692.131 134.459C690.993 133.585 689.55 133.83 688.676 134.513C687.41 135.796 687.675 137.353 688.813 138.228Z" fill="white"/>
<path d="M708.931 146.412C710.146 147.273 711.703 147.008 712.652 146.313C713.514 145.098 713.249 143.541 712.553 142.592C711.339 141.73 709.782 141.995 708.832 142.691C707.971 143.905 708.236 145.462 708.931 146.412Z" fill="white"/>
<path d="M730.651 155.151C731.79 156.026 733.232 155.781 734.106 155.098C734.891 153.896 734.627 152.339 733.969 151.383C732.831 150.509 731.388 150.754 730.514 151.437C729.248 152.72 729.513 154.277 730.651 155.151Z" fill="white"/>
<path d="M750.771 163.335C751.986 164.197 753.542 163.932 754.492 163.236C755.442 162.541 755.089 160.465 754.393 159.515C753.179 158.654 751.622 158.918 750.672 159.614C749.811 160.828 750.075 162.386 750.771 163.335Z" fill="white"/>
<path d="M729.912 152.791C731.126 153.652 732.683 153.388 733.633 152.692C734.583 151.996 734.23 149.921 733.534 148.971C732.319 148.109 730.762 148.374 729.813 149.07C728.951 150.284 729.216 151.841 729.912 152.791Z" fill="white"/>
<path d="M771.555 172.234C772.723 173.104 774.211 172.851 775.114 172.163C776.018 171.475 775.665 169.399 774.993 168.445C773.824 167.576 772.336 167.829 771.433 168.517C770.617 169.724 770.386 171.365 771.555 172.234Z" fill="white"/>
<path d="M793.075 181.009C794.213 181.883 795.656 181.638 796.53 180.955C797.315 179.754 797.05 178.197 796.393 177.24C795.255 176.366 793.812 176.611 792.938 177.294C791.584 178.058 791.848 179.615 793.075 181.009Z" fill="white"/>
<path d="M813.394 189.158C814.563 190.027 816.051 189.774 816.954 189.087C817.77 187.88 817.505 186.323 816.832 185.369C815.664 184.5 814.176 184.753 813.273 185.441C812.369 186.128 812.226 188.289 813.394 189.158Z" fill="white"/>
<path d="M834.108 198.07C835.247 198.944 836.689 198.699 837.563 198.016C838.348 196.815 838.084 195.257 837.426 194.301C836.288 193.427 834.845 193.672 833.971 194.355C832.705 195.638 832.97 197.195 834.108 198.07Z" fill="white"/>
<path d="M854.228 206.253C855.443 207.114 857 206.849 857.949 206.154C858.811 204.939 858.546 203.382 857.85 202.432C856.636 201.571 855.079 201.836 854.129 202.531C853.268 203.746 853.532 205.303 854.228 206.253Z" fill="white"/>
<path d="M875.948 214.994C877.086 215.868 878.529 215.622 879.403 214.94C880.188 213.738 879.924 212.181 879.266 211.225C878.128 210.351 876.685 210.596 875.811 211.279C874.545 212.562 874.81 214.119 875.948 214.994Z" fill="white"/>
<path d="M895.261 223.314C896.476 224.175 898.033 223.91 898.982 223.215C899.844 222 899.579 220.443 898.884 219.493C897.669 218.632 896.112 218.897 895.162 219.592C894.301 220.807 894.566 222.364 895.261 223.314Z" fill="white"/>
<path d="M916.852 232.076C918.02 232.945 919.508 232.692 920.411 232.005C921.227 230.798 920.962 229.241 920.289 228.287C919.121 227.418 917.633 227.671 916.73 228.359C915.914 229.565 915.683 231.207 916.852 232.076Z" fill="white"/>
<path d="M680.684 158.677C681.823 159.551 683.266 159.306 684.139 158.623C685.013 157.94 684.66 155.864 684.002 154.908C682.864 154.034 681.421 154.279 680.547 154.962C679.193 155.726 679.546 157.802 680.684 158.677Z" fill="white"/>
<path d="M701.141 167.631C702.309 168.501 703.797 168.248 704.7 167.56C705.516 166.353 705.251 164.796 704.578 163.843C703.41 162.973 701.922 163.226 701.019 163.914C700.203 165.121 699.972 166.762 701.141 167.631Z" fill="white"/>
<path d="M721.718 175.738C722.856 176.612 724.299 176.366 725.173 175.684C725.958 174.482 725.693 172.925 725.036 171.969C723.897 171.095 722.454 171.34 721.581 172.023C720.314 173.306 720.579 174.863 721.718 175.738Z" fill="white"/>
<path d="M741.974 184.726C743.189 185.588 744.746 185.323 745.695 184.627C746.557 183.413 746.292 181.856 745.597 180.906C744.382 180.044 742.825 180.309 741.875 181.005C741.014 182.219 741.279 183.776 741.974 184.726Z" fill="white"/>
<path d="M763.558 192.661C764.696 193.535 766.139 193.29 767.012 192.607C767.798 191.406 767.533 189.849 766.875 188.893C765.737 188.018 764.294 188.263 763.42 188.946C762.154 190.229 762.419 191.787 763.558 192.661Z" fill="white"/>
<path d="M784.141 201.594C785.28 202.468 786.723 202.223 787.596 201.54C788.382 200.339 788.117 198.782 787.459 197.826C786.321 196.951 784.878 197.197 784.005 197.879C782.738 199.163 783.003 200.72 784.141 201.594Z" fill="white"/>
<path d="M804.461 209.744C805.629 210.613 807.117 210.36 808.021 209.673C808.836 208.466 808.571 206.909 807.899 205.955C806.73 205.086 805.243 205.339 804.339 206.027C803.524 207.233 803.293 208.875 804.461 209.744Z" fill="white"/>
<path d="M825.981 218.518C827.12 219.392 828.563 219.146 829.436 218.464C830.222 217.262 829.957 215.705 829.299 214.749C828.161 213.875 826.718 214.12 825.844 214.803C824.578 216.086 824.843 217.643 825.981 218.518Z" fill="white"/>
<path d="M846.436 227.473C847.604 228.343 849.092 228.089 849.995 227.402C850.811 226.195 850.546 224.638 849.873 223.684C848.705 222.815 847.217 223.068 846.314 223.756C845.41 224.443 845.179 226.085 846.436 227.473Z" fill="white"/>
<path d="M733.847 205.174C735.062 206.035 736.619 205.771 737.568 205.075C738.43 203.861 738.165 202.304 737.47 201.354C736.255 200.492 734.698 200.757 733.748 201.453C732.799 202.148 733.152 204.224 733.847 205.174Z" fill="white"/>
<path d="M754.761 214.052C755.899 214.926 757.342 214.681 758.215 213.998C759.001 212.797 758.736 211.24 758.079 210.283C756.94 209.409 755.497 209.654 754.624 210.337C753.357 211.62 753.622 213.177 754.761 214.052Z" fill="white"/>
<circle cx="1021.81" cy="117.257" r="13.7143" fill="#6332CD"/>
</g>
<mask id="mask1" mask-type="alpha" maskUnits="userSpaceOnUse" x="0" y="60" width="486" height="180">
<path d="M0 60H486V240H0V60Z" fill="#C4C4C4"/>
</mask>
<g mask="url(#mask1)">
<path d="M470.436 230.461C580.607 339.034 0 323.802 0 323.802L1.37329e-05 135.152C112.522 73.1903 189.446 24.0672 214.532 135.152C245.171 270.824 290.563 53.1967 470.436 230.461Z" fill="#F39681"/>
<circle cx="277.2" cy="213.001" r="113.2" stroke="#6332CD" stroke-width="4"/>
</g>
<path d="M0 211.048C0 211.048 253.5 164.811 431.5 193.243C609.5 221.674 585.5 239.923 705 216.583C824.5 193.243 1200 216.583 1200 216.583V256H0V211.048Z" fill="#3DCD90"/>
</svg>
